<?xml version="1.0" encoding="UTF-8" standalone="no"?>
<!DOCTYPE svg  PUBLIC '-//W3C//DTD SVG 20010904//EN'  'http://www.w3.org/TR/2001/REC-SVG-20010904/DTD/svg10.dtd'>
<svg xmlns:rdf="http://www.w3.org/1999/02/22-rdf-syntax-ns#" xmlns="http://www.w3.org/2000/svg" height="150pt" width="250pt" xmlns:xlink="http://www.w3.org/1999/xlink" xmlns:cc="http://web.resource.org/cc/" xmlns:dc="http://purl.org/dc/elements/1.1/">
 <path fill-opacity=".29825" fill="#ffffff" d="m12 0h288.5c6.65 0 12 5.352 12 12v163.5c0 6.65-5.35 12-12 12h-288.5c-6.648 0-12-5.35-12-12v-163.5c0-6.648 5.352-12 12-12z"/>
 <path fill="#ffff00000" d="m0 0h312.5v187.5h-312.5v-187.5z"/>
 <path fill="#ffff00" d="m71.061 9.9437c-1.447-0.0041-2.9 0.0643-4.355 0.2153-27.782 1.063-50.124 30.301-43.913 57.41 4.62 25.59 32.514 44.171 57.912 37.791 24.735-5.35 42.695-32.171 36.665-57.055-4.31-21.257-24.605-38.3-46.309-38.361zm-0.885 8.1603c24.06-0.709 44.874 24.104 39.484 47.694-4.03 21.608-27.789 37.442-49.248 31.325-19.987-4.997-34.638-26.812-29.626-47.215 3.786-17.696 20.995-32.245 39.39-31.804zm-1.771 7.06c-1.307 0.035-2.606 0.141-3.901 0.335-10.908 1.847-19.792 10.209-23.954 20.317h10.385c1.907-3.315 4.578-6.172 8.137-7.969 3.38-2.04 7.252-2.906 11.152-3.159 16.023-0.264 28.782 20.569 18.737 34.006-6.926 12.34-26.421 14.569-35.417 3.302-0.71-0.714-1.219-1.547-1.795-2.345h-11.271c0.424 0.923 0.87 1.838 1.412 2.728 8.946 16.965 34.974 22.927 48.986 8.735 13.494-11.032 14.784-33.631 2.249-45.923-6.312-6.693-15.569-10.272-24.72-10.027z"/>
</svg>
