<?xml version="1.0" encoding="UTF-8" standalone="no"?>
<!DOCTYPE svg PUBLIC "-//W3C//DTD SVG 20010904//EN" "http://www.w3.org/TR/2001/REC-SVG-20010904/DTD/svg10.dtd">
<svg xmlns="http://www.w3.org/2000/svg" xmlns:xlink="http://www.w3.org/1999/xlink" height="80pt" width="80pt">
 <path d="m7.9366 92.135c1.6474-2.516 6.9604-5.358 9.3104-6.37 6.045-1.97 9.619 1.001 12.545 4.034 3 3.464 2.227 4.139 3.463 3.387 4.484-3.061 7.924-7.327 11.598-11.307 6.02-6.35 9.366-2.046 9.552 2.515 0.12 2.31 0.02 5.967 1.912 7.048 0.75-1.641-3.92 1.155 0.591-1.88 1.686-1.134 3.404-2.145 5.122-3.155 7.179-4.11 14.697-7.916 19.761-4.643 0.874 0.89 0.498 0.419 1.146 1.399 0.151 4.088-3.615 5.291-6.351 2.37-0.179-0.334-0.502-1.01-0.674-1.275-0.845-1.962-8.342 3.893-10.123 4.925-5.694 3.452-10.799 8.377-15.322 5.369-2.186-2.15-2.501-5.599-2.747-9.061-0.374-5.644 4.113-3.477 2.577-1.988-4.283 4.347-8.055 8.951-13.038 12.493-7.915 4.904-10.132 0.178-13.259-3.381-0.861-0.866-3.467-3.224-4.153-3.226-1.734 0.537-5.026 3.885-5.193 3.268-2.652 2.919-5.7154 2.745-6.7174-0.522z" fill="#000000"/>
 <path stroke-linejoin="round" d="m34.741 141.95c3.861-12.45 9.57-18.92 16.323-29.93 8.489-12.313 13.4-23.679 24.857-35.028 12.192-14.201 30.779-34.522 50.199-37.527 19.69-1.293 42.57-16.933 46.09-15.939-6.25 12.04 1.18 25.532-2.84 38.497-2.93 8.255-41.38 29.833-46.7 32.28-6.42 3.879-29.26 27.627-35.531 31.947-6.99 6.06-5.588 13.73-16.461 13.41-0.419-0.1-22.764 2.71-31.48 3.89-3.335 8.85 24.787-0.59 10.195 5.89-6.83 3.03-18.676 3.08-14.652-7.49z" fill-rule="evenodd" transform="matrix(0.562 0 0 .57014 -4.298 -6.4231)" stroke="#000000" stroke-width="2.2083" fill="#fffffffff"/>
 <g fill-rule="evenodd" fill="#ffffff">
  <g stroke-width="1pt">
   <path d="m49.856 129.33c2.512 0.16 24.187 1.49 35.92-4.52-19.431 2.45-31.101 0.89-33.289 1.2-0.513 0.65-1.638 2.42-2.631 3.32z" transform="matrix(0.562 0 0 .57014 -4.298 -6.4231)"/>
   <path d="m43.479 139.8c2.512 0.17 26.15-2.27 37.883-8.28-19.431 2.46-32.713 3.97-35.57 4.45-0.146 1.01-1.32 2.94-2.313 3.83z" transform="matrix(0.562 0 0 .57014 -4.298 -6.4231)"/>
   <path d="m56.087 121.2c2.512 0.17 28.279 1.93 40.011-4.08-19.43 2.45-34.705 0.27-36.893 0.58-0.513 0.65-2.125 2.61-3.118 3.5z" transform="matrix(0.562 0 0 .57014 -4.298 -6.4231)"/>
   <path d="m63.998 111.88c2.512 0.17 28.677 2.75 40.412-3.26-19.433 2.46-34.74-0.73-36.927-0.42-0.513 0.65-2.492 2.79-3.485 3.68z" transform="matrix(0.562 0 0 .57014 -4.298 -6.4231)"/>
   <path d="m73.105 102.33c2.512 0.17 28.425 3.78 40.165-2.24-19.433 2.46-34.493-1.566-36.68-1.254-0.513 0.647-2.492 2.604-3.485 3.494z" transform="matrix(0.562 0 0 .57014 -4.298 -6.4231)"/>
   <path d="m83.775 91.282c2.512 0.168 31.245 1.232 42.305-0.592-15.07-1.398-36.45-3.219-38.637-2.907-0.513 0.648-2.676 2.607-3.668 3.499z" transform="matrix(0.562 0 0 .57014 -4.298 -6.4231)"/>
   <path d="m94.979 80.384c2.512 0.167 34.271 4.942 45.331 2.449-15.58-1.733-39.29-6.08-41.48-5.767-0.512 0.647-2.858 2.425-3.851 3.318z" transform="matrix(0.562 0 0 .57014 -4.298 -6.4231)"/>
   <path d="m106.06 70.865c2.52 0.167 35.85 6.075 46.24 3.916-11.05-1.063-39.65-7.908-41.83-7.596-0.52 0.648-3.41 2.787-4.41 3.68z" transform="matrix(0.562 0 0 .57014 -4.298 -6.4231)"/>
   <path d="m118.81 61.139c2.51 0.167 35.29 6.436 44.35 5.282-12.4-0.895-37.49-8.062-39.68-7.75-0.85 0.983-3.68 1.575-4.67 2.468z" transform="matrix(0.562 0 0 .57014 -4.298 -6.4231)"/>
   <path d="m133.88 53.281c2.51 0.168 25.68 4.916 34.9 5.102-12.57-1.901-27.51-7.895-29.69-7.583-0.52 0.648-4.22 1.588-5.21 2.481z" transform="matrix(0.562 0 0 .57014 -4.298 -6.4231)"/>
   <path d="m146.96 47.072c2.51 0.167 13.27 2.919 22.66 1.263-10.22-0.226-16.49-3.735-18.68-3.423-0.51 0.648-2.99 1.267-3.98 2.16z" transform="matrix(0.562 0 0 .57014 -4.298 -6.4231)"/>
   <path d="m157.32 40.051c2.52 0.168 6.86-0.596 10.39-2.923-4.86 0.947-5.22-0.218-7.4 0.094-0.52 0.648-1.99 1.937-2.99 2.829z" transform="matrix(0.562 0 0 .57014 -4.298 -6.4231)"/>
   <path d="m164.31 33.045c2.51 0.167 5.63-4.322 6.31-8.155-1.68 2.286-1.98 3.453-2.83 3.932-0.51 0.648-2.49 3.33-3.48 4.223z" transform="matrix(0.562 0 0 .57014 -4.298 -6.4231)"/>
  </g>
  <g>
   <path d="m62.78 24.438l-2.474 1.237c-0.31-0.619 0.927-6.495 3.401-8.041-1.237 2.165-2.267 6.804-0.927 6.804z"/>
   <path d="m70.886 20.056l-1.752 1.031c-0.31-0.618-0.207-3.505 2.371-4.948-1.341 1.34-1.959 3.917-0.619 3.917z"/>
   <path d="m78.308 16.758l-1.752 1.03c-0.31-0.618 1.958-3.298 3.711-4.742-1.856 2.371-2.371 3.402-1.959 3.712z"/>
   <path d="m84.081 13.046l-1.752 1.031c-0.31-0.618 2.061-2.577 3.814-4.02-1.547 1.856-3.402 2.989-2.062 2.989z"/>
   <path d="m54.804 29.747l-2.061 1.443c-0.31-0.619 0.103-7.319 1.855-8.763-1.134 2.371-1.134 7.32 0.206 7.32z"/>
   <path d="m47.692 35.932l-1.547 1.34c-0.309-0.619-0.103-6.701 1.959-9.175-0.928 1.856-1.753 7.835-0.412 7.835z"/>
   <path d="m40.991 42.014l-1.546 1.34c-0.31-0.619 0.515-6.907 2.267-8.35-1.237 2.062-2.061 7.01-0.721 7.01z"/>
   <path d="m35.527 47.89l-1.752 1.34c-0.206-0.825 0.103-5.773 1.855-7.216-1.03 2.371-1.443 5.876-0.103 5.876z"/>
   <path d="m30.167 53.56l-1.547 1.34c-0.309-0.619 1.134-5.258 2.681-7.216-1.237 2.164-2.474 5.876-1.134 5.876z"/>
   <path d="m25.012 59.126l-1.03 1.237c-0.31-0.618 1.134-2.886 2.989-5.051-0.309 2.268-3.299 3.814-1.959 3.814z"/>
  </g>
  <path stroke-linejoin="round" d="m141.66 45.031c-10.86 4.9-24.79 11.005-36.44 20.375-26.616 21.844-35.653 33.435-48.345 46.284 0 0-26.464 29.53-31.687 57.78-1.073 9.75 4.729 8.25 6.156 1.12 4.989-26.98 19.568-46.47 29.125-56.47 11.501-12.34 22.863-27.872 50.311-48.666 10.22-8.414 21.15-13.158 32.19-18.142 12.43-4.709 14.62-9.562 25.31-20.187-4.4 3.616-15.77 13.007-26.62 17.906z" transform="matrix(0.562 0 0 .57014 -4.298 -6.4231)" stroke="#000000" stroke-width="2.2083"/>
 </g>
 <rdf:RDF xmlns:rdf="http://www.w3.org/1999/02/22-rdf-syntax-ns#" xmlns="http://web.resource.org/cc/" xmlns:dc="http://purl.org/dc/elements/1.1/">
  <Work rdf:about="">
   <dc:title>Clipart by Nicu Buculei - nosmoke</dc:title>
   <dc:rights>
    <Agent>
     <dc:title>Nicu Buculei</dc:title>
    </Agent>
   </dc:rights>
   <dc:type rdf:resource="http://purl.org/dc/dcmitype/StillImage"/>
   <license rdf:resource="http://web.resource.org/cc/PublicDomain"/>
  </Work>
  <License rdf:about="http://web.resource.org/cc/PublicDomain">
   <permits rdf:resource="http://web.resource.org/cc/Reproduction"/>
   <permits rdf:resource="http://web.resource.org/cc/Distribution"/>
   <permits rdf:resource="http://web.resource.org/cc/DerivativeWorks"/>
  </License>
 </rdf:RDF>
</svg>
