<?xml version="1.0" encoding="UTF-8" standalone="no"?>
<!DOCTYPE svg  PUBLIC '-//W3C//DTD SVG 20010904//EN'  'http://www.w3.org/TR/2001/REC-SVG-20010904/DTD/svg10.dtd'>
<svg xmlns="http://www.w3.org/2000/svg" height="400pt" width="400pt" xmlns:xlink="http://www.w3.org/1999/xlink">
 <path stroke-linejoin="round" d="m35.613 215.95c-2.258 178.91 425.66 176.36 426.51-0.85-1.7-123.8-426.51-122.95-426.51 0.85z" fill-rule="evenodd" transform="matrix(1.0717 0 0 1.1799 -15.66 -40.026)" stroke="#000000" stroke-width="8.893" fill="#fffffffff"/>
 <g fill-rule="evenodd" stroke="#000000" fill="#ff0000">
  <path stroke-linejoin="bevel" d="m267.4 249.41c-4.34 39.63 16.13 77.96 24.56 97.29 31.37 0.52 103.1-28.18 114.24-38.66 3.74-23.48-32.2-73.15-44.65-74.46-24.85 12.43-71.83 15.49-94.15 15.83z" transform="matrix(1.0717 0 0 1.1799 -15.66 -40.026)" stroke-width="3.3349"/>
  <g stroke-linejoin="round">
   <path d="m170.27 128.09c-9.17 32.76 9.11 99.81 27.45 121.43 43.78 4.03 69.09 1.47 86.05 1.3 11.13-40.61-12.91-113.67-28.63-128.74-34.18-1.52-49.26 0.45-84.87 6.01z" transform="matrix(1.0717 0 0 1.1799 -15.66 -40.026)" stroke-width="8.893"/>
   <path d="m23.341 180.14c18.154-6.05 76.074 12.1 81.259 15.56 12.1 4.32 23.34 10.38 30.26 37.18-17.29 6.05-55.328 23.34-50.141 84.72-19.883-1.73-90.77-69.16-61.378-137.46z" transform="matrix(.98029 0 0 1.0443 6.2387 -2.6306)" stroke-width="9.8835"/>
   <path d="m482.34 212.99c-9.51-13.83-25.03-32.85-85.54-6.91 0.12-3.09-2.96 9.65-9.51 12.1-21.62-8.64-27.67-90.79-5.19-98.57 44.95 15.56 101.1 34.6 100.24 93.38z" transform="matrix(.98029 0 0 1.0443 6.2387 -2.6306)" stroke-width="9.8835"/>
  </g>
 </g>
 <path stroke-linejoin="round" d="m128.84 199.68c-32.947 7.01-22.01 52.16 121.99 52.65 138.09-2.12 141.8-45.75 125.42-50.34" transform="matrix(1.0717 0 0 1.1799 -15.66 -40.026)" stroke="#000000" stroke-width="8.893" fill="none"/>
 <g fill-rule="evenodd">
  <path stroke-linejoin="round" d="m14.142 222.46s-26.516 10.61 0.884 36.24c30.936 30.05 88.384 52.15 121.09 51.26 127.28 25.64 274-2.65 315.54-40.65 5.31-10.61 1.77 8.83 21.22-19.45 19.44-28.28 24.71-52.15 21.21-66.29-2.72-14.1-25.63-22.98-25.63-18.56 0 0 6.19 13.26 8.82 17.68 0.9 10.6 14.16 34.47-29.15 70.71-69.83 63.64-235.11 53.03-275.77 48.61-103.42-7.07-149.38-49.5-155.57-61.87-1.764-7.07-2.648-14.14-2.648-17.68z" transform="matrix(.98029 0 0 1.0443 6.2387 -2.6306)" stroke="#000000" stroke-width="9.8835" fill="#cccccc"/>
  <path d="m77.782 320.57c38.888 29.17 134.35 50.38 187.38 47.73 95.46-5.3 171.48-53.92 185.62-78.66-50.38 29.16-91.04 47.73-159.98 55.68-68.94 7.96-177.66-10.61-213.02-24.75z" fill-opacity=".25"/>
  <path d="m105.18 237.49s110.49 22.98 147.61 23.86c53.92 5.3 161.75-31.82 159.98-44.19 12.38-4.42-98.99 125.51-307.59 20.33z" fill-opacity=".49630" fill="#ffffff"/>
  <path d="m182.5 352.5c-13.26-5.3-17.22-96.98 6.04-107.29 10-5-25.46-7.71-25.46-7.71-15.02 11.49-37.52 98.45-9.33 112.5 10.52 6.1 24.33 7.5 28.75 2.5z" transform="matrix(.98029 0 0 1.0443 6.2387 -2.6306)" stroke="#000000" stroke-width="3.7063" fill="#666633"/>
  <path stroke-linejoin="round" d="m382.72 218.04c11.49 2.65 79.55 13.26 72.48 67.18 9.72-3.54 14.14-10.61 16.79-18.56 0.89-37.13-49.49-62.76-80.43-58.34-5.3 0-8.84 11.49-8.84 9.72z" transform="matrix(.98029 0 0 1.0443 6.2387 -2.6306)" stroke="#000000" stroke-width="9.8835" fill="#666633"/>
  <path d="m144.07 238.37s28.29-33.59 118.44-32.7c76.02-0.89 110.49 24.75 110.49 24.75-15.91 16.79-184.73 42.42-228.93 7.95z" fill-opacity=".24706"/>
  <path d="m63.64 157.94c104.3-45.08 258.98-30.94 347.37-18.56-56.57-34.48-274.01-49.502-347.37 18.56z" fill-opacity=".49804" fill="#ffffff"/>
  <path stroke-linejoin="round" d="m295.22 101.37c30.05 14.14 44.19 100.76 21.21 140.54-1.77 3.53 22.1-2.66 23.87-3.54 22.09-49.5 1.76-121.98-17.68-134.35-10.61-8.839-27.4-2.65-27.4-2.65z" transform="matrix(.98029 0 0 1.0443 6.2387 -2.6306)" stroke="#000000" stroke-width="9.8835" fill="#666633"/>
  <path stroke-linejoin="round" d="m61.872 139.38c56.568 9.72 93.688 78.66 93.688 96.34 0 2.65 19.45 1.77 26.52 3.54-14.14-59.23-66.29-105.19-98.111-110.49-9.723 0-19.445 4.42-22.097 10.61z" transform="matrix(.98029 0 0 1.0443 6.2387 -2.6306)" stroke="#000000" stroke-width="9.8835" fill="#666633"/>
 </g>
 <g fill-opacity=".49804" fill="#ffffff" fill-rule="evenodd">
  <path d="m165.29 251.63c-2.65 7.07-16.8 38.89-16.8 68.94 13.26-44.19 23.87-66.29 30.94-66.29 3.53-0.88-8.84-8.84-14.14-2.65z"/>
  <path d="m387.28 222.73c2.17-2.79 2.24-3.47 4.48-5.23 13.26-1.77 45.76 4.96 59.9 25.29-28.28-18.56-49.36-20.06-64.38-20.06z"/>
  <path d="m304.15 104.44s11.97-2.17 17.95 5.44c15.78 9.8 25.58 56.59 22.86 70.74-1.09-15.78-12.52-69.65-40.81-76.18z"/>
  <path d="m72.909 139.81s8.705-5.44 17.955-4.35c15.236-0.55 46.796 31.01 57.126 43.52 10.34 12.52-35.36-39.71-75.081-39.17z"/>
 </g>
 <rdf:RDF xmlns:rdf="http://www.w3.org/1999/02/22-rdf-syntax-ns#" xmlns="http://web.resource.org/cc/" xmlns:dc="http://purl.org/dc/elements/1.1/">
  <Work rdf:about="">
   <dc:title>Clipart by Nicu Buculei - nosmoke</dc:title>
   <dc:rights>
    <Agent>
     <dc:title>Nicu Buculei</dc:title>
    </Agent>
   </dc:rights>
   <dc:type rdf:resource="http://purl.org/dc/dcmitype/StillImage"/>
   <license rdf:resource="http://web.resource.org/cc/PublicDomain"/>
  </Work>
  <License rdf:about="http://web.resource.org/cc/PublicDomain">
   <permits rdf:resource="http://web.resource.org/cc/Reproduction"/>
   <permits rdf:resource="http://web.resource.org/cc/Distribution"/>
   <permits rdf:resource="http://web.resource.org/cc/DerivativeWorks"/>
  </License>
 </rdf:RDF>
</svg>
