<?xml version="1.0" encoding="UTF-8" standalone="no"?>
<svg xmlns:rdf="http://www.w3.org/1999/02/22-rdf-syntax-ns#" xmlns="http://www.w3.org/2000/svg" xmlns:cc="http://web.resource.org/cc/" xmlns:dc="http://purl.org/dc/elements/1.1/" xmlns:sodipodi="http://inkscape.sourceforge.net/DTD/sodipodi-0.dtd" sodipodi:version="0.32" height="128px" width="128px" sodipodi:docname="insecticide.svg" sodipodi:docbase="/home/nicu/Desktop/svg">
 <sodipodi:namedview showgrid="false"/>
 <path d="m106.88 5.2544l-33.271 22.882 47.361 4.493c-0.58-2.411-1.32-4.796-2.17-7.138l-15.11 2.358-0.19-1.115 14.34-3.888c-0.64-1.565-1.4-3.078-2.16-4.589l-29.228 7.074-0.478-0.605 28.426-8.987c-0.67-1.194-1.44-2.326-2.2-3.474l-14.498 4.717-0.765-0.988 13.763-5.991c-1.19-1.6393-2.45-3.2367-3.82-4.7486zm-65.936 17.018c-4.131-0.014-8.39 0.75-12.652 2.295l-18.292 18.388c20.396 5.889 41.126 4.849 60.136 0l-17.337-18.325c-3.741-1.573-7.724-2.343-11.855-2.358zm29.351 5.673l-11.313 1.083 9.082 9.975 5.067-7.425-2.836-3.633zm-60.295 18.037v69.278c14.787 7.88 51.622 7.4 60.136 0v-7.61c-7.873 2.19-26.078 4.77-40.537 0.73l-0.542-49.013v-1.466c16.468 2.279 27.731 2.676 41.079-0.096v-11.122c-19.01 4.157-39.74 4.495-60.136-0.701zm20.714 14.213v46.565c16.265 4.15 26.623 1.66 39.422-0.77v-5.61c-2.387-0.894-4.126-1.538-6.693-2.484-3.172 1.228-8.56 3.314-9.082 3.504 0.052 0.23 0.216 0.42 0.191 0.67-0.112 1.11-1.056 1.95-2.04 1.85-0.983-0.1-1.673-1.09-1.561-2.2 0.022-0.22 0.177-0.32 0.255-0.51-0.841-0.23-1.44-1.04-1.339-2.04 0.112-1.105 0.961-1.916 1.944-1.816 0.675 0.068 1.163 0.558 1.402 1.211 0.161-0.052 4.393-1.661 5.96-2.231-1.567-0.57-5.799-2.147-5.96-2.199-0.239 0.653-0.727 1.143-1.402 1.211-0.983 0.1-1.832-0.711-1.944-1.816-0.101-1.003 0.498-1.807 1.339-2.04-0.078-0.191-0.233-0.292-0.255-0.51-0.112-1.105 0.578-2.067 1.561-2.167 0.984-0.099 1.928 0.711 2.04 1.817 0.025 0.25-0.139 0.408-0.191 0.637 0.522 0.191 5.91 2.309 9.082 3.537 2.567-0.946 4.305-1.59 6.693-2.485v-8.86c-0.272 0.283-1.02 0.9-1.02 1.02 0 4.939-2.587 8.923-5.8 8.923s-5.832-3.984-5.832-8.923c0-0.666-7.617-5.221-7.617-7.935 0-3.643 5.835-6.597 13.003-6.597 2.763 0 5.162 0.526 7.266 1.275v-11.027c-12.799 2.079-25.93 3.118-39.422 0zm27.79 15.966c-1.205 0-2.231 0.825-2.231 1.817 0 0.991 1.026 1.785 2.231 1.785 1.204 0 2.167-0.794 2.167-1.785 0-0.992-0.963-1.817-2.167-1.817zm8.923 0c-1.205 0-2.167 0.825-2.167 1.817 0 0.991 0.962 1.785 2.167 1.785s2.199-0.794 2.199-1.785c0-0.992-0.994-1.817-2.199-1.817zm2.709 19.153c-0.707 0.273-1.495 0.575-2.646 1.02 1.151 0.445 1.939 0.779 2.646 1.052v-2.072z" fill="#000000"/>
</svg>
