<?xml version="1.0" encoding="UTF-8" standalone="no"?>
<svg xmlns:rdf="http://www.w3.org/1999/02/22-rdf-syntax-ns#" xmlns="http://www.w3.org/2000/svg" height="128" width="128" version="1.0" xmlns:cc="http://web.resource.org/cc/" xmlns:dc="http://purl.org/dc/elements/1.1/">
 <path d="m38.158 12.399c-4.628 0.585-4.684 3.585-4.271 6.631s1.254 13.313 2.279 18.75c0.811 3.931 5.714 21.347 5.507 23.987 1.25 9.388-1.268 20.644-1.619 22.496 5.981-9.576 12.181-10.871 24.328-12.622 0.961-2.729 1.783-4.476 3.27-7.925-0.37 0.143 0.089-0.538-0.33-0.425-0.704 0.085 0.596-3.762 0.596-9.651s4.645-36.403 4.025-42.807c0.239-5.1127-4.906-5.7508-8.006-3.9232-3.101 1.8277-4.751 24.808-5.371 28.463s-0.743 27.454-2.568 27.522c-3.303-1.023-2.66-9.061-4.131-13.505-0.827-4.874-6.27-27.282-6.476-30.328-0.207-3.046-1.53-6.817-7.233-6.663zm40.657 38.536c-2.755 0.153-6.146 4.122-6.146 4.122s-4.711 9.759-7.35 16.776c2.563-0.163 4.972-0.228 6.274-0.309 3.948-0.247 3.586 4.128 2.599 5.858-0.334 0.586 0.192 2.191-1.502 3.366 5.513-2.452 9.895-18.704 9.895-18.704s1.197-1.056-0.777-8.223c-0.617-2.24-1.741-2.956-2.993-2.886zm5.347 10.736c-0.09 0.265-0.192 0.362-0.192 0.362s-5.34 17.93-10.811 19.588c-1.914 2.372-6.075 5.581-10.438 5.997-5.182 0.494-4.282 1.513-4.282 1.513s2.037-1.62-2.898 3.323c-1.979 1.983-1.968 2.021-2.694 2.737 13.954 1.379 16.06 11.759 17.99 16.349 0.918 0.92 1.045 2.81 0.969 3.63 2.115 0.88 5.586 1.87 13.728 3.6s11.571-2.76 11.324-7.95c-0.236-4.98 3.352-27.52 0.192-33.97-4.724 6.019-12.871 14.547-14.678 15.753-2.22 1.483-8.964-3.657-7.658-7.744 0 0 12.04-21.388 14.507-21.388 0.747-0.396 1.903-0.559 3.164-0.468-1.338-0.294-2.628-0.354-3.59-0.149-4.891 0.014-3.506 1.285-4.633-1.183zm9.288 1.949c-1.266-0.092-2.425 0.072-3.174 0.469-2.468 0-13.826 20.515-13.826 20.515-1.48 3.213 3.702 7.661 5.922 6.178 2.221-1.483 13.578-13.842 17.032-19.279 2.586-5.072-2.156-7.605-5.954-7.883zm-22.539 8.937c-3.947 0.247-16.175 0.222-21.569 3.824-7.309 4.142-12.084 12.667-12.366 12.814-5.428 4.943 1.973 21.505 4.687 26.205 3.207 6.18 17.511 4.69 26.394 3.2 1.727-1.23 4.44-3.7 1.725-6.42-1.96-4.66-4.655-15.168-19.204-16.275-0.002 0.007-0.02 0.026-0.021 0.032l0.127 0.096s-0.161 0.065-0.127-0.096l-0.054-0.043c-0.073-0.005-0.139-0.016-0.213-0.021-0.014-0.059-0.008-0.092-0.021-0.149l0.234 0.17c0.024 0.002 0.051 0.009 0.075 0.011 0.097-0.313 0.784-1.301 3.802-4.324 4.935-4.943 0.991-4.197 0.991-4.197s0.496-0.496 5.677-0.991c5.182-0.494 10.613-6.429 11.6-8.159s2.211-5.924-1.737-5.677z" fill-rule="evenodd" fill="#999999"/>
</svg>
