<?xml version="1.0" encoding="UTF-8" standalone="no"?>
<!DOCTYPE svg  PUBLIC '-//W3C//DTD SVG 20010904//EN'  'http://www.w3.org/TR/2001/REC-SVG-20010904/DTD/svg10.dtd'>
<svg xmlns="http://www.w3.org/2000/svg" height="400pt" width="400pt" xmlns:xlink="http://www.w3.org/1999/xlink">
 <g fill-rule="evenodd" stroke="#000000" stroke-width="1.7383">
  <path d="m189.36 630.6c11.16-3.82 20.4-10.52 30.6-17.21 3.83-22 1.92-63.12 2.87-90.85-4.78-15.31-12.43-23.92-25.82-58.34-5.74-59.3-5.74-74.6-5.74-94.68 0-20.09 4.79-76.51 4.79-76.51s-68.86 251.52-53.56 292.65c15.3 41.12 40.17 47.81 46.86 44.94z" transform="matrix(.74829 0 0 .69102 -12.506 -44.897)" fill="#000000"/>
  <path d="m221.05 520.41c0-8.05 3.21 87.17-2.51 92.68-8.14 14.73-100.2 41.2-128.39 49.88-17.444 5.65-33.514 11.07-48.665 25.73-22.651 29.57-15.663 68.14-15.663 68.14l648.42-6.69s29.65-30.6-42.08-88.94-205.62-4.78-210.4-13.39-0.96-141.54-0.96-141.54c-0.82 0-140.45 61.95-199.75 14.13z" transform="matrix(.74829 0 0 .69102 -12.506 -44.897)" fill="#ffcccc"/>
  <path d="m321.34 127.56c-25.82 3.82-42.08-0.96-88.94 37.29-49.73 55.47-53.63 160.49-36.34 296.54 13.09 41.71 34.42 92.71 82.24 111.83 22.23 6.38 74.6 8.61 100.42-14.34 87.99-59.3 59.3-294.56 64.08-337.6-9.57-32.52-56.43-88.94-121.46-93.72z" transform="matrix(.74829 0 0 .69102 -12.506 -44.897)" fill="#ffcccc"/>
  <path d="m318.47 161.98s-9.56-5.73-43.99 0c-39.21 12.44-49.73 23.91-55.47 44-18.17 56.42-19.13 99.46-31.56 162.58-0.96 63.12-4.78 77.47-4.78 153.98-1.92 60.25 0 85.11 9.56 103.28 0 8.61-71.25 28.25-87.99 32.96-10.516-6.69 3.83-353.34 31.56-403.07 49.74-115.72 100.42-153.98 128.16-165.45 20.08-4.784 42.08-3.828 53.55-0.959 7.65-0.956 8.61 65.989 0.96 72.679z" transform="matrix(.74829 0 0 .69102 -12.506 -44.897)" fill="#330000"/>
  <path d="m327.08 160.07c43.03 23.91 80.33 17.22 92.76 53.56 8.61 21.04 27.74 124.33 17.22 185.53-5.74 42.08-25.96 128.16-20.08 160.67-2.87 28.69 5.15 108.31-3.83 136.76-7.65 6.7-23.44 40.49 45.98 56.98 54.79-20.32 105.04-58.17 130.86-21.83 39.21 4.78 73.3-12.66 86.91-36.66 19.6-20.23-58.94-56.71-97.34-262.44-65.04-134.85-64.08-225.7-128.16-287.87-43.99-39.21-55.62-55.624-81.14-62.241-14.35 0.957-43.18-6.3-48.92 7.729-2.87 9.563 4.78 72.682 5.74 69.812z" transform="matrix(.74829 0 0 .69102 -12.506 -44.897)" fill="#330000"/>
  <path d="m226.66 337.96c0-0.96 19.13-18.18 26.78-18.18s21.99-4.78 35.38 4.79c11.48 13.39 5.74 7.65 7.65 16.25-8.6 0-14.34 2.87-23.91 3.83-10.52 0.96-27.73 6.7-45.9-6.69z" transform="matrix(.74829 0 0 .69102 -12.506 -44.897)" fill="#ffffff"/>
  <path d="m357.36 339.19c1.89-2.73 10.84-20.36 24.23-20.36 8.61-1.91 22-2.87 31.56 3.82 9.56 6.7 9.56 12.44 10.52 14.35s-4.78 10.52-19.13 9.56c-12.43-1.91-32.23-0.13-47.18-7.37z" transform="matrix(.74829 0 0 .69102 -12.506 -44.897)" fill="#ffffff"/>
  <path d="m213.27 307.35c0.96-4.78 11.48-16.25 21.04-19.12 11.48-1.92 22.95-1.92 34.43-0.96 9.56 3.82 24.86 15.3 26.78 18.17 1.91 2.87 1.91 3.82-17.22-3.83-12.43-7.65-21.99-9.56-31.56-8.6-11.47 1.91-21.99 7.65-33.47 14.34z" transform="matrix(.74829 0 0 .69102 -12.506 -44.897)" fill="#330000"/>
  <path d="m355.77 301.61s30.6-17.21 47.82-15.3c17.21 1.92 22.95 4.79 28.69 10.52 4.78 7.65 5.74 11.48 5.74 11.48s-8.61-7.65-20.09-13.39c-16.26-2.87-34.43-1.91-43.99 3.82-4.78 1.92-19.13 4.79-18.17 2.87z" transform="matrix(.74829 0 0 .69102 -12.506 -44.897)" fill="#330000"/>
 </g>
 <g stroke="#000000" fill="none">
  <g stroke-width="1.7383">
   <path d="m302.21 423.07s-6.69 1.92-9.56-10.52c-0.96-13.39 6.69-24.86 10.52-24.86" transform="matrix(.74829 0 0 .69102 -12.506 -44.897)"/>
   <path d="m299.34 306.4s8.61 2.86 11.48 12.43c2.87 9.56-6.7 23.91-5.74 31.56l0.96 7.65" transform="matrix(.74829 0 0 .69102 -12.506 -44.897)"/>
   <path d="m350.03 314.05s-7.65-0.96-8.61 10.52c-0.95 11.47 0 15.3 0.96 28.69s4.78 20.08 4.78 20.08" transform="matrix(.74829 0 0 .69102 -12.506 -44.897)"/>
   <path d="m317.96 413.92c-3.32 3.27-8.43-0.56-7.41-4.09 2.63-3.28 8.25-0.15 7.41 4.09z" transform="matrix(.74829 0 0 .69102 -12.506 -44.897)"/>
  </g>
  <path d="m339.07 380.44c1.64-2.67 3.97-3.83 9.2 0-0.65 3.84-9.2 2.68-9.2 0z" transform="matrix(.74829 0 0 .74917 -12.506 -44.897)" stroke-width="1.6695"/>
  <path d="m350.68 391.15c11.99-8.2 5.46-26.14 3.57-26.77" transform="matrix(.74829 0 0 .74917 -12.506 -44.897)" stroke-width="1.6695"/>
 </g>
 <g fill-rule="evenodd" stroke="#000000">
  <g stroke-width="1.6695">
   <path d="m270.05 298.99c-17.66-13.88-28.39 6.94-20.19 17.03 11.36 9.47 32.81 0.64 20.19-17.03z" transform="matrix(.74829 0 0 .74917 -12.506 -44.897)" fill="#330000"/>
   <path d="m374.79 310.98c-6.94-22.72 26.51-19.56 26.51-5.68-1.27 17.66-25.24 15.14-26.51 5.68z" transform="matrix(.74829 0 0 .74917 -12.506 -44.897)" fill="#330000"/>
   <path d="m292.82 441.97c6.31 0.63 46.2 0.88 51.88-0.38 14.18-13.2-46.83-25.49-51.88 0.38z" transform="matrix(.74829 0 0 .74917 -12.506 -44.897)" fill="#ffffff"/>
  </g>
  <path d="m279.26 479.5c2.87-11.48 10.52-22 21.04-25.82 10.52-3.83 16.26-1.92 18.17-0.96s1.91 3.83 5.74 2.87c3.82-0.96 4.78-1.91 10.52-1.91s14.34 0 21.99 9.56c7.66 11.48 3.83 6.7 4.79 16.26-5.74 2.87-7.82 4.78-13.39-0.96-4.78-6.69-4.78-13.39-17.22-13.39-12.43 0-13.39-5.73-25.82 2.87-12.43 8.61-19.13 16.26-25.82 11.48z" transform="matrix(.74829 0 0 .69102 -12.506 -44.897)" stroke-width="1.7383" fill="#996666"/>
  <path d="m288.4 442.85c16.41-0.63 55.18-0.83 60.86-0.2 18.39 21.11-63.67 26.7-60.86 0.2z" transform="matrix(.74829 0 0 .74917 -12.506 -44.897)" stroke-width="1.6695" fill="#ffffff"/>
  <path d="m279.26 482.37c12.47-0.96 7.02 6.05 32.52 14.28 11.47 0.96 28.65 1.44 38.88-11.01 5.74-1.91 10.85-5.18 9.89 1.51s-4.78 22.95-30.6 30.6c-38.26 5.74-56.43-27.73-50.69-35.38z" transform="matrix(.74829 0 0 .69102 -12.506 -44.897)" stroke-width="1.7383" fill="#996666"/>
  <path d="m253.83 303.57c5.07-7.11 15.74-1.02 10.66 7.61-4.57 5.08-13.71 2.03-10.66-7.61z" transform="matrix(.74829 0 0 .74917 -12.506 -44.897)" stroke-width="1.6695"/>
  <path d="m253.83 303.57c5.07-7.11 15.74-1.02 10.66 7.61-4.57 5.08-13.71 2.03-10.66-7.61z" transform="matrix(.74829 0 0 .74917 82.842 -45.657)" stroke-width="1.6695"/>
 </g>
 <path d="m258.4 296.46c-5.59 0-17.77 10.15 0 9.64 17.77-1.01 8.63-9.13 0-9.64z" fill-rule="evenodd" fill-opacity=".48889" transform="matrix(.74829 0 0 .74917 -12.506 -44.897)" fill="#ffffff"/>
 <path d="m258.4 296.46c-5.59 0-17.77 10.15 0 9.64 17.77-1.01 8.63-9.13 0-9.64z" fill-rule="evenodd" fill-opacity=".48889" transform="matrix(.74829 0 0 .74917 82.842 -45.657)" fill="#ffffff"/>
 <g stroke="#999999" stroke-width="1.6695" fill="none">
  <path d="m294.62 443.71v6.63" transform="matrix(.74829 0 0 .74917 -12.506 -44.897)"/>
  <path d="m346.72 442.76l0.95 7.58" transform="matrix(.74829 0 0 .74917 -12.506 -44.897)"/>
  <path d="m320.2 443.23v14.69" transform="matrix(.74829 0 0 .74917 -12.506 -44.897)"/>
  <path d="m328.72 442.76v14.21" transform="matrix(.74829 0 0 .74917 -12.506 -44.897)"/>
  <path d="m339.14 441.81v13.27" transform="matrix(.74829 0 0 .74917 -12.506 -44.897)"/>
  <path d="m309.78 443.71v13.73" transform="matrix(.74829 0 0 .74917 -12.506 -44.897)"/>
  <path d="m300.3 442.76v9.95" transform="matrix(.74829 0 0 .74917 -12.506 -44.897)"/>
  <path d="m320.2 428.55v13.74" transform="matrix(.74829 0 0 .74917 -12.506 -44.897)"/>
  <path d="m330.14 429.5l-0.47 11.36" transform="matrix(.74829 0 0 .74917 -12.506 -44.897)"/>
  <path d="m307.41 430.44l0.47 10.42" transform="matrix(.74829 0 0 .74917 -12.506 -44.897)"/>
  <path d="m300.3 434.23v7.58" transform="matrix(.74829 0 0 .74917 -12.506 -44.897)"/>
  <path d="m341.04 431.87l-0.48 8.52" transform="matrix(.74829 0 0 .74917 -12.506 -44.897)"/>
 </g>
 <path d="m301.72 470.23c6.63 5.69 29.84 6.63 38.84 0.47-4.26-10.42-40.26-7.57-38.84-0.47z" fill-rule="evenodd" fill-opacity=".15" transform="matrix(.74829 0 0 .74917 -12.506 -44.897)" fill="#ffffff"/>
 <path d="m292.25 429.02c4.74-7.1 14.68-14.68 30.79-7.1 13.73-3.32 25.1 7.58 25.1 7.58-23.68-8.06-43.58-10.9-55.89-0.48z" fill-rule="evenodd" fill-opacity=".15" transform="matrix(.74829 0 0 .74917 -12.506 -44.897)" fill="#ffffff"/>
 <rdf:RDF xmlns:rdf="http://www.w3.org/1999/02/22-rdf-syntax-ns#" xmlns="http://web.resource.org/cc/" xmlns:dc="http://purl.org/dc/elements/1.1/">
  <Work rdf:about="">
   <dc:title>Clipart by Nicu Buculei - head1</dc:title>
   <dc:rights>
    <Agent>
     <dc:title>Nicu Buculei</dc:title>
    </Agent>
   </dc:rights>
   <dc:type rdf:resource="http://purl.org/dc/dcmitype/StillImage"/>
   <license rdf:resource="http://web.resource.org/cc/PublicDomain"/>
  </Work>
  <License rdf:about="http://web.resource.org/cc/PublicDomain">
   <permits rdf:resource="http://web.resource.org/cc/Reproduction"/>
   <permits rdf:resource="http://web.resource.org/cc/Distribution"/>
   <permits rdf:resource="http://web.resource.org/cc/DerivativeWorks"/>
  </License>
 </rdf:RDF>
</svg>
