<?xml version="1.0" encoding="UTF-8" standalone="no"?>
<svg xmlns:rdf="http://www.w3.org/1999/02/22-rdf-syntax-ns#" xmlns="http://www.w3.org/2000/svg" sodipodi:docname="ear.svg" height="128px" sodipodi:version="0.32" width="128px" xmlns:cc="http://web.resource.org/cc/" xmlns:dc="http://purl.org/dc/elements/1.1/" sodipodi:docbase="/home/nicu/Desktop/hats" xmlns:sodipodi="http://inkscape.sourceforge.net/DTD/sodipodi-0.dtd">
 <sodipodi:namedview bordercolor="#666666" pagecolor="#ffffff" borderopacity="1.0" showguides="true"/>
 <g fill-rule="evenodd" transform="matrix(-3.2238 -.20626 -.20626 3.2238 1435.3 -2590.3)">
  <path d="m373.81 830.27c-4.55 0.36-6.98 3.24-8.29 7.43-2.01 5.5-1.07 12.14 2.94 16.52 2.01 2.56 2.42 6.06 3.12 9.23 0.73 2.04 3.12 1.38 5.09 0.94 2.65-0.49 3.99-1.4 5.88-3.32 1.39-1.48 1.8-2.81 1.73-4.82 0.18 0.11-0.01-18.81 0.02-18.93-1.57-3.79-6.21-7.37-10.49-7.05z" sodipodi:nodetypes="ccccccccc" fill="#cccc99"/>
  <g>
   <path d="m374 828.94c-4.55 0.36-8.16 4.18-9.47 8.37-2 5.5-1.04 12.12 2.97 16.5 2.01 2.57 2.42 6.09 3.12 9.25 0.73 2.04 3.57 2.76 5.54 2.32 2.65-0.49 5.65-2.33 7.53-4.26 1.25-1.32 0.55-2.59 0.43-4.28l-0.02-0.03c-0.01 1.38-0.45 2.9-1.35 3.78-2.17 2.27-5.35 3.64-8.5 3.32-1.89-0.74-2.12-2.97-2.66-4.66-1.16-3.64-3.16-6.7-5.06-9.94-2.34-5.51-1.71-11.3 2.44-15.72 1.47-1.49 2.96-2.38 5.09-2.5 4.48-0.24 8.8 1.97 9.67 6.19 0.01 0.22 0.04 0.44 0.06 0.66l0.54-0.32c-0.05-0.47-0.38-0.96-0.43-1.43-0.49-4.87-5.62-7.57-9.9-7.25z" sodipodi:nodetypes="ccccccccccccccccccc"/>
   <path d="m374 833.12c-1.7-0.09-2.87 1.4-3.69 2.69-0.93 1.43-1.67 2.98-2.31 4.57 1.57-1.48 1.57-1.33 2.05-2.14 0.77-1.51 1.67-2.1 3.08-3.08 1.1-0.36 3.31 1.37 2.51 0.48 1.75 1.96 2.46 3.85 3.12 6.5 0.24 1.96 0.09 3.45-0.84 5-0.88 1.34-1.87 2.96-1.35 4.61 0.53 1.09 1.86 1.74 1.93 3.05 0.51 1.28-1.51 2.36-2.34 1.3-3.73-2.89-5.65-7.23-3.15-11.35 0.28-0.97 1.28-2.86 2.02-3.87-0.65 0.51-2.82 2.82-3.38 3.52-1.91 2.89-1.33 6.01 0.02 9.15 0.9 2.21 2.51 4.1 4.83 4.92 1.39 0.3 3.18-2 3.02-3.37-0.03-1.36-0.84-2.58-1.84-3.44-0.65-1.15 0.16-2.4 0.73-3.4 1.05-1.85 2.83-3.53 2.73-5.81-0.18-2.53-1.99-3.54-3.62-5.32-1.02-1.03-1.89-3.21-3.18-3.92-0.11-0.04-0.22-0.07-0.34-0.09z" sodipodi:nodetypes="ccccccccccccccccccccccc"/>
   <path d="m372.75 844.12s-2.1 6.06-0.47 8.86 4.43 7 5.13 5.13c2.1-1.63 1.4-4.66-0.93-7.23 0.7-3.5 1.17-7.23-3.73-6.76z" fill-opacity=".18824" sodipodi:nodetypes="ccccc"/>
  </g>
 </g>
</svg>
