<?xml version="1.0" encoding="UTF-8" standalone="no"?>
<!DOCTYPE svg  PUBLIC '-//W3C//DTD SVG 20010904//EN'  'http://www.w3.org/TR/2001/REC-SVG-20010904/DTD/svg10.dtd'>
<svg xmlns="http://www.w3.org/2000/svg" height="400pt" width="400pt" xmlns:xlink="http://www.w3.org/1999/xlink">
 <g fill-rule="evenodd" stroke="#000000">
  <path d="m382.37 166.48c-12.62 7.58-14.06 35.06-16.41 43.28-0.8 16.07-21.28 37.72-19.73 42.91 7.33 8.55 15.56-1.25 14.3 14.4-1.27 6.31-8.94 7.62-1.37 10.14 7.57 2.53 9.61 3.56 8.24 6.83-1.37 3.64-9.01 3.5-10.27 6.02 7.22 6.64 0 12.71 0 19.02s0.45 3.04 1.72 9.35c1.26 6.31 68.8-9.35 76.37-10.61s27.03-11.16 33.34-20c23.97-30.28 29.34-64.87 28.07-96.42-11.01-47.82-76.51-63.02-114.26-24.92z" transform="matrix(2.0508 0 0 2.1188 -633.29 -267.58)" stroke-width="1.799" fill="#ffcccc"/>
  <g stroke-width="3.75">
   <path d="m126.19 170.64s12.04 4.85 17.09 9.41c5.04 6.9 3.49 10.87 3.2 15.92-1.87 20.05-20.12 35.59-29.44 31.51-5.44-35.93 14.2-55.58 9.15-56.84z" transform="translate(8.0854 -14.509)" fill="#ffffff"/>
   <path d="m126.19 161.8s-7.1 8.84-8.36 18.93c-1.26 10.1-3.31 36.01 1.73 34.75 8.22-1.26 10.42-15.82 12.94-25.92 2.53-10.09-1.26-27.76-6.31-27.76z" transform="translate(8.0854 -5.6759)" fill="#0000ff"/>
   <path d="m118.85 185.39h3.89c2.33 0 3.1 6.29 3.1 9.39-0.79 7.07-3.91 12.51-7.79 12.51-3.89 1.55 0.8-19.57 0.8-21.9z" transform="translate(8.0854 -14.509)"/>
   <path d="m113.41 151.21s-10.87-1.55-6.99 2.33c3.89 3.89-2.33 4.66 6.99 4.66 9.33 0 13.21 2.33 20.98 3.11s17.09 3.88 20.97 8.55c3.89 4.66 10.1 11.65 10.88 19.42 0.77 7.76 0.77 10.09 0.77 9.32 0-0.78 4.67-10.88 2.33-17.87-2.33-7.77-10.87-17.87-23.3-24.86-12.43-3.1-31.85-4.66-32.63-4.66z" transform="translate(8.0854 -14.509)" fill="#ffcc00"/>
   <path d="m66.456 148.73s34.814-43.51 91.774-69.616c56.96-26.108 125.79-28.481 140.03-20.57 14.24 7.912 36.39 0 64.08 49.056 27.69 49.04 31.65 86.23 29.27 121.83-2.37 35.6-20.57 41.14-21.36 119.46 3.17 31.65 11.87 45.89 18.99 90.98 0.79 20.57-8.7 35.6-8.7 39.56-71.73-5.01-136.34-0.53-212.82 8.7 28.48-41.14 17.18-26.18 81.27-92.55 22.83-26.36 39.78-56.97 37.4-87.04-8.7-26.1 15.03-56.96 27.69-68.82 10.29-16.62 9.5-45.1 6.33-53.8-3.16-7.12-12.66-9.5-30.85-10.29-13.45 15.03-1.58 56.96-38.77 75.16-56.96-15.82-64.08-108.39-184.33-102.06z" transform="translate(11.25 -28.75)" fill="#ffcc00"/>
   <path d="m282.76 190.05c3.11-8.54 3.11-14.76 13.2-15.53 10.1-0.78 8.55 0.77 20.2 1.55 7.77 5.44 7.77 1.55 11.65 18.64-1.55 20.2-1.55 35.74-10.87 45.06s-28.74 19.42-31.07 13.2c-2.33-6.21-3.89-17.09-3.11-19.42l0.78-2.33" transform="translate(11.25 -28.75)" fill="#ffcccc"/>
   <path d="m100.01 342.88s-16.149-7.44-18.523-4.27c-2.373 3.16-3.23 6.29 2.374 7.12 11.867 3.95 21.659 8.41 26.339 12.13-2.62 5.29-4.86 9.29-21.592 13.99-9.428-1.56-7.912 5.25-5.538 6.84 7.593 2.62 21.36-2.11 26.11-6.06 6.83-9.07 8.43-13.97 8.43-17.93-7.51-1.26-13.64-11.82-17.6-11.82z" transform="translate(11.25 -28.75)" fill="#ff0000"/>
   <path d="m292.3 245.28c-20.36 0.53-16.18 24.54 0.52 24.54 19.83-0.52 17.22-24.01-0.52-24.54z" transform="translate(11.25 -28.75)" fill="#0000ff"/>
  </g>
 </g>
 <path d="m123.18 191c-3.3 0.35-3.48 4.87-5.22 7.31-2.09 5.74-3.65 10.44 1.57 13.05s7.83-18.27 3.65-20.36z" fill-rule="evenodd" fill-opacity=".53333" transform="translate(11.25 -28.75)" fill="#ffffff"/>
 <path d="m288.91 191.5c0.55-7.08 9.8-10.88 17.41-9.25 10.34 0 15.78 9.79 13.06 19.59-3.81 16.32 0 29.38-10.33 29.92-11.43 6.53-17.41-4.35-17.96-4.9" transform="translate(11.25 -28.75)" stroke="#000000" stroke-width="3.75" fill="none"/>
 <rdf:RDF xmlns:rdf="http://www.w3.org/1999/02/22-rdf-syntax-ns#" xmlns="http://web.resource.org/cc/" xmlns:dc="http://purl.org/dc/elements/1.1/">
  <Work rdf:about="">
   <dc:title>Clipart by Nicu Buculei - head1</dc:title>
   <dc:rights>
    <Agent>
     <dc:title>Nicu Buculei</dc:title>
    </Agent>
   </dc:rights>
   <dc:type rdf:resource="http://purl.org/dc/dcmitype/StillImage"/>
   <license rdf:resource="http://web.resource.org/cc/PublicDomain"/>
  </Work>
  <License rdf:about="http://web.resource.org/cc/PublicDomain">
   <permits rdf:resource="http://web.resource.org/cc/Reproduction"/>
   <permits rdf:resource="http://web.resource.org/cc/Distribution"/>
   <permits rdf:resource="http://web.resource.org/cc/DerivativeWorks"/>
  </License>
 </rdf:RDF>
</svg>
