<?xml version="1.0" encoding="UTF-8" standalone="no"?>
<!DOCTYPE svg  PUBLIC '-//W3C//DTD SVG 20010904//EN'  'http://www.w3.org/TR/2001/REC-SVG-20010904/DTD/svg10.dtd'>
<svg xmlns="http://www.w3.org/2000/svg" height="400pt" width="400pt" xmlns:xlink="http://www.w3.org/1999/xlink">
 <g fill-rule="evenodd" stroke="#000000">
  <path d="m382.37 166.48c-12.62 7.58-11.36 32.82-16.41 42.91-5.05 10.1-23.98 36.6-23.98 42.91s3.79 7.57 11.36 7.57 8.84 1.26 7.57 7.57c-1.26 6.31-10.09 11.36-2.52 13.88s8.83 5.05 6.31 7.57c-2.52 2.53-6.31 1.26-7.57 3.79-1.27 2.52 0 10.09 0 16.4s-3.79 3.79-2.53 10.1 80.77-10.1 88.34-11.36 32.81-6.31 39.12-15.14c23.98-30.29 32.81-65.62 31.55-97.17-2.53-56.79-94.65-75.72-131.24-29.03z" transform="matrix(2.0508 0 0 2.1188 -642.98 -234.94)" stroke-width="1.799" fill="#ffcccc"/>
  <g stroke-width="3.75">
   <path stroke-linejoin="bevel" d="m126.19 170.64s12.04 4.85 17.09 9.41c5.04 6.9 3.49 10.87 3.2 15.92-0.29 6.6-18.54 16.6-27.86 12.52-5.43-35.92 12.62-36.59 7.57-37.85z" transform="translate(1.5536 3.884)" fill="#ffffff"/>
   <path d="m126.19 161.8s-6.31 8.84-7.57 18.93c-1.26 10.1-2.52 20.19 2.53 18.93 5.04-1.26 8.83 0 11.35-10.1 2.53-10.09-1.26-27.76-6.31-27.76z" transform="translate(1.5536 12.718)" fill="#0000ff"/>
   <path d="m118.85 185.39h3.89c2.33 0 3.1 2.33 3.1 5.44s-2.33 8.54-6.21 8.54c-3.89 1.56-0.78-11.65-0.78-13.98z" transform="translate(1.5536 3.884)"/>
  </g>
 </g>
 <g fill-rule="evenodd" stroke="#000000" stroke-width="3.75" fill="#663300">
  <path d="m113.41 151.21s-10.87-1.55-6.99 2.33c3.89 3.89-2.33 4.66 6.99 4.66 9.33 0 13.21 2.33 20.98 3.11s17.09 3.88 20.97 8.55c3.89 4.66 10.1 11.65 10.88 19.42 0.77 7.76 0.77 10.09 0.77 9.32 0-0.78 4.67-10.88 2.33-17.87-2.33-7.77-10.87-17.87-23.3-24.86-12.43-3.1-31.85-4.66-32.63-4.66z" transform="translate(1.5536 3.884)"/>
  <path d="m257.12 215.69s-53.6 45.05-68.36 67.58c-6.21 10.1-3.1 18.64-20.97 37.29-31.07 36.51-42.72 37.28-60.59 33.4-17.867-3.88-20.197 24.08-29.519 10.1-20.197 26.41-15.536 25.63-15.536 25.63s0 2.33 5.438 0.78c5.437-1.55 15.536-10.88 3.884 4.66-11.653 15.54-22.528 16.31-15.537 24.86 6.992 8.54-0.776 10.1 6.992 7.77s7.768-8.55 12.429-0.78 12.429 10.88 11.652 10.1-7.768 3.11 0.777-5.44c8.545-8.54 17.09-9.32 17.09-9.32s-3.11-8.55 13.98 1.55 10.88 13.99 19.42 6.22c8.55-7.77 14.76-13.99 23.31-13.21 8.54 0.78 20.19-3.88 24.08 7.77 3.88 11.65 3.88-5.44 10.87-10.88 6.99-5.43 10.88-5.43 18.65-7.76 7.76-2.33 2.33-6.22 17.09-2.33 14.76 3.88 23.3 3.88 27.19-3.11 3.88-6.99 3.88-7.77 10.09-8.55 6.22-0.77 13.21 19.42 6.99-6.21-6.21-25.64-9.32-29.52 0-31.85 9.33-2.33 33.41 17.09 14.76-13.21-18.64-30.29-14.76-43.5-9.32-47.38 5.44-3.89 15.54 0-0.77-9.32-7.77-6.99-24.09-24.86-18.65-32.63s3.89-25.63 6.99-24.86c3.11 0.78-6.21-13.2-7.77-17.86-1.55-4.66-1.55-4.66-1.55-4.66s-1.55 13.98-3.11 11.65z" transform="translate(10.875 25.635)"/>
  <path d="m383.74 75.084s22.53-10.875-54.37-27.188c-76.91-16.313-116.52-12.429-155.36 1.553-38.85 13.983-28.75 19.421-61.37 42.725-32.628 23.306-16.315 14.756-45.834 23.306 9.322 6.99 13.982 10.1 24.081 6.21 12.433-10.87 26.413-17.09 26.413-17.09s13.2-13.203 0 4.66c-13.21 17.87-22.529 25.64-22.529 25.64s10.879-0.78 25.639-12.43c14.75-11.65 15.53-24.858 14.75-11.65-0.77 13.2 4.67 15.53 4.67 15.53s-20.2 9.33 3.88-4.66c24.08-13.98 39.62-10.1 39.62-10.1s13.2-13.202 16.31 3.11c3.11 16.32 3.11 17.09 3.11 17.09s-6.22 3.89 5.43-6.21c11.66-10.1 20.2-12.43 27.97-10.88 7.77 1.56 34.18-19.419 17.09 11.65-17.09 31.08-30.3 41.17-24.08 39.62 6.21-1.55 13.2-1.55 20.97-5.44 7.77-3.88 15.54-12.43 8.55 6.22-6.99 18.64-27.97 51.27-30.3 50.49s10.88 8.55 20.98 2.33c10.1-6.21 11.65-7.77 14.76-3.88 3.1 3.88 8.54 13.98 6.99-1.56-1.56-15.53 3.1-26.41 5.43-31.07 7-3.88 8.55-4.66 30.3-4.66 13.21 7.77 16.31 0 17.09 18.64 0.78 18.65-7.77 17.09-5.44 24.86-10.1 10.1 6.22-5.44-6.99 18.64-13.2 24.09-13.2 25.64-23.3 36.52-10.1 10.87-26.42 12.42-10.88 13.2s21.75 3.11 30.3-0.78c8.54-3.88 15.53-17.86 12.43 0-3.11 17.87-3.11 26.42-3.89 28.75s6.22 17.86 17.87-2.33c11.65-20.2-3.11-48.94 16.31-22.53s34.96 34.95 33.4 38.84c-1.55 3.88 10.1 12.43 8.55-6.22-1.55-18.64 5.44-24.85 5.44-24.85s-12.43-20.98 4.66 3.1 6.99 23.31 13.98 23.31 31.85 22.53 13.98-4.66c-17.86-27.19-17.09-58.26-17.09-58.26s14.76-198.09-29.52-189.55z" transform="translate(1.5536 3.884)"/>
 </g>
 <path d="m282.76 190.05c3.11-8.54 3.11-14.76 13.2-15.53 10.1-0.78 8.55 0.77 20.2 1.55 7.77 5.44 7.77 1.55 11.65 18.64-1.55 20.2-1.55 35.74-10.87 45.06s-28.74 19.42-31.07 13.2c-2.33-6.21-3.89-17.09-3.11-19.42l0.78-2.33" fill-rule="evenodd" transform="translate(1.5536 3.884)" stroke="#000000" stroke-width="3.75" fill="#ffcccc"/>
 <path d="m92.441 292.59s5.437-1.55 13.209 3.11c7.76 4.66 2.33-12.43 18.64 13.2 16.31 25.64 17.09 17.87 14.76 35.74-2.33 17.86-6.21 19.42-6.21 18.64s-9.33 0.78-9.33 0.78-0.77 3.88 0-4.66c0.78-8.55 4.66-26.42-2.33-18.65s-7.77 19.42-10.87 4.66c-3.11-14.75-3.11-16.31-8.55-14.75-5.435 1.55-10.096 0-11.65-4.67-1.554-4.66-6.991-8.54-13.982-7.76-6.992 0.77 13.205-24.09 16.313-25.64z" fill-rule="evenodd" transform="translate(6.2145 31.072)" stroke="#000000" stroke-width="3.75" fill="#663300"/>
 <rdf:RDF xmlns:rdf="http://www.w3.org/1999/02/22-rdf-syntax-ns#" xmlns="http://web.resource.org/cc/" xmlns:dc="http://purl.org/dc/elements/1.1/">
  <Work rdf:about="">
   <dc:title>Clipart by Nicu Buculei - head1</dc:title>
   <dc:rights>
    <Agent>
     <dc:title>Nicu Buculei</dc:title>
    </Agent>
   </dc:rights>
   <dc:type rdf:resource="http://purl.org/dc/dcmitype/StillImage"/>
   <license rdf:resource="http://web.resource.org/cc/PublicDomain"/>
  </Work>
  <License rdf:about="http://web.resource.org/cc/PublicDomain">
   <permits rdf:resource="http://web.resource.org/cc/Reproduction"/>
   <permits rdf:resource="http://web.resource.org/cc/Distribution"/>
   <permits rdf:resource="http://web.resource.org/cc/DerivativeWorks"/>
  </License>
 </rdf:RDF>
</svg>
