<?xml version="1.0" encoding="UTF-8" standalone="no"?>
<!DOCTYPE svg  PUBLIC '-//W3C//DTD SVG 20010904//EN'  'http://www.w3.org/TR/2001/REC-SVG-20010904/DTD/svg10.dtd'>
<svg xmlns="http://www.w3.org/2000/svg" height="400pt" width="400pt" xmlns:xlink="http://www.w3.org/1999/xlink">
 <path d="m472.39 260.29c-21.97-4.4-28.57-12.09-61.52-1.1-32.96 10.99-74.71 31.86-82.4 83.49-7.69 51.64-17.57 116.45-12.08 136.22 5.49 19.78 13.18 41.75 29.66 49.44s51.63 18.68 88.99 8.79c37.35-9.89 99.97-52.73 103.26-78 9.89-26.37 17.58-50.53 14.28-83.49-7.69-98.87-46.14-106.56-80.19-115.35z" fill-rule="evenodd" transform="matrix(1.5561 0 0 1.4491 -417.71 -333.06)" stroke="#000000" stroke-width="2.4972" fill="#ffcccc"/>
 <path d="m375.71 355.86s-23.07 32.96-24.17 46.14c-1.09 13.19-7.69 24.17-3.29 26.37 4.39 2.2 24.17 0 28.56-1.1 4.4-1.1 8.79-1.1 8.79-6.59s-5.49-6.59-6.59-6.59h-1.1" transform="matrix(1.5561 0 0 1.4491 -417.71 -333.06)" stroke="#000000" stroke-width="2.4972" fill="none"/>
 <g fill-rule="evenodd" stroke="#000000">
  <g stroke-width="2.4972">
   <path d="m415.26 356.96s27.47-2.19 39.55 1.1c12.09 3.3 17.58 5.5 17.58 8.79 0 3.3-3.3 10.99-9.89 10.99s-26.36 4.39-36.25 3.29-8.79 3.3-17.58-5.49 5.49-17.58 6.59-18.68z" transform="matrix(1.5561 0 0 1.4491 -419.42 -329.87)" fill="#ffffff"/>
   <path d="m535.01 359.16c2.19-3.3 0-7.69 6.59-9.89 5.49-5.49 8.79-7.69 15.38-3.29 6.59 4.39 10.98 15.38 9.89 27.46-1.1 12.09-1.1 12.09-7.69 18.68-6.6 6.59 1.09 13.18-9.89 15.38-10.99 2.2-16.48 5.49-17.58-3.3s3.3-12.08 3.3-12.08" transform="matrix(1.5561 0 0 1.4491 -417.71 -333.06)" fill="#ffcccc"/>
   <path d="m422.95 358.06s-4.39 2.2-6.59 7.69-2.2 7.69 0 10.99c2.2 3.29 4.4 4.39 9.89 4.39s14.28 0 17.57-3.29c3.3-3.3 2.2-4.4 3.3-10.99s-16.48-9.89-24.17-8.79z" transform="matrix(1.5561 0 0 1.4491 -419.1 -331.76)" fill="#0000000fe"/>
  </g>
  <path d="m424.3 367.06s-2.68 0.44-2.68 3.57c1.34 3.12 1.79 3.12 4.46 3.12 1.34 0.45 4.02 0.89 4.47-1.78 0.44-2.68-4.47-5.8-6.25-4.91z" transform="matrix(1.5561 0 0 1.4491 -414.24 -333.06)" stroke-width="1pt"/>
  <path d="m325.25 365.72c2.68-0.89 3.57-3.12 10.26-4.02 6.7-0.89 12.5-3.12 19.19-1.33 6.69 1.78 12.04 4.9 11.6 8.03-0.45 3.12-2.37 6.38-5.74 11.15-3.02 3.32-1.4 2.85-10.32 2.98-6.25 0-15.62-0.75-20.53-3.87-4.9-3.12-4.46-10.71-4.46-12.94z" transform="matrix(1.5561 0 0 1.4491 -417.71 -333.06)" stroke-width="2.4972" fill="#ffffff"/>
  <path d="m339.53 361.7c-3.12 0.45-4.3-0.14-6.09 4.77-1.78 4.91-2.51 4.01-1.34 7.28 0.59 2.09 0.74 4.91 2.52 6.25s6.69 2.67 9.82 2.67c3.12 0 6.67 1.36 9.79-6.67 1.95-7.44 0.31-7.85-0.42-9.67-2.68-5.36-6.7-6.41-14.28-4.63z" transform="matrix(1.5561 0 0 1.4491 -417.71 -333.06)" stroke-width="2.4972" fill="#0000000fe"/>
  <path d="m339.08 369.29c-0.89 0.45-2.23 2.68-1.78 3.57 0.44 0.89 0 2.23 2.23 2.23s3.12 0 4.01-1.34c0.9-1.34-2.67-4.46-4.46-4.46z" transform="matrix(1.5561 0 0 1.4491 -414.33 -333.06)" stroke-width="1pt"/>
  <path d="m414.46 335.9s17.07 1.18 32.37 2.35c15.31 1.18 20.61 3.53 29.44 5.89 7.65 5.89 11.77 10.01 11.77 10.6 0 0.58 0-1.18-14.12-5.3-14.13-4.12-21.79-6.48-32.38-6.48-10.6 0-24.14 1.18-28.26 1.18s-10.01 1.18-9.42-2.94 8.83-6.48 10.6-5.3z" transform="matrix(1.5561 0 0 1.4491 -417.71 -333.06)" stroke-width="2.4972" fill="#330000"/>
  <path d="m326.74 349.44c0.58 0 8.83-3.53 13.54-4.12s8.83-2.36 15.89-2.36c7.07 0 10.01 2.94 14.13 0.59s7.65-3.53 4.12-6.47c-3.53-2.95-1.76-2.36-10.01-2.95-8.24-0.59-11.77-1.18-18.25 0.59-6.47 1.77-8.83 4.71-14.71 7.65-5.89 2.95-10.01 4.12-7.66 5.89 2.36 1.77 2.36 1.77 2.95 1.18z" transform="matrix(1.5561 0 0 1.4491 -417.71 -333.06)" stroke-width="2.4972" fill="#330000"/>
 </g>
 <path d="m346.05 475.61s8.79 4.39 15.38 4.39 13.19 1.1 21.97 1.1c8.79 0 14.28 0 26.37-2.2 15.38-5.49 15.38-3.29 15.38-3.29s-8.79 6.59-27.47 16.48c-20.87 1.1-47.23 1.1-47.23-6.59-4.4-1.1-4.4-8.79-4.4-9.89z" fill-rule="evenodd" transform="matrix(1.5561 0 0 1.4491 -417.71 -333.06)" stroke="#000000" stroke-width="2.4972" fill="#ff6600"/>
 <path d="m345.58 477.19s8.83 7.65 12.36 8.24 22.37 1.18 26.49 1.18c7.07 1.76 37.68-8.24 39.44-10.6" transform="matrix(1.5561 0 0 1.4491 -417.71 -333.06)" stroke="#000000" stroke-width="2.4972" fill="none"/>
 <path d="m426.92 360.72s-2.21-0.88-4.42 0c-2.21 0.89-2.66 1.33-3.1 3.1-0.44 1.76-0.88 1.76 2.21 4.42 6.19 2.2 5.31 3.97 10.61 2.2 5.3-1.76 7.07-0.88 7.51-4.41 0.44-3.54-4.86-6.19-12.81-5.31z" fill-rule="evenodd" fill-opacity=".5" transform="matrix(1.5561 0 0 1.4491 -417.71 -333.06)" fill="#ffffff"/>
 <path d="m426.92 360.72s-2.21-0.88-4.42 0c-2.21 0.89-1.33 1.77-1.77 3.54 0.44 2.65 1.77 3.98 3.09 4.42 5.31 2.65 3.1 2.65 8.4 1.76 5.3-1.76 3.98-0.88 4.42-4.41-0.88-3.54-1.77-5.75-9.72-5.31z" fill-rule="evenodd" fill-opacity=".5" transform="matrix(1.5561 0 0 1.4491 -551.13 -330.5)" fill="#ffffff"/>
 <g fill-rule="evenodd" stroke="#000000" fill="#330000">
  <path d="m290 309.86c25-17.5 32.5-7.5 47.5-26.25s30-11.25 38.75-21.25 31.25-25 48.75-25 22.5 10 50 8.75 45 15 51.25 6.25 3.75-11.25 6.25-3.75 0 25 7.5 23.75 0-12.5 6.25 5-10 20 7.5 42.5 45 25 32.5 55-17.5 6.25-20 48.75-15 36.25-13.75 46.25-8.75 17.5-8.75 8.75-1.25-6.25-7.5-5-10-5 7.5-25c5.63-23.75-1.25-32.5 12.5-45.62-1.25-10.63 11.87-22.5 11.87-37.5-6.24-16.25-11.87-24.38-21.87-21.88s-16.25 8.75-16.25 22.5-6.25 12.5-3.75 16.25 5 11.25-5 7.5-20 0-11.25-16.25 13.75-7.5 10-33.75 2.5-31.25-11.25-26.25-13.75 10-21.25 3.75-16.25-15-15-3.75 0 13.75-6.25 8.75-7.5-22.5-15-20-12.5 2.5-8.75 11.25 7.5 15-8.75 6.25-10-20-20-10-8.75 15-22.5 8.75-1.25-15-20-6.25-20 18.75-31.25 16.25-26.25-1.25-17.5-11.25-30-6.25-32.5-7.5z" transform="matrix(1.5561 0 0 1.4491 -417.71 -333.06)" stroke-width="2.4972"/>
  <path d="m523.75 392.99c1.25 3.75 1.25 12.5 5.63 17.5 4.37 5 8.12-4.38 4.37 12.5-3.75 16.87-7.5 18.12-5.63 26.25 1.88 8.12 2.5 13.75 1.88 25s0.62 13.12-8.12 22.5c-8.76 9.37-9.38 14.37-9.38 16.25 0 1.87-1.25 0-6.88 0-5.62 0-5-7.5-7.5 1.25s3.13 16.25-8.12 13.12c-11.25-3.12-1.88-18.12-16.25-1.25-14.37 16.88-8.75 33.75-25 28.75s-4.37-17.5-28.13-4.37c-23.74 13.12-32.5 27.5-36.87 16.87-4.37-10.62 45-28.75-17.5-21.87-62.5 6.87-56.25 7.5-47.5-1.25s30.63-6.88 8.75-18.13-28.12-11.25-22.5-23.12c5.62-11.88 7.5-12.5 5-20s-11.88-11.88-5-19.38 5.62-10.62 11.88-6.87c6.24 3.75 13.74 1.87 11.87 9.37s-13.13 6.88-1.87 11.25c11.24 4.38 19.37-4.37 18.74 6.88-0.62 11.25-8.74 17.5 3.76 16.87 12.5-0.62 13.12 0.63 13.74-2.5 0.63-3.12 6.26-7.5 9.38-4.37 3.12 3.12 1.25 6.25 3.12 9.37 1.88 3.13 6.26 9.38 11.88 5 5.62-4.37 6.88-11.25 11.88-11.87 5-0.63 5 5 13.74 1.25 8.76-3.75 3.76-1.88 10.63-11.25 6.87-9.38-3.13-6.88 17.5-8.75 20.63-1.88 63.75-47.5 68.75-61.25s-0.62-28.75 13.75-23.75z" transform="matrix(1.5561 0 0 1.4491 -417.71 -333.06)" stroke-width="2.4972"/>
  <path d="m372.5 432.36s10.62-8.75 41.88 16.88c31.24 25.62 31.24 26.87 31.24 31.25 0 4.37 5 4.37-4.37 4.37s-8.13 6.88-9.37-1.25c-1.26-8.12 0.62-16.25-13.13-12.5s-16.25 7.5-19.37 5.63c-3.13-1.88 1.87-3.13-8.76-3.13-10.62 0-7.5-0.62-13.12-4.37s8.12-8.75-8.75-3.13c-16.87 5.63-23.75 4.38-25 3.75-1.25-0.62 10.63-4.37-5 0-15.63 4.38-16.87 8.13-15.63 0 1.26-8.12 18.13-43.75 49.38-37.5z" transform="matrix(1.5561 0 0 1.4491 -417.71 -333.06)" stroke-width="1pt"/>
 </g>
 <rdf:RDF xmlns:rdf="http://www.w3.org/1999/02/22-rdf-syntax-ns#" xmlns="http://web.resource.org/cc/" xmlns:dc="http://purl.org/dc/elements/1.1/">
  <Work rdf:about="">
   <dc:title>Clipart by Nicu Buculei - head1</dc:title>
   <dc:rights>
    <Agent>
     <dc:title>Nicu Buculei</dc:title>
    </Agent>
   </dc:rights>
   <dc:type rdf:resource="http://purl.org/dc/dcmitype/StillImage"/>
   <license rdf:resource="http://web.resource.org/cc/PublicDomain"/>
  </Work>
  <License rdf:about="http://web.resource.org/cc/PublicDomain">
   <permits rdf:resource="http://web.resource.org/cc/Reproduction"/>
   <permits rdf:resource="http://web.resource.org/cc/Distribution"/>
   <permits rdf:resource="http://web.resource.org/cc/DerivativeWorks"/>
  </License>
 </rdf:RDF>
</svg>
