<?xml version="1.0" encoding="UTF-8" standalone="no"?>
<!DOCTYPE svg  PUBLIC '-//W3C//DTD SVG 20010904//EN'  'http://www.w3.org/TR/2001/REC-SVG-20010904/DTD/svg10.dtd'>
<svg xmlns="http://www.w3.org/2000/svg" height="400pt" width="400pt" xmlns:xlink="http://www.w3.org/1999/xlink">
 <g fill-rule="evenodd">
  <g stroke="#000000">
   <path d="m232.5 172.36s23.75-11.25 32.5-11.25 47.5 7.5 48.75 10 8.75-22.5 2.5-41.25-27.5-47.498-42.5-44.998-46.25 19.998-47.5 29.998 2.5 60 6.25 57.5z" transform="matrix(4.4291 0 0 3.7411 -949.14 -252.96)" stroke-width=".92124" fill="#cc9900"/>
   <path d="m355.77 95.996c-2.87-0.956-16.26-0.956-22.95 1.913-6.7 2.871-13.39 8.611-16.26 18.171s-6.7 24.86-0.96 43.99 17.22 36.34 25.82 39.21c8.61 2.87 16.26 0 21.04-2.87s14.35-20.08 17.22-27.73 9.56-31.56 6.69-40.17c-6.69-27.73-26.78-33.47-30.6-32.514z" transform="matrix(4.4291 0 0 3.7411 -1288 -313.79)" stroke-width=".92124" fill="#ffcc99"/>
   <path d="m375.89 91.584c-3.24 11.476 2.95 16.186 5.6 16.186 3.53 0 4.41-0.88 5.59-3.53s2.94-7.064 1.76-11.185c-1.17-4.121-10-4.709-12.95-1.471z" transform="matrix(4.3148 -.84432 .99958 3.6446 -1569.4 216.73)" stroke-width=".92124" fill="#0066ff"/>
   <path d="m382.66 94.527s-3.23-1.177-4.12 1.177c-0.88 2.355-0.88 1.766 0.59 4.121 0.88 2.065 2.65 3.535 4.42 2.355 2.35-2.06 1.76-5.298 0.88-6.476-0.59-0.588-1.47-0.883-1.77-1.177z" transform="matrix(4.3148 -.84432 .99958 3.6446 -1569.4 216.73)" stroke-width=".92124"/>
  </g>
  <path d="m383.84 90.995s-0.29-0.883-2.94-0.295c-1.77 0-3.24 0.884-3.24 2.65 0.29 1.766 0.29 2.649 3.83 3.532 3.53 0.883 3.82 1.766 5.29 0 1.48-1.766-1.17-5.299-2.94-5.887z" fill-opacity=".73333" transform="matrix(4.3148 -.84432 .99958 3.6446 -1569.4 216.73)" fill="#ffffff"/>
  <path d="m375.89 91.584c-3.24 11.476 2.95 16.186 5.6 16.186 3.53 0 4.41-0.88 5.59-3.53s2.94-7.064 1.76-11.185c-1.17-4.121-10-4.709-12.95-1.471z" transform="matrix(4.3821 .54378 -.64377 3.7014 -1298.3 -327.31)" stroke="#000000" stroke-width=".92124" fill="#0066ff"/>
  <path d="m382.66 94.527s-3.23-1.177-4.12 1.177c-0.88 2.355-0.88 1.766 0.59 4.121 0.88 2.065 2.65 3.535 4.42 2.355 2.35-2.06 1.76-5.298 0.88-6.476-0.59-0.588-1.47-0.883-1.77-1.177z" transform="matrix(4.3821 .54378 -.64377 3.7014 -1298.3 -327.31)" stroke="#000000" stroke-width=".92124"/>
  <path d="m383.84 90.995s-0.29-0.883-2.94-0.295c-1.77 0-3.24 0.884-3.24 2.65 0.29 1.766 0.29 2.649 3.83 3.532 3.53 0.883 3.82 1.766 5.29 0 1.48-1.766-1.17-5.299-2.94-5.887z" fill-opacity=".73333" transform="matrix(4.1518 -1.3028 1.5424 3.507 -1424.4 396.14)" fill="#ffffff"/>
 </g>
 <g stroke="#000000" stroke-width=".92124">
  <path d="m266.17 138.19s0.62 3.71-0.41 5.98-1.45 2.47-1.24 3.92c0.21 1.44 0.62 2.26 1.03 2.88s0.41 0.41 0.41 0.41" transform="matrix(4.4291 0 0 3.7411 -949.14 -252.96)" fill="none"/>
  <path d="m275.15 117.51s8.63-1.27 12.69 0.51c4.06 1.77 4.82 2.03 8.89 4.82 4.06 2.79 4.06 5.58 4.06 5.58s-1.53-1.77-6.6-4.82c-5.08-3.04-9.65-4.57-12.44-3.81-2.79 0.77-4.57 1.53-5.58 0-1.02-1.52-0.77-2.28-1.02-2.28z" fill-rule="evenodd" transform="matrix(4.4291 0 0 3.7411 -949.14 -252.96)" fill="#cc9900"/>
  <path d="m237.58 126.14s2.29 1.02 4.57-1.27c2.29-2.28 5.33-2.28 8.63-2.54 3.3-0.25 5.59-0.51 7.87-1.27 2.29-0.76 1.27-1.01 0.51-1.77-0.76-0.77 1.78-1.27-3.05-0.77-5.33 2.04-9.64 1.78-13.2 2.8-2.53 1.52-1.77 2.28-3.55 3.3-1.78 1.01-1.78 2.54-1.78 1.52z" fill-rule="evenodd" transform="matrix(4.4291 0 0 3.7411 -949.14 -252.96)" fill="#cc9900"/>
  <g fill-rule="evenodd" transform="matrix(4.4235 .18801 -.22259 3.7364 -914.72 -289.42)" fill="#ff0000">
   <path d="m260.75 165.16c0.22-0.22 1.32 0.89 3.75-0.66s0.66-1.33 3.1-1.77c1.76 1.99 2.65-0.22 4.19-0.88 2.43 1.33 11.49-2.21 11.49-2.21s-6.18 6.63-10.82 7.95c-4.64 1.33-4.2 1.55-7.74 0.67-3.75-1.11-3.97-2.66-3.97-3.1z" transform="translate(.66294 1.5468)"/>
   <path d="m262.51 167.59s2.65 0.67 6.19 0c3.54-0.66 13.26-5.08 13.7-5.3"/>
  </g>
 </g>
 <g stroke="#000000" stroke-width=".92124" fill-rule="evenodd">
  <path d="m306.79 123.14c0.2 3.09-1.65 0.82 1.23-0.62 1.86-2.27 4.95-2.06 4.95 0.62s0.83 1.44-1.03 5.98c-1.86 4.53-1.44 6.39-3.5 6.6-2.07 0.2-2.07-0.42-2.27-0.42-0.21-0.2-0.62-2.68-0.62-2.68" transform="matrix(4.4291 0 0 3.7411 -949.14 -252.96)" fill="#ffcc99"/>
  <path d="m139.82 65.447c-1.08 0.898-1.8 1.975-1.26 3.769 1.44 1.257 1.98 2.334 3.41 1.616 1.44-0.718 1.26-1.615 1.26-3.051-0.36-2.334-1.26-2.693-3.41-2.334z" transform="matrix(4.4291 0 0 3.7411 -207.27 4.2421)" fill="#0000ff"/>
  <path d="m237.53 117.36c4.3-3.95 14.97-6.25 22.47-7.5s7.5-18.748 7.5-18.748 0 14.998 3.75 17.498 28.75 0 33.75 6.25 8.75 5 5 25-1.25 27.5-1.25 27.5 0 55 13.75-3.75-20-83.159-40-91.982c-13.6-1.988-24.48-3.677-43.23 13.823-15.23 18.439-16.92 37.629-15.67 68.879 7.69 33.75 21.81 36.94 21.81 36.94s0.52-1.97 3.02-10.72c2.13-8.4-6.79-22.83-10.55-39.08-3.74-16.25-2.87-21.06-0.35-24.11z" transform="matrix(4.4291 0 0 3.7411 -953.97 -244.75)" fill="#ffcc33"/>
 </g>
 <rdf:RDF xmlns:rdf="http://www.w3.org/1999/02/22-rdf-syntax-ns#" xmlns="http://web.resource.org/cc/" xmlns:dc="http://purl.org/dc/elements/1.1/">
  <Work rdf:about="">
   <dc:title>Clipart by Nicu Buculei - head1</dc:title>
   <dc:rights>
    <Agent>
     <dc:title>Nicu Buculei</dc:title>
    </Agent>
   </dc:rights>
   <dc:type rdf:resource="http://purl.org/dc/dcmitype/StillImage"/>
   <license rdf:resource="http://web.resource.org/cc/PublicDomain"/>
  </Work>
  <License rdf:about="http://web.resource.org/cc/PublicDomain">
   <permits rdf:resource="http://web.resource.org/cc/Reproduction"/>
   <permits rdf:resource="http://web.resource.org/cc/Distribution"/>
   <permits rdf:resource="http://web.resource.org/cc/DerivativeWorks"/>
  </License>
 </rdf:RDF>
</svg>
