<?xml version="1.0" encoding="UTF-8" standalone="no"?>
<svg xmlns:rdf="http://www.w3.org/1999/02/22-rdf-syntax-ns#" xmlns="http://www.w3.org/2000/svg" sodipodi:docname="mouth4.svg" xmlns:sodipodi="http://inkscape.sourceforge.net/DTD/sodipodi-0.dtd" height="128px" sodipodi:version="0.32" width="128px" xmlns:cc="http://web.resource.org/cc/" xmlns:xlink="http://www.w3.org/1999/xlink" sodipodi:docbase="/home/nicu/Desktop/hats" xmlns:dc="http://purl.org/dc/elements/1.1/">
 <sodipodi:namedview bordercolor="#666666" pagecolor="#ffffff" borderopacity="1.0" showguides="true"/>
 <g fill-rule="evenodd" transform="matrix(2.1338 0 0 2.1338 -440.69 -869.68)">
  <path d="m246.56 428.56c-4.09-0.54-8.27 3.79-10.19 6.38-2.36 0.68-3.17-4.59-5.42-4.91-3.32-1.96-6.67-1.6-9.47 1.12-1.95 1.6-3.43 4.2-4.11 6.56-0.33 2.28-0.84 2.11 0.17 3.14 1.04 2.75 2.55 4.59 4.28 5.77 7.15 5.66 17.16 6.6 26.38 2.5 2.68-1.48 4.36-3.09 6.24-5.49 0.62-2.05 2.97-2.36 0.67-7.25-1.88-3.59-4.31-7.3-8.55-7.82z" sodipodi:nodetypes="ccccccccccc" fill="#ff6633"/>
  <g fill-opacity=".12549" fill="#ffffff">
   <path d="m218.5 436.15s7.95-12.91 14.85-1.95c2.29 1.41 7.07-7.78 10.43-6.36 5.65-0.18 11.31 9.19 11.49 10.07-3.01-1.59-4.42-4.95-10.08-4.95s-7.43 1.42-10.61 1.77c-5.83-0.53-11.49-2.65-16.08 1.42z" sodipodi:nodetypes="ccccccc"/>
   <path d="m220.62 432.98s7.25-9.55 14.14 1.41c2.3 1.42 7.07-7.78 10.43-6.36 5.66-0.18 9.9 7.42 10.08 8.31-3.01-1.59-3.72-4.78-9.37-4.78-5.66 0-6.72 3.01-9.9 3.36-3.19 0.36-8.67-5.3-15.38-1.94z" sodipodi:nodetypes="ccccccc"/>
   <path d="m220.58 439.12c4.38-0.99 9.96-1.03 13.8 2.54 2.01 1.88 15.28-4.82 19.56-2.01-4.42 2.41-14.47 6.97-18.08 2.95-2.41 2.54-11.52 0.8-15.28-3.48z" sodipodi:nodetypes="ccccc"/>
   <path d="m222.26 438.6c4.38-0.98 7.68-0.49 11.52 3.08 2.01 1.88 13.26-5.35 17.55-2.54-3.88 0.4-9.51 6.3-16.08 3.48-2.54-0.13-9.24 0.27-12.99-4.02z" sodipodi:nodetypes="ccccc"/>
  </g>
  <path d="m246.28 427.28c-4.09-0.54-8.26 3.78-10.19 6.38-2.36 0.68-2.93-4.6-5.18-4.91-3.33-1.96-7.61-0.9-10.41 1.81-1.94 1.61-2.73 4.68-3.41 7.03-0.33 2.29-4.43 3.11-5.93 4.22-1.24 2.14 4.39-1.4 5.4-0.37 1.75 0.98 2.09 3.35 3.82 4.53 7.15 7.06 19.49 9 28.24 3.97 2.68-1.49 4.6-3.79 6.47-6.19 0.62-2.05 4.33-2.63 6.38-2.78-1.77-0.79-3.63-0.51-5.94-5.41-1.88-3.59-5.01-7.76-9.25-8.28zm-0.06 1.69c4.55 0.72 7.54 4.8 9.28 8.75 1.11 0.96 0.31 3.12-1.09 1.66-3.09-1.12-6.49-1.83-9.75-1.19-2.93 0.76-5.44 2.36-8.57 2.4-1.94 0.2-3.73-0.35-4.84-1.9-1.82-2.07-4.76-2.32-7.28-1.69-1.9 0.43-3.71 1.21-5.56 1.78-1.59-0.95 0.78-3.09 1.09-4.4 1.85-3.18 5.77-5.45 9.44-4.19 2.69 0.87 3.98 4.71 6.68 5.12 2.71 0.15 2.11-2.96 4.35-3.78 1.98-1.63 3.76-2.76 6.25-2.56zm15.87 7.06c-0.42 0.19 1.48 3.84 1.6 5.44-0.7 2.85-1.93 3.41-3.47 5.03 2.2 0.32 4.14-1.51 4.9-4.03 0.24-3.17-2.15-5.37-3.03-6.44zm-51.03 0.88s-0.93 0.61-1.72 1.65c-0.77 1.03-1.42 2.54-0.81 4.22 0.01 0.02-0.01 0.04 0 0.06h0.03c0.58 2.39 3.28 3.57 3.28 3.57l-2.59-4.57 1.81-4.93zm16.91 1.71c1.37 0.31 2.36 1.56 3.47 2.6 2.35 2.27 6.24 1.67 8.97 0.5 2.54-1.2 5.26-3.23 8.15-2.66 2.48 0.23 4.88 0.95 7.19 1.85-5.04 8.93-17.14 12.36-26.69 8.71-4.98-1.76-9.1-4.6-11.72-9.21 2.81-1.32 5.99-1.46 9.1-1.72 0.57-0.16 1.07-0.17 1.53-0.07z"/>
 </g>
</svg>
