<?xml version="1.0" encoding="UTF-8" standalone="no"?>
<svg xmlns:rdf="http://www.w3.org/1999/02/22-rdf-syntax-ns#" xmlns="http://www.w3.org/2000/svg" sodipodi:docname="mouth5.svg" xmlns:sodipodi="http://inkscape.sourceforge.net/DTD/sodipodi-0.dtd" height="128px" sodipodi:version="0.32" width="128px" xmlns:cc="http://web.resource.org/cc/" xmlns:xlink="http://www.w3.org/1999/xlink" sodipodi:docbase="/home/nicu/Desktop/hats" xmlns:dc="http://purl.org/dc/elements/1.1/">
 <sodipodi:namedview bordercolor="#666666" pagecolor="#ffffff" borderopacity="1.0" showguides="true"/>
 <g fill-rule="evenodd" transform="matrix(1.919 0 0 1.919 -502.69 -765.12)">
  <path d="m289.49 423.2c-6.9 0.24-5.03 1.77-3.59 1.93-0.64 0.76-1.02 3.04-1.06 6.44-0.12 6.8-0.25 14.16 3.89 19.87 2.9 3.47 8.25 2.74 10.46-1.32 3.55-4.78 4.88-10.52 5.41-16.28 0.06-2.39-0.5-6.87-1.43-8.43-1.7-1.53-5.48-1.65-13.68-2.21z" sodipodi:nodetypes="cccccccc" fill="#ff6633"/>
  <g fill-opacity=".12549" fill="#ffffff">
   <path d="m285.33 425.24c2.34-2.14 6.76-1.83 9.86-0.75 0.75 1.13 7.38-2.09 8.71 0.94 0.38 5.31-4.36 7.01-8.52 4.36-3.6-0.38-6.26 4.36-10.05-4.55z" sodipodi:nodetypes="ccccc"/>
   <path d="m285.89 424.67c2.34-2.15 6.19-1.46 9.29-0.38 0.75 1.13 7.38-2.09 8.71 0.94-0.95 3.79-4.74 4.93-8.9 2.28-3.6-0.38-5.31 4.92-9.1-2.84z" sodipodi:nodetypes="ccccc"/>
   <path d="m304.28 435.1c-0.32 6.63-2.34 11.74-5.49 17.05-3.23 1.51-7.39 1.32-8.72 0.38-1.89-6.25 7.58-1.52 14.21-17.43z" sodipodi:nodetypes="cccc"/>
   <path d="m303.74 437.95c-0.32 6.63-1.77 8.34-4.93 13.64-3.22 1.52-6.06 2.84-7.39 1.9-1.89-6.26 5.69 0.38 12.32-15.54z" sodipodi:nodetypes="cccc"/>
  </g>
  <path d="m289 422.31c-6.9 0.24-13.22 1.98-19.38 5.28 2.64 1.1 5.41-0.7 7.97-0.59 2.09-0.38 5.44-1.59 6.88-1.44-0.65 0.77-0.64 2.85-0.69 6.25-0.11 6.81 0.7 14.54 4.84 20.25 2.9 3.47 9.2 3.13 11.41-0.94 3.55-4.78 4.69-10.71 5.22-16.46 0.06-2.4 0.83-7.63 0.47-9.38 4.17-0.58 11.54 2.18 15.4 3.94-0.82-2.46-2.99-3.02-5.09-3.56-8.2-2.74-18.45-3.35-27.03-3.35zm0.19 1.88c2.1-0.08 4.74 0.59 5.4 2.28 0.71 2.4-0.31 4.87 0 7.31-0.16 4.78-0.33 9.57-0.5 14.34 2.05-1.83 1.07-4.93 1.25-7.28 0.84-4.88-0.27-9.73 0.88-14.59 0.51-1.11 1.69-1.94 2.94-1.87 3.61 0.48 5.43 4.64 4.81 7.93-0.21 6.81-1.84 13.32-6.25 18.78-2.93 3.03-8.1 1.61-9.53-2.28-3.07-5.38-2.29-11.01-2.5-17-0.04-2.56 0.03-7.7 1.65-7.31 0.49-0.18 1.15-0.29 1.85-0.31zm-23.53 0.72c-0.59 1.35-0.37 2.88-0.25 4.31 0.35 2.09 1.57 4.16 3.56 5.06 1.26 0.51 5.41 0.74 5.56 0.03-0.02-0.53-3.48-1.18-4.62-1.37-1.59-0.4-2.15-1.45-2.66-2.94-0.5-1.39-1.28-4.87-1.59-5.09zm60.28 0.68c-0.64-0.02 0.13 4.79-0.38 6-0.52 1.15-1.65 1.91-2.84 2.22-1.23 0.36-2.52 0.36-3.6 1.03 0.97 1.2 5.15 0.39 6.26-0.4 1.49-1.27 2.02-3.38 1.68-5.25-0.17-1.25-0.58-2.46-1.12-3.6z"/>
 </g>
</svg>
