<?xml version="1.0" encoding="UTF-8" standalone="no"?>
<svg xmlns:rdf="http://www.w3.org/1999/02/22-rdf-syntax-ns#" xmlns="http://www.w3.org/2000/svg" sodipodi:docname="mouth6.svg" xmlns:sodipodi="http://inkscape.sourceforge.net/DTD/sodipodi-0.dtd" height="128px" sodipodi:version="0.32" width="128px" xmlns:cc="http://web.resource.org/cc/" xmlns:xlink="http://www.w3.org/1999/xlink" sodipodi:docbase="/home/nicu/Desktop/hats" xmlns:dc="http://purl.org/dc/elements/1.1/">
 <sodipodi:namedview bordercolor="#666666" pagecolor="#ffffff" borderopacity="1.0" showguides="true"/>
 <g fill-rule="evenodd" transform="matrix(1.7451 0 0 1.7451 -508.9 -692.69)">
  <path d="m350.18 433.82c-2.97-1.71-5.59-2.83-9.07-3.17-5.67-0.05-10.67 3.02-15.71 5.2-2.79 1.03-5.34-2.27-8.05-2.48-4.7-1.07-8.76-0.5-13.23 1.41-2.09 1.81-1.05 3.53 1 4.87 8.47 4.62 17.58 6.05 27.18 4.05 8.01-2.05 11.83-4.16 18.61-7.72 2.65-0.03 1.81-0.39-0.73-2.16z" sodipodi:nodetypes="ccccccccc" fill="#ff0000"/>
  <path d="m324.72 436.25s15.01-7.39 16.54-6.09c3.91 0.87 8.7 3.27 9.35 5.22-5.22-1.08-17.19-0.87-25.89 0.87z" fill-opacity=".27647" sodipodi:nodetypes="cccc" fill="#ffffff"/>
  <path d="m328.31 434.59s11.75-5.88 13.27-4.57c3.92 0.87 6.75 1.96 7.4 3.92-5.22-1.09-11.97-1.09-20.67 0.65z" fill-opacity=".27647" sodipodi:nodetypes="cccc" fill="#ffffff"/>
  <path d="m358.1 428.6c0.44 3.21 4.6 4.29 0.74 4.69-2.58 0.61-5.22 1.94-7.76 0.17-2.96-1.71-6.24-3.92-9.72-4.26-5.67-0.05-10.67 3.03-15.71 5.2-2.79 1.04-5.12-2.05-7.83-2.26-4.7-1.07-9.63 0.15-14.1 2.07-1.66 1.15-2.8 2.36-4.87 1.3-2.24 0.1-4.38-1.98-1.68-4.41-4.06 0.27-4.03 5.59-3.31 8.44 0 1.99 0.98-5.08 3.29-3.43 2.44 0.39 4.44 2.28 6.48 3.62 8.47 4.62 18.67 6.92 28.27 4.91 7.57-1.39 14.66-5.24 21.44-8.8 2.65-0.03 5.67-2.79 7.67-0.71 0.47 1.51-0.22 2.44 0.1 4.77 1.23-2.22 2.28-5.13 0.41-7.33-0.8-1.21-2.29-3.08-3.42-3.97zm-16.82 2.46c3.39 0.35 6.33 2.32 9.2 3.98-0.13 1.32-3.41 0.15-4.78 0.81-12.94 2.89-26.71 3.08-39.71 0.29-1.4-0.4-3.61 0.16-0.7-1.23 3.19-1.81 5.49-1.27 9.05-1.34 3.59 0.25 6.85 1.9 10.13 3.24 5.5-2.14 10.73-5.61 16.81-5.75zm6.91 6.16c-9.16 4.37-19.47 7.89-29.72 5.86-4.92-0.92-9.59-2.85-14-5.17 14.57 1.94 26.97 3.02 43.72-0.69z" sodipodi:nodetypes="cccccccccccccccccccccccccccccc"/>
 </g>
</svg>
