<?xml version="1.0" encoding="UTF-8" standalone="no"?>
<!DOCTYPE svg  PUBLIC '-//W3C//DTD SVG 20010904//EN'  'http://www.w3.org/TR/2001/REC-SVG-20010904/DTD/svg10.dtd'>
<svg xmlns="http://www.w3.org/2000/svg" height="80pt" width="80pt" xmlns:xlink="http://www.w3.org/1999/xlink">
 <g fill-rule="evenodd">
  <path d="m56.781 9.0312c0.529 0.4572 0.944 1.0598 1.438 1.5628-0.668-0.085-1.34-0.138-2.031-0.156-0.616-0.352-1.346-0.5693-2.157-0.6568 0.194-0.1781 0.333-0.4222 0.531-0.5937-8.148 0.8975-13.394 4.3095-15.374 9.2185-0.109 0.225-0.192 0.458-0.282 0.688-0.121 0.369-0.291 0.709-0.375 1.094-0.224 0.888-0.343 1.781-0.25 2.718 0.001 2.773 0.768 5.815 2.531 9.094 0.299-0.679 0.61-1.265 0.907-1.938 2.86 3.758 8.014 6.282 13.937 6.282 5.973 0 11.156-2.565 14-6.375 0.288 0.651 0.586 1.217 0.875 1.875 6.43-11.951 0.659-21.226-13.75-22.813zm-28.187 19.563c0.538 0.465 0.967 1.081 1.468 1.594-0.676-0.088-1.361-0.137-2.062-0.157-0.616-0.361-1.339-0.565-2.156-0.656 0.193-0.178 0.332-0.422 0.531-0.594-8.138 0.896-13.388 4.289-15.375 9.188-0.117 0.24-0.216 0.473-0.312 0.719-0.126 0.384-0.29 0.754-0.376 1.156-0.207 0.861-0.309 1.749-0.218 2.656 0 2.773 0.767 5.815 2.531 9.094 0.295-0.671 0.613-1.242 0.906-1.906 2.866 3.737 8.003 6.249 13.907 6.25 3.432 0 6.62-0.841 9.25-2.282l-0.063 5c-2.658-0.628-5.55-1.062-8.75-1.062-10.382 0-18.848 3.717-19.344 8.406l-0.1872 18.688c13.17 0.888 25.655 0.8 39 0.062l-0.125-18.75c-0.02-0.186-0.144-0.349-0.188-0.531 5.777 0.168 11.63 0.19 17.438 0.031-3.801 1.535-6.333 3.685-6.594 6.156l-0.219 18.688c13.17 0.888 25.656 0.769 39 0.031l-0.125-18.719c-0.495-4.689-8.962-8.406-19.343-8.406-0.589 0-1.082 0.133-1.657 0.156l-0.031-1.906c0.421 0.026 0.821 0.094 1.25 0.094 5.991 0 11.162-2.608 14-6.438 0.293 0.664 0.611 1.237 0.906 1.906 6.43-11.95 0.659-21.225-13.75-22.812 0.538 0.465 0.967 1.082 1.469 1.594-0.676-0.088-1.361-0.137-2.063-0.156-0.622-0.364-1.33-0.568-2.156-0.657 0.194-0.178 0.333-0.422 0.532-0.593-5.086 0.56-9.035 2.087-11.813 4.343-2.398-0.487-4.987-0.781-7.781-0.781-4.371 0-8.231 0.758-11.469 1.875-1.188-6.032-6.78-10.262-16.031-11.281z" fill-opacity=".5"/>
  <g stroke="#000000" stroke-width="1.25">
   <g stroke-linejoin="round">
    <path d="m68.18 20.446c0 7.164-7.312 12.978-16.32 12.978-9.009 0-16.32-5.814-16.32-12.978s7.311-12.978 16.32-12.978c9.008-0.0005 16.32 5.814 16.32 12.978z" fill="#996600"/>
    <path d="m52.303 35.069c-10.382 0-18.842 3.738-19.337 8.427l-0.196 18.687c13.17 0.888 25.643 0.776 38.987 0.038l-0.117-18.725c-0.496-4.689-8.955-8.427-19.337-8.427z" fill="#0000000d1"/>
    <path d="m50.792 6.2559c-6.151 5.3141-9.8 13.838-13.754 22.817-6.43-11.951-0.655-21.23 13.754-22.817z"/>
    <path d="m53.007 6.0906c6.152 5.3144 9.8 13.838 13.754 22.816 6.43-11.95 0.655-21.23-13.754-22.816z"/>
   </g>
   <path d="m49.713 17.275c0 1.358-1.259 2.46-2.81 2.46s-2.81-1.102-2.81-2.46c0-1.357 1.259-2.459 2.81-2.459s2.81 1.102 2.81 2.459z" fill="#ffffff"/>
  </g>
 </g>
 <g stroke="#000000" stroke-width="1.25">
  <path stroke-linejoin="round" d="m44.911 18.87c-0.154-1.918 4.326-1.77 3.863 0.147-1.082 1.18-3.554 0.59-3.863-0.147z" fill="none"/>
  <path d="m59.31 16.51c0 1.357-1.259 2.459-2.811 2.459-1.551 0-2.81-1.102-2.81-2.459 0-1.358 1.259-2.459 2.81-2.459 1.552 0 2.811 1.101 2.811 2.459z" fill-rule="evenodd" fill="#ffffff"/>
  <path stroke-linejoin="round" d="m54.553 17.964c-0.154-1.917 4.326-1.77 3.863 0.147-1.082 1.18-3.554 0.59-3.863-0.147z" fill="none"/>
  <path d="m43.984 25.654c2.318 3.982 13.597 2.95 15.142-0.59" fill="none"/>
 </g>
 <g fill-rule="evenodd">
  <path d="m50.937 36.104c-0.773-0.297-14.988 0.795-16.842 6.751-0.309 2.184-0.463 18.563-0.463 18.563l19.468 0.695c9.116-5.261-25.803 0-2.163-26.009z" fill-opacity=".5" fill="#ffffff"/>
  <path d="m53.409 8.2505c-5.562-6.342-31.52 8.8495-11.434 21.09 8.035 2.951-6.489-24.629 11.434-21.09z" fill-opacity=".25" fill="#ffffff"/>
  <g stroke="#000000" stroke-width="1.25">
   <g stroke-linejoin="round">
    <path d="m39.972 40.031c0 7.164-7.312 12.978-16.32 12.978-9.009 0-16.321-5.814-16.321-12.978 0.0004-7.164 7.312-12.978 16.321-12.978 9.008 0 16.32 5.814 16.32 12.978z" fill="#ffcccc"/>
    <path d="m24.095 54.654c-10.382 0-18.842 3.739-19.337 8.428l-0.1957 18.687c13.17 0.888 25.643 0.775 38.987 0.037l-0.117-18.724c-0.496-4.689-8.955-8.428-19.337-8.428z" fill="#006600"/>
    <path d="m22.584 25.841c-6.152 5.314-9.8 13.839-13.754 22.817-6.4298-11.951-0.6548-21.23 13.754-22.817z" fill="#ffcc00"/>
    <path d="m24.799 25.676c6.151 5.314 9.799 13.838 13.754 22.817 6.43-11.951 0.655-21.23-13.754-22.817z" fill="#ffcc00"/>
   </g>
   <path d="m21.505 36.861c0 1.357-1.259 2.459-2.81 2.459s-2.811-1.102-2.811-2.459 1.26-2.459 2.811-2.459 2.81 1.102 2.81 2.459z" fill="#ffffff"/>
  </g>
 </g>
 <g stroke="#000000" stroke-width="1.25">
  <path stroke-linejoin="round" d="m16.703 38.455c-0.155-1.917 4.326-1.77 3.863 0.148-1.082 1.18-3.554 0.59-3.863-0.148z" fill="none"/>
  <path d="m31.102 36.095c0 1.358-1.259 2.459-2.811 2.459-1.551 0-2.81-1.101-2.81-2.459 0-1.357 1.259-2.459 2.81-2.459 1.552 0 2.811 1.102 2.811 2.459z" fill-rule="evenodd" fill="#ffffff"/>
  <path stroke-linejoin="round" d="m26.345 37.549c-0.155-1.917 4.326-1.769 3.863 0.148-1.082 1.18-3.554 0.59-3.863-0.148z" fill="none"/>
  <path d="m15.776 45.24c2.317 3.982 13.597 2.949 15.142-0.59" fill="none"/>
 </g>
 <g fill-rule="evenodd">
  <path d="m22.729 55.69c-0.773-0.298-14.988 0.794-16.842 6.75-0.3089 2.184-0.4635 18.564-0.4635 18.564l19.468 0.695c9.116-5.262-25.803 0-2.163-26.009z" fill-opacity=".5" fill="#ffffff"/>
  <path d="m25.201 27.836c-5.562-6.342-31.52 8.849-11.434 21.091 8.035 2.95-6.4893-24.631 11.434-21.091z" fill-opacity=".25" fill="#ffffff"/>
  <g stroke="#000000" stroke-width="1.25">
   <g stroke-linejoin="round">
    <path d="m89.295 45.685c0 7.164-7.311 12.978-16.32 12.978s-16.32-5.814-16.32-12.978 7.311-12.978 16.32-12.978 16.32 5.814 16.32 12.978z" fill="#ffffcc"/>
    <path d="m73.418 60.309c-10.382 0-18.842 3.738-19.337 8.427l-0.195 18.687c13.169 0.888 25.642 0.776 38.986 0.038l-0.117-18.725c-0.496-4.689-8.955-8.427-19.337-8.427z" fill="#9900cc"/>
    <path d="m71.907 31.495c-6.151 5.314-9.799 13.839-13.754 22.817-6.43-11.951-0.655-21.23 13.754-22.817z"/>
    <path d="m74.122 31.33c6.152 5.314 9.8 13.838 13.754 22.817 6.43-11.951 0.655-21.23-13.754-22.817z"/>
   </g>
   <path d="m70.828 42.515c0 1.357-1.259 2.459-2.81 2.459s-2.81-1.102-2.81-2.459 1.259-2.459 2.81-2.459 2.81 1.102 2.81 2.459z" fill="#ffffff"/>
  </g>
 </g>
 <g stroke="#000000" stroke-width="1.25">
  <path stroke-linejoin="round" d="m66.026 44.109c-0.154-1.917 4.326-1.77 3.863 0.148-1.082 1.18-3.554 0.59-3.863-0.148z" fill="none"/>
  <path d="m80.425 41.749c0 1.358-1.259 2.46-2.811 2.46-1.551 0-2.81-1.102-2.81-2.46 0-1.357 1.259-2.459 2.81-2.459 1.552 0 2.811 1.102 2.811 2.459z" fill-rule="evenodd" fill="#ffffff"/>
  <path stroke-linejoin="round" d="m75.668 43.204c-0.154-1.918 4.327-1.77 3.863 0.147-1.082 1.18-3.554 0.59-3.863-0.147z" fill="none"/>
  <path d="m65.099 50.894c2.318 3.982 13.597 2.95 15.142-0.59" fill="none"/>
 </g>
 <path d="m72.052 61.344c-0.773-0.298-14.988 0.794-16.842 6.75-0.309 2.184-0.463 18.564-0.463 18.564l19.468 0.695c9.116-5.261-25.803 0-2.163-26.009z" fill-opacity=".5" fill-rule="evenodd" fill="#ffffff"/>
 <path d="m74.524 33.49c-5.562-6.342-31.52 8.849-11.434 21.091 8.035 2.95-6.489-24.631 11.434-21.091z" fill-opacity=".25" fill-rule="evenodd" fill="#ffffff"/>
 <rdf:RDF xmlns:rdf="http://www.w3.org/1999/02/22-rdf-syntax-ns#" xmlns="http://web.resource.org/cc/" xmlns:dc="http://purl.org/dc/elements/1.1/">
  <Work rdf:about="">
   <dc:title>Clipart by Nicu Buculei - head1</dc:title>
   <dc:rights>
    <Agent>
     <dc:title>Nicu Buculei</dc:title>
    </Agent>
   </dc:rights>
   <dc:type rdf:resource="http://purl.org/dc/dcmitype/StillImage"/>
   <license rdf:resource="http://web.resource.org/cc/PublicDomain"/>
  </Work>
  <License rdf:about="http://web.resource.org/cc/PublicDomain">
   <permits rdf:resource="http://web.resource.org/cc/Reproduction"/>
   <permits rdf:resource="http://web.resource.org/cc/Distribution"/>
   <permits rdf:resource="http://web.resource.org/cc/DerivativeWorks"/>
  </License>
 </rdf:RDF>
</svg>
