<?xml version="1.0" encoding="UTF-8" standalone="no"?>
<!DOCTYPE svg  PUBLIC '-//W3C//DTD SVG 20010904//EN'  'http://www.w3.org/TR/2001/REC-SVG-20010904/DTD/svg10.dtd'>
<svg xmlns="http://www.w3.org/2000/svg" height="80pt" width="80pt" xmlns:xlink="http://www.w3.org/1999/xlink">
 <g fill-rule="evenodd">
  <path stroke-linejoin="round" d="m53.854 11.735c-10.238 0-18.531 6.648-18.531 14.843 0 5.593 3.914 10.406 9.625 12.938-7.566 1.456-14.409 3.966-18.469 7.812-8.63 11.455-5.437 20.464-5.594 22.094 0.773 0.866 5.706 4.192 9.375 3.938-0.371-7.486 1.782-17.969 1.782-17.969-0.47 0.376-2.171 14.506-1.625 18-0.05 0.005-0.107-0.035-0.157-0.031 0.002 0.039-0.002 0.086 0 0.125 0.4 6.49 3.653 21.402 5.063 22.656 13.819 1.983 27.023 1.715 41.469 0.312 0 0 0.402-3.805 0.5-4.718 1.206-4.066 2.422-10.136 1.468-14.469 0.093-0.909 0.095-0.854 0.188-1.781-0.789-11.043-2.882-18.539-2.813-18.375 1.637 4.803 2.813 18.375 2.813 18.375 4.782-0.815 8.156-1.617 12.937-4.313 1.567-1.63 2.342-10.961-4.75-23.625-2.98-5.323-11.943-8.281-22.218-9.125 4.518-2.708 7.5-6.98 7.5-11.844 0-0.053-0.031-0.102-0.032-0.156 0.118-0.57 0.346-1.337 0.407-1.719-0.257-0.168-0.397-0.138-0.625-0.25-1.295-7.185-8.981-12.718-18.313-12.718z" fill-opacity="0.5" stroke-width="1.25"/>
  <g style="">
   <path stroke-linejoin="round" d="m18.815 66.311c0.157-1.63-3.046-10.639 5.584-22.094 13.016-12.332 53.567-12.473 60.659 0.191 7.091 12.664 6.319 21.993 4.753 23.623-4.782 2.696-8.154 3.51-12.936 4.325 0 0-1.177-13.555-2.814-18.359-0.07-0.164 2.026 7.321 2.814 18.363-1.091 10.917-2.182 20.957-2.182 20.957-14.445 1.402-27.638 1.676-41.457-0.307-1.41-1.254-4.666-16.16-5.066-22.65-0.4-7.493 1.793-18.092 1.793-18.092-0.47 0.376-2.182 14.498-1.636 17.992-3.685 0.358-8.728-3.071-9.512-3.949z" stroke="#000000" stroke-width="1.25" fill="#9900ff"/>
   <path stroke-linejoin="round" d="m70.329 23.447c0 8.195-8.308 14.847-18.546 14.847s-18.547-6.652-18.547-14.847c0-8.196 8.309-14.848 18.547-14.848 10.238 0.0002 18.546 6.652 18.546 14.848z" stroke="#000000" stroke-width="1.25" fill="#9900ff"/>
   <g fill-opacity=".25" fill="#ffffff">
    <path d="m51.512 9.7195c-8.077-2.6923-27.102 11.308-12.025 23.872 9.153-1.796-8.436-16.334 12.025-23.872z"/>
    <path d="m42.179 37.181c-0.898-0.18-12.923 1.974-17.231 7.897-3.589 2.154-7 12.384-5.564 20.641 1.795 1.435 5.205 3.769 6.103 3.23 5.025-10.589-11.846-21.538 16.692-31.768z"/>
    <path d="m30.153 55.129c-3.589 10.949-0.179 30.512 3.769 36.974 3.949 1.256 9.513 1.795 10.77 1.436 1.076-9.154-14.898-7.898-14.539-38.41z"/>
   </g>
   <g>
    <path d="m52.589 37.54c15.256-4.129 11.307-20.462 18.128-15.975-0.539 3.411-2.693 15.436-18.128 15.975z" fill-opacity=".25"/>
    <path d="m81.306 70.565s8.257-1.616 8.616-3.231c1.974-6.282-3.411-21.179-5.923-23.692-12.205-4.308 13.281 24.948-2.693 26.923z" fill-opacity=".25"/>
    <path d="m64.973 93.539s7.898 0.538 8.795-0.898 5.026-14 2.513-20.102c-8.257-6.82 3.051 20.82-11.308 21z" fill-opacity="0.24"/>
   </g>
  </g>
 </g>
 <rdf:RDF xmlns:rdf="http://www.w3.org/1999/02/22-rdf-syntax-ns#" xmlns="http://web.resource.org/cc/" xmlns:dc="http://purl.org/dc/elements/1.1/">
  <Work rdf:about="">
   <dc:title>Clipart by Nicu Buculei - head1</dc:title>
   <dc:rights>
    <Agent>
     <dc:title>Nicu Buculei</dc:title>
    </Agent>
   </dc:rights>
   <dc:type rdf:resource="http://purl.org/dc/dcmitype/StillImage"/>
   <license rdf:resource="http://web.resource.org/cc/PublicDomain"/>
  </Work>
  <License rdf:about="http://web.resource.org/cc/PublicDomain">
   <permits rdf:resource="http://web.resource.org/cc/Reproduction"/>
   <permits rdf:resource="http://web.resource.org/cc/Distribution"/>
   <permits rdf:resource="http://web.resource.org/cc/DerivativeWorks"/>
  </License>
 </rdf:RDF>
</svg>
