<?xml version="1.0" encoding="UTF-8" standalone="no"?>
<!DOCTYPE svg  PUBLIC '-//W3C//DTD SVG 20010904//EN'  'http://www.w3.org/TR/2001/REC-SVG-20010904/DTD/svg10.dtd'>
<svg xmlns:rdf="http://www.w3.org/1999/02/22-rdf-syntax-ns#" height="120pt" xmlns="http://www.w3.org/2000/svg" xmlns:dc="http://purl.org/dc/elements/1.1/" width="120pt" xmlns:cc="http://web.resource.org/cc/" xmlns:xlink="http://www.w3.org/1999/xlink">
 <g fill-rule="evenodd">
  <path d="m89.8 8.7307c-25.919-0.9786-51.371 19.988-59.977 51.467-2.067 7.561-2.947 15.118-2.856 22.435-7.124 6.538-13.943 14.603-19.54 26.947 7.607-0.55 14.602-8.13 21.903-8.98 1.715 6.57 4.379 12.64 7.761 18.08 9.192-1.99 15.941-6.12 23.912-11.47-0.004 11.56-8.867 20.06-14.674 22.75 5.387 5.01 11.712 8.82 18.909 10.92 29.392 8.55 61.232-13.7 71.062-49.679 9.84-35.976-6.02-72.124-35.41-80.678-3.675-1.0691-7.388-1.6525-11.09-1.7923z" fill="#cccc99"/>
  <path d="m124.47 50.606c-1.46 0.127-3 1.042-4.53 2.896-1.53 1.853-3.08 4.65-4.61 8.646l1.64 1.193c1.52-3.946 3.04-6.982 4.49-8.736s1.89-3.128 3.06-3.231c1.18-0.102 2.25 0.442 3.22 1.478 0.96 1.035 1.77 2.567 2.34 4.353 1.14 3.571 0.68 6.617-0.65 10.211-1.33 3.595-3.44 6.525-8.25 6.451l-0.02 2.01c5.11 0.079 8.2-2.844 9.61-6.657 1.41-3.814 2.47-9.128 1.28-12.863-0.59-1.867-1.14-3.493-2.22-4.648-1.07-1.155-3.9-1.23-5.36-1.103z"/>
  <path d="m107.11 111.95a12.843 17.447 0 1 0 -25.688 0 12.843 17.447 0 1 0 25.688 0z" transform="matrix(.55938 .29047 -.29047 .55938 36.534 -35.714)" fill="#ffffff"/>
  <path d="m58.757 43.456c-1.175 0.053-2.374 0.379-3.525 0.946-2.304 1.133-4.455 3.224-5.89 5.987-1.435 2.764-1.895 5.698-1.497 8.234s1.69 4.675 3.802 5.771c2.111 1.096 4.61 0.917 6.913-0.217 2.304-1.133 4.415-3.205 5.85-5.968s1.935-5.697 1.537-8.233-1.69-4.714-3.802-5.811c-1.055-0.548-2.212-0.761-3.388-0.709zm0.178 1.556c0.976 0.027 1.909 0.307 2.836 0.788 1.854 0.963 2.724 2.872 3.092 5.22 0.28 1.779-0.235 3.054-1.024 4.648-1.739-2.141-5.839-7.651-12.586-6.303 1.281-2.364 2.64-2.665 4.629-3.644 1.066-0.524 2.076-0.736 3.053-0.709zm-5.712 6.54c2.749 0.916 1.842 9.148 0.925 10.675-0.916 1.528-3.368-0.609-3.674-4.58-0.305-3.971 2.749-6.095 2.749-6.095z"/>
  <path d="m86.915 8.9204c-26.362-0.9954-48.569 19.583-57.255 51.357-2.054 7.514-2.585 14.844-2.525 22.122-7.091 6.548-14.251 13.958-19.831 26.261l1.2944 1.98c4.0456-0.29 6.7336-2.4 10.352-4.47 3.397-1.95 7.044-4.87 10.259-5.42 1.738 6.37 3.644 12.27 6.94 17.57l2.757 1.05c8.786-1.9 13.827-5.43 21.23-10.34-0.358 4.91-2.782 10.82-5.372 14.26-2.861 3.8-5.936 4.96-8.691 6.24l0.485 1.98c5.466 5.08 11.198 7.4 18.522 9.53 29.891 8.7 62.12-13.03 72.05-49.346 9.93-36.314-6.06-72.945-35.95-81.644-3.733-1.0871-10.499-0.9874-14.265-1.1296zm-0.41 1.2246c3.64 0.138 11.668 0.196 15.275 1.247 28.9 8.408 43.93 44.425 34.19 80.064-9.75 35.634-39.789 56.484-68.682 48.074-6.713-1.96-14.394-4.59-19.521-9.15 2.838-1.54 6.07-4.15 8.765-7.72 3.022-4.02 4.985-9.37 4.987-15.34l-1.768 0.4c-7.79 5.23-13.462 8.31-22.227 10.31-3.194-5.24-4.848-11.23-6.489-17.53l-1.724-0.591c-3.889 0.451-7.542 2.821-11.149 4.881-3.099 1.78-6.156 3.42-9.2179 4.02 5.4149-11.405 11.853-18.737 18.633-24.959l0.607-2.17c-0.09-7.248 0.419-13.503 2.466-20.99 8.525-31.184 30.38-51.508 55.855-50.546z"/>
 </g>
</svg>
