<?xml version="1.0" encoding="UTF-8" standalone="no"?>
<!DOCTYPE svg  PUBLIC '-//W3C//DTD SVG 20010904//EN'  'http://www.w3.org/TR/2001/REC-SVG-20010904/DTD/svg10.dtd'>
<svg xmlns:rdf="http://www.w3.org/1999/02/22-rdf-syntax-ns#" xmlns="http://www.w3.org/2000/svg" height="360pt" width="140pt" xmlns:xlink="http://www.w3.org/1999/xlink" xmlns:cc="http://web.resource.org/cc/" xmlns:dc="http://purl.org/dc/elements/1.1/">
 <g stroke="#000000" stroke-width="1pt">
  <g transform="translate(-2.455 -28.642)">
   <path d="m82.5 40.438c-8.61-0.516-17.451 6.577-17.156 17.468 0 0-0.581 30.584 8.25 29.406 2.518-0.335 5.467-1.128 8.437-2.312-2.092 1.211-4.172 2.266-6.093 2.906-0.001 0 3.537 7.656 0.593 11.188-1.649 1.976 5.008 2.986 11.5 2.496-4.963 1.04-9.979 0.81-12.687-1.902-4.121-0.589-25.294 4.712-15.875 25.312 1.177 18.84-15.332 25.32 0.562 32.97-3.532 4.12 3.553 24.73 2.375 32.97-3.532 1.76-1.766 28.85 0 37.68-3.532 1.48-3.538 73.71 5.219 96.82-1.251 8.98 0.356 18.27 3.594 18.56 2.355 3.53 8.245 72.99 7.656 79.47-0.589 6.47-18.842 24.12-25.906 27.65-7.065 3.54 3.531 1.78 3.531 4.72 0 2.95 10.035 3.55 14.156 5.32 8.831-1.18 14.7-6.5 27.063-6.5 8.241 0 4.701-10.6 2.941-25.32-1.77-14.71 13.56-65.93 2.37-91.25 2.36-19.42 8.82-82.41 9.41-94.18 6.47-5.89-1.17-33.56-5.88-43.57-0.12-0.21 46.26-9.11 53.56-27.65 1.18-7.66-32.96-65.35-36.5-69.47-5.88-0.59-23.56-7.064-23.56-7.064-0.261 0.235-0.755 0.426-1.06 0.656 1.41-5.939-2.48-15.525-3.625-21.25-0.061 0.049-0.277 0.197-0.344 0.25 1.652-2.162 2.85-4.578 3.281-7.312 1.178-19.427-7.202-27.547-15.812-28.062zm35.97 96.092c3.53 4.71 15.32 25.33 20.03 30.63-7.71 5.04-21.69 13.06-33.91 21-4.994-9.9 15.75-43.66 13.88-51.63z" fill-rule="evenodd" fill="#ffffff"/>
   <g fill="none">
    <path d="m68.289 233.32s-0.589 68.88 5.886 80.06c0.589 9.42-2.354 25.32 6.476 33.56 2.355 5.3 4.71 73.59 2.944 84.18-7.653 8.24-18.839 19.43-27.08 22.96"/>
    <path d="m75.942 153.85s12.362 9.42 20.015-1.18"/>
    <path d="m106.7 200.22c-0.45 0.23-1.18 0.44-1.5 0.68-2.94 4.71 0.01 8.25-2.34 11.19-2.36 2.94-5.308 6.47-8.251 6.47-2.944 0-12.938-5.88-12.938-10 0.876-4.67 11.172-12.38 23.189-20.19"/>
   </g>
  </g>
  <path d="m59.536 24.379s3.555-18.784 21.365-18.784c24.369 1.4244 26.349 48.731 20.649 55.855-4.627 4.631-14.238 5.075-14.238 5.075s4.275 0.356 4.631-4.631 2.971-31.017-4.865-38.141c-6.768-3.918-26.474-0.442-27.542 0.626z" fill-rule="evenodd" fill="#999999"/>
 </g>
</svg>
