<?xml version="1.0" encoding="UTF-8" standalone="no"?>
<!DOCTYPE svg  PUBLIC '-//W3C//DTD SVG 20010904//EN'  'http://www.w3.org/TR/2001/REC-SVG-20010904/DTD/svg10.dtd'>
<svg xmlns:rdf="http://www.w3.org/1999/02/22-rdf-syntax-ns#" xmlns="http://www.w3.org/2000/svg" height="360pt" width="140pt" xmlns:xlink="http://www.w3.org/1999/xlink" xmlns:cc="http://web.resource.org/cc/" xmlns:dc="http://purl.org/dc/elements/1.1/">
 <g stroke="#000000" stroke-width="1pt">
  <path stroke-linejoin="round" d="m80.464 50.062c2.879 5.759 1.241 10.697 0.521 16.455-7.475 6.998-25.394 2.083-29.207 8.332-7.947 12.037-38.452 49.291-38.696 60.201 0.292 9.58 20.009 44.25 31.403 56.01 2.711 0.6 6.194 1.03 7.916-0.39 2.342-6.17 1.784-5.66 3.858-14.33-1.445-2.48-2.364 2.06-6.087 1.64-5.79-7.04-16.866-34.74-17.953-41.36 5.266-9.52 16.998-20.69 25.913-34.71 7.15 11.54-8.01 16.28 4.891 24.28 1.225 11.3 2.336 29.65 1.165 35.15-30.456 39.95 0.878 133.85 1.874 146.32-8.511 29 8.043 89.35 8.442 94.91-0.428 5.15-3.491 9.77-1.546 12.95-2.602 11.04-5.321 15.44-3.161 21.92 2.159 6.48 17.766 8.09 20.767 4.1 0.934-6.07-0.608-21.38-2.767-24.26 1.148-2.46 2.541-11.11 0.197-18.52-2.757-9.48 5.825-63.07-0.775-78.04 0.841-3.4 2.173-14.49 2.187-19.44-0.804-2.97 0.48-35.1 2-60.19 1.527 25.12 2.807 57.43 2 60.41-2.879 2.88 0.106 16.45 2.188 19.44-2.053 6.29 3.635 68.56 7.906 75.56-2.34 7.41 0.29 14.82 1.44 17.28-2.16 2.88-4.53 19.84-3.6 25.91 3 4 19.44 0.73 21.6-5.75s-3.87-8.4-6.47-19.44c1.94-3.19-0.32-10.7-0.75-15.84 0.4-5.56 9.54-61.78 1.03-90.78 1-12.47 29.02-107.61 1.87-146.32-1.17-5.5 0.06-26.9 1.64-38.2 9.97-4.69-2.04-13.75 4.83-21.24 1.06 8.77 3.94 46.66 8.63 59-3.17 15.24 2.16 58.31-0.72 62.63s-3.89 15.29-3.59 20.16c3.6-2.16 4.28-5.01 6.47-3.6 2.6 5.13-8.29 10.58-8.32 15.13 5.76 0 18.96-6.81 14.82-30.97-0.02-9.69 12.71-62.59 5.03-75.56 2.65-8.43-4.29-60.152-9.35-70.535-3.81-6.249-24.21-3.814-31.68-10.813-0.72-5.758-3.6-11.522-0.72-17.281 6.47-9.357 6.71-40.116-11.316-40.281-23.263 0.013-20.359 30.705-13.88 40.062z" fill-rule="evenodd" fill="#ffffff"/>
  <path d="m63.157 126.08c4.54 1.47 13.896 0.05 18.922-4.34" fill="none"/>
  <path d="m104.21 120.22c4.2 6.19 12.47 4.1 16.45 3.07" fill="none"/>
  <path d="m92.565 3.7162c-7.105-0.3552-14.096 2.3556-16.938 8.7498-7.105 16.105-6.154 37.905-3.312 44.063 1.701-0.262 5.233-0.782 9.375-1.313-0.207-1.575-0.601-3.17-1.438-4.844-3.239-4.678-5.586-14.69-4.215-23.535 1.371-8.844 31.553-8.714 32.933 0.166 1.39 8.88-0.29 18.91-3.53 23.588-0.6 1.201-0.83 2.393-1 3.594 3.55 0.402 6.34 1.256 7.66 2.812 3.31-8.052 3.8-32.194-1.88-43.562-3.31-5.9208-10.55-9.3635-17.655-9.7188z" fill-rule="evenodd" fill="#999999"/>
 </g>
</svg>
