<?xml version="1.0" encoding="UTF-8" standalone="no"?>
<!DOCTYPE svg  PUBLIC '-//W3C//DTD SVG 20010904//EN'  'http://www.w3.org/TR/2001/REC-SVG-20010904/DTD/svg10.dtd'>
<svg xmlns:rdf="http://www.w3.org/1999/02/22-rdf-syntax-ns#" xmlns="http://www.w3.org/2000/svg" height="360pt" width="140pt" xmlns:xlink="http://www.w3.org/1999/xlink" xmlns:cc="http://web.resource.org/cc/" xmlns:dc="http://purl.org/dc/elements/1.1/">
 <g stroke="#000000" stroke-width="1pt">
  <g transform="translate(5 -17.5)">
   <path d="m89.312 34.053c-1.492-0.067-12.217-0.103-17.254 9.094-3.818 11.06-4.425 27.984 3.594 34.965 0.596 3.269 0.581 6.979-0.719 9.424-8.722 8.217-25.12 5.202-31.795 11.228-11.418 13.306-9.231 80.746-7.397 85.266-6.826 18.13 3.233 50.71 3.509 61 2.338 7-0.902 19.06 8.844 28.44-0.563-7.53-1.215-17.23-1.933-28s0.964-27.33 3.317-39.47c-0.946-5.42 2.207-16.55 0.053-21.58 4.444-7.91 5.219-36.68 1.938-48.42 5.351 12.23 8.314 34.95 8.955 44.71-23.836 33.3-13.463 104.55 1.201 153.7-10.992 39.69 0.58 69.46 1.375 91.71 5.743 2.88-6.527 18.3-4.281 20.44 4.307 5.03 16.606 3.66 19.187-0.22 1.344-2.64-2.087-8.72-1.156-13.03-0.306-4.31 0.062-12.88 0.062-16.47s9.021-60.35 3.719-75.59c1.679-4.9 3.889-13.96 1.75-21.66 1.397-6.87 4.374-77.41 3.657-83.87-0.017-0.15 0.128-2.09 0.124-2.38-0.005 0.19 0.106 1.65 0.094 1.75-0.718 6.47 3.577 69.94 1.438 76.82-2.139 7.69-1.679 23.81 0 28.71-5.744 8.62-0.719 68.92-0.719 72.5 0 3.59-1.851 14.35-2.156 18.66 0.931 4.31-2.063 11.73-0.719 14.38 2.581 3.88 16.19 3.9 20.5-1.13 2.25-2.14-10.462-17.53-4.719-20.41 0.799-22.25 14.169-51.59 10.689-90.84 14.66-49.15 24.59-120.4 2.97-153.25 0.64-9.76 6.25-33.37 7.18-45.15-1.95 11.3 0.56 42.24 5 50.15-2.15 5.03-1.17 13.98-2.12 19.41 2.35 10.37 3.56 28.7 2.84 39.47-0.71 10.77-1.78 20.87-2.34 28.4 9.75-9.37 6.47-21.41 8.81-28.4 0.28-10.3 12.58-42.91 5.75-61.03 1.84-4.53 3.11-64.87-5.22-77.29-6.67-9.116-24.84-11.404-33.559-19.621-1.3-2.445-1.315-7.512-0.719-10.781 8.018-6.981 7.408-21.222 3.598-32.282-4.387-8.004-8.814-9.146-13.348-9.353z" fill-rule="evenodd" fill="#ffffff"/>
   <path d="m65.849 233.95c14.142 5.3 21.214 1.33 21.214-6.63-0.442 10.17 11.048 10.17 19.447 7.51" fill="none"/>
  </g>
  <path d="m72.944 65.387c-3.316-8.052-3.789-32.209 1.895-43.577 6.631-11.842 28.891-13.736 34.581-0.947 7.1 16.104 6.15 37.893 3.31 44.05-6.16-0.947-34.576-5.684-39.786 0.474z" fill-rule="evenodd" fill="#999999"/>
 </g>
</svg>
