<?xml version="1.0" encoding="UTF-8" standalone="no"?>
<!DOCTYPE svg  PUBLIC '-//W3C//DTD SVG 20010904//EN'  'http://www.w3.org/TR/2001/REC-SVG-20010904/DTD/svg10.dtd'>
<svg xmlns:rdf="http://www.w3.org/1999/02/22-rdf-syntax-ns#" xmlns="http://www.w3.org/2000/svg" height="360pt" width="140pt" xmlns:xlink="http://www.w3.org/1999/xlink" xmlns:cc="http://web.resource.org/cc/" xmlns:dc="http://purl.org/dc/elements/1.1/">
 <g stroke="#000000" stroke-width="1pt">
  <g transform="translate(7.5 -20)">
   <path d="m89.312 34.053c-1.492-0.067-12.217-0.103-17.254 9.094-3.818 11.06-4.425 27.984 3.594 34.965 0.596 3.269 0.581 6.979-0.719 9.424-8.722 8.217-32.62 5.202-39.295 11.228-11.418 13.306-1.731 80.746 0.103 85.266-6.826 18.13 3.233 50.71 3.509 61 2.338 7-0.902 19.06 8.844 28.44-0.563-7.53-0.2-16.72-0.918-27.49 0.805-10.26-0.051-27.33 2.302-39.47-0.946-5.42 2.207-17.06 0.053-22.09 4.444-7.91 0.219-40.43-3.062-52.17 5.351 12.23 8.746 40.73 9.386 50.49-12.667 24.16-10.417 102.52-0.322 152.17-7.438 46.3 5.149 68.96 5.944 91.21 5.744 2.88-5.004 18.3-2.758 20.44 4.307 5.03 16.606 3.66 19.187-0.22 1.344-2.64-2.087-8.72-1.156-13.03-0.306-4.31 0.062-12.88 0.062-16.47s6.483-57.81 4.735-75.59c1.678-4.9 0.843-12.94 0.734-21.66 1.397-6.87 4.293-80.38 4.289-80.66-0.005 0.18 3.163 66.1 1.024 72.98-2.139 7.69-1.171 22.8-1.523 28.71-2.19 11.16 0.804 68.92 0.804 72.5 0 3.59-1.851 14.35-2.156 18.66 0.931 4.31-2.063 11.73-0.719 14.38 2.581 3.88 16.19 3.9 20.5-1.13 2.25-2.14-7.416-17.03-1.67-19.9 0.79-22.25 13.15-48.04 12.21-90.84 11.62-47.12 11.9-118.88 3.47-154.27 0.64-9.76 4.93-36.61 5.87-48.4-1.96 11.31-3.2 46 1.24 53.91-2.15 5.03-1.68 15-2.63 20.42 1.85 13.93 1.03 28.7 1.83 38.96-0.72 10.77-0.26 20.37-0.82 27.9 9.75-9.37 6.47-21.41 8.81-28.4 0.28-10.3 12.58-42.91 5.75-61.03 1.84-4.53 6.86-69.87-1.47-82.29-6.67-9.116-28.59-6.404-37.309-14.621-1.3-2.445-1.315-7.512-0.719-10.781 8.018-6.981 7.408-21.222 3.598-32.282-4.387-8.004-8.814-9.146-13.348-9.353z" fill-rule="evenodd" fill="#ffffff"/>
   <path d="m65.849 236.49c7.035 5.3 21.214 4.37 21.214-3.58-0.442 10.16 19.677 10.16 22.997 2.43" fill="none"/>
  </g>
  <path d="m75.542 31.681c0.764-28.031 38.068-25.5 38.268-2.274 0.4 1.841 0.5 3.78-0.41 4.948-2.48 2.886-5.62 10.79-5.62 13.677 0 2.886-26.335 3.485-26.747 1.836-0.413-1.649-2.262-9.558-4.636-11.489-0.812-0.994-1.05-4.367-0.855-6.698z" fill-rule="evenodd" fill-opacity=".94086" fill="#999999"/>
 </g>
</svg>
