<?xml version="1.0" encoding="UTF-8" standalone="no"?>
<!DOCTYPE svg  PUBLIC '-//W3C//DTD SVG 20010904//EN'  'http://www.w3.org/TR/2001/REC-SVG-20010904/DTD/svg10.dtd'>
<svg xmlns:rdf="http://www.w3.org/1999/02/22-rdf-syntax-ns#" xmlns="http://www.w3.org/2000/svg" height="360pt" width="140pt" xmlns:xlink="http://www.w3.org/1999/xlink" xmlns:cc="http://web.resource.org/cc/" xmlns:dc="http://purl.org/dc/elements/1.1/">
 <g fill-rule="evenodd" stroke="#000000" stroke-width="1pt">
  <path stroke-linejoin="round" d="m80.464 46.312c2.879 5.759 1.241 10.697 0.521 16.455-7.475 6.998-31.078 3.504-34.891 9.753-7.947 12.037-32.768 47.87-33.012 58.78 0.292 9.58 20.009 44.25 31.403 56.01 2.711 0.6 7.019 1.03 8.741-0.39 0.898-4.93 1.165-8.9 2.209-12.63-1.445-0.85-3.172-0.19-5.263-0.06-5.79-7.04-11.969-33.65-13.056-40.28 5.266-9.52 8.786-21.77 17.701-35.794 2.478 18.584 7.906 47.884 5.562 58.894-19.574 42.67 3.037 130.68 3.622 146.86-6.45 30.65 9.279 90.59 9.678 96.15-0.428 5.14-3.491 8.94-1.545 12.12-2.603 11.04-4.497 15.03-2.337 21.51 2.159 6.48 17.766 8.09 20.767 4.1 0.934-6.07-0.608-21.38-2.767-24.26 1.148-2.46 2.541-11.11 0.197-18.52-2.757-9.48 5.825-63.07-0.775-78.04 0.841-3.4 2.173-14.49 2.187-19.44-0.804-2.97 0.48-35.1 2-60.19 1.527 25.12 2.807 57.43 2 60.41-2.879 2.88 0.518 18.51 2.6 21.5-2.052 6.29 3.223 66.5 7.494 73.5-2.34 7.41 0.29 14.82 1.44 17.28-2.16 2.88-4.53 19.84-3.6 25.91 3 4 19.44 0.73 21.6-5.75s-0.98-8.4-3.58-19.44c1.94-3.19-0.74-10.7-1.17-15.84 0.4-5.56 8.72-58.48 2.27-89.96-1.06-14.53 25.84-107.34 3.9-147.96 0.91-12.1-0.43-42.54 2.15-60.036-0.72 6.476 2.52 48.076 7.21 60.426-3.17 15.23 1.75 57.89-1.13 62.21-1.23 5.14-1.41 13.64-1.95 20.15 3.6-2.16 3.05-4.59 5.24-3.18 2.6 5.13-5.81 10.99-5.84 15.54 5.75 0 16.48-7.22 12.34-31.38-0.02-9.69 15.98-62.05 8.29-75.02 2.65-8.42-3.77-60.692-8.82-71.075-3.81-6.249-28-3.814-35.47-10.813-0.72-5.758-3.6-11.522-0.72-17.281 6.47-9.357 6.71-40.116-11.316-40.281-23.263 0.0131-20.359 30.705-13.88 40.062z" fill="#ffffff"/>
  <path d="m91.781 3.6875c-7.44 0.3311-14.886 5.3164-18.031 16.938 0.478-0.24 0.894 0.12 1.54-0.061-0.657 2.69-0.276 5.571-0.276 5.571s1.054-0.404 1.861-0.48c-0.292-0.729 0.079-3.822 0.603-5.591 9.247-2.977 24.172-3.359 29.962 0.591 1.33 2.405 1.07 6.595 1.07 7.044 0.51-0.259 1.3 0.367 1.68-0.044 0-0.79 0.19-3.646-0.46-6.321 0.44 0.085 1.39 0.51 1.69 0.585-0.35-10.723-10.07-18.658-19.639-18.232z" fill="#999999"/>
 </g>
</svg>
