<?xml version="1.0" encoding="UTF-8" standalone="no"?>
<!DOCTYPE svg PUBLIC "-//W3C//DTD SVG 20010904//EN" "http://www.w3.org/TR/2001/REC-SVG-20010904/DTD/svg10.dtd">
<svg xmlns="http://www.w3.org/2000/svg" xmlns:xlink="http://www.w3.org/1999/xlink" height="400pt" width="400pt">
 <path stroke-linejoin="round" d="m12.723 111.04l475.3 13.63v220.84l-475.3 23.63 0.003-258.1z" fill-rule="evenodd" stroke="#000000" stroke-width="10" fill="#fffffffff"/>
 <g stroke-linejoin="round" stroke="#000000" stroke-width="10" fill="none">
  <path d="m14.091 111.02l245.91 165.23 226.59-152.84"/>
  <path d="m12.5 368.75s172.5-143.75 172.5-142.5v0"/>
  <path d="m485.68 345.3l-156.02-120.63" transform="matrix(1 0 0 .98261 0 6.3913)"/>
 </g>
 <g stroke-linejoin="round" stroke="#000000" stroke-width="10" fill="none">
  <path d="m201.25 141.25l72.5 0.63"/>
  <path d="m183.75 152.5h47.5"/>
  <path d="m105 131.25h132.5"/>
  <path d="m125 141.25h61.25"/>
  <path d="m110 153.75h41.25" transform=""/>
  <path d="m270 130l53.75-1.25" transform=""/>
  <path d="m347.5 128.75h15"/>
  <path d="m295 142.5c52.5-1.25 52.5-1.25 52.5 0"/>
  <path d="m260 150l52.5 1.25"/>
 </g>
 <path d="m17.267 255.54c0-6.36-5.453-125.41 6.361-138.14 21.811-4.54 216.29 4.55 229.01 5.46-68.16 7.27-242.64-33.629-235.37 132.68z" fill-opacity=".49630" fill-rule="evenodd" fill="#ffffff"/>
 <path fill-opacity="0.25" fill-rule="evenodd" d="m395.32 345.51c10.9 0 85.42-3.64 87.24-7.27 1.82-3.64 0.91-56.35 0-70.89-2.72 12.73 3.64 67.25-87.24 78.16z" fill="#000000"/>
 <rdf:RDF xmlns:rdf="http://www.w3.org/1999/02/22-rdf-syntax-ns#" xmlns="http://web.resource.org/cc/" xmlns:dc="http://purl.org/dc/elements/1.1/">
  <Work rdf:about="">
   <dc:title>Clipart by Nicu Buculei - book_01</dc:title>
   <dc:rights>
    <Agent>
     <dc:title>Nicu Buculei</dc:title>
    </Agent>
   </dc:rights>
   <dc:type rdf:resource="http://purl.org/dc/dcmitype/StillImage"/>
   <license rdf:resource="http://web.resource.org/cc/PublicDomain"/>
  </Work>
  <License rdf:about="http://web.resource.org/cc/PublicDomain">
   <permits rdf:resource="http://web.resource.org/cc/Reproduction"/>
   <permits rdf:resource="http://web.resource.org/cc/Distribution"/>
   <permits rdf:resource="http://web.resource.org/cc/DerivativeWorks"/>
  </License>
 </rdf:RDF>
</svg>
