<?xml version="1.0" encoding="UTF-8" standalone="no"?>
<!DOCTYPE svg PUBLIC "-//W3C//DTD SVG 20010904//EN" "http://www.w3.org/TR/2001/REC-SVG-20010904/DTD/svg10.dtd">
<svg xmlns="http://www.w3.org/2000/svg" xmlns:xlink="http://www.w3.org/1999/xlink" height="400pt" width="400pt">
 <g stroke-linejoin="round" stroke="#000000" fill-rule="evenodd">
  <path d="m177.5 471.25s-72.5-10-90-21.25-27.5-12.5-36.25-37.5c-2.5-27.5-10-41.25 0-60s33.75-35 48.75-51.25 167.5-127.5 177.5-132.5c5-1.25 17.5-11.25 38.75-15 20-2.5 38.75-6.25 65-6.25s55 8.75 71.25 13.75l16.25 5" transform="matrix(1.0901 0 0 1.1228 -42.914 -67.947)" stroke-width="11.299" fill="#9999cc"/>
  <path d="m163.75 348.75c15-16.25 180-157.5 228.75-171.25s71.25-20 80-7.5 17.5 30 17.5 41.25-3.75 46.25-3.75 46.25-283.75 207.5-290 208.75-13.75 13.75-25-2.5-26.25-22.5-26.25-52.5c3.75-35 6.25-50 18.75-62.5z" transform="matrix(1.0901 0 0 1.1228 -42.914 -67.947)" stroke-width="11.299" fill="#6699cc"/>
  <g stroke-width="9.0389">
   <path d="m186.18 233.64c2.5 0 78.82 28.86 78.82 28.86s73.75-56.25 105-75c33.75-11.25 87.5-23.75 87.5-23.75s-57.5-18.75-75-17.5c-5 0-75 6.25-85 11.25-15 5-110.07 77.4-111.32 76.14z" transform="matrix(1.0901 0 0 1.1228 -42.914 -67.947)" fill="#ff99cc"/>
   <path d="m265 263.75l92.5 87.5s79.37-57.77 128.65-93.61c9.69-24.59 3.85-42.64 2.6-52.64s-12.5-41.25-27.5-40c-22.5 0-68.75 10-101.25 25-30 21.25-97.5 76.25-95 73.75z" transform="matrix(1.0901 0 0 1.1228 -42.914 -67.947)" fill="#cc9999"/>
   <path d="m51.25 411.27l100.01 20.03 329.98-247.48s6.26 11.18 6.26 12.43-331.25 250-331.25 250l-100-21.25-5-13.73z" transform="matrix(1.0901 0 0 1.1228 -42.914 -67.947)" fill="#ffffff"/>
  </g>
 </g>
 <path stroke-linejoin="round" d="m150 435l7.5 12.5" transform="matrix(1.0901 0 0 1.1228 -42.914 -67.947)" stroke="#000000" stroke-width="9.0389" fill="none"/>
 <path fill-opacity="0.25" fill-rule="evenodd" d="m26.25 396.25c6.25-5 20-1.25 32.5-1.25s28.75 3.75 37.5 12.5 10 5 20 21.25 31.25 21.25 12.5 21.25-67.5-10-76.25-17.5-11.25-3.75-23.75-18.75c-11.25-32.5-2.5-16.25-2.5-17.5z" fill="#000000"/>
 <path d="m98.961 353.49c-30.845-2.57-64.26-6.43-80.968-20.57 5.141-14.14 125.95-116.95 125.95-116.95s-137.51 114.38-44.979 137.52z" fill-opacity="0.5" fill-rule="evenodd" fill="#ffffff"/>
 <rdf:RDF xmlns:rdf="http://www.w3.org/1999/02/22-rdf-syntax-ns#" xmlns="http://web.resource.org/cc/" xmlns:dc="http://purl.org/dc/elements/1.1/">
  <Work rdf:about="">
   <dc:title>Clipart by Nicu Buculei - book_01</dc:title>
   <dc:rights>
    <Agent>
     <dc:title>Nicu Buculei</dc:title>
    </Agent>
   </dc:rights>
   <dc:type rdf:resource="http://purl.org/dc/dcmitype/StillImage"/>
   <license rdf:resource="http://web.resource.org/cc/PublicDomain"/>
  </Work>
  <License rdf:about="http://web.resource.org/cc/PublicDomain">
   <permits rdf:resource="http://web.resource.org/cc/Reproduction"/>
   <permits rdf:resource="http://web.resource.org/cc/Distribution"/>
   <permits rdf:resource="http://web.resource.org/cc/DerivativeWorks"/>
  </License>
 </rdf:RDF>
</svg>
