<?xml version="1.0" encoding="UTF-8" standalone="no"?>
<!DOCTYPE svg  PUBLIC '-//W3C//DTD SVG 20010904//EN'  'http://www.w3.org/TR/2001/REC-SVG-20010904/DTD/svg10.dtd'>
<svg xmlns="http://www.w3.org/2000/svg" height="400pt" width="400pt" xmlns:xlink="http://www.w3.org/1999/xlink">
 <g stroke-linejoin="round" stroke="#000000" stroke-width="9.6416" fill-rule="evenodd">
  <path d="m159.81 75.949c8.7-2.373 21.36-2.373 45.09-3.164 23.74-1.583 119.47-2.374 128.17 2.373 10.29 3.165 8.7 291.14 6.33 322.78-2.38 31.65-3.96 46.68-4.75 49.05-59.07 3.96-116.56 4.75-177.21 0-4.75-26.1-15.83-326.74 2.37-371.04z" transform="matrix(1 0 0 1.0757 0 7.0348)" fill="#336666"/>
  <path d="m174.18 107.6c15.03-0.8 113 0 136.74 0 6.33 15.03 15.82 105.22 11.86 118.67-13.05 0.92-30.12 11.48-39.04 2.02-13.79-15.39-62.64-16.45-78.9-0.39-9.55 8.97-25.45-1.37-38.7-2.42 0-43.25 1.71-78.59 8.04-117.88z" transform="matrix(1 0 0 1.0757 0 7.0348)" fill="#996666"/>
  <path d="m184.34 124.21c-3.96 3.95-3.17 81.49 0 83.86 4.48 2.64 111.81 4.48 117.88 0.79 5.27-2.9 4.22-76.21 0-83.07-5.81-3.95-110.5-3.16-117.88-1.58z" transform="matrix(1 0 0 1.0757 0 7.0348)" fill="#999966"/>
 </g>
 <g stroke="#000000" fill-rule="evenodd" fill="#996666">
  <g stroke-width="6.8257">
   <path d="m174.05 271.36c3.96-3.96 40.35-3.16 43.51-0.79 3.96 5.54 2.38 30.85 0 32.44-2.63 3.16-40.08 3.16-43.51 0-2.37-5.81-1.58-28.22 0-31.65z" transform="matrix(1 0 0 .83844 -8.7025 87.658)"/>
   <path d="m174.05 271.36c3.96-3.96 40.35-3.16 43.51-0.79 3.96 5.54 2.38 30.85 0 32.44-2.63 3.16-40.08 3.16-43.51 0-2.37-5.81-1.58-28.22 0-31.65z" transform="matrix(1 0 0 .83844 48.259 87.658)"/>
   <path d="m174.05 271.36c3.96-3.96 40.35-3.16 43.51-0.79 3.96 5.54 2.38 30.85 0 32.44-2.63 3.16-40.08 3.16-43.51 0-2.37-5.81-1.58-28.22 0-31.65z" transform="matrix(1 0 0 .83844 105.22 88.321)"/>
   <path d="m174.05 271.36c3.96-3.96 40.35-3.16 43.51-0.79 3.96 5.54 2.38 30.85 0 32.44-2.63 3.16-40.08 3.16-43.51 0-2.37-5.81-1.58-28.22 0-31.65z" transform="matrix(1 0 0 .83844 -7.9114 133.43)"/>
   <path d="m174.05 271.36c3.96-3.96 40.35-3.16 43.51-0.79 3.96 5.54 2.38 30.85 0 32.44-2.63 3.16-40.08 3.16-43.51 0-2.37-5.81-1.58-28.22 0-31.65z" transform="matrix(1 0 0 .83844 49.051 133.43)"/>
   <path d="m174.05 271.36c3.96-3.96 40.35-3.16 43.51-0.79 3.96 5.54 2.38 30.85 0 32.44-2.63 3.16-40.08 3.16-43.51 0-2.37-5.81-1.58-28.22 0-31.65z" transform="matrix(1 0 0 .83844 106.01 134.09)"/>
   <path d="m174.05 271.36c3.96-3.96 40.35-3.16 43.51-0.79 3.96 5.54 2.38 30.85 0 32.44-2.63 3.16-40.08 3.16-43.51 0-2.37-5.81-1.58-28.22 0-31.65z" transform="matrix(1 0 0 .83844 -8.7025 178.53)"/>
   <path d="m174.05 271.36c3.96-3.96 40.35-3.16 43.51-0.79 3.96 5.54 2.38 30.85 0 32.44-2.63 3.16-40.08 3.16-43.51 0-2.37-5.81-1.58-28.22 0-31.65z" transform="matrix(1 0 0 .83844 48.259 178.53)"/>
   <path d="m174.05 271.36c3.96-3.96 40.35-3.16 43.51-0.79 3.96 5.54 2.38 30.85 0 32.44-2.63 3.16-40.08 3.16-43.51 0-2.37-5.81-1.58-28.22 0-31.65z" transform="matrix(1 0 0 .83844 105.22 179.2)"/>
  </g>
  <g stroke-width="6.026">
   <path stroke-linejoin="round" d="m206.09 234.57c6.73-12.26 24.92-15.42 36.79-14.63 15.03 0 27.69 0.79 34.41 9.49 4.75 28.48 0 41.53-9.09 43.51-7.92 3.96-42.73 5.15-47.87 1.98-10.68-2.37-16.22-13.45-14.24-40.35z" transform="matrix(1 0 0 1.0757 0 7.0348)"/>
   <path d="m285.21 265.43c-0.79-6.73 4.35-13.06 12.26-20.18s15.82-13.05 22.15-13.45c6.33-0.39 16.62 7.92 16.62 13.06 0 6.72-3.57 10.28-10.69 18.98-12.26 13.85-18.98 16.22-23.73 15.43-5.93-1.19-16.22-7.91-16.61-13.84z" transform="matrix(1 0 0 1.0757 0 7.0348)"/>
   <path stroke-linejoin="round" d="m285.21 265.43c-0.79-6.73 4.35-13.06 12.26-20.18s15.82-13.05 22.15-13.45c6.33-0.39 16.62 7.92 16.62 13.06 0 6.72-3.57 10.28-10.69 18.98-12.26 13.85-18.98 16.22-23.73 15.43-5.93-1.19-16.22-7.91-16.61-13.84z" transform="matrix(-1.8369e-16 -1.0757 1 -1.976e-16 -75.061 615.35)"/>
  </g>
 </g>
 <path stroke-linejoin="round" d="m288.61 69.956l33.74 1.436s-0.71-28.718-1.43-45.23c0.72-15.795-3.59-21.538-4.31-21.538-0.72-0.0002-22.26-0.0002-22.26-0.0002s-3.59 7.1792-3.59 17.948c-1.43 22.974-2.15 47.384-2.15 47.384z" fill-rule="evenodd" transform="matrix(1 0 0 1.0757 0 7.0348)" stroke="#000000" stroke-width="9.6416" fill="#336666"/>
 <path stroke-linejoin="round" d="m274.97 70.674s54.56 2.154 54.56 3.59 5.03-2.872 0-10.052c-7.18-5.025-36.61-7.897-48.82-3.589-6.46 7.897-5.74 11.487-5.74 10.051z" fill-rule="evenodd" transform="matrix(1 0 0 1.0757 0 7.0348)" stroke="#000000" stroke-width="9.6416" fill="#666666"/>
 <g stroke="#000000" stroke-width="3.75" fill="none">
  <path d="m197.5 147.5h76.25" transform="translate(0 7.385)"/>
  <path d="m201.25 215h37.5-37.5z" transform="translate(0 7.385)"/>
  <path d="m261.25 213.75h23.75" transform="translate(0 7.385)"/>
 </g>
 <path d="m223.75 262.5h33.56c1.25 0 0.91 11.25 0.19 11.25h-33.56l-0.19-11.25z" fill-rule="evenodd" transform="translate(0 7.385)" stroke-width="1pt" fill="#00ff00"/>
 <g stroke="#000000" fill="none">
  <g stroke-width="3.75">
   <path d="m324.51 258.06s-13.64 3.58-13.64 4.3 11.48 9.34 11.48 9.34l2.16-13.64z" transform="translate(0 7.385)"/>
   <path d="m297.23 289.64v-12.2l14.35 10.05-14.35 2.15z" transform="translate(0 7.385)"/>
   <path d="m178.05 262.36l-7.18 7.9 11.49 10.05 6.46-7.9" transform="translate(0 7.385)"/>
  </g>
  <g stroke-width="4.2476">
   <path d="m179.48 320.52l7.9-5.03v17.95" transform="matrix(1 0 0 .77941 0 75.328)"/>
   <path d="m233.33 316.21l2.15-4.31h15.08c-0.72 0-15.08 19.38-15.08 19.38l15.8-0.71" transform="matrix(1 0 0 .77941 0 75.328)"/>
   <path d="m293.64 314.77h16.51l-7.9 7.18 8.62 2.87v10.77s-5.03 2.87-5.75 2.87-12.92-0.71-12.92-0.71" transform="matrix(1 0 0 .77941 0 75.328)"/>
   <path d="m189.54 372.92s-10.77 13.65-11.49 13.65h12.2s0.72 7.89 0 7.89c-0.71 0-0.71-21.54-0.71-21.54z" transform="matrix(1 0 0 .77941 0 75.328)"/>
   <path d="m252.71 372.92l-13.64 0.72s-0.71 7.18 0 7.18c0.72 0 15.08 1.44 15.08 1.44s0.72 10.05 0 10.05-13.64 0.72-13.64 0.72" transform="matrix(1 0 0 .77941 0 75.328)"/>
   <path d="m308.71 375.08h-12.2v15.79h15.07v-7.89l-15.07-0.72" transform="matrix(1 0 0 .77941 0 75.328)"/>
  </g>
 </g>
 <g fill-rule="evenodd" stroke="#000000" stroke-width="6.8257" fill="#996666">
  <path d="m174.05 271.36c3.96-3.96 40.35-3.16 43.51-0.79 3.96 5.54 2.38 30.85 0 32.44-2.63 3.16-40.08 3.16-43.51 0-2.37-5.81-1.58-28.22 0-31.65z" transform="matrix(1 0 0 .83844 -8.7025 222.66)"/>
  <path d="m174.05 271.36c3.96-3.96 40.35-3.16 43.51-0.79 3.96 5.54 2.38 30.85 0 32.44-2.63 3.16-40.08 3.16-43.51 0-2.37-5.81-1.58-28.22 0-31.65z" transform="matrix(1 0 0 .83844 48.259 222.66)"/>
  <path d="m174.05 271.36c3.96-3.96 40.35-3.16 43.51-0.79 3.96 5.54 2.38 30.85 0 32.44-2.63 3.16-40.08 3.16-43.51 0-2.37-5.81-1.58-28.22 0-31.65z" transform="matrix(1 0 0 .83844 105.22 223.32)"/>
 </g>
 <g stroke="#000000" stroke-width="3.75" fill="none">
  <path d="m178.05 403.8h13.64l-0.72 17.94" transform="translate(0 7.385)"/>
  <path d="m233.33 403.8l16.51 0.71v9.34l-15.79-0.72-0.72-9.33z" transform="translate(0 7.385)"/>
  <path d="m234.05 413.13v8.61h16.51l-0.72-7.89" transform="translate(0 7.385)"/>
  <path d="m308 421.03v-16.52h-18.67s-0.72 8.62 0 8.62 18.67 0.72 18.67 0.72" transform="translate(0 7.385)"/>
  <path d="m308.71 421.74h-15.07" transform="translate(0 7.385)"/>
  <path d="m236.2 445.44l16.51 0.72v17.22l-17.23 0.72 0.72-18.66z" transform="translate(0 7.385)"/>
  <path d="m295.07 449.03v16.51h0.72" transform="translate(0 7.385)"/>
  <path d="m306.56 449.74v16.52" transform="translate(0 7.385)"/>
  <path d="m290.05 453.33c0.71 0 21.6 2.48 21.6 2.48" transform="translate(0 7.385)"/>
  <path d="m288.61 461.23l22.26 1.44" transform="translate(0 7.385)"/>
  <path d="m175.89 451.9l18.67 10.77s0 0.71-0.72 0.71" transform="translate(0 7.385)"/>
  <path d="m177.33 463.38l15.79-12.2" transform="translate(0 7.385)"/>
  <path d="m176.61 456.92h17.23" transform="translate(0 7.385)"/>
 </g>
 <path d="m191.05 203.91c-1.59-7.91-4.75-37.98 1.58-61.71 11.07-1.58 77.53 0 90.19 1.58-12.66 0-90.19 12.66-91.77 60.13z" fill-rule="evenodd" fill-opacity="0.5" transform="translate(0 3.635)" stroke-width="1pt" fill="#ffffff"/>
 <path d="m156.59 186.3c0-10.44 2.08-94.993 10.44-97.08 4.17-1.044 82.47-3.132 110.65-2.088-114.83 9.395-114.83-13.571-121.09 99.168z" fill-rule="evenodd" fill-opacity="0.5" transform="translate(0 3.635)" stroke-width="1pt" fill="#ffffff"/>
 <rdf:RDF xmlns:rdf="http://www.w3.org/1999/02/22-rdf-syntax-ns#" xmlns="http://web.resource.org/cc/" xmlns:dc="http://purl.org/dc/elements/1.1/">
  <Work rdf:about="">
   <dc:title>Clipart by Nicu Buculei - book_01</dc:title>
   <dc:rights>
    <Agent>
     <dc:title>Nicu Buculei</dc:title>
    </Agent>
   </dc:rights>
   <dc:type rdf:resource="http://purl.org/dc/dcmitype/StillImage"/>
   <license rdf:resource="http://web.resource.org/cc/PublicDomain"/>
  </Work>
  <License rdf:about="http://web.resource.org/cc/PublicDomain">
   <permits rdf:resource="http://web.resource.org/cc/Reproduction"/>
   <permits rdf:resource="http://web.resource.org/cc/Distribution"/>
   <permits rdf:resource="http://web.resource.org/cc/DerivativeWorks"/>
  </License>
 </rdf:RDF>
</svg>
