<?xml version="1.0" encoding="UTF-8" standalone="no"?>
<!DOCTYPE svg  PUBLIC '-//W3C//DTD SVG 20010904//EN'  'http://www.w3.org/TR/2001/REC-SVG-20010904/DTD/svg10.dtd'>
<svg xmlns="http://www.w3.org/2000/svg" height="400pt" width="400pt" xmlns:xlink="http://www.w3.org/1999/xlink">
 <path stroke-linejoin="round" d="m260.23 13.159c-6.41 0-13.12 0.111-19.88 0.34-13.52 0.459-27.12 1.37-38.62 2.782-11.5 1.411-20.07 2.293-27.81 6.86-15.93 9.41-27.53 20.095-29.93 37.116l-0.07 0.556v0.557l-1.04 256.16 20.93 0.07 1.04-255.43c1.72-11.368 6.38-15.157 20.69-23.608-0.12 0.074 8.58-2.64 19.05-3.924 10.47-1.285 23.57-2.156 36.56-2.596 12.99-0.441 25.92-0.432 36.11 0 5.09 0.216 9.51 0.534 12.77 0.927 3.25 0.393 5.69 1.223 4.74 0.803 12 6.113 17.15 6.902 24.66 20.953v372.46c0 18.65-3.6 24.43-7.57 31.09-15.48 8.12-24.72 12.96-58.71 16.26-23.73-0.46-41.51-1.38-51.14-3.8-4.88-1.23-7.35-2.7-8.37-3.74-1.03-1.05-1.6-1.97-1.43-5.23l0.03-0.58-0.03-0.59c-1.35-14.7-2.01-86.01-2.13-151.93-0.13-65.59 0.13-126.48 0.14-127.07 1.81-14.04 4.92-17.46 13.32-26.55 8.27-6.57 9.05-8.06 26.45-8.87l0.24-0.03h0.25c19.6-1.74 26.29-2.56 43.92 1.95 11.93 8.29 17.25 18.78 16.64 25.86-0.24 2.75-0.24 6.97-0.28 14.47-0.04 7.49-0.03 17.53 0 29.23 0.05 23.41 0.19 53.51 0.38 83.23 0.38 59.44 0.87 117.4 0.87 117.4l20.94-0.15s-0.5-57.96-0.88-117.38c-0.19-29.7-0.33-59.77-0.38-83.13-0.02-11.68-0.04-21.69 0-29.11s0.19-12.96 0.21-13.13c1.39-16-9.1-31.91-26.55-43.24l-1.46-0.96-1.71-0.46c-21.24-5.65-33.34-4.82-53.27-3.06-0.18 0.01-0.32 0.01-0.49 0.03-20.3 1.03-30.19 6.73-39.39 13.97l-0.63 0.49-0.52 0.56c-9.31 10.07-16.35 19.61-18.56 37.21l-0.04 0.49v0.5s-0.26 61.81-0.13 127.79c0.12 65.97 0.49 134.85 2.19 153.4-0.04 6.24 2 12.47 6.49 17.06 4.78 4.88 11.29 7.62 18.46 9.43 14.33 3.61 32.82 4.03 57.28 4.48l0.7 0.03 0.66-0.06c38.61-3.7 53.01-11.2 70.12-20.12l2.65-1.39 1.4-2.44c3.59-6.36 11.27-17.96 11.27-41.91v-374.74-2.01l-0.95-1.793c-10.04-19.767-23.38-25.327-34.71-31.182l-0.28-0.155-0.31-0.123c-3.99-1.769-7.08-2.09-11.27-2.596-4.18-0.506-9.11-0.848-14.62-1.082-5.5-0.233-11.59-0.34-18-0.34z" fill-rule="evenodd" stroke="#000000" stroke-width="10" fill="#999999"/>
 <g fill-opacity=".4" fill="#ffffff" fill-rule="evenodd">
  <path d="m149.75 53.789l-1.82 259s8.18 0.91 7.27 0 1.82-259.91 1.82-259.91 3.22-7.27 9.58-16.358c6.37-9.088-16.85 6.361-16.85 17.267z"/>
  <path d="m179.8 465l-2.73-291.72s9.09-24.51 17.27-29.96c5.45-5.45-13.64 23.6-12.73 31.78 0 4.54 3.64 289.9 3.64 289.9h-5.45z"/>
  <path d="m298.52 168.3l0.91 244.46 2.72 0.91 0.01-245.37h-3.64z"/>
  <path d="m325.81 51.971l1.82 384.41s0 10-3.64 15.46c-3.63 5.45-4.54 9.08-4.54 9.08s11.82-14.54 12.72-23.63c0.91-6.36-2.72-386.23 0-384.41l-6.36-0.909z"/>
 </g>
 <rdf:RDF xmlns:rdf="http://www.w3.org/1999/02/22-rdf-syntax-ns#" xmlns="http://web.resource.org/cc/" xmlns:dc="http://purl.org/dc/elements/1.1/">
  <Work rdf:about="">
   <dc:title>Clipart by Nicu Buculei - book_01</dc:title>
   <dc:rights>
    <Agent>
     <dc:title>Nicu Buculei</dc:title>
    </Agent>
   </dc:rights>
   <dc:type rdf:resource="http://purl.org/dc/dcmitype/StillImage"/>
   <license rdf:resource="http://web.resource.org/cc/PublicDomain"/>
  </Work>
  <License rdf:about="http://web.resource.org/cc/PublicDomain">
   <permits rdf:resource="http://web.resource.org/cc/Reproduction"/>
   <permits rdf:resource="http://web.resource.org/cc/Distribution"/>
   <permits rdf:resource="http://web.resource.org/cc/DerivativeWorks"/>
  </License>
 </rdf:RDF>
</svg>
