<?xml version="1.0" encoding="UTF-8" standalone="no"?>
<!DOCTYPE svg  PUBLIC '-//W3C//DTD SVG 20010904//EN'  'http://www.w3.org/TR/2001/REC-SVG-20010904/DTD/svg10.dtd'>
<svg xmlns="http://www.w3.org/2000/svg" height="400pt" width="400pt" xmlns:xlink="http://www.w3.org/1999/xlink">
 <path stroke-linejoin="round" d="m127.5 91.25c262.5 1.25 333.75 1.25 333.75 1.25l-88.75 296.25h-338.75l93.75-297.5z" fill-rule="evenodd" transform="translate(1.25 -18.75)" stroke="#000000" stroke-width="10" fill="#fffffffff"/>
 <g stroke="#000000" fill-rule="evenodd" fill="#999999">
  <path d="m301.25 111.25l140 1.25-15 48.75s-142.5 2.5-142.5 1.25 20-51.25 17.5-51.25z" transform="translate(3.75 -22.5)" stroke-width="3.75"/>
  <path stroke-linejoin="round" d="m32.5 388.75s-1.25 37.5 0 37.5 340 1.25 340 1.25v-38.75h-340z" transform="translate(3.75 -22.5)" stroke-width="10"/>
  <path stroke-linejoin="round" d="m461.25 93.75l1.25 116.25-18.75 60-2.5-33.75c-26.25 62.5-46.25 105-67.5 191.25l-1.25-38.75 88.75-295z" transform="translate(3.75 -22.5)" stroke-width="10"/>
 </g>
 <g stroke="#000000">
  <path stroke-linejoin="round" d="m141.25 108.75l93.75 1.25c-20 13.75-76.25 222.5-71.25 233.75 3.75 1.25-101.25 2.5-100 1.25 19.583-86.25 42.92-163.75 77.5-236.25z" transform="translate(3.75 -22.5)" stroke-width="10" fill="none"/>
  <path stroke-linejoin="round" d="m62.5 345v33.75h108.75l13.75-37.5-3.75-28.75c9.58-55.83 21.67-100.42 43.75-141.25l5 27.5 16.25-45-13.75-43.75c-35.83 77.08-52.92 146.67-70 235h-100z" fill-rule="evenodd" transform="translate(3.75 -22.5)" stroke-width="10" fill="#999999"/>
  <path d="m305 115c2.5 0 127.5 1.25 127.5 1.25l-11.25 40s-131.25 2.5-131.25 1.25 17.5-42.5 15-42.5z" fill-rule="evenodd" transform="translate(3.75 -22.5)" stroke-width="3.75" fill="#99cc99"/>
 </g>
 <g fill-rule="evenodd" stroke="#000000" stroke-width="7.1737" fill="#fffffffff">
  <path d="m407.5 190l-10 33.75-43.75 1.25 20-36.25 33.75 1.25z" transform="matrix(.97117 -.051417 .041264 .77940 21.048 19.747)"/>
  <path d="m353.75 225v10h46.25l15-33.75-6.25-11.25-13.75 35h-41.25z" transform="matrix(.97117 -.051417 .041264 .77940 21.048 19.747)"/>
  <path d="m407.5 190l-10 33.75-43.75 1.25 20-36.25 33.75 1.25z" transform="matrix(.97117 -.051417 .041264 .77940 -34.846 21.729)"/>
  <path d="m353.75 225v10h46.25l15-33.75-6.25-11.25-13.75 35h-41.25z" transform="matrix(.97117 -.051417 .041264 .77940 -34.846 21.729)"/>
  <path d="m407.5 190l-10 33.75-43.75 1.25 20-36.25 33.75 1.25z" transform="matrix(.97117 -.051417 .041264 .77940 -89.526 23.647)"/>
  <path d="m353.75 225v10h46.25l15-33.75-6.25-11.25-13.75 35h-41.25z" transform="matrix(.97117 -.051417 .041264 .77940 -89.526 23.647)"/>
  <path d="m407.5 190l-10 33.75-43.75 1.25 20-36.25 33.75 1.25z" transform="matrix(.97117 -.051417 .041264 .77940 2.7052 61.105)"/>
  <path d="m353.75 225v10h46.25l15-33.75-6.25-11.25-13.75 35h-41.25z" transform="matrix(.97117 -.051417 .041264 .77940 2.7052 61.105)"/>
  <path d="m407.5 190l-10 33.75-43.75 1.25 20-36.25 33.75 1.25z" transform="matrix(.97117 -.051417 .041264 .77940 -53.189 63.088)"/>
  <path d="m353.75 225v10h46.25l15-33.75-6.25-11.25-13.75 35h-41.25z" transform="matrix(.97117 -.051417 .041264 .77940 -53.189 63.088)"/>
  <path d="m407.5 190l-10 33.75-43.75 1.25 20-36.25 33.75 1.25z" transform="matrix(.97117 -.051417 .041264 .77940 -107.87 65.005)"/>
  <path d="m353.75 225v10h46.25l15-33.75-6.25-11.25-13.75 35h-41.25z" transform="matrix(.97117 -.051417 .041264 .77940 -107.87 65.005)"/>
  <path d="m407.5 190l-10 33.75-43.75 1.25 20-36.25 33.75 1.25z" transform="matrix(.97117 -.051417 .041264 .77940 -14.356 104.28)"/>
  <path d="m353.75 225v10h46.25l15-33.75-6.25-11.25-13.75 35h-41.25z" transform="matrix(.97117 -.051417 .041264 .77940 -14.356 104.28)"/>
  <path d="m407.5 190l-10 33.75-43.75 1.25 20-36.25 33.75 1.25z" transform="matrix(.97117 -.051417 .041264 .77940 -70.25 106.27)"/>
  <path d="m353.75 225v10h46.25l15-33.75-6.25-11.25-13.75 35h-41.25z" transform="matrix(.97117 -.051417 .041264 .77940 -70.25 106.27)"/>
  <path d="m407.5 190l-10 33.75-43.75 1.25 20-36.25 33.75 1.25z" transform="matrix(.97117 -.051417 .041264 .77940 -124.93 108.18)"/>
  <path d="m353.75 225v10h46.25l15-33.75-6.25-11.25-13.75 35h-41.25z" transform="matrix(.97117 -.051417 .041264 .77940 -124.93 108.18)"/>
  <path d="m407.5 190l-10 33.75-43.75 1.25 20-36.25 33.75 1.25z" transform="matrix(.97117 -.051417 .041264 .77940 -32.072 148.11)"/>
  <path d="m353.75 225v10h46.25l15-33.75-6.25-11.25-13.75 35h-41.25z" transform="matrix(.97117 -.051417 .041264 .77940 -32.072 148.11)"/>
  <path d="m407.5 190l-10 33.75-43.75 1.25 20-36.25 33.75 1.25z" transform="matrix(.97117 -.051417 .041264 .77940 -87.966 150.09)"/>
  <path d="m353.75 225v10h46.25l15-33.75-6.25-11.25-13.75 35h-41.25z" transform="matrix(.97117 -.051417 .041264 .77940 -87.966 150.09)"/>
  <path d="m407.5 190l-10 33.75-43.75 1.25 20-36.25 33.75 1.25z" transform="matrix(.97117 -.051417 .041264 .77940 -142.65 152.01)"/>
  <path d="m353.75 225v10h46.25l15-33.75-6.25-11.25-13.75 35h-41.25z" transform="matrix(.97117 -.051417 .041264 .77940 -142.65 152.01)"/>
 </g>
 <g stroke="#000000" stroke-width="6.25" fill="none">
  <path d="m202.5 352.5h162.5" transform="translate(3.75 -22.5)"/>
  <path d="m198.75 365h155" transform="translate(3.75 -22.5)"/>
  <path d="m193.75 375c3.75 0 148.75 1.25 148.75 1.25" transform="translate(3.75 -22.5)"/>
 </g>
 <g stroke-width="1pt" fill-rule="evenodd">
  <path d="m86.25 353.75l36.25-1.25v20l-13.75 8.75h-35l12.5-27.5z" transform="translate(3.75 -22.5)" stroke="#000000" fill="#000000"/>
  <path d="m103.75 378.75s-1.25 31.25-17.5 67.5c-13.75 5-18.75 13.75-33.75 17.5-18.75 2.5-35 1.25-40-12.5-6.25-15-11.25-20-6.25-45s6.25-40 22.5-62.5c17.5-22.5 25-28.75 25-28.75s-11.25 32.5-11.25 33.75-5 12.5-10 20-10 15-11.25 26.25-2.5 10-1.25 22.5-1.25 26.25 8.75 27.5 15 3.75 25 0c10-5 23.75-12.5 26.25-30s3.75-35 3.75-37.5 20 1.25 20 1.25z" transform="translate(3.75 -22.5)" stroke="#000000" fill="#000000"/>
  <path d="m78.895 296.43c-0.974-0.97 57.465-199.67 74.025-202.59 16.56-2.923 38.96 0.973 47.72 4.869-18.5 7.791-63.3 40.911-121.74 197.72z" fill-opacity=".49804" fill="#ffffff"/>
  <path d="m131.49 399.68s225 4.87 237.66-1.95c1.95-13.64 5.84-23.38 0-27.27-13.64 9.74-43.83 21.42-237.66 29.22z" fill-opacity="0.25"/>
 </g>
 <g fill-rule="evenodd" fill-opacity=".24706">
  <path d="m423.69 228.25c1.95-8.76 34.09-128.57 36.04-122.72 3.9 5.84 1.95 60.39 1.95 80.84-8.77-6.82 7.79-91.557-37.99 41.88z" stroke-width="6.25"/>
  <path d="m209.41 166.89s19.48-61.36 25.33-62.34c5.84-0.97 9.74 27.27 9.74 27.27s-5.85-23.37-35.07 35.07z" stroke-width="6.25"/>
  <path d="m179.22 283.77c-2.92 15.59-9.74 30.19-7.8 42.86 1.95 12.66 4.88 14.61 4.88 14.61 3.89-9.74 0.97-33.12 2.92-57.47z" stroke-width="1pt"/>
 </g>
 <rdf:RDF xmlns:rdf="http://www.w3.org/1999/02/22-rdf-syntax-ns#" xmlns="http://web.resource.org/cc/" xmlns:dc="http://purl.org/dc/elements/1.1/">
  <Work rdf:about="">
   <dc:title>Clipart by Nicu Buculei - book_01</dc:title>
   <dc:rights>
    <Agent>
     <dc:title>Nicu Buculei</dc:title>
    </Agent>
   </dc:rights>
   <dc:type rdf:resource="http://purl.org/dc/dcmitype/StillImage"/>
   <license rdf:resource="http://web.resource.org/cc/PublicDomain"/>
  </Work>
  <License rdf:about="http://web.resource.org/cc/PublicDomain">
   <permits rdf:resource="http://web.resource.org/cc/Reproduction"/>
   <permits rdf:resource="http://web.resource.org/cc/Distribution"/>
   <permits rdf:resource="http://web.resource.org/cc/DerivativeWorks"/>
  </License>
 </rdf:RDF>
</svg>
