<?xml version="1.0" encoding="UTF-8" standalone="no"?>
<!DOCTYPE svg  PUBLIC '-//W3C//DTD SVG 20010904//EN'  'http://www.w3.org/TR/2001/REC-SVG-20010904/DTD/svg10.dtd'>
<svg xmlns="http://www.w3.org/2000/svg" height="400pt" width="400pt" xmlns:xlink="http://www.w3.org/1999/xlink">
 <g stroke="#000000" fill-rule="evenodd">
  <path stroke-linejoin="round" d="m130.58 19.228c0.85 0 152.63 249.29 152.63 249.29s-45.79 26.28-44.94 26.28c0.84 0-125.5-194.17-107.69-275.57z" transform="matrix(-.97454 .22421 .22421 .97454 434.75 -39.908)" stroke-width="10" fill="#cccccc"/>
  <path stroke-linejoin="bevel" d="m267.37 300.28s-45.41 119.06-37 136.74c-0.37 10.78-33.8 59.45-55.41 59.92-18.64 1.18-79.937-13.48-70.11-73.75 11.69-61.99 61.96-40.5 81.83-42.83 19.88-2.33 53.66-79.18 30.22-95.57 26.16 6.88 49.81 17.27 50.47 15.49zm-89.36 88.18c-67.79-17.88-80.966 88.46-20.59 94.7 67.7 2.88 67.13-87.13 20.59-94.7z" stroke-width="10" fill="#333333"/>
  <path stroke-linejoin="bevel" d="m130.58 19.228c0.85 0 152.63 249.29 152.63 249.29s-45.79 26.28-44.94 26.28c0.84 0-125.5-194.17-107.69-275.57z" transform="matrix(.98459 .17488 -.17488 .98459 41.273 -35.371)" stroke-width="10" fill="#cccccc"/>
 </g>
 <g stroke="#000000" stroke-width="6.25" fill="none">
  <path d="m81.4 200.68c-15.262 0.85-17.806 24.59 0 25.44 16.959-0.85 16.959-25.44 0-25.44z" transform="translate(161.59 57.169)"/>
  <path d="m69.53 209.16c1.696 0 16.958 15.26 16.958 15.26" transform="translate(161.59 57.169)"/>
  <path d="m76.313 203.23c0.848 0 16.111 15.26 16.111 15.26" transform="translate(161.59 57.169)"/>
 </g>
 <g fill-rule="evenodd">
  <path d="m311.6 21.282c0.85 0-61.05 186.54-61.05 186.54s6.63 12.8 9.17 11.95c2.54-0.84 58.66-189.16 51.88-198.49z" fill-opacity=".75" stroke-width="1pt" fill="#ffffff"/>
  <path d="m236.86 262.03l3.53-4.95 16.24 15.53-3.95 4.1-15.82-14.68z" fill-opacity=".31852" transform="translate(-3.75 3.75)" stroke-width="1pt"/>
  <path stroke-linejoin="bevel" d="m319.25 379.54c66.8-21.27 85.32 84.27 25.33 93.53-67.47 6.29-71.43-83.63-25.33-93.53zm-93.68-83.57s51.34 116.61 43.83 134.7c0.91 10.75 36.75 57.67 58.36 57.06 18.67 0.23 79.15-17.5 66.31-77.19-14.8-61.33-63.92-37.34-83.89-38.66-19.97-1.33-57.57-76.38-34.98-93.93-25.79 8.19-48.88 19.76-49.63 18.02z" stroke="#000000" stroke-width="10" fill="#333333"/>
 </g>
 <rdf:RDF xmlns:rdf="http://www.w3.org/1999/02/22-rdf-syntax-ns#" xmlns="http://web.resource.org/cc/" xmlns:dc="http://purl.org/dc/elements/1.1/">
  <Work rdf:about="">
   <dc:title>Clipart by Nicu Buculei - book_01</dc:title>
   <dc:rights>
    <Agent>
     <dc:title>Nicu Buculei</dc:title>
    </Agent>
   </dc:rights>
   <dc:type rdf:resource="http://purl.org/dc/dcmitype/StillImage"/>
   <license rdf:resource="http://web.resource.org/cc/PublicDomain"/>
  </Work>
  <License rdf:about="http://web.resource.org/cc/PublicDomain">
   <permits rdf:resource="http://web.resource.org/cc/Reproduction"/>
   <permits rdf:resource="http://web.resource.org/cc/Distribution"/>
   <permits rdf:resource="http://web.resource.org/cc/DerivativeWorks"/>
  </License>
 </rdf:RDF>
</svg>
