<?xml version="1.0" encoding="UTF-8" standalone="no"?>
<!DOCTYPE svg PUBLIC "-//W3C//DTD SVG 20010904//EN" "http://www.w3.org/TR/2001/REC-SVG-20010904/DTD/svg10.dtd">
<svg xmlns="http://www.w3.org/2000/svg" xmlns:xlink="http://www.w3.org/1999/xlink" height="400pt" width="400pt">
 <g stroke-linejoin="bevel" stroke="#000000" fill-rule="evenodd">
  <path d="m296.98 150.87l-197.1 225.39 154.68-0.89 90.16-223.62-47.74-0.88z" transform="matrix(1.2449 0 0 1.138 -24.918 -67.185)" stroke-width="3.1505" fill="#ff0000"/>
  <path d="m98.995 376.26s-14.142 15.02-17.678 35.35l184.73 2.65 85.74-256.32s-1.77-4.42-7.07-5.31c-2.66 5.31-90.16 223.63-90.16 223.63h-155.56z" transform="matrix(1.2449 0 0 1.138 -24.918 -67.185)" stroke-width="8.4013" fill="#ff0000"/>
  <path d="m112.1 370.95l40.29-47.73h117.19l-19.44 47.73h-138.04z" transform="matrix(1.2449 0 0 1.138 -24.918 -67.185)" stroke-width="8.4013" fill="#cccccc"/>
  <path d="m331.46 160.59l-117.56 150.26-0.88-87.51 112.25-83.96s12.37-7.96 6.19 21.21z" transform="matrix(1.2449 0 0 1.138 -24.918 -67.185)" stroke-width="5.2508" fill="#ff0000"/>
  <path d="m212.13 223.34l-110.48 0.89 177.66-88.39s38.89-6.19 49.49 1.77c-0.88-2.65-116.67 87.5-116.67 85.73z" transform="matrix(1.2449 0 0 1.138 -24.918 -67.185)" stroke-width="8.4013" fill="#ff0000"/>
 </g>
 <g stroke="#000000">
  <path stroke-linejoin="bevel" d="m213.9 310.85l-112.25-1.77v-84.85h110.48l1.77 86.62z" transform="matrix(1.2449 0 0 1.138 -24.918 -67.185)" stroke-width="3.1505" fill="none"/>
  <path stroke-linejoin="round" d="m106.07 309.08v20.33h99.87l81.32-111.37s-72.48 91.92-73.36 91.92-107.83 0.89-107.83-0.88z" fill-rule="evenodd" transform="matrix(1.2449 0 0 1.138 -24.918 -67.185)" stroke-width="8.4013" fill="#cccccc"/>
  <g stroke-linejoin="bevel">
   <path d="m304.94 194.18l0.88 24.74 25.64-47.72-1.77-9.73-24.75 32.71z" transform="matrix(1.2449 0 0 1.138 -24.918 -67.185)" stroke-width="5.2508" fill="none"/>
   <path d="m305.96 219.06l-8.09-0.14v-16.79l7.07-7.95 1.02 24.88z" fill-rule="evenodd" transform="matrix(1.2449 0 0 1.138 -24.918 -67.185)" stroke-width="5.2508" fill="#660000"/>
   <path d="m94.774 308.61l117.94 1.53 21.32-25.9s19.29-58.88 22.85-62.44c1.77-1.77 9.74-19.27 10.21-19.35 0.64-0.21 1.97-20.75 1.97-20.75-5.59-1.02-85.48-6.02-85.48-5.51s-88.298 43.15-88.298 43.15l-0.508 89.27z" fill-rule="evenodd" transform="matrix(1.2449 0 0 1.138 -24.918 -67.185)" stroke-width="8.4013" fill="#ff0000"/>
  </g>
 </g>
 <g stroke="#000000" fill="none">
  <path stroke-linejoin="bevel" d="m135.54 357.86c6.1 0.5 29.45 1.52 33.51 1.01 9.14-3.05-41.63-6.6-33.51-1.01z" transform="matrix(1.2449 0 0 1.138 -10.382 -66.03)" stroke-width="3.1505"/>
  <path stroke-linejoin="bevel" d="m135.54 357.86c6.1 0.5 29.45 1.52 33.51 1.01 9.14-3.05-41.63-6.6-33.51-1.01z" transform="matrix(1.2449 0 0 1.138 49.026 -66.607)" stroke-width="3.1505"/>
  <g stroke-width="6.25">
   <path d="m156.97 286.09v20.01l11.54 0.76v-21.54l-11.54 0.77z"/>
   <path d="m106.96 185.29s130.8 3.08 130.8 2.31 61.56-38.48 61.56-38.48"/>
   <path d="m237.76 187.6l0.77 89.26"/>
  </g>
 </g>
 <g fill-rule="evenodd" stroke-width="1pt" fill="#ffffff">
  <path d="m207.76 182.98c-18.47 1.54-85.42 0-100.04-2.31 10.78-3.85 60.79-27.7 70.8-26.93-28.48 14.62 3.84 26.16 29.24 29.24z" fill-opacity="0.5"/>
  <g fill-opacity=".49804">
   <path d="m287.78 107.57s-39.24 19.24-49.24 23.09c23.08-0.77 37.7 5.38 54.63 2.3-16.16-4.61-16.16-17.69-5.39-25.39z"/>
   <path d="m144.66 366.11c-3.08-0.77-36.74 2.21-42.9 4.52-6.155 6.93-28.469 24.53-3.077 24.53 104.07-1.15-69.443-5.96 45.977-29.05z"/>
   <path d="m163.13 191.44c-1.54 0-52.72-5.32-63.869-1.53-3.847 20.77-2.308 72.33-1.539 87.71 19.238-71.56 43.858-83.87 65.408-86.18z"/>
  </g>
 </g>
 <path d="m240.84 265.31c3.08-1.54-2.31-57.71 1.54-76.94 16.93-11.55 33.86-20.78 53.86-33.86-43.86 36.17-43.09 75.41-55.4 110.8z" fill-rule="evenodd" fill-opacity="0.25" stroke-width="1pt" fill="#000000"/>
 <g fill-rule="evenodd" stroke-width="1pt" fill-opacity=".24706">
  <path d="m314.71 158.36c16.93-26.93 28.47-26.93 60.79-59.251-32.32 25.391-70.79 38.471-60.79 59.251z"/>
  <path d="m358.57 156.05c0-0.77 18.47-24.62 20.78-24.62-11.55 15.39-23.09 53.09-20.78 24.62z"/>
  <path d="m300.86 396.12c-3.08-13.85-3.08-34.62 1.54-45.4 4.62-10.77 100.8-235.45 102.34-235.45-7.7 28.47-63.1 150.04-103.88 280.85z"/>
  <path d="m252.3 308.09s41.55-3.84 46.94 0.77c0.76 8.47-16.93 38.48-16.93 36.94 15.39-30.01-6.93-39.25-30.01-37.71z"/>
 </g>
 <g stroke-width="1pt" fill-rule="evenodd">
  <path d="m166.42 309.46c-4.62 5.39-34.62 33.86-31.55 37.7 3.08 2.31 17.7-0.77 40.02 1.54-2.31-3.85-53.1 5.39-8.47-39.24z" fill-opacity="0.5" fill="#ffffff"/>
  <path d="m140.11 294.64c0.39-1.58-23.86-5.39-26.16-0.77-2.31 4.62 1.16 5.61 0.39 6.38s-1.93-4.84 25.77-5.61z" fill-opacity=".49804" fill="#ffffff"/>
  <path d="m232.38 301.48c-0.77 3.84-4.62-6.16 0.77-11.54 5.38-5.39 16.93-9.24 16.93-9.24-0.77 0-16.16 12.31-17.7 20.78z" fill-opacity=".24706"/>
 </g>
 <rdf:RDF xmlns:rdf="http://www.w3.org/1999/02/22-rdf-syntax-ns#" xmlns="http://web.resource.org/cc/" xmlns:dc="http://purl.org/dc/elements/1.1/">
  <Work rdf:about="">
   <dc:title>Clipart by Nicu Buculei - book_01</dc:title>
   <dc:rights>
    <Agent>
     <dc:title>Nicu Buculei</dc:title>
    </Agent>
   </dc:rights>
   <dc:type rdf:resource="http://purl.org/dc/dcmitype/StillImage"/>
   <license rdf:resource="http://web.resource.org/cc/PublicDomain"/>
  </Work>
  <License rdf:about="http://web.resource.org/cc/PublicDomain">
   <permits rdf:resource="http://web.resource.org/cc/Reproduction"/>
   <permits rdf:resource="http://web.resource.org/cc/Distribution"/>
   <permits rdf:resource="http://web.resource.org/cc/DerivativeWorks"/>
  </License>
 </rdf:RDF>
</svg>
