<?xml version="1.0" encoding="UTF-8" standalone="no"?>
<svg xmlns:rdf="http://www.w3.org/1999/02/22-rdf-syntax-ns#" xmlns="http://www.w3.org/2000/svg" sodipodi:docname="adventurer_hat.svg" height="128px" sodipodi:version="0.32" width="128px" xmlns:cc="http://web.resource.org/cc/" xmlns:dc="http://purl.org/dc/elements/1.1/" sodipodi:docbase="/home/nicu/Desktop" xmlns:sodipodi="http://inkscape.sourceforge.net/DTD/sodipodi-0.dtd">
 <sodipodi:namedview bordercolor="#666666" pagecolor="#ffffff" borderopacity="1.0"/>
 <g transform="translate(-1 4)" fill-rule="evenodd">
  <path d="m60.031 13.344c-4.503 1.555-9.469-2.203-13.828 1.347-9.38 6.227-8.538 19.35-10.172 29.309-3.283 1.987-0.793 6.417-3.312 9.125 1.329 5.158-4.225 4.833-7.969 5.625-6.81 1.633-14.651 0.209-20.531 4.594 0.9693 11.441 14.124 15.448 23.453 18.208 25.753 6.393 53.143 7.603 79.248 2.584 8.03-1.781 19.84-5.281 19.46-15.448-1.85-9.778-14.08-12.205-22.44-10.344-4.267-10.027-2.8-21.352-6.471-31.563-6.614-14.084-23.885-15.738-37.438-13.437z"/>
  <path d="m100.81 59.125c-19.775 6.183-67.271 8.68-91.31 3.687-1.6649 0.369-2.8539 0.819-3.0938 1.5 0.6793 24.113 112.43 28.19 117.53 7.813 3.05-7.981-8.34-15.111-22.1-11.375-0.38-0.135-0.73-0.742-1.03-1.625z" fill="#333300"/>
  <path d="m67.781 14.5c-5.774 0.26-10.415 1.368-11.625 1.75-1.188-0.679-2.904-2.044-7.281-0.656-10.726 2.791-10.012 26.195-11.937 37.906 20.47-1.507 43.369-0.27 63.122 2.469-1.391-7.856-2.03-23.09-4.31-28.157-5.519-11.78-18.346-13.745-27.969-13.312z" fill="#663300"/>
  <path d="m47.314 56.526c-5.871 0.102-9.908 0.411-10.673 0.962-0.162 0.117-0.385 0.235-0.629 0.353-0.075 0.215-0.139 0.475-0.22 0.667-8.899 3.899-27.884 3.515-29.152 5.457 31.615 10.086 92.146-1.19 96.79-3.488 0.78-3.417-42.261-4.194-56.116-3.951z" sodipodi:nodetypes="csccccc" fill="#996633"/>
  <path d="m47.314 56.054c-5.871 0.103-9.908 0.411-10.673 0.963-0.162 0.117-0.385 0.235-0.629 0.353-0.075 0.214-0.139 0.475-0.22 0.667-8.899 3.899-24.135 3.431-28.319 5.374 35.102 9.88 98.657-3.934 95.797-3.156 0.19-3.25-42.101-4.443-55.956-4.201z" sodipodi:nodetypes="csccccc" fill="#993300"/>
  <path d="m50.567 15.416c9.283 7.585-0.962 28.924-4.754 33.452-6.793 9.509 22.754 8.83 20.886 0.849-9.679-4.415-9.849-16.132-9.509-31.754-1.564-1.677-3.736-0.509-6.623-2.547z" sodipodi:nodetypes="ccccc" fill="#330000"/>
  <path d="m36.473 46.107c19.471-13.867 47.773-0.522 62.999 5.308 1.108 1.093 3.858 8.273 3.148 8.146-13.568-2.222-54.437-3.886-67.513-1.169-0.594 0.255-1.166-5.34 0.39-6.531 1.843-1.582-0.135-4.38 0.976-5.754z" sodipodi:nodetypes="cccccc"/>
  <path d="m63.306 27.506c-2.206-19.966 25.881-11.956 25.898 6.262-3.778-10.511-21.176-18.752-25.898-6.262z" sodipodi:nodetypes="ccc" fill="#663300"/>
  <path d="m50.719 17.344c-4.564 0.276-9.828 13.812-8.383 13.437 2.428-7.646 9.721-14.5 10.135-4.618 0.847-2.757 1.417-7.389-1.752-8.819z" sodipodi:nodetypes="cccc" fill="#663300"/>
 </g>
</svg>
