<?xml version="1.0" encoding="UTF-8" standalone="no"?>
<!DOCTYPE svg  PUBLIC '-//W3C//DTD SVG 20010904//EN'  'http://www.w3.org/TR/2001/REC-SVG-20010904/DTD/svg10.dtd'>
<svg xmlns:rdf="http://www.w3.org/1999/02/22-rdf-syntax-ns#" xmlns="http://www.w3.org/2000/svg" height="80pt" width="80pt" xmlns:xlink="http://www.w3.org/1999/xlink" xmlns:ns="http://web.resource.org/cc/" xmlns:dc="http://purl.org/dc/elements/1.1/">
 <g fill-rule="evenodd" transform="matrix(.99368 -.11220 .11220 .99368 -3.8209 2.5008)">
  <path d="m44.405 63.57l-34.105 29.454c-3.6758 3.281-1.8798 6.996 2.128 3.715 1.448-1.313 35.019-29.293 36.374-30.243 2.47-1.934-2-5.961-4.397-2.926z" stroke="#000000" stroke-width="1pt" fill="#ffffff"/>
  <path d="m9.2165 97.504l1.6495 0.206 36.699-30.101-2.062-1.65-36.286 31.545z" fill-opacity=".1"/>
 </g>
 <g fill-rule="evenodd">
  <path d="m46.343 66.211c-11.361-7.531-20.496-17.643-18.123-34.2 2.696-18.813 20.799-31.396 38.872-28.607 20.275 3.1284 33.748 23.565 30.563 43.996-3.542 22.682-34.276 38.157-51.312 18.811z" fill="#ff6666"/>
  <path d="m63.028 38.736c0.433 11.457-12.091 14.477-16.066 13.162-1.929 3.599-9.708 3.033-13.019 2.804-3.272-4.663-4.943-10.208-5.462-14.859 2.762 2.43 10.727 3.817 14.116 4.89 4.898-1.493 10.646-4.222 16.639-5.214-1.959-4.572 3.823-4.381 3.792-0.783z" fill="#ffffff"/>
  <path d="m62.226 39.19c-0.518 11.594-11.818 13.118-15.793 11.802-1.93 3.6-10.525 2.081-13.836 1.852-2.183-3.71-2.766-6.399-3.966-10.914 2.763 2.429 10.728 2.865 14.116 3.938 4.898-1.493 11.326-4.631 17.319-5.622-1.958-4.572 2.191-4.654 2.16-1.056z" fill="#ff0033"/>
  <path d="m57.771 33.384c-7.89 1.224-13.603 0.272-17.275-1.496-5.305-1.225-8.842-4.353-10.202-7.074 1.496-3.4 4.353-7.345 7.617-11.29 3.809 2.313 3.401 5.033 7.618 8.978 4.216 3.945 12.106 6.801 15.914 8.705 1.225 1.225-1.768 4.217-3.672 2.177z" fill="#ffffff"/>
  <path d="m58.152 32.593c-7.889 1.224-13.874 0.272-17.547-1.496-5.304-1.224-8.569-4.353-9.929-7.073 1.496-3.401 2.856-5.441 6.121-9.386 3.808 2.312 4.08 4.761 8.297 8.705 4.217 3.945 11.154 6.122 14.963 8.026 1.224 1.224 0 3.264-1.905 1.224z" fill="#ff0033"/>
  <path d="m64.44 31.553c-0.816-4.081-0.544-10.882 1.905-16.731 1.088-2.993-0.136-6.3932 3.264-10.202 2.993 0.2722 15.915 7.753 16.323 9.386 0.408 1.632-6.393 7.345-7.753 8.025s-8.026 3.809-8.298 15.371c0 0.544-4.488-6.257-5.441-5.849z" fill="#ffffff"/>
  <path d="m65.634 32.865c-0.816-4.081-0.816-12.242 1.632-18.091 1.088-2.993 0.544-6.1211 3.945-9.9297 2.992 0.272 13.466 6.6647 13.874 8.2977 0.408 1.632-6.121 7.209-7.481 7.889s-8.162 3.945-8.434 15.507c0 0.544-2.584-4.081-3.536-3.673z" fill="#ff0033"/>
  <path d="m69.576 42.721c4.897-2.449 15.643-3.673 17.547-1.905 3.401-0.408 9.93-3.672 10.066-0.68 0.408 4.761-2.993 17.003-4.489 18.363-2.04 0.136-5.849-5.577-8.569-3.808 0-2.313-9.658-5.985-17.275-4.761-1.633-1.088-1.497-6.393 2.72-7.209z" fill="#ffffff"/>
  <path d="m69.714 43.611c4.897-2.448 15.371-3.401 17.275-1.632 3.401-0.408 10.202-3.265 10.338-0.272 0.408 4.76-2.584 14.282-4.08 15.642-2.041 0.136-5.849-5.441-8.57-3.672 0-2.313-9.522-5.713-17.139-4.489-1.224-0.952-2.04-4.761 2.176-5.577z" fill="#ff0033"/>
  <path d="m62.083 54.438c2.04 0.272 6.529 6.257 5.441 11.018 2.176 2.585 3.264 7.21 0.544 8.842-2.993 0.952-14.691-1.36-15.099-3.537-0.408-2.176 0.816-2.72 1.904-3.808 2.041-2.721 1.361-7.482 0.681-10.474 0.816-2.449 3.944-3.673 6.529-2.041z" fill="#ffffff"/>
  <path d="m61.553 54.901c2.04 0.272 6.393 5.577 5.305 10.338 2.176 2.584 2.856 7.481 0.136 9.113-2.993 0.952-12.65-1.088-13.058-3.264-0.408-2.177 0.272-2.585 1.36-3.673 2.04-2.72 2.04-7.753 1.36-10.746 0.816-2.448 2.313-3.4 4.897-1.768z" fill="#ff0033"/>
 </g>
 <path d="m62.908 35.953c1.809 5.848-6.753 3.317-7.183 2.116-1.164-3.252 2.119-6.056 4.997-6.337 5.148-0.501 8.924 4.504 8.89 9.415-0.05 7.208-6.554 15.79-13.26 15.41-8.937-0.507-17.555-12.557-16.782-21.359 0.973-11.077 12.879-22.549 23.378-21.39 12.716 1.405 26.032 18.767 24.468 31.448-1.843 14.944-20.033 23.977-34.321 22.009-16.495-2.273-27.517-18.794-25.144-35.351 2.697-18.813 20.799-31.397 38.872-28.608 20.276 3.1292 33.757 23.566 30.563 43.997-3.542 22.682-34.276 39.504-51.12 18.041" stroke="#000000" stroke-width="1.25" fill="none"/>
 <path d="m81.767 11.566c4.061 26.905-40.359-6.3462-46.958 39.851-18.022-10.661 6.345-67.011 46.958-39.851z" fill-opacity=".5" fill-rule="evenodd" fill="#ffffff"/>
 <rdf:RDF xmlns:rdf="http://www.w3.org/1999/02/22-rdf-syntax-ns#" xmlns="http://web.resource.org/cc/" xmlns:dc="http://purl.org/dc/elements/1.1/">
  <Work rdf:about="">
   <dc:title>Candy</dc:title>
   <dc:rights>
    <Agent>
     <dc:title>Nicu Buculei</dc:title>
    </Agent>
   </dc:rights>
   <dc:type rdf:resource="http://purl.org/dc/dcmitype/StillImage"/>
   <license rdf:resource="http://web.resource.org/cc/PublicDomain"/>
  </Work>
  <License rdf:about="http://web.resource.org/cc/PublicDomain">
   <permits rdf:resource="http://web.resource.org/cc/Reproduction"/>
   <permits rdf:resource="http://web.resource.org/cc/Distribution"/>
   <permits rdf:resource="http://web.resource.org/cc/DerivativeWorks"/>
  </License>
 </rdf:RDF>
</svg>
