<?xml version="1.0" encoding="UTF-8" standalone="no"?>
<!DOCTYPE svg  PUBLIC '-//W3C//DTD SVG 20010904//EN'  'http://www.w3.org/TR/2001/REC-SVG-20010904/DTD/svg10.dtd'>
<svg xmlns:rdf="http://www.w3.org/1999/02/22-rdf-syntax-ns#" xmlns="http://www.w3.org/2000/svg" height="80pt" width="80pt" xmlns:xlink="http://www.w3.org/1999/xlink" xmlns:ns="http://web.resource.org/cc/" xmlns:dc="http://purl.org/dc/elements/1.1/">
 <g stroke="#000000" fill-rule="evenodd">
  <path stroke-linejoin="round" d="m37.469 63.311l-24.416 30.737c-2.077 3.272 1.163 6.412 4.417 3.785 1.865-2.168 26.823-26.179 27.027-28.511 0.204-2.333-5.191-6.859-7.028-6.011z" stroke-width="1.25" fill="#ffccff"/>
  <path stroke-linejoin="round" d="m34.708 57.647c-8.371-8.949-8.31-31.131 9.381-42.536 16.887-8.9391 35.65-0.782 41.833 13.397 9.026 16.073-4.575 40.852-21.729 43.318-10.454 0.925-15.872-2.78-18.016-0.006-2.145 2.774-3.16-0.302-3.16 3.089 0 3.39-1.072 4.315-1.072 4.315s-2.413-0.308-1.608-2.774c0.804-2.466-0.268-3.391-3.753-3.699s-12.33-4.007-7.505-4.624c4.825-0.616 8.577-2.466 5.629-10.48z" stroke-width="1.25" fill="#ff0000"/>
  <path d="m83.46 21.924c0.359 2.154 0.359 4.129-1.974 3.59-2.334-0.538-2.334-0.538-2.334-0.538" stroke-width="1pt" fill="#ff0000"/>
 </g>
 <g stroke="#000000" stroke-width="1.25" fill="none">
  <path d="m32.738 71.871c3.801 0.767 7.813-3.325 10.347-5.627 4.012 1.278 22.595 6.394 27.03-10.487"/>
  <path d="m40.762 74.94c-0.844-5.883 2.957-6.139 2.957-6.139"/>
  <path d="m32.738 67.267c4.012-3.07 7.18-2.814 7.18-2.814"/>
 </g>
 <g fill-rule="evenodd">
  <path d="m33.749 51.659c-0.084-38.362 47.536-21.758 36.555-34.547-14.591-9.3426-45.677 4.846-36.555 34.547z" fill-opacity=".75" fill="#ffffff"/>
  <path d="m16.286 98.324l24.057-24.235-3.812-1.585-20.245 25.82z" fill-opacity="0.15"/>
  <path d="m78.076 16.719s-0.898-1.794-2.513-1.256c-1.616 0.538-2.513 1.077-1.616 3.231 0.898 2.154 0.898 2.512 0.898 2.512" stroke="#000000" stroke-width="1pt" fill="#ff0000"/>
  <path stroke-linejoin="round" d="m76.776 17.895l3.395-12.538c0 0.0001 3.82 2.0896 4.881 4.4114 1.061 2.3216 0.424 7.4296 3.395 6.7326 2.971-0.696 6.791 3.947 7.852 6.037-2.334 2.554-7.003-1.161-14.642 0.464-2.547-0.232-5.305-3.018-4.881-5.107z" stroke="#000000" stroke-width="1.25" fill="#ff0000"/>
 </g>
 <g stroke-width="1pt" stroke="#000000" fill="none">
  <path stroke-linejoin="round" d="m85.793 12.95c-0.179 5.923-4.487 8.436-7.358 8.436"/>
  <path stroke-linejoin="round" d="m82.024 6.6683s1.616 5.3847-0.538 7.7177"/>
  <path d="m93.691 19.412s-6.462 0-8.257 1.436"/>
 </g>
 <path d="m80.588 6.4888c0.718 2.1538-0.179 13.102-2.871 13.102-0.718-1.256 2.333-10.948 2.871-13.102z" fill-opacity=".75" fill-rule="evenodd" fill="#ffffff"/>
 <rdf:RDF xmlns:rdf="http://www.w3.org/1999/02/22-rdf-syntax-ns#" xmlns="http://web.resource.org/cc/" xmlns:dc="http://purl.org/dc/elements/1.1/">
  <Work rdf:about="">
   <dc:title>Candy</dc:title>
   <dc:rights>
    <Agent>
     <dc:title>Nicu Buculei</dc:title>
    </Agent>
   </dc:rights>
   <dc:type rdf:resource="http://purl.org/dc/dcmitype/StillImage"/>
   <license rdf:resource="http://web.resource.org/cc/PublicDomain"/>
  </Work>
  <License rdf:about="http://web.resource.org/cc/PublicDomain">
   <permits rdf:resource="http://web.resource.org/cc/Reproduction"/>
   <permits rdf:resource="http://web.resource.org/cc/Distribution"/>
   <permits rdf:resource="http://web.resource.org/cc/DerivativeWorks"/>
  </License>
 </rdf:RDF>
</svg>
