<?xml version="1.0" encoding="UTF-8" standalone="no"?>
<!DOCTYPE svg PUBLIC "-//W3C//DTD SVG 20010904//EN" "http://www.w3.org/TR/2001/REC-SVG-20010904/DTD/svg10.dtd">
<svg xmlns="http://www.w3.org/2000/svg" xmlns:xlink="http://www.w3.org/1999/xlink" height="400pt" width="400pt">
 <g fill-rule="evenodd" transform="translate(-1.25 3.75)" stroke="#000000" stroke-width="1pt" fill="#0099ff">
  <path d="m32.5 186.25l238.75 16.25 3.75 188.75-240-22.5-2.5-182.5z" transform=""/>
  <path d="m271.25 201.25l182.5-78.75 1.25 190-178.75 77.5-5-188.75z"/>
  <path d="m33.75 186.25l160-75 257.5 11.25-180 80-237.5-16.25z"/>
 </g>
 <g fill-rule="evenodd" transform="translate(5 -32.5)" stroke="#000000" stroke-width="1pt" fill="#ff0000">
  <path d="m101.25 411.25l1.25-183.75 161.25-77.5 53.75 2.5-150 80-2.5 185-63.75-6.25z"/>
  <path d="m350 391.25l-11.25-183.75-251.25-15 45-18.75 246.25 15 11.25 186.25-40 16.25z"/>
 </g>
 <path d="m217.5 68.75s-1.25-7.5 7.5-11.25 23.75-1.25 28.75 5 8.75 12.5 16.25 7.5 17.5-17.5 23.75-16.25 17.5 5 16.25 13.75-5 32.5-12.5 31.25-22.5-5-23.75-1.25-8.75 12.5-13.75 13.75-17.5 7.5-22.5 6.25-13.75-7.5-15-21.25-5-26.25-5-27.5z" fill-rule="evenodd" transform="translate(-32.5 60)" stroke="#000000" stroke-width="1pt" fill="#000000"/>
 <g fill-rule="evenodd" transform="translate(-14.375 64.375)" stroke="#000000" stroke-width="1pt" fill="#ff0000">
  <path d="m275 98.75s13.75 5 28.75-15c7.5-18.75 2.5-13.75 5-23.75-16.25-2.5-18.75-3.75-32.5 10-3.75 22.5-12.5 21.25-12.5 21.25s-3.75-7.5-3.75-6.25 6.25 8.75 3.75-17.5c8.75-16.25 8.75-23.75 23.75-25 21.25-1.25 15 15 26.25 15-2.5 10 6.25-8.75-6.25 23.75-13.75 7.5 11.25 7.5-32.5 17.5z" transform="translate(-21.25 -5)"/>
  <path d="m255 85c0-5-5-17.5-17.5-21.25s-20-1.25-17.5 7.5 31.25 21.25 31.25 21.25l-8.75 3.75s-3.75 6.25-7.5-3.75c-6.25-3.75-17.5-13.75-17.5-33.75 11.25-23.75 20-12.5 28.75-12.5 23.75 3.75 20 25 18.75 32.5s-11.25 8.75-10 6.25z" transform="translate(-21.25 -5)"/>
  <path d="m223.75 82.5s-11.25-28.75-23.75-32.5-25-5-23.75-5 17.5-7.5 17.5-7.5l5-13.75s20 7.5 26.25 18.75 13.75 23.75 13.75 30-15 12.5-15 10z" transform="translate(10 -1.25)"/>
  <path d="m238.75 85s-18.75 17.5 0-22.5 41.25-38.75 41.25-38.75-7.5 12.5-6.25 12.5 20-2.5 20-2.5-8.75 5-17.5 12.5-17.5 28.75-17.5 30-18.75 10-20 8.75z" transform="translate(8.75 -3.75)"/>
  <path d="m261.25 90c8.75-12.5 23.75-13.75 31.25-8.75 7.5 8.75 13.75 5 5 16.25-23.75 1.25-21.25 0-23.75 2.5s10 2.5 23.75 6.25c12.5 3.75 16.25-6.25 30-23.75-6.25-12.5-18.75-18.75-36.25-13.75s-28.75 12.5-30 21.25z" transform="translate(-21.25 -5)"/>
  <path d="m275 100s-21.25 23.75-40 12.5 32.5-22.5 32.5-21.25-28.75-11.25-28.75-11.25-48.75-17.5-48.75 12.5 40 30 53.75 27.5 32.5-18.75 31.25-20z" transform="translate(-21.25 -5)"/>
 </g>
 <rdf:RDF xmlns:rdf="http://www.w3.org/1999/02/22-rdf-syntax-ns#" xmlns="http://web.resource.org/cc/" xmlns:dc="http://purl.org/dc/elements/1.1/">
  <Work rdf:about="">
   <dc:title>Clipart by Nicu Buculei - baloon1_04</dc:title>
   <dc:rights>
    <Agent>
     <dc:title>Nicu Buculei</dc:title>
    </Agent>
   </dc:rights>
   <dc:type rdf:resource="http://purl.org/dc/dcmitype/StillImage"/>
   <license rdf:resource="http://web.resource.org/cc/PublicDomain"/>
  </Work>
  <License rdf:about="http://web.resource.org/cc/PublicDomain">
   <permits rdf:resource="http://web.resource.org/cc/Reproduction"/>
   <permits rdf:resource="http://web.resource.org/cc/Distribution"/>
   <permits rdf:resource="http://web.resource.org/cc/DerivativeWorks"/>
  </License>
 </rdf:RDF>
</svg>
