<?xml version="1.0" encoding="UTF-8" standalone="no"?>
<!DOCTYPE svg  PUBLIC '-//W3C//DTD SVG 20010904//EN'  'http://www.w3.org/TR/2001/REC-SVG-20010904/DTD/svg10.dtd'>
<svg xmlns="http://www.w3.org/2000/svg" height="400pt" width="400pt" xmlns:xlink="http://www.w3.org/1999/xlink">
 <path stroke-linejoin="bevel" d="m152.5 325c0 1.25 93.75-300 93.75-300l96.25 296.25s-23.75 52.5-91.25 56.25c-70 0-102.5-51.25-98.75-52.5z" fill-rule="evenodd" transform="translate(0 -0.625)" stroke="#000000" stroke-width="3.75" fill="#0000ff"/>
 <g stroke-linejoin="bevel" fill-rule="evenodd" stroke="#000000" stroke-width="3.75" fill="#ff0000">
  <g>
   <path d="m152.5 322.5s55 5 98.75-7.5c46.25-20 68.75-63.75 67.5-63.75s-10-36.25-10-36.25-27.5 51.25-68.75 65c-31.25 6.25-76.25 8.75-75 7.5l-12.5 35z"/>
   <path d="m190 362.5c8.75-6.25 88.75 10 111.25-18.75 22.5-18.75 31.25-47.5 30-52.5s1.25 0 1.25 0l11.25 30s-52.5 91.25-153.75 41.25z" transform=""/>
  </g>
  <path d="m178.75 246.25s36.25-5 66.25-17.5 50-57.5 47.5-58.75l-8.75-31.25c0-1.25-13.75 42.5-43.75 55s-51.25 17.5-51.25 17.5c-1.25 0-12.5 36.25-10 35z"/>
  <path d="m207.5 147.5c-1.25 0 16.25-1.25 41.25-13.75 13.75-7.5 22.5-31.25 22.5-31.25l-8.13-25.625c0-1.25-1.87 16.875-20.62 33.125-18.75 6.25-25 6.25-25 6.25l-10 31.25z"/>
  <path d="m238.12 51.875s4.38 1.25 7.5-1.25c3.13-2.5 6.26-8.125 6.26-8.125l-6.26-18.75-7.5 28.125z"/>
 </g>
 <path d="m244.33 46.032s-87.84 267.22-87.1 279.76c7.38 14.77 26.57 29.53 53.88 41.34-17.71-64.22-7.38-121.79 33.22-321.1z" fill-opacity=".5" fill-rule="evenodd" fill="#ffffff"/>
 <rdf:RDF xmlns:rdf="http://www.w3.org/1999/02/22-rdf-syntax-ns#" xmlns="http://web.resource.org/cc/" xmlns:dc="http://purl.org/dc/elements/1.1/">
  <Work rdf:about="">
   <dc:title>Clipart by Nicu Buculei - baloon1_04</dc:title>
   <dc:rights>
    <Agent>
     <dc:title>Nicu Buculei</dc:title>
    </Agent>
   </dc:rights>
   <dc:type rdf:resource="http://purl.org/dc/dcmitype/StillImage"/>
   <license rdf:resource="http://web.resource.org/cc/PublicDomain"/>
  </Work>
  <License rdf:about="http://web.resource.org/cc/PublicDomain">
   <permits rdf:resource="http://web.resource.org/cc/Reproduction"/>
   <permits rdf:resource="http://web.resource.org/cc/Distribution"/>
   <permits rdf:resource="http://web.resource.org/cc/DerivativeWorks"/>
  </License>
 </rdf:RDF>
</svg>
