<?xml version="1.0" encoding="UTF-8" standalone="no"?>
<svg xmlns:rdf="http://www.w3.org/1999/02/22-rdf-syntax-ns#" xmlns="http://www.w3.org/2000/svg" height="128" width="128" version="1.1" xmlns:cc="http://creativecommons.org/ns#" xmlns:dc="http://purl.org/dc/elements/1.1/">
 <g transform="translate(-181.15 -490.02)">
  <path fill="#330000" d="m283.25 496.53c-1.3767-0.33189-2.2677 0.57076-3.3908 1.1204-1.2054 0.7191-2.0838-0.68951-3.1773-0.74019-1.5254-0.3006-2.4734 0.93232-3.4501 1.8732-0.58116 0.61735-2.0778 1.7603-1.8244 2.2945 0.45165 0.0232 0.90329 0.0464 1.3549 0.0697 0.91205-1.4314 2.3021-2.4586 3.4834-3.6517 1.2245 0.87506 2.9167 0.72514 4.3446 0.57392 0.69596-0.15715 1.4404-0.70271 0.98571 0.3922 0.15771 0.86202-1.3838 0.34143-1.8173 1.1748-2.1811 1.9206-2.7318 4.9172-3.8433 7.4744-0.43953 1.0854-1.0251 2.1041-1.4769 3.1843l1.5579 0.0624c0.86909-1.8698 1.7138-3.7511 2.3522-5.7155 0.71605-1.8802 1.4656-3.9916 3.2686-5.0962-1.3132 2.1088-2.2901 4.4-2.9864 6.7819-0.3816 1.5382-1.6314 2.6386-2.1422 4.1108 0.0358 0.50355 0.91898 0.13475 1.3379 0.24395 0.49004-0.38275 0.7249-1.6385 1.3474-2.2361 1.2624-1.9439 1.4702-4.3476 2.5935-6.366 0.64893-1.1594 1.101-2.7942 2.7621-2.2336 1.3574-0.20383 2.6361-0.87141 4.0554-0.81432 1.28-0.003 2.577 0.10675 3.7699-0.46923 0.82294-0.34404-0.36581 1.6241-0.39707 2.2075-1.2786 4.0389-2.274 8.1673-3.7354 12.147-0.56105 1.7213-1.0956 3.5042-2.1185 5.0142-1.1118 1.432-2.0427 3.1078-3.7052 3.9796-2.133 1.3515-4.4169 2.694-6.9944 2.8842 0.64238-0.94605-0.39013-0.68287-0.9777-0.73234-0.76851-0.19423-0.34356 1.2282-1.3396 0.72517-1.31-0.36526-2.9426 1.2776-3.5547-0.46957-0.82975-1.4668-1.7503-2.8894-2.5257-4.3824-0.38321-1.9597 0.17848-3.9224 0.56724-5.8348 0.3737-1.4522 0.57897-2.9424 0.96397-4.3902 0.78742-2.682 1.8093-5.5084 4.1169-7.2656 0.66171-0.5367 1.8813-1.2413 0.4257-1.1332-1.0066-0.31769-1.5481 0.85827-2.3282 1.289-2.2877 1.9776-3.1549 4.9849-3.9663 7.7822-0.31657 1.902-0.81499 3.7642-1.1845 5.6561-0.29243 1.2811-0.3805 2.6405-0.15566 3.9356 0.89335 1.5928 1.8014 3.191 2.74 4.7614 0.61284 0.59426 1.1438 1.3406 0.87742 1.4841-0.67002 0.81821-1.5462 2.0755-2.1002 3.1962-1.0787 1.8297-2.2887 3.5894-3.1004 5.5644-1.0185 2.3513-2.8121 4.2453-4.0155 6.4963-0.72485 1.354-1.3937 2.7408-2.2526 4.0187-0.53553-2.4096-0.96485-5.0645-2.8884-6.8149-1.6927-1.542-3.7531-2.6332-5.8108-3.6104 0.43139-1.0122 1.0897-2.3394 1.549-3.4976 0.60778-1.3615 0.5858-2.9022 0.6927-4.3646 0.15474-1.2943-0.5876-3.0883 1.1902-3.3591 1.1663-0.66328 3.1578-1.8762 2.3895-3.4626-1.4104-0.54138-1.0866-1.9201-1.1487-3.1856-0.20818-1.614-0.52677-3.2209-0.4258-4.8586-0.21082-1.1948 1.6457-0.37631 2.427-0.6278 0.93791 0.15397 2.6358-0.68092 2.9015-0.58052-0.48949 0.98498-1.0525 2.0848-2.2971 2.2007-0.61939-0.0354-1.2294 0.1483-1.8445 0.21189 1.589 0.0908 3.4638 0.46557 4.7556-0.72003 0.57732-1.04 1.2681-2.0095 1.9351-2.9913 0.41049-1.4702-0.77509-2.903-1.9833-3.5828-1.2928-0.43761-2.6832-0.0712-4.0173-0.13925-1.327-0.19042-3.3661 1.5747-3.603-0.50287-0.76129-1.4356-2.1746-2.3686-3.6998-2.8265-1.4312-0.55193-2.8749-1.1062-4.4109-1.2704-1.2769-0.26512-2.5701-0.19361-3.8623-0.17674-1.7258-0.17364-3.4119 0.38165-5.1288 0.46603-0.52439 0.14959-2.9886 0.29109-1.3536 0.28833 1.5063 0.009-0.87874 0.0264-1.3218 0.007-1.7481-0.0381-3.4745 0.3035-5.2242 0.20086-2.0172 0.0548-4.123-0.21836-6.0538 0.49831-1.3701 0.81944-2.6558 2.1187-2.96 3.7389-0.22591 1.7061-0.34873 3.4187-0.52779 5.1287 0.0325 1.5874-0.10742 3.2028-0.59415 4.718-0.67556 0.97233-1.0332 2.3478-2.0561 2.9716-1.8947 0.45284-1.4169 2.8236 0.0515 3.4776 0.73782 0.8988 3.0496 0.87979 1.9346 2.3063-0.61418 1.5078-0.81409 3.1277-0.7286 4.7454-0.0446 1.2174 0.4736 2.339 0.83632 3.4729-1.7782 1.0374-3.4348 2.2953-5.3754 3.0263-0.5312 0.40426-2.0781 0.7102-1.8843 1.4168 1.5207 0.1 3.0387-0.1326 4.5484-0.28025 1.5484-0.33049 3.1308-0.49688 4.6681-0.89128 1.6059 2.021 4.1778 2.8166 6.5301 3.6032 2.8649 0.70983 5.7238 1.7537 8.7183 1.6032 1.9214-0.0457 3.8538 0.0785 5.7673-0.0881 3.1684-0.6462 5.8195-2.6938 8.1766-4.805 0.60989-0.81873 1.1013-1.5336 2.0282-0.63622 2.2926 1.2671 4.7342 2.8202 5.5884 5.4496 0.65603 1.8841 0.9531 3.8643 1.4526 5.7909-0.97258 2.1936-2.2085 4.2488-3.4641 6.2868-1.0374 1.9603-1.8576 4.0269-2.593 6.114-0.25668 0.0679 0.75669 0.0528 1.016 0.0829 0.79865 0.0257 1.6162-0.13715 2.3891-0.46674 1.357-0.79868 2.4129-2.005 3.4931-3.1308-0.044 2.7026-0.64474 5.4524-1.9582 7.8297-1.4151 2.1515-3.6457 3.5132-5.5195 5.2149-1.1544 0.81732-2.3524 1.8239-3.5728 2.3794-4.6305 1.275-9.3905 2.2099-14.199 2.3663-3.0846-0.0881-6.4419-0.0109-9.1411-1.7314-2.3068-1.5191-3.7551-3.916-5.4641-6.0145-1.9087-2.3272-4.231-4.3851-5.5303-7.1499-0.69896-1.2758-1.2742-2.6688-1.1452-4.1527 0.0579-2.6653-0.18397-5.4139 0.60563-7.9948 1.3538-3.1878 3.8584-5.7888 6.8251-7.5319 0.59-0.48375 2.0175-0.98587 2.2683-1.0352-0.81159-0.10501-1.6634-0.41896-2.4177 0.0999-3.2424 1.6688-6.1517 4.173-7.7937 7.4803-1.1673 2.137-0.94781 4.6703-1.0137 7.0249 0.05 1.7381-0.271 3.5971 0.64419 5.1806 0.87188 1.9726 2.0569 3.7937 3.5601 5.3443 0.61651 0.82171 1.9405 2.0118 2.1407 2.6195-0.64679-0.0222-1.3524-0.33861-1.9006 0.15722-2.0063 1.0825-3.6441 2.7158-4.9496 4.5674-2.0832 2.7094-3.4741 5.8816-4.369 9.1661-0.69071 2.3413-0.95487 4.7908-1.0937 7.2207-0.0775 2.3326 0.0888 4.767 1.1798 6.8757 1.0002 2.2834 1.5007 4.7899 2.8551 6.9131 0.51721-0.0291 1.0344-0.0582 1.5516-0.0873-1.5927-2.4365-2.0507-5.378-3.3415-7.9588-0.80158-2.2034-0.78304-4.6126-0.64679-6.9261 0.22286-2.6349 0.67969-5.2576 1.5836-7.7504 1.1031-3.5875 3.1386-6.8433 5.6786-9.5863 1.0569-1.0422 2.2922-1.9028 3.6368-2.5317 1.8154 2.123 3.2698 4.6172 5.6299 6.2102 2.7205 1.7968 6.1468 1.7152 9.281 1.8025 5.7212 0.18384 11.403-0.89718 16.908-2.3626 0.5704-0.20291 2.19-0.65254 2.0092-0.85162-0.93838-0.0559 1.0579-0.85367 1.2717-1.2191 1.3635-1.093 2.6877-2.2384 4.0327-3.3512 1.3107-1.1816 2.3663-2.6403 2.8765-4.3428 0.84531-2.3636 1.1688-4.8877 1.0551-7.3903-0.18162-1.2446 0.97919-2.091 1.4586-3.1465 0.98717-1.9307 2.0851-3.8041 3.3767-5.5499 1.1933-1.9351 2.4012-3.8638 3.5325-5.8364 1.7133-3.2622 3.8757-6.264 5.5638-9.5423 1.1867-1.6185 1.9222-3.5049 2.3842-5.4474 0.55538-0.70358 2.0934-0.12267 3.0248-0.58015 2.4113-0.62542 4.5478-1.9694 6.5809-3.3638 1.2462-0.99007 1.9968-2.4444 2.983-3.6713 1.3453-2.2327 1.8327-4.8407 2.7767-7.2474 1.2647-3.9032 2.2317-7.8995 3.5902-11.772 0.33821-0.88984 0.58385-1.7062-0.59287-1.4536-0.97681-0.43301-0.43614 1.1801-1.2819 0.87545-0.53613-0.0417-1.0682-0.18292-1.5152 0.19637-1.1982 0.55187-2.5139 0.24399-3.7797 0.42332-1.2582-0.20389-2.5049 0.89402-3.6349 0.49459 0.4029-0.40829-0.76886-0.26597-0.19613-1.0717 0.0619-0.55535 0.35531-1.1569 0.0653-1.6951zm-6.2004 0.64186c0.29107 0.0344-0.69618 0.0188 0 0zm0.13087 1.5516c-1.5784 2.3036-2.2521 5.1225-4.0114 7.3202-0.75938 1.2135-1.0117 2.6678-1.0922 4.0773 0.51515 0.002 1.0303 0.004 1.5454 0.007-0.009-1.7556 0.56766-3.4961 1.6915-4.8522 1.316-2.0589 1.9468-4.4962 3.4371-6.4456-0.52344-0.0353-1.0469-0.0705-1.5703-0.10599zm9.771 0.66053c-0.70219 0.35962-1.0182 1.2845-1.9143 0.94057-0.97303-0.16941-1.3824 1.1598-2.013 1.707-1.741 2.123-1.7014 5.0011-2.5971 7.4849 0.44898 0.34811-0.86062 1.7166-0.98062 2.4731-0.64558 0.88793 0.0448 1.1095 0.81353 0.9564 0.93214 0.19682 0.51177-1.2882 1.1056-1.8168 1.8418-3.6426 3.5875-7.3797 6.0402-10.663 0.37404-0.6035 1.6759-1.0014 0.38149-0.98307-0.27858-0.0331-0.55716-0.0663-0.83574-0.0995zm-2.8291 0.19319c0.60427-0.0226 0.88602 0.13117 0 0zm5.0226 0.54213c-1.7548 2.7747-1.961 6.186-3.3467 9.1266-0.38375 0.9449-1.2823 2.3108-1.3724 3.0144 0.47004 0.0264 0.9401 0.0526 1.4102 0.079 1.1829-2.1335 2.1803-4.3821 2.7502-6.7623 0.5826-1.8222 0.95541-3.7919 2.1291-5.3518-0.52345-0.0353-1.0469-0.0707-1.5704-0.10599zm-3.9819 1.2588c-0.61896 0.86192-1.7408 3.0757-1.9075 3.1434 0.36729-1.1925 1.0898-2.2179 1.9075-3.1434zm-45.235 0.17449c1.8136 0.12451 3.65 0.37794 5.3379 1.0929 1.6189 0.55943 3.399 1.1408 4.3602 2.678 0.5962 0.82212 1.0924 1.965-0.39136 1.7547-1.497 0.14762-2.8121 0.95731-4.2904 1.192 0.79175 0.0746 1.5961 0.37953 2.3611 0.005 1.2111-0.35736 2.3732-0.90635 3.6524-1.0085 1.4849-0.13667 2.9616-0.35459 4.3978-0.77669 1.4433-0.50076 2.9969 0.046 3.7468 1.3874 0.55949 0.56585 0.62868 2.8826-0.10796 1.3228-1.5577-1.0292-3.5302-0.74601-5.2888-0.62682-1.5661 0.39707-3.0425 1.224-4.7002 1.2297-1.3118 0.10347 1.5156 0.0652-0.0867 0.0755-0.87132-0.0716-1.7228 0.11189-2.5785 0.24222 1.6336 0.004 3.2681 0.0844 4.8918-0.15579 0.61298 1.9261 0.11716 3.9758 0.60355 5.924 0.0893 0.93625 0.4027 2.4171 0.0824 3.0343-2.6272-0.8496-5.1854-1.9265-7.9029-2.4772-2.6693-0.58834-5.383-1.1159-8.1308-0.98481-3.7232 0.0593-7.457-0.14184-11.172 0.15592-2.8373 0.31742-5.2959 1.8997-7.9653 2.7852 0.66735-1.1422 1.452-2.2917 1.4806-3.6666 0.33507-1.547 0.10698-3.1407 0.38629-4.6943 0.098-1.2842 0.20079-2.5758 0.4284-3.8452 0.47858-1.3848 1.5949-2.5399 2.8707-3.2293 2.3482-0.70209 4.8342-0.33226 7.2477-0.42405 1.514-0.0312 3.0197-0.29688 4.5415-0.24477 1.9013-0.19748 3.7943-0.45582 5.6859-0.72303 0.1797-0.015 0.36013-0.0181 0.54024-0.0226zm-7.0105 0.7914c-0.62057 0.00026-1.2641 0.0216-0.29115 0.008 0.35482-0.005 1.1073-0.01 0.29115-0.008zm22.689 6.4122c0.78988 0.0929 2.7673 0.52186 1.987 1.6344-0.97007 0.83003-2.3358 1.0237-3.5726 1.1059-0.93777 0.40034-1.0579-0.1998-1.107-1.0729-0.7162-1.321 1.4197-1.187 2.2178-1.6148 0.15745-0.0242 0.31602-0.0401 0.47477-0.0526zm-2.1935 2.717c0.25936 0.009 1.5705-0.004 0.27051-0.00013l-0.27051 0.00013zm-23.262 4.225c2.4875 0.0568 4.9852-0.10359 7.4657 0.10567 3.9084 0.47763 7.7633 1.4269 11.43 2.8669 1.4355 0.52788 3.0806 0.81444 4.1893 1.9395 0.45565 1.2792-1.0025 2.2095-1.9449 2.7896-0.28674-0.59084-0.16427-2.3406-1.0341-3.0998-0.75009-0.87571-1.7905-1.5627-2.8621-1.9386-0.49273 0.0574-0.98545 0.11477-1.4782 0.17215 1.692 0.68541 3.4949 1.9477 3.637 3.934-0.1 0.85697 0.42937 2.0179-0.37336 2.6156 0.77499-0.25974 0.27474 1.7605 0.38553 2.5673-0.12379 1.5151-0.1835 3.0869-0.93158 4.4522-0.85091 2.0276-1.7533 4.1737-3.6086 5.495-2.1806 1.8058-4.6397 3.541-7.5078 3.9539-2.1744 0.003-4.4015 0.23353-6.5288-0.34511-2.0308-0.46999-4.0619-0.9726-6.0453-1.615-1.9714-0.75993-4.0943-1.5613-5.3616-3.3603 2.0996-0.6258 4.1868-1.3605 6.3833-1.5495 1.1445-0.22893 2.2842-0.50482 3.4105-0.79385 1.1068-0.57591 2.3349-1.5169 2.233-2.9098 0.0008-1.2417-0.19288-2.6104-1.0407-3.5769-0.42969-0.35617-1.2611-0.30812-0.60302-0.5082-0.72405-0.0408-1.4815-0.38605-2.1537 0.0474-1.609 0.61775-3.3215 1.1565-4.5825 2.3926-1.477 1.0614-3.0734 1.9532-4.6679 2.8199-1.3783 1.1981-1.4184-1.2977-1.5166-2.2748-0.0702-1.5363 0.0733-3.0817 0.66504-4.5159 0.75089-2.0242 1.9819-3.9494 3.7039-5.2762 0.71761-0.47162 2.0862-0.84767 0.59528-0.85261-0.94841-0.27335-1.7692 0.4701-2.5 0.97142-1.0172 0.92882-1.8533 2.0398-2.5251 3.2394-1.1091-0.64729-3.0633-1.7238-2.2792-3.2614 1.0986-0.89397 2.5618-1.1472 3.8431-1.7062 2.7963-0.9955 5.4439-2.6479 8.4947-2.7038 1.035-0.0602 2.0722-0.0701 3.1086-0.0744zm4.4867 6.406c-0.46106 0.19166-0.79625 0.51845-1.3647 0.41128-0.18311 0.95789 2.1396 1.0165 0.67924 1.1341-0.39867 0.0668-2.0761-0.0534-1.9442 0.31782 0.85514 0.99882 1.7806 2.183 3.1507 2.0916 0.87201 0.74831 0.91497-1.0694 1.8947-0.57769 1.7572 0.29958 0.535-1.6223 0.6436-2.56-0.60711-1.2774-2.199 0.0277-3.0593-0.81715zm2.3368 0.51722c0.57571 0.0172-0.36625 0.0498 0 0zm-15.809 0.17448c-0.89904 0.98806-0.61866 2.3564 0.0533 3.3768 0.4625 0.7135 2.3216 0.91076 2.1216-0.44328-0.18534-1.1903 2.3275-0.0355 1.589-1.226-0.79239 0.1-0.91125-0.0233-0.87766-0.27886-0.63429-0.4161-0.69589-1.4617-1.6586-0.81166 0.75884-0.69389-0.24804-0.48885-0.75728-0.57974l-0.47034-0.0372zm12.974 1.022c0.41618-0.008-0.20135 0.0257 0 0zm-11.989 0.30535c0.84841 0.77322-0.23323 1.0396 0 0zm11.734 0.0436c0.48554 0.28199 0.41338 0.67852-0.00002 0h0.00002zm41.508 0.65431c0.81908-0.0722-0.0346 0.19875 0 0zm-50.656 0.1184h0.2368-0.2368zm49.011 0.13086c-0.48309 1.9403-1.1306 3.8684-2.3397 5.4881-1.8114 3.4842-4.1081 6.687-5.9045 10.179-1.1076 1.8514-2.2261 3.698-3.3786 5.5215-1.3141 1.7602-2.3475 3.6988-3.398 5.6198-1.2801 1.8905-2.255 4.0362-3.987 5.5771-0.66785 0.63329-1.9092 1.9514-2.4093 1.7738 0.71622-2.1126 1.6032-4.1866 2.735-6.111 1.5577-2.2796 2.6406-4.8286 3.9054-7.2683 1.3929-2.0816 2.3109-4.4353 3.7659-6.4798 1.0692-1.5439 2.207-3.0589 2.896-4.8229 0.98066-2.2764 2.5051-4.252 3.6499-6.4418 0.60597-0.77441 1.1223-2.0597 2.2527-2.0506-0.76924-0.4109 1.2211-0.96889 1.939-0.96859l0.0733-0.01 0.00041-0.00005 0.1994-0.007zm-37.433 0.16202c0.3772-0.0963-0.094 0.13261 0 0zm-7.6398 2.1436c1.0089 0.44715 1.1672 1.739 1.3255 2.7111 0.23205 1.1551-0.12043 2.4376-1.2079 3.038-1.036 0.85122-2.4385 0.80144-3.6597 1.2073-1.6628 0.25316-3.3327 0.48281-4.9246 1.0564-2.0503 0.58481-4.0702 1.3087-6.2014 1.5513-1.0427 0.14796-2.0642 0.45548-3.1229 0.47487 1.6624-1.0082 3.5535-1.5832 5.1228-2.7583 1.6132-1.0552 3.3115-1.9622 5.0279-2.8318 1.5914-0.95087 3.2288-1.8458 4.6432-3.0571 0.91441-0.62242 1.9844-0.96573 2.9971-1.3918zm-1.2588 19.037c-1.6168-0.24896-3.0075 1.1288-3.2664 2.6494-0.27997 1.1717-0.0143 2.35 0.63238 3.3487 0.1677 1.1952 1.2228 2.0044 2.4234 1.8286 1.283 0.0327 2.5176-0.36017 3.5692-1.0926 1.0681-0.71557 1.6697-2.0278 1.9825-3.2435 0.36304-1.5818-1.0323-3.0726-2.5744-3.1728-0.65958-0.21676-1.3418 0.0708-2.0128 0.11217 1.1038 0.15392 2.3568 0.48875 2.8663 1.5996 0.6239 1.4525-0.3684 2.9183-1.1589 4.0773-0.83807 0.46496-1.9631 1.6624-2.92 1.066-0.55581-0.96559-1.122-2.0352-1.3409-3.1385-0.12637-1.5269 0.57807-3.3093 2.1796-3.7353 0.68166 0.14771 1.3624-0.0971 2.0439-0.15578-0.80048-0.1334-1.6144-0.14785-2.4241-0.14334zm-0.71039 14.519c-0.67319-0.0155-2.6699 0.10829-2.6094 0.23665 0.4524 0.0606 0.9039 0.13381 1.3568 0.18709-1.2116 0.30146-3.0821 1.0491-2.5226 2.6419 0.32268 1.6146 1.381 3.3652 3.1877 3.4914 1.2849 0.0006 2.6954 0.36463 3.8928-0.23994 1.3669-0.81111 0.95845-2.5958 0.82734-3.9014 0.25081-1.2701-0.85003-2.2513-2.0603-2.2797-0.68371-0.11956-1.3795-0.14527-2.0723-0.13598zm0.0686 0.29911c1.2321-0.0118 2.8339 0.6265 2.5024 2.134 0.11049 1.2294 0.54839 2.9281-0.75139 3.6925-1.4075 0.64486-3.1068-0.42716-3.5935-1.8031-0.77732-1.1994-0.71965-3.0054 0.95002-3.3305 0.73706-0.36428 1.8782-0.33861 0.56214-0.4828-0.44668-0.0689-1.1746-0.15174-0.15577-0.16023 0.16181-0.0186 0.32445-0.0293 0.48606-0.0499zm30.921 5.0475c-0.52138 0.0499-1.0427 0.0998-1.5641 0.14956 3.5255 2.3594 7.7105 3.9782 10.327 7.4782 1.5071 1.8628 2.8056 3.9429 3.3587 6.3001 1.3535 4.4101 2.3396 8.9373 2.8364 13.525 0.16538 3.0278 0.20336 6.1258-0.61038 9.0695-0.28467 1.7105-2.0943 2.0803-3.4065 2.7355-1.253 0.72755-2.3635 1.76-3.8237 2.0758-1.9944 0.53615-3.4329 2.2771-5.5149 2.6028-2.0308 0.3191-4.0698 0.58859-6.063 1.1052-2.1761 0.40524-4.3572 0.77618-6.5202 1.2454-1.208 0.17049-2.1658 0.19697-3.1749 0.19736-3.1048-0.0148-6.1392-0.83124-9.0275-1.9132-4.2601-1.0709-8.6495-1.5069-12.981-2.1996-3.7778-0.61735-7.7107-1.029-11.1-2.9602-1.5962-0.82607-2.4641-2.551-3.0466-4.1702-0.0859-0.5446-0.9398-0.12963-1.3825-0.22844-0.52765 0.60578 0.75911 2.1181 1.1788 2.9636 1.188 1.786 3.4134 2.3996 5.3158 3.1171 3.0952 0.93424 6.3359 1.2336 9.5144 1.7667 3.7478 0.58768 7.546 0.98676 11.215 1.9772 3.139 1.2002 6.472 1.9766 9.8491 1.8947 2.5258 0.0639 5.0724-0.0479 7.5186-0.7348 2.296-0.36078 4.5718-0.83848 6.8424-1.3239 2.0863-0.33464 4.338-0.41377 6.0969-1.7383 1.1154-0.85291 2.4358-1.3111 3.7595-1.7256 1.3739-0.65074 2.4669-1.7909 3.9431-2.2493 0.81112-0.39322 1.5403-0.17886 1.9225-1.1608 0.25857-0.64348 0.7785-2.1602 0.84945-3.3181 0.37529-2.6611 0.34764-5.3784 0.0638-8.0469-0.74343-4.8452-1.7999-9.6512-3.3065-14.318-1.0195-2.4982-2.7317-4.6834-4.6436-6.5661-2.5387-2.229-5.6795-3.6142-8.4253-5.5502zm-31.961 12.27c-0.48582 0.37452-1.8321 0.31195-0.97832 0.43804-1.258 0.64089-3.0375 1.1484-3.2146 2.7897 0.18737 1.416 1.2874 2.5597 1.5734 3.977 0.40313 1.4175 1.5552 2.7982 3.14 2.7823 1.3885 0.21382 2.5392-0.69585 3.4512-1.6234 0.99535-1.0029 1.2214-2.5156 1.2839-3.87-0.0501-1.4123-0.60776-3.0178-2.0641-3.5244-0.8449-0.40751-1.4428-0.78697-2.1354-0.84351-0.35204-0.0419-0.70411-0.0838-1.0561-0.12574zm0.56706 0.61693c1.0577 0.52972 2.4284 0.93845 2.7917 2.2122 0.60303 1.5843 0.31737 3.4122-0.47525 4.8683-0.71443 0.65249-1.8888 2.5154-2.8501 1.2847-1.2156-1.1502-1.2638-2.9704-2.149-4.3355-0.87451-1.0048-0.48239-2.5588 0.73462-3.0824 0.6264-0.36023 1.2944-0.64161 1.9481-0.94726zm-0.71661 16.439c-1.0011-0.0961-1.9723 0.24821-2.835 0.51054-1.297 0.668-1.8605 2.1072-1.6793 3.5066 0.0893 1.7374 1.8862 2.671 3.4385 2.7762 1.1609 0.22617 2.3098-0.2306 3.1404-1.0372 1.0109-0.86149 1.9256-1.8394 2.7962-2.8366 0.79142-1.1132-0.33367-2.3914-1.4423-2.6515-1.1002-0.37065-2.2801-0.22049-3.4186-0.26807zm0.59198 0.26795c1.1397 0.0402 2.7447 0.43356 2.965 1.7475-0.20477 1.3603-1.6368 2.1145-2.464 3.1185-0.73669 0.57381-1.5942 1.6632-2.5645 0.91499-1.343-0.51118-1.7185-2.1233-1.4068-3.4015 0.0925-0.7572 0.65196-1.636 1.501-1.3512 0.43169-0.6814 1.1604-1.0669 1.9692-1.0282zm19.006 16.9c0.40796 0.01-0.5269 0.0241 0 0z"/>
 </g>
</svg>
