<?xml version="1.0" encoding="UTF-8" standalone="no"?>
<svg xmlns:rdf="http://www.w3.org/1999/02/22-rdf-syntax-ns#" xmlns="http://www.w3.org/2000/svg" height="128" width="128" version="1.0" xmlns:cc="http://creativecommons.org/ns#" xmlns:dc="http://purl.org/dc/elements/1.1/">
 <defs>
  <filter id="filter3533" height="2.0159" width="1.4354" y="-.50795" x="-.21768">
   <feGaussianBlur stdDeviation="3.2924533"/>
  </filter>
 </defs>
 <g transform="matrix(.86248 0 0 .86248 216.68 -55.736)">
  <path d="m387.14 155.6c-4.56-2.86-14.3-2.27-17.68 2.13-1.68 3.82 6.06 7.1 9.2 8.13 4.38 0.13 8.26 0.42 12.37 1.77 5.01-2.12 3.69-0.92 5.66-1.77 3.63-1.62 8.29-3.74 8.84-8.13-0.24-3.81-3.11-5.03-6.37-5.66-3.64 1.13-9.37 0.59-12.02 3.53z" fill-rule="evenodd" fill-opacity=".77778" transform="matrix(-1.1515 0 0 .77501 258.05 82.876)" filter="url(#filter3533)"/>
  <g fill-rule="evenodd" stroke-width="1.1594px">
   <path d="m-196.64 203.04l-2.87-2.38 1 5.63 0.75-0.13 1.12-3.12z" stroke="#666633" fill="#ffffff"/>
   <path d="m-185.01 203.79l-2.88-2.38 1 5.63 0.75-0.13 1.13-3.12z" stroke="#666633" fill="#ffffff"/>
   <path d="m-202.03 172.49c-0.99 1.67-1.2 3.06-1.06 4.95 0.27 3.94 1.65 7.44 4.72 9.83-1.35 3.84-0.12 8.09-0.65 10.67-0.25 1.27-0.24 1.71 0.53 2.48 1.62 1.83 1.12 3.67 4.95 5.48 0.86 0.64 1.59 0.2 1.59-0.71 0.79-3.66-2.19-5.41-2.12-8.66 1.34-3.38 1.41-7.02 1.41-10.61 0.31-5.4 0.16-10.88-2.29-15.64-2.19-2.92-5.95-0.11-7.08 2.21z" stroke="#663300" fill="#ffcccc"/>
   <path d="m-191.89 202.16c0.99 1.91 1.03 3.9 1.25 8-3.38 0.02-4.76-3.39-7-5.37-0.47-0.48-0.94-2.14-1.12-2.88-1.76-2.71-1.31-2.28-0.5-3.12 0.53-0.14-0.49-6.63 0.12-6.63 2.27 0.5 5.77 7.85 7.25 10z" stroke="#666633" fill="#ffffff"/>
   <path d="m-189.65 173.37c-1 1.67-1.3 2.97-1.15 4.86 0.26 3.95 3.15 7.44 6.21 9.84-1.65 2.44-1.67 7.52-2.06 10.76-0.25 1.26-0.24 1.7 0.53 2.47 1.62 1.84 1.74 1.29 5.57 3.1 0.86 0.64 3.45 0.15 3.45-0.76-2.22-3.04-4.66-2.98-4.6-6.23 1.34-3.38 2.57-5.86 2.57-9.45 0.31-5.41-3.65-11.42-6.1-16.18-2.18-2.91-3.29-0.73-4.42 1.59z" stroke="#663300" fill="#ffcccc"/>
   <path d="m-179.64 200.95c1.85 1.61 4.46 3.39 4.44 6.71-3.07 1.07-5.76-2.35-8.7-3.54-0.6-0.3-1.94 0.52-2.35-0.12-2.52-2.02-1.95-2.88-1.45-3.94 0.46-0.29 0.29-7.1 0.87-7.29 1.46-0.15 5.68-1.66 5.04 1.14-0.47 2.03-0.12 5.53 2.15 7.04z" stroke="#666633" fill="#ffffff"/>
   <path d="m-188.26 135.37c-0.03 0-0.06 0.02-0.07 0.04 0.32 7.49 8.29 18.31 16.37 18.26 3.42-1.69 5.96-5.01 10.07-5.39-0.11-0.13-0.2-0.25-0.29-0.38 0.21 0.25 0.46 0.39 0.65 0.29 0.98-0.49 3.3-0.32 3.09 0.18 3.29 0.12 10.35-0.96 9.42-2.43 0.29-0.28 1.39-1.22 0.37-1.22-2.29 0-5.77 0.24-8.03-0.07 0.2-1.09 0.99-4.31 0.72-3.94-0.42 0.58-1.87 3.44-2.97 2.84-0.7-0.38-3 0.72-3.11 1.17-0.2 0.1-0.36 0.19-0.48 0.27 0.05-0.23 0.03-0.29-0.31-0.09-3.77 0.99-6.81 1.82-10.53 3.04-2.99-4.33-6.81-8.71-11.29-11.31-0.37 0.14-3.12-1.37-3.61-1.26z" stroke="#663300" fill="#ffcccc"/>
   <path d="m-195.93 158.88c-0.96-1.53-3.64-3.11-5.05-4.51-1.12 1.99-0.29 0.96-1.26 0 0 0-0.94 1.58-2.16 0.36-0.46-0.46-1.35 1.18-1.81 0.72-1.97-1.97-4.48 3.91-4.68 4.51-0.03 0.07 1-0.24 1.62 2.52 0.36 1.65-0.38 1.12 0 0.18 0.38-0.95 0.08 2.64 1.08 2.89 0.21 0.05 2.32 3.68 2.89 3.97 0.65 0.32 1.45-0.19 2.16-0.36 0.22-0.06 0.21-0.51 1.08-0.72 1.56-0.39 4.02-2.39 5.05-3.43 1-1 1.21-1.85 0.9-3.07-0.2-0.81-0.32-1.49-0.54-2.34-0.19-0.78-0.47-1.02 0.72-0.72z" stroke="#666633" fill="#ffffff"/>
   <path d="m-195.41 132.77c-1.9-0.01-4.41 0.7-6.14 1.75-6.68 5.27-5.16 5.97-2.36 14.06 0.89 3.85 7.02 7.81 6.56 11.31-2.99-1.38-13.44 0.45-10.05 15.76l-0.14 20.51c14.23 5.22 22.62 0.53 32.64 0.7 3.83-12.87-12.09-35.44-11.63-37.08 0.97-2.15 3.54-6.21 4.32-8.15 2.93 0.38 3.69-1.54 3.75-2.92-3.2-4.36-4.36-8.35-7.43-12.78-3.05-1.84-6.35-3.13-9.52-3.16z" stroke="#333333" fill="#999966"/>
   <path d="m-189.21 125.67c-0.06 2.56 0.27 4.74 1.13 7.2 0.62 2.16 5.76 4.17 6.17 9.47-2.28 0.68-5.16 1.3-6.23 4.51-5.75-4.32-10.76-3.9-17.1 0.25-5.41-13.09 9.68-12.36 8.77-21.48 1.8-0.31 5.2-0.75 7.26 0.05z" stroke="#663300" fill="#ffcccc"/>
   <path d="m-209.75 94.128s6.63-11.987 14.28-12.497c5.61-0.374 16.06 10.398 15.05 8.926-1-1.452-28.21 2.939-29.33 3.571z" stroke="#666633" fill="#cc9966"/>
   <path d="m-187.09 86.742c0.57-0.582-2.01-6.964-1.26-3.246 0.16 0.823-0.01-5.903 2.34-6.492 0.79-0.196 0.83 1.645 1.63 1.803 1.98 0.396 0.34-1.643 1.98 0 0.32 0.324 0.84-0.711 1.26-0.541 2.61 1.042 6.95 2.639 8.48 3.787 0.54 0.41-0.36 2.174-0.36 2.886 0 0.236 0.03 2.306-0.54 2.885-1.33 1.33 1.13 2.705-1.09 2.705-3.53 0-5.05-0.536-5.05 1.443 0 0.613-1.25-0.635-1.8-0.361-1.25 0.628-2.23 0.109-2.52-1.082-0.16-0.62-0.87-0.976-1.45-1.262-0.16-0.082-0.97-1.409-1.08-1.623-0.16-0.314-0.36-0.601-0.54-0.902z" stroke="#666633" fill="#ffffff"/>
   <path d="m-204.58 84.758c-0.58-1.501-1.6-1.231-3.25-0.901-0.14 0.027 0.83 0.721-0.9 0.721-0.44 0-0.84 0.24-1.26 0.361-0.13 0.035 0.34 0.953-2.35 1.442-0.77 0.142-1.56 0.241-2.34 0.361-1.18 0.182 0.22 2.146 0.72 2.344 0.89 0.358-0.23 1.953 0 2.886 0.43 1.719 1.26 1.623 2.71 1.623 0.58 0 2.87 0.005 3.6-0.361 1.15-0.572 2.14-1.442 3.79-1.442 1.91 0 2.24-1.6 2.88-2.886 0.3-0.6-0.95-2.208-1.08-2.705-0.25-1.003-1.55-0.859-2.52-1.443z" stroke="#666633" fill="#ffffff"/>
  </g>
  <g stroke-width="1.1594px">
   <path d="m-213.6 74.659c12.83-0.002 12.41 3.849 14.97 10.28" stroke="#333300" fill="none"/>
   <path d="m-205.03 109.01c-4.15-1.62-16.68-2.61-14.7-10.907 1.98-8.295 20.56-14.968 30.3-11.361 9.73 3.607 11.72 4.328 14.96 1.623 3.25-2.705 11-0.721 10.64 2.164-0.36 2.886-28.4 21.731-41.2 18.481z" fill-rule="evenodd" stroke="#666633" fill="#cc9966"/>
   <path d="m-190.24 94.006c3.53-0.479 8.26 1.66 9.68 5.977 0.5 5.307 0.86 10.677 0.77 16.017-1.64 6.18-1.12 13.15-8.87 17.11-11.03-2.46-12.83-11.87-14.3-18.48 1.36-6.28-1.14-11.43 2.95-16.794 2.81-2.537 7.35-4.482 9.77-3.83z" fill-rule="evenodd" stroke="#663300" fill="#ffcccc"/>
   <path d="m-185.2 111.24c-0.45 0.27 1.04 3.28 1.77 3.94-0.54 0.35-0.71 0.64-2.16 0.82" stroke="#663300" fill="none"/>
  </g>
  <g stroke-width="1.1594px" fill-rule="evenodd">
   <path d="m-189.3 91.995c10.38-2.443 14.93 9.865 14.24 18.355-0.17 4.52-0.2 6.48-3.4 9.45 0.12 0.86 1.46 4.25 1.75 4.99-1.75-0.74-3.11-1.66-3.66-3.51 0.8-7.49 0.72-11.42 0.1-16.74-0.81-7.355-12.49-9.62-9.03-12.545z" stroke="#330000" fill="#663300"/>
   <path d="m-187.45 109.51c-0.21-3.18-3.6-4.99-5.64-3.71-0.34 1.9-0.07 4.08 1.15 5.99 3.5 1.91 4.23-0.03 4.49-2.28z" stroke="#333333" fill="#ffffff"/>
   <path d="m-187.55 93.669c2.25 3.669 0.82 7.701-1.34 11.081-1.21 1.55-2.36 2.34-3.75 3.69-2.75 3.18-6.34 5.58-8.41 9.28-1.33 3.67 0.9 7.47 0.99 11.37-7.03-5.55-9.03-11.34-8.26-16.79 0.14-7.65-0.93-16.514 7.46-19.938 4.38-2.563 9.66-2.123 13.31 1.307z" stroke="#330000" fill="#663300"/>
   <path d="m-183.07 124.01c-0.72-0.7-1.27-2.26-2.5-1.47-0.78 0.5-1.67 1.2-2.72 0.05-0.81-0.88-4.25 0.95-4.87 1.5 0.83 0.88 4.45 1.96 5.14 2.05 2.29 0.13 3.22-0.63 4.95-2.13z" stroke="#330000" fill="#990000"/>
   <path d="m-179.78 106.7c0.46 2.77-0.28 5.58-2.87 5.82-2.06-1.26-1.96-2.02-1.42-4.19 2.26-2.02 3.22-2.33 4.29-1.63z" stroke="#333333" fill="#ffffff"/>
  </g>
  <g fill-rule="evenodd" stroke-width="1.1594px">
   <path d="m-180.64 108.52c-1.09-1.03-1.88 0.3-2.1 0.7-0.69 1.28-0.05 2.07 0.88 2.42 2.13 0.25 2.16-2.82 1.22-3.12z" stroke="#003300" fill="#009900"/>
   <path d="m-188.5 111.57c0.63 0.79 0.9-3.27-0.33-3.29-1.44-0.03-2.07 1.7-2.09 1.86-0.22 1.82 1.11 2.15 2.42 1.43z" stroke="#003300" fill="#009900"/>
   <path d="m-190.86 149.06c-1.95 7.61-10.73 2.47-8.44-1.65" stroke="#333333" fill="#999966"/>
   <path d="m-181.8 151.82c-2.06 0.04-3.85-0.72-4.52-2.98" stroke="#333333" fill="#999966"/>
   <path d="m-197.17 138.88c-0.85 0.1-1.4 2.41-1.62 2.3-0.46-0.23-1.53-0.65-1.53-0.13 0 3.3-0.21 0.38-2.03 0.38-1.35 0-1.49 1.82-1.53 2.55 0.6 0.45 0.36 0.25 0.76 0.65 0.23 0.23 0.41 0.56 0.61 0.88 5.1-2.57 9.48-2.33 14.38 1.35 1.07-3.21 3.94-3.83 6.23-4.51-0.1-1.23-0.46-2.28-0.95-3.2-0.51-0.16-1.07-0.3-1.4-0.13-0.37 0.18-0.6 0.34-0.74 0.47 2.65 0.63-1.03 0.93 0 0-0.13-0.03-0.25-0.06-0.41-0.09-1.48-0.3-0.69 2.12-0.88 2.03-0.91-0.46-1.42-0.58-1.42 0.9 0 2.12-0.52-0.39-0.63-0.25-0.81 1.08-1.61-0.07-3.07-1.53-0.26-0.27-0.93 0.87-1.01 0.5-0.18-0.9-2.08-2.39-2.93-1.54-1.42 1.43-0.44-0.32-1.67-0.63-0.06-0.01-0.1 0-0.16 0z" stroke="#666633" fill="#ffffff"/>
  </g>
  <path d="m-198.4 160.31s6.38 2.93 7.14 3.32c0.77 0.38 4.97-1.79 4.97-1.79l1.28 2.68s-3.7 2.29-4.85 2.04c-1.14-0.26-10.71-4.21-10.71-4.21l2.17-2.04z" fill-rule="evenodd" stroke="#333333" stroke-width="1.1594px" fill="#996633"/>
  <path d="m-202.68 136.94c-5.19 0.54-7.64 8.27-9.81 12.38 2.03 4.4 5.78 10.19 10.09 12.98 0.1 0.89 0.32 2.16 0.18 2.69-0.93 1.46 1.03 3.21 3.03 3.83 2.29-0.1 2.45-2.44 3.8-4.17-0.02-2.62-2.8-2.56-4.73-3.83 0-0.11 0-0.23-0.02-0.36-1.5-2.76-5.37-6.61-6.45-9.56 2.18-1.26 3.69-2.97 4.87-5.23 0.53-0.71 1.38-1.47 1.58-2.26" fill-rule="evenodd" stroke="#663300" stroke-width="1.1594px" fill="#ffcccc"/>
  <g stroke-linejoin="round" stroke-dashoffset="0pt" stroke="#666633" stroke-width="1.6073" fill="#ffffff">
   <path d="m76.368 227.26a2.2097 2.2097 0 1 1 -4.42 0 2.2097 2.2097 0 1 1 4.42 0z" transform="matrix(.72136 0 0 .72136 -251.7 -32.251)"/>
   <path d="m76.368 227.26a2.2097 2.2097 0 1 1 -4.42 0 2.2097 2.2097 0 1 1 4.42 0z" transform="matrix(.72136 0 0 .72136 -249.03 -30.593)"/>
   <path d="m76.368 227.26a2.2097 2.2097 0 1 1 -4.42 0 2.2097 2.2097 0 1 1 4.42 0z" transform="matrix(.72136 0 0 .72136 -246.09 -29.063)"/>
   <path d="m76.368 227.26a2.2097 2.2097 0 1 1 -4.42 0 2.2097 2.2097 0 1 1 4.42 0z" transform="matrix(.72136 0 0 .72136 -243.03 -28.298)"/>
   <path d="m76.368 227.26a2.2097 2.2097 0 1 1 -4.42 0 2.2097 2.2097 0 1 1 4.42 0z" transform="matrix(.72136 0 0 .72136 -239.84 -29.063)"/>
  </g>
  <g stroke="#333333" stroke-width="1.1594px" fill="none">
   <path d="m-189.73 150.24l3.06 2.8"/>
   <path d="m-190.37 153.04l2.94 2.3"/>
   <path d="m-190.88 156.36l2.94 2.04"/>
   <path d="m-190.75 160.18l2.68 1.41"/>
   <path d="m-186.8 150.87l-2.29 1.92"/>
   <path d="m-187.43 153.55l-2.55 1.79"/>
   <path d="m-188.45 156.23l-1.53 2.17"/>
   <path d="m-188.45 159.67l-1.53 2.55"/>
  </g>
  <path d="m-209.63 99.726l5.05-3.246 7.21-2.344 11.36-0.721 11 0.721-0.54-2.344-13.88-2.706-17.5 2.886-2.7 7.754z" fill-rule="evenodd" fill="#cc9966"/>
  <g fill="none" stroke-width="1.1594px">
   <path d="m-209.45 100.09c9.41-9.168 21.67-6.356 33.36-5.954" stroke="#666633"/>
   <path d="m-185.29 83.316c0.23-2.884 1.09-1.703 1.09 0.901 0 0.213 3.77-4.74 4.32-2.524 0.31 1.205-2 3.305 0 1.803 0.78-0.582 0.13 1.945 0.36 2.885 0.03 0.121 2.38-2.587 0.91 0.361-0.05 0.097 1.09-1.405 1.44 0 0.1 0.41 0.09 0.434 0.18 0.902" stroke="#666633"/>
   <g stroke="#333300">
    <path d="m-210.89 72.135l2.52 3.065-2.88 2.525"/>
    <path d="m-206.21 72.856l2.17 3.246-4.15 3.066"/>
    <path d="m-200.8 76.102l0.55 4.328-5.23 0.722"/>
   </g>
  </g>
  <g fill-rule="evenodd" stroke="#666633" stroke-width="1.1594px" fill="#ffffff">
   <path d="m-160.76 144.09c-0.68-0.6-1.61-1.66-2.89-1.98-1.34-0.34-2.08 0.59-2.34 1.62-0.49 1.95-0.2 0.8-0.36 1.44-0.15 0.59 0.86 1.23 1.44 1.08 0.65-0.16 0.18 1.32 0.18 1.99 0 0.13 0.73-0.73 0 1.08-0.23 0.58 1.53-0.02 1.81 0.54 0.04 0.08 0.86-1.05 1.26 0.54 0.29 1.17 1.77-1.13 1.8-1.26 0.2-0.8 0-2-0.18-2.71-0.25-0.98-0.33-1.38-0.72-2.34z"/>
   <path d="m-155.91 140.69c-0.01-0.01-0.03 0-0.05 0.02-0.42 0.58-1.87 3.44-2.97 2.84-0.7-0.38-3 0.72-3.11 1.17-0.02 0.01-0.02 0.02-0.03 0.02-0.71 1.1-0.69 2.2 0.99 3.29 1.1-0.28 2.82-0.09 2.64 0.34 3.29 0.12 10.35-0.96 9.42-2.43 0.29-0.28 1.39-1.22 0.37-1.22-2.29 0-5.77 0.24-8.03-0.07 0.18-1.02 0.9-3.91 0.77-3.96z"/>
   <path d="m-201.7 162.12c-0.58-0.34-1.66 0.18-2.7 0.18-0.69 0-0.78-1.13-1.26-1.62-0.12-0.11 1.14-0.6 1.98-0.18 0.61 0.3 0.9-1.03 1.44-1.44 0.19-0.14 1.06-0.45 1.44-0.54 0.96-0.24-0.13-2.08 0.91 0 0.55 1.11 0.93 0.07 0.54 1.62-0.2 0.81-0.35 1.62-1.08 1.8-1.26 0.32 1.18 0.18-1.27 0.18z"/>
   <path d="m-200.23 160.32l-2.8 1.56c0.21 0.14 0.43 0.29 0.63 0.42 0.1 0.89 0.32 2.16 0.18 2.69-0.93 1.46 1.03 3.21 3.03 3.83 2.29-0.1 2.45-2.44 3.8-4.17-0.02-2.62-2.8-2.56-4.73-3.83 0-0.11 0-0.23-0.02-0.36-0.03-0.05-0.07-0.09-0.09-0.14z"/>
  </g>
  <g fill-rule="evenodd">
   <path d="m-155.53 141.63c-2.3 0.89-2.44 4.08-1.86 6.14 0.48 1.8-0.03 4.82 1 5.92 2.26 0.15 0.26-3.07 0.61-4.44-0.03-1.96-1.18-4.71 0.52-6.11 0.17 2.01 3.42 2.76 2.07 0.49-0.64-0.74-1.11-2.19-2.34-2z" fill="#330000"/>
   <path d="m-156.43 156.17c-0.43-0.75-0.6-1.65-1.62-2.16-0.96-0.48-2.29-0.85-2.53-0.9-0.67-0.14 1.68 0.07 1.98-0.54 0.33-0.65 1.59 0.25 2.17-0.18 0.41-0.31 0.8 1.13 1.26 0.9 1.27-0.64-0.31-2.23 1.26-1.45 0.75 0.38 1.66-0.34 2.17-0.72 1.05-0.78-0.23 0.95-0.36 1.09-0.76 0.75-1.31 1.17-1.81 2.16-0.51 1.03 1.52 1.51-0.36 1.98-0.61 0.16-1.61-0.07-2.16-0.18z" stroke="#666633" stroke-width="1.1594px" fill="#ffffff"/>
   <path d="m-153.37 154.73l-3.6 0.36c-2.45 5.48 2.55 33.02 5.79 40l-0.04-2.12c0.95-5.91 0.39-30.08-2.15-38.24z" stroke="#666633" stroke-width="1.1594px" fill="#ffffff"/>
  </g>
  <g stroke="#333333" stroke-width="1.1594px" fill="none">
   <path d="m-187.43 153.55l-2.55 1.79"/>
   <path d="m-190.5 169.06l2.68 1.4"/>
   <path d="m-188.2 168.55l-1.53 2.55"/>
   <path d="m-188.87 173.43l2.67 1.41"/>
   <path d="m-186.58 172.92l-1.53 2.55"/>
   <path d="m-186.87 177.81l2.67 1.4"/>
   <path d="m-184.58 177.3l-1.53 2.55"/>
  </g>
  <g fill-rule="evenodd" stroke="#666633" stroke-width="1.1594px" fill="#666633">
   <path d="m-182.87 200.31l2.67 1.4"/>
   <path d="m-180.58 199.8l-1.53 2.55"/>
   <path d="m-195.12 201.06l2.67 1.4"/>
   <path d="m-192.83 200.55l-1.53 2.55"/>
  </g>
 </g>
</svg>
