<?xml version="1.0" encoding="UTF-8" standalone="no"?>
<svg xmlns:rdf="http://www.w3.org/1999/02/22-rdf-syntax-ns#" xmlns="http://www.w3.org/2000/svg" height="128" width="128" version="1.0" xmlns:cc="http://creativecommons.org/ns#" xmlns:dc="http://purl.org/dc/elements/1.1/">
 <defs>
  <filter id="filter3591" height="1.6247" width="1.1399" y="-.31237" x="-.069937">
   <feGaussianBlur stdDeviation="1.9097902"/>
  </filter>
 </defs>
 <g transform="translate(-110.34 -43.775)">
  <g fill-rule="evenodd">
   <path d="m175.5 158c-4.92 0.98-13.45 0.01-19.5-1.5-5.28 1.49-11.03 1.27-16.5 2.5-6.34 4.45 2.69 8.24 7 8.5 5.71 0.6 9.99-3.33 15.5-1 6.05 0.94 12.08-0.36 18.5 0 7.05 0.74 12.46-3.98 19-5.5 3.75-0.75 3.65-0.39 3-3-13.16-9.03-16.71-4.18-27 0z" fill-opacity=".63374" filter="url(#filter3591)"/>
   <g stroke-width="1px">
    <path d="m155.39 122.78c-0.82 2.1-2.3 1.93-3.89 0.88-1.95 0.22-3.71-0.01-5.66-0.35-3.29 2.3 0.57 3.53 2.65 4.07 1.35 0.67-0.28 1.73-0.7 1.94-2.18 1.46-5.79 1.3-3.36 4.07 2.08 0.03 2.71-1.98 4.59-1.24-1.73 3.02-5.47 3.47-3 5.48 0.76 0.57 2.43-1.16 3-1.59 0.92-0.69 0.67-1.49 1.77-1.77 0.72-0.18-0.36 2.83-0.88 3.36-0.49 2.46 1.45 1.59 3.18-0.53 1.45-1.04 2.01-3.14 2.47-4.77 1.4-2.11 3.51-3.25 4.25-5.84 0.38-3.02-1.76-3.94-4.42-3.71z" stroke="#333333300" fill="#ffcc99"/>
    <path d="m169.54 101.09c-3.96 2.05-4.12 7.23-6.08 10.98-2.48 4.23-8.04 5.57-8.78 10.57 1.68 1.99 3.81 5.22 6.06 6.05 2.65-2.7 5.39-7.37 7.12-10.77 2.07-3.64 4.69-5.57 6.51-9.28" stroke="#333333333" fill="#333333"/>
    <path d="m167.86 156.25c-3.92 1.15-7.64 1.04-11.35 3.14-1.1 0.55-1.38 0.38-0.84 1.47 3.07 2.23 8.95 0.96 12.61 0.21 2.55-0.07 4.2-1.86 6.73-2.31 0.99 0.5-0.13 1.55 1.26 1.89 0.66 0.17 2.37-0.28 2.94-0.42 0.97-1.35 0.91-4-0.84-4.4-3.54-0.37-7-0.09-10.51 0.42z" stroke="#000000" fill="#333333333"/>
    <path d="m185.93 156.46c-3.21 0.5-3.54 3.23-6.8 3.41-1.99 0.19-5 1.54-4.83 3.56 3.51 2.2 6.23 0.55 10.14-0.14 2.5-0.07 3.27-3.75 5.49-3.9 0.99 0.5-0.13 1.54 1.26 1.89 0.66 0.17 2.37-0.28 2.94-0.42 0.97-1.35 2.32-4.18 0.57-4.58-2.48-0.09-6.29-0.12-8.77 0.18z" stroke="#000000" fill="#333333333"/>
   </g>
  </g>
  <g fill-rule="evenodd" stroke="#333333333" stroke-width="1px" fill="#333333">
   <path d="m184.04 132.34c1.92 4.8 2.02 9.4 1.26 14.47 0.43 2.15-2.24 8.12-1.88 10.65 3.36-1.21 9.02-0.57 12.47-0.57 1.67-3.31-0.4-8.86-0.4-12.7-0.52-4.2 2.92-8.05 3.26-12.06-4.23-0.51-10.14-0.8-14.71 0.21z"/>
   <path d="m167.86 132.34c3.23 6.93 2.28 15.15-0.25 23.26 0.8 2.25 8.36 0.23 11.39 0.23 1.42-4.67-0.23-10.06 1.26-16.99 0.97-2.27 2.1-4.2 2.31-6.71-4.82-0.64-10.23-0.5-14.71 0.21z"/>
   <path d="m201.41 139.51c0.15-6.92 1-15.73 1.27-22.74-0.02-6.37 0.77-14.65-2.62-20.323-2.09-2.494-1.73-3.054-4.46-4.8-7.71 1.714-16.44-2.027-23.96 2.308-4.7 5.132-6.05 14.005-6.3 20.765 0.57 8.95-0.42 17.93-0.42 26.85 4.64-0.37 9.3-1.05 14.08-1.05 7.15-2.11 15.24 2.46 22.41-1.01z"/>
  </g>
  <g stroke-width="1px" fill-rule="evenodd">
   <path d="m171.92 95.92l18.64 0.132-12.09 20.648-6.55-20.78z" stroke="#000000" fill="#ffffff"/>
   <path d="m178.21 106.88l-0.18 9.55c1.12-0.86 1.89-3.04 3.01-5.31l0.35-4.95-3.18 0.71z" stroke="#660000" fill="#cc0000"/>
   <path d="m178.39 102.11l-1.06 3.18 0.88 1.59 3.71-0.35-1.23-4.07-2.3-0.35z" stroke="#660000" fill="#cc0000"/>
   <path d="m180.51 101.75l2.47 4.6c1.49-2.47 3.04-4.85 4.78-6.894-2.41 0.298-5.47 0.634-7.25 2.294z" stroke="#999999" fill="#ffffff"/>
   <path d="m178.57 101.58l-3.19 5.48-2.12-7.604 5.31 2.124z" stroke="#999999" fill="#ffffff"/>
  </g>
  <g fill-rule="evenodd" stroke-width="1px">
   <path d="m177.61 116.48c-2.46-3.36-6.16-8.5-8-12.26 0.87 0.09 2.33 0.03 2.11-1.55-0.94-1.94-3.96-3.583-5.38-5.941 0.92-0.23 4.39-0.773 5.59-0.773 4.57 5.654 5.75 13.404 5.68 20.524z" stroke="#333333333" fill="#333333"/>
   <path d="m196.02 91.018c-3.23 1.956-6.67 3.606-10.09 5.244 0.59 10.958-7.02 14.348-7.88 21.308 6.6-3.25 7.51-13.72 14.4-15.79 0.66-0.66-2.36-0.76-4.33-0.45 1.93-4.703 8.53-5.605 12.52-8.634-1.55-0.593-3.02-1.379-4.62-1.678z" stroke="#333333333" fill="#333333"/>
   <path d="m169.77 63.026c-4.28 7.419 0.24 17.543-3.26 30.218 0.91 5.525 4.95 7.106 8.26 8.216 3.77 0.76 7.44 0.72 10.63-1.496 6.89-4.111 10.92-8.899 13.34-16.446 0.25-5.577-2.34-11.168-2.32-16.779-0.32-5.679-4.35-8.724-9.45-10.079-6.07-1.022-12.9 2.332-17.2 6.366z" stroke="#333333300" fill="#ffcc99"/>
   <path d="m194.33 58.717c-5.36-0.903-2.95-10.496-8.83-9.445-3.05-0.39-6.17 2.248-9.45-0.786-2.39 1.761-4.88 5.499-5.11 8.64 5.85 1.738 17.06 3.572 23.39 1.591z" stroke="#333333333" fill="#333333"/>
   <path d="m173.37 76.01c-2.94 6.338-6.62 4.836-8.04 8.541 2.59 4.378 5.88 2.947 9.05-0.393" stroke="#333333300" fill="#ffcc99"/>
   <path d="m194.45 70.807c5.04-8.083 10.35 6.415 1.57 6.676" stroke="#333333300" fill="#ffcc99"/>
  </g>
  <g stroke-width="1px">
   <path d="m166.75 92.565c6.72 4.994 15.48 3.06 20.62-3.66" stroke="#333333300" fill="none"/>
   <path d="m179.02 70.3c-1.29 2.103-1.66 5.587 0.56 6.942 5.45 0.078 5.23-2.941 5.28-5.831 0.01-3.243-4.74-3.571-5.84-1.111z" fill-rule="evenodd" stroke="#333333" fill="#ffffff"/>
   <path d="m169.62 69.567c-2.47 3.041-1.69 5.938 0.82 6.918 1.29 0.5 2.77-1.501 3.34-3.231 1.15-2.877-1.07-5.157-4.16-3.687z" fill-rule="evenodd" stroke="#333333" fill="#ffffff"/>
  </g>
  <g fill-rule="evenodd" stroke="#000000" stroke-width="1px">
   <path d="m170.7 72.118c-1.67 0-1.48 2.967-0.56 3.888 2.75 0.519 4.28-4.386 0.56-3.888z"/>
   <path d="m182.36 72.32c-0.37-1.678-3.77 2.283-2.23 4.165 3.51 0.803 4.19-1.156 2.23-4.165z"/>
   <path d="m171.04 56.006c9.13-1.8 13.22-1.92 20.59-1.094l1.52 4.419-22.64 0.375c-0.05-2.077-0.72-2.054 0.53-3.7z"/>
  </g>
  <g stroke-width="1px">
   <path d="m167.14 67.478c-3.35-0.646-6.87-0.047-6.97-4.101 8.28-6.639 31.41-8.689 40.09-2.477 6.6 3.561 0.72 5.472-3.63 5.745-5.66-7.243-21.43-7.182-29.49 0.833z" fill-rule="evenodd" stroke="#333333333" fill="#333333"/>
   <path d="m178.05 116.33c-0.18 6.58-1.26 5.77-1.99 12.32-0.37 1.58-0.27 10.35 0.21 11.87" stroke="#333333333" fill="none"/>
   <path d="m202.23 128.08c-0.87-0.22-0.66 3.44-1.06 4.25-1.94 1.54-3.28 0.67-3.89 3.35-0.27 1.1 2.62-0.62 3.72-0.35 2.69 1.36-3.91 5.27-0.89 6.9 2.09-0.66 3.97-3.93 4.77-5.84 0.85 1.23-2.58 8.55 0.18 7.43 2.38-0.76 1.78-4.98 2.3-6.9 0.45 1.91 0.17 4.94 2.47 4.6 1.9-1.64 0.98-6.32-1.06-8.66-0.86-1.32-0.51-3.18-0.7-4.78-0.88-4.09-4.72-4.24-5.84 0z" fill-rule="evenodd" stroke="#333333300" fill="#ffcc99"/>
   <path d="m199.15 100.41c5.41 5.06 4.3 9.15 7.55 13.61 0.32 3.5 1.53 9.64 2.14 13.07-1.63 0.58-6.26 3.86-7.78 2.52-0.5-4.32-1.01-8.5-1.89-12.79-1.44-4-2.77-9.43-5.44-12.84" fill-rule="evenodd" stroke="#333333333" fill="#333333"/>
   <path d="m185.64 111.83l7.6 0.18-0.18 2.47-7.6-0.35 0.18-2.3z" stroke="#333333333" fill="none"/>
   <path d="m196.38 71.125c2.85-1.429 3.47 2.534 0.62 4.125" transform="translate(-.0000041178)" stroke="#333333300" fill="none"/>
  </g>
 </g>
</svg>
