<?xml version="1.0" encoding="UTF-8" standalone="no"?>
<svg xmlns:rdf="http://www.w3.org/1999/02/22-rdf-syntax-ns#" xmlns="http://www.w3.org/2000/svg" height="128" width="128" version="1.0" xmlns:cc="http://creativecommons.org/ns#" xmlns:dc="http://purl.org/dc/elements/1.1/">
 <defs>
  <filter id="filter3443" height="1.6533" width="1.2503" y="-.32663" x="-.12514">
   <feGaussianBlur stdDeviation="1.9634296"/>
  </filter>
 </defs>
 <g fill-rule="evenodd">
  <path d="m69.729 68.102c-3.18 0.909-6.935 1.268-10.049 0.109-1.245-0.966 0.208-2.726-1.504-3.354-1.367 0.479-1.576 1.874-1.781 3.216-1.949-0.729-3.701-2.348-5.563-0.263 0.751 1.135 2.231 1.809 3.492 2.002-1.413 0.295-4.383-0.596-2.927 1.96 1.122 1.194 2.479 0.401 3.934 0.318-1.494 1.221-3.88 1.803-0.939 2.871 1.266-0.001 2.069-0.7 2.982-1.463 1.242-0.31 2.613-0.005 3.907 0.069 2.853 1.287 5.884 1.405 8.972 1.52 2.172-2.067 5.702-0.601 7.91-2.387 1.018-0.543 1.885-1.05 2.692-1.808 0.49-2.886-0.577-5.072-3.312-6.047-3.594-1.105-5.092 2.296-7.814 3.257z" stroke="#333333300" stroke-width="1px" fill="#ffcc99"/>
  <path d="m25.75 108.25c-3.688 2.1-8.395 0.18-11 3.75-1.367 3.36 0.047 4.6 3.25 5.5 2.446 0.61 4.152 1.25 7 1.25 6.261-1.7 12.468 0.2 18.75 0.25 6.056-0.74 11.981 0.3 18 0.25 1.378 0 2.952 0.29 4.125-0.31 2.249 1.26 4.821 1.08 8.156 2.22 2.277 0.57 4.241 0.9 7.094 0.9 2.9 0 4.686 1.44 7.563 0 2.231-1.11 4.282-0.76 6.218-2.22 1.513-1.13 2.246-3.13 2.688-4.9 0.784-3.14-1.881-3.6-3.563-4.44-2.161-1.08-5.908-0.41-7.562 0-1.774 0.44-3.316-2.25-5.781-2.25-2 0-1.05 1.78-4.438 1.78-4.798 0.37-6.449-2.4-9.938-0.28-11.298 1.17-30.727-3.42-40.562-1.5z" fill-opacity=".72840" filter="url(#filter3443)"/>
  <path d="m24.787 116.07c5.833 0.88 11.871-0.07 17.963-0.32 7.271-0.29 14.489-0.92 21.75-1.25 1.909 0 2.25 0.18 2.25-1.75-1.868-7.68-2.892-15.209-1.47-23.146 1.128-5.674 0.486-11.628-1.28-17.104-3.916-1.092-5.122-4.548-9.029-5.282-4.151 0-13.726-1.109-17.627-0.329-6.191 0.787-13.231 0.157-19.457-0.177-2.148 0-2.604 0.323-1.22 1.707 0.618 6.464-1.292 13.227 0.031 20.659 2.147 7.07 0.097 14.542 1.159 21.752 0.834 2.24 5.077 4.78 6.93 5.24z" fill="#cccccc"/>
  <path d="m24.787 116.07c5.833 0.88 11.871-0.07 17.963-0.32 7.271-0.29 14.489-0.92 21.75-1.25 1.909 0 2.25 0.18 2.25-1.75-1.868-7.68-2.892-15.209-1.47-23.146 1.128-5.674 0.486-11.628-1.28-17.104-2.291 1.033-4.247 2.577-8.154 1.843-4.151 0-12.851-1.734-16.752-0.954-6.191 0.787-7.856 0.157-14.082-0.177-2.148 0-1.604 2.698-0.22 4.082 0.618 6.464-1.542 9.352-0.219 16.784 2.147 7.072-0.653 5.793 0.409 13.002 0.834 2.24-2.048 8.53-0.195 8.99z" fill="#999999"/>
  <path d="m84.942 106.47c-2.719 0.92-6.589 0.98-9.401 2.65-0.569 0.82-0.722 1.84-1.002 2.79-0.07 1.3 0.547 2.23 1.352 3.18 2.369 1.4 5.319 1.11 7.978 1.06 2.277 0.3 5.032 0.22 6.896-1.24 2.815-1.87 2.767-4.11 3.041-7.32-2.973-0.27-5.921-0.63-8.864-1.12z" stroke="#333333" stroke-width="1px" fill="#fffffffff"/>
  <path d="m85.012 85.471c-0.145 0.779-0.889 2.802-0.625 4.125 0.204 1.016 0.508 2.031 0.75 3 0.519 2.545-0.445 4.982-0.625 7.504 0.516 2.2-0.136 5.69 1.375 7.25 2.63 1.98 6.665 1.89 8.125-0.63-0.25-1-0.059-1.6-0.5-2.62-1.286-2.74-0.677-5.868-0.25-8.754 0.058-3.791 7.308-7.633 7.168-11.427-2.169-0.801-14.049-0.044-15.418 1.552z" stroke="#000000033" stroke-width="1px" fill="#003366"/>
 </g>
 <g stroke-width="1px">
  <path d="m75.062 113.07c2.976 1.18 6.268 2.08 8.818 1.53 2.94 0.1 5.604-0.07 8.721-2.46" stroke="#333333" fill="none"/>
  <path d="m79.527 108.35c-2.621 1.17-6.47 1.58-9.115 3.51-0.49 0.86-0.548 1.9-0.739 2.87 0.051 1.3 0.751 2.17 1.642 3.04 2.488 1.18 5.399 0.61 8.041 0.32 2.295 0.08 5.031-0.25 6.752-1.88 2.629-2.13 2.374-4.34 2.349-7.57-2.984 0.01-5.954-0.07-8.93-0.29z" fill-rule="evenodd" stroke="#333333" fill="#fffffffff"/>
  <path d="m82.538 84.764c-0.146 0.779-4.072 4.393-3.807 5.716 0.203 1.016 0.507 2.031 0.75 3 0.518 2.545-0.446 4.982-0.625 7.5 0.515 2.21-0.137 5.7 1.375 7.25 2.63 1.99 6.664 1.89 8.125-0.63-0.251-1-0.06-1.59-0.5-2.62-1.286-2.74-0.677-5.864-0.25-8.75 0.057-3.791 11.02-9.224 10.878-13.018-2.168-0.801-14.578-0.044-15.946 1.552z" fill-rule="evenodd" stroke="#000000033" fill="#003366"/>
  <path d="m70.302 115.84c3.072 0.89 6.433 1.48 8.922 0.7 2.935-0.18 5.572-0.59 8.455-3.26" stroke="#333333" fill="none"/>
 </g>
 <g stroke-width="1px" fill-rule="evenodd">
  <path d="m72.171 9.1847c-10.211 2.2253-12.737 9.8583-10.912 18.64 0.411 1.831 2.064 5.244 2.925 6.957 0.589 3.62 0.309 6.519 2.145 9.77 2.332 4.66 5.525 5.797 10.537 5.791 4.22-1.033 6.256-4.088 8.768-7.762 3.714-4.74 7.719-10.26 8.158-16.14-0.583-5.392-4.259-9.837-6.852-14.407-3.282-4.9009-9.852-4.7402-14.769-2.8493z" stroke="#333333300" fill="#ffcc99"/>
  <path d="m62.865 30.277c-0.391 2.415-2.713 3.561-3.951 4.791-0.612 2.681-0.209 4.596 2.79 3.972 2.09-0.997 2.917-2.624 3.202-4.783" stroke="#333333300" fill="#ffcc99"/>
  <path d="m63.45 25.293c-0.677 3.225 0.739 4.709 3.499 3.647 0.963 0.189 2.31-2.359 1.573-3.683-0.54-3.88-3.861-3.223-5.072 0.036z" stroke="#333333" fill="#ffffff"/>
  <path d="m65.275 26.714c0.3-0.432-2.055-0.587-1.489 1.359 0.439 1.508 2.369 1.457 2.89 0.889 1.045-1.141-0.871-2.687-1.401-2.248z" stroke="#000000"/>
  <path d="m95.28 26.523c-1.576 0.104 1.509 5.536 1.854 6.61 0.535 1.663 3.756 3.945 4.956 5.341 1.02 1.186 4.97-0.265 5.98-0.749 1.7-0.814 3.8 0.004 4.65 0.755 2.68 2.343 0.94-1.224 0.19-2.492-0.58-0.997-3.02-2.227-4.09-2.919-1.8-1.177-2.25-2.64-3.81-4-1.48-1.298-3.14-1.21-5.027-1.085-1.177 0.078-3.245-1.268-4.703-1.461z" stroke="#000000" fill="#330000"/>
 </g>
 <g fill-rule="evenodd" stroke-width="1px">
  <path d="m101.63 89.289c-2.74-3.07 0.95-9.243-1-12.881-0.44-6.101-3.19-14.009-5.047-18.723-0.972-2.986-3.886-3.47-5.872-5.884-2.159-2.085-3.05-2.235-6.063-1.887-3.738 1.203-3.271 0.76-6.938 2.225-2.603 1.692-4.2 4.04-4.005 7.123 0.322 2.758 0.919 5.193 0.064 7.875 0.353 4.455-2.832 9.51-1.477 13.809 1.74 4.974 0.954 6.738 2.377 11.751 3.996-3.271 11.778-0.062 16.703-1.464 3.958-2.209 9.182 1.685 11.258-1.944z" stroke="#000000" fill="#333333"/>
  <path d="m75.463 53.531c1.836 4.546 11.122 2.853 14.082-1.573-2.599-2.784-2.66-6.761-4.892-7.886-2.272-0.21-4.458 0.467-6.602 1.141-1.709 1.392-3.014 6.585-2.588 8.318z" stroke="#333333300" fill="#ffcc99"/>
  <path d="m91.471 32.188c-4.923 0.139-5.082 3.758-6.752 5.741-2.078 1.008-3.7 2.648-5.681 3.803-0.893 0.2-1.666 0.407-2.484 0.204-2.079-0.555-3.777-1.998-5.595-3.101-2.46-0.55-4.182-0.696-6.721-0.127-1.152 1.246-2.628 1.666-0.263 4.83 3.442-0.677 4.75-1.775 7.129-1.341 1.889 0.976 2.396 3.129 0.52 4.463-1.677 0.064-3.113 0.639-4.388-1.002-2.595 0.836-1.695 2.813-0.449 4.424 1.558 4.126 4.54 4.158 8.532 2.635 2.553-0.913 6.062-1.23 8.275-2.75 1.867-1.857 3.039-3.425 4.15-5.831 0.689-3.119 2.403-5.111 3.49-7.826-0.012-1.707 1.809-3.267 0.237-4.122z" stroke="#000000" fill="#330000"/>
 </g>
 <g stroke-width="1px" fill-rule="evenodd">
  <path d="m59.897 18.276c-2.786-9.4826 22.75-18.543 25.826-11.241 7.917-1.0957 12.204 17.749 7.964 24.749-0.6-0.592-2.027-0.271-2.461-1.293-1.835-4.316-2.908-11.685-6.591-10.15-3.575-0.356-1.396 3.786-2.043 4.624-6.271-2.214-1.892-9.258-7.938-10.358-2.468 1.705-5.529 4.169-8.969 2.01-2.406 0.539-3.555 2.02-5.788 1.659z" stroke="#000000" fill="#330000"/>
  <path d="m83.619 21.105c5.212-3.556 6.103 5.144 1.69 5.257" stroke="#333333300" fill="#ffcc99"/>
  <path d="m85.017 22.2c0.504-1.642 3.276 0.475 0.574 2.562" stroke="#333333300" fill="#ffcc99"/>
 </g>
 <g fill="none" stroke-width="1px">
  <path d="m66.488 44.355c1.031 0.188 1.334-0.103 2.928-0.657" stroke="#333333300"/>
  <path d="m63.666 73.497c-6.165 0.383-12.067 1.684-18.385 0.531-6.393-0.742-12.84-0.712-19.269-1.061-0.995 0-1.284 0.4-1.767 0.884 1.067 4.995 0.068 10.141-0.177 15.203 0.642 4.094 0.909 8.23 1.06 12.376-0.254 4.71-0.176 9.43-0.176 14.14" stroke="#333333"/>
  <path d="m24.787 116.07c5.833 0.88 11.871-0.07 17.963-0.32 7.271-0.29 14.489-0.92 21.75-1.25 1.909 0 2.25 0.18 2.25-1.75-1.868-7.68-2.892-15.209-1.47-23.146 1.128-5.674 0.486-11.628-1.28-17.104-3.916-1.092-5.122-4.548-9.029-5.282-4.151 0-13.726-1.109-17.627-0.329-6.191 0.787-13.231 0.157-19.457-0.177-2.148 0-2.604 0.323-1.22 1.707 0.618 6.464-1.292 13.227 0.031 20.659 2.147 7.07 0.097 14.542 1.159 21.752 0.834 2.24 5.077 4.78 6.93 5.24z" stroke="#333333"/>
 </g>
 <path d="m77.479 74.602c-3.18 0.909-6.935 1.268-10.049 0.109-1.245-0.966 0.208-2.726-1.504-3.354-1.367 0.479-1.576 1.874-1.781 3.216-1.949-0.729-3.701-2.348-5.563-0.263 0.751 1.135 2.231 1.809 3.492 2.002-1.413 0.295-4.383-0.596-2.927 1.96 1.122 1.194 2.479 0.401 3.934 0.318-1.494 1.221-3.88 1.803-0.939 2.871 1.266-0.001 2.069-0.7 2.982-1.463 1.242-0.31 2.613-0.005 3.907 0.069 2.853 1.287 5.884 1.405 8.972 1.52 2.172-2.067 5.702-0.601 7.91-2.387 1.018-0.543 1.885-1.05 2.692-1.808 0.49-2.886-0.577-5.072-3.312-6.047-3.594-1.105-5.092 2.296-7.814 3.257z" fill-rule="evenodd" stroke="#333333300" stroke-width="1px" fill="#ffcc99"/>
 <path d="m85.873 59.702c-1.41 2.117-2.284 4.37-3.04 6.769-0.917 2.352-2.241 4.46-3.714 6.49 3.643 2.146 9.21 3.454 13.371 4.894 0.88-1.925 2.206-4.25 3.124-6.165 1.258-2.573 1.15-9.278-1.294-11.107" fill-rule="evenodd" stroke="#000000" stroke-width="1px" fill="#333333"/>
 <g stroke="#333333" stroke-width="1px" fill="none">
  <path d="m16.107 66.962c5.682 4.238 2.727 3.349 8.704 7.142"/>
  <path d="m36.972 73.497c-1.864 0.97-3.347 3.327-4.596 4.95-0.455 1.404-0.846 2.038-1.767 2.828"/>
  <path d="m38.917 82.159c-0.365 1.462-3.957 3.277-4.596 5.834-0.44 1.76-2.101 3.652-3.359 4.596-1.62 1.215-2.622 2.157-4.066 3.889-0.82 0.984-1.072 1.459-1.414 2.829-0.053 0.212-0.276 0.413-0.354 0.53"/>
  <path d="m64.726 92.412c-0.671 2.48-1.924 4.002-3.889 5.481-1.071 1.071-1.484 2.257-2.121 3.537"/>
  <path d="m59.423 108.5c-2.022 0.87-3.868 2.09-5.657 3.36-1.13 1.06-1.502 2.55-2.828 3.36"/>
  <path d="m19.648 95.418c0.134 1.339 1.292 2.193 2.298 3.005 0.421 0.21 2.893 1.997 3.006 1.767-1.173 5.38-3.654 3.72-5.48 5.13"/>
  <path d="m37.149 73.497c-1.247 0.499-2.408-2.232-3.358-3.182-0.973-0.972-2.696-0.866-4.066-1.414"/>
  <path d="m16.643 74.204c0.212 0.808 3.092 4.176 3.889 6.188"/>
  <path d="m46.518 66.957c0.49 0.98 2.336 1.628 3.359 2.651 0.786 0.786 2.208 0.44 2.829 1.061"/>
 </g>
 <path fill="#ffffff" d="m72.909 68.012c-0.048-0.013-0.117 0.073-0.077-0.189-0.002-1.307-0.087-2.626-0.091-3.934-0.005-0.642-0.011-1.289 0.003-1.921 0.052-0.326 0.178-0.315 0.276-0.356 0.202-0.031 0.409 0.006 0.614 0.108 0.101 0.243 0.168 0.635 0.233 0.994 0.086 0.499 0.048 1.106-0.055 1.453-0.117 0.494-0.305 0.659-0.435 1.094-0.097 0.246-0.055 0.772 0.049 0.994 0.131 0.353 0.291 0.58 0.393 1.069 0.057 0.274 0.119 0.603 0.113 0.938-0.09 0.172-0.255 0.052-0.32-0.348-0.083-0.292-0.154-0.667-0.244-0.912-0.095-0.147-0.16-0.936-0.27-0.49-0.059 0.316-0.042 0.755-0.051 1.137 0.012 0.203-0.061 0.195-0.094 0.286-0.015 0.026-0.029 0.051-0.044 0.077zm0.137-3.045c0.206-0.331 0.426-0.648 0.577-1.257 0.071-0.249 0.063-0.724-0.032-0.96-0.143-0.434-0.332-0.404-0.499-0.447-0.153-0.136-0.082 0.59-0.08 0.916 0.024 0.582 0.022 1.166 0.034 1.748zm1.668 3.56c-0.001-0.904 0.016-1.813-0.042-2.724-0.031-0.639-0.062-1.278-0.092-1.918-0.079-0.314-0.212-0.302-0.316-0.407-0.127-0.076-0.301-0.238-0.338-0.777-0.013-0.41 0.181-0.109 0.256-0.176 0.407 0.11 0.817 0.166 1.223 0.503 0.093 0.07 0.268 0.273 0.214 0.717-0.072 0.283-0.202 0.179-0.304 0.155-0.12-0.045-0.24-0.106-0.359-0.133-0.09 0.405-0.025 0.999-0.002 1.493 0.043 1.038 0.05 2.083 0.027 3.102 0.006 0.411-0.069 0.766-0.193 0.485-0.037-0.05-0.076-0.166-0.074-0.32zm1.304-1.625c-0.074 0.255 0.012 0.788 0.031 1.145 0.033 0.406 0.094 0.881 0.038 1.257-0.083 0.292-0.272 0.036-0.272-0.451-0.055-1.368-0.067-2.735-0.088-4.099 0-0.437-0.019-0.895 0.009-1.311 0.124-0.375 0.309-0.35 0.471-0.371 0.157 0.021 0.323-0.011 0.474 0.252 0.057 0.263 0.192 0.684 0.155 0.993-0.243-0.167-0.492-0.446-0.733-0.331-0.128 0.07-0.093 0.685-0.096 1.043-0.013 0.437 0.048 1.014 0.195 1.045 0.164 0.109 0.332-0.209 0.492 0.118 0.138 0.359 0.006 0.857-0.114 0.814-0.183 0.072-0.374-0.007-0.562-0.104zm2.368 4.693c-0.045-0.53-0.034-1.078-0.043-1.613-0.014-1.738 0.015-3.462-0.008-5.203-0.024-0.092-0.09 0.369-0.131 0.481-0.106 0.437-0.243 0.794-0.376 1.102 0.062 0.237 0.227 0.55 0.189 0.862-0.085 0.401-0.228 0.175-0.292-0.25-0.179-0.718-0.354-1.445-0.538-2.144 0.025 1.536 0.056 3.076 0.059 4.607 0.004 0.42-0.171 0.598-0.246 0.253-0.061-0.393-0.037-0.838-0.049-1.251-0.009-1.397-0.017-2.794-0.007-4.183-0.001-0.433 0.136-0.506 0.233-0.384 0.121 0.187 0.229 0.55 0.276 0.999 0.051 0.268 0.107 0.93 0.208 0.771 0.136-0.44 0.277-0.865 0.411-1.315 0.065-0.295 0.174-0.495 0.184-0.918 0.057-0.27 0.258-0.251 0.261 0.225 0.028 0.903 0.025 1.802 0.05 2.704 0.02 1.389 0.01 2.772 0.051 4.164 0.026 0.374 0.051 0.836-0.058 1.021-0.043 0.108-0.125 0.326-0.174 0.072z"/>
</svg>
