<?xml version="1.0" encoding="UTF-8" standalone="no"?>
<svg xmlns:rdf="http://www.w3.org/1999/02/22-rdf-syntax-ns#" xmlns="http://www.w3.org/2000/svg" height="128" width="128" version="1.0" xmlns:cc="http://creativecommons.org/ns#" xmlns:dc="http://purl.org/dc/elements/1.1/">
 <defs>
  <filter id="filter3443" height="1.6533" width="1.2503" y="-.32663" x="-.12514">
   <feGaussianBlur stdDeviation="1.9634296"/>
  </filter>
 </defs>
 <g transform="translate(-580 76)">
  <path d="m639.44 35.482c-5.47 0.422-6.82-3.26-11.5 0.889-1.41 1.414-1.72 4.218-1.33 5.782 2.87 3.851 6 2.88 10.6 4.448 2.28 0.569 4.27 0.889 7.12 0.889 2.9 0 4.68 1.439 7.56 0 2.23-1.115 4.29-0.772 6.23-2.224 1.51-1.134 2.22-3.123 2.67-4.892 0.78-3.135-1.88-3.607-3.56-4.447-2.16-1.081-5.91-0.414-7.56 0-1.78 0.443-3.32-2.224-5.78-2.224-2 0-1.06 1.779-4.45 1.779z" fill-rule="evenodd" fill-opacity=".72840" filter="url(#filter3443)"/>
  <g stroke="#000000000" stroke-width="1px">
   <path d="m638.56 33.34c-2.36 3.085-5.54 3.832-8.74 4.307-0.6 0.719-0.32 0.287-0.28 1.173 0.24 0.764 0.51 1.512 0.71 2.298 2.75 0.257 5.79 1.905 8.67 0.98 3.02 0.039 6.07-1.018 8.57-2.836 0.57-1.71-0.05-4.028-0.18-5.922-2.78 0.875-5.95 0.733-8.75 0z" fill-rule="evenodd" fill="#330000"/>
   <path d="m630.25 39.615c3.25-0.556 6.5 1.578 9.89 1.124 3.14-0.104 4.77-2.388 7.08-2.538" fill="none"/>
   <path d="m649.79 33.87c-2.33 3.416-6.22 4.642-8.84 5.529-0.43 0.899-0.41 0.563-0.53 1.542 0.14 1.294 0.9 2.112 1.85 2.917 2.57 0.993 5.43 0.218 8.05-0.265 2.29-0.081 5-0.607 6.59-2.356 2.47-2.31 2.06-4.503 1.8-7.721-2.97 0.226-5.94 0.354-8.92 0.354z" fill-rule="evenodd" fill="#330000"/>
  </g>
  <g fill-rule="evenodd" stroke-width="1px">
   <path d="m626.92-10.349c-2.9 1.5894-6.17 2.5276-9.46 2.0848-1.43-0.6675-0.4-2.7048-2.21-2.9398-1.23 0.769-1.12 2.1765-1.03 3.53-2.06-0.2804-4.12-1.4727-5.48 0.9717 0.98 0.9409 2.58 1.2721 3.85 1.1816-1.31 0.5994-4.41 0.3869-2.42 2.5576 1.35 0.9177 2.5-0.1559 3.9-0.5584-1.18 1.5207-3.38 2.6159-0.28 3.0076 1.24-0.27984 1.86-1.1395 2.59-2.0851 1.14-0.5763 2.54-0.5816 3.82-0.7946 3.07 0.6248 6.98 1.906 10.02 1.3366 1.66-2.495 6.19-2.5816 7.95-4.811 0.87-0.7538 5.3-5.899 5.92-6.816-0.16-2.923-1.69-4.82-4.57-5.166-4.87-1.597-14.15 2.152-12.6 8.501z" stroke="#333333300" fill="#ffcc99"/>
   <path d="m649-30.625c-0.28-0.004-0.56 0.015-0.84 0.031-1.68 0.098-3.32 0.56-4.94 1.032-1.74 1.355-2.42 5.321-2.03 7.062-0.02 0.055-0.05 0.102-0.07 0.156-3.78 0.883-3.76 1.503-4.53 1.999-6.41 4.113 1.1 18.944-1.25 20.876 2.84 7.1071 6.29 5.7544 9.57 6.719l16.25-3.375c1.22-8.2276 4.25-15.404 2.12-22.795-0.34-5.618-6.21-2.711-8.69-4.924-1.21-2.472-2.09-5.426-4.75-6.718-0.28-0.033-0.56-0.059-0.84-0.063z" stroke="#333333300" fill="#ffcc99"/>
   <path d="m664.31 1.0625c-8.88 3.7846-23.3 7.1364-28.74-0.34276-0.01 3.958 1.34 7.9161 2.49 11.874-0.54 0.985-1.37 2.311-1.18 3.25 0.94 2.795 2.07 5.281 1.37 8.125 0.02 2.789-3 7.824-1 9.875 2.85 1.127 7.83 1.47 10.25-1-1.25-3.852-1.34-7.364-0.75-11.375 0.02-2.541 0.35-5.004 0.53-7.5l0.72-0.031c-0.13 0.286-0.19 0.585-0.12 0.906-0.49 3.515 1.53 7.202 1.24 11.5 0.52 2.208-1.88 5.823-0.37 7.375 2.63 1.988 9.16 1.895 10.63-0.625-1.02-3.858-2.1-7.493-1.5-11.5 0.04-2.875 0.45-5.69 0.59-8.532h0.03l5.81-12z" stroke="#000000033" fill="#003366"/>
   <path d="m655.88-16.53c-3.1 4.082-2.84 13.827 3.67 14.438 0.55 3.2608 0.37 6.6579-1.13 9.6245-1.1 1.1308-2.69-0.5067-3.5 1.125 0.33 1.4115 1.69 1.7735 3 2.1255-0.94 1.856-2.74 3.419-0.87 5.5 1.21-0.622 2.04-2.018 2.37-3.25 0.14 1.436-1.07 4.29 1.63 3.125 1.31-0.983 0.67-2.42 0.75-3.875 1.04 1.62 1.36 4.056 2.75 1.25 0.13-1.259-0.47-2.133-1.13-3.125-0.17-1.2686 0.28-2.5979 0.5-3.8755 1.59-2.6941 4.08-5.9741 4.54-9.0303-1.81-2.3864-0.42-6.6902-1.95-9.0822-0.18-1.29-1.71-8.803-4.5-7.825" stroke="#333333300" fill="#ffcc99"/>
   <path d="m643.95-67.865c-10.45-0.061-14.58 6.834-14.72 15.803 0 1.876 0.86 5.568 1.33 7.428-0.22 3.662-1.12 6.429-0.04 10.003 1.25 5.057 4.65 7.748 9.54 8.839 4.35-0.085 11.04-0.506 14.29-3.542 4.66-3.813 3.59-11.698 5.3-17.339 0.61-5.389-0.38-10.155-1.91-15.182-2.13-5.5-8.58-6.78-13.79-6.01z" stroke="#333333300" fill="#ffcc99"/>
   <path d="m631.73-67.536c8.78 1.243 15.88-4.807 25.74 2.482 2.97 4.029 6.07 8.586 3.77 14.782-0.35 2.437-1.59 7.66-2.71 6.817 1.25-5.037 0.91-5.682-2.91-7.439-1.93-0.483-2.4 0.113-4.07 0.53 2.72-8.908 0.3-8.828-5.83-10.783-4.7-4.302-11.54-1.396-13.61-1.945-0.35-0.53 1.72-3.604-0.38-4.444z" stroke="#663300" fill="#996633"/>
  </g>
  <path d="m637.96-50.235c-1.37 2.999 0.13 3.431 3.06 2.998 0.89 0.395 2.76-1.973 2.33-3.427-2.22-1.437-4.26-1.176-5.39 0.429z" fill-rule="evenodd" stroke="#333333" stroke-width="1px" fill="#ffffff"/>
  <path d="m631.14-51.735c-2.35 0.529-2.2 0.501-1.74 3.174 3.34 2.809 6.63-0.376 1.74-3.174z" fill-rule="evenodd" stroke="#333333" stroke-width="1px" fill="#ffffff"/>
  <g fill-rule="evenodd" stroke="#333333300" stroke-width="1px" fill="#ffcc99">
   <path d="m634.02-46.186c-0.62 3.614-2.35 1.001-2.24 5.092-0.12 1.963 4.06 2.189 4.37 0.033"/>
   <path d="m653.4-49.311c5.86-2.329 4.83 6.355 0.5 5.5"/>
   <path d="m654.52-47.936c0.86-1.493 3.1 1.18 0 2.625"/>
  </g>
  <g stroke-width="1px">
   <path d="m632.65-34.061c-0.25-0.046 2.96 2.026 6.41-0.077" stroke="#333333300" fill="none"/>
   <path d="m640.17-49.457c0.39-0.357-1.25-0.647-1.12 1.375 0.09 1.567 1.74 1.065 2.37 0.625 1.27-0.885-0.64-2.313-1.25-2z" fill-rule="evenodd" stroke="#000000"/>
   <path d="m631.44-49.679c0.45-0.949-1.81-0.938-1.13 1.25 0.47 1.509 2.16 0.618 2.25 0.5 0.93-1.211-0.05-3.103-1.12-1.75z" fill-rule="evenodd" stroke="#000000"/>
  </g>
  <g fill="none" stroke-width="1px">
   <path d="m641.12 42.002c3.13 0.671 6.53 1.018 8.95 0.058 2.92-0.386 5.52-0.991 8.2-3.859" stroke="#000000000"/>
   <g stroke="#333333300">
    <path d="m634.25-10c2.38 4.2391 4.45 4.5173 6.5 4.5"/>
    <path d="m645.62-5.375c2.87-0.2439 5.6-1.2151 8.13-3.125"/>
    <path d="m641.5-22.375c0.8 0.271 1.93-0.109 2.12 1.375"/>
    <path d="m646.5-20.625c-1.33-0.386-0.43-1.161 5.88-2.875"/>
    <path d="m643.48 1.0587c-0.89-1.9386 2.81-1.7222 1.5-0.26514"/>
    <path d="m649.79-9.9065c-1.86-1.0505 1.27-3.0405 1.06-1.0945"/>
    <path d="m636.42-11.511c0.79-1.982 3.18 0.847 1.22 0.906"/>
   </g>
  </g>
  <g fill-rule="evenodd" stroke="#003366" stroke-width="1px" fill="#006699">
   <path d="m664-55.5c0.12 1.945 0.86 3.929 1.88 5.625 1.95 1.057 3.91 2.306 6.12 2.875 0.04-2.431-2.09-4.571-3.5-6.625-1.3-1.38-2.72-1.635-4.5-1.875z"/>
   <path d="m658.38-55.25c0.78 2.538 3.89 1.779 6.24 1.25 1.02-0.337 1.63-2.085 1.63-3-0.56-1.311-1.91-2.156-2.87-3.25-0.69-0.688-3.68 1.704-4.38 2.125"/>
   <path d="m630-62l-1.5 5.25c-0.6 2.613 33.49 4.801 34.5 2.875 0.31-0.596-0.75-5.625-0.75-5.625-10.85 2.64-21.74 0.853-32.25-2.5z"/>
   <path d="m664.75-58c2.37-2.417 4.8-3.123 8-2.375 2.06 1.849 3.21 4.191 5.5 5.875-2.75 1.018-6.04-0.962-8.75-2-1.62-0.385-3.16-1.028-4.75-1.5z"/>
  </g>
  <path d="m599.88-50.125l-3.26 1.125c1.26 13.946 4.5 27.461 13.38 39.75l3.62-0.875c-7.74-12.333-12.33-25.667-13.74-40z" fill-rule="evenodd" stroke="#999999" stroke-width="1px" fill="#cccccc"/>
  <path d="m617.5-12.5c-0.5 0-11.12 4.625-11.12 4.625l1.12 1.25s3.75-1.75 3.88-0.875c0.12 0.875 4.62 8.75 4.62 8.75l2.75-1.375-3.87-9.375 3.12-1.25-0.5-1.75z" fill-rule="evenodd" stroke="#000000" stroke-width="1px" fill="#333333"/>
 </g>
</svg>
