<?xml version="1.0" encoding="UTF-8" standalone="no"?>
<svg xmlns:rdf="http://www.w3.org/1999/02/22-rdf-syntax-ns#" xmlns="http://www.w3.org/2000/svg" height="128" width="128" version="1.0" xmlns:cc="http://creativecommons.org/ns#" xmlns:dc="http://purl.org/dc/elements/1.1/">
 <defs>
  <filter id="filter3533" height="2.0159" width="1.4354" y="-.50795" x="-.21768">
   <feGaussianBlur stdDeviation="3.2924533"/>
  </filter>
 </defs>
 <g transform="translate(-314.88 -44.078)">
  <g fill-rule="evenodd">
   <path d="m387.14 155.6c-4.56-2.86-14.3-2.27-17.68 2.13-1.68 3.82 6.06 7.1 9.2 8.13 4.38 0.13 8.26 0.42 12.37 1.77 5.01-2.12 3.69-0.92 5.66-1.77 3.63-1.62 8.29-3.74 8.84-8.13-0.24-3.81-3.11-5.03-6.37-5.66-3.64 1.13-9.37 0.59-12.02 3.53z" fill-opacity=".77778" transform="matrix(1.1515 0 0 .77501 -58.444 37.714)" filter="url(#filter3533)"/>
   <path d="m360.27 103.9c-0.11-0.46-2.47-1.57-3.17-1.18-1.12 0.61-2.59-2.3-3.02-2.883-0.27-0.378 0.52 2.893 0.72 4.003-2.3 0.31-5.82 0.06-8.14 0.06-1.04 0 0.07 0.96 0.35 1.24-0.94 1.49 6.24 2.6 9.59 2.48-0.21-0.51 2.15-0.68 3.14-0.18 0.58 0.29 1.41-1.44 1.41-2.12 0-0.82-0.07-1.01-0.88-1.42z" stroke="#663300" stroke-width="1px" fill="#ffcccc"/>
   <path d="m383.25 95.683c-4.56 2.641-8.45 7.087-11.49 11.487-3.78-1.24-6.86-2.08-10.69-3.08-1.1-0.67 0.86 1.33-0.98 3.44 4.18 0.38 6.78 3.76 10.26 5.48 8.2 0.05 16.29-10.96 16.61-18.565-0.18-0.368-3.32 1.394-3.71 1.238z" stroke="#006699" stroke-width="1px" fill="#0099ff"/>
  </g>
  <g stroke-opacity=".96839" fill-rule="evenodd" stroke="#660000" stroke-width="1px" fill="#cc0000">
   <path d="m396.25 157.88l2.87-2.38-1 5.62-0.74-0.12-1.13-3.12z"/>
   <path d="m384.62 158.62l2.88-2.37-1 5.63-0.75-0.13-1.13-3.13z"/>
   <path d="m379.25 155.79c-1.85 1.61-4.46 3.38-4.44 6.71 3.07 1.07 5.76-2.36 8.7-3.54 0.61-0.3 1.94 0.52 2.35-0.13 2.52-2.01 1.96-2.88 1.45-3.93-0.46-0.3-1.04-0.48-1.62-0.67-2.31-0.23-4.36 0.77-6.44 1.56z"/>
   <path d="m391.5 157c-0.99 1.9-1.03 3.9-1.25 8 3.38 0.02 4.76-3.39 7-5.38 0.48-0.47 0.94-2.13 1.13-2.87 1.76-2.71 1.3-2.28 0.5-3.13-0.54-0.13-1.15-0.12-1.76-0.12-2.26 0.5-3.89 2.09-5.62 3.5z"/>
  </g>
  <g fill-rule="evenodd" stroke-width="1px">
   <path d="m401.64 127.33c0.99 1.66 1.2 3.05 1.06 4.95-0.26 3.94-1.65 7.44-4.72 9.83 1.35 3.84 0.12 8.09 0.65 10.67 0.25 1.27 0.24 1.7-0.53 2.48-1.62 1.83-1.12 3.67-4.95 5.48-0.86 0.64-1.59 0.2-1.59-0.71-0.79-3.67 2.19-5.42 2.12-8.66-1.34-3.39-1.41-7.02-1.41-10.61-0.31-5.4-0.16-10.88 2.3-15.64 2.18-2.92 5.94-0.12 7.07 2.21z" stroke="#663300" fill="#ffcccc"/>
   <path d="m389.26 128.21c1 1.67 1.3 2.97 1.15 4.86-0.26 3.94-3.15 7.44-6.21 9.83 1.65 2.44 1.67 7.53 2.06 10.77 0.25 1.26 0.24 1.7-0.53 2.47-1.62 1.84-1.74 1.28-5.57 3.09-0.86 0.65-3.45 0.15-3.45-0.75 2.22-3.04 4.66-2.98 4.6-6.23-1.34-3.38-2.57-5.87-2.57-9.46-0.31-5.4 3.65-11.41 6.1-16.17 2.19-2.92 3.29-0.73 4.42 1.59z" stroke="#663300" fill="#ffcccc"/>
   <path d="m384.5 94.975c-3.13 4.5-4.29 8.555-7.55 12.995 0.06 1.4 1.34 4.37 3.67 4.64 0.79 1.97 1.46 3.38 2.44 5.56 3.14 4.14-0.24 7.66-2.22 15.45 7.02-2.11 13.99-1.5 21.4-0.41 2.97-5.68-1.25-11.6-2.74-15.45-0.46-3.55 2.41-6.02 3.31-9.94 2.85-8.219 3.73-9.188-3.06-14.545-4.69-2.846-10.29-1.296-15.25 1.7z" stroke="#006699" fill="#0099ff"/>
   <path d="m387.87 84.543c0.06 2.608 0.5 5.21-0.37 7.707-0.63 2.198-1.71 3.976-2.65 6-0.4 3.41-1.49 7.54 2.19 7.82 5.46-0.37 6.14-13.036 12.71-12.709-4.09-2.801-4.26-4-4.5-8.861-1.83-0.316-5.29-0.768-7.38 0.043z" stroke="#663300" fill="#ffcccc"/>
  </g>
  <path d="m388.91 52.369c-3.58-0.487-8.39 1.687-9.83 6.074-0.51 5.394-0.87 10.85-0.78 16.28 1.66 6.277 1.14 13.357 9.01 17.386 11.21-2.503 13.04-12.062 14.53-18.78-1.38-6.379 1.17-11.621-3-17.068-2.85-2.578-7.47-4.554-9.93-3.892z" fill-rule="evenodd" stroke="#663300" stroke-width="1px" fill="#ffcccc"/>
  <path d="m383.79 69.886c0.46 0.271-1.05 3.334-1.79 3.998 0.54 0.358 0.72 0.654 2.19 0.839" stroke="#663300" stroke-width="1px" fill="none"/>
  <g stroke-width="1px" fill-rule="evenodd">
   <g>
    <path d="m387.96 50.325c-10.55-2.482-15.17 10.022-14.47 18.653 0.18 4.597 0.2 6.581 3.45 9.605-0.11 0.87-1.48 4.313-1.77 5.069 1.78-0.754 3.15-1.687 3.72-3.565-0.82-7.613-0.73-11.609-0.1-17.013 0.81-7.474 12.69-9.776 9.17-12.749z" stroke="#666600" fill="#ffcc00"/>
    <path d="m386.08 68.124c0.22-3.234 3.66-5.069 5.73-3.773 0.35 1.938 0.07 4.147-1.16 6.094-3.56 1.935-4.31-0.03-4.57-2.321z" stroke="#333333" fill="#ffffff"/>
    <path d="m386.18 52.027c-2.28 3.728-0.83 7.829 1.36 11.256 1.23 1.576 2.4 2.386 3.82 3.754 2.79 3.234 6.43 5.67 8.54 9.429 1.35 3.731-0.91 7.59-1.01 11.558 7.15-5.646 9.19-11.523 8.4-17.063-0.15-7.776 0.94-16.783-7.59-20.263-4.45-2.605-9.81-2.157-13.52 1.329z" stroke="#666600" fill="#ffcc00"/>
   </g>
   <path d="m381.63 82.856c0.73-0.705 1.29-2.298 2.54-1.487 0.79 0.51 1.7 1.212 2.77 0.048 0.81-0.89 4.31 0.968 4.94 1.525-0.84 0.893-4.52 1.994-5.22 2.08-2.33 0.137-3.28-0.638-5.03-2.166z" stroke-opacity=".96839" stroke="#660000" fill="#cc0000"/>
   <g>
    <path d="m378.28 65.268c-0.46 2.814 0.3 5.671 2.93 5.912 2.08-1.276 1.98-2.049 1.44-4.255-2.3-2.058-3.27-2.366-4.37-1.657z" stroke="#333333" fill="#ffffff"/>
    <path d="m380.07 67.487c1.12-1.051 1.92 0.298 2.14 0.714 0.7 1.299 0.05 2.101-0.89 2.454-2.17 0.251-2.2-2.861-1.25-3.168z" stroke="#000033" fill="#0000ff"/>
    <path d="m388.62 70.214c-0.65 0.805-0.92-3.32 0.33-3.344 1.47-0.028 2.1 1.734 2.12 1.897 0.22 1.844-1.13 2.181-2.45 1.447z" stroke="#000033" fill="#0000ff"/>
    <path d="m398.98 120.25c-1.96 1.31-4.81 1.24-4.83 3.92 1.38 1.76 1.53 4.12 3.86 4.23 2.02-0.63 4.01-2.41 3.07-3.9-0.19-0.74 0.34-3 0.2-3.54-0.19-0.79-1.54-0.71-2.3-0.71z" stroke="#663300" fill="#ffcccc"/>
   </g>
  </g>
  <g fill-rule="evenodd" stroke="#006699" stroke-width="1px" fill="#0099ff">
   <path d="m399.87 97.804c-1.56 1.034-1.08 3.056-0.89 4.776 0.21 0.8 1.06 1.58 1.6 2.3 1.2 2.29 2.73 4.02 4.95 5.3-1.1 3-5.02 6.92-6.55 9.72-0.19 1.54 0.61 1.18 1.6 2.3 4.66-2.64 8.78-8.9 10.96-13.61-1.28-3.31-4.64-5.49-6.72-8.49-1.28-1.538-3.02-2.114-4.95-2.296z"/>
   <path d="m388.38 110c1.98 7.74 10.91 2.51 8.57-1.68"/>
   <path d="m380.6 112.67c2.09 0.05 3.91-0.73 4.6-3.02"/>
  </g>
 </g>
</svg>
