<?xml version="1.0" encoding="UTF-8" standalone="no"?>
<svg xmlns:rdf="http://www.w3.org/1999/02/22-rdf-syntax-ns#" xmlns="http://www.w3.org/2000/svg" height="128" width="128" version="1.0" xmlns:cc="http://creativecommons.org/ns#" xmlns:dc="http://purl.org/dc/elements/1.1/">
 <defs>
  <filter id="filter3533" height="2.0159" width="1.4354" y="-.50795" x="-.21768">
   <feGaussianBlur stdDeviation="3.2924533"/>
  </filter>
 </defs>
 <g transform="translate(-387.04 -13.751)">
  <path d="m452.93 69.297s-9.2792-15.483-14.163-13.074c-4.8842 2.4085-20.079 12.595-19.757 19.535 0.11655 2.5098 10.866-3.2019 10.866-3.2019s-9.3952 4.8538-5.7855 6.4648c3.6096 1.611 7.6903-5.3982 7.6903-5.3982s-7.784 8.9059-3.3566 8.5877 6.2811-7.6721 6.2811-7.6721-5.0452 10.431-1.4029 9.1567c3.6422-1.2746 4.2438-6.114 4.8026-6.6871 0.55877-0.57306 8.3368 2.0759 10.859 0.69119 2.5226-1.3847 3.1996-5.7143 3.9664-8.4021z" stroke="#999999" stroke-width="1px" fill="#fffffffff"/>
  <path d="m455 67.537c3.1232 0.50374 7.8754 4.2562 10.161 8.1822 2.2798 3.9156 6.1939 6.902 8.4445 5.1607 1.6988 0.64396 1.9058-1.0417 3.706-1.1622 1.1384-1.0028 2.4653-1.2149 3.635-0.54963-0.018 1.2587-1.1427 1.9164-2.0847 2.7008 0.68166 1.2323 3.3415 1.1331 4.555 2.2084 0.19263 2.7625-3.3178 1.2614-4.512 0.17932 0.92046 1.261 3.2883 2.4748 3.9145 3.3455-1.1902 1.7001-4.0648-0.27051-5.2754-1.5149 1.3492 1.3434 3.3556 2.0593 1.7002 3.5685-1.8921 0.25025-3.0903-1.5224-4.4582-2.6486-2.5769 0.40484-9.0363-1.5185-11.952-5.1128-2.7408-3.379-5.3869-4.1178-5.3294-5.9547-2.6819-3.222-6.7473-2.0623-8.1178-6.1227 1.0023-2.8375 3.4122-1.685 5.6129-2.2801z" fill-rule="evenodd" stroke="#333333300" stroke-width="1px" fill="#ffcc99"/>
  <g stroke-width="1px">
   <path d="m456.26 93.82c1.0371-0.25166 5.3732-0.2721 6.4996 0.15199 8.4243 3.1718 29.783-24.955 19.766-31.506-1.5923-1.0414-0.13017-2.8551-0.38791-4.989l3.4567-1.5693c-1.6996 1.9056-3.2931 3.8245-1.3017 6.1915 8.2384 1.145-4.3135 35.934-20.789 33.171-0.49334-0.08272-4.26-0.4517-5.9551 1.0068-0.90984 0.78282-1.2886-2.4569-1.2886-2.4569z" stroke="#330000" fill="#993300"/>
   <path d="m94.888 48.119-21.278 31.93" transform="translate(387.04 13.751)" stroke="#000000" fill="none"/>
  </g>
  <path d="m443.79 67.001s-10.75-14.5-15.375-11.625-18.75 14.5-17.75 21.375c0.36164 2.4863 10.5-4.25 10.5-4.25s-8.875 5.75-5.125 7 7.125-6.125 7.125-6.125-6.875 9.625-2.5 8.875 5.5-8.25 5.5-8.25-4 10.875-0.5 9.25 3.625-6.5 4.125-7.125 8.5 1.25 10.875-0.375 2.625-6 3.125-8.75z" stroke="#999999" stroke-width="1px" fill="#fffffffff"/>
  <path d="m63.25 45.406c-0.28131 0.0063-0.5604-0.0011-0.84375 0.03125-2.4289 1.1804-3.3713 3.7425-4.4375 6.0625-1.0092 0.29221-5.5991 1.8412-7.7188 6.75-2.375 5.5-0.25 20.875 2 23.25s5.6938 7.1668 6.5 10.25c0.80708 3.0867 7.9842 11.845 1 14.5-1.9829 0.75367 4 4 8 3s4.375-2.75 3.25-4.625-2.875-5.375-1.5-10.375-2.375-14.25-3-16.625c3.1819 3.0412 5.125 7.25 10.375 7.5-0.65101 0.81098-2.4348 12.007-2.125 12.25 0 0-2.25 1.75 1 3.625s10.5 4 12.125 2.75 1.25-4-2.25-2.875c-3.25-3.125-2.5156-12.223-3.375-17-0.86368-4.8011-6.2722-6.8354-8.875-11.5-2.5697-4.6051 0.40057-13.473-1.5-15.5-0.059-0.885-0.3-1.977-0.813-3.375 0.389-1.741-0.293-5.707-2.031-7.062-1.888-0.55-3.812-1.076-5.781-1.032z" fill-rule="evenodd" transform="translate(387.04 13.751)" stroke="#333333300" stroke-width="1px" fill="#ffcc99"/>
  <g transform="translate(38.625,31.625)" stroke="#003300" stroke-width="1px" fill="#009933">
   <path d="m28.375 48c-13.668 4.2067 2.79 8.9928 4.75 13.5 0.45436-2.764 9.69-25.314-4.75-13.5z" transform="translate(387.04 13.751)"/>
   <path d="m412.17 58.001c3 1.5 6.5 11.25 6.5 11.25-0.77489-6.3755-2.1993-9.5036-3.625-12.625z"/>
  </g>
  <g stroke-width="1px" fill-rule="evenodd">
   <path d="m454.71 25.011c10.451-0.06121 14.585 6.834 14.724 15.803 0 1.8762-0.86718 5.5686-1.3321 7.4283 0.21641 3.6618 0.59331 3.07-0.48743 6.6443-1.2569 5.0567-4.6534 7.7484-9.5459 8.8388-4.3431-0.08528-9.1801-2.1853-12.435-5.2212-4.6606-3.8135-4.9084-6.6595-6.6228-12.301-0.60941-5.3889 0.38011-10.155 1.9105-15.181 2.1313-5.5003 8.5773-6.7803 13.789-6.0104z" stroke="#333333300" fill="#ffcc99"/>
   <path d="m470.65 32.765c0.94015-10.601-27.9-15.943-30.161-6.0033-9.8648 3.1451-2.8885 21.403-0.59252 27.599 1.374-0.014 2.9281-0.18272 2.7082-0.8725-2.7963-8.7704-3.381-9.7481 0.44131-11.506 1.931-0.48275 2.5763 0.99763 4.2426 1.4142 3.5295-2.2685-0.0401-9.2482 5.6569-11.667 2.7817 1.1242 6.3076 2.8592 9.1924 0 2.4657 0 6.4122 1.8757 8.512 1.0358z" stroke="#996600" fill="#cc9933"/>
   <path d="m460.27 41.316c1.3659 2.9985 0.30904 4.7566-2.6161 4.3232-0.89857 0.39561-2.1457-1.7963-1.716-3.25 0.80378-2.4975 2.4962-3.9161 4.3321-1.0732z" stroke="#333333" fill="#ffffff"/>
   <path d="m466.64 39.816c2.3537 0.52858 3.0833 1.8263 2.625 4.5-2.7174 5.0179-7.51-1.7018-2.625-4.5z" stroke="#333333" fill="#ffffff"/>
  </g>
  <g fill-rule="evenodd" stroke="#333333300" stroke-width="1px" fill="#ffcc99">
   <path d="m464.64 46.691c0.62655 3.6133 3.2341 3.0333 3.125 7.125-2.9749-0.60065-4.943 0.15594-5.25-2"/>
   <path d="m445.27 43.566c-5.8634-2.3295-4.8302 6.3542-0.5 5.5"/>
   <path d="m444.14 44.941c-0.85108-1.4929-3.0925 1.1798 0 2.625"/>
  </g>
  <g stroke-width="1px">
   <path d="m466.19 56.341c-0.0931 2.3577-6.129 3.561-9.9482-0.43046" stroke="#333333300" fill="none"/>
   <path d="m459.38 42.182c-0.38654-0.35665 1.252-0.64717 1.125 1.375-0.0984 1.5673-1.7429 1.0655-2.375 0.625-1.2696-0.88481 0.63762-2.3127 1.25-2z" fill-rule="evenodd" stroke="#000000"/>
   <path d="m468.02 42.401c-0.45734-0.94871 1.8022-0.93766 1.125 1.25-0.46734 1.5098-2.1591 0.61827-2.25 0.5-0.93035-1.2104 0.0535-3.1022 1.125-1.75z" fill-rule="evenodd" stroke="#000000"/>
  </g>
  <g stroke="#996600" stroke-width="1px" fill="#cc9933">
   <path d="m438.39 35.805c-0.71176-2.2817-0.0479-3.9616 3.0052-4.5962"/>
   <path d="m442.81 27.231c0.58444-3.8575 6.9233-1.4637 6.1872 0.97227"/>
   <path d="m452.18 23.166c0.42747-2.5842 4.4453-3.5301 6.9827-3.5355-1.244 2.4192-0.96957 2.7129-0.0884 4.6846"/>
   <path d="m462.17 24.138c1.9683-0.22443 5.2682 1.695 5.6569-1.2374 1.633 2.8422 0.82964 4.5473-1.0607 5.7452"/>
   <path d="m436.89 38.81c-0.7699 3.3753-2.4645 3.6685-3.8891 4.8614 1.9325 2.8153 3.2832 2.1392 4.773 2.2981"/>
   <path d="m444.13 35.275c3.4369-1.9024 4.606-0.27716 3.8007 4.4194"/>
   <path d="m456.6 28.027c1.6238 0.56412 5.6105-0.37506 3.6239 4.8614"/>
  </g>
  <g stroke-width="1px">
   <path d="m42.5 89.875-1.25 3.5 5.125-1.875 1-3.375z" transform="translate(387.04 13.751)" stroke="#666666" fill="#cccccc"/>
   <path d="m428.88 102.26-3.0421-2.135 5.2666-1.4297 2.7658 2.1774z" stroke="#666666" fill="#cccccc"/>
   <path d="m41.125 88.5 23.875-7 0.5 2-24 6.375z" transform="translate(387.04 13.751)" stroke="#333333" fill="#999999"/>
   <path d="m63.207 82.792c-0.103 7.16 5.421-0.538 8.418-2.667-2.572 0.169-12.571-1.873-8.418 2.667z" transform="translate(387.04 13.751)" stroke="#660000" fill="#990000"/>
  </g>
  <g stroke="#333333300" stroke-width="1px" fill="#333333300">
   <path d="m63.374 106.61-0.88388 2.1213" transform="translate(387.04 13.751)"/>
   <path d="m65.407 106.79 1.149 2.3865" transform="translate(387.04 13.751)"/>
   <path d="m67.971 106.26 0.97227 2.8284" transform="translate(387.04 13.751)"/>
  </g>
  <path d="m387.14 155.6c-4.5613-2.8602-14.299-2.2797-17.678 2.1213-1.686 3.821 6.0551 7.1 9.1924 8.1317 4.3813 0.1278 8.264 0.42193 12.374 1.7678 5.0062-2.1177 3.6947-0.91679 5.6568-1.7678 3.6287-1.613 8.291-3.7412 8.8388-8.1317-0.2403-3.8013-3.1068-5.0272-6.364-5.6569-3.6374 1.1302-9.3715 0.59032-12.021 3.5355z" fill-rule="evenodd" fill-opacity=".77778" transform="matrix(.58198 0 0 .39170 233.33 69.081)" filter="url(#filter3533)"/>
  <path d="m444.29 70.596c1.7798 3.5311-0.5244 11.334-3 13.625-0.55296 3.2612-0.37019 6.6584 1.125 9.625 1.0976 1.1308 2.6864-0.50678 3.5 1.125-0.32517 1.4119-1.6895 1.7732-3 2.125 0.93922 1.8565 2.7416 3.4194 0.875 5.5-1.2106-0.62115-2.0443-2.0176-2.375-3.25-0.13707 1.4366 1.0753 4.2905-1.625 3.125-1.3112-0.98275-0.67224-2.4194-0.75-3.875-1.0485 1.6202-1.3645 4.0561-2.75 1.25-0.13928-1.2582 0.46766-2.1329 1.125-3.125 0.17104-1.2682-0.28331-2.5974-0.5-3.875-1.5935-2.6941-2.6699-5.4438-3.125-8.5 1.8144-2.3864 1.0935-11.108 2.625-13.5 0.42694-1.0714 4.3353-3.2394 5-4.125" fill-rule="evenodd" stroke="#333333300" stroke-width="1px" fill="#ffcc99"/>
 </g>
</svg>
