<?xml version="1.0" encoding="UTF-8" standalone="no"?>
<svg xmlns:rdf="http://www.w3.org/1999/02/22-rdf-syntax-ns#" xmlns="http://www.w3.org/2000/svg" height="128" width="128" version="1.0" xmlns:cc="http://creativecommons.org/ns#" xmlns:dc="http://purl.org/dc/elements/1.1/">
 <defs>
  <filter id="filter3443" height="1.6533" width="1.2503" y="-.32663" x="-.12514">
   <feGaussianBlur stdDeviation="1.9634296"/>
  </filter>
 </defs>
 <g transform="translate(-30.499 -45.211)">
  <path d="m81.835 155.98c-1.872 0.61-6.114-0.64-8.895-1.33-2.357-0.59-4.728 1.17-5.782 2.22-1.414 1.42-1.726 4.22-1.335 5.78 0.832 3.33 5.383 3.11 7.561 2.67 2.008-0.4 4.245 1.29 6.227 1.78 2.276 0.57 4.263 0.89 7.116 0.89 2.9 0 4.684 1.44 7.561 0 2.231-1.11 4.29-0.77 6.222-2.22 1.52-1.14 2.23-3.13 2.67-4.89 0.79-3.14-1.87-3.61-3.555-4.45-2.161-1.08-5.907-0.42-7.561 0-1.773 0.44-3.316-2.23-5.782-2.23-1.999 0-1.059 1.78-4.447 1.78z" fill-opacity=".72840" fill-rule="evenodd" filter="url(#filter3443)"/>
  <g stroke="#333333" stroke-width="1px">
   <path d="m80.602 154.09c-3.176 0.63-5.789 1.22-8.486 3.18-0.6 0.72-0.572 1.42-0.53 2.3 0.237 0.77 0.511 1.51 0.707 2.3 2.752 0.26 5.793 1.9 8.667 0.98 3.018 0.04 6.07-1.02 8.569-2.84 0.577-1.71-0.042-4.02-0.177-5.92-2.784 0.88-5.948 0.73-8.75 0z" fill-rule="evenodd" fill="#fffffffff"/>
   <path d="m72.293 160.37c3.252-0.56 6.502 1.57 9.887 1.12 3.144-0.1 4.775-2.39 7.084-2.54" fill="none"/>
   <path d="m91.827 154.62c-2.53 1.35-6.339 2.05-8.839 4.16-0.427 0.89-0.409 1.93-0.53 2.91 0.144 1.3 0.905 2.11 1.856 2.92 2.567 0.99 5.429 0.22 8.043-0.27 2.295-0.08 5.001-0.6 6.599-2.35 2.474-2.31 2.054-4.51 1.794-7.72-2.971 0.22-5.939 0.35-8.923 0.35z" fill-rule="evenodd" fill="#fffffffff"/>
  </g>
  <g fill-rule="evenodd" stroke-width="1px">
   <path d="m73.541 115.72c-0.762 1.19-0.82 2.4-0.75 3.75-0.293 2.79 1.114 5.43 0.25 8.13-0.778 1.64-1.245 2.71-2.625 3.87-1.516 0.07-2.619 0.84-3 2.13 0.886 0.89 2.152 0.58 3.375 0.5 0.363 1.36-1.622 3.13-1.75 4.75 1.777 2.12 3.265-1.4 3.375-3 0.211 1.54-0.653 4.06-0.5 5.12 2.036 0.4 2.741-3.01 2.75-4.75-0.041 1.9-0.99 3.81 1.25 3.75 1.536-1.13 1.17-3.24 1.375-5 0.604-2.77 1.727-5.4 2-8.25-0.303-4.18 1.703-9.37-0.125-13.25-2.69-1.35-3.627 1.15-5.625 2.25z" stroke="#333300" fill="#ffcc99"/>
   <path d="m80.22 99.666c-2.698 2.794-4.496 5.974-5.656 9.624-1.45 2.58-2.934 4.87-3.256 7.87 3.967 0.74 7.984-0.04 11.918 0.5 1.8-4.78 1.493-10.03 1.591-15.06" stroke="#000000" fill="#333333"/>
   <path d="m91.666 132.47c-0.145 0.78-0.89 2.8-0.625 4.13 0.203 1.01 0.508 2.03 0.75 3 0.518 2.54-0.446 4.98-0.625 7.5 0.515 2.2-0.137 5.69 1.375 7.25 2.63 1.98 6.665 1.89 8.129-0.63-0.25-1-0.06-1.6-0.5-2.62-1.29-2.74-0.681-5.87-0.254-8.75 0.057-3.79 0.764-7.46 0.624-11.25-2.167-0.8-7.506-0.23-8.874 1.37z" stroke="#000033" fill="#003366"/>
   <path d="m80.541 132.35c-0.145 0.78-0.89 2.8-0.625 4.12 0.943 2.8 1.074 5.41 0.375 8.25 0.016 2.79-0.872 7.45 1.125 9.5 2.845 1.13 5.706 1.85 8.125-0.62-1.246-3.86-1.344-7.37-0.75-11.38 0.029-3.8 0.768-7.43 0.625-11.25-2.168-0.8-7.507-0.22-8.875 1.38z" stroke="#000033" fill="#003366"/>
   <path d="m105.45 135.62c-2.8-3.46-0.87-8.64-0.51-12.61-1.23-4.95 1.96-10.24 0.9-15.2-0.46-3.11-1.49-5.9-3.05-8.61-1.79-2.413-4.17-3.786-7.199-3.941-3.886 0.57-7.808 0.045-11.667 0.884-2.847 1.239-4.81 3.291-5.127 6.367-0.137 2.77 0.049 5.27-1.237 7.78-0.387 4.45-1.864 8.97-1.238 13.43 0.895 5.19-1.334 7.33-0.758 12.51 4.481-2.57 10.29 1.3 15.379 0.73 4.268-1.53 11.857 1.9 14.507-1.34z" stroke="#000000" fill="#333333"/>
   <path d="m104.29 124.47c0.55 3.26 0.5 7.03-1 10-1.1 1.13-2.69-0.51-3.499 1.13 0.329 1.41 1.689 1.77 2.999 2.12-0.94 1.86-2.74 3.42-0.87 5.5 1.21-0.62 2.04-2.02 2.37-3.25 0.14 1.44-1.07 4.29 1.63 3.13 1.31-0.99 0.67-2.42 0.75-3.88 1.04 1.62 1.36 4.06 2.75 1.25 0.14-1.26-0.47-2.13-1.13-3.12-0.17-1.27 0.28-2.6 0.5-3.88 1.59-2.69 2.05-5.69 2.5-8.75-1.81-2.39 0.03-5.73-1.5-8.12-0.43-1.08-0.83-1.99-1.5-2.88-2.81-0.8-5.1 0.02-6.37 2.63-1.5 3.45 1.72 5.31 2.37 8.12z" stroke="#333300" fill="#ffcc99"/>
   <path d="m96.125 104.7c0.129 2.54 0.769 4.87 1.591 7.25 0.665 2.43 0.858 4.92 0.884 7.42 4.2-0.44 8.7-2.21 12.9-3.53-0.44-2.07-1.01-4.1-1.41-6.19-0.67-2.74-2.86-4.34-4.07-6.72-1.47-2.06-3.48-3.038-6.01-2.29" stroke="#000000" fill="#333333"/>
   <path d="m85.993 52.886c-10.45-0.061-14.584 6.834-14.724 15.803 0 1.876 0.867 5.569 1.332 7.428-0.216 3.662-1.123 6.429-0.043 10.003 1.257 5.057 4.654 7.749 9.546 8.839 4.343-0.085 10.18-1.56 13.435-4.596 4.661-3.814 6.061-10.268 7.781-15.91 0.61-5.389-2.01-10.53-3.538-15.556-2.131-5.501-8.577-6.781-13.789-6.011z" stroke="#333300" fill="#ffcc99"/>
  </g>
  <g stroke-width="1px" fill-rule="evenodd">
   <path d="m72.558 59.957c-0.644-9.862 26.255-13.119 27.662-5.321 7.55 0.581 7.59 19.938 5.72 26.599-7.801-0.08-3.75-9.111-8.279-11.378-1.931-0.483-2.577 0.997-4.243 1.414-3.529-2.268 0.04-9.248-5.657-11.667-2.782 1.124-6.307 2.859-9.192 0-2.466 0-3.911 1.193-6.011 0.353z" stroke="#000000" fill="#330000"/>
   <path d="m104.81 79.836c-1.58 0 1.14 5.624 1.42 6.718 0.42 1.695 3.49 4.184 4.59 5.657 0.94 1.25 4.97 0.062 6.01-0.354 1.75-0.7 3.79 0.255 4.6 1.061 2.51 2.514 1.01-1.161 0.35-2.475-0.51-1.032-2.87-2.421-3.89-3.182-1.72-1.294-2.07-2.783-3.53-4.243-1.4-1.393-3.06-1.414-4.95-1.414-1.18 0-3.16-1.479-4.6-1.768z" stroke="#000000" fill="#330000"/>
   <path d="m83.235 98.239c1.739 4.581 10.352 3.071 13.406-1.289-1.218-2.478-2.081-5.453-4.75-6.75-2.267-0.259-4.467 0.371-6.625 1-1.739 1.355-2.42 5.298-2.031 7.039z" stroke="#333300" fill="#ffcc99"/>
   <path d="m71.378 92.472c0.656 1.312 1.989 2.125 3.657 2.125 2.626 0.757 5.167 1.936 7.781 2.844 3.432 0.882 5.932-0.87 8.469-2.844 4.273-2.21 8.702-5.971 9.595-10.906 0.25-2.068-0.57-2.063-1.752-1.688-1.97 2.011-4.438 4.135-7.125 5.188-3.404 0.967-6.101 1.415-7.062-2.5-1.129-3.243-4.775-4.174-7.781-4.938-6.391-0.276-7.785 8.061-5.782 12.719zm5.719-8.781c3.084-1.302 9.51 6.629 3.938 6.312-2.341-0.779-2.828-2.295-4.219-0.344-4.961 1.504-3.005-4.722 0.281-5.968z" stroke="#000000" fill="#330000"/>
   <path d="m80.441 69.191c-1.366 2.998-0.309 4.756 2.616 4.323 0.899 0.395 2.771-1.796 2.341-3.25 0.322-3.904-3.063-3.989-4.957-1.073z" stroke="#333333" fill="#ffffff"/>
   <path d="m74.441 67.191c-2.354 0.528-3.458 2.326-3 5 2.717 5.018 7.885-2.202 3-5z" stroke="#333333" fill="#ffffff"/>
  </g>
  <g fill-rule="evenodd" stroke="#333300" stroke-width="1px" fill="#ffcc99">
   <path d="m77.941 70.941c-0.416 2.41-2.749 3.532-4 4.75-0.639 2.674-0.255 4.593 2.75 4 2.1-0.976 2.943-2.594 3.25-4.75"/>
   <path d="m95.441 71.441c5.859-2.33 4.829 6.354 0.5 5.5"/>
   <path d="m96.566 72.816c0.851-1.493 3.092 1.179 0 2.625"/>
  </g>
  <g stroke-width="1px">
   <path d="m75.441 86.941c0.965 0.409 3.699 0.191 5.375 0" stroke="#333300" fill="none"/>
   <path d="m81.703 69.557c0.387-0.357-1.877-1.022-1.75 1 0.099 1.567 1.993 1.94 2.625 1.5 1.27-0.885-0.262-2.813-0.875-2.5z" fill-rule="evenodd" stroke="#000000"/>
   <path d="m73.057 69.526c0.457-0.948-2.177-0.187-1.5 2 0.467 1.51 2.125 0.581 2.25 0.5 1.68-1.085 0.321-3.852-0.75-2.5z" fill-rule="evenodd" stroke="#000000"/>
   <path d="m83.165 162.75c3.128 0.67 6.523 1.02 8.949 0.06 2.915-0.38 5.516-0.99 8.196-3.86" stroke="#333333" fill="none"/>
  </g>
  <path fill="#ffffff" d="m79.403 114.7c-0.338 0.1-0.111-0.48-0.189-0.77-0.059-1.19-0.21-2.39-0.201-3.57-0.008-0.47-0.011-0.95 0.014-1.42 0.156-0.34 0.495-0.26 0.76-0.28 0.421 0.02 0.847 0.09 1.273 0.22 0.262 0.3 0.448 0.74 0.593 1.17 0.138 0.54-0.038 1.05-0.293 1.34-0.298 0.37-0.729 0.49-0.979 0.94-0.132 0.39 0.143 0.8 0.378 1 0.331 0.32 0.681 0.67 0.866 1.22 0.13 0.28 0.196 0.77-0.115 0.64-0.354-0.01-0.55-0.55-0.773-0.92-0.221-0.36-0.465-0.69-0.69-1.04-0.331-0.08-0.313 0.59-0.32 0.95 0.054 0.41-0.144 0.39-0.324 0.52zm0.315-2.86c0.504-0.3 1.064-0.56 1.388-1.22 0.131-0.36-0.087-0.81-0.338-0.98-0.338-0.27-0.704-0.25-1.054-0.33-0.244 0.18-0.041 0.77-0.054 1.13 0.033 0.47 0.035 0.94 0.058 1.4zm3.809 3.7c0.006-0.93 0.027-1.87-0.122-2.82-0.062-0.54-0.123-1.07-0.183-1.61-0.237-0.36-0.578-0.35-0.865-0.5-0.252-0.09-0.562-0.32-0.63-0.75 0.063-0.42 0.496-0.02 0.716-0.09 0.948 0.19 1.905 0.32 2.847 0.78 0.304 0.06 0.469 0.75 0.117 0.77-0.4 0.04-0.818-0.16-1.226-0.23-0.229-0.06-0.214 0.44-0.196 0.7 0.096 0.68 0.161 1.36 0.174 2.04 0.013 0.63 0.013 1.27-0.045 1.87-0.055 0.43-0.491 0.27-0.585-0.11l-0.002-0.05zm2.98-1.29c-0.18 0.36 0.071 0.89 0.116 1.31 0.123 0.42 0.183 1.22-0.24 1.06-0.37-0.1-0.356-0.71-0.389-1.11-0.098-1.39-0.139-2.77-0.167-4.14-0.066-0.46 0.181-0.66 0.436-0.7 0.44-0.07 0.901-0.01 1.357 0.1 0.257 0.05 0.484 0.26 0.626 0.62 0.163 0.23 0.219 0.75-0.081 0.48-0.502-0.2-1.023-0.45-1.516-0.36-0.284 0.22-0.143 0.86-0.159 1.29 0.028 0.48 0.365 0.77 0.647 0.74 0.315 0.02 0.675-0.14 0.966 0.23 0.26 0.51-0.198 0.79-0.471 0.69-0.371 0-0.75-0.1-1.125-0.21zm5.408 4.9c-0.124-0.67-0.077-1.34-0.104-2-0.015-1.49 0.035-2.97-0.012-4.47-0.182 0.11-0.27 0.47-0.443 0.64-0.216 0.3-0.462 0.54-0.716 0.76 0.16 0.25 0.622 0.67 0.353 0.96-0.323 0.29-0.581-0.38-0.779-0.73-0.343-0.61-0.684-1.21-1.039-1.8 0.058 1.48 0.135 2.97 0.134 4.45-0.05 0.48-0.622 0.39-0.632-0.18-0.054-0.67-0.041-1.34-0.056-2.02-0.01-0.97-0.019-1.95 0.003-2.92 0.067-0.45 0.507-0.36 0.73-0.06 0.345 0.33 0.443 0.93 0.654 1.41 0.227 0.47 0.43-0.12 0.604-0.26 0.322-0.39 0.652-0.78 0.928-1.25 0.013-0.46 0.447-0.66 0.652-0.2 0.101 0.91 0.069 1.81 0.136 2.72 0.051 1.34 0.014 2.67 0.128 4.03 0.104 0.43 0.02 0.87-0.258 0.98-0.08 0.07-0.215 0.11-0.283-0.06z"/>
 </g>
</svg>
