<?xml version="1.0" encoding="UTF-8" standalone="no"?>
<svg xmlns:rdf="http://www.w3.org/1999/02/22-rdf-syntax-ns#" xmlns="http://www.w3.org/2000/svg" height="128" width="128" version="1.0" xmlns:cc="http://creativecommons.org/ns#" xmlns:dc="http://purl.org/dc/elements/1.1/">
 <defs>
  <filter id="filter3443" height="1.6533" width="1.2503" y="-.32663" x="-.12514">
   <feGaussianBlur stdDeviation="1.9634296"/>
  </filter>
 </defs>
 <g transform="translate(-480 82)">
  <path d="m523.31 24.985c-5.46 0.423-5.13-3.259-9.8 0.89-1.42 1.413-4.74 7.037-4.34 8.601 2.87 3.851 5.81-0.128 10.41 1.44 2.28 0.569 8.02-9.103 10.88 0.514 0.82 2.78 2.43 2.002 5.3 0.564 2.23-1.116 4.29-0.772 6.23-2.224 1.51-1.134 2.23-3.124 2.67-4.892 0.78-3.136-1.88-3.607-3.56-4.448-2.16-1.08-5.91-0.413-7.56 0-2.28 5.227-6.01 3.027-10.23-0.445z" fill-rule="evenodd" fill-opacity=".72840" filter="url(#filter3443)"/>
  <path d="m587.88 29.978l-2.09 2.106c-10.38-6.209-19.68-13.797-25.91-25.315l2.05-2.4919c6.68 10.655 15.33 19.222 25.95 25.701z" fill-rule="evenodd" stroke="#999999" stroke-width="1px" fill="#cccccc"/>
  <g fill-rule="evenodd" stroke-width="1px">
   <path d="m565.23 2.1537c-0.19 0.3889-7.77 6.919-7.77 6.919l-0.55-1.344s2.76-2.2606 2.13-2.6861c-0.63-0.4254-5.07-6.88-5.07-6.88l2.1-1.6234 5.84 6.5311 2.14-1.962 1.18 1.0454z" stroke="#330000" fill="#660033"/>
   <path d="m521.7-58.706s-2.12 10.961-0.35 15.557c1.76 4.596 7.77 7.071 14.49 4.949 6.72-2.121 12.38-17.677 9.19-25.102-3.18-7.424-25.45-2.475-23.33 4.596z" stroke="#666633" fill="#ffcc99"/>
   <path d="m530.54-71.787c-12.24 3.021-6.71 9.656-14.14 17.238l6.6 0.19c4.78-1.874 6.75-6.888 7.89-10.003 0 0 2.66 3.893 2.43 7.906 1.22 0.752 3.88-0.543 6.13-0.714 6.35-0.484 1.36 7.908 19.68 14.081 7.3 2.461 22.16-0.899 28.4-8.114-6.09 4.795-20.09 5.79-28.3 1.94 9.05 0.385 16.13-2.196 26.18-9.718-15.43 7.949-27.34 9.592-34.92-0.164-7.79-10.033-13.94-12.642-19.95-12.642z" stroke="#000000" fill="#330000"/>
  </g>
  <path d="m527.25-52.88s-4.96-2.388-3.92 2.377c1.03 4.765 3.99 2.626 3.92-2.377z" fill-rule="evenodd" stroke="#666666" stroke-width="1px" fill="#ffffff"/>
  <path d="m538.39-52.703s-4.97-2.388-3.93 2.377c1.04 4.764 3.99 2.626 3.93-2.377z" fill-rule="evenodd" stroke="#666666" stroke-width="1px" fill="#ffffff"/>
  <g fill-rule="evenodd" stroke="#660066" stroke-width="1px" fill="#990099">
   <path d="m522.94 3.94c-2.43 2.3281-4.79 2.7978-7.29 7.075-3.11 6.582-1.63 10.299-1.09 14.61 0.35 1.327-2.15 3.834-5.21 6.572 0.49 0.713 1.39 0.947 2.3 1.166 4.08-4.472 12.02-3.342 7.13-8.946 0.91-2.888 3.81-5.269 2.7-8.676 8.31-1.645 9.1-4.409 13.53-6.6324l-12.07-5.1686z"/>
   <path d="m528.88 4.125c-0.32 3.3512-1.79 5.2502-0.88 10.125 1.97 7.007 5.52 8.843 8.75 11.75 1.13 0.773 0.89 4.304 0.37 8.375 0.84 0.22 1.67-0.192 2.5-0.625 0.15-6.048 6.9-10.402-0.48-11.426-1.2-2.782-0.57-6.477-3.64-8.324 5.2-6.6885 3.99-9.2962 5.88-13.875l-12.5 4z"/>
   <path d="m536.25-36s7.5 5.5 9.25 8.25-1.25 16.25-3 20.25 1 15.25 1 15.25c-4.94 1.7482-12.5 3.029-17.08 2.324-0.99-0.1523 0.26-1.9228-0.74-2.0795-2.64-0.4167-5.29-0.8367-7.93-0.9945 0 0 1.44-6.4428 2.5-13 0.25-1.5296-0.68-7.487-3.2-10.768-1.76-2.304-3.13-2.441-3.31-4.944-0.48-6.744 4.72-3.514 7.76-14.288 0 0 12.25-1.25 14.75 0z"/>
  </g>
  <path d="m527.62-36.5s-2.24 30.375-2.62 31 1.12 14.625 1.12 14.625" stroke="#660066" stroke-width="1px" fill="none"/>
  <g fill-rule="evenodd">
   <path d="m522.75-36.625c-1.58 1.779 1.25 13.262 3.5 11.875 3.6-2.847 6.94-6.197 9.87-10.375l-13.37-1.5z" stroke="#666633" stroke-width="1px" fill="#ffcc99"/>
   <path d="m526.68-51.542s-2.86-1.377-2.27 1.371c0.6 2.748 2.31 1.515 2.27-1.371z" fill="#000033"/>
   <path d="m537.9-51.188s-2.86-1.378-2.26 1.371c0.6 2.748 2.3 1.514 2.26-1.371z" fill="#000033"/>
  </g>
  <g fill-rule="evenodd" stroke="#660066" stroke-width="1px" fill="#990099">
   <path d="m520-48c3.14-0.734 6.3-1.508 10.75-5.5 3.46 3.364 7.49 6.276 14.25 7-2.65 4.714-4.89 9.345-1 12.75-8.6 1.589-16.25-5.83-23.5 0 1.72-4.75 1.78-9.5-0.5-14.25z"/>
   <path d="m527.75-20.75c2.95 3.503 6.08 6.18 11 0.5"/>
   <path d="m516.25-17.5c1.58 0.552 3.67 0.25 5.25-2.5"/>
  </g>
  <g stroke-width="1px" fill-rule="evenodd">
   <path d="m519.5-7.5c7.51 2.1484 15.42 1.5685 23.25 1.5l0.5 4.125c-7.92-0.3477-16.58 0.002-24.5-1.625 0.42-1.8606 0.33-2.7834 0.75-4z" stroke="#330000" fill="#660033"/>
   <path stroke-linejoin="bevel" d="m518.88 24.5l-4.76-1.625 6.38-1.875-6.88-3.125c4.16-3.492 6-1.575 8.26-0.625l-8.38 2.75 6 2.625-4.88 2.5" stroke="#660066" fill="#990099"/>
   <path stroke-linejoin="bevel" d="m539.11 22.935l-4.81 1.444 4.09-5.235-7.41 1.46c1.35-5.259 3.96-4.77 6.35-5.31l-5.21 7.111 6.41-1.358-2.51 4.87" stroke="#660066" fill="#990099"/>
  </g>
  <g fill-rule="evenodd" stroke-width="1px">
   <path d="m548.13-23.262c2.22 3.06 4.13 6.753 5.04 12.463 1.66 2.2437 3.16 4.4875 5.13 6.7313 1.5 1.2914 2.09 1.1846 1.92 5.133-1.07-1.6332-1.94-1.6064-3.61-1.1694v2.9168l-1.32-3.5356c-1.93-2.0283-4.32-5.4603-6.54-8.3969-2.07-2.4242-4.1-5.1712-5.84-9.8992l5.22-4.243z" stroke="#666633" fill="#ffcc99"/>
   <path d="m543.44-28.035c2-2.143 7.37 5.419 6.99 6.099-3.3-0.212-5.81 1.339-6.99 5.834-1.43-2.446-4.58-5.598-3.8-8.044" stroke="#660066" fill="#990099"/>
   <path d="m523.2-6.9984l-0.62 1.6793 10.96 7.1595 2.3-2.5633-12.64-6.2755z" stroke="#330000" fill="#660033"/>
   <path d="m523.47-7.2636s6.01 11.667 6.36 11.844c0.35 0.1768 3.09-1.0606 2.74-1.591-0.35-0.5303-5.83-10.607-5.83-10.607l-3.27 0.354z" stroke="#330000" fill="#660033"/>
   <path d="m515.31-17.375c-1.47 2.122-3.09 4.059-3.43 7.625 3.53 3.5033 7.31 5.2941 11 7.75 0.84 0.726 1.94 2.2426 3.62 5.625 1.95 0.7542 6.66-2.6533 2.88-4.25-0.68-0.28355-3.26-2.5-3.26-2.5l2.38-0.25c-0.51-1.8133-3.16-1.178-4.75-1.75-1.99-2.1374-3.22-4.7056-6.25-6.25l0.62-1.937-1.54-2.713-1.27-1.35z" stroke="#666633" fill="#ffcc99"/>
   <path d="m556.5-5.125l-1.62-6.25c-2.19 0.195-4.15 1.5188-6 3.375l4.74 5.125c1.09-2.6898 1.47-2.19 2.88-2.25z" stroke="#660066" fill="#990099"/>
   <path d="m523.51-5.7972l-3.92-5.1338c-1.94 1.0256-3.23 3.0054-4.23 5.4344l6.37 2.8868c-0.04-2.9003 0.5-2.5846 1.78-3.1874z" stroke="#660066" fill="#990099"/>
  </g>
 </g>
</svg>
