<?xml version="1.0" encoding="UTF-8" standalone="no"?>
<svg xmlns:rdf="http://www.w3.org/1999/02/22-rdf-syntax-ns#" xmlns="http://www.w3.org/2000/svg" height="128" width="128" version="1.0" xmlns:cc="http://creativecommons.org/ns#" xmlns:dc="http://purl.org/dc/elements/1.1/">
 <g transform="translate(-278)">
  <g>
   <g fill-rule="evenodd">
    <path d="m314.84 88.287c-1.6112-1.1517-2.4365-2.89-4.4346-3.5731-1.9687 2.8045 1.7295 2.6043-0.0769 4.5125-2.1117 0.06015-5.6984-0.83546-5.9037 1.7962 0.18711 1.3007 5.0889 0.72275 5.0926 0.72221 1.2381-0.1781 1.2225-0.11995 0.12315 0.7751-1.1287 0.91887-3.0527-0.47504-3.728 1.1333 1.1098 1.9497 4.6228 1.1744 6.2498 0.2464-0.69923 1.1776-4.2949 2.3658-1.3189 3.34 1.5809-1.6733 3.5514-2.8384 5.7717-3.8346 1.5166-3.0379 7.7251-6.7857-1.7752-5.118z" stroke="#333333333" stroke-width="1px" fill="#336633"/>
    <path d="m316.96 89.117c-0.42007-1.9674 5.5203-6.1496 8.736-7.46-1.5577-4.2025 8.0163-16.974 9.1832-18.55 5.0172-6.035 1.9056 2.2856 4.3112 6.5379 0.58637 1.5248-2.9061 5.5523-4.5901 16.238-0.8912 5.6548-16.348 6.8596-16.664 7.855l-0.98-4.621z" stroke="#336633" stroke-width="1px" fill="#666666"/>
    <path d="m331.54 65.091c-1.2605 6.1682-6.6348 11.817-4.427 18.422 0.71172 6.4308 8.199 9.2158 13.853 7.7145 5.783-0.17618 15.788 0.69456 16.738-6.945-0.0624-6.432 1.3824-15.104-0.93062-21.19-2.1664-7.165-12.009-3.4642-17.737-3.7679-3.4811 0.2116-6.0018 2.8324-7.4967 5.7671z" stroke="#336633" stroke-width="1px" fill="#666666"/>
   </g>
   <path stroke-linejoin="round" d="m352.14 55.875 4.0659 4.773s-9.7227-1.0607-11.844 0.35355-8.6621 11.667-8.6621 11.667l0.17678-10.43-3.7123 0.88388c-1.5158-1.8948 12.387-11.165 19.976-7.2478z" stroke="#333333333" fill="#336633"/>
  </g>
  <g fill-rule="evenodd" stroke="#333333333" stroke-width="1px" fill="#ffcccc">
   <path d="m329.97 16.554c-2.4843 6.0857-7.766 10.622-9.2248 17.15-1.0715 5.9634 0.55306 12.225 2.3248 17.932 2.8092 6.9647 14.75 7.2207 21.623 6.7578 4.125-1.0104 8.3901-2.738 11.923-5.1767 5.0737-5.9949 5.3047-14.004 5.3183-21.432-0.97276-6.434-2.5499-14.249-8.0842-18.356-3.8148-3.3025-7.338-5.0028-12.468-4.8198-4.7455 0.99724-8.6689 3.9911-11.413 7.9448z"/>
   <path d="m325.15 52.626c0.63371 2.8642 1.3716 5.6839 4.2685 6.7076 4.4483 0.80765 8.0568-1.4336 9.9598-5.2848"/>
   <path d="m330.84 25.39c-3.0151 1.0469-10.04 2.0906-11.992 5.8946-0.24194 2.9932 0.97154 4.7532 3.862 5.2848 2.174-0.28902 4.4998-0.90845 6.0978-2.4391"/>
  </g>
  <g stroke-width="1px" fill-rule="evenodd">
   <path d="m338.97 17.666c-3.0526-1.1744-5.4138 0.14044-5.6913 3.862 0.19692 2.2237 2.0225 3.0693 3.862 3.862 2.1664 0.30149 3.3325-0.86704 4.2685-2.6424 0.39233-2.4325-0.31844-3.9624-2.4391-5.0815z" stroke="#333333" fill="#ffffff"/>
   <path d="m336.2 22.539c-0.18894-0.75575-1.4117 0.22551-0.81304 1.4228 0.58244 1.1649 1.8294-0.20923 1.8294-1.0163 0-0.36487-0.67754-0.27102-1.0163-0.40652z" stroke="#000000"/>
   <path d="m329.29 19.588c-1.5055-2.2902-4.3647-2.4594-6.9725-0.0179-1.9203 4.8778 1.9278 6.134 5.1431 5.3027 1.7028-1.1788 1.7458-3.3314 1.8294-5.2848z" stroke="#333333" fill="#ffffff"/>
   <path d="m325.41 23.289c0.0141-0.87356-2.3008-0.30084-1.4228 1.4228 0.0672 0.13202 2.8969 1.034 1.4228-1.4228z" stroke="#000000"/>
   <path d="m340.59 42.667c-0.47758-1.2346-1.1711-2.0838-2.2359-2.8456-3.4352-1.7176-4.7569-1.09-8.537-0.81305-4.5033 0.32999-7.7937 1.1518-7.3174 4.0652 0.53688 2.691 1.7825 3.6537 4.4717 3.6587 3.2679 0.2252 5.6538-1.557 8.3337-3.0489 1.5357-0.77943 1.8715-1.1837 2.5186-2.7218" stroke="#000000"/>
  </g>
  <g>
   <path d="m343.03 40.024c-2.504 1.1141-2.302 3.5364-2.4391 5.8946" stroke="#333333333" stroke-width="1px" fill="#ffcccc"/>
   <g fill-rule="evenodd">
    <path d="m355.84 11.844c-0.68791 2.1994-17.487 4.6452-25.594 0.25 0.55318 0.87757-3.813 5.3401-1.5938 4.1875 5.1186-2.6585-1.7177 13.479 6.8438 17.281 3.5115 7.5255 12.482-15.929 23.188-9.8125 1.1292 1.4862 1.8453 3.2245 3.0312 4.6875 1.8338 2.0497 3.3665 1.1211 3.0625-1.4375 0.51584-3.1785-5.3684-13.641-8.9375-15.156zm-17.22 4.156c1.864 0 4.375 5.7051 4.375 7.5s-2.702 1.7961-4.125 3c-2.364 2-6.375-2.2051-6.375-4s0.51104-7.5 6.125-6.5z" stroke="#333333" stroke-width="1px" fill="#666666"/>
    <path d="m354.62 25.186c3.2672-2.8783 9.0072-0.34918 5.6913 4.4717-1.5923 1.516-3.2386 2.1855-4.8783 0.60978" stroke="#333333333" stroke-width="1px" fill="#ffcccc"/>
    <path d="m329.24 88.569c0.33858 3.9077 3.1664 5.4878 5.6676 7.8266 1.076 4.9161 0.53574 9.6124 2.025 14.763 1.6664 1.0248 3.2247 1.0998 5.1498 0.72803 2.0054 0.65027 6.0469 0.39003 7.896-0.44092-0.63008-6.2096 5.4642-12.224 7.9177-17.696 0.7874-2.7696 1.5301-5.9502-0.43926-8.3774-3.5738 3.5575-7.774 4.7031-12.592 4.7031-3.1234 0.15014-6.2461 0.32142-9.3711 0.44093-2.0796-0.11322-4.4858-0.85785-6.2533-1.9478z" stroke="#336633" stroke-width="1px" fill="#666666"/>
    <path d="m332.07 116.42c-1.8403 3.0776-1.5602 3.6615 1.3143 6.2373 4.5788 0.76977 8.4741-1.0639 12.885-3.5273 0.41866-2.3271-2.9106-5.3232-3.9035-12.702-3.3727-0.69087-3.5878 0.0922-6.3309 0.9619-0.55788 0.17689 0.50942 4.7903 1.9721 7.1932 1.1262 1.8502-5.6005 1.6742-5.9372 1.8366z" stroke="#333333333" stroke-width="1px" fill="#336633"/>
   </g>
   <path d="m341.35 96.396c-1.4603 2.2539 0.40102 7.524 0.54465 10.147" stroke="#336633" stroke-width="1px" fill="#666666"/>
  </g>
  <path d="m328.13 42.95c-1.6528-1.5763-4.0997-1.5409-5.1265 0.35355-0.18075 2.5138 3.2641 3.1469 5.1265 3.0052 1.8293-0.16736 6.1084-1.5541 6.7175-3.3588-1.502-2.2026-5.7409-1.2552-6.7175 0.00001z" fill-rule="evenodd" stroke="#000000" stroke-width="1px" fill="#990000"/>
  <g>
   <path d="m349.45 66.026c-1.8969 0.26323-2.6089 2.1545-3.3588 3.7123-0.51336 1.703 1.426 1.9142 1.9445 3.5355-1.086 1.4628-1.4743 2.596-1.4142 4.4194 1.7217 0.98513 2.8563-0.23464 4.2426-1.4142 0.61689-0.30845 0.39866 1.3276 0.70711 1.9445 0.43823 0.87647 1.877-0.28606 2.1213-0.53033 1.9169-1.7816 2.6873-3.9493 2.8284-6.5407-0.57763-3.8998-3.4306-6.0918-7.0711-5.1265z" fill-rule="evenodd" fill="#666666"/>
   <path d="m328.58 56.551c0.22236-1.9716 3.5117-2.133 3.5355 0.35355" stroke="#333333333" stroke-width="1px" fill="#ffcccc"/>
   <path d="m356.1 26.237c4.7809-2.0348 2.7421 3.3029 0.34467 2.4127" stroke="#333333333" stroke-width="1px" fill="#ffcccc"/>
   <g fill-rule="evenodd">
    <path d="m337.45 116.67c-1.8403 3.0776-1.5602 3.6615 1.3143 6.2373 4.5788 0.76977 8.4741-1.0639 12.885-3.5273 0.41866-2.3271-3.0356-6.4482-0.9035-12.952-3.3727-0.69087-6.5878 0.34215-9.3309 1.2119-0.55788 0.17689 0.50942 4.7903 1.9721 7.1932 1.1262 1.8502-5.6005 1.6742-5.9372 1.8366z" stroke="#333333333" stroke-width="1px" fill="#336633"/>
    <path d="m354.43 94.039c-1.98 0.0434-3.6824-0.85372-5.6913-0.20327 0.10437 3.425 2.9452 1.0487 2.6424 3.6587-1.6546 1.3135-5.0627 2.7457-3.6501 4.9756 0.92917 0.92917 4.5072-2.4707 4.5099-2.4734 0.88446-0.88446 0.90687-0.82859 0.56304 0.54674-0.35299 1.412-2.7286 1.4489-2.3055 3.1412 2.0568 0.8959 4.4046-1.8299 5.1512-3.5477 0.14582 1.3617-2.0208 4.4676 0.94547 3.4643 0.26298-2.2869 1.1424-4.4005 2.323-6.5284-0.6062-3.3408 2.1185-10.062-4.488-3.0337z" stroke="#333333333" stroke-width="1px" fill="#336633"/>
    <path d="m355.95 91.067c-1.5152-1.3234 1.4039-5.8617 3.1933-8.8377-3.7652-2.4311-10.052-12.353-10.063-14.314-0.0185-3.5912 1.8031-6.1543 5.6117-5.6532 1.4514 1.1096 2.9014 1.9624 4.5914 2.6499 1.3831 0.86935 4.4656 5.801 9.5203 15.365 2.675 5.0612-8.9779 15.288-8.6345 16.274-2.675 2.7948-2.1194-3.8065-4.2196-5.4841z" stroke="#336633" stroke-width="1px" fill="#666666"/>
   </g>
   <path stroke-linejoin="round" d="m349.5 16.75 12.5-3.5c1.7108 1.4412 3.3038 2.9059 1.75 5l-13 4.5c-5.7593-2.4857-2.359-4.1387-1.25-6z" stroke="#333333" fill="#333333"/>
   <path d="m349.75 17.75s-2.9472 3.4848 1.25 4c0.78468 0.09631 1.4597-4.0581-1.25-4z" fill="#ff0000"/>
   <path style="block-progression:tb;text-indent:0;color:#000000000;text-transform:none" d="m363.25 16.688c16.843 24.771-3.0959 30.732-5.2626 46.982l1.25 0.25c8.1127-15.577 21.116-28.849 5.5429-47.107l-1.53-0.125z"/>
   <path style="block-progression:tb;text-indent:0;color:#000000000;text-transform:none" d="m333.46 11.621 1.9338-0.23744c1.8073-7.4942 19.161-11.383 26.457 3.6893l1.7785-1c2.34-7.9895-24.94-20.164-30.17-2.452z"/>
   <path stroke-linejoin="round" d="m343.25 75s-8.125-1.25-8.375 2.625 3.875 11.125 6.25 10c2.38-1.125 9.76-8.125 2.13-12.625z" stroke="#333333333" fill="#336633"/>
   <path style="block-progression:tb;text-indent:0;color:#000000000;text-transform:none" d="m331.09 66.562-0.0625-1.625c-17.097 8.3252 5.8617 10.624 8.375 16.375 1.4966 0.89979 1.5937 0.07441 0.8125-1.25-2.636-5.7444-21.709-7.1343-9.125-13.5z"/>
  </g>
 </g>
</svg>
