<?xml version="1.0" encoding="UTF-8" standalone="no"?>
<svg xmlns:rdf="http://www.w3.org/1999/02/22-rdf-syntax-ns#" xmlns="http://www.w3.org/2000/svg" xmlns:cc="http://creativecommons.org/ns#" xmlns:dc="http://purl.org/dc/elements/1.1/" height="128" width="128" version="1.0">
 <defs>
  <filter id="filter3465" height="1.3695" width="1.2459" y="-.18473" x="-.12293">
   <feGaussianBlur stdDeviation="2.2333214"/>
  </filter>
 </defs>
 <path d="m64.067 105.56c-2.606-2.25-6.304 1.5-10.221 1.5-7.552-0.13-14.505 4.4-11.727 12.1 1.743 7.66 8.696 5.47 15.45 5.59 8.147-0.38 16.863-6.46 13.649-10.21 0.841-0.84 1.055-2.41 2.006-3.12 3.235-2.43 2.619-3.8 6.088-6.12 1.391-2.34 20.087-4.83 12.334-14.616-6.063-3.221-16.957 11.626-19.758 13.386-2.081 2.06-4.924 1-7.821 1.49z" fill-opacity=".77049" fill-rule="evenodd" filter="url(#filter3465)" fill="#000000"/>
 <g transform="matrix(.69219 -.65996 .65977 .69239 -175.09 192.6)" stroke="#333333" stroke-width="1.0456px">
  <path d="m282.9 109.14c2.36 1.64 6.34 1.45 8.57 3.84 0.32 0.94-0.1 3.29-0.09 4.28-0.29 1.27-1.15 1.99-2.18 2.68-2.67 0.69-5.42-0.42-7.96-1.2-2.27-0.35-4.9-1.19-6.28-3.12-2.18-2.58-1.52-4.71-0.88-7.87 2.92 0.57 5.86 1.04 8.82 1.39z" fill-rule="evenodd" fill="#fffffffff"/>
  <path d="m290.5 118.79c-2.89 1.59-6.5-0.1-8.84-1.55-2.85-0.72-5.36-1.63-7.69-4.79" fill="none"/>
 </g>
 <g stroke-width="1px" fill-rule="evenodd">
  <path d="m63.868 86.236c2.725-1.923 9.146-2.501 13.499-4.983 2.4 0.641 4.781-0.14 7.195-0.167 2.078 0.618 5.447 0.196 6.841 1.728 1.747 2.625 1.427 6.472-1.062 7.722-0.941-0.296-1.521-0.149-2.477-0.628-2.541-1.385-5.558-0.982-8.338-0.74-3.621-0.162-6.509 3.563-10.123 3.21-4.021-0.255-7.137-4.927-5.535-6.142z" stroke="#000000033" fill="#003366"/>
  <path d="m52.968 122.58c-0.817 0.23-2.908 0.39-3.669 0.15-1.78-1-1.77-4.87-0.283-6.9 0.908-1.99 1.312-5.72 3.683-6.93 1.676 0.02 6.656-1.67 8.153 0.66-0.456 0.4 0.347 2.62 0.007 3.08-3.206 4.3-3.015 8.85-7.891 9.94z" stroke="#333333" fill="#fffffffff"/>
  <path d="m55.906 85.248c-0.139 0.745-3.048 5.385-2.795 6.651 0.902 2.673-1.092 4.952-1.76 7.673-0.53 2.668-1.241 8.518 0.669 10.488 2.004 0.95 7.01-0.27 8.726-0.6-1.192-3.69-0.42-8.59 0.147-12.423 0.028-3.635 7.187-7.083 7.05-10.737-2.073-0.766-10.729-2.579-12.037-1.052z" stroke="#000000033" fill="#003366"/>
  <path d="m81.864 83.83c-2.682-3.311-4.19-4.777-3.848-8.568-0.83-3.351-0.44-6.667-0.496-9.997-0.023-1.382 2.642-2.554 2.347-3.945-0.25-1.667 0.478-3.475 1.276-5.013 0.623-1.202-1.311-2.369-1.966-3.506-1.706-2.308-6.017-3.382-8.913-3.53-3.716 0.544-7.467 0.043-11.157 0.845-2.723 1.185-10.903 3.256-11.206 6.195-0.132 2.654 5.007 2.079 5.691 7.028-0.37 4.258-1.169 10.131-0.57 14.401 0.855 4.968-1.329 6.079-0.779 11.034 4.286-2.455 8.352 2.84 13.218 2.295 4.081-1.459 13.871-4.143 16.403-7.239z" stroke="#000000" fill="#333333"/>
 </g>
 <g fill-rule="evenodd" stroke="#333300" fill="#ffcc99">
  <path d="m52.684 18.95c-1.348 4.591 0.605 9.999 1.809 14.496-1.744 5.6 0.511 9.691 5.821 14.158 6.144 1.998 13.018 1.569 18.333-5.053 1.307-10.883-0.05-4.277 2.423-13.368 0.818-11.779-3.36-19.763-14.429-18.907-7.652-0.251-10.936 3.697-13.957 8.674z" stroke-width="1px"/>
  <g stroke-width="1px">
   <path d="m63.366 46.439c-1.246 0.664-2.181 2.645-2.443 4.434 2.084 2.462 8.436 2.476 11.477 0.193-0.599-2.572-0.202-2.937-2.408-4.723"/>
   <path d="m80.391 23.846c7.089-2.829 4.148 6.865 0.144 5.743"/>
   <path d="m54.079 25.834c-7.408-1.837-3.175 7.366 0.639 5.708"/>
  </g>
 </g>
 <g fill-rule="evenodd" stroke="#000000" fill="#330000">
  <path d="m54.415 40.509c-0.96 2.072-0.098 3.497 0.761 5.411 1.254 1.795 2.645 1.528 4.733 1.775 1.4-1.137 1.644-1.434 1.69-3.212-0.341-2.397-0.78-1.76-2.704-2.791-1.293-0.331-3.142-1.183-4.48-1.183z" stroke-width="1px"/>
  <path d="m79.195 39.763c1.219 1.931 0.549 3.456-0.055 5.464-1.011 1.943-2.425 1.857-4.464 2.373-1.535-0.946-1.816-1.21-2.091-2.967 0.028-2.42 0.546-1.846 2.321-3.116 1.239-0.497 2.962-1.58 4.289-1.754z" stroke-width="1px"/>
  <path d="m67.353 46.585c15.943-8.049 9.87-9.29 13.096-12.826 4.281-2.599 5.058-14.017 0.493-20.27-3.369-4.6135-7.955-8.3141-13.911-6.2446-14.7-3.0385-20.334 16.8-13.107 29.426 4.943 4.116 2.508 6.351 13.429 9.915z" stroke-width="1px"/>
 </g>
 <g fill-rule="evenodd">
  <path d="m85.272 32.055c-0.121-3.837-2.434-8.278-4.414-11.294-1.248-1.024-4.444-0.646-5.524-2.307 0.028-1.682 3.263-0.556 4.421-1.267-1.243-1.887-6.447-4.756-5.107-7.5635 1.255 0.4185 5.52 3.3285 6.071 4.6505-0.153-1.665-4.551-6.6486-1.795-5.9654 1.419 0.8053 3.807 4.6184 4.164 6.2544 0.665-2.09-1.713-7.6386 0.132-4.7791 0.377 1.3961 2.177 5.2401 1.756 6.5231 0.088 1.482 0.773 2.884 1.226 4.284 2.019 2.683 4.38 7.675 5.404 11.04-1.232 3.142-0.202 4.816-1.167 7.897-0.19 1.319-0.562 7.193-1.011 8.357-2.477 1.583-5.457 1.872-7.157-0.792-2.074-3.565 2.937-11.689 3.001-15.038z" stroke="#333300" stroke-width="1px" fill="#ffcc99"/>
  <path d="m77.704 53.055c0.671-2.319 2.825-6.467 2.887-8.865 4.013 0.488 6.135 2.27 10.131 3.596-0.451 1.974-3.388 5.009-3.804 6.997-0.678 2.615-2.294 3.434-3.485 5.684-1.528 1.637-4.957 3.535-6.77 4.976" stroke="#000000" stroke-width="1px" fill="#333333"/>
  <path d="m67.127 29.309c-1.668 0.2 3.288 6.493 3.761 7.554 0.734 1.646 7.63 4.085 9.045 5.421 1.201 1.134 6.712 1.217 7.741 0.668 1.731-0.924 4.047-0.224 5.034 0.481 3.08 2.202 0.872-1.291-0.044-2.525-0.72-0.97-3.308-2.932-4.645-2.698-3.536 0.62-6.109-3.648-7.546-5.324-1.365-1.592-5.064-1.626-7.058-1.387-1.246 0.149-4.716-2.084-6.288-2.19z" stroke="#000000" stroke-width="1px" fill="#330000"/>
 </g>
 <g>
  <path fill="#ffffff" d="m58.387 62.525c-0.457 0.036-0.371-0.53-0.237-0.804 0.156-0.311-0.123-0.449-0.377-0.463-0.324-0.25-0.037-0.837 0.358-0.584 0.283 0.063 0.193-0.259 0.219-0.427 0.065-0.599 0.029-1.231 0.303-1.784 0.229-0.315 0.694-0.182 0.939 0.041 0.288 0.199 0.554 0.6 0.362 0.947-0.227 0.302-0.632 0.095-0.658-0.236-0.273-0.41-0.236 0.268-0.28 0.465-0.036 0.299-0.064 0.6-0.087 0.901 0.26 0.261 0.797-0.171 0.944 0.314 0.006 0.428-0.523 0.446-0.838 0.471-0.318 0.022-0.275 0.332-0.292 0.558-0.012 0.244-0.051 0.553-0.331 0.626l-0.014-0.013-0.011-0.012zm3.618-2.331c0.354-0.044 0.784 0.172 0.803 0.562-0.017 0.406-0.491 0.706-0.867 0.614-0.406-0.097-0.219 0.557 0.059 0.596 0.353 0.118 0.631-0.298 0.979-0.111 0.322 0.349-0.349 0.593-0.626 0.631-0.364 0.102-0.763-0.06-1.022-0.318-0.365-0.434-0.287-1.095 0.003-1.545 0.154-0.22 0.38-0.448 0.671-0.429zm0.118 0.524c-0.219-0.055-0.337 0.273-0.054 0.187 0.079-0.025 0.162-0.135 0.054-0.187m3.923 2.107c-0.326-0.092-0.32-0.478-0.4-0.747 0.029-0.208-0.182-0.558-0.244-0.174-0.109 0.315-0.421 0.618-0.757 0.628-0.41-0.116-0.587-0.602-0.553-0.993 0.004-0.42 0.184-0.957 0.654-1.036 0.26 0.039 0.464-0.089 0.463-0.359 0.16-0.713-0.063-1.461 0.141-2.167 0.211-0.27 0.796-0.04 0.676 0.337 0.022 0.59-0.01 1.181-0.065 1.768 0.058 0.67 0.175 1.334 0.315 1.991 0.059 0.251 0.398 0.66-0.057 0.728-0.056 0.014-0.114 0.021-0.173 0.024zm-1.215-1.284c0.188-0.113-0.028-0.523-0.099-0.194-0.085 0.114-0.053 0.525 0.099 0.194zm3.345 0.991c-0.462-0.093-0.705-0.585-0.789-1.01-0.088-0.396-0.012-0.829 0.219-1.161 0.318-0.295 0.839-0.324 1.187-0.061 0.344 0.176 0.293 0.659 0.605 0.867 0.165 0.29 0.178 0.68-0.051 0.942-0.214 0.373-0.677 0.438-1.068 0.42-0.034 0.001-0.069 0.002-0.103 0.003zm0.299-0.561c0.377-0.033 0.435-0.603 0.139-0.783-0.109-0.22-0.453-0.682-0.635-0.277-0.055 0.345-0.084 0.871 0.252 1.067 0.081 0.017 0.164 0.007 0.244-0.007zm2.304 0.554c-0.267-0.212-0.182-0.62-0.19-0.924 0.037-0.413-0.052-0.837 0.036-1.242 0.13-0.286 0.618-0.241 0.636 0.091 0.033 0.125 0.01 0.273 0.084 0.381 0.296-0.071 0.734-0.257 0.977 0.085 0.183 0.211 0.07 0.633-0.248 0.507-0.212-0.025-0.486-0.126-0.62 0.106-0.207 0.285-0.041 0.686-0.193 0.964-0.146 0.076-0.326 0.074-0.482 0.032m4.908 0c-0.302-0.082-0.49-0.38-0.525-0.676-0.243-0.253-0.335 0.333-0.588 0.39-0.263 0.185-0.623 0.34-0.943 0.233-0.325-0.239-0.236-0.679-0.231-1.031 0.011-0.544 0.288-1.181 0.867-1.307 0.347-0.048 0.897-0.112 1.006 0.33-0.013 0.177 0.031 0.336 0.105 0.497 0.076 0.218 0.171 0.432 0.27 0.635 0.048 0.323 0.664 0.596 0.25 0.894-0.058 0.05-0.141 0.049-0.211 0.035zm-1.496-0.61c0.251-0.267 0.492-0.59 0.537-0.961-0.113-0.367-0.654-0.106-0.68 0.195-0.036 0.258-0.184 0.683 0.041 0.848 0.042-0.016 0.073-0.05 0.102-0.082"/>
  <path d="m48.179 25.467c1.097-3.679 4.482-10.37 7.167-12.779 1.469-0.671 4.592 0.021 6.061-1.308 0.402-1.6329-3.142-0.882-4.08-1.8654 1.683-1.5059 7.482-2.4151 6.904-5.4719-1.32 0.0835-6.221 1.2725-7.091 2.4095 0.573-1.5704 6.166-4.1964 3.328-4.2408-1.579 0.4154-4.929 2.4238-5.693 3.9133 0.555-2.1904 4.864-5.3975 0.335-3.1053-0.721 1.2538-2.685 2.9606-2.606 4.3091-0.464 1.4097-1.485 2.5903-2.28 3.8285-2.638 2.077-7.221 9.311-9.071 12.302 0.388 3.353-0.884 13.624-0.738 16.85-0.153 1.324 0.935 7.043 1.071 8.283 1.99 2.164 4.993-2.525 7.317-4.666 2.916-2.916-1.419-15.205-0.624-18.459z" fill-rule="evenodd" stroke="#333300" stroke-width="1px" fill="#ffcc99"/>
  <path d="m53.874 52.165c-1.006-3.444-2.169-7.277-3.153-11.456-4.009 0.52-7.885 1.351-11.87 2.71 0.589 5.819 5.437 10.512 8.64 14.304 1.24 1.413 3.726 4.614 6.737 5.341" fill-rule="evenodd" stroke="#000000" stroke-width="1px" fill="#333333"/>
 </g>
 <path d="m55.597 122.46c-0.816 0.23-3.983 0.63-4.744 0.39-1.78-1-1.77-4.87-0.283-6.9 0.908-1.99 0.932-3.32 3.302-4.53 1.676 0.02 5.483-1.08 6.98 1.25-4.759 4.18 0.139 8.58-5.255 9.79z" fill-rule="evenodd" stroke="#333333" stroke-width="1px" fill="#fffffffff"/>
 <path d="m53.46 55.336c6.473 2.265 17.719 2.931 25.456 0.53-0.709 3.554 0.203 12.516 1.255 16.271 0.718 3.67 2.108 6.336 4.225 8.655-3.18 3.979-23.346 6.226-27.318 5.234 0.331-2.925-0.546-8.599-1.384-11.611-2.378-5.587-3.229-12.824-2.234-19.079z" fill-rule="evenodd" stroke="#666666" stroke-width="1px" fill="#ffffff"/>
 <path d="m60.869 65.859c-0.243 0.019-0.462 0.074-0.353-0.188-0.25-1.137-0.818-2.262-1.046-3.4-0.111-0.506-0.235-1.017-0.276-1.52 0.173-0.305 0.722-0.322 1.134-0.385 0.807-0.073 1.639-0.097 2.472-0.065 0.471 0.191 0.833 0.52 1.161 0.828 0.417 0.418 0.306 0.938-0.067 1.253-0.427 0.461-1.237 0.634-1.646 1.103-0.298 0.304 0.21 0.679 0.634 0.82 0.661 0.235 1.378 0.466 1.844 0.92 0.29 0.215 0.645 0.776-0.04 0.653-0.586 0.09-0.986-0.342-1.425-0.598-0.334-0.291-0.796-0.401-1.134-0.666-0.363-0.445-0.979-0.08-0.819 0.297-0.07 0.235 0.219 0.606-0.021 0.759-0.139 0.063-0.279 0.126-0.418 0.189zm0.061-2.633c0.806-0.347 1.687-0.679 2.188-1.271 0.258-0.266-0.003-0.678-0.454-0.826-0.664-0.266-1.389-0.193-2.059-0.182-0.591-0.017-0.123 0.588-0.084 0.858 0.179 0.471 0.269 0.948 0.409 1.421zm7.423 2.589c-0.153-0.79-0.245-1.589-0.646-2.368-0.226-0.518-0.448-1.035-0.669-1.553-0.375-0.247-0.919-0.201-1.363-0.263-0.534-0.031-1.272-0.122-1.515-0.572-0.095-0.358 0.808-0.137 1.133-0.221 1.681-0.011 3.364-0.077 5.079 0.116 0.392 0.019 1.113 0.221 0.874 0.577-0.359 0.252-0.97 0.166-1.467 0.173-0.414 0.059-1.108-0.166-1.31 0.122-0.123 0.504 0.349 1.019 0.477 1.531 0.25 0.795 0.461 1.601 0.475 2.39 0.126 0.431-0.516 0.446-0.922 0.245-0.08-0.042-0.135-0.11-0.146-0.177zm-5.326 9.006c-0.267 0.25 0.201 0.698 0.341 1.008 0.196 0.325 0.501 0.7 0.338 1.021-0.338 0.304-1.198 0.051-1.228-0.398-0.457-1.237-0.769-2.484-1.082-3.727-0.024-0.324-0.339-0.802 0.173-0.944 0.805-0.288 1.788-0.301 2.728-0.304 0.556-0.04 1.097 0.167 1.433 0.54 0.307 0.179 0.377 0.513-0.115 0.355-0.951-0.088-1.953-0.222-2.831-0.034-0.401 0.208-0.128 0.694-0.074 1.03 0.01 0.405 0.562 0.763 1.102 0.702 0.62-0.002 1.22-0.253 1.868-0.036 0.624 0.269 0.166 0.729-0.332 0.725-0.742 0.11-1.536 0.094-2.321 0.062zm10.481 3.367c-0.281-0.457-0.325-0.946-0.454-1.417-0.337-1.461-0.505-2.92-0.881-4.381-0.13-0.057-0.334 0.37-0.497 0.49-0.362 0.381-0.846 0.709-1.321 0.995 0.296 0.186 1.021 0.409 0.916 0.685-0.279 0.365-0.904 0.21-1.238-0.135-0.849-0.564-1.69-1.137-2.559-1.684 0.359 1.303 0.737 2.608 1.006 3.912 0.097 0.379-0.699 0.578-1.023 0.229-0.272-0.37-0.271-0.779-0.393-1.166-0.248-1.146-0.514-2.293-0.684-3.437-0.028-0.402 0.657-0.441 1.091-0.304 0.449 0.159 0.867 0.4 1.102 0.73 0.254 0.215 0.592 0.765 0.979 0.602 0.499-0.427 1.031-0.833 1.508-1.273 0.255-0.255 0.58-0.489 0.595-0.839 0.291-0.219 1.092-0.186 1.108 0.26 0.236 0.75 0.392 1.502 0.63 2.251 0.305 1.162 0.491 2.328 0.885 3.488 0.197 0.327 0.332 0.726-0.107 0.911-0.152 0.098-0.441 0.275-0.663 0.083z" fill="#000000"/>
</svg>
