<?xml version="1.0" encoding="UTF-8" standalone="no"?>
<svg xmlns:rdf="http://www.w3.org/1999/02/22-rdf-syntax-ns#" xmlns="http://www.w3.org/2000/svg" height="128" width="128" version="1.0" xmlns:cc="http://creativecommons.org/ns#" xmlns:dc="http://purl.org/dc/elements/1.1/">
 <defs>
  <filter id="filter3408" height="2.2208" width="1.3106" y="-.61039" x="-.15531">
   <feGaussianBlur stdDeviation="3.8088166"/>
  </filter>
 </defs>
 <g transform="matrix(.96840 0 0 .96840 -271.09 -309.73)">
  <g fill-rule="evenodd">
   <path d="m339.09 375.17c-2.07 2.32-4.63 2.86-6.44 7.39-0.41 2.45-0.74 6.13-0.47 7.45-1.89 3-1.43 5.47-0.71 8.67-1.97 2.94-5.11 4.33-6.75 7.64-1.07 1.66-3.07 1.08-4.6 2.21-1.4 1.54 0.41 1.46 1.39 1.31 0.43 0.82-4.88 4.74-2.45 5.04 0.15 0.62 2.93-2.29 3.81-3.25-0.36 0.46-3.01 3.86-1.89 5.02 0.94 0.03 2.69-2.53 3.75-4.02-0.98 1.81-1.8 2.73-1.17 4.1 0.52 1.12 2.22-2.17 2.35-2.41 0.59-1.08 1.11-2.06 1.45-3.16 0.11-0.38 0.65-0.43 1.37-0.94 3.15-2.33 6.07-5.86 6.71-9.66 2.37-1.02 2.86-1.91 4.74-3.65 3.69-3.47 6.15-8.63 6.86-13.46 0.61-4.19-1.99-10.33-7.95-8.28z" stroke="#330000" stroke-width="1.0326px" fill="#ffcc99"/>
   <path d="m353.91 369.3c-0.36 1.06 0.63 2.52 1.05 3.35 3 0.48 5.83 2.11 8.49 3.95 2.81 5.73 6.29 18.18-3.41 18.24-5.83-1.73-13.47 1.31-18.7-1.85-3.32-1.23 0.01-3.08-1.17-6.07-0.29-1.13-0.36-2.27-0.36-3.47 1.28-1.44 0.43-5.07 1.03-6.92 0.77-1.97 2.03-1.51 3.73-1.33 1.94-1.01 1.38-2.37 2.86-4.32 0.66-3.06 4.84-4.86 6.48-1.58z" stroke="#330000" stroke-width="1.0326px" fill="#ffcc99"/>
   <path d="m342.68 433.61c-5.88-0.67-12.06-0.67-17.56 1.82-3.39 1.43-6.87 0.03-10.23-0.46-6.38 2.94-0.88 8.95 3.44 10.49 9.21 0.11 18.51 4.39 27.39 1.06 5.28-1.55 10.55 1.67 15.87 0.46 3.81-3.04 4.81-4.94 9.24-8.73 0.37-3.86-4.95-4.13-7.51-5.44-6.77 1.17-13.61 1.06-20.64 0.8z" fill-opacity=".78279" filter="url(#filter3408)"/>
   <g>
    <g stroke-width="1.0326px">
     <path d="m339.72 434.12c-0.98 0-1.48 2.53-2.7 3.14-3.86 1.56-8.09 0.58-7.22 4.25 2.56-0.62 7.6 0.11 9.24-2.86 1.68-0.97 3.14-1.12 5.05-1.35 0.32 0.89-0.27 1.11-0.64 2.28 1.48 0.1 1.64 0.43 2.22 0.08 1.18-0.7 2.26 0.42 2.59-0.92 0.29-1.15-0.01-2.83-0.23-3.7-0.36-1.46-0.04-2.22-1.61-2.54-2.64-0.46-4.53 0.27-6.7 1.62z" stroke="#000000" fill="#333333333"/>
     <path d="m339.15 410.33c1.67 2.02-1.15 8.74-1.57 11.77-1.17 4.21 1.82 7.94 2.04 12.07 1.93 0.89 5.98-0.4 7.9-1.43-1.46-5.25-4.32-11.12 1.65-17.39 1.6-1.6 2.07-5.32 1.99-7.53-2.04-1.26-5.34-0.69-7.84-0.69-2.37-0.04 0.74-6.43-4.17 3.2z" stroke="#000033" fill="#330033"/>
     <path d="m348.92 433.48c-0.28 2.51-1.48 4.04-3.43 5.72-1.75 1.6-1.06 4.44-3.23 5.55 2.15 2.9 6.81 0.41 8.54-1.62 0.65-0.86 0.42-2.68 0.93-3.7 0.33-0.66 1.79-1.33 2.31-1.85 0.76-0.76 1.38-1.91 1.38 0 0 1.05 0.23 1.97 0.23 3.24 0.73 1.1 1.2-1.71 2.54-4.16 0-1.27-0.51-2.35-0.73-3.23-2.13-2.85-7.02-3.45-8.54 0.05z" stroke="#000000" fill="#333333333"/>
     <path d="m349.14 409.45c1.67 2.02-2.03 8.65-2.45 11.67-1.17 4.22 1.82 7.95 2.04 12.07 1.93 0.9 5.97-0.4 7.9-1.42-1.46-5.25-1.94-14.04 4.03-20.31 1.6-1.6-0.32-2.4-0.39-4.61-2.04-1.26-5.34-0.69-7.85-0.69-2.36-0.04-1.82 1.71-3.28 3.29z" stroke="#000033" fill="#330033"/>
    </g>
    <path d="m337.09 328.48c-8.63 4.57-4.22 8.21-4.11 13.02 0 2.46-0.17 5.09-0.17 7.54 0.07 2.33 0.23 4.43-0.28 6.71-0.83 2.1-0.9 3.48-1.02 5.71 0.22 2.75 5.48 3.84 7.17 3.36-1.75 0.73-6.81-0.17-7.08-2.71-1.08 8.97 2.6 9.25 4.12 9.6 5.06 1.94 14.23 0.08 19.17-2.21 4.7-3.87 4.4-8.59 5.25-14 0.07-7.19 0.09-16.39-2.97-23.09-0.63-1.36-0.58-2.35-1.59-3.44-4.61-4.45-13.28-1.67-18.49-0.49z" stroke="#330000" stroke-width="1.0326px" fill="#ffcc99"/>
    <g stroke-width="1.0326px">
     <path d="m337.65 331.06c1.18 0-3.18-1.31-3.97-2.33-0.4-2.38 3.34-4.09 7.63-5.41 3.51-1.2 13.88-3.27 17.83 0.98 3.44 3.18 3.76 7.82 4.91 12.04 0.81 4.64 0.02 9.34 0 14 0 1.42-1.42 3-1.1 4.29-1.56-0.61-3.29 2.53-2.83-0.6 0.02-3.67 0.11-7.31-0.39-10.99-0.81-3.79-2.96-1.67-6.2-1.39-2.97 2.86-1.61 5.65-1.2 9.15-1.37 0.69-3.74 1.66-3.26-0.95-0.11-3.77 0.34-7.53 0.49-11.3-0.45-4.4-2.58-3.13-5.95-3.07-0.73-1.44 2.74-4.32 1.77-5.28-2.7-0.93-5.09 0.43-7.73 0.86z" stroke="#000000" fill="#333333333"/>
     <path d="m327.94 362.13c1.16-2.7 2.36-4.38 5.41-5.89 1.67 0 0.77 1.09 2.21 0.73 1.34-0.33 2.47-0.68 3.56-0.14 3.18 2.29 3.5 7.74 3.2 11.32-1.18-1.16-2.2-3.61-2.47-5.41-0.82-1.83-1.98-3.26-5.05-3.55-4.48-1.15-4.54 3.21-5.63 6.63-0.31 1.25-0.74-2.49-1.23-3.69z" stroke="#000000" fill="#333333333"/>
     <path d="m354.46 346.19c2.32-0.74 4.79-7.07 7.78-1.31-0.17 4.07-3.47 5.18-3.84 5.22-1.21 0.71-2.52 0.09-3.68-0.5" stroke="#330000" fill="#ffcc99"/>
     <path d="m342.44 340.02c-2.61-0.92-3.53 0.97-3.93 3.2 0.04 2.95 1.7 3.77 4.42 3.44 1.34-0.34 1.61-0.79 1.96-2.21 0.12-2.14-0.71-3.44-2.45-4.43z" stroke="#333333" fill="#ffffff"/>
     <path d="m339.36 345.45c-0.38-1.55 0.39-2.72 1.85-2.72 1.3 0 0.6 2.49 0.49 2.94-0.21 0.82-1.81 0.43-2.34-0.22z" stroke="#000000"/>
     <path d="m330.89 344.94c-0.7-2.28-0.62-4.33 1.97-4.67 2.56 0.67 3.38 2.45 3.44 4.91-1.7 2.74-3.72 1.83-5.41-0.24z" stroke="#333333" fill="#ffffff"/>
     <path d="m334.58 345.67c0.01-0.26-1.78 1.03-2.46-0.12 0.15-1.98 0.01-1.49 0.73-2.08 1.16-0.95 1.67 3.16 1.73 2.2z" stroke="#000000"/>
    </g>
    <path d="m343.22 375.07c-1.89 1.94-1.42 4.77-1.42 7.29 0.3 2.2 0.96 7.45 3.05 7.91 3.58-0.09 7.29-6.65 8.03-9.99 1.16-3.85 4.06-6.21 4.85-6.93 1.21 0 2.41 0.28 3.23 0.69 0.55 0.28 1.14 0.18 2.06 1.63-2.58-0.96-4.1-1.1-5.52 1.37-1.2 1.8-2.01 3.78-2.77 5.78-0.39 2.24 0.5 3.95 1.61 5.78 3.27 2.98 7.17 0.53 8.77-2.78 0.49-0.97 0.47 2.15 0.47 3.24v3.47c-2.96 7.98-1.66 7.97-0.7 16.86 0 1.43-1.6 1.5-2.77 2.08-3.52 0.06-7-1.47-10.61-0.92-5.02 0.66-10.62 1.27-14.48-1.3-0.31-6.91-0.21-11.73 2.01-16.96 0.97-3.37 0.72-2.47-0.41-5.49 0-0.96 0.14-3.16 0.69-3.71 2.16-2.13-0.05-9.23 3.91-8.02z" stroke="#000000" stroke-width="1.0326px"/>
    <path d="m357.67 382.86c-0.72 3.03-0.78 2.93-0.21 7.78 0.8 2.35 1.92 4.68 2.77 5.71-0.23 3.53 1.35 5.49 3.5 7.96-0.34 3.53-2.44 6.25-2.31 9.94-0.16 1.97-2.19 2.41-3 4.12-0.5 2.02 1.05 1.09 1.85 0.5 0.77 0.51-2.05 6.48 0.23 5.6 0.43 0.47 1.5-3.41 1.81-4.67-0.09 0.57-0.81 4.83 0.73 5.31 0.83-0.42 1.16-3.5 1.38-5.32 0 2.06-0.28 3.26 0.93 4.16 0.98 0.74 0.92-2.96 0.92-3.23 0-1.23-0.01-2.34-0.23-3.47-0.08-0.39 0.37-0.69 0.76-1.48 1.66-3.54 2.56-8.04 1.32-11.69 1.6-2.02 1.6-3.04 2.43-5.46 1.6-4.81 1.32-10.51-0.36-15.11-1.47-3.73-5.19-8.97-9.33-6.36" stroke="#330000" stroke-width="1.0326px" fill="#ffcc99"/>
    <path d="m336.93 343.79c-0.94 4.44-6.56 6.54-6.28 7.78 2.22 0.55 4.77 0.25 7.12 0.25" stroke="#330000" stroke-width="1.0326px" fill="#ffcc99"/>
   </g>
   <path d="m365.7 389.21c-4.69-2.48-1.5 4.54 1.95 2.81 2.27-2.14-0.86-9.15-1.95-2.81z"/>
   <path d="m359.67 345.09c1.93 1.44 0.86 4.22 0.16 5.51-0.29 0.57-1.15 3.44-1.76 3.6-0.52 0.13-0.57-3.08-0.83-3.27-1.21-0.65-0.92-1.26-1.03-2.54 0.42-1.81 1.77-4.63 3.46-3.3z" stroke="#333333" stroke-width="1.0326px" fill="#ffffff"/>
  </g>
  <path d="m340.25 396.5c2.61-0.91 5.65-1.11 7.75 0.5 2.44 1.25 5.16 2.94 5.75 5.62" stroke="#000000" stroke-width="1.0326px" fill="none"/>
  <path d="m342 387.5c1.82 0.65 3.77 0.54 5.62 1 0.98 2.74 0.24 6.03-0.24 8.88-0.31 1.46-0.82 1.77-2.26 1.74-1.66 0-3.26-0.5-4.87-0.87-0.65-3.1-0.67-6.53 0.13-9.63 0.28-1.13 0.44-0.88 1.62-1.12z" fill-rule="evenodd" stroke="#333333" stroke-width="1.0326px" fill="#ffffff"/>
  <g stroke="#333333" stroke-width="1.0326px" fill="none">
   <path d="m342.15 393.2c-0.8 0.63-0.91 1.18-0.97 2.12 0.03 1.04 0.57 1.31 1.32 1.86 0.94 0.56 1.38 0.23 2.21-0.09 0.76-1.42 0.16-2.21-0.53-3.27-0.66-0.32-1.23-0.51-2.03-0.62z"/>
   <path d="m357.71 354.05c-1.24 2.31-0.58 5.13-1.68 7.42-1.93 3.13-1.25 6.8-3.36 9.9-2.07 3.51-5.24 3.78-8.57 5.22 0.13 1.91 0.33 3.88 0.35 5.83-0.42 1.76 0.09 4.02 0.09 5.83"/>
   <path d="m336.76 371.99c0.42 1.74 0.51 4.23 2.12 4.86 1.51 0.38 3.58-0.41 5.13-0.18"/>
  </g>
 </g>
</svg>
