<?xml version="1.0" encoding="UTF-8" standalone="no"?>
<svg xmlns:rdf="http://www.w3.org/1999/02/22-rdf-syntax-ns#" xmlns="http://www.w3.org/2000/svg" height="128" width="128" version="1.0" xmlns:cc="http://creativecommons.org/ns#" xmlns:dc="http://purl.org/dc/elements/1.1/">
 <defs>
  <filter id="filter3443" height="1.6533" width="1.2503" y="-.32663" x="-.12514">
   <feGaussianBlur stdDeviation="1.9634296"/>
  </filter>
 </defs>
 <g fill-rule="evenodd">
  <path d="m13.984 36.741c-0.172 6.652 2.242 27.246 3.566 20.469 14.172-0.449 53.484-3.454 67.713-3.826 11.662-0.298 21.847 3.516 33.487 3.731 0.76 0.014 3.02-3.722 3.78-3.706-0.07-4.84 0.33-10.901 1.32-16.291 0.4-3.26 2.33-8.681-0.29-10.996-18.5 0.056-37.063 1.971-55.701 2.458-10.171 1.617-39.924 2.124-49.854 2.808-0.383 0.645-4.228 2.38-4.021 5.353z" stroke="#330066" stroke-width="1px" fill="#9900cc"/>
  <path d="m14.153 59.9c14.172-0.449 53.131-2.394 67.36-2.766 12.422-0.318 24.867-0.225 37.267 0.025-0.07-4.84 0.33-10.901 1.32-16.291 0.4-3.26 2.33-8.681-0.29-10.996-18.5 0.056-37.063 1.971-55.701 2.458-10.171 1.617-39.747 0.709-49.854 2.808-4.6056 4.168-1.042 20.996-0.102 24.762z" stroke="#330066" stroke-width="1px" fill="#9900ff"/>
  <path d="m177.24 112.04c-5.46 0.43-6.82-3.26-11.49 0.89-1.42 1.42-1.73 4.22-1.34 5.79 2.88 3.85 6 2.87 10.61 4.44 2.27 0.57 3.77-2.11 6.63-2.11 2.9 0 5.17 4.44 8.05 3 2.23-1.11 4.29-0.77 6.22-2.22 1.51-1.14 2.23-3.13 2.67-4.89 0.78-3.14-1.88-3.61-3.56-4.45-2.16-1.08-5.9-0.41-7.56 0-1.77 0.44-2.66 2.02-5.13 2.02-2 0-1.71-2.47-5.1-2.47z" fill-opacity=".72840" transform="matrix(-1.5366 0 0 1 356.51 0)" filter="url(#filter3443)"/>
  <path d="m65.301 110.06c1.128 2.64 5.434 2.03 6.063 5.24-0.23 0.97-0.54 2.65-1.059 3.49-0.922 0.92-1.32 1.43-2.566 1.47-2.623-0.83-7.553 0.48-9.289-1.53-1.74-1.5-3.167-5.02-3.319-7.38-0.481-3.35 1.745-4.62 3.959-6.97 2.18 2.04 3.884 3.82 6.211 5.68z" stroke="#333333" stroke-width="1px" fill="#fffffffff"/>
  <path d="m80.156 96.182c-0.449 0.653-1.355 2.608-2.478 3.356-0.863 0.572-1.797 1.072-2.654 1.592-2.168 1.43-1.267 5.42-2.923 7.33-1.928 1.19-5.882 2.53-8.048 2.55-3.265-0.46-6.049-3.38-5.296-6.19 0.885-0.53 1.703-2.15 2.741-2.56 3.129-0.69 5.94-0.39 5.841-4.944 2.643-2.718 0.241-10.565 3.028-13.143 2.098 0.968 9.953 9.913 9.789 12.009z" stroke="#000000033" stroke-width="1px" fill="#003366"/>
 </g>
 <g stroke-width="1px">
  <path d="m70.557 118.08c-2.975 1.17-6.444-0.05-8.994-0.6-2.939 0.1-4.72-2.9-6.069-8.47" stroke="#333333" fill="none"/>
  <path d="m87.836 110.35c2.622 1.17 6.47 1.58 9.115 3.51 0.491 0.86 0.548 1.9 0.739 2.87-0.051 1.3-0.751 2.17-1.641 3.04-2.489 1.18-5.399 0.61-8.042 0.32-2.294 0.08-5.031-0.25-6.751-1.88-2.63-2.13-2.375-4.34-2.349-7.57 2.984 0.01 5.954-0.07 8.929-0.29z" fill-rule="evenodd" stroke="#333333" fill="#fffffffff"/>
  <path d="m84.826 86.764c0.145 0.779 4.071 4.393 3.807 5.716-0.204 1.016-0.508 2.031-0.75 3-0.519 2.545 1.946 5.11 2.125 7.62-0.515 2.21-1.364 5.58-2.875 7.13-2.63 1.99-6.665 1.89-8.125-0.63 0.25-1 0.06-1.59 0.5-2.62 1.843-2.79 3.756-6.12 0.25-8.75-0.058-3.791-11.021-9.224-10.878-13.018 2.167-0.801 14.578-0.044 15.946 1.552z" fill-rule="evenodd" stroke="#000000033" fill="#003366"/>
  <path d="m97.061 117.84c-3.072 0.89-6.433 1.48-8.921 0.7-2.936-0.18-5.573-0.59-8.455-3.26" stroke="#333333" fill="none"/>
 </g>
 <g fill-rule="evenodd" stroke="#333300" stroke-width="1px" fill="#ffcc99">
  <path d="m89.158 9.4236c10.451-0.01 14.552 6.9054 14.652 15.874-0.01 1.876-0.9 5.565-1.37 7.422 0.2 3.663 1.09 6.434-0.01 10.003-1.28 5.051-4.156 6.844-9.054 7.911-4.343-0.107-6.985-2.655-10.225-5.707-4.642-3.837-9.735-8.372-11.422-14.022-0.583-5.392 2.057-10.52 3.612-15.539 2.158-5.4894 8.61-6.7377 13.817-5.9424z"/>
  <path d="m105.8 26.54c-1.61-1.831-2.99 0.122-1.68 1.429 0.49 0.489 0.21 1.264 0.85 1.724 1.85 1.406 3.02 0.551 2.56-1.208-0.07 0.527 1.78 0.845 2.4 1.029 1.46-0.727 1.03-1.256 0.39-2.358 0.58 0.481 1.97 2.569 1.91-2.102-1.11-2.118-4.99-4.382-3.57-0.486-2.75-4.691-4.12-1.073-2.86 1.972z"/>
  <path d="m102.76 28.037c0.9 2.276 3.41 2.899 4.89 3.835 1.17 2.488 1.18 4.445-1.88 4.477-2.26-0.527-3.41-1.94-4.15-3.988"/>
 </g>
 <g stroke-width="1px" fill-rule="evenodd">
  <path d="m101.12 23.294c1.35 3.005 0.29 4.758-2.634 4.31-0.9 0.392-2.762-1.809-2.325-3.261-0.302-3.906 3.082-3.974 4.959-1.049z" stroke="#333333" fill="#ffffff"/>
  <path d="m99.859 23.654c-0.385-0.359 1.881-1.013 1.741 1.009-0.1 1.566-1.998 1.93-2.628 1.487-1.266-0.891 0.276-2.812 0.887-2.496z" stroke="#000000"/>
  <path d="m70.293 31.304c1.562-0.236-0.29 5.731-0.397 6.853-0.166 1.739-2.829 4.658-3.702 6.279-0.741 1.376-4.905 0.802-5.996 0.546-1.836-0.432-3.71 0.817-4.387 1.733-2.111 2.861-1.172-0.996-0.718-2.394 0.357-1.098 2.482-2.822 3.371-3.726 1.513-1.536 1.638-3.062 2.864-4.722 1.17-1.585 2.818-1.855 4.684-2.136 1.166-0.176 2.899-1.933 4.281-2.433z" stroke="#000000" fill="#330000"/>
 </g>
 <g fill-rule="evenodd" stroke-width="1px">
  <path d="m65.732 91.289c2.741-3.07-0.953-9.243 0.999-12.881 0.439-6.101-0.015-12.806 5.049-18.723 0.973-2.986 3.886-3.47 5.873-5.884 2.158-2.085 3.049-2.235 6.062-1.887 3.739 1.203 3.271 0.76 6.938 2.225 2.604 1.692 4.2 4.04 4.005 7.123-0.322 2.758-0.919 5.193-0.063 7.875-0.354 4.455 2.831 9.51 1.477 13.809-1.74 4.974-0.955 6.738-2.377 11.751-3.997-3.271-11.779-0.062-16.704-1.464-3.958-2.209-9.182 1.685-11.259-1.944z" stroke="#000000" fill="#333333"/>
  <path d="m91.9 55.531c-1.835 4.546-11.122 2.853-14.082-1.573 2.6-2.784 2.661-6.761 4.892-7.886 2.272-0.21 4.458 0.467 6.603 1.141 1.709 1.392 3.013 6.585 2.587 8.318z" stroke="#333300" fill="#ffcc99"/>
  <path d="m75.226 36.023c4.839-0.918 5.768 2.584 7.823 4.163 2.246 0.541 4.182 1.796 6.363 2.5 0.916 0.005 1.715 0.042 2.471-0.331 1.912-0.988 3.262-2.761 4.802-4.227 2.286-1.063 3.935-1.574 6.535-1.562 1.4 0.972 2.93 1.066 1.29 4.663-3.5 0.074-5.017-0.718-7.248 0.215-1.636 1.357-1.671 3.568 0.447 4.47 1.652-0.296 3.181-0.041 4.071-1.917 2.71 0.261 2.26 2.385 1.39 4.225-0.64 4.364-3.55 5.034-7.775 4.4-2.689-0.346-6.184 0.094-8.671-0.917-2.221-1.414-3.701-2.695-5.301-4.808-1.341-2.899-3.441-4.479-5.083-6.899-0.355-1.67-2.466-2.803-1.114-3.975z" stroke="#000000" fill="#330000"/>
 </g>
 <g stroke-width="1px" fill-rule="evenodd">
  <path d="m103.09 15.679c0.7-9.8591-26.187-13.247-27.63-5.456-7.967 0.623-8.124 19.949-2.485 25.879 0.46-0.706 1.921-0.698 2.127-1.79 0.869-4.608 0.342-12.036 4.267-11.324 3.416-1.112 2.174 3.4 2.985 4.08 5.653-3.504-0.131-9.449 5.538-11.817 2.777 1.138 6.294 2.89 9.193 0.045 2.465 0.012 3.905 1.213 6.005 0.383z" stroke="#000000" fill="#330000"/>
  <path d="m80.526 23.516c-5.852-2.358-4.861 6.331-0.527 5.498" stroke="#333300" fill="#ffcc99"/>
  <path d="m79.394 24.886c-0.844-1.497-3.098 1.165-0.013 2.625" stroke="#333300" fill="#ffcc99"/>
 </g>
 <path d="m102.23 42.564c-0.96 0.403-1.8-1.148-4.942 1.046" stroke="#333300" stroke-width="1px" fill="none"/>
 <g>
  <path d="m106.23 46.778c2.36-2.319 3.15-8.034 3.68-11.314-0.23-1.559-0.8-4.026-0.5-5.825 1.09-0.953 0.73 2.416 2 2.899 0.31-2.16-1.25-6.092 1.89-3.844 0.62 1.213 1.1 1.708 0.64 2.9 2.46-1.139 0.89-9.869 3.53-1.704 0.48 1.565-1.25 2.479-2.04 3.704 1.54-1.092 4.08-4.709 3.96-1.026-0.63 1.101-2.63 3.079-3.74 3.498-0.89 0.927-1.3 2.27-1.87 3.432-0.29 3.117-1.81 9.187-3.23 11.93-2.87 0.87-7.96 7.913-10.601 8.954-0.974 0.618-2.843 1.747-3.9 2.075-2.753-0.998-3.128-3.629-2.627-6.488 0.618-3.736 9.898-7.544 12.808-9.191z" fill-rule="evenodd" stroke="#333300" stroke-width="1px" fill="#ffcc99"/>
  <path fill="#ffffff" d="m88.497 73.071c-0.047 0.024-0.116 0.139-0.076-0.088-0.002-0.984-0.088-1.917-0.092-2.901-0.004-0.481-0.01-0.964 0.003-1.451 0.053-0.284 0.179-0.366 0.276-0.468 0.203-0.168 0.41-0.29 0.614-0.36 0.101 0.11 0.168 0.358 0.233 0.581 0.086 0.315 0.048 0.8-0.054 1.135-0.117 0.458-0.305 0.717-0.435 1.14-0.098 0.255-0.056 0.622 0.048 0.714 0.132 0.171 0.291 0.228 0.394 0.523 0.057 0.166 0.118 0.37 0.113 0.626-0.091 0.195-0.256 0.223-0.32-0.032-0.083-0.16-0.155-0.392-0.244-0.512-0.095-0.042-0.16-0.591-0.27-0.175-0.059 0.28-0.042 0.6-0.051 0.894 0.012 0.145-0.061 0.191-0.094 0.284l-0.045 0.09zm0.138-2.396c0.206-0.398 0.425-0.795 0.576-1.363 0.071-0.239 0.063-0.592-0.031-0.702-0.144-0.224-0.333-0.065-0.499 0.023-0.154 0.008-0.083 0.504-0.081 0.748 0.024 0.423 0.023 0.863 0.035 1.294zm1.667 1.484c-0.001-0.681 0.016-1.379-0.042-2.024-0.031-0.46-0.061-0.92-0.091-1.381-0.079-0.18-0.212-0.075-0.316-0.079-0.128 0.034-0.301 0.037-0.339-0.343-0.013-0.3 0.182-0.212 0.257-0.317 0.407-0.211 0.817-0.463 1.223-0.502 0.092-0.014 0.267 0.013 0.213 0.387-0.072 0.266-0.202 0.281-0.304 0.336-0.12 0.052-0.24 0.093-0.359 0.159-0.09 0.37-0.024 0.77-0.002 1.127 0.043 0.752 0.05 1.535 0.027 2.32 0.006 0.305-0.069 0.628-0.192 0.504-0.038-0.01-0.077-0.069-0.075-0.187zm1.305-2.165c-0.075 0.245 0.011 0.585 0.03 0.841 0.033 0.283 0.094 0.597 0.038 0.921-0.083 0.28-0.272 0.223-0.272-0.144-0.055-0.992-0.067-2.015-0.088-3.029 0-0.329-0.019-0.661 0.009-0.995 0.125-0.372 0.309-0.487 0.471-0.619 0.157-0.097 0.323-0.241 0.474-0.152 0.057 0.158 0.192 0.378 0.155 0.638-0.243 0.048-0.492 0.018-0.733 0.278-0.128 0.145-0.093 0.584-0.096 0.856-0.013 0.339 0.048 0.73 0.195 0.648 0.164-0.036 0.332-0.397 0.492-0.266 0.138 0.172 0.006 0.642-0.114 0.696-0.183 0.187-0.374 0.265-0.561 0.327zm2.367 1.834c-0.046-0.367-0.034-0.789-0.043-1.186-0.014-1.301 0.015-2.622-0.008-3.919-0.024-0.052-0.091 0.344-0.131 0.457-0.106 0.407-0.244 0.775-0.376 1.102 0.062 0.134 0.226 0.252 0.188 0.515-0.084 0.363-0.227 0.296-0.291 0.022-0.179-0.414-0.354-0.835-0.538-1.23 0.025 1.14 0.056 2.28 0.059 3.432 0.004 0.314-0.171 0.574-0.246 0.368-0.061-0.253-0.037-0.605-0.049-0.908-0.009-1.047-0.017-2.096-0.007-3.15-0.001-0.326 0.136-0.479 0.233-0.458 0.121 0.054 0.229 0.251 0.276 0.555 0.051 0.165 0.107 0.625 0.208 0.432 0.136-0.43 0.277-0.852 0.411-1.288 0.065-0.269 0.174-0.499 0.184-0.825 0.056-0.244 0.258-0.375 0.261-0.018 0.028 0.661 0.025 1.34 0.05 2.003 0.02 1.033 0.01 2.084 0.051 3.104 0.026 0.264 0.051 0.594-0.059 0.812-0.043 0.113-0.125 0.336-0.173 0.18z"/>
  <path d="m80.148 57.868c2.145-1.367 4.415-2.196 6.829-2.904 2.369-0.87 4.504-2.151 6.562-3.583 2.073 3.685 3.27 9.277 4.626 13.466-1.942 0.841-4.293 2.12-6.226 3-2.598 1.206-9.299 0.964-11.079-1.516" fill-rule="evenodd" stroke="#000000" stroke-width="1px" fill="#333333"/>
 </g>
 <path d="m123.74 26l-4.06 4.242" stroke="#330066" stroke-width="1px" fill="none"/>
</svg>
