<?xml version="1.0" encoding="UTF-8" standalone="no"?>
<svg xmlns:rdf="http://www.w3.org/1999/02/22-rdf-syntax-ns#" xmlns="http://www.w3.org/2000/svg" height="128" width="128" version="1.0" xmlns:cc="http://creativecommons.org/ns#" xmlns:dc="http://purl.org/dc/elements/1.1/">
 <defs>
  <filter id="filter3443" height="1.6533" width="1.2503" y="-.32663" x="-.12514">
   <feGaussianBlur stdDeviation="1.9634296"/>
  </filter>
 </defs>
 <g fill-rule="evenodd">
  <path d="m55.242 112.04c-5.465 0.43-6.823-3.26-11.495 0.89-1.413 1.42-1.725 4.22-1.334 5.79 2.874 3.85 5.998 2.87 10.605 4.44 2.277 0.57 4.263 0.89 7.116 0.89 2.9 0 4.684 1.44 7.561 0 2.231-1.11 4.291-0.77 6.227-2.22 1.512-1.14 2.226-3.13 2.668-4.89 0.784-3.14-1.876-3.61-3.558-4.45-2.161-1.08-5.906-0.41-7.561 0-1.773 0.44-3.316-2.23-5.781-2.23-2 0-1.06 1.78-4.448 1.78z" fill-opacity=".72840" filter="url(#filter3443)"/>
  <path d="m63.942 108.47c-2.719 0.92-6.589 0.98-9.401 2.65-0.569 0.82-0.722 1.84-1.002 2.79-0.07 1.3 0.547 2.23 1.352 3.18 2.369 1.4 5.319 1.11 7.978 1.06 2.277 0.3 5.032 0.22 6.896-1.24 2.815-1.87 2.767-4.11 3.041-7.32-2.973-0.27-5.921-0.63-8.864-1.12z" stroke="#333333" stroke-width="1px" fill="#fffffffff"/>
  <path d="m64.012 87.471c-0.145 0.779-0.889 2.802-0.625 4.125 0.204 1.016 0.508 2.031 0.75 3 0.519 2.545-0.445 4.982-0.625 7.504 0.516 2.2-0.136 5.69 1.375 7.25 2.63 1.98 6.665 1.89 8.125-0.63-0.25-1-0.059-1.6-0.5-2.62-1.286-2.74-0.677-5.87-0.25-8.754 0.058-3.791 7.309-7.633 7.166-11.427-2.167-0.801-14.047-0.044-15.416 1.552z" stroke="#000000033" stroke-width="1px" fill="#003366"/>
 </g>
 <g stroke-width="1px">
  <path d="m54.062 115.07c2.976 1.18 6.268 2.08 8.818 1.53 2.94 0.1 5.604-0.07 8.721-2.46" stroke="#333333" fill="none"/>
  <path d="m58.527 110.35c-2.621 1.17-6.47 1.58-9.115 3.51-0.49 0.86-0.548 1.9-0.739 2.87 0.051 1.3 0.751 2.17 1.642 3.04 2.488 1.18 5.399 0.61 8.041 0.32 2.295 0.08 5.031-0.25 6.752-1.88 2.629-2.13 2.374-4.34 2.349-7.57-2.984 0.01-5.954-0.07-8.93-0.29z" fill-rule="evenodd" stroke="#333333" fill="#fffffffff"/>
  <path d="m61.538 86.764c-0.146 0.779-4.072 4.393-3.807 5.716 0.203 1.016 0.507 2.031 0.75 3 0.518 2.545-0.446 4.98-0.625 7.5 0.515 2.21-0.137 5.7 1.375 7.25 2.63 1.99 6.664 1.89 8.125-0.63-0.251-1-0.06-1.59-0.5-2.62-1.286-2.74-0.677-5.86-0.25-8.75 0.057-3.791 11.02-9.224 10.878-13.018-2.168-0.801-14.578-0.044-15.946 1.552z" fill-rule="evenodd" stroke="#000000033" fill="#003366"/>
  <path d="m49.302 117.84c3.072 0.89 6.433 1.48 8.922 0.7 2.935-0.18 5.572-0.59 8.455-3.26" stroke="#333333" fill="none"/>
 </g>
 <g stroke-width="1px" fill-rule="evenodd">
  <path d="m57.205 9.4236c-10.451-0.01-14.551 6.9054-14.647 15.874 0.009 1.876 0.895 5.565 1.369 7.422-0.199 3.663-1.092 6.434 0.006 10.003 1.281 5.051 4.156 6.844 9.054 7.911 4.343-0.107 6.985-2.655 10.225-5.707 4.642-3.837 9.736-8.372 11.422-14.022 0.583-5.392-2.056-10.52-3.611-15.539-2.158-5.4894-8.611-6.7377-13.818-5.9424z" stroke="#333300" fill="#ffcc99"/>
  <path d="m43.602 28.037c-0.898 2.276-3.412 2.899-4.884 3.835-1.172 2.488-1.187 4.445 1.876 4.477 2.255-0.527 3.41-1.94 4.15-3.988" stroke="#333300" fill="#ffcc99"/>
  <path d="m45.24 23.294c-1.351 3.005-0.286 4.758 2.637 4.31 0.901 0.392 2.762-1.809 2.325-3.261 0.303-3.906-3.082-3.974-4.962-1.049z" stroke="#333333" fill="#ffffff"/>
  <path d="m46.504 23.654c0.385-0.359-1.882-1.013-1.745 1.009 0.106 1.566 2.003 1.93 2.633 1.487 1.265-0.891-0.277-2.812-0.888-2.496z" stroke="#000000"/>
  <path d="m76.07 31.304c-1.562-0.236 0.29 5.731 0.397 6.853 0.167 1.739 2.83 4.658 3.702 6.279 0.741 1.376 4.905 0.802 5.996 0.546 1.836-0.432 3.71 0.817 4.387 1.733 2.111 2.861 1.172-0.996 0.718-2.394-0.356-1.098-2.481-2.822-3.371-3.726-1.513-1.536-1.638-3.062-2.864-4.722-1.17-1.585-2.817-1.855-4.684-2.136-1.165-0.176-2.898-1.933-4.281-2.433z" stroke="#000000" fill="#330000"/>
 </g>
 <g fill-rule="evenodd" stroke-width="1px">
  <path d="m80.632 91.289c-2.742-3.07 0.953-9.243-1-12.881-0.438-6.101-3.192-14.009-5.049-18.723-0.972-2.986-3.886-3.47-5.872-5.884-2.159-2.085-3.05-2.235-6.063-1.887-3.738 1.203-3.271 0.76-6.938 2.225-2.603 1.692-4.2 4.04-4.005 7.123 0.322 2.758 0.919 5.193 0.064 7.875 0.353 4.455-2.832 9.51-1.477 13.809 1.74 4.974 0.954 6.738 2.377 11.751 3.996-3.271 11.778-0.062 16.703-1.464 3.958-2.209 9.182 1.685 11.26-1.944z" stroke="#000000" fill="#333333"/>
  <path d="m54.463 55.531c1.836 4.546 11.122 2.853 14.082-1.573-2.599-2.784-2.66-6.761-4.892-7.886-2.272-0.21-4.458 0.467-6.602 1.141-1.709 1.392-3.014 6.585-2.588 8.318z" stroke="#333300" fill="#ffcc99"/>
  <path d="m71.137 36.023c-4.838-0.918-5.768 2.584-7.823 4.163-2.246 0.541-4.181 1.796-6.363 2.5-0.916 0.005-1.715 0.042-2.47-0.331-1.913-0.988-3.263-2.761-4.802-4.227-2.286-1.063-3.936-1.574-6.539-1.562-1.392 0.972-2.924 1.066-1.29 4.663 3.507 0.074 5.02-0.718 7.251 0.215 1.636 1.357 1.671 3.568-0.447 4.47-1.652-0.296-3.178-0.041-4.072-1.917-2.713 0.261-2.258 2.385-1.385 4.225 0.64 4.364 3.546 5.034 7.771 4.4 2.689-0.346 6.185 0.094 8.672-0.917 2.221-1.414 3.701-2.695 5.3-4.808 1.341-2.899 3.442-4.479 5.084-6.899 0.354-1.67 2.466-2.803 1.113-3.975z" stroke="#000000" fill="#330000"/>
 </g>
 <g stroke-width="1px" fill-rule="evenodd">
  <path d="m43.27 15.679c-0.693-9.8591 26.19-13.247 27.633-5.456 7.968 0.623 8.125 19.949 2.485 25.879-0.459-0.706-1.921-0.698-2.127-1.79-0.869-4.608-0.341-12.036-4.267-11.324-3.416-1.112-2.173 3.4-2.985 4.08-5.652-3.504 0.132-9.449-5.538-11.817-2.776 1.138-6.294 2.89-9.192 0.045-2.466 0.012-3.905 1.213-6.009 0.383z" stroke="#000000" fill="#330000"/>
  <path d="m65.838 23.516c5.851-2.358 4.861 6.331 0.526 5.498" stroke="#333300" fill="#ffcc99"/>
  <path d="m66.969 24.886c0.844-1.497 3.099 1.165 0.013 2.625" stroke="#333300" fill="#ffcc99"/>
 </g>
 <path d="m44.13 42.564c0.967 0.404 1.325 0.185 3-0.015" stroke="#333300" stroke-width="1px" fill="none"/>
 <g>
  <path d="m71.292 83.023c-0.28 3.296-1.279 6.934-3.468 9.432-1.346 0.821-2.475-1.162-3.67 0.215-0.038 1.448 1.192 2.139 2.373 2.807-1.373 1.563-3.509 2.626-2.222 5.103 1.328-0.29 2.484-1.439 3.112-2.549-0.226 1.425-2.113 3.889 0.793 3.429 1.515-0.62 1.255-2.172 1.694-3.562 0.611 1.831 0.308 4.272 2.351 1.898 0.449-1.183 0.08-2.182-0.309-3.307 0.152-1.271 0.924-2.444 1.453-3.627 2.216-2.21 3.403-5.002 4.608-7.847-1.16-2.765 1.464-5.544 0.579-8.242-0.146-1.144-0.312-2.135-0.734-3.159-2.524-1.483-4.947-1.262-6.829 0.948-2.309 2.967 0.337 5.576 0.269 8.461z" fill-rule="evenodd" stroke="#333300" stroke-width="1px" fill="#ffcc99"/>
  <path d="m64.76 63.768c0.128 2.54 0.768 4.87 1.591 7.248 0.664 2.434 0.857 4.917 0.883 7.424 4.205-0.446 9.455-2.713 13.655-4.035-0.441-2.071-0.761-4.728-1.164-6.813-0.523-2.816-4.604-8.137-7.657-8.149" fill-rule="evenodd" stroke="#000000" stroke-width="1px" fill="#333333"/>
  <path fill="#ffffff" d="m52.086 70.64c-0.063-0.007-0.157 0.062-0.103-0.136-0.003-0.974-0.118-1.951-0.124-2.926-0.006-0.478-0.014-0.96 0.005-1.432 0.07-0.247 0.241-0.246 0.372-0.284 0.274-0.036 0.554-0.023 0.831 0.04 0.136 0.174 0.227 0.462 0.315 0.725 0.116 0.367 0.064 0.821-0.074 1.087-0.158 0.376-0.412 0.511-0.588 0.844-0.132 0.19-0.075 0.579 0.066 0.738 0.178 0.254 0.393 0.413 0.531 0.77 0.078 0.201 0.16 0.442 0.153 0.692-0.122 0.134-0.345 0.056-0.433-0.238-0.112-0.212-0.208-0.487-0.329-0.664-0.129-0.103-0.217-0.687-0.365-0.347-0.08 0.239-0.057 0.566-0.069 0.851 0.016 0.15-0.083 0.149-0.127 0.22-0.02 0.02-0.04 0.04-0.061 0.06zm0.187-2.279c0.278-0.26 0.575-0.511 0.779-0.975 0.096-0.19 0.085-0.544-0.043-0.713-0.194-0.314-0.449-0.279-0.674-0.3-0.208-0.092-0.112 0.445-0.109 0.687 0.032 0.433 0.03 0.868 0.047 1.301zm2.254 2.542c-0.001-0.673 0.021-1.352-0.057-2.027-0.042-0.474-0.083-0.949-0.124-1.423-0.106-0.229-0.286-0.211-0.427-0.283-0.172-0.048-0.407-0.157-0.457-0.556-0.018-0.305 0.245-0.094 0.346-0.149 0.551 0.055 1.105 0.07 1.654 0.294 0.125 0.046 0.361 0.186 0.288 0.52-0.097 0.216-0.273 0.147-0.411 0.136-0.162-0.026-0.324-0.063-0.485-0.075-0.121 0.308-0.033 0.746-0.003 1.112 0.059 0.771 0.068 1.55 0.037 2.311 0.008 0.305-0.094 0.575-0.26 0.374-0.051-0.035-0.104-0.119-0.101-0.234zm1.764-1.297c-0.101 0.181 0.012 0.563 0.035 0.815 0.045 0.312 0.135 0.674 0.057 0.97-0.112 0.223-0.368 0.045-0.368-0.318-0.074-1.016-0.09-2.034-0.118-3.049-0.001-0.326-0.026-0.666 0.012-0.978 0.168-0.287 0.417-0.282 0.636-0.308 0.212 0.006 0.437-0.03 0.641 0.156 0.078 0.193 0.259 0.497 0.209 0.731-0.327-0.109-0.665-0.3-0.99-0.199-0.173 0.061-0.126 0.517-0.13 0.784-0.018 0.327 0.065 0.753 0.263 0.766 0.223 0.071 0.45-0.178 0.666 0.055 0.186 0.258 0.008 0.638-0.154 0.615-0.248 0.066-0.506 0.019-0.759-0.04zm3.2 3.34c-0.061-0.392-0.045-0.802-0.058-1.2-0.019-1.295 0.02-2.581-0.011-3.877-0.032-0.067-0.122 0.281-0.176 0.367-0.144 0.333-0.33 0.608-0.509 0.846 0.081 0.171 0.312 0.398 0.255 0.631-0.114 0.304-0.308 0.145-0.395-0.168-0.241-0.523-0.478-1.053-0.727-1.562 0.035 1.144 0.076 2.289 0.081 3.43 0.005 0.313-0.232 0.457-0.334 0.205-0.081-0.289-0.049-0.622-0.066-0.929-0.012-1.04-0.022-2.082-0.01-3.118 0-0.322 0.185-0.385 0.316-0.301 0.164 0.131 0.309 0.395 0.373 0.726 0.069 0.196 0.144 0.686 0.281 0.561 0.185-0.337 0.375-0.663 0.556-1.008 0.088-0.223 0.235-0.38 0.249-0.696 0.076-0.205 0.348-0.204 0.352 0.15 0.038 0.671 0.034 1.341 0.068 2.013 0.027 1.033 0.013 2.065 0.069 3.1 0.035 0.277 0.069 0.619-0.079 0.764-0.058 0.084-0.169 0.251-0.235 0.066z"/>
 </g>
</svg>
