<?xml version="1.0" encoding="UTF-8" standalone="no"?>
<svg xmlns:rdf="http://www.w3.org/1999/02/22-rdf-syntax-ns#" xmlns="http://www.w3.org/2000/svg" height="128" width="128" version="1.0" xmlns:cc="http://creativecommons.org/ns#" xmlns:dc="http://purl.org/dc/elements/1.1/">
 <defs>
  <filter id="filter3443" height="1.6533" width="1.2503" y="-.32663" x="-.12514">
   <feGaussianBlur stdDeviation="1.9634296"/>
  </filter>
 </defs>
 <g transform="matrix(.93743 0 0 .93743 106.22 41.59)">
  <path d="m-47.84 76.69c-1.872 0.605-6.113-0.639-8.895-1.334-2.356-0.589-4.727 1.169-5.782 2.224-1.413 1.413-1.725 4.217-1.334 5.781 0.832 3.328 5.382 3.105 7.561 2.669 2.008-0.402 4.244 1.283 6.226 1.779 2.277 0.569 4.263 0.889 7.117 0.889 2.899 0 4.684 1.439 7.56 0 2.231-1.115 4.291-0.772 6.227-2.223 1.512-1.135 2.226-3.124 2.668-4.893 0.784-3.135-1.876-3.607-3.558-4.447-2.161-1.081-5.906-0.414-7.56 0-1.774 0.443-3.316-2.224-5.782-2.224-2 0-1.06 1.779-4.448 1.779z" fill-opacity=".72840" fill-rule="evenodd" filter="url(#filter3443)"/>
  <g fill-rule="evenodd" stroke="#333333333" stroke-width="1.0668px" fill="#333333333">
   <path d="m-49.073 74.798c-3.175 0.624-5.789 1.221-8.485 3.182-0.6 0.719-0.573 1.412-0.53 2.298 0.237 0.764 0.51 1.512 0.707 2.298 2.752 0.257 5.792 1.905 8.666 0.98 3.019 0.038 6.07-1.019 8.57-2.836 0.577-1.71-0.043-4.028-0.177-5.922-2.784 0.874-5.949 0.733-8.751 0z"/>
   <path d="m-57.381 81.073c3.251-0.556 6.501 1.578 9.887 1.124 3.143-0.104 4.775-2.388 7.083-2.538"/>
   <path d="m-37.847 75.328c-2.531 1.352-6.34 2.044-8.839 4.154-0.427 0.899-0.41 1.938-0.53 2.917 0.144 1.294 0.905 2.112 1.856 2.917 2.566 0.993 5.428 0.218 8.043-0.265 2.295-0.081 5.001-0.607 6.599-2.356 2.47-2.31 2.056-4.503 1.798-7.721-2.976 0.226-5.944 0.354-8.927 0.354z"/>
  </g>
  <g stroke-width="1.0668px" fill-rule="evenodd">
   <path d="m-38.009 53.178c-0.145 0.779-0.889 2.802-0.625 4.125 0.204 1.016 0.508 2.031 0.75 3 0.519 2.545-0.445 4.982-0.625 7.5 0.515 2.208-0.136 5.698 1.375 7.25 2.63 1.987 6.665 1.894 8.125-0.625-0.25-1.001-0.059-1.598-0.5-2.625-1.286-2.739-0.677-5.864-0.25-8.75 0.058-3.791 0.768-7.456 0.625-11.25-2.167-0.801-7.507-0.221-8.875 1.375z" stroke="#333333300" fill="#663300"/>
   <path d="m-49.134 53.053c-0.145 0.779-0.889 2.802-0.625 4.125 0.944 2.795 1.074 5.406 0.375 8.25 0.016 2.789-0.872 7.449 1.125 9.5 2.846 1.127 5.707 1.845 8.125-0.625-1.245-3.852-1.343-7.364-0.75-11.375 0.029-3.801 0.769-7.43 0.625-11.25-2.167-0.801-7.507-0.221-8.875 1.375z" stroke="#333333300" fill="#663300"/>
   <path d="m-46.509 83.46c3.128 0.671 6.523 1.018 8.948 0.058 2.916-0.386 5.516-0.991 8.199-3.859" stroke="#333333333" fill="#333333333"/>
  </g>
  <path d="m-60.78-14.329c-11.003 7.1759 0.519 17.921 2.518 25.973" stroke="#000000000" stroke-width="1.0668px" fill="none"/>
  <g fill-rule="evenodd" stroke-width="1.0668px">
   <path d="m-53.853 37.948c-1.415 0.282-2.346 1.097-3.293 2.109-2.261 1.765-3.206 4.673-5.804 5.951-1.761 0.593-2.881 1.01-4.716 0.818-1.125-1.068-2.738-2.197-3.959-1.562-0.03 1.287 2.287 2.068 3.22 2.906-0.744 1.233-4.386 1.825-5.667 2.878-0.302 2.816 3.343 1.416 4.604 0.355-0.988 1.254-3.454 2.404-4.128 3.27 1.152 1.783 4.165-0.122 5.449-1.347-1.43 1.321-3.507 1.976-1.873 3.582 1.924 0.328 3.216-1.438 4.657-2.537 2.471-1.524 5.202-2.562 7.493-4.383 2.863-3.19 8.11-5.399 9.666-9.496-0.916-2.938-3.423-1.852-5.649-2.544z" stroke="#333333300" fill="#ffcc99"/>
   <path d="m-49.029 19.028c-2.76 2.858-4.41 11.167-5.597 14.901-1.482 2.634-10.497 9.103-10.825 12.166 4.056 0.766 3.103 5.771 7.126 6.324 0.632-1.676 6.399-3.484 8.538-7.56 4.1-7.813 5.392-19.452 5.458-22.836" stroke="#333333300" fill="#663300"/>
   <path d="m-23.228 55.797c-2.869-3.539-0.893-8.841-0.527-12.894-1.256-5.07 2.006-10.48 0.929-15.547-0.476-3.176-1.53-6.036-3.126-8.805-1.824-2.468-4.261-3.872-7.358-4.03-3.974 0.582-7.986 0.046-11.932 0.904-2.911 1.267-4.918 3.365-5.242 6.508-0.141 2.836 0.05 5.393-1.266 7.954-0.395 4.552-1.906 9.174-1.265 13.739 0.915 5.311-1.364 7.49-0.776 12.787 4.583-2.624 10.523 1.332 15.727 0.749 4.365-1.56 12.128 1.945 14.836-1.365z" stroke="#333333300" fill="#663300"/>
  </g>
  <path d="m-46.89 16.627l-0.656 11.619 3.654 1.218 3.748 0.469 8.059-12.744-14.805-0.562z" fill-rule="evenodd" stroke="#000000" stroke-width="1.0668px" fill="#ffffff"/>
  <g fill-rule="evenodd" stroke-width="1.0668px">
   <path d="m-45.946 17.568c0.541 1.427 2.109 3.307 3.687 4.235 1.796-1.603 7.85-2.45 10.022-5.554-1.246-2.533-2.128-5.576-4.858-6.9024-2.318-0.2647-4.568 0.3799-6.775 1.0224-1.777 1.386-2.473 5.418-2.076 7.199z" stroke="#333333300" fill="#ffcc99"/>
   <path d="m-24.414 44.393c0.565 3.335 0.506 7.193-1.023 10.226-1.122 1.157-2.747-0.518-3.579 1.151 0.333 1.444 1.728 1.813 3.068 2.173-0.96 1.898-2.804 3.497-0.895 5.624 1.238-0.635 2.091-2.063 2.429-3.323 0.14 1.469-1.1 4.387 1.662 3.196 1.341-1.005 0.687-2.475 0.767-3.963 1.072 1.657 1.395 4.148 2.812 1.278 0.142-1.286-0.478-2.181-1.151-3.196-0.175-1.296 0.29-2.656 0.512-3.962 1.629-2.755 2.091-5.823 2.556-8.948-1.855-2.44 0.032-5.863-1.534-8.309-0.436-1.095-0.854-2.034-1.534-2.94-2.878-0.823-5.22 0.015-6.519 2.684-1.528 3.528 1.759 5.435 2.429 8.309z" stroke="#333333300" fill="#ffcc99"/>
   <path d="m-32.764 24.177c0.131 2.598 3.784 9.291 4.625 11.722 0.68 2.49 1.065 14.774 1.091 17.338 4.3-0.457 6.091 1.485 10.386 0.133-0.01-2.265 2.01-14.706-0.697-16.073-0.683-2.806-4.044-12.503-5.282-14.928-1.51-2.113-3.564-3.111-6.146-2.35" stroke="#333333300" fill="#663300"/>
   <path d="m-43.125-28.811c-10.687-0.062-14.915 6.989-15.058 16.16 0 1.919 0.887 5.695 1.363 7.5968-0.222 3.7446-1.149 6.5741-0.044 10.229 1.285 5.1712 4.758 7.9242 9.762 9.0392 4.441-0.087 10.41-1.596 13.739-4.7003 4.766-3.8998 6.2-10.5 7.954-16.27 0.623-5.5107-2.051-10.768-3.616-15.908-2.179-5.625-8.771-6.934-14.1-6.147z" stroke="#333333300" fill="#ffcc99"/>
  </g>
  <g stroke-width="1.0668px" fill-rule="evenodd">
   <path d="m-56.864-21.58c-0.659-10.085 26.849-13.415 28.285-5.441 7.727 0.593 7.766 20.388 5.847 27.2-7.973-0.08102-3.827-9.3172-8.462-11.635-1.975-0.494-2.635 1.02-4.339 1.446-3.609-2.32 0.041-9.457-5.785-11.931-2.844 1.149-6.45 2.924-9.4 0-2.521 0-3.999 1.22-6.146 0.361z" stroke="#000000000" fill="#330000"/>
   <path d="m-23.881-1.251c-1.616 0 1.166 5.7512 1.446 6.8694 0.433 1.7335 3.571 4.2791 4.7 5.7846 0.959 1.279 5.082 0.064 6.146-0.361 1.7912-0.717 3.8766 0.26 4.7005 1.084 2.5711 2.571 1.0336-1.186 0.3616-2.5305-0.5279-1.0557-2.9395-2.4758-3.9771-3.254-1.764-1.3228-2.123-2.846-3.615-4.3386-1.425-1.4244-3.132-1.4462-5.062-1.4462-1.206 0.00001-3.226-1.5129-4.7-1.8077z" stroke="#000000000" fill="#330000"/>
   <path d="m-42.674 21.499l-1.218 3.655-2.811-8.621 4.029 4.966z" stroke="#666633" fill="#ffffff"/>
   <path d="m-58.071 11.67c0.671 1.342 2.034 2.173 3.739 2.173 2.686 0.775 5.285 1.98 7.957 2.909 3.51 0.901 6.067-0.89 8.661-2.909 4.37-2.259 8.898-6.1058 9.81-11.152 0.256-2.1148-0.576-2.1097-1.789-1.7262-2.015 2.0559-4.539 4.2285-7.286 5.3048-3.481 0.9889-6.239 1.4473-7.223-2.5565-1.154-3.3162-4.882-4.2683-7.957-5.0492-6.535-0.2823-7.961 8.243-5.912 13.006zm5.848-8.9795c3.154-1.3316 9.725 6.7788 4.027 6.4553-2.394-0.7973-2.892-2.3467-4.314-0.3516-5.074 1.5378-3.073-4.8292 0.287-6.1037z" stroke="#000000000" fill="#330000"/>
   <path d="m-49.198-12.021c-1.531 2.7527-0.346 4.3665 2.931 3.9687 1.007 0.3631 3.105-1.6489 2.623-2.9837 0.36-3.583-3.432-3.661-5.554-0.985z" stroke="#333333" fill="#ffffff"/>
   <path d="m-55.28-12.871c-2.148 0.393-3.157 1.731-2.738 3.7208 2.48 3.734 7.198-1.6388 2.738-3.7208z" stroke="#333333" fill="#ffffff"/>
  </g>
  <g fill-rule="evenodd" stroke="#333333300" stroke-width="1.0668px" fill="#ffcc99">
   <path d="m-51.36-10.348c-0.425 2.4652-2.811 3.6127-4.09 4.8575-0.654 2.7353-0.262 4.6978 2.812 4.0905 2.147-0.9977 3.009-2.6527 3.323-4.8574"/>
   <path d="m-33.464-9.8366c5.996-2.3824 4.939 6.4979 0.511 5.6244"/>
   <path d="m-32.314-8.4305c0.871-1.5267 3.163 1.2065 0 2.6844"/>
  </g>
  <path d="m-53.917 6.014c0.987 0.4184 3.783 0.1956 5.497 0" stroke="#333333300" stroke-width="1.0668px" fill="none"/>
  <g stroke-width="1.0668px" fill-rule="evenodd">
   <path d="m-47.777-11.498c0.395-0.365-1.92-1.045-1.79 1.023 0.101 1.6023 2.038 1.984 2.684 1.5335 1.299-0.9048-0.268-2.8765-0.894-2.5565z" stroke="#000000" fill="#330000"/>
   <path d="m-56.354-11.794c0.467-0.97-2.227-0.192-1.534 2.0451 0.478 1.544 2.172 0.5941 2.301 0.5113 1.718-1.1094 0.328-3.9394-0.767-2.5564z" stroke="#000000" fill="#330000"/>
   <path d="m-42.111 21.593l0.468 3.936 7.122-7.965-7.59 4.029z" stroke="#666633" fill="#ffffff"/>
   <path d="m-33.678 12.972c-0.284 2.959-5.411 16.013-10.682 16.68l4.498 5.435c1.123-6.435 8.276-15.476 9.932-19.959l-3.748-2.156z" stroke="#333333300" fill="#663300"/>
   <path d="m-46.047 16.814c0.068 3.971-1.269 7.617 1.78 12.276l-4.872 4.216c0.17-5.634-0.268-11.42 0.795-16.831l2.297 0.339z" stroke="#333333300" fill="#663300"/>
  </g>
  <path d="m-43.892 30.12c-0.376 8.281-0.15 16.992 1.218 26.519" stroke="#333333300" stroke-width="1.0668px" fill="none"/>
  <g fill="#333333300">
   <path d="m221.88 249.12a0.125 0.375 0 1 1 -0.26 0 0.125 0.375 0 1 1 0.26 0z" transform="matrix(8.6208 0 0 3.2484 -1958.6 -772.68)"/>
   <path d="m221.88 249.12a0.125 0.375 0 1 1 -0.26 0 0.125 0.375 0 1 1 0.26 0z" transform="matrix(8.6208 0 0 3.2484 -1959 -765.65)"/>
   <path d="m221.88 249.12a0.125 0.375 0 1 1 -0.26 0 0.125 0.375 0 1 1 0.26 0z" transform="matrix(8.6208 0 0 3.2484 -1958.3 -758.9)"/>
   <path d="m221.88 249.12a0.125 0.375 0 1 1 -0.26 0 0.125 0.375 0 1 1 0.26 0z" transform="matrix(8.6208 0 0 3.2484 -1951.9 -766.31)"/>
   <path d="m221.88 249.12a0.125 0.375 0 1 1 -0.26 0 0.125 0.375 0 1 1 0.26 0z" transform="matrix(8.6208 0 0 3.2484 -1951.1 -759.65)"/>
   <path d="m221.88 249.12a0.125 0.375 0 1 1 -0.26 0 0.125 0.375 0 1 1 0.26 0z" transform="matrix(8.6208 0 0 3.2484 -1952.5 -772.87)"/>
  </g>
  <path stroke-linejoin="round" d="m-31.753 35.587c0 1.719-1.365 0.862-3.048 0.862-1.682 0-3.048 0.857-3.048-0.862s1.178-3.582 2.861-3.582c1.682 0 3.235 1.863 3.235 3.582z" stroke-dashoffset="0pt" stroke="#330000" stroke-width="1.0668" fill="#cc9966"/>
  <g stroke-width="1.0668px">
   <path d="m-38.176 35.18l6.278-0.187 0.188 2.436-6.278 0.188-0.188-2.437z" fill-rule="evenodd" stroke="#333333300" fill="#663300"/>
   <path d="m-35.084 37.804l0.282 3.748" stroke="#333333300" fill="none"/>
   <path d="m-42.818 22.799l-4.108-3.18-0.265 4.505 4.439-0.662 4.108 1.921 0.464-4.837-4.638 2.253z" fill-rule="evenodd" stroke="#000000000" fill="#330000"/>
  </g>
  <path stroke-linejoin="round" d="m229.72 231.41a1.4142 1.8562 0 1 1 -2.83 0 1.4142 1.8562 0 1 1 2.83 0z" transform="matrix(.74964 0 0 .74964 -213.97 -150.54)" stroke-dashoffset="0pt" stroke="#000000000" stroke-width="1.423" fill="#330000"/>
  <path d="m-59.664-12.542s-1.951-0.882-0.701-2.153c0.676-0.688 1.404 1.255 1.404 1.255" stroke="#000000" stroke-width="1.0668px" fill="none"/>
  <g fill-rule="evenodd" stroke-width="1.0668px">
   <path d="m-64.102-22.222c3.402 5.947 45.976 9.461 47.857-1.289 0.076-14.32-55.282-6.777-47.857 1.289z" stroke="#333333300" fill="#663300"/>
   <path d="m-56.818-25.827c-0.717-6.553 7.286-12.708 15.958-12.154 9.858 0.631 18.977 4.707 18.075 13.702-1.019 3.752-27.447 4.068-34.033-1.548z" stroke="#333333300" fill="#663300"/>
   <path d="m-56.818-25.827c-0.183-1.668 0.2-3.31 1.014-4.822 4.463 5.204 25.915 6.893 32.221 1.048 0.699 1.538 1 3.306 0.798 5.322-1.019 3.752-27.447 4.068-34.033-1.548z" stroke="#000000000" fill="#330000"/>
  </g>
  <path stroke-linejoin="round" d="m228.4 187.39a5.5685 5.3033 0 1 1 -11.14 0 5.5685 5.3033 0 1 1 11.14 0z" fill-opacity=".26991" transform="matrix(.66314 0 -.066201 .74964 -192.08 -150.83)" stroke-dashoffset="0pt" stroke="#000000000" stroke-width="1.513" fill="#ffffff"/>
  <g fill-rule="evenodd">
   <path d="m-74.931 51.157c0.97 0.738 2.98-1.286 2.226-0.811-1.643-1.728-1.157-2.977-0.421-2.258 4.922 5.117 15.773 22.042 19.972 27.755l2.773-1.24c-4.278-5.66-15.411-22.904-20.324-28.043-2.982-3.425-8.322-0.614-4.226 4.597z" fill="#330000"/>
   <path d="m-34.966 29.16c-2.361 0.116-2.419 1.844-1.757 3.678l1.218-0.469c-0.717-1.091-0.511-1.85 0.515-1.897 0.762-0.114 1.676 0.616 1.453 1.921l0.656 0.328c0.791-1.972-0.139-3.193-2.085-3.561z" stroke="#330000" stroke-width="1.0668px" fill="#cc9966"/>
   <path d="m-36.84 29.746c-6.178 0.8-9.632 3.732-10.449 6.043-0.816 2.312 1.279 5.76 3.14 6.747l0.046-1.78c-1.571-0.834-2.608-2.692-1.921-4.639 0.688-1.946 3.185-4.1 8.949-5.341l0.235-1.03z" stroke="#330000" stroke-width="1.0668px" fill="#cc9966"/>
  </g>
  <path d="m-57.461-15.233c1.766 0.889 3.533 0.457 5.3 2.915" stroke="#333333300" stroke-width="1.0668px" fill="none"/>
 </g>
</svg>
