<?xml version="1.0" encoding="UTF-8" standalone="no"?>
<svg xmlns:rdf="http://www.w3.org/1999/02/22-rdf-syntax-ns#" xmlns="http://www.w3.org/2000/svg" xmlns:cc="http://creativecommons.org/ns#" xmlns:dc="http://purl.org/dc/elements/1.1/" height="128" width="128" version="1.0">
 <defs>
  <filter id="filter3443" height="1.6533" width="1.2503" y="-.32663" x="-.12514">
   <feGaussianBlur stdDeviation="1.9634296"/>
  </filter>
 </defs>
 <path d="m113.66-51.665c-5.46 0.423-6.82-3.26-11.49 0.89-1.42 1.413-1.73 4.217-1.34 5.782 2.88 3.851 6 2.879 10.61 4.447 2.28 0.569 4.26 0.89 7.12 0.89 2.89 0 4.68 1.438 7.56 0 2.23-1.116 4.29-0.772 6.22-2.224 1.51-1.134 2.23-3.124 2.67-4.892 0.78-3.136-1.88-3.607-3.56-4.448-2.16-1.08-5.9-0.414-7.56 0-1.77 0.443-3.31-2.224-5.78-2.224-2 0-1.06 1.779-4.45 1.779z" fill-rule="evenodd" fill-opacity=".72840" transform="matrix(1.1231 0 0 1.0735 -73.176 161.56)" filter="url(#filter3443)" fill="#000000"/>
 <g fill-rule="evenodd" stroke="#330000" stroke-width="1px" fill="#663300">
  <path d="m68.467 103.96c-2.866 0.12-6.6-0.9-9.766-0.08-0.774 0.62-1.208 1.57-1.74 2.4-0.429 1.23-0.097 2.29 0.412 3.43 1.885 2.01 4.801 2.55 7.367 3.24 2.104 0.92 6.271 2.62 8.469 1.73 3.226-1.01 4.051-4.17 3.46-7.18-2.78-1.09-5.512-2.25-8.202-3.54z"/>
  <path d="m57.34 107.46c2.592 1.87 6.809 4.06 9.415 4.16 2.824 0.82 5.697 2.32 9.309 0.77"/>
  <path d="m56.967 104.2c-2.866 0.13-6.6-0.89-9.766-0.07-0.774 0.62-1.208 1.57-1.74 2.4-0.429 1.23-0.097 2.29 0.412 3.43 1.885 2.01 4.801 2.55 7.367 3.24 2.104 0.92 6.271 2.62 8.469 1.73 3.226-1.01 4.051-4.17 3.46-7.18-2.78-1.09-5.512-2.25-8.202-3.55z"/>
 </g>
 <g stroke-width="1px" fill-rule="evenodd">
  <path d="m56.482 86.032c-0.145 0.779-0.89 2.802-0.625 4.125 0.203 1.016 0.508 2.031 0.75 3 0.519 2.545-0.446 4.982-0.625 7.503 0.515 2.21-0.137 5.7 1.375 7.25 2.63 1.98 6.665 1.89 8.125-0.63-0.25-1-0.06-1.6-0.5-2.62-1.286-2.74-0.677-5.867-0.25-8.753 0.058-3.791 0.768-7.456 0.625-11.25-2.167-0.801-7.507-0.221-8.875 1.375z" stroke="#333333333" fill="#666666"/>
  <path d="m67.607 85.907c-0.145 0.779-0.89 2.802-0.625 4.125 0.944 2.795 1.074 5.406 0.375 8.25 0.016 2.788-0.872 7.448 1.125 9.498 2.846 1.13 5.706 1.85 8.125-0.62-1.245-3.85-1.343-7.366-0.75-11.378 0.029-3.8 0.769-7.43 0.625-11.25-2.167-0.801-7.507-0.221-8.875 1.375z" stroke="#333333333" fill="#666666"/>
  <path d="m45.09 107.71c2.592 1.87 6.809 4.06 9.415 4.16 2.824 0.82 5.697 2.32 9.309 0.77" stroke="#330000" fill="#663300"/>
  <path d="m78.779 54.157c2.563 2.651 4.269 5.665 5.371 9.128 1.376 2.444 0.699 12.517 1.004 15.359-3.766 0.71-9.516-2.122-13.251-1.61-1.71-4.535 2.606-15.322 2.513-20.099" stroke="#999999" fill="#fffffffff"/>
  <path d="m70.975 48.784c-3.689 0.539-7.401 0.047-11.064 0.843-2.703 1.175-4.572 3.117-4.873 6.032-0.131 2.631 0.036 5-1.186 7.376-0.367 4.222-1.271 9.106-0.676 13.34 0.444 2.577-1.156 17.385-2.025 19.14h30.401c0.421-2.166-0.7-17.856-0.514-19.915 2.034-3.103 0.853-10.124-0.316-14.91-0.443-2.946-1.443-5.597-2.924-8.166-1.694-2.289-3.948-3.594-6.823-3.74z" stroke="#999999" fill="#fffffffff"/>
  <path d="m33.146 69.669c0.894-2.682 0.745-21.607 0.745-21.607l2.831-11.474 0.745 11.623-2.235 22.054-2.086-0.596z" stroke="#000000" fill="#666666"/>
 </g>
 <g fill-rule="evenodd" stroke-width="1px">
  <path d="m48.062 68.678c-2.726-1.558-5.458-3.872-6.734-6.754-0.168-1.485 1.991-1.664 1.284-3.243-1.231-0.611-2.319 0.171-3.366 0.92-0.796-1.806-3.837-7.049-6.488-6.933-0.274 1.261 3.228 5.693 3.933 6.678-1.136-0.765-3.692-4.564-4.464-1.883-0.069 1.553 2.562 3.142 3.583 4.075-1.82-0.207-3.798-1.442-2.574 1.263 0.839 0.86 1.846 0.941 2.97 1.057 1.034 0.638 1.735 1.771 2.542 2.699 1.016 2.791 2.944 4.927 4.912 7.101 2.844 0.107 4.187 3.475 6.864 3.793 1.044 0.332 6.947-5.817 7.998-5.771 2.286-1.579-3.74 3.612-4.89 1.109-1.63-3.172-3.114-2.899-5.57-4.111z" stroke="#333333300" fill="#ffcc99"/>
  <path d="m56.251 54.377c-4.57 0.432-5.197 11.618-4.961 14.344-1.23 2.054-6.976-7.806-8.676-6.141-0.357 2.434-3.192 4.204-5.486 5.464 0.234 1.915 14.067 14.942 15.229 13.297 3.101-1.706 15.89-17.264 11.613-21.351 0.444-2.368-0.207-4.383-2.377-5.622" stroke="#999999" fill="#fffffffff"/>
  <path d="m73.544 51.617c-1.651 4.348-9.828 2.915-12.727-1.223 1.157-2.35 1.976-5.172 4.51-6.403 2.152-0.245 4.24 0.353 6.289 0.949 1.65 1.286 2.297 5.025 1.928 6.677z" stroke="#333333300" fill="#ffcc99"/>
  <path d="m71.244 8.3943c4.226 0.0579 8.561 1.6597 10.205 5.8987 1.453 4.768 3.961 9.65 3.382 14.762-1.627 5.351-2.962 11.47-7.387 15.087-3.09 2.88-8.634 4.277-12.757 4.358-4.645-1.035-7.885-3.592-9.078-8.389-0.86-2.843-1.576-2.604-1.281-5.322-1.081 0.689-2.304 0.982-3.798 0.682 1.256-4.624 3.402-3.413 4.545-7.394-0.349-1.614-0.683-3.364-0.683-4.476 0.133-8.508 4.052-15.057 13.974-14.999 0.928-0.1371 1.902-0.2211 2.878-0.2077z" stroke="#333333300" fill="#ffcc99"/>
 </g>
 <path d="m56.26 20.981c2.234 0.501 2.538 2.057 2.103 4.593-2.58 4.76-6.741-1.939-2.103-4.593z" fill-rule="evenodd" stroke="#333333" stroke-width="1px" fill="#ffffff"/>
 <g fill-rule="evenodd" transform="matrix(.75966 .063417 -.079047 .94525 -92.078 141.55)" stroke="#333333300" stroke-width="1.176px" fill="#ffcc99">
  <path d="m192.16-132.54c5.86-2.33 4.83 6.35 0.5 5.5"/>
  <path d="m193.28-131.17c0.85-1.49 3.1 1.18 0 2.63"/>
 </g>
 <g stroke-width="1px">
  <path d="m55.438 22.248c-0.435-0.9 2.067-0.178 1.424 1.897-0.444 1.432-2.017 0.551-2.136 0.474-1.596-1.029-0.306-3.654 0.712-2.371z" fill-rule="evenodd" stroke="#000000"/>
  <path d="m55.935 14.382c2.546 0.709 5.396-1.628 6.171 1.186 1.064 2.213 2.417 3.331 0.949 5.691-0.921 1.537-0.371 5.922-1.186 8.774 0.354 0.354 4.895-3.083 5.459-3.083 1.139 3.184 0.376 6.515 0 9.96 0.733 5.189 13.239-0.544 14.477 4.98 7.77-9.778 9.815-26.658-1.424-32.488-3.237-3.9704-12.604-5.0544-20.411-1.6598-2.134 1.8001-7.63 5.5028-4.035 6.6398z" fill-rule="evenodd" stroke="#333333333" fill="#333333333"/>
  <path d="m55.945 40.76l3.278-0.298" stroke="#333333300" fill="none"/>
  <path d="m66.227 28.243l-7.898-2.384c0.151-4.624-1.816-4.483-3.129-5.812l-2.875 1.421c0.021-0.053-0.824-0.33-0.863 0.22-0.02 0.277-0.244 0.289-0.072 0.69 0.124 0.29 0.709-0.359 0.715-0.079 0.033 1.585 0.222 4.721 1.009 5.348 1.165 0.928 4.768-1.043 4.768-1.043l8.345 1.639z" stroke="#000000" fill="none"/>
  <path d="m59.832 48.467l-7.06 2.74s10.959 7.165 14.014 7.481c3.056 0.316 12.329-4.531 12.329-5.795s-5.163-5.268-5.163-5.268-7.587 4.741-14.12 0.842z" fill-rule="evenodd" stroke="#999999" fill="#fffffffff"/>
  <path d="m43.711 61.428l-7.06 6.849 3.161 6.006c3.085-3.147 5.577-4.122 7.903-9.799l-4.004-3.056z" fill-rule="evenodd" stroke="#999999" fill="#fffffffff"/>
 </g>
</svg>
