<?xml version="1.0" encoding="UTF-8" standalone="no"?>
<svg xmlns:rdf="http://www.w3.org/1999/02/22-rdf-syntax-ns#" xmlns="http://www.w3.org/2000/svg" height="128" width="128" version="1.0" xmlns:cc="http://creativecommons.org/ns#" xmlns:dc="http://purl.org/dc/elements/1.1/">
 <defs>
  <filter id="filter4212">
   <feGaussianBlur stdDeviation="0.65370021"/>
  </filter>
 </defs>
 <g transform="translate(6,-1)">
  <path stroke-linejoin="round" d="m42.75 56.25c-4.6667 1.7576-5.8333 57.222-10 53.25 24.546-13.138 40.667-1 61-1.5-4.556-10.833-0.166-40.667-9.25-48l-41.75-3.75z" stroke="#000000"/>
  <g stroke-linejoin="round" stroke="#000000" fill="#333333">
   <path d="m49.528 108.25c-2.7076-1.2385 0.65322-21.475 3.4847-20.908l9.4862 7.163c-5.5639 6.7005-5.1219 11.149-6.9694 16.456l-6.0015-2.7103z"/>
   <path d="m75.634 109.02c2.7076-1.2385-0.65322-21.475-3.4847-20.908l-9.4862 7.163c5.5639 6.7005 5.1219 11.149 6.9694 16.456l6.0015-2.7103z"/>
   <path d="m47.731 57.364 2.0425 23.721c1.6829 6.4166 2.9028 12.852 12.007 15.625 2.6214 1.56 4.8473 1.9749 6.24-0.02262 8.4428-2.4173 8.1167-8.7912 10.266-14.048l-0.41-24.464-29.656-0.811h-0.49018z"/>
   <path d="m49.651 80.814 6.4542 0.81098 0.24509 5.5416-7.1895-0.6758 0.4902-5.6768z"/>
   <path d="m58.066 67.775 0.082 10.745 11.029 0.203 0.245-10.408-11.356-0.54z"/>
   <path d="m68.597 80.8 8.4966-0.54065 0.89868 5.474-9.1502 0.60823-0.24509-5.5416z"/>
   <path d="m82.675 58.531c2.5355-1.383 12.84 13.536 10.257 16.886-1.0572 1.3714-5.1962 9.4714-7.1127 11.388-1.9165 1.9165-8.0297 9.8119-8.0297 9.8119-0.6546-0.16266 1.7143-7.1136 1.0453-5.5673-0.78324 1.8102-2.78 5.6844-4.7396 3.8686-1.5493-1.4356 2.2082-5.7609 1.4173-5.1492-0.97424 0.75358-4.4925 3.5358-5.4388 2.624-1.2389-1.1937 2.4568-3.8828 3.1514-4.4929l5.2019-3.0116c-2.0907-0.66966-3.7429-1.5899-3.5592-3.5592 2.7945-0.8853 4.4367 0.14979 6.2971 0.82136l2.718-7.32c-4.084-2.327-7.477-6.064-9.054-11.399l7.8458-4.9006z"/>
   <path d="m57.11 81.142 9.6404 0.20274 0.2451 5.3389-9.477-0.27032-0.40848-5.2713z"/>
  </g>
  <path stroke-linejoin="round" d="m71.375 86.375 50.875-31.375l1 2.875s-50.375 31.75-50.5 32.375c-0.10108 0.50538-1.25-4.625-1.25-4.625l-0.125 0.75z" transform="matrix(.98357 0 0 .98357 -19.163 -.69201)" filter="url(#filter4212)" stroke="#ff0000" stroke-width="1.0167" fill="#ffcccc"/>
  <g>
   <path d="m37.761 91.395 14.262-9.098c1.0584 1.2915-0.61259 2.8105 3.9343 3.8113l-15.491 10.328c-1.836-1.013-3.148-2.4-2.705-5.041z" stroke="#666666" fill="#999999"/>
   <path stroke-linejoin="round" d="m42.093 59.76c-2.5355-1.383-12.84 13.536-10.257 16.886 1.0572 1.3714 5.1962 9.4714 7.1127 11.388 1.9165 1.9165 5.2019 8.2136 5.2019 8.2136 3.6389-0.90424 5.8094-3.6441 7.3922-7.1184l-5.2019-3.0116c1.4617-1.0029 3.8861-1.364 3.5592-3.5592-1.6073-1.4474-4.0851 0.15217-6.2971 0.82136l-2.7184-7.3201c4.0844-2.3266 7.4771-6.0642 9.0544-11.399l-7.846-4.901z" stroke="#000000" fill="#333333"/>
   <path stroke-linejoin="round" d="m37.467 60.565 9.0057 3.9143 5.8203 0.47687 2.5004 1.402 13.568-0.05898 6.3717-2.5173 3.9939-0.33965 8.2453-2.8587c-9.2494-7.6181-41.57-9.3736-49.505-0.0185z" stroke="#000000" fill="#333333"/>
  </g>
  <g transform="matrix(.98357 0 0 .98357 -128.34 11.603)">
   <path d="m167.67 39.75c5.7633 4.0939 11.594 7.8411 18.124 8l21.34-1.5c4.8721-0.74978 9.7443-2.5857 14.616-6 0 0-4.6772-11-4.6772-12s-11.693-20-11.693-20h-22.802l-9.36 11.25-5.55 20.25z"/>
   <path d="m176.15 19.25c-0.68773 7.7032-2.5785 15.126 4.9696 24.75l7.3082 6.75c3.0829-0.86347 6.3141-1.6002 11.693-0.5 5.6407-2.0609 7.996-4.5231 8.1852-7.25 7.5398-5.9034 5.327-13.323 4.6772-20.5l-4.6772-14-28.648-0.25-3.51 11z" stroke="#000000" stroke-width="1.0167" fill="#333333"/>
   <path stroke-linejoin="round" d="m166.5 39.75c1.754-0.24449 3.5079-1.4366 5.2619-5-0.19563-4.8999 0.42162-9.9388 4.0926-15.5 2.9781-2.9531 6.438-7.7442 15.201-3l6.1389-0.5c2.8748-1.8745 6.101-2.8472 10.524-0.75 4.0311 5.9649 8.0186 12.023 10.524 21.25l2.92 3.75c2.06-9.397-5.09-16.543-7.9-24.75-3.66-7.7946 4.13-21.749-19.58-20.75-19.1-1.4774-18.6 9.616-19.59 19.75-3.825 8.8682-6.1085 17.297-7.6005 25.5z" stroke="#000000" stroke-width="1.0167" fill="#333333"/>
   <g>
    <path d="m179.65 22.75c0.49393-2.9368 3.995-5.278 10.524-2.75 0 0 1.754 8-10.524 2.75z"/>
    <path d="m209.27 21.5c-0.49393-2.9368-3.995-5.278-10.524-2.75 0 0-1.754 8 10.524 2.75z"/>
    <path d="m191.35 30-6.4312 7.75 18.124-0.25-7.3082-8.25-4.3849 0.75z"/>
    <path d="m192.32 45.765-4.77-5.015 13.44 0.162-5.42 5.338-3.25-0.485z"/>
   </g>
   <path d="m149.76 6.1236c-14.422 0.17975-13.329 8.7567-14.785 17.006 2.6959-2.1729 6.5352 1.6567 6.3581 1.2257-3.2554-7.2622-0.94679-15.961 8.4264-18.232z" transform="matrix(1.0167 0 0 1.0167 37.964 -10.78)" fill="#cccccc"/>
  </g>
  <path stroke-linejoin="round" d="m39.268 121.02c1.3168-0.10158 16.267 3.4335 18.585-2.1296-1.8564-4.2432-0.57642-7.8591 0-11.616-4.7385 1.6457-7.3284-0.46882-10.067-2.3232l1.1616 7.9374c-3.1113 0.80187-6.0442 1.2471-10.648 5.0335l0.96798 3.0975z" stroke="#000000" fill="#333333"/>
  <path stroke-linejoin="round" d="m86.118 120.44c-1.3168-0.10158-16.267 3.4335-18.585-2.1296 1.8564-4.2432 0.57642-7.8591 0-11.616 4.7385 1.6457 7.3284-0.46882 10.067-2.3232l-1.1616 7.9374c3.1113 0.80187 6.0442 1.2471 10.648 5.0335l-0.96797 3.0975z" stroke="#000000" fill="#333333"/>
  <path d="m159.1 69.575a1.2374 0.97227 0 1 1 -2.4749 0 1.2374 0.97227 0 1 1 2.4749 0z" transform="matrix(1 0 0 1.4545 -91 -30.183)" fill="#009900"/>
  <path d="m159.1 69.575a1.2374 0.97227 0 1 1 -2.4749 0 1.2374 0.97227 0 1 1 2.4749 0z" transform="matrix(1 0 0 1.4545 -94.005 -30.006)" fill="#ff0000"/>
 </g>
</svg>
