<?xml version="1.0" encoding="UTF-8" standalone="no"?>
<svg xmlns:rdf="http://www.w3.org/1999/02/22-rdf-syntax-ns#" xmlns="http://www.w3.org/2000/svg" height="128" width="128" version="1.0" xmlns:cc="http://creativecommons.org/ns#" xmlns:dc="http://purl.org/dc/elements/1.1/">
 <defs>
  <filter id="filter3406" height="1.4997" width="1.2292" y="-.24987" x="-.11461">
   <feGaussianBlur stdDeviation="4.5975223"/>
  </filter>
 </defs>
 <g transform="translate(-349.58 -188.21)">
  <path d="m439 291c-2.1 0.67-12.75-0.02-18.11 1.32-6.18-1.74-0.69 3.61-6.72 0.63-2.08-16.07-31.54-20.7-45.67-16.95-5.99 1.5 12.77 12.54 13.5 14 35.59 9.24 19.33-17.22 29.79 7.08 0.69 10.82 21.8 14.86 31.21 14.92 6.22-2.42 21.21-2.56 24.95-8.27 3.13-6.27-12.85-8.95-15.95-9.73-5.74-1.44-6.22-3-13-3z" fill-opacity=".60905" fill-rule="evenodd" filter="url(#filter3406)"/>
  <g fill-rule="evenodd">
   <path d="m398.93 253.59c2.77-1.35 4.39 0.95 4.69-2.8-0.66-7.13 0.53-15.09-0.81-22.36-0.31-2.76-0.21-0.31-0.31-3.09-6.99 1.23-15.11 0.04-23.17 3.05-1.96 0.49-1.15-7.3-0.91-7.89-2.43-7.04-2.37-12.39-4.47-18.09-1.47-2.59-2.98 0.48-3.05 2.24-1.64 8.7 5.99 19.02 3.09 27.34 2.78 7.86 3.01 3.5 5.65 19-0.26 4.62 3.85 4.99 4.8 1.03 0.4-6.9-2.26-13.42-0.59-20.2 0.26-1.31 1.37-2.41 2.53-2.41 2.21 0.38 8.13-1.48 10.08-0.54 1.6 2.51 1.04 5.87 1 8.78-1.08 5.23-1.06 10.88 1.47 15.94z" stroke="#330000" stroke-width="1px" fill="#993300"/>
   <path d="m432.67 296.3c-2.69-0.11-5.2-0.28-6.88 2.06-0.71 2.72-0.1 5.1 2.34 6.47 2.27 0.81 4.28 0.19 6.44-0.59 0.61-0.31 1.52-0.29 2.2-0.29 2.92-1.29 4.16-5.36 3.51-8.38-2.51-0.12-5.09 0.43-7.61 0.73z" stroke="#000000000" stroke-width="1px" fill="#663300"/>
   <path d="m437.35 297.63c-1.84 3.07-2.43 6.53 0.44 9.11 4.58 0.77 8.48-1.07 12.89-3.53 0.42-2.33 1.09-6.57-1.91-7.2-4.4-0.9-7.94-0.06-11.42 1.62z" stroke="#000000000" stroke-width="1px" fill="#663300"/>
   <g stroke-width="1px">
    <path d="m370.58 237.48c2.96-2.17 5.07-5.63 8.13-7.78 4.24-1.53 8.58-1.32 12.91-1.94 2.54-0.56 5.18-0.36 7.78-0.36 1.89 1.33 0.89 4 1.94 6.19-1.56 3.67-5.22 5.71-7.6 8.84-0.87 0.38-0.37-3.26-1.77-4.77-6.19-3.18-12.43-0.56-18.74 0.35-1.12 0.28-1.63 0.29-2.65-0.53z" stroke="#330000" fill="#993300"/>
    <path d="m389.56 262.42c2.77-1.34 4.39 0.96 4.69-2.79-0.66-7.13 0.54-15.09-0.81-22.36-0.31-2.76-0.21-0.31-0.31-3.09-6.99 1.23-15.11 0.04-23.17 3.05-1.96 0.49-1.15-7.3-0.91-7.89-2.43-7.04-2.37-12.39-4.47-18.09-1.47-2.6-2.98 0.48-3.05 2.24-1.64 8.7 5.99 19.02 3.1 27.34 2.77 7.86 3 3.5 5.64 19-0.25 4.62 3.85 4.99 4.8 1.03 0.4-6.9-2.26-13.42-0.59-20.2 0.26-1.31 1.37-2.41 2.53-2.41 2.21 0.38 8.13-1.48 10.08-0.54 1.6 2.51 1.04 5.87 1 8.78-1.07 5.23-1.06 10.88 1.47 15.93z" stroke="#330000" fill="#993300"/>
    <path d="m417.62 251.89c-5.28 1.21-11.92 1.65-17.31 0.61-3.08-1.08-3.05-4.92-3.05-7.73 0-0.84-2.13-3.67-2.72-4.27-2.21-1.23-1.61 2.48-0.94 4.47-0.86 3.69 0.36 8.93-0.21 12.4 0.22 0.85 1.71 1.5 2.24 1.63 7.85-0.08 13.46 0.67 20.89 3.03 1.55-0.76 0.96-8.45 1.1-10.14z" stroke="#663300" fill="#fffffffcc"/>
    <path d="m423.36 251.42c-3.2-0.01-2.29-0.7-5.46-0.92-3.61 3.35-2.44 8.38-2.03 12.16 3.46 0.99 3.36 0.71 6.09 0.11 3.65 0.61 7.11-2.93 8.13-6.3 0.27-2.32-0.44-3.32-2.23-4.47-1.58 0.11-2.91-0.86-4.5-0.58z" stroke="#000000033" fill="#ccccff"/>
   </g>
   <path d="m428.57 249.42c-0.21 0.43-0.68 1.55-0.88 2.35-0.17 0.68-0.29 1.22-0.29 1.91 0 0.52-0.77 1.53-1.03 2.06-0.41 0.83-0.93 1.1-1.17 2.06-0.16 0.65-0.54 1.12-0.73 1.91-0.12 0.46-0.44 1.3-0.59 1.91-0.22 0.9-0.29 1.67-0.29 2.64 0 0.9 0.09 1.7 0.29 2.5 0.23 0.93 0.37 1.47 0.73 2.21 0.37 0.73 0.42 1.28 0.74 1.91 0.35 0.7 0.72 1.16 1.17 1.61s0.72 1.22 1.02 1.62c0.5 0.67 0.79 0.97 1.61 1.18 0.75 0.18 1.47 0.25 2.2 0.44 0.72 0.18 1.75 0 2.49 0 0.91 0 1.76-0.3 2.78-0.3h2.78c1.3 0 1.55 0.04 2.05 0.3 0.64 0.31 2.31-0.15 3.08-0.15 1.25 0 1.98-0.44 3.07-0.88 0.78-0.32 1.42-0.05 2.2-0.44 0.65-0.33 1.29-0.12 1.76-0.59 0.44-0.44 1.42-0.55 2.05-1.18 0.64-0.64 0.96-1.37 1.17-2.2 0.18-0.74 0.14-1.55 0.14-2.35 0-0.92-0.29-1.38-0.29-2.35 0-0.95-0.15-1.7-0.15-2.65v-3.09c0-1.38-0.29-2.63-0.29-3.96 0-1.07-0.47-2.5-0.73-3.53-0.23-0.91-0.86-2.04-1.32-2.65-0.44-0.59-0.59-1.49-0.73-2.05-0.17-0.7-0.43-1.36-0.73-1.77-0.45-0.59-0.23-0.92-1.03-1.32-0.55-0.28-2 0-2.63 0-0.81 0-1.35-0.59-2.35-0.59h-3.51c-0.83 0-1.68-0.43-2.49-0.59-0.85-0.17-1.92 0-2.78 0-1.18 0-2.13 0.67-2.78 1.33-0.46 0.46-1.13 0.78-1.61 1.02-0.69 0.35-1.17 1.03-1.61 1.62-0.66 0.87-0.9 0.99-1.32 2.06z" stroke="#000000033" stroke-width="1px" fill="#ccccff"/>
   <g stroke-width="1px">
    <path d="m427 200.88c-2.49 6.09-7.77 10.62-9.23 17.15-1.07 5.96 0.55 12.23 2.33 17.93 2.8 6.97 14.74 7.22 21.62 6.76 4.12-1.01 8.39-2.74 11.92-5.18 5.08-5.99 5.31-14 5.32-21.43-0.97-6.43-2.55-14.25-8.08-18.35-3.82-3.31-7.34-5.01-12.47-4.82-4.75 0.99-8.67 3.99-11.41 7.94z" stroke="#663300" fill="#fffffffcc"/>
    <path d="m422.18 236.95c0.63 2.87 1.37 5.69 4.26 6.71 4.45 0.81 8.06-1.43 9.96-5.28" stroke="#663300" fill="#fffffffcc"/>
    <path d="m427.87 209.72c-3.02 1.04-10.04 2.09-12 5.89-0.24 3 0.98 4.76 3.87 5.29 2.17-0.29 4.5-0.91 6.09-2.44" stroke="#663300" fill="#fffffffcc"/>
   </g>
  </g>
  <g stroke-width="1px" fill-rule="evenodd">
   <path d="m436 201.99c-3.06-1.17-5.42 0.14-5.69 3.87 0.19 2.22 2.02 3.06 3.86 3.86 2.16 0.3 3.33-0.87 4.27-2.65 0.39-2.43-0.32-3.96-2.44-5.08z" stroke="#333333" fill="#ffffff"/>
   <path d="m432.17 204.75c-0.19-0.76-1.41 0.22-0.82 1.42 0.59 1.16 1.83-0.21 1.83-1.02 0-0.36-0.67-0.27-1.01-0.4z" stroke="#000000"/>
   <path d="m428.07 203.42c-1.51-2.29-4.37-2.46-6.97-0.02-1.92 4.88 1.93 6.13 5.14 5.3 1.7-1.18 1.75-3.33 1.83-5.28z" stroke="#333333" fill="#ffffff"/>
   <path d="m423.13 205c0.01-0.88-2.3-0.31-1.42 1.42 0.07 0.13 2.89 1.03 1.42-1.42z" stroke="#000000"/>
   <path d="m437.62 226.99c-0.47-1.23-1.17-2.08-2.23-2.84-3.44-1.72-4.76-1.09-8.54-0.81-4.5 0.33-7.79 1.15-7.32 4.06 0.54 2.69 1.79 3.65 4.47 3.66 3.27 0.22 5.66-1.56 8.34-3.05 1.53-0.78 1.87-1.18 2.52-2.72" stroke="#000000"/>
  </g>
  <path d="m440.06 224.35c-2.5 1.12-2.3 3.54-2.44 5.9" stroke="#663300" stroke-width="1px" fill="none"/>
  <g fill-rule="evenodd">
   <path d="m447.79 203.42c4.54 0.18 7.13-4.49 11.58-2.24 3.57 1.52 2.96 6.98 2.44 10.16 0.31 2.56-1.21 3.48-3.05 1.43-1.18-1.47-1.92-3.19-3.05-4.68-2.58-2.08-4.99 0.71-7.92-0.2-2.23-1.44-2.38-3.35 0-4.47z" stroke="#333333" stroke-width="1px" fill="#666666"/>
   <path d="m451.65 209.51c3.27-2.87 9.01-0.35 5.69 4.48-1.59 1.51-3.24 2.18-4.88 0.61" stroke="#663300" stroke-width="1px" fill="#fffffffcc"/>
   <path d="m437.5 243.25c0.85 1.9 2.51 4.18 2.51 6.08 3.16-1.91 6.48-2.85 10.08-3.29 1.96-0.14 1.51-1.46 0.59-2.65-1.91-1.92-4.21-1.74-6.74-1.47-2.18 0.25-4.3 0.84-6.44 1.33z" stroke="#000000033" stroke-width="1px" fill="#ccccff"/>
   <path d="m430.35 244.45c2.15-0.32 4.71-1.68 3.61-0.23-1.11 1.44-1.65 4.29-3.05 5.49-1.38-1.24-2.46-1.35-2.95-2.97 0.82-2.19 0.24-1.97 2.39-2.29z" stroke="#000000033" stroke-width="1px" fill="#ccccff"/>
  </g>
  <path d="m434.3 244.47c0.43-0.87-0.56 1.95-0.79 2.89 0.53 1.29 2.18 1.37 3.55 1.62 1.43-0.76 1.58-2.38 0.98-3.74-0.79-1.24-2.39-0.59-3.74-0.77z" fill-rule="evenodd" stroke="#003300" stroke-width="1px" fill="#009900"/>
  <path d="m433.65 264.55c-1.16 3.59 0.45 7.06 0.63 10.59" stroke="#000000033" stroke-width="1px" fill="none"/>
  <g fill-rule="evenodd">
   <path d="m434.56 248.24c-0.78 2.15-0.79 4.18-2.28 5.97-1.09 1.72-0.75 3.77-0.7 5.71 0.21 1.83 0.38 4.78 1.99 7.24 2.61-1.92 0.74-4.44 0.99-5.8 1.89-2.36 2.39-4.94 2.89-7.87 0.09-1.49-0.66-2.78-0.87-4.25 0-0.36-0.5-0.57-0.79-0.73-0.43-0.22-0.68-0.27-1.23-0.27z" stroke="#003300" stroke-width="1px" fill="#009900"/>
   <path d="m426.27 272.9c0.34 3.9 3.16 5.49 5.67 7.82 1.07 4.92-0.47 9.99 1.02 15.14 1.67 1.03 4.23 0.73 6.15 0.36 2.01 0.65 8.55 0.51 10.4-0.32-0.63-6.21 2.96-12.35 5.41-17.82 0.79-2.77 1.53-5.95-0.44-8.38-3.57 3.56-7.77 4.7-12.59 4.7-3.12 0.15-6.24 0.33-9.37 0.44-2.08-0.11-4.48-0.85-6.25-1.94z" stroke="#000000" stroke-width="1px" fill="#000033"/>
   <path d="m451.69 264.64c0.5 1.78 2.8 3.06 4.01 4.43 0.75 0.75 1.85 0.39 0.82 1.42-2.05 2.14-3.52 4.89-4.88 7.52-1.98 0.05-3.68-0.85-5.69-0.2 0.1 3.42 2.94 1.05 2.64 3.66-1.65 1.31-3.65 2.04-2.24 4.27 0.93 0.93 3.1-1.77 3.1-1.77 0.88-0.88 0.91-0.83 0.56 0.55-0.35 1.41-1.31 0.92-0.89 2.61 2.06 0.89 2.99-1.3 3.74-3.02 0.14 1.36-1.14 3.58 1.83 2.58 0.26-2.29 0.26-3.52 1.44-5.64 0.56-0.56 1.83-1.47 2.01-2.22 2.71-3.09 5.99-7.49 5.63-11.66-2.68-1.86-2.88-4.85-5.16-6.81-0.46-0.34-0.42-2.13-1.19-3.31-1.65-3-8.1-2.55-8.83 0.81 0.82 2.03 2.42 4.5 3.1 6.78z" stroke="#663300" stroke-width="1px" fill="#fffffffcc"/>
  </g>
  <g>
   <path d="m438.38 280.72c-1.46 2.26-1.61 4.88-1.47 7.5 0.51 2.32 0.52 5.94 1.03 8.24" stroke="#000000" stroke-width="1px" fill="none"/>
   <path d="m385.51 246.21c-1.41-0.31-1.76-0.58-1.3-2.41 1.71-1.37 6.84-0.05 3.95 2 0 1.07-0.57 0.05 0.61 1.22 0.85 1.51 0.79 2.58-0.84 2.92-0.79-0.2 0.92 0.38 1.65 0.74 1.11 0.56-0.48 2.14-0.61 2.24-1.57 1.18-3.21 1.42-4.88 0.4-1.57-1.49-1.28-2.51 0.66-2.72-0.46-0.4-1.25-1.33-1.88-1.95-0.74-0.74-0.22-1.34-0.1-1.47 0.44-0.44 2.12-0.97 2.74-0.97z" fill-rule="evenodd" stroke="#663300" stroke-width="1px" fill="#fffffffcc"/>
   <path d="m425.15 227.28c-1.65-1.58-4.09-1.54-5.12 0.35-0.18 2.52 3.26 3.15 5.12 3.01 1.83-0.17 6.11-1.56 6.72-3.36-1.5-2.2-5.74-1.26-6.72 0z" fill-rule="evenodd" stroke="#000000" stroke-width="1px" fill="#990000"/>
  </g>
  <g fill-rule="evenodd">
   <path d="m445.78 253.71c-1.9 0.27-2.61 2.16-3.36 3.71-0.51 1.71 1.42 1.92 1.94 3.54-1.08 1.46-1.47 2.6-1.41 4.42 1.72 0.98 2.85-0.24 4.24-1.41 0.62-0.31 0.4 1.32 0.71 1.94 0.44 0.88 1.88-0.29 2.12-0.53 1.92-1.78 2.69-3.95 2.83-6.54-0.58-3.9-3.43-6.09-7.07-5.13z" fill="#9999cc"/>
   <path d="m450.51 265.14c-3.34-2.91-5.09-5.95-5.1-9.54-0.02-3.59 1.8-6.15 5.61-5.65 1.45 1.11 2.9 1.96 4.59 2.65 2.29 1.44 3.56 3.88 4.42 6.36-2.67 2.79-6.54 3.79-9.52 6.18z" stroke="#000000033" stroke-width="1px" fill="#ccccff"/>
   <path d="m363.86 215.03c0.63-1.03 3.54-2.84 4.25-4.6 1.08-1.82 5.85-6.54 7.24-8.13 2.64 1.93 1.57 8.49 2.13 12.02 0 2.04-4.56 4.81-5.66 6.37-2.24 1.56-3.03 4.39-5.13 6.01-2.74-1.88-2.22-8.21-2.83-11.67z" stroke="#330000" stroke-width="1px" fill="#993300"/>
  </g>
  <g fill="none" stroke-width="1px">
   <path d="m399.75 228.29c-1.37 2.21-4.67 5.48-6.54 7.24" stroke="#330000"/>
   <path d="m425.61 240.88c0.23-1.97 3.52-2.13 3.54 0.35" stroke="#663300"/>
   <path d="m453.13 210.56c4.78-2.03 2.74 3.31 0.34 2.42" stroke="#663300"/>
  </g>
 </g>
</svg>
