<?xml version="1.0" encoding="UTF-8" standalone="no"?>
<svg xmlns:rdf="http://www.w3.org/1999/02/22-rdf-syntax-ns#" xmlns="http://www.w3.org/2000/svg" height="128" width="128" version="1.0" xmlns:cc="http://creativecommons.org/ns#" xmlns:dc="http://purl.org/dc/elements/1.1/">
 <defs>
  <filter id="filter3443" height="1.6533" width="1.2503" y="-.32663" x="-.12514">
   <feGaussianBlur stdDeviation="1.9634296"/>
  </filter>
 </defs>
 <g transform="translate(50.315 -48.037)">
  <path d="m8.8346 155.98c-1.872 0.61-6.1136-0.64-8.8951-1.33-2.3565-0.59-4.7273 1.17-5.7818 2.22-1.4133 1.42-1.7253 4.22-1.3342 5.78 0.8319 3.33 5.3823 3.11 7.5608 2.67 2.0078-0.4 4.2443 1.29 6.2265 1.78 2.2764 0.57 4.2632 0.89 7.1162 0.89 2.9 0 4.684 1.44 7.561 0 2.231-1.11 4.29-0.77 6.226-2.22 1.513-1.14 2.227-3.13 2.669-4.89 0.784-3.14-1.877-3.61-3.558-4.45-2.161-1.08-5.907-0.42-7.561 0-1.773 0.44-3.316-2.23-5.782-2.23-1.999 0-1.059 1.78-4.4474 1.78z" fill-rule="evenodd" fill-opacity=".72840" transform="matrix(1.0228 0 0 1.0831 -.68648 -13.605)" filter="url(#filter3443)"/>
  <g stroke="#333333" stroke-width="1px">
   <path d="m7.8045 155.71c-2.9482 0.58-6.5231 0.87-9.0261 2.69-0.5571 0.67-0.6202 1.05-0.5807 1.87 0.2203 0.71 1.0044 1.05 1.1868 1.78 2.5548 0.24 4.8468 1.42 7.5148 0.56 2.8023 0.03 5.6347-0.33 7.9547-2.02 0.536-1.59-0.039-3.74-0.164-5.5-2.584 0.81-4.285 1.3-6.8855 0.62z" fill-rule="evenodd" fill="#fffffffff"/>
   <path d="m-1.2342 160.83c3.0183-0.52 6.1237 0.85 9.2664 0.43 2.9188-0.1 4.4328-1.52 6.5758-1.66" fill="none"/>
   <path d="m17.606 156.55c-2.349 1.26-6.503 0.93-8.8235 2.89-0.3964 0.84-0.3803 1.8-0.4924 2.71 0.1338 1.2 0.6638 1.08 1.5464 1.83 2.3825 0.92 5.2165 1.08 7.6435 0.63 2.13-0.07 4.642-0.56 6.126-2.19 2.293-2.14 1.554-3.03 1.315-6.02-2.762 0.21-4.545 0.15-7.315 0.15z" fill-rule="evenodd" fill="#fffffffff"/>
  </g>
  <g fill-rule="evenodd">
   <g stroke-width="1px">
    <path d="m0.69972 118.38c-0.70689 1.1 0.11398 3.48 0.17876 4.74-0.27134 2.59 1.0968 5.79 0.29462 8.29-0.58597 3.56-2.3929 2.77-3.6869 3.67-1.4069 0.06-2.3059-0.17-2.6599 1.03 0.8224 0.83 2.1855 0.36 3.3206 0.28 0.3374 1.26-2.1928 3.03-2.3121 4.54 0.8997 0.72 3.031-1.3 3.1331-2.79 0.19618 1.44-0.606 3.77-0.4642 4.76 1.0278 0.66 2.2638-3.35 2.3029-4.97-0.03743 1.76-0.6684 4.1 1.4104 4.04 0.5515-0.18 0.3366-2.45 0.5264-4.08 0.5607-2.58 2.3533-5.58 2.6066-8.23-0.2807-3.88 1.5816-8.71-0.116-12.31-2.4971-1.25-2.6794 0.01-4.5343 1.03z" stroke="#333300" fill="#fffffffcc"/>
    <path d="m6.2131 104.53c-2.5055 2.6-3.9864 4.92-5.0638 8.31-1.3453 2.4-1.9735 3.65-2.2719 6.44 3.6826 0.69 6.3485 0.02 10 0.53 1.6716-4.45 1.5116-7.88 1.6026-12.56" stroke="#330033" fill="#ff99ff"/>
    <path d="m16.838 135c0.103 2.22 0.366 4.24 0.381 6.45 0.482 2.36 0.117 4.71-0.05 7.05 0.478 2.05-0.48 6.97 0.923 8.42 2.442 1.84 5.303 1.4 6.659-0.94-0.233-0.93 0.386-2.72-0.022-3.67-1.194-2.55-0.629-5.45-0.232-8.13 0.053-3.52 0.712-6.93 0.58-10.45-2.012-0.75-6.969-0.21-8.239 1.27z" stroke="#000000033" fill="#003366"/>
    <path d="m7.2175 134.71c-0.1347 0.72-0.3839 2.6-0.1382 3.83 0.8758 2.6 1.2622 5.47 0.6133 8.11 0.0147 2.59-1.4285 7.72 0.4256 9.62 2.6418 1.05 4.2368 1.98 6.4818-0.32-1.156-3.57-0.982-8.16-0.431-11.89 0.027-3.53 0.713-6.9 0.58-10.45-2.012-0.74-6.2615-0.38-7.5315 1.1z" stroke="#000000033" fill="#003366"/>
    <path d="m29.259 136.43c-2.604-3.21-0.435-6.53-0.103-10.21-1.14-4.61 1.821-9.52 0.844-14.12-0.432-2.89-1.389-5.49-2.838-8-1.656-2.24-3.868-3.52-6.68-3.66-3.607 0.52-7.249 0.04-10.831 0.82-2.6431 1.15-4.4648 3.05-4.759 5.91 1.3846 2.41-1.7169 7.48-4.3987 9.97-0.14973 1.73 1.7254 3.73 3.4436 3.87 1.0054 2.09 0.5684 3.07 0.9077 5.49 0.8303 4.82-1.1137 6.55-0.5795 11.37 4.1606-2.39 7.1779 0.21 11.902-0.32 3.962-1.42 10.634 1.89 13.092-1.12z" stroke="#330033" fill="#ff99ff"/>
    <path d="m31.12 127.95c-0.361 2.96-1.602 5.72-2.178 9.04-1.512 2.4-3.933-0.25-4.562 0.92 0.302 1.31 1.694 1.77 2.91 2.1-0.539 1.6-1.305 2.55-0.937 4.98 1.124-0.58 2.148-3 2.455-4.14 0.127 1.33-0.123 4.48 1.258 4.02 0.03-0.53 0.687-2.43 0.759-3.78 0.974 1.5 0.642 4.7 1.928 2.1 0.129-1.17 0.128-2.74-0.482-3.66-0.159-1.18-0.549-1.6-0.348-2.78 1.479-2.51 2.711-6.11 3.133-8.95-1.247-3.59-2.279-7.47-3.347-10.46-8.592-1.5-3.677-1.43-4.856 1 0.311 2.72 1.96 7.73 4.267 9.61z" stroke="#333300" fill="#fffffffcc"/>
    <path d="m22.103 108.27c0.119 2.36 0.9 4.46 1.664 6.67 0.617 2.26 0.671 3.13 0.696 5.46 3.903-0.41 6.205-1.49 10.104-2.72-0.782-3.71-3.302-6.86-5.15-10.11-1.371-1.92-3.297-2.14-5.642-1.45" stroke="#330033" fill="#ff99ff"/>
    <path d="m9.0118 103.2c1.6142 4.26 9.6102 2.86 12.444-1.19-3.424-1.62-2.732-5.598-5.205-6.805-2.104-0.24-2.025-0.362-4.029 0.222-1.325 1.296-0.509 6.543-3.2102 7.773z" stroke="#333300" fill="#fffffffcc"/>
   </g>
   <path d="m15.285 60.186c-10.125-0.059-14.838 6.093-14.973 14.784 0.00008 1.818 1.8126 6.104 2.263 7.906-0.2097 3.549-1.3538 6.053-0.3067 9.517 1.2177 4.901 4.5086 7.509 9.2487 8.567 4.208-0.08 7.212-2.043 10.366-4.985 4.515-3.696 6.935-9.421 8.596-14.889 0.591-5.222-2.915-10.293-4.397-15.164-2.065-5.33-5.748-6.482-10.797-5.736z" stroke="#333300" stroke-width="1px" fill="#fffffffcc"/>
  </g>
  <g stroke-width="1px" fill-rule="evenodd">
   <path d="m9.8349 77.385c-1.1166 2.418-0.2526 3.836 2.1391 3.486 0.734 0.319 2.265-1.448 1.913-2.621 0.263-3.148-2.504-3.217-4.0521-0.865z" stroke="#333333" fill="#ffffff"/>
   <path d="m3.4654 76.243c-1.9242 0.427-2.8272 1.877-2.4525 4.033 2.2214 4.047 6.446-1.776 2.4525-4.033z" stroke="#333333" fill="#ffffff"/>
   <path d="m6.1083 80.933c-0.4027 2.336-1.9135 2.423-3.1256 3.603 0.8022 1.703 3.4593 2.194 3.8133 1.523" stroke="#333300" fill="#fffffffcc"/>
   <path d="m11.132 77.68c0.316-0.288-1.5342-0.824-1.4304 0.806 0.0805 1.265 1.6294 1.566 2.1464 1.21 1.037-0.713-0.215-2.268-0.716-2.016z" stroke="#000000"/>
   <path d="m2.334 78.127c0.3739-0.765-1.7798-0.151-1.2262 1.613 0.382 1.218 1.7369 0.469 1.8394 0.403 1.3737-0.875 0.2628-3.106-0.6132-2.016z" stroke="#000000"/>
  </g>
  <path d="m8.8582 162.16c2.9038 0.63 6.2318 1.57 8.4838 0.68 2.707-0.36 5.209-1.01 7.699-3.68" stroke="#333333" stroke-width="1px" fill="none"/>
  <g stroke-width="1px" fill-rule="evenodd">
   <path d="m4.8247 73.638c4.3435-0.384 10.711-0.548 14.545-0.618 0.186-0.745 0.704-1.758 0.883-2.475-0.53 3.705 0.652 7.243 1.415 10.783 0.738 3.6-0.915 6.885-2.589 11.092 2.951 1.295 10.546 0.972 14.934-0.382-3.062-5.408-1.805-9.405-1.208-13.008 1.404-10.178-1.454-15.631-9.37-22.097-4.36-1.311-7.669-1.847-12.109-0.972-7.0271 1.172-10.316 3.979-12.462 10.518-1.0604 2.918-0.8844 5.873-0.8844 8.839 2.5383-1.123 4.1566-0.808 6.8451-1.68z" stroke="#000000" fill="#330000"/>
   <path d="m4.5204 93.968c0.4122-0.047 0.9496-0.978 1.4142-1.326 0.6087-0.096 1.3593 2.054 2.6516 0.177 0.9538 0.898 1.8558 1.324 3.0938 1.237-1.012 2.249-6.8811 1.769-7.1596-0.088z" stroke="#660000" fill="#cc0000"/>
   <path d="m10.119 122.01c-2.3024-0.19-9.57-2.7-6.5179-5.83 2.4183-1.47 8.0379 1.54 8.2559 2.72s-1.627 3.17-1.738 3.11z" stroke="#999999" fill="#ffffff"/>
  </g>
  <path d="m3.875 121c4.4516 0.86 4.6197-2.2 4.625-2.25" stroke="#330033" stroke-width="1px" fill="none"/>
  <g fill-rule="evenodd" stroke="#999999" stroke-width="1px" fill="#ffffff">
   <path d="m10.618 119.22c-0.168-2.31 1.159-9.88 4.727-7.36 1.834 2.15-0.249 8.18-1.38 8.58s-3.387-1.1-3.347-1.22z"/>
   <path d="m13.215 119.6c1.627-1.64 8.211-5.61 8.654-1.27-0.421 2.8-6.333 5.19-7.379 4.6-1.047-0.59-1.391-3.28-1.275-3.33z"/>
   <path d="m14.631 122.36c2.068 1.03 7.901 6.04 3.913 7.82-2.789 0.48-6.905-4.39-6.673-5.57 0.231-1.18 2.68-2.35 2.76-2.25z"/>
   <path d="m12.658 123.32c-0.813 2.16-5.1918 8.48-7.3754 4.7-0.7622-2.73 3.6539-7.32 4.8494-7.21 1.196 0.1 2.613 2.42 2.526 2.51z"/>
  </g>
  <g stroke-width="1px">
   <path d="m12.254 118.22s-1.14-1.12-2.4802 0.69c-1.3406 1.81 1.0722 6.75 3.2172 5.94s3.285-6.25-0.737-6.63z" fill-rule="evenodd" stroke="#cc6633" fill="#ffff00"/>
   <path d="m13.125 121.88c1.362 2.55 7.669 3.36 9.265-0.84" stroke="#330033" fill="none"/>
   <path d="m15.537 77.58c-0.402 7.251-7.0316 5.439-7.787 1.67 0-0.871-0.6457-0.537-1.4268-0.537 0.2245 5.7-7.1677 5.39-7.1982 0.162-0.2552-4.43 7.3301-5.167 7.2803-0.336 0.8724 0.831 0.5392 0.608 1.4242 0.015 0.6447-5.414 6.7185-5.584 7.6705-1.179 1.537 0.072 3.029-0.289 4.5-0.625" stroke="#000000" fill="none"/>
  </g>
 </g>
</svg>
