<?xml version="1.0" encoding="UTF-8" standalone="no"?>
<svg xmlns:rdf="http://www.w3.org/1999/02/22-rdf-syntax-ns#" xmlns="http://www.w3.org/2000/svg" height="128" width="128" version="1.0" xmlns:cc="http://creativecommons.org/ns#" xmlns:dc="http://purl.org/dc/elements/1.1/">
 <defs>
  <filter id="filter3443" height="1.6533" width="1.2503" y="-.32663" x="-.12514">
   <feGaussianBlur stdDeviation="1.9634296"/>
  </filter>
 </defs>
 <g fill-rule="evenodd">
  <path d="m68.963 32.631c-1.521 0.427 2.616 5.108 3.174 6.087 0.866 1.518 4.492 3.087 5.953 4.207 1.24 0.951 4.802-1.281 5.692-1.962 1.497-1.147 3.718-0.778 4.712-0.219 3.099 1.742 0.66-1.39-0.328-2.479-0.775-0.854-3.421-1.555-4.603-2.014-2.01-0.78-2.75-2.12-4.549-3.131-1.718-0.966-3.331-0.536-5.148-0.027-1.135 0.319-3.437-0.573-4.903-0.462z" stroke="#000000000" stroke-width="1px" fill="#330000"/>
  <path d="m51.835 111.98c-1.872 0.61-6.114-0.64-8.895-1.33-2.357-0.59-4.728 1.17-5.782 2.22-1.414 1.42-1.726 4.22-1.335 5.78 0.832 3.33 5.383 3.11 7.561 2.67 2.008-0.4 4.245 1.29 6.227 1.78 2.276 0.57 8.513-0.36 11.366-0.36 2.9 0 11.184 2.69 14.061 1.25 2.231-1.11 4.29-0.77 6.226-2.22 1.513-1.14 2.227-3.13 2.669-4.89 0.784-3.14-1.877-3.61-3.558-4.45-2.161-1.08-5.907-0.42-7.561 0-1.773 0.44-14.066-2.23-16.532-2.23-1.999 0-1.059 1.78-4.447 1.78z" fill-opacity=".72840" filter="url(#filter3443)"/>
  <path d="m71.041 110.14c2.355 1.64 6.057 2.77 8.293 5.16 0.319 0.94 0.18 1.97 0.186 2.96-0.295 1.27-1.146 1.99-2.185 2.68-2.665 0.69-5.417-0.42-7.957-1.2-2.27-0.35-4.895-1.19-6.278-3.12-2.183-2.58-1.516-4.71-0.884-7.87 2.929 0.57 5.862 1.04 8.825 1.39z" stroke="#333333" stroke-width="1px" fill="#fffffffff"/>
  <path d="m66.544 86.91c2.177 2.725 1.962 3.797 4.825 8.186-0.519 2.545 0.446 4.984 0.625 7.504-0.515 2.2 0.137 5.69-1.375 7.25-2.63 1.98-6.665 1.89-8.125-0.63 0.25-1 0.06-1.6 0.5-2.62 1.286-2.74 0.677-5.87 0.25-8.754-0.058-3.791-4.126-6.572-3.984-10.366 2.168-0.801 5.916-2.166 7.284-0.57z" stroke="#000000033" stroke-width="1px" fill="#003366"/>
 </g>
 <path d="m78.693 119.23c-3.185 0.3-6.597 0.25-8.894-0.99-2.85-0.72-5.362-1.63-7.692-4.79" stroke="#333333" stroke-width="1px" fill="none"/>
 <g transform="translate(-43,-65)">
  <g stroke-width="1px">
   <path d="m91.602 176.09c-3.176 0.63-5.789 1.22-8.486 3.18-0.6 0.72-0.572 1.42-0.53 2.3 0.237 0.77 0.511 1.51 0.707 2.3 2.752 0.26 5.793 1.9 8.667 0.98 3.018 0.04 6.07-1.02 8.57-2.84 0.58-1.71-0.04-4.02-0.18-5.92-2.782 0.88-5.946 0.73-8.748 0z" fill-rule="evenodd" stroke="#333333" fill="#fffffffff"/>
   <path d="m83.293 182.37c3.252-0.56 6.502 1.57 9.887 1.12 3.144-0.1 4.775-2.39 7.08-2.54" stroke="#333333" fill="none"/>
   <path d="m95.076 151.87c-0.145 0.78-3.187 5.63-2.923 6.95 0.944 2.8-0.163 5.06-0.862 7.9 0.016 2.79-0.872 7.45 1.125 9.5 2.845 1.13 5.706 1.85 8.124-0.62-1.245-3.86-0.46-7.54 0.13-11.56 0.03-3.8 2.89-6.54 2.75-10.36-2.17-0.8-6.976-3.4-8.344-1.81z" fill-rule="evenodd" stroke="#000000033" fill="#003366"/>
  </g>
 </g>
 <g fill-rule="evenodd">
  <path d="m74.975 91.601c-2.805-3.461-1.26-9.456-0.902-13.42-1.228-4.957 0.306-9.842-0.747-14.797-0.465-3.106 2.397-5.976 0.836-8.684-1.784-2.413-6.292-3.536-9.321-3.691-3.886 0.57-7.808 0.045-11.667 0.884-2.847 1.239-7.81 2.166-8.127 5.239-0.137 2.774 2.756 7.192 1.47 9.696-0.387 4.452-1.709 9.48-1.082 13.944 0.894 5.194-0.64 7.356-0.064 12.535 4.481-2.566 9.733-0.03 14.822-0.6 4.268-1.526 12.135 2.131 14.782-1.106z" stroke="#000000" stroke-width="1px" fill="#333333"/>
  <path d="m54.807 55.165c0.657 4.859 9.389 5.336 13.35 1.778-0.626-2.689-0.793-5.782-3.1-7.65-2.149-0.765-4.435-0.649-6.679-0.525-2 0.927-3.556 4.613-3.571 6.397z" stroke="#333300" stroke-width="1px" fill="#ffcc99"/>
  <g stroke-width="1px">
   <path d="m46.28 17.542c-1.409 4.801 0.633 10.454 1.891 15.156-1.823 5.854-1.586 11.191 3.967 15.861 6.424 2.089 20.154 3.055 22.354-5.99 1.366-11.377-1.113-4.824 1.473-14.329 0.855-12.313-3.514-20.66-15.09-19.765-8.002-0.2624-11.436 3.864-14.595 9.067z" stroke="#333300" fill="#ffcc99"/>
   <path d="m61.359 35.141c-5.561-0.312-8.429 2.973-11.609 4.943-0.539 0.18-0.915 0.909-1.335 1.4-1.68 3.514 0.759 7.342 3.902 9.528 2.633 1.528 5.315 2.031 8.203 1.529 2.731-0.486 5.701-0.35 8.111-1.647 3.984-0.585 5.369-2.754 5.837-6.645-0.175-2.648-1.475-5.784-3.736-7.083-2.947-0.834-6.309-2.534-9.373-2.025zm-0.774 3.369c1.816 0.525 5.342 1.592 6.743 2.768 0.563 2.322-0.536 4.633-2.932 4.353-1.556-1.877-4.67-1.416-6.418 0.343-2.086 0.372-2.958-2.109-2.905-3.846 0.677-1.825 3.933-2.644 5.512-3.618z" stroke="#000000000" fill="#330000"/>
   <path d="m60.913 14.613c4.481-1.03 3.745-2.096 4.886-3.49 8.755-0.862 9.13 7.674 8.138 11.16 1.657-1.494 0.785-2.249 2.831-0.808 0.47 0.403 0.115 4.061 0.035 4.535-0.085 0.499-1.862 6.863-1.488 7.015 4.477-2.717 5.29-14.654 0.515-21.191-3.522-4.8236-9.732-6.7478-15.077-4.9378-15.372-3.1767-20.734 15.973-13.176 29.172 0.882-2.986-1.633-8.984-0.523-12.234 0.924-0.823 1.167 0.804 2.361 0.676-4.018-8.132 0.394-12.527 5.777-13.373 1.383-1.224 1.352 3.041 5.721 3.476z" stroke="#000000000" fill="#330000"/>
  </g>
 </g>
 <g fill-rule="evenodd">
  <path d="m64.491 24.269c-1.416 2.975-0.388 4.751 2.544 4.366 0.892 0.41 2.8-1.75 2.394-3.211 0.387-3.898-2.996-4.039-4.938-1.155z" stroke="#333333" stroke-width="1px" fill="#ffffff"/>
  <path d="m56.578 22.138c-2.592 0.486-3.834 2.263-3.375 4.945 2.899 5.066 8.69-2.059 3.375-4.945z" stroke="#333333" stroke-width="1px" fill="#ffffff"/>
  <g stroke-width="1px">
   <path d="m67.472 25.263c0.525 0.02-0.61-2.048-1.946-0.525-1.036 1.18 0.044 2.781 0.802 2.915 1.524 0.268 1.798-2.179 1.144-2.39z" stroke="#000000"/>
   <path d="m55.353 24.454c0.473-0.941-2.174-0.224-1.533 1.974 0.442 1.518 2.114 0.617 2.241 0.538 1.698-1.058 0.385-3.847-0.708-2.512z" stroke="#000000"/>
   <path d="m59.304 27.964c-1.138 2.169-4.388 7.369 0.63 7.261 4.682-0.01 2.255-5.317 2.122-7.34" stroke="#333300" fill="#ffcc99"/>
  </g>
 </g>
 <path d="m58.222 41.741c0.958 0.425 3.696 0.252 5.374 0.089" stroke="#333300" stroke-width="1px" fill="none"/>
 <g fill-rule="evenodd" stroke="#333300" stroke-width="1px" fill="#ffcc99">
  <path d="m75.255 22.661c7.413-2.957 4.337 7.177 0.15 6.004"/>
  <path d="m76.23 24.178c2.127-1.583 2.941 1.603-0.175 2.997"/>
  <path d="m47.738 24.739c-7.746-1.92-3.319 7.701 0.669 5.968"/>
  <path d="m46.979 26.374c-2.323-1.278-2.696 1.989 0.581 2.946"/>
  <path d="m78.291 77.721c0.553 3.261 0.495 7.033-1 10-1.098 1.131-2.687-0.507-3.5 1.125 0.325 1.412 1.689 1.773 3 2.125-0.939 1.857-2.742 3.419-0.875 5.5 1.21-0.621 2.044-2.018 2.375-3.25 0.137 1.437-1.076 4.29 1.625 3.125 1.311-0.983 0.672-2.419 0.75-3.875 1.048 1.62 1.364 4.056 2.75 1.25 0.139-1.258-0.468-2.133-1.125-3.125-0.171-1.268 0.283-2.597 0.5-3.875 1.593-2.694 2.045-5.694 2.5-8.75-1.815-2.386 0.031-5.733-1.5-8.125-0.427-1.071-0.836-1.989-1.5-2.875-2.815-0.805-5.105 0.014-6.375 2.625-1.495 3.45 1.72 5.314 2.375 8.125z"/>
 </g>
 <g>
  <g fill-rule="evenodd">
   <path d="m70.95 63.43c0.301 0.858 0.822 1.173 2.03 3.379 1.062 2.29 1.668 3.705 2.113 6.173 4.07-1.143 6.212-2.637 10.132-4.643-0.781-1.968-1.933-3.876-2.679-5.864-1.117-2.594-2.917-3.183-4.506-5.318-1.84-1.448-2.457-1.936-4.56-3.136" stroke="#000000" stroke-width="1px" fill="#333333"/>
   <path d="m40.44 77.362c-1.219 3.075-1.947 6.777-1.101 9.989 0.839 1.335 2.733 0.063 3.19 1.828-0.612 1.314-2.021 1.384-3.376 1.455 0.533 2.012 1.971 3.915-0.288 5.562-1.055-0.859-1.58-2.398-1.647-3.673-0.433 1.377 0.16 4.421-2.239 2.719-1.078-1.233-0.155-2.506 0.072-3.946-1.363 1.367-2.178 3.684-2.95 0.651 0.125-1.259 0.901-1.989 1.75-2.823 0.431-1.205 0.263-2.599 0.316-3.894-0.999-2.966-0.817-5.994-0.626-9.078 2.27-1.958 1.16-5.615 3.156-7.636 0.64-0.959 1.23-1.773 2.064-2.501 2.921-0.202 4.991 1.075 5.691 3.893 0.745 3.685-2.787 4.841-4.012 7.454z" stroke="#333300" stroke-width="1px" fill="#ffcc99"/>
   <path d="m47.835 63.194c-0.684 2.45 0.41 1.245-0.915 3.383-1.184 2.229-2.544 6.483-3.121 8.923-4.003-1.36-7.255-5.199-11.061-7.413 0.886-1.923 3.264-3.905 4.116-5.85 1.256-2.529 2.493-2.486 4.195-4.533 1.563-1.192 2.007-2.795 5.244-2.919" stroke="#000000" stroke-width="1px" fill="#333333"/>
  </g>
  <path fill="#ffffff" d="m52.944 70.184c-0.126 0.005-0.312 0.09-0.205-0.117-0.005-0.974-0.233-1.931-0.244-2.905-0.012-0.477-0.028-0.957 0.009-1.432 0.139-0.259 0.476-0.289 0.736-0.35 0.541-0.085 1.093-0.122 1.639-0.107 0.269 0.15 0.449 0.422 0.623 0.669 0.228 0.346 0.127 0.809-0.146 1.099-0.313 0.405-0.815 0.585-1.162 0.95-0.259 0.212-0.148 0.592 0.13 0.725 0.351 0.223 0.776 0.344 1.05 0.676 0.152 0.187 0.316 0.414 0.302 0.665-0.242 0.156-0.682 0.117-0.855-0.161-0.221-0.192-0.411-0.45-0.65-0.606-0.254-0.08-0.428-0.648-0.721-0.282-0.157 0.253-0.112 0.576-0.137 0.863 0.032 0.148-0.162 0.164-0.25 0.242-0.04 0.024-0.08 0.047-0.119 0.071zm0.367-2.312c0.55-0.309 1.136-0.612 1.538-1.113 0.19-0.207 0.169-0.559-0.083-0.706-0.384-0.279-0.888-0.199-1.332-0.18-0.41-0.054-0.221 0.465-0.215 0.707 0.064 0.427 0.06 0.862 0.092 1.292zm4.451 2.143c-0.002-0.673 0.042-1.356-0.112-2.017-0.083-0.467-0.164-0.934-0.245-1.401-0.21-0.21-0.566-0.161-0.843-0.207-0.34-0.018-0.803-0.085-0.903-0.476-0.035-0.302 0.484-0.136 0.684-0.209 1.087-0.043 2.181-0.126 3.265 0 0.247 0.024 0.714 0.122 0.569 0.47-0.192 0.232-0.539 0.195-0.811 0.208-0.32 0.003-0.64-0.006-0.959 0.011-0.239 0.329-0.065 0.752-0.005 1.113 0.115 0.76 0.135 1.537 0.073 2.304 0.016 0.304-0.186 0.592-0.514 0.42-0.1-0.026-0.205-0.1-0.199-0.216zm3.482-1.61c-0.199 0.199 0.025 0.561 0.07 0.809 0.089 0.304 0.266 0.65 0.113 0.96-0.222 0.243-0.727 0.11-0.726-0.253-0.147-1.002-0.178-2.018-0.235-3.028 0-0.325-0.051-0.661 0.024-0.979 0.332-0.318 0.824-0.356 1.257-0.422 0.418-0.031 0.862-0.107 1.265 0.043 0.153 0.179 0.512 0.451 0.413 0.694-0.647-0.051-1.313-0.183-1.956-0.023-0.341 0.091-0.248 0.539-0.256 0.806-0.035 0.33 0.129 0.741 0.52 0.72 0.439 0.031 0.887-0.258 1.315-0.063 0.367 0.225 0.016 0.636-0.304 0.641-0.491 0.11-1 0.11-1.5 0.095zm6.319 2.773c-0.121-0.381-0.09-0.793-0.114-1.189-0.037-1.291 0.039-2.585-0.022-3.875-0.065-0.062-0.241 0.303-0.348 0.398-0.285 0.358-0.651 0.667-1.006 0.936 0.16 0.157 0.617 0.342 0.504 0.586-0.225 0.324-0.608 0.199-0.779-0.098-0.476-0.48-0.945-0.968-1.436-1.433 0.069 1.137 0.149 2.276 0.16 3.415 0.01 0.313-0.458 0.499-0.659 0.265-0.161-0.275-0.097-0.614-0.131-0.918-0.023-1.038-0.044-2.077-0.019-3.116 0-0.322 0.365-0.418 0.624-0.357 0.323 0.102 0.61 0.34 0.737 0.66 0.136 0.184 0.284 0.661 0.553 0.512 0.365-0.371 0.741-0.73 1.099-1.107 0.173-0.239 0.463-0.422 0.491-0.74 0.15-0.219 0.687-0.267 0.696 0.088 0.074 0.664 0.067 1.335 0.133 2 0.053 1.029 0.026 2.063 0.136 3.088 0.07 0.27 0.137 0.607-0.155 0.778-0.115 0.094-0.334 0.281-0.464 0.107z"/>
 </g>
</svg>
