<?xml version="1.0" encoding="UTF-8" standalone="no"?>
<svg xmlns:rdf="http://www.w3.org/1999/02/22-rdf-syntax-ns#" xmlns="http://www.w3.org/2000/svg" height="128" width="128" version="1.0" xmlns:cc="http://creativecommons.org/ns#" xmlns:dc="http://purl.org/dc/elements/1.1/">
 <defs>
  <filter id="filter3443" height="1.6533" width="1.2503" y="-.32663" x="-.12514">
   <feGaussianBlur stdDeviation="1.9634296"/>
  </filter>
 </defs>
 <g fill-rule="evenodd">
  <path d="m29.919 61.636c-7.248-44.018-6.721-37.718-6.721-37.718l2.298-7.778 5.303 6.187 3.009 38.248-3.889 1.061z" stroke="#666666" stroke-width="1px" fill="#999999"/>
  <path d="m65.835 110.73c-1.872 0.61-6.114-0.64-8.895-1.33-2.357-0.59-4.728 1.17-5.782 2.22-1.414 1.42-1.726 4.22-1.335 5.78 0.832 3.33 5.383 3.11 7.561 2.67 2.008-0.4 4.245 1.29 6.227 1.78 2.276 0.57 4.263 0.89 7.116 0.89 2.9 0 4.684 1.44 7.561 0 2.231-1.11 4.29-0.77 6.226-2.22 1.513-1.14 2.227-3.13 2.669-4.89 0.784-3.14-1.877-3.61-3.558-4.45-2.161-1.08-5.907-0.42-7.561 0-1.773 0.44-3.316-2.23-5.782-2.23-1.999 0-1.059 1.78-4.447 1.78z" fill-opacity=".72840" filter="url(#filter3443)"/>
  <path d="m64.602 108.84c-3.176 0.63-5.789 1.22-8.486 3.18-0.6 0.72-0.572 1.42-0.53 2.3 0.237 0.77 0.511 1.51 0.707 2.3 2.752 0.26 5.793 1.9 8.667 0.98 3.018 0.04 6.07-1.02 8.569-2.84 0.577-1.71-0.042-4.02-0.177-5.92-2.784 0.88-5.948 0.73-8.75 0z" stroke="#333333" stroke-width="1px" fill="#fffffffff"/>
 </g>
 <path d="m56.293 115.12c3.252-0.56 6.502 1.57 9.887 1.12 3.144-0.1 4.775-2.39 7.084-2.54" stroke="#333333" stroke-width="1px" fill="none"/>
 <path d="m75.827 109.37c-2.53 1.35-6.339 2.05-8.839 4.16-0.427 0.89-0.409 1.93-0.53 2.91 0.144 1.3 0.905 2.11 1.856 2.92 2.567 0.99 5.429 0.22 8.043-0.27 2.295-0.08 5.001-0.6 6.599-2.35 2.47-2.31 2.056-4.51 1.798-7.72-2.975 0.22-5.944 0.35-8.927 0.35z" fill-rule="evenodd" stroke="#333333" stroke-width="1px" fill="#fffffffff"/>
 <g fill-rule="evenodd" stroke-width="1px">
  <path d="m28.646 63.678l2.568 10.017 4.543-0.724-0.835-10.362-6.276 1.069z" stroke="#666666" fill="#999999"/>
  <path d="m39.432 59.909c-12.067 1.861-14.875 2.24-14.875 2.24l2.805 3.226 10.992-1.827 1.078-3.639z" stroke="#666666" fill="#999999"/>
  <path d="m62.19 68.932c-1.222-0.698-7.175-5.71-11.921-1.931-2.802-0.12-5.35 1.446-8.094 0.75-1.687-0.674-2.785-1.075-4.03-2.381-0.16-1.509-2.939-2.385-4.25-2.686-0.838 0.939 1.49 2.007 1.653 3.222-2.246-0.237-2.662 6.543-0.472 6.542 2.806 0.432 5.498 1.39 8.357 1.487 4.155-0.559 9.462 1.123 13.217-0.941 1.181-2.768 6.758-2.135 5.54-4.062z" stroke="#333300" fill="#ffcc99"/>
  <path d="m64.277 53.055c-3.433 1.819-6.128 4.281-8.364 7.392-2.178 1.999-4.301 3.718-5.537 6.466 3.539 1.943 7.601 2.443 11.173 4.178 3.196-3.986 4.532-9.068 6.188-13.825" stroke="#000000" fill="#333333"/>
  <path d="m75.666 87.221c-0.145 0.779-0.89 2.802-0.625 4.125 0.203 1.016 0.508 2.031 0.75 3 0.518 2.545-0.446 4.982-0.625 7.504 0.515 2.2-0.137 5.69 1.375 7.25 2.63 1.98 6.665 1.89 8.125-0.63-0.251-1-0.06-1.6-0.5-2.62-1.286-2.74-0.677-5.868-0.25-8.754 0.057-3.791 0.767-7.456 0.625-11.25-2.168-0.801-7.507-0.221-8.875 1.375z" stroke="#000033" fill="#003366"/>
  <path d="m64.541 87.096c-0.145 0.779-0.89 2.802-0.625 4.125 0.943 2.795 1.074 5.406 0.375 8.25 0.016 2.789-0.872 7.449 1.125 9.499 2.845 1.13 5.706 1.85 8.125-0.62-1.246-3.86-1.344-7.37-0.75-11.379 0.029-3.8 0.768-7.43 0.625-11.25-2.168-0.801-7.507-0.221-8.875 1.375z" stroke="#000033" fill="#003366"/>
  <path d="m89.45 90.373c-2.805-3.462-0.873-8.646-0.515-12.61-1.228-4.957 1.962-10.247 0.909-15.202-0.466-3.106-1.496-5.903-3.057-8.611-1.784-2.413-4.167-3.786-7.196-3.941-3.886 0.57-7.808 0.045-11.667 0.884-2.847 1.239-4.81 3.291-5.127 6.364-0.137 2.774 0.049 5.274-1.237 7.778-0.387 4.452-1.864 8.971-1.238 13.435 0.895 5.194-1.334 7.325-0.758 12.505 4.481-2.566 10.29 1.302 15.379 0.732 4.268-1.526 11.859 1.902 14.507-1.334z" stroke="#000000" fill="#333333"/>
  <path d="m93.303 75.776c-2.519 2.143-5.79 4.023-9.104 4.256-1.533-0.365-0.939-2.568-2.757-2.432-1.047 1.002-0.66 2.359-0.292 3.665-2.075 0.142-4.34-0.607-5.173 2.061 1.153 0.723 2.779 0.725 4.007 0.379-1.164 0.852-4.237 1.27-1.854 2.994 1.515 0.624 2.423-0.66 3.714-1.337-0.856 1.729-2.788 3.247 0.332 3.002 1.152-0.524 1.594-1.493 2.11-2.565 1.002-0.796 2.377-1.085 3.585-1.553 3.13-0.008 5.939-1.155 8.798-2.327 1.122-2.78 4.941-2.906 6.211-5.445 0.71-0.915 1.29-1.735 1.71-2.759-0.75-2.831-2.63-4.38-5.52-4.136-3.729 0.481-3.687 4.196-5.767 6.197z" stroke="#333300" fill="#ffcc99"/>
  <path d="m79.934 60.549c1.392 2.13 3.118 3.82 5.027 5.459 1.801 1.768 3.219 3.815 4.506 5.967 3.406-2.505 6.403-6.299 9.363-9.558-1.424-1.566-2.94-3.034-4.339-4.631-1.96-2.033-4.657-2.315-6.898-3.753-2.317-1.04-4.543-0.871-6.349 1.045" stroke="#000000" fill="#333333"/>
  <path d="m69.993 7.6363c-10.45-0.0612-14.584 6.8337-14.724 15.803 0 1.876 0.867 5.569 1.332 7.428-0.216 3.662-1.123 6.429-0.043 10.003 1.257 5.057 4.654 7.749 9.546 8.839 4.343-0.085 10.18-1.56 13.435-4.596 4.661-3.814 6.064-10.268 7.779-15.91 0.609-5.389-2.006-10.53-3.536-15.556-2.131-5.5006-8.577-6.7805-13.789-6.0107z" stroke="#333300" fill="#ffcc99"/>
 </g>
 <g stroke-width="1px" fill-rule="evenodd">
  <path d="m56.558 14.707c-0.644-9.8621 26.255-13.119 27.66-5.3207 7.556 0.5802 7.594 19.938 5.717 26.599-7.796-0.079-3.742-9.111-8.274-11.378-1.931-0.483-2.577 0.997-4.243 1.414-3.529-2.268 0.04-9.248-5.657-11.667-2.782 1.124-6.307 2.859-9.192 0-2.466 0-3.911 1.193-6.011 0.353z" stroke="#000000" fill="#330000"/>
  <path d="m88.812 34.586c-1.58 0 1.141 5.624 1.414 6.718 0.424 1.695 3.492 4.184 4.596 5.657 0.938 1.25 4.97 0.062 6.008-0.354 1.75-0.7 3.79 0.255 4.6 1.061 2.51 2.514 1.01-1.161 0.35-2.475-0.51-1.032-2.87-2.421-3.89-3.182-1.72-1.294-2.073-2.783-3.532-4.243-1.393-1.393-3.063-1.414-4.95-1.414-1.179 0-3.155-1.479-4.596-1.768z" stroke="#000000" fill="#330000"/>
  <path d="m67.235 52.989c1.739 4.584 10.352 3.073 13.406-1.289-1.218-2.478-2.081-5.453-4.75-6.75-2.267-0.259-4.467 0.371-6.625 1-1.739 1.355-2.42 5.298-2.031 7.039z" stroke="#333300" fill="#ffcc99"/>
  <path d="m55.378 47.222c0.656 1.312 1.989 2.125 3.657 2.125 2.626 0.757 5.167 1.936 7.781 2.844 3.432 0.882 5.932-0.87 8.469-2.844 4.273-2.21 8.702-5.971 9.593-10.906 0.25-2.068-0.564-2.063-1.75-1.688-1.97 2.011-4.438 4.135-7.125 5.188-3.404 0.967-6.101 1.415-7.062-2.5-1.129-3.243-4.775-4.174-7.781-4.938-6.391-0.276-7.785 8.061-5.782 12.719zm5.719-8.781c3.084-1.303 9.51 6.629 3.938 6.312-2.341-0.779-2.828-2.295-4.219-0.344-4.961 1.504-3.005-4.722 0.281-5.968z" stroke="#000000" fill="#330000"/>
  <path d="m64.441 23.941c-1.366 2.998-0.309 4.756 2.616 4.323 0.899 0.395 2.771-1.796 2.341-3.25 0.322-3.904-3.063-3.989-4.957-1.073z" stroke="#333333" fill="#ffffff"/>
  <path d="m58.441 21.941c-2.354 0.528-3.458 2.326-3 5 2.717 5.018 7.885-2.202 3-5z" stroke="#333333" fill="#ffffff"/>
 </g>
 <g fill-rule="evenodd" stroke="#333300" stroke-width="1px" fill="#ffcc99">
  <path d="m61.941 25.691c-0.416 2.41-2.749 3.532-4 4.75-0.639 2.674-0.255 4.593 2.75 4 2.1-0.976 2.943-2.594 3.25-4.75"/>
  <path d="m79.441 26.191c5.863-2.33 4.83 6.354 0.5 5.5"/>
  <path d="m80.566 27.566c0.851-1.493 3.092 1.179 0 2.625"/>
 </g>
 <g stroke-width="1px">
  <path d="m59.441 41.691c0.965 0.409 3.699 0.191 5.375 0" stroke="#333300" fill="none"/>
  <path d="m65.703 24.307c0.387-0.357-1.877-1.022-1.75 1 0.099 1.567 1.993 1.94 2.625 1.5 1.27-0.885-0.262-2.813-0.875-2.5z" fill-rule="evenodd" stroke="#000000"/>
  <path d="m57.057 24.276c0.457-0.948-2.177-0.187-1.5 2 0.467 1.51 2.125 0.581 2.25 0.5 1.68-1.085 0.321-3.852-0.75-2.5z" fill-rule="evenodd" stroke="#000000"/>
  <path d="m71.291 65.221c-1.167 0.458-1.357 2.881-1.375 4.125 0.438 1.191 0.958 3.356 0.375 4.875" stroke="#006699" fill="none"/>
  <path d="m67.165 117.5c3.128 0.67 6.523 1.02 8.949 0.06 2.915-0.38 5.516-0.99 8.198-3.86" stroke="#333333" fill="none"/>
 </g>
 <path fill="#ffffff" d="m63.26 67.107c-0.137-0.026-0.338 0.019-0.222-0.179-0.005-1.058-0.253-2.155-0.264-3.215-0.014-0.521-0.032-1.046 0.009-1.553 0.151-0.246 0.517-0.193 0.799-0.193 0.587 0.045 1.186 0.146 1.779 0.3 0.293 0.231 0.488 0.571 0.676 0.884 0.248 0.434 0.138 0.911-0.158 1.157-0.34 0.359-0.884 0.428-1.261 0.735-0.282 0.166-0.161 0.605 0.141 0.821 0.381 0.331 0.843 0.57 1.14 1.001 0.165 0.241 0.343 0.529 0.327 0.798-0.262 0.108-0.74-0.046-0.928-0.392-0.24-0.265-0.446-0.593-0.706-0.823-0.276-0.151-0.464-0.812-0.782-0.489-0.171 0.235-0.122 0.597-0.149 0.902 0.035 0.168-0.176 0.137-0.271 0.2-0.043 0.015-0.087 0.031-0.13 0.046zm0.399-2.416c0.598-0.196 1.233-0.377 1.67-0.818 0.206-0.177 0.183-0.564-0.09-0.788-0.417-0.4-0.964-0.441-1.446-0.533-0.446-0.164-0.24 0.448-0.234 0.712 0.069 0.48 0.065 0.952 0.1 1.427zm4.832 3.455c-0.002-0.731 0.046-1.46-0.121-2.217-0.091-0.528-0.179-1.056-0.266-1.584-0.229-0.281-0.614-0.318-0.916-0.438-0.369-0.106-0.872-0.297-0.98-0.746-0.037-0.336 0.525-0.026 0.743-0.054 1.179 0.23 2.367 0.417 3.544 0.829 0.269 0.089 0.775 0.314 0.618 0.654-0.208 0.204-0.585 0.075-0.881 0.02-0.347-0.077-0.694-0.168-1.041-0.231-0.259 0.297-0.07 0.8-0.006 1.207 0.126 0.855 0.147 1.703 0.08 2.52 0.018 0.334-0.201 0.595-0.558 0.326-0.109-0.054-0.223-0.161-0.216-0.286zm3.78-0.863c-0.216 0.18 0.034 0.641 0.088 0.936 0.096 0.34 0.273 0.746 0.111 1.031-0.242 0.207-0.79-0.066-0.789-0.459-0.159-1.126-0.193-2.236-0.254-3.348 0-0.353-0.055-0.73 0.025-1.057 0.361-0.26 0.896-0.177 1.365-0.138 0.455 0.072 0.936 0.103 1.373 0.368 0.167 0.233 0.557 0.619 0.449 0.857-0.702-0.219-1.426-0.531-2.123-0.521-0.37 0.012-0.27 0.522-0.278 0.81-0.038 0.35 0.139 0.838 0.564 0.914 0.477 0.145 0.964-0.055 1.428 0.265 0.398 0.338 0.017 0.695-0.331 0.619-0.532-0.005-1.085-0.135-1.628-0.277zm6.86 4.614c-0.131-0.445-0.098-0.884-0.124-1.32-0.04-1.412 0.043-2.796-0.023-4.213-0.071-0.083-0.262 0.268-0.379 0.344-0.309 0.317-0.706 0.559-1.091 0.761 0.181 0.214 0.657 0.524 0.547 0.764-0.244 0.295-0.66 0.062-0.846-0.304-0.516-0.642-1.026-1.291-1.559-1.92 0.075 1.252 0.162 2.508 0.173 3.748 0.012 0.342-0.496 0.425-0.714 0.12-0.175-0.339-0.105-0.69-0.142-1.029-0.026-1.133-0.048-2.267-0.021-3.388-0.001-0.35 0.396-0.361 0.677-0.23 0.35 0.194 0.662 0.525 0.8 0.904 0.148 0.235 0.309 0.79 0.601 0.696 0.396-0.309 0.804-0.604 1.192-0.922 0.189-0.216 0.504-0.341 0.533-0.68 0.164-0.199 0.747-0.114 0.756 0.272 0.081 0.741 0.073 1.467 0.144 2.206 0.059 1.13 0.029 2.246 0.148 3.386 0.076 0.312 0.149 0.694-0.168 0.806-0.125 0.073-0.362 0.221-0.504-0.001z"/>
 <g stroke="#666666" stroke-width="1px">
  <path d="m71.049 60.833c8.291 1.904 19.814 3.829 26.808-2.092 11.633 23.399 5.863 34.588-9.833 46.429-18.175-11.214-22.875-21.567-16.975-44.337z" fill-rule="evenodd" fill="#999999"/>
  <path d="m35.399 72.949c-2.751-0.602-4.681 0.396-5.48 3.182 1.048 2.967 4.776 2.707 7.248 1.414 1.274-2.387 0.718-3.639-1.768-4.596z" fill-rule="evenodd" fill="#999999"/>
  <path d="m25.856 16.67l5.477 39.132" fill="none"/>
 </g>
 <g stroke-width="1px">
  <path d="m27 66.25c0.151 0.888 0.25 1.681 1.457 1.58-0.953-0.02-1.817 2.136-0.494 2.045-1.584 1.746 1.7 2.426 2.912 2.5 0.701 0 1.495-1.477 1.625-1.625 0.153-1.251-0.844-0.781-2.037-0.735-0.619 0 1.579-0.472 1.287-1.515-0.122-0.435-0.4-0.729-1.052-0.552 1.712-1.01 1.683-1.242 0.677-2.073-1.437-0.694-3.041-0.352-4.375 0.375z" fill-rule="evenodd" stroke="#333300" fill="#ffcc99"/>
  <path d="m54.351 16.734c2.572 2.368 7.916 2.429 11.314 2.475 8.637 1.112 17.132-0.767 25.632-1.944 0.545-1.559-0.331-3.054-1.591-3.89-6.524 1.273-13.121 2.559-19.799 1.768 1.081-5.9833-2.687-8.8243-5.996-13.396-3.045 2.9512-6.276 5.7147-6.201 11.805-0.245 0.49-2.417-0.501-2.475-0.53-0.683 1.015-0.777 2.457-0.884 3.712z" fill-rule="evenodd" stroke="#666666" fill="#999999"/>
  <path d="m63.375 6.625c-2.832 0.3987-2.421 3.978-1.875 6.125 1.412 0.718 2.337 0.553 2.875-0.875 0.223-2.0255 1.229-4.4759-1-5.25z" stroke="#666666" fill="none"/>
 </g>
 <g fill-rule="evenodd" stroke="#ff9900" fill="#ffff00">
  <g stroke-width="1px">
   <path d="m7.9794 8.849c-2.6841 1.704 2.3316 3.725 3.0626 5.594 1.553 1.178 3.28 4.068 5 3.843 2.062-1.791-1.745-2.672-2.563-4.218-1.8-1.449-3.5637-4.8829-5.4996-5.219z"/>
   <path d="m4.9579 25.595c-1.2249 2.381 2.6498 1.831 4.2181 2.12 1.92-0.433 6.273 1.261 5.876-1.526-1.349-1.153-4.677-0.057-6.8441-0.5-1.012 0.203-2.8451-1.042-3.25-0.094z"/>
   <path d="m16.864 35.021c-3.084 1.343-6.108 3.301-9.5623 3.656-0.8938 3.242 2.6164 1.556 4.2813 1 2.285-0.896 4.403-2.015 6.594-3.125-0.448-0.315-0.537-2.309-1.313-1.531z"/>
   <path d="m18.386 45.273c-2.133 1.471-4.274 3.005-6.719 3.812 0.173 3.207 3.217 0.727 4.781-0.125 1.5-1.078 5.37-2.803 1.938-3.687z"/>
   <path d="m42.159 8.4712c-2.912 1.2842-4.64 4.2228-7.125 5.9378 0.892 2.764 2.515 0.607 3.701-0.6 1.488-1.401 2.733-2.95 4.643-3.682-0.442-0.2315-0.383-2.4943-1.219-1.6558z"/>
   <path d="m46.054 19.378c-2.409 2.097-5.588 3.012-8.718 3.313-0.508 2.545 1.545 1.971 3.218 1.531 2.609-0.643 5.254-1.788 7.219-3.687-0.521-0.292-1.163-1.943-1.719-1.157z"/>
   <path d="m37.796 31.894c-1.63 2.053 1.725 2.05 3.031 2.5 1.934 0.37 3.927 0.354 5.875 0.093 0.509-3.091-2.717-1.339-4.594-1.937-1.225 0.281-3.78-1.616-4.312-0.656z"/>
   <path d="m37.586 46.33c-1.92 1.921 2.105 2.879 3.524 3.785 1.665 0.569 4.605 2.46 4.319-0.691-2.733-0.635-5.317-1.812-7.562-3.5l-0.281 0.406z"/>
  </g>
  <path d="m22.586 2.2033c-2.386 1.0238 0.642 5.0676 1.119 7.5292 0.266 3.3515 3.768 2.4175 2.122-0.2522-1.092-2.4024-1.749-5.123-2.773-7.5718l-0.44 0.2769-0.028 0.0179z" stroke-width="1px"/>
 </g>
 <path d="m82.815 67.85c-3.419 0.18-7.011 1.771-5.592 3.924 2.04 1.772-2.1 6.284 1.045 5.16 3.787-0.727 3.125-2.691 6.423-1.03 5.642-0.405 0.874-3.197-0.863-3.294 2.215-0.825 4.106-3.961 5.798-1.908 0.789 1.438-0.496 6.198 4.259 3.82 1.102-1.74 0.48-3.544 0-5.134 2.56 0.385 6.845-2.076 3.415-2.655-4.335-0.331-9.529 1.988-13.134 0.917l-1.201 0.177-0.15 0.023zm-0.826 2.336c3.245-0.718-1.756 2.317-0.6 0.079l0.6-0.079zm13.359 9.321c-2.342 0.727-3.582 4.22-5.741 2.436-2.006-0.542-3.84 0.231-5.817-0.219-3.902 0.133-8.476 1.935-6.618 4.43-0.407 1.543 0.045 6.127 4.442 3.764 1.327-1.29-1.701-2.614 2.139-2.662 3.032-1.375-0.171 3.608 4.128 2.189 3.965-1.538-0.857-5.59 4.24-3.441 2.096-0.508 2.649-1.203 2.139 0.855-1.098 1.757 1.172 4.304 3.94 1.951 0.406-3.005 0.246-6.458-0.863-9.259-0.502-0.251-1.292-0.202-1.989-0.044zm-12.909 4.754c2.771-0.643 3.511 0.642 0.601 0.686-1.905 1.078-2.627-0.697-0.601-0.686zm11.821-0.22c-0.706 0.001 0.481-0.609 0 0z" stroke="#666666" stroke-width="1px" fill="none"/>
</svg>
