<?xml version="1.0" encoding="UTF-8" standalone="no"?>
<svg xmlns:rdf="http://www.w3.org/1999/02/22-rdf-syntax-ns#" xmlns="http://www.w3.org/2000/svg" xmlns:cc="http://creativecommons.org/ns#" xmlns:dc="http://purl.org/dc/elements/1.1/" height="128" width="128" version="1.0">
 <defs>
  <filter id="filter3443" height="1.6533" width="1.2503" y="-.32663" x="-.12514">
   <feGaussianBlur stdDeviation="1.9634296"/>
  </filter>
 </defs>
 <path d="m80.31 109.99c-5.464 0.42-6.823-3.26-11.495 0.88-1.413 1.42-1.725 4.22-1.334 5.79 2.875 3.85 5.999 2.88 10.606 4.44 2.276 0.57 4.262 0.89 7.116 0.89 2.899 0 4.684 1.44 7.56 0 2.231-1.11 4.291-0.77 6.227-2.22 1.51-1.13 2.23-3.12 2.67-4.89 0.78-3.14-1.878-3.61-3.56-4.45-2.161-1.08-5.906-0.41-7.56 0-1.774 0.44-3.316-2.22-5.782-2.22-2 0-1.06 1.78-4.448 1.78z" fill-opacity=".72840" fill-rule="evenodd" filter="url(#filter3443)" fill="#000000"/>
 <path d="m45.342 2.0887c-9.808 3.5112-22.451 0.4249-32.437 2.6159-6.3815 3.0127-6.3946 38.617-3.8366 41.331 6.7036 8.083 10.225-6.606 10.987-9.418 0.582 4.048-0.818 7.545 3.837 9.243 6.275-0.835 4.568-9.439 8.371-13.254-0.732 2.509-2.847 2.238 2.964 3.663 9.426 0.609 13.852-5.724 13.08-13.777-0.653-10.714 0.506-11.201-2.965-20.404z" fill-rule="evenodd" stroke="#003300" stroke-width="1px" fill="#009900"/>
 <g transform="translate(340.9 -151.34)"/>
 <g fill-rule="evenodd" stroke-width="1px">
  <path d="m80.975 79.671c-2.816-0.287-5.915-1.194-8.021-3.106-0.683-1.164 1.029-2.103-0.131-3.147-1.239-0.053-1.848 0.991-2.436 1.993-1.318-1.199-2.197-3.044-4.338-1.977 0.237 1.142 1.199 2.149 2.14 2.703-1.216-0.214-3.294-1.866-2.948 0.63 0.512 1.307 1.843 1.107 3.026 1.503-1.575 0.496-3.657 0.202-1.657 1.986 1.006 0.402 1.865 0.1 2.833-0.216 1.085 0.147 2.078 0.826 3.083 1.296 1.859 1.93 4.231 2.987 6.648 4.06 2.382-0.955 6.648 1.762 8.97 1.042 0.98-0.108 1.236-8.634 2.118-8.981 1.305-2.141-2.027-1.992-3.891-3.637-2.506-2.021-2.929 5.951-5.396 5.851z" stroke="#333333300" fill="#ffcc99"/>
  <path d="m86.483 108.53l-46.534-82.486c-1.649-0.782-3.467-2.25-4.035 1.358l47.733 82.918c2.105 0.57 2.651-0.43 2.836-1.79z" stroke="#663300" fill="#996600"/>
  <path d="m45.348 2.1389c6.971 3.5061 5.768 6.648 4.597 9.7911l-29.195 11.561c-3.589-3-8.377-5.522-4.895-10.264l29.493-11.088z" stroke="#003300" fill="#009900"/>
  <path d="m17.631 14.155c3.394 1.067 5.705 2.911 2.972 8.371" stroke="#003300" fill="#009900"/>
 </g>
 <path d="m36.086 27.36c-8.131 1.311-19.734 0.006-17.015-8.098" stroke="#000000" stroke-width="1px" fill="none"/>
 <path d="m49.236 12.378c-0.528 4.909-1.881 9.697-9.115 13.624" stroke="#000000" stroke-width="1px" fill="none"/>
 <g stroke="#333333" stroke-width="1px">
  <path d="m91.472 109.56c-2.453 0.11-5.648-0.77-8.358-0.06-0.662 0.53-1.033 1.34-1.488 2.05-0.368 1.06-0.083 1.97 0.352 2.94 1.613 1.72 4.108 2.18 6.304 2.78 1.801 0.79 5.367 2.24 7.247 1.48 2.761-0.87 3.467-3.57 2.961-6.15-2.379-0.93-4.716-1.93-7.018-3.04z" fill-rule="evenodd" fill="#fffffffff"/>
  <path d="m81.949 112.56c2.219 1.61 5.827 3.48 8.058 3.57 2.416 0.7 4.875 1.99 7.965 0.66" fill="none"/>
  <path d="m81.631 109.78c-2.453 0.1-5.648-0.77-8.357-0.07-0.663 0.54-1.034 1.35-1.489 2.06-0.368 1.05-0.083 1.96 0.352 2.94 1.613 1.72 4.108 2.18 6.305 2.77 1.8 0.79 5.366 2.25 7.247 1.49 2.76-0.87 3.466-3.58 2.96-6.16-2.379-0.93-4.716-1.93-7.018-3.03z" fill-rule="evenodd" fill="#fffffffff"/>
 </g>
 <g fill-rule="evenodd" stroke-width="1px">
  <path d="m99.914 67.52c2.306 2.396 3.846 5.118 4.836 8.246 1.24 2.208-4.2 11.421-3.93 13.988-3.392 0.641-0.11-7.28-3.478-6.817-1.541-4.097-1.277-8.591-1.361-12.907" stroke="#333333" fill="#666666"/>
  <path d="m81.216 94.204c-0.125 0.668-0.762 2.401-0.535 3.535 0.174 0.871 0.434 1.74 0.642 2.571 0.443 2.18-0.382 4.27-0.535 6.43 0.441 1.89-0.117 4.88 1.176 6.21 2.251 1.7 5.704 1.62 6.953-0.54-0.214-0.86-0.051-1.37-0.428-2.25-1.1-2.34-0.579-5.02-0.214-7.49 0.05-3.252 0.657-6.393 0.535-9.644-1.854-0.686-6.424-0.189-7.594 1.178z" stroke="#000033" fill="#003366"/>
  <path d="m90.736 94.097c-0.125 0.668-0.762 2.401-0.535 3.535 0.807 2.398 0.919 4.628 0.321 7.068 0.013 2.39-0.747 6.38 0.962 8.14 2.435 0.97 4.883 1.58 6.953-0.53-1.066-3.31-1.149-6.31-0.642-9.75 0.025-3.258 0.658-6.367 0.535-9.641-1.854-0.686-6.424-0.189-7.594 1.178z" stroke="#000033" fill="#003366"/>
  <path d="m101.67 96.905c-2.397-2.966 0.33-6.979 0.63-10.376 1.84-2.803 0.76-9.132-0.29-13.455-0.4-2.661-1.28-5.057-2.616-7.378-1.527-2.067-3.566-3.244-6.158-3.376-3.325 0.487-6.682 0.038-9.984 0.757-2.436 1.062-4.116 2.82-4.387 5.453-0.117 2.377 0.042 4.519-1.059 6.665-0.331 3.814 0.117 7.901 0.653 11.726 0.765 4.45-2.853 6.062-2.361 10.5 3.835-2.198 8.806 1.116 13.161 0.627 3.652-1.307 10.148 1.63 12.411-1.143z" stroke="#333333" fill="#666666"/>
  <path d="m72.58 80.284c-2.457-1.407-4.92-3.497-6.07-6.101-0.151-1.341 1.795-1.503 1.158-2.929-1.111-0.552-2.091 0.154-3.035 0.831-0.718-1.632-0.772-3.675-3.162-3.571-0.246 1.139 0.224 2.451 0.859 3.34-1.024-0.69-2.253-3.045-2.949-0.624-0.062 1.403 1.235 1.761 2.155 2.605-1.641-0.187-3.423-1.303-2.32 1.141 0.756 0.776 1.664 0.85 2.677 0.954 0.932 0.577 1.564 1.601 2.291 2.439 0.916 2.52 2.654 4.451 4.428 6.414 2.564 0.097 3.774 3.139 6.187 3.426 0.941 0.3 6.262-5.255 7.209-5.213 2.061-1.426-1.088-3.602-2.124-5.863-1.469-2.866-5.09 4.246-7.304 3.151z" stroke="#333333300" fill="#ffcc99"/>
  <path d="m79.961 67.366c-1.492 1.587-2.551 3.365-3.531 5.284-1.109 1.856-2.527 3.448-4.06 4.952 2.768 2.334 6.525 4.068 9.83 5.879 1.017-1.501 1.934-3.059 2.982-4.545 1.298-2.041 0.991-4.345 1.737-6.5 0.4-2.139-0.187-3.959-2.143-5.079" stroke="#333333" fill="#666666"/>
  <path d="m95.548 64.873c-1.488 3.928-8.858 2.633-11.471-1.105 1.042-2.123 1.781-4.672 4.065-5.784 1.939-0.222 3.822 0.318 5.669 0.857 1.487 1.162 2.07 4.54 1.737 6.032z" stroke="#333333300" fill="#ffcc99"/>
  <path d="m93.475 25.828c3.81 0.052 7.715 1.499 9.195 5.329 1.31 4.307 3.57 8.717 3.05 13.334-1.46 4.834-2.67 10.362-6.656 13.63-2.785 2.601-7.782 3.863-11.499 3.936-4.186-0.935-7.107-3.245-8.183-7.578-0.775-2.568-0.345-4.641-0.08-7.096-0.974 0.623-2.076 0.887-3.423 0.616-2.373-1.114-1.662-2.654 0.134-4.177 0.825-0.115 1.866-0.052 2.888-0.214-0.315-1.458-0.615-3.039-0.615-4.044 0.119-7.684 3.652-13.601 12.595-13.548 0.836-0.124 1.715-0.2 2.594-0.188z" stroke="#333333300" fill="#ffcc99"/>
 </g>
 <path d="m79.969 37.198c2.014 0.453 2.96 1.993 2.567 4.284-2.325 4.3-6.747-1.886-2.567-4.284z" fill-rule="evenodd" stroke="#333333" stroke-width="1px" fill="#ffffff"/>
 <g fill-rule="evenodd" transform="matrix(.68474 .057287 -.071251 .85388 -53.738 146.11)" stroke="#333333300" stroke-width="1.3033px" fill="#ffcc99">
  <path d="m192.16-132.54c5.86-2.33 4.83 6.35 0.5 5.5"/>
  <path d="m193.28-131.17c0.85-1.49 3.1 1.18 0 2.63"/>
 </g>
 <g stroke-width="1px">
  <path d="m79.228 38.342c-0.391-0.812 1.863-0.16 1.284 1.714-0.4 1.294-1.819 0.498-1.926 0.429-1.438-0.93-0.275-3.301 0.642-2.143z" fill-rule="evenodd" stroke="#000000"/>
  <path d="m79.676 31.237c2.295 0.64 4.865-1.47 5.563 1.071 0.958 1.999 2.178 3.01 0.855 5.141-0.83 1.389-0.334 5.35-1.069 7.926 0.319 0.32 4.412-2.785 4.92-2.785 1.027 2.876 0.34 5.885 0 8.997 0.159 5.106 3.691 6.578 6.632 9.211 2.809-0.843 5.993-2.132 6.423-4.712 7-8.833 8.84-24.081-1.29-29.347-2.917-3.587-11.36-4.566-18.397-1.5-1.924 1.626-6.878 4.971-3.637 5.998z" fill-rule="evenodd" stroke="#000000" fill="#330000"/>
  <path d="m71.467 112.78c2.218 1.6 5.826 3.48 8.057 3.56 2.416 0.71 4.875 1.99 7.966 0.67" stroke="#333333" fill="none"/>
  <path d="m79.564 55.887c2.31 1.869 3.741 0.659 5.127-0.707" stroke="#333333300" fill="none"/>
 </g>
</svg>
