<?xml version="1.0" encoding="UTF-8" standalone="no"?>
<svg xmlns:rdf="http://www.w3.org/1999/02/22-rdf-syntax-ns#" xmlns="http://www.w3.org/2000/svg" height="128" width="128" version="1.0" xmlns:cc="http://creativecommons.org/ns#" xmlns:dc="http://purl.org/dc/elements/1.1/">
 <defs>
  <filter id="filter3443" height="1.6533" width="1.2503" y="-.32663" x="-.12514">
   <feGaussianBlur stdDeviation="1.9634296"/>
  </filter>
 </defs>
 <g transform="translate(-178 -324)">
  <path d="m516.75 456.57c-5.47 0.42-6.83-3.26-11.5 0.89-1.41 1.41-1.72 4.21-1.33 5.78 2.87 3.85 6 2.88 10.6 4.44 2.28 0.57 4.27 0.89 7.12 0.89 2.9 0 4.68 1.44 7.56 0 2.23-1.11 4.29-0.77 6.23-2.22 1.51-1.13 2.22-3.12 2.67-4.89 0.78-3.14-1.88-3.61-3.56-4.45-2.16-1.08-5.91-0.41-7.56 0-1.78 0.44-3.32-2.22-5.78-2.22-2 0-1.06 1.78-4.45 1.78z" fill-rule="evenodd" fill-opacity=".72840" transform="matrix(-1 0 0 1 764 -22)" filter="url(#filter3443)"/>
  <g stroke="#000000000" stroke-width="1px">
   <path d="m246.44 431.34c2.35 3.08 5.54 3.83 8.73 4.31 0.6 0.72 0.33 0.28 0.28 1.17-0.23 0.76-0.51 1.51-0.7 2.3-2.76 0.25-5.8 1.9-8.67 0.98-3.02 0.04-6.07-1.02-8.57-2.84-0.58-1.71 0.04-4.03 0.18-5.92 2.78 0.87 5.95 0.73 8.75 0z" fill-rule="evenodd" fill="#330000"/>
   <path d="m254.75 437.62c-3.26-0.56-6.51 1.57-9.89 1.12-3.14-0.1-4.78-2.39-7.08-2.54" fill="none"/>
   <path d="m235.21 431.87c2.33 3.42 6.22 4.64 8.84 5.53 0.43 0.9 0.41 0.56 0.53 1.54-0.14 1.29-0.9 2.11-1.85 2.92-2.57 0.99-5.43 0.22-8.05-0.27-2.29-0.08-5-0.6-6.6-2.35-2.47-2.31-2.05-4.51-1.79-7.72 2.97 0.22 5.94 0.35 8.92 0.35z" fill-rule="evenodd" fill="#330000"/>
  </g>
  <g fill-rule="evenodd" stroke-width="1px">
   <path d="m254.25 394.47c3.4 4.52 0.07 8.06 0.5 11.87 0.78 1.65 1.24 2.72 2.62 3.88 1.52 0.07 2.62 0.83 3 2.12-0.88 0.9-2.15 0.59-3.37 0.5-0.36 1.37 1.62 3.14 1.75 4.75-1.78 2.13-3.27-1.39-3.38-3-0.21 1.55 0.66 4.07 0.5 5.13-2.03 0.4-2.74-3.01-2.75-4.75 0.04 1.9 0.99 3.81-1.25 3.75-1.53-1.13-1.17-3.24-1.37-5-0.61-2.77-1.73-5.4-2-8.25 0.3-4.18-1.7-9.37 0.12-13.25 2.69-1.35 3.63 1.15 5.63 2.25z" stroke="#333333300" fill="#ffcc99"/>
   <path d="m247.57 378.42c2.7 2.79 5.37 5.34 6.53 8.99 1.45 2.58 2.06 5.5 2.38 8.49-3.97 0.75-7.98-0.03-11.92 0.51-1.8-4.78-1.49-10.03-1.59-15.07" stroke="#333333300" fill="#996600"/>
   <path d="m235.37 409.72c0.15 0.78 2.02 1.8 1.75 3.12 0.49 3.52-1.53 7.21-1.25 11.5-0.51 2.21 1.89 5.83 0.38 7.38-2.63 1.99-9.17 1.89-10.63-0.63 1.02-3.85 2.1-7.49 1.5-11.5-0.05-3.79-0.76-7.45-0.62-11.25 2.17-0.8 7.51-0.22 8.87 1.38z" stroke="#000000000" fill="#003333"/>
   <path d="m246.5 409.59c0.14 0.78 1.89 2.93 1.62 4.25-0.94 2.8-2.07 5.29-1.37 8.13-0.02 2.79 3 7.82 1 9.87-2.85 1.13-7.83 1.47-10.25-1 1.24-3.85 1.34-7.36 0.75-11.37-0.03-3.8-0.77-7.43-0.63-11.25 2.17-0.8 7.51-0.22 8.88 1.37z" stroke="#000000000" fill="#003333"/>
   <path d="m222.34 414.37c2.8-3.46 0.87-8.64 0.51-12.61 1.23-4.95-1.96-10.25-0.9-15.2 0.46-3.11 1.49-5.9 3.05-8.61 1.79-2.41 4.17-3.79 7.2-3.94 3.88 0.57 7.81 0.04 11.67 0.88 2.84 1.24 4.81 3.29 5.12 6.37 0.14 2.77 0.58 4.89 1.86 7.4 0.39 4.45 4.62 8.85 3.99 13.31-0.68 7.52-1.92 9.09-2.61 13-4.49-2.56-10.29 1.31-15.38 0.74-4.27-1.53-11.86 1.9-14.51-1.34z" stroke="#333333300" fill="#996600"/>
   <path d="m225 404.22c-0.55 3.26-2 6.03-0.5 9 1.1 1.13 2.69-0.51 3.5 1.12-0.33 1.42-1.69 1.78-3 2.13 0.94 1.86 2.74 3.42 0.87 5.5-1.21-0.62-2.04-2.02-2.37-3.25-0.14 1.44 1.07 4.29-1.63 3.12-1.31-0.98-0.67-2.41-0.75-3.87-1.04 1.62-1.36 4.06-2.75 1.25-0.14-1.26 0.47-2.13 1.13-3.13 0.17-1.26-0.28-2.59-0.5-3.87-1.59-2.69-2.67-5.44-3.13-8.5 1.82-2.39 0.6-5.98 2.13-8.38 0.43-1.07 0.83-1.98 1.5-2.87 2.81-0.81 5.1 0.01 6.37 2.62 1.78 3.54 1.6 6.84-0.87 9.13z" stroke="#333333300" fill="#ffcc99"/>
   <path d="m231.66 383.45c-0.12 2.54 0.11 5.25-0.71 7.62-0.67 2.44-1.73 4.55-1.76 7.05-4.2-0.44-8.71-2.21-12.91-3.53 0.45-2.07 1.02-4.11 1.42-6.19 0.67-2.74 1.85-4.97 3.06-7.34 1.48-2.07 4.49-2.42 7.02-1.68" stroke="#333333300" fill="#996600"/>
   <path d="m244.55 376.99c4.47 12.2-10.04 3.45-13.4-1.29 1.22-2.48 2.08-5.45 4.75-6.75 2.27-0.26 4.47 0.37 6.62 1 1.74 1.35 2.42 5.3 2.03 7.04z" stroke="#333333300" fill="#ffcc99"/>
   <path d="m240.8 335.14c10.45-0.07 14.58 6.83 14.72 15.8 0 1.87-0.87 5.57-1.33 7.43 0.21 3.66 3.42 6.78 2.34 10.35-1.26 5.06-6.95 7.4-11.84 8.49-4.35-0.09-9.18-2.19-12.44-5.22-4.66-3.82-5.44-10.02-7.15-15.66-0.61-5.39 0.38-10.16 1.91-15.18 2.13-5.5 8.57-6.78 13.79-6.01z" stroke="#333333300" fill="#ffcc99"/>
   <path d="m248.6 336.88c-4.38-3.94-18.02-4.69-22.03 0.01-9.86 3.14-2.89 21.4-0.59 27.59 1.37-0.01 2.93-0.18 2.71-0.87-2.8-8.77-3.38-9.75 0.44-11.5 1.93-0.49 2.58 0.99 4.24 1.41 3.07-2.08-12.53-10.86 1.06-16.44 8.86-1.44 6.03-2.08 14.17-0.2z" stroke="#cccccc" fill="#fffffffff"/>
  </g>
  <path d="m246.35 351.44c1.36 3 0.31 4.76-2.62 4.32-0.9 0.4-2.14-1.79-1.71-3.25 0.8-2.49 2.49-3.91 4.33-1.07z" fill-rule="evenodd" stroke="#333333" stroke-width="1px" fill="#ffffff"/>
  <path d="m252.72 349.94c2.36 0.53 3.09 1.83 2.63 4.5-2.72 5.02-7.51-1.7-2.63-4.5z" fill-rule="evenodd" stroke="#333333" stroke-width="1px" fill="#ffffff"/>
  <g fill-rule="evenodd" stroke="#333333300" stroke-width="1px" fill="#ffcc99">
   <path d="m250.72 356.81c5.93 5.89 3.82 3.29 3.13 7.13-4.79 2.73-5.9 1.9-5.25-2"/>
   <path d="m231.35 353.69c-5.86-2.33-4.83 6.35-0.5 5.5"/>
   <path d="m230.22 355.06c-0.85-1.49-3.09 1.18 0 2.63"/>
  </g>
  <g stroke-width="1px">
   <path d="m253.69 367.53c-0.21 3.32-7.17 7.78-10.66 1.16" stroke="#333333300" fill="none"/>
   <path d="m245.11 352.66c-0.39-0.36 1.25-0.65 1.12 1.37-0.1 1.57-1.74 1.07-2.37 0.63-1.27-0.89 0.64-2.31 1.25-2z" fill-rule="evenodd" stroke="#000000"/>
   <path d="m253.22 352.7c-0.45-0.95 1.81-0.94 1.13 1.25-0.47 1.51-2.16 0.62-2.25 0.5-0.93-1.21 0.05-3.1 1.12-1.75z" fill-rule="evenodd" stroke="#000000"/>
   <path d="m243.87 440c-3.12 0.67-6.52 1.02-8.94 0.06-2.92-0.39-5.52-0.99-8.2-3.86" stroke="#000000000" fill="none"/>
  </g>
 </g>
</svg>
