<?xml version="1.0" encoding="UTF-8" standalone="no"?>
<svg xmlns:rdf="http://www.w3.org/1999/02/22-rdf-syntax-ns#" xmlns="http://www.w3.org/2000/svg" height="128" width="128" version="1.0" xmlns:cc="http://creativecommons.org/ns#" xmlns:dc="http://purl.org/dc/elements/1.1/">
 <defs>
  <filter id="filter3457" height="2.038" width="1.2477" y="-0.519" x="-.12387">
   <feGaussianBlur stdDeviation="3.5216725"/>
  </filter>
 </defs>
 <g transform="translate(-225.49 -43.27)">
  <path d="m282.37 162c-6.71-1.84-22.41 1.72-27-4.5 2-10 26.46-8.55 34-8 9.53-1.55 17.96-1.01 27.5-1.5 3.06 0 4.66 3.58 6.5 4.5 2.05 1.61-9.87 10.54-13.5 11-6.39 1.99-20.59-0.28-27.5-1.5z" fill-opacity=".69959" fill-rule="evenodd" filter="url(#filter3457)"/>
  <g fill-rule="evenodd" stroke-width="1px">
   <path d="m268.75 122.25c-1.72 0-2.33 2.83-4 3.25-2.62 0.26-6.3 0.64-4.5 4 1.13 1.13 3.1-1.67 2.5 0.75-1.84 1.85-4.43 2.72-1.5 5 1.11 0.55 1.8-0.65 2.5-1-2.2 1.62-2.66 2.82 1 3.25 1.63 1.46 2.09 1.91 4.75 0.75 1.66-1.59 2.23-4.02 2.5-6.25-0.29-2.44 1.24-4.33 1.75-6.5-0.39-2.12-3.14-2.53-5-3.25z" stroke="#333333300" fill="#ffcccc"/>
   <path d="m277.75 106c-1.44 2.74-3.38 4.63-5.75 6.5-1.67 3.52-3.08 6.93-5 10.25 2.92 0.62 3.44 4.62 7.38 5.25 1.5-2.25 2.58-4.75 4.12-7 1.95-2.07 3.4-4.29 4.75-6.75" stroke="#000000000" fill="#330000"/>
   <path d="m279.75 153.2c-1.11 0-2.88-0.44-4.02-1.01-2.11-1.99-3.41-0.53-5.76 0.34-1.41 0.35-1.34 1.9-1.34 3.12 4.92 4.52 14.9 2.51 21.13 0.44 0.11-2.12 0.08-4.33-0.23-6.45-3.62-0.29-6.39 2.63-9.78 3.56z" stroke="#003366" fill="#6666cc"/>
  </g>
  <path d="m268.41 156.31c-1.11 0.45-0.16 1.65-0.45 2.81 2.76 1.11 6.47 0.42 9.64 0.42 3.77-0.6 7.63-1.11 11.49-0.9 1.01 0 0.67-2.11 0.67-2.89-3.93-0.88-7.67 1.14-11.57 1.45-3.42 0.5-6.5 0.12-9.78-0.89z" fill-rule="evenodd" stroke="#666666" stroke-width="1px" fill="#fffffffff"/>
  <g fill-rule="evenodd" stroke-width="1px">
   <path d="m282.41 129.85c-0.91 0.46 0.85 5.08 1.57 6.29 0.96 3.47-0.27 6.86-2.2 9.75 0.05 2.62-1.21 5.08-1.56 7.54 5.01-0.6 9.3-4.21 15.71-4.39 1.73 0 0.87-2.88 0.63-4.09-1.27-5.2-0.93-10.45-1.26-15.73 0-1.89-2.29-1.24-3.77-0.94-3.17 0.6-6.4-0.43-9.12 1.57z" stroke="#003300" fill="#333333333"/>
   <path d="m290.27 137.08c1.49 4.71-1.06 5.77-1.07 10.52 0 1.98-1.08 4.95-1.44 6.78 4.21-2.26 14.38-0.65 19.98-0.64-0.84-4.06-3.06-5.41-3.63-7.85-1.81-3.18-1.46-6.26-1.26-9.75v-4.72c-0.41-4.58-9.46-2.68-12.89-1.88 0.18 2.23-0.1 5.07 0.31 7.54z" stroke="#003300" fill="#333333333"/>
   <path d="m303.25 99.5c0.47 2.53 1.61 4.8 3.25 6.75 2.55 2.74 0.8 5.99 1 9.5 2.01 6.17-1.17 12.29-0.25 18.5-3.3 0.28-6.77-0.18-10.87-0.13-8.35-0.43-8.12-2.79-16.38-0.24-2.11-6.9-1.29-6.72-1.12-10.63 0.33-3.36 0.4-7.92-0.13-11.25-0.69-3.35-2.28-6.64 0.25-9.25 1.2-1.87 2.63-2.773 4.75-3.25 3.78-1.001 7.79-1.088 11.5-2.25 3.19-1.048 5.43 0.84 8 2.25z" stroke="#000000000" fill="#330000"/>
  </g>
  <path d="m285.5 94.75c2.87 0.082 5.69 0.069 8.5-0.5 2.31-0.319 4.02 0.041 6.25-1 1.63-0.409 2.03 0.565 2.5 1.5 0.6 1.206-0.13 2.986-0.13 4.375-4.31 2.965-9.81 0.858-14.62 1.375-2.52 0.54-5.55 2.57-5.75-1-0.19-3.346-0.24-4.354 3.25-4.75z" fill-rule="evenodd" stroke="#000000000" stroke-width="1px" fill="#330000"/>
  <path d="m285.64 62.198c-3.54 2.438-7.51 4.978-9.25 9.065-1.82 4.636-0.48 9.781 1.13 14.352 0.98 3.898 0.72 8.077 0.76 12.086 0 1.366 0.19 1.564 1.13 2.266 3.61 1.873 8.33-1.085 11.33-3.21 3.81-3.039 8.51-3.22 12.66-5.854 3.58-2.751 3.79-7.233 4.53-11.331 1.26-4.91-0.38-8.98-3.59-12.653-4.84-4.007-12.47-7.436-18.7-4.721z" fill-rule="evenodd" stroke="#333333300" stroke-width="1px" fill="#ffcccc"/>
  <g fill-rule="evenodd" stroke="#000000" stroke-width="1px">
   <path d="m294.52 56.155c-6.36-2.882-9.53-6.332-16.48-5.167-6.91 2.084-14.61 13.182-13.91 19.977 1.23-8.734 6.49-13.608 14.55-13.404-6.06 2.713-6.94 6.133-8.98 9.354 3.27-3.415 6.35-4.227 10.13-4.339 1.65 0 0.22 3.274-0.47 4.588 2.33-3.245 7.59-2.854 8.33 1.286 2.78-4.299 8.36-4.15 12.87-3.986 2.03-1.591 2.69-2.563 2.69-5.119 0.36-5.016-4.69-3.731-8.73-3.19z"/>
   <path d="m280.35 95.624c4.96-0.443 3.18 4.157 2.65 7.556-1.04 3.86 0.3 7.25 0.75 10.95 0.07-1.75-2.27-2.29-2.64-3.78-1-4-1.73-3.51-2.4-5.01-0.65 2.41-0.81 3.39-1.88 5.89-4.42-7.09 1.53-6.96 2.01-10.32 0-2.474-0.19-3.156 1.51-5.286z"/>
   <path d="m302.34 62.448c4.62-8.521 12.89-3.713 17.5-2.917-2.32 1.138-7.65-0.799-9.05 1.952 3.44 0.216 7.9 0.722 9.41 5.24-2.19-3.165-8.59-3.597-13.07-2.01 0.88 3.324 4.18 3.226 6.73 5.61-4.24-0.954-6.31 2.351-5.74 0.94 0.27-0.675 3.91 4.088 3.17 6.629-3.42-2.287-4.29-3.995-8.08-3.985-1.21 2.211-2.93 0.931-6.05 8.309 0.97-8.111-0.76-14.6 5.18-19.768z"/>
  </g>
  <g stroke-width="1px" fill-rule="evenodd">
   <path d="m304.34 75.417c1.81-1.917 3.59-2.029 5.67-0.566 1.42 1.415 2.2 2.987 2.64 4.91 0.36 2.929-1.8 3.327-4.16 3.966-2.06 0.406-3.77 0.036-4.34-2.455" stroke="#333333300" fill="#ffcccc"/>
   <path d="m277.37 73.858c-0.49 1.056-0.85 1.616-0.85 3.762-0.12 3.002 2.47 5.121 4.59 2.518 0.61-1.796 0.38-2.898 0.38-4.781-0.42-2.106-2.32-2.156-4.12-1.499z" stroke="#333333" fill="#ffffff"/>
   <path d="m288.34 73.34c-2.01 0.186-3.36 2.044-3.82 3.966-0.29 1.784 0.14 3.097 1.8 4.154 4.7-0.416 4.6-3.407 4.27-5.287-0.05-1.68-0.33-2.597-2.25-2.833z" stroke="#333333" fill="#ffffff"/>
   <path d="m285.27 80.138c0.71 1.461 2.76 1.345 3.58-0.566-1.77-2.542-2.9-2.016-3.58 0.566z" stroke="#000000"/>
   <path d="m280.85 79.008c-0.11-1.352-3.66-0.656-3.89 0.186-0.11 1.813 3.79 3.246 3.89-0.186z" stroke="#000000"/>
  </g>
  <path d="m282.62 81.527c-0.21 1.219-1.4 2.478-2.83 2.011-1.47-0.48-1.54 1.126-1.26 2.26 0.47 1.618 3.48 0.194 3.9 0.195" stroke="#333333300" stroke-width="1px" fill="none"/>
  <path d="m279.79 91.469c1.2-0.717 4.52-0.607 6.8 1.133" stroke="#333333300" stroke-width="1px" fill="none"/>
  <g fill-rule="evenodd" stroke-width="1px">
   <path d="m287.98 158.32c3.71-1.75 7.65 0.06 11.56-0.45 2.31-0.32 4.59-0.66 6.92-0.67 2.01-2.71-0.8-5.1-3.14-6-4.04-0.88-7.46-1.7-11.34 0.22-2.3 1.74-4.64 3.86-4 6.9z" stroke="#003366" fill="#6666cc"/>
   <path d="m287.88 157.47c-0.47 0.46 0.07 2.11 0.32 2.61 3.35 0.1 6.74 0.61 10.01-0.21 2.74-0.02 5.86-0.24 8.61-0.37 0.19-0.43 0.29-1.57-0.11-2.62-2.99 0.26-6.43 0.2-9.39-0.34-2.98 0.11-6.63-0.19-9.44 0.93z" stroke="#666666" fill="#fffffffff"/>
   <path d="m304 124c0.33 0.66 0.5 2.54 0.5 4 0.16 2.83-2.84 2.76-4 4.75-0.12 3.15 3 1.9 4.5 0.5 1.18-1.18 1.64-0.61 2.5 0.25 0.76 0.76 0.52 2.55 1 3.5 2.52 2.52 2.3-3.3 4.25-1.5 0.59 0.59 1.89-2.51 2-2.62 1.21-1.22 2-0.41 2-2.13-1.43-2.34-2.54-4.67-4.37-6.75-1.61-4.83-6.78-6.38-8.38 0z" stroke="#333333300" fill="#ffcccc"/>
   <path d="m294.5 104.25c1.19 2.13 2.48 4.07 4.25 5.75 0.5 2.37 0.03 4.52 1.25 6.75-0.17 3.57 1.8 6.39 2.75 9.75 3.44-3.4 7.79 0.49 10.63-3.88-1.14-1.99-2.54-4.32-3.88-6.37-1.72-1.89-2.46-4.07-3-6.5-1.48-2.41-2.95-4.83-4.5-7.25" stroke="#000000000" fill="#330000"/>
   <path d="m262.75 130.25c2.48 0.57 1.72 0.99 1 4 2.7-1.76 3.94-0.78 2.63 2.87-1.31 0.74 4.01-2.84 3.74 0.5" stroke="#333333300" fill="#ffcccc"/>
   <path d="m307.59 76.055c3.94-0.88 3.07 5.954-1.06 4.596" stroke="#333333300" fill="#ffcccc"/>
  </g>
  <g stroke="#000000" stroke-width="1px" fill="none">
   <path d="m310.95 77.646c2.33-3.609 5.14 1.752 1.8 2.143"/>
   <path d="m310.77 80.651c4.79-0.082 3.96 5.571 0.18 2.652"/>
   <path d="m308.3 81.889c3.31 3.146 0.08 6.478-0.89 2.121"/>
  </g>
 </g>
</svg>
