<?xml version="1.0" encoding="UTF-8" standalone="no"?>
<svg xmlns:rdf="http://www.w3.org/1999/02/22-rdf-syntax-ns#" xmlns="http://www.w3.org/2000/svg" xmlns:cc="http://creativecommons.org/ns#" xmlns:dc="http://purl.org/dc/elements/1.1/" height="128" width="128" version="1.0">
 <defs>
  <filter id="filter3443" height="1.6533" width="1.2503" y="-.32663" x="-.12514">
   <feGaussianBlur stdDeviation="1.9634296"/>
  </filter>
 </defs>
 <path d="m113.66-51.665c-5.46 0.423-6.82-3.26-11.49 0.89-1.42 1.413-1.73 4.217-1.34 5.782 2.88 3.851 6 2.879 10.61 4.447 2.28 0.569 4.26 0.89 7.12 0.89 2.89 0 4.68 1.438 7.56 0 2.23-1.116 4.29-0.772 6.22-2.224 1.51-1.134 2.23-3.124 2.67-4.892 0.78-3.136-1.88-3.607-3.56-4.448-2.16-1.08-5.9-0.414-7.56 0-1.77 0.443-3.31-2.224-5.78-2.224-2 0-1.06 1.779-4.45 1.779z" fill-rule="evenodd" fill-opacity=".72840" transform="matrix(-1.1231 0 0 1.0735 198.27 166.27)" filter="url(#filter3443)" fill="#000000"/>
 <g stroke="#333333" stroke-width="1px">
  <path d="m56.624 108.66c2.867 0.13 6.6-0.89 9.766-0.07 0.774 0.62 1.208 1.57 1.74 2.4 0.429 1.23 0.097 2.29-0.412 3.43-1.885 2.01-4.801 2.54-7.367 3.24-2.104 0.92-6.271 2.62-8.469 1.73-3.226-1.02-4.051-4.17-3.46-7.18 2.78-1.09 5.512-2.26 8.202-3.55z" fill-rule="evenodd" fill="#fffffffff"/>
  <path d="m67.752 112.17c-2.593 1.87-6.809 4.06-9.416 4.16-2.824 0.82-5.697 2.32-9.308 0.77" fill="none"/>
  <path d="m68.124 108.91c2.867 0.13 6.6-0.89 9.766-0.07 0.774 0.62 1.208 1.57 1.74 2.4 0.429 1.23 0.097 2.29-0.412 3.43-1.885 2.01-4.801 2.54-7.367 3.24-2.104 0.92-6.271 2.62-8.469 1.73-3.226-1.02-4.051-4.17-3.46-7.18 2.78-1.09 5.512-2.26 8.202-3.55z" fill-rule="evenodd" fill="#fffffffff"/>
 </g>
 <g fill-rule="evenodd" stroke-width="1px">
  <path d="m49.472 77.699c3.291-0.334 6.912-1.394 9.374-3.624 0.798-1.359-1.204-2.455 0.153-3.674 1.447-0.062 2.159 1.157 2.846 2.327 1.54-1.4 2.567-3.553 5.069-2.307-0.276 1.332-1.401 2.507-2.501 3.154 1.422-0.25 3.85-2.178 3.445 0.735-0.598 1.525-2.153 1.292-3.536 1.754 1.841 0.579 4.273 0.236 1.937 2.318-1.176 0.469-2.18 0.117-3.311-0.253-1.268 0.173-2.429 0.964-3.603 1.513-2.173 2.253-4.944 3.487-7.769 4.739-2.783-1.114-7.768 2.056-10.481 1.216-1.147-0.127-1.445-10.077-2.476-10.482-1.525-2.499 2.369-2.325 4.548-4.244 2.927-2.359 3.422 6.945 6.305 6.828z" stroke="#333300" fill="#ffcc99"/>
  <path d="m46.345 59.186c-2.699 2.796-4.496 5.972-5.657 9.624-1.449 2.576-2.933 4.869-3.255 7.865 3.967 0.749 7.984-0.038 11.917 0.503 1.801-4.781 1.493-10.027 1.591-15.063" stroke="#000000" fill="#333333"/>
  <path d="m68.609 90.741c0.145 0.779 0.89 2.802 0.625 4.125-0.203 1.016-0.508 2.031-0.75 3-0.519 2.544 0.446 4.984 0.625 7.504-0.515 2.2 0.137 5.69-1.375 7.25-2.63 1.98-6.665 1.89-8.125-0.63 0.25-1 0.06-1.6 0.5-2.62 1.286-2.74 0.677-5.87 0.25-8.75-0.058-3.795-0.767-7.46-0.625-11.254 2.168-0.801 7.507-0.221 8.875 1.375z" stroke="#000033" fill="#003366"/>
  <path d="m57.484 90.616c0.145 0.779 0.89 2.802 0.625 4.125-0.943 2.795-1.074 5.409-0.375 8.249-0.016 2.79 0.872 7.45-1.125 9.5-2.845 1.13-5.706 1.85-8.125-0.62 1.246-3.86 1.344-7.37 0.75-11.38-0.029-3.8-0.768-7.429-0.625-11.249 2.168-0.801 7.507-0.221 8.875 1.375z" stroke="#000033" fill="#003366"/>
  <path d="m44.703 93.892c2.805-3.461-0.377-8.145-0.735-12.109-2.143-3.271-0.891-10.658 0.341-15.703 0.466-3.105 1.496-5.902 3.057-8.61 1.784-2.413 4.167-3.786 7.196-3.941 3.886 0.569 7.808 0.045 11.667 0.884 2.847 1.239 4.81 3.291 5.127 6.364 0.137 2.774-0.049 5.274 1.237 7.778 0.387 4.452-0.136 9.221-0.762 13.685-0.895 5.194 3.334 7.075 2.758 12.255-4.481-2.566-10.29 1.302-15.379 0.732-4.268-1.526-11.859 1.902-14.507-1.335z" stroke="#000000" fill="#333333"/>
  <path d="m78.701 74.495c2.871-1.643 5.749-4.082 7.093-7.12 0.177-1.566-2.097-1.754-1.353-3.419 1.298-0.645 2.443 0.18 3.547 0.97 0.838-1.905 0.901-4.289 3.694-4.168 0.288 1.33-0.261 2.861-1.004 3.899 1.197-0.806 2.633-3.555 3.446-0.728 0.073 1.637-1.442 2.055-2.518 3.039 1.918-0.218 4.001-1.52 2.712 1.331-0.884 0.907-1.945 0.993-3.129 1.115-1.089 0.672-1.827 1.867-2.677 2.846-1.07 2.941-3.102 5.194-5.174 7.485-2.996 0.113-4.411 3.664-7.231 3.999-1.099 0.35-7.317-6.133-8.424-6.084-2.408-1.664 1.271-4.204 2.482-6.843 1.717-3.344 5.948 4.956 8.536 3.678z" stroke="#333300" fill="#ffcc99"/>
  <path d="m70.075 59.419c1.744 1.852 2.981 3.927 4.127 6.167 1.296 2.165 2.953 4.024 4.744 5.779-3.234 2.724-7.625 4.747-11.488 6.861-1.188-1.752-2.26-3.571-3.484-5.305-1.517-2.382-1.158-5.07-2.03-7.585-0.468-2.496 0.219-4.621 2.504-5.928" stroke="#000000" fill="#333333"/>
  <path d="m51.86 56.508c1.739 4.585 10.352 3.074 13.405-1.289-1.218-2.477-2.08-5.453-4.75-6.75-2.266-0.259-4.466 0.372-6.625 1-1.738 1.356-2.419 5.298-2.03 7.039z" stroke="#333300" fill="#ffcc99"/>
  <path d="m54.283 10.941c-4.452 0.061-9.019 1.75-10.75 6.219-1.531 5.026-4.172 10.173-3.563 15.562 1.715 5.642 3.121 12.093 7.782 15.907 3.254 3.035 9.094 4.508 13.437 4.593 4.893-1.09 8.306-3.787 9.563-8.843 0.906-2.997 0.403-5.417 0.093-8.282 1.139 0.727 2.426 1.036 4 0.719 2.774-1.3 1.942-3.097-0.156-4.875-0.964-0.134-2.18-0.06-3.375-0.25 0.368-1.701 0.719-3.546 0.719-4.719-0.14-8.968-4.268-15.873-14.719-15.812-0.977-0.145-2.004-0.233-3.031-0.219z" stroke="#333300" fill="#ffcc99"/>
 </g>
 <g stroke-width="1px" fill-rule="evenodd">
  <path d="m70.066 24.21c-2.354 0.529-3.459 2.327-3 5 2.717 5.018 7.885-2.201 3-5z" stroke="#333333" fill="#ffffff"/>
  <path d="m61.519 32.083c-4.886-1.929-3.336 6.655 0.058 5.514" stroke="#333300" fill="#ffcc99"/>
  <path d="m60.733 33.529c-0.805-1.431-2.376 1.382 0.219 2.615" stroke="#333300" fill="#ffcc99"/>
  <path d="m70.932 25.546c0.457-0.949-2.177-0.187-1.5 2 0.467 1.51 2.124 0.581 2.25 0.5 1.68-1.085 0.321-3.852-0.75-2.5z" stroke="#000000"/>
 </g>
 <g fill-rule="evenodd" stroke="#000000" fill="#330000">
  <path d="m70.408 17.254c-2.681 0.747-5.684-1.716-6.5 1.25-1.121 2.333-2.546 3.512-1 6 0.97 1.621 0.391 6.243 1.25 9.25-0.374 0.373-5.156-3.25-5.75-3.25-1.2 3.356-0.397 6.868 0 10.5-0.186 5.958-4.313 7.676-7.75 10.75-3.283-0.985-7-2.489-7.5-5.5-8.185-10.308-10.339-28.105 1.5-34.25 3.41-4.1864 13.277-5.3292 21.5-1.75 2.248 1.897 8.037 5.801 4.25 7z" stroke-width="1px"/>
  <path d="m57.658 53.004c3.497 3.501 7.253 1.785 10.75 0.5 2.262-1.161 3.927-5.606 5-7.75-3.352-2.312-1.183-4.048-1-6.25-1.951-1.58-5.103 0.831-6.25 2.5-0.685 5.727-5.713 6.111-10.5 7.5-1.87 1.709 0.367 2.553 2 3.5z" stroke-width="1px"/>
  <path d="m46.719 43.514c1.668-0.555-0.853 8.078-0.828 9.293 0.039 1.883-4.198 2.918-4.941 4.812-2.966 4.131-2.424 1.212-5.587 4.818-0.432-4.041 1-7.601 1.667-9.51 0.582-2.115 2.089-3.406 4.082-4.068 1.244-0.414 4.167-4.544 5.607-5.345z" stroke-width="1px"/>
 </g>
 <path d="m80.002 112.42c-2.593 1.87-6.809 4.06-9.416 4.16-2.824 0.82-5.697 2.32-9.308 0.77" stroke="#333333" stroke-width="1px" fill="none"/>
 <path fill="#ffffff" d="m45.554 70.307c-0.126-0.012-0.311 0.048-0.205-0.145-0.004-0.974-0.232-1.962-0.243-2.937-0.012-0.479-0.029-0.961 0.008-1.432 0.14-0.24 0.477-0.224 0.736-0.25 0.541-0.012 1.093 0.025 1.639 0.113 0.27 0.186 0.449 0.482 0.623 0.753 0.228 0.377 0.127 0.827-0.145 1.08-0.313 0.362-0.815 0.475-1.162 0.793-0.26 0.178-0.149 0.572 0.13 0.743 0.351 0.27 0.776 0.448 1.049 0.817 0.153 0.208 0.316 0.457 0.302 0.706-0.242 0.123-0.682 0.025-0.855-0.277-0.221-0.222-0.411-0.505-0.65-0.693-0.254-0.114-0.427-0.705-0.72-0.379-0.158 0.232-0.113 0.561-0.137 0.844 0.031 0.152-0.163 0.143-0.251 0.209-0.039 0.018-0.079 0.037-0.119 0.055zm0.368-2.262c0.55-0.236 1.135-0.46 1.538-0.906 0.189-0.182 0.168-0.537-0.084-0.717-0.383-0.332-0.887-0.319-1.331-0.36-0.411-0.11-0.222 0.435-0.216 0.678 0.064 0.435 0.061 0.87 0.093 1.305zm4.45 2.741c-0.002-0.673 0.043-1.35-0.111-2.031-0.084-0.479-0.165-0.957-0.245-1.435-0.211-0.238-0.566-0.236-0.844-0.32-0.34-0.064-0.803-0.194-0.903-0.597-0.034-0.307 0.484-0.072 0.685-0.118 1.086 0.104 2.18 0.167 3.264 0.44 0.248 0.057 0.714 0.218 0.57 0.546-0.192 0.207-0.539 0.122-0.812 0.099-0.319-0.04-0.639-0.091-0.958-0.118-0.239 0.297-0.065 0.743-0.006 1.112 0.116 0.776 0.135 1.556 0.074 2.314 0.016 0.306-0.186 0.567-0.514 0.351-0.101-0.039-0.206-0.128-0.2-0.243zm3.482-1.141c-0.198 0.173 0.025 0.564 0.07 0.818 0.09 0.317 0.267 0.687 0.113 0.976-0.222 0.213-0.727 0.012-0.726-0.351-0.147-1.022-0.178-2.042-0.234-3.06-0.001-0.325-0.051-0.668 0.023-0.976 0.333-0.273 0.825-0.245 1.258-0.252 0.418 0.025 0.861 0.009 1.264 0.213 0.154 0.2 0.513 0.52 0.413 0.749-0.646-0.138-1.313-0.359-1.955-0.286-0.341 0.045-0.249 0.506-0.257 0.772-0.034 0.326 0.129 0.759 0.521 0.79 0.438 0.09 0.887-0.138 1.314 0.114 0.367 0.274 0.016 0.638-0.304 0.6-0.49 0.044-1-0.025-1.5-0.107zm6.319 3.624c-0.12-0.397-0.09-0.806-0.114-1.205-0.037-1.296 0.039-2.579-0.021-3.878-0.065-0.07-0.242 0.27-0.349 0.352-0.285 0.32-0.651 0.579-1.005 0.8 0.159 0.179 0.616 0.425 0.503 0.654-0.224 0.294-0.607 0.117-0.779-0.203-0.475-0.544-0.945-1.095-1.435-1.627 0.068 1.147 0.149 2.296 0.159 3.438 0.011 0.313-0.457 0.436-0.658 0.175-0.161-0.296-0.097-0.626-0.131-0.935-0.024-1.041-0.044-2.083-0.019-3.118-0.001-0.322 0.364-0.369 0.623-0.274 0.323 0.146 0.61 0.423 0.737 0.759 0.136 0.203 0.285 0.699 0.554 0.587 0.365-0.321 0.741-0.631 1.098-0.959 0.174-0.216 0.464-0.36 0.491-0.674 0.151-0.199 0.688-0.174 0.696 0.181 0.075 0.675 0.067 1.344 0.133 2.018 0.054 1.036 0.027 2.067 0.137 3.107 0.069 0.28 0.137 0.625-0.156 0.757-0.115 0.079-0.333 0.236-0.464 0.045z"/>
</svg>
