<?xml version="1.0" encoding="UTF-8" standalone="no"?>
<svg xmlns:rdf="http://www.w3.org/1999/02/22-rdf-syntax-ns#" xmlns="http://www.w3.org/2000/svg" height="128" width="128" version="1.0" xmlns:cc="http://creativecommons.org/ns#" xmlns:dc="http://purl.org/dc/elements/1.1/">
 <g transform="translate(-190,-2)">
  <path d="m248.7 58.665c1.4755 5.7374-7.6855 8.3412-10.328 13.77l-6.885 2.4589-6.3932 2.213c-0.52602-2.213-2.974-2.213-6.6391-4.4261-1.1881 2.6229 0.78668 2.5831 1.9671 5.9014-2.5854 1.0315-5.8005-0.05441-8.8645 1.7213 0.98471 2.8249 2.992 0.94637 5.422 2.213-2.4408 1.1918-6.5017 2.6149-4.672 3.1966 2.8713 1.6444 6.5484-0.83734 7.6402-1.0134-1.0101 2.1579-4.66 4.1631-4.9353 5.1936 4.3604-1.1396 6.1927-0.29169 7.6227-3.4425 3.5889-0.12252 5.6353-0.7152 8.6063-5.1638l11.803-5.1638c5.1756-0.20245 9.4844-5.7074 8.1145-7.8686l-2.4589-9.5898z" fill="#333333333"/>
  <path d="m247.03 111.23-4.672-8.8522 3.1966-8.3604 2.9507-9.5898 1.2295-5.4097 20.901-1.7213 5.6556 8.3604-4.9179 11.557 0.49179 11.803-2.4589 9.098-4.4261-1.4754-1.7212-11.803-0.49179-7.1309 1.7212-4.672-1.4754-0.98357-3.1966-0.49179-5.6555 2.213-3.9343 7.6227-0.49179 13.032-2.7048-3.1966z" fill="#333333333"/>
  <g stroke="#333333" fill="#fffffffff">
   <path stroke-linejoin="round" d="m248.6 54.914c3.1996-1.3182 6.4376-2.7614 7.1915 3.8851l-8.205 17.663c-2.6709-4.5502-4.4738-7.3091-7.9287-7.7809l8.9422-13.767z"/>
   <path d="m254.41 52.72 18.07-1.3689c10.681 15.522 6.5708 27.926 2.7378 38.056-7.2304-2.0287-10.712 0.22707-12.859 4.008l-4.1045-0.02469c-3.3804-5.0866-6.7609-6.4452-10.141-6.4474-0.0596 0.1392-2.9978-28.689 6.2971-34.223z"/>
   <g stroke-linejoin="round">
    <path d="m246.47 77.087c9.411 6.5236 25.659 2.0675 32.58 0l-0.27378 6.2971c-12.124 3.7426-25.79 2.9081-32.307-0.54757l-0.00001-5.7495z"/>
    <path d="m264 92.693-1.6427 7.9398c3.4914-0.52681 6.9699-1.0147 9.0349 2.7378l2.1903-12.594c-2.6324-1.5554-5.5261-1.512-9.5825 1.9165z"/>
    <path d="m245.97 89.943-3.1129 8.5817c3.5281 0.14219 7.5837 0.0463 8.9027 4.1214l4.256-10.311c-2.2912-2.0247-5.4148-4.9927-10.046-2.3921z"/>
    <path d="m263.18 103.1s2.7378-3.5592 6.297-0.82135c2.1809 1.6776 3.0116 8.2136 3.0116 8.2136-2.8828 0.21466-5.2311-1.7085-8.7611 1.0951l-0.54756-8.4873z"/>
    <path d="m243.26 100.46s6.8446-1.3689 8.2135 3.2854c0.77639 2.6397 1.9165 5.7495 1.9165 5.7495-2.8828 0.21467-5.2311-1.7085-8.7611 1.0951l-1.3689-10.13z"/>
    <path d="m251.4 110.49c-1.79-0.68868-3.5263-1.5917-6.0233 0.54757-4.8432 2.5237-10.291 2.4367-14.511 7.666l0.54757 2.7378c9.8815 3.4623 15.778 0.61523 21.355-2.7379l-1.3689-8.2136z"/>
    <path d="m270.98 111.31c-1.79-0.68868-3.5263-1.5917-6.0233 0.54758-4.8432 2.5237-10.291 2.4367-14.511 7.666l0.54757 2.7378c9.8815 3.4623 15.778 0.61523 21.355-2.7379l-1.3689-8.2136z"/>
   </g>
  </g>
  <path d="m261.08 73.75c-1.0386-0.09847-29.289 10.497-29.289 10.497-0.99343 2.4217-1.7448 4.8013 2.3682 6.3374l29.989-12.351c0.47308-1.9739-0.18697-3.5844-3.068-4.4825z"/>
  <path d="m252.75 84.169 3.9991 10.085 4.6946-2.6081-4.1729-10.085 6.0856-2.2603-1.7387-2.2603-22.43 9.9107 0.86938 2.6081 12.693-5.3901z" stroke="#333333333" fill="#333333"/>
  <path stroke-linejoin="round" d="m237.03 72.599c6.181-2.5328 6.2863 1.1185 8.2158 4.7966l-16.223 7.6193c0.0252-4.056-0.3474-7.6534-3.1693-8.4284l11.177-3.9875z" stroke="#333333" fill="#fffffffff"/>
  <path d="m255.88 72.694-24.864 8.3459 2.782 6.0855s2.4342 0.52162 1.5648-0.69549c-0.86936-1.2171-2.0865-4.6946-2.0865-4.6946l22.777-7.8243-0.17387-1.2171z"/>
  <path stroke-linejoin="round" d="m251.01 73.215 4.8684 7.6504 4.3468-1.9126-3.9991-8.172-5.2162 2.4342z" stroke="#333333333" fill="#333333"/>
  <path d="m272.85 57.138c1.4755 5.7374 3.6256 10.8 4.4261 17.213l-8.3604 4.672-5.4096 3.1966c-0.52602-2.213-0.51503-4.4261-4.1802-6.6391-1.1881 2.6229 0.4091 5.2457 2.4589 7.8686-3.8025-1.0549-8.0012-3.4969-10.573-0.24589 0.86156 3.4406 3.8882 2.5511 6.6391 2.213-2.4408 1.1918-6.5017 2.6149-4.672 3.1966 2.8713 1.6444 4.2881 0.37977 5.9014-0.49179-2.2272 2.3318-2.9213 3.6415-3.1966 4.672 4.0127 0.07752 5.7009-2.7506 7.1309-5.9014 3.5889-0.12252 7.3566 1.0061 10.328-3.4425l10.819-9.3439c2.9626-3.3991 0.3864-5.2156-0.98357-7.3768l-10.34-9.59z" fill="#333333333"/>
  <g stroke-linejoin="round" stroke="#333333" fill="#fffffffff">
   <path d="m270.63 54.925c1.0732-3.2899 2.0763-6.69 7.6227-2.9507l8.1145 17.704c-5.1953-0.9205-8.4643-1.3389-11.065 0.98357l-4.672-15.737z"/>
   <path d="m276.04 72.875c5.358-3.9889 7.4805-0.92441 9.8357 0.49179l-14.508 13.524c-0.98317-3.9351-2.2378-7.3272-5.1638-7.3768l9.8357-6.6391z"/>
   <path d="m260.31 81.236 6.1473-0.49179c2.2464 0.86521 3.48 2.3381 2.4589 5.1638l-6.3932 3.4425c-4.2315-3.4812-3.8357-5.9342-2.213-8.1145z"/>
   <path d="m245.83 32.487c0.4549-2.3864 0.94469-15.518 2.9556-18.492 5.1849-6.4685 18.32-9.9166 27.491-1.7138 6.0429 9.147 6.0428 17.289 6.9881 25.588 0.66307 15.501-11.32 14.519-17.828 20.673-1.9219 0.10806-3.6935 2.0878-5.9023-1.3771-2.0682-3.974-1.2472-7.8899-13.405-2.7805-1.8188 1.5304-3.5444 1.5525-5.0777-1.5318-1.8086-7.4715 2.1986-13.775 4.7787-20.365z"/>
  </g>
  <path d="m276.01 21.493c1.233 5.5614-1.531 8.8981-2.9704 12.972-6.1459-4.146-10.628-7.8762-15.989-7.9612-3.3794 0.4786-3.8042-0.33886-8.3115 2.9349-1.8698-1.9089-1.7558-4.3144-0.90324-6.9048 9.9253 3.8193 20.534 0.88383 28.174-1.041z"/>
  <path d="m247.55 19.067c10.49 4.609 24.446 2.0628 32.189-1.0144l0.31246 1.7192c-11.413 2.9191-23.405 6.0089-33.416 0.93854l0.91466-1.6433z" fill="#990000"/>
  <g>
   <path d="m248.39 53.363c2.8817-3.1442 3.3555-8.3384 8.6633-9.4172 1.7833 3.4786 1.489 6.4451 1.9924 9.6082-2.1789-1.6253-6.8144-1.0239-10.656-0.19107z"/>
   <path d="m114.55 49.334a2.2097 1.9445 0 1 1 -4.4194 0 2.2097 1.9445 0 1 1 4.4194 0z" transform="matrix(.98042 -.078715 .11092 1.3815 127.76 -6.5056)"/>
   <path d="m114.55 49.334a2.2097 1.9445 0 1 1 -4.4194 0 2.2097 1.9445 0 1 1 4.4194 0z" transform="matrix(1.1765 -.094458 .11092 1.3815 124.25 -1.165)"/>
  </g>
  <path d="m248.6 40.787c3.7238-3.8502 3.6015-3.0174 8.9896-7.5246 4.2935 3.2021 5.4821 6.6534 8.1281 9.9878-4.6649-5.3784-9.9115-7.1031-17.118-2.4632z" fill="#999999"/>
  <path d="m233.8 85.386-6.9549 2.6081 1.391 2.9558 6.0855-2.4342-0.52161-3.1297z"/>
  <path d="m248.9 67.008 7.3551 1.8547 11.118 0.69329-9.2364-2.7072 0.47774-7.8031-2.0702 7.1661-7.6439 0.79624z" fill="#cccccc"/>
  <path d="m266.9 28.152c2.0803 0.64411 3.845 1.7301 7.9624-0.47774l-2.2295 4.6182-5.7329-4.1404z" fill="#ffffff"/>
 </g>
</svg>
