<?xml version="1.0" encoding="UTF-8" standalone="no"?>
<svg xmlns:rdf="http://www.w3.org/1999/02/22-rdf-syntax-ns#" xmlns="http://www.w3.org/2000/svg" height="128" width="128" version="1.0" xmlns:cc="http://creativecommons.org/ns#" xmlns:dc="http://purl.org/dc/elements/1.1/">
 <defs>
  <filter id="filter3443" height="1.6533" width="1.2503" y="-.32663" x="-.12514">
   <feGaussianBlur stdDeviation="1.9634296"/>
  </filter>
 </defs>
 <g transform="matrix(.95152 0 0 .95152 -5.1912 -26.352)">
  <path d="m55.242 112.04c-5.465 0.43-6.823-3.26-11.495 0.89-1.413 1.42-1.725 4.22-1.334 5.79 2.874 3.85 5.998 2.87 10.605 4.44 2.277 0.57 4.263 0.89 7.116 0.89 2.9 0 4.684 1.44 7.561 0 2.231-1.11 4.291-0.77 6.227-2.22 1.512-1.14 2.226-3.13 2.668-4.89 0.784-3.14-1.876-3.61-3.558-4.45-2.161-1.08-5.906-0.41-7.561 0-1.773 0.44-3.316-2.23-5.781-2.23-2 0-1.06 1.78-4.448 1.78z" fill-rule="evenodd" fill-opacity=".72840" transform="matrix(1.051 0 0 1.051 21.751 27.192)" filter="url(#filter3443)"/>
  <g stroke="#333333" stroke-width="1.1232px">
   <path d="m80.999 145.46c-3.394 0.67-6.187 1.31-9.068 3.4-0.642 0.77-0.613 1.51-0.567 2.46 0.253 0.82 0.545 1.62 0.755 2.46 2.942 0.27 6.191 2.03 9.262 1.04 3.227 0.04 6.487-1.09 9.159-3.03 0.617-1.82-0.046-4.3-0.189-6.33-2.976 0.94-6.358 0.79-9.352 0z" fill-rule="evenodd" fill="#fffffffff"/>
   <path d="m72.119 152.17c3.475-0.59 6.949 1.69 10.567 1.2 3.359-0.11 5.103-2.55 7.57-2.71" fill="none"/>
   <path d="m92.996 146.03c-2.705 1.44-6.775 2.18-9.447 4.44-0.456 0.96-0.437 2.07-0.566 3.12 0.154 1.38 0.967 2.25 1.983 3.11 2.743 1.07 5.802 0.24 8.596-0.28 2.453-0.09 5.345-0.65 7.048-2.52 2.64-2.47 2.2-4.81 1.93-8.25-3.184 0.24-6.356 0.38-9.544 0.38z" fill-rule="evenodd" fill="#fffffffff"/>
  </g>
  <g fill-rule="evenodd" stroke-width="1.1232px">
   <path d="m73.453 104.46c-0.814 1.27-0.876 2.56-0.802 4-0.312 2.99 1.191 5.81 0.267 8.69-0.83 1.75-1.33 2.9-2.805 4.14-1.62 0.07-2.799 0.89-3.206 2.27 0.947 0.96 2.3 0.63 3.607 0.53 0.388 1.46-1.733 3.35-1.871 5.08 1.9 2.27 3.49-1.49 3.607-3.21 0.226 1.66-0.697 4.35-0.534 5.48 2.176 0.43 2.929-3.22 2.939-5.07-0.043 2.03-1.057 4.07 1.336 4 1.642-1.21 1.251-3.46 1.469-5.34 0.646-2.97 1.846-5.77 2.138-8.82-0.323-4.47 1.821-10.02-0.134-14.16-2.875-1.44-3.876 1.23-6.011 2.41z" stroke="#333300" fill="#ffcc99"/>
   <path d="m80.591 87.298c-2.884 2.988-4.805 6.383-6.045 10.285-1.549 2.757-3.136 5.207-3.479 8.407 4.24 0.8 8.532-0.04 12.736 0.54 1.925-5.11 1.596-10.719 1.701-16.102" stroke="#663366" fill="#cc33cc"/>
   <path d="m92.823 122.36c-0.155 0.83-0.95 2.99-0.668 4.41 0.218 1.08 0.543 2.17 0.802 3.2 0.554 2.72-0.477 5.33-0.668 8.02 0.55 2.36-0.146 6.09 1.469 7.75 2.811 2.12 7.122 2.02 8.682-0.67-0.27-1.07-0.06-1.71-0.53-2.81-1.38-2.93-0.73-6.26-0.27-9.35 0.06-4.05 0.82-7.97 0.67-12.02-2.318-0.86-8.025-0.24-9.487 1.47z" stroke="#000000033" fill="#003366"/>
   <path d="m80.934 122.22c-0.155 0.84-0.951 3-0.668 4.41 1.008 2.99 1.148 5.78 0.401 8.82 0.017 2.98-0.933 7.96 1.202 10.15 3.041 1.21 6.098 1.97 8.683-0.67-1.331-4.11-1.436-7.87-0.801-12.15 0.031-4.06 0.821-7.94 0.668-12.03-2.317-0.85-8.023-0.23-9.485 1.47z" stroke="#000000033" fill="#003366"/>
   <path d="m107.56 125.73c-3-3.7-0.94-9.24-0.56-13.48-1.31-5.3 2.1-10.95 0.98-16.248-0.5-3.319-1.6-6.308-3.27-9.202-1.91-2.579-4.45-4.046-7.692-4.211-4.153 0.608-8.345 0.047-12.469 0.944-3.043 1.324-5.14 3.517-5.478 6.801-0.147 2.965 0.052 5.636-1.323 8.313-0.414 4.753-1.992 9.583-1.322 14.363 0.956 5.55-1.426 7.82-0.811 13.36 4.789-2.74 10.998 1.39 16.436 0.78 4.562-1.63 12.679 2.03 15.509-1.42z" stroke="#663366" fill="#cc33cc"/>
   <path d="m97.589 92.68c0.138 2.715 0.821 5.205 1.7 7.75 0.711 2.6 0.921 5.25 0.941 7.93 4.5-0.48 9.31-2.36 13.8-3.78-0.48-2.21-1.08-4.38-1.52-6.61-0.71-2.933-3.05-4.645-4.34-7.179-1.58-2.209-3.73-3.252-6.42-2.456" stroke="#663366" fill="#cc33cc"/>
   <path d="m83.813 85.773c1.859 4.899 11.064 3.284 14.327-1.378-1.302-2.648-2.224-5.828-5.076-7.214-2.423-0.277-4.774 0.397-7.081 1.069-1.857 1.448-2.585 5.662-2.17 7.523z" stroke="#333300" fill="#ffcc99"/>
   <path d="m86.761 37.303c-11.169-0.065-15.587 7.304-15.736 16.889 0 2.005 0.927 5.951 1.424 7.939-0.232 3.913-1.201 6.87-0.046 10.69 1.343 5.405 4.973 8.281 10.202 9.447 4.641-0.092 10.879-1.668 14.358-4.912 4.977-4.076 6.477-10.974 8.317-17.004 0.65-5.759-2.15-11.253-3.78-16.625-2.28-5.878-9.169-7.246-14.739-6.424z" stroke="#333300" fill="#ffcc99"/>
  </g>
  <g stroke-width="1.1232px" fill-rule="evenodd">
   <path d="m72.403 44.86c-0.689-10.54 28.057-14.02 29.557-5.686 8.08 0.62 5.85 20.929 3.85 28.048-8.335-0.085-1.74-9.359-6.58-11.782-2.063-0.516-2.753 1.066-4.534 1.512-3.772-2.425 0.043-9.884-6.046-12.469-2.973 1.201-6.741 3.055-9.824 0-2.635 0-4.179 1.275-6.423 0.377z" stroke="#000000000" fill="#330000"/>
   <path d="m80.827 54.728c-1.46 3.205-0.33 5.084 2.796 4.621 0.96 0.422 2.961-1.92 2.502-3.474 0.343-4.172-3.274-4.263-5.298-1.147z" stroke="#333333" fill="#ffffff"/>
   <path d="m74.415 52.591c-2.516 0.565-3.696 2.486-3.207 5.343 2.905 5.363 8.427-2.353 3.207-5.343z" stroke="#333333" fill="#ffffff"/>
  </g>
  <g fill-rule="evenodd" stroke="#333300" stroke-width="1.1232px" fill="#ffcc99">
   <path d="m78.155 56.598c-0.444 2.577-2.938 3.776-4.275 5.077-0.683 2.859-0.273 4.909 2.939 4.275 2.245-1.043 3.146-2.773 3.474-5.077"/>
   <path d="m96.858 57.133c6.262-2.49 5.162 6.791 0.534 5.878"/>
   <path d="m98.06 58.602c0.91-1.595 3.31 1.261 0 2.806"/>
  </g>
  <g stroke-width="1.1232px">
   <path d="m75.483 73.698c0.438 1.15 7.889 3.568 12.168 0.378" stroke="#333300" fill="none"/>
   <path d="m84.066 55.497c0.413-0.381-2.006-1.092-1.871 1.069 0.106 1.675 2.13 2.074 2.806 1.603 1.357-0.945-0.281-3.006-0.935-2.672z" fill-rule="evenodd" stroke="#000000"/>
   <path d="m74.069 56.221c0.489-1.014-2.327-0.201-1.603 2.137 0.5 1.614 2.271 0.621 2.405 0.534 1.796-1.16 0.343-4.117-0.802-2.671z" fill-rule="evenodd" stroke="#000000"/>
   <path d="m83.738 154.72c3.344 0.72 6.972 1.09 9.564 0.06 3.116-0.41 5.895-1.06 8.758-4.12" stroke="#333333" fill="none"/>
  </g>
  <g transform="translate(.35355 .70711)">
   <g fill-rule="evenodd" stroke="#333333" stroke-width="1.051px" fill="#666666">
    <path d="m69.965 113.15l5.907-2.99 7.327 1.8-3.963 3.73-9.271-2.54z"/>
    <path d="m81.554 111.73l5.009-3.44 5.458 1.42 1.644 5.16 3.141 0.67-0.374 16.14-3.813 1.64-11.065-21.59z"/>
    <path d="m70.047 113.32l8.655 2.18 3.116-3.75 6.03 1.59 1.039 5.47 3.851 1.32-0.435 13.2-22.204-5.49-0.052-14.52z"/>
    <path d="m62.166 124.35l19.911-5.89c2.605 0.41 8.847 6.97 5.607 12.4l-22.378 7.17c-7.42-0.39-10.205-11.23-3.14-13.68z"/>
   </g>
   <path d="m62.288 125.12c-5.129 0.68-5.293 10.01 2.542 11.96 5.077-0.55 4.525-12.06-2.542-11.96z" fill-rule="evenodd"/>
   <path d="m74.526 120.4c7.393 1.68 8.435 9.78 4.934 13.45l5.907-2.32c2.12-3.83-0.968-11.18-5.907-12.85l-4.934 1.72z" fill-rule="evenodd" stroke="#333333" stroke-width="1.051px" fill="#333333"/>
   <g stroke="#333333" stroke-width="1.051px" fill="none">
    <path d="m87.759 113.23l4.112-3.52"/>
    <path d="m89.254 118.75l4.486-3.88"/>
    <path d="m96.955 115.77l-4.336 4.18"/>
   </g>
   <g fill-rule="evenodd">
    <path d="m82.301 112.85l-2.018 2.77 7.252 2.31-0.374-3.58-4.86-1.5z" stroke="#999999" stroke-width="1.051px" fill="#cccccc"/>
    <path d="m62.486 125.8c-3.253 1.43-6.668 7.63 1.792 10.2 5.078-0.54-6.35-2.43-1.792-10.2z" fill="#fffffffff"/>
    <g stroke-width="1.051px">
     <path d="m92.415 116.73c4.182-12.45 6.466-19.86 8.015-34.284l1.64 1.051c-1.37 10.605-0.52 13.347-7.03 31.983l-2.625 1.25z" stroke="#000000" fill="#333333"/>
     <path d="m71.415 112.23c-1.833-12.31 2.413-16.84 8.685-27.527l2.104-1.399c-5.991 10.246-11.709 16.474-8.164 27.676l-2.625 1.25z" stroke="#000000" fill="#333333"/>
     <path d="m65.864 123.4c7.393 1.69 8.435 9.79 4.934 13.45l5.907-2.31c2.12-3.83-0.968-11.19-5.907-12.85l-4.934 1.71z" stroke="#333333" fill="#333333"/>
    </g>
   </g>
  </g>
  <path d="m103.86 113.37c-0.92 3.41-2.67 7.05-5.446 9.26-1.571 0.6-2.38-1.7-3.9-0.48-0.316 1.52 0.846 2.48 1.96 3.41-1.742 1.38-4.191 2.09-3.311 4.94 1.453-0.06 2.887-1.04 3.76-2.09-0.51 1.46-2.964 3.69 0.178 3.76 1.713-0.36 1.736-2.04 2.462-3.42 0.293 2.04-0.491 4.55 2.107 2.44 0.7-1.16 0.5-2.28 0.31-3.53 0.4-1.31 1.44-2.4 2.22-3.54 2.75-1.9 4.53-4.61 6.34-7.37-0.69-3.13 2.6-5.55 2.18-8.56 0.07-1.23-0.18-1.91-0.43-3.07l-8.68 2.84c-0.02 1.77 0.62 3.63 0.25 5.41z" fill-rule="evenodd" stroke="#333300" stroke-width="1.1232px" fill="#ffcc99"/>
 </g>
</svg>
