<?xml version="1.0" encoding="UTF-8" standalone="no"?>
<svg xmlns:rdf="http://www.w3.org/1999/02/22-rdf-syntax-ns#" xmlns="http://www.w3.org/2000/svg" xmlns:cc="http://creativecommons.org/ns#" xmlns:dc="http://purl.org/dc/elements/1.1/" height="128" width="128" version="1.0">
 <defs>
  <filter id="filter3443" height="1.6533" width="1.2503" y="-.32663" x="-.12514">
   <feGaussianBlur stdDeviation="1.9634296"/>
  </filter>
 </defs>
 <path d="m60.835 110.98c-1.872 0.61-6.114-0.64-8.895-1.33-2.357-0.59-4.728 1.17-5.782 2.22-1.414 1.42-1.726 4.22-1.335 5.78 0.832 3.33 5.383 3.11 7.561 2.67 2.008-0.4 4.245 1.29 6.227 1.78 2.276 0.57 4.263 0.89 7.116 0.89 2.9 0 4.684 1.44 7.561 0 2.231-1.11 4.29-0.77 6.226-2.22 1.513-1.14 2.227-3.13 2.669-4.89 0.784-3.14-1.877-3.61-3.558-4.45-2.161-1.08-5.907-0.42-7.561 0-1.773 0.44-3.316-2.23-5.782-2.23-1.999 0-1.059 1.78-4.447 1.78z" fill-opacity=".72840" fill-rule="evenodd" filter="url(#filter3443)" fill="#000000"/>
 <g stroke="#333333" stroke-width="1px">
  <path d="m59.602 109.09c-3.176 0.63-5.789 1.22-8.486 3.18-0.6 0.72-0.572 1.42-0.53 2.3 0.237 0.77 0.511 1.51 0.707 2.3 2.752 0.26 5.793 1.9 8.667 0.98 3.018 0.04 6.07-1.02 8.569-2.84 0.577-1.71-0.042-4.02-0.177-5.92-2.784 0.88-5.948 0.73-8.75 0z" fill-rule="evenodd" fill="#fffffffff"/>
  <path d="m51.293 115.37c3.252-0.56 6.502 1.57 9.887 1.12 3.144-0.1 4.775-2.39 7.084-2.54" fill="none"/>
  <path d="m70.827 109.62c-2.53 1.35-6.339 2.05-8.839 4.16-0.427 0.89-0.409 1.93-0.53 2.91 0.144 1.3 0.905 2.11 1.856 2.92 2.567 0.99 5.429 0.22 8.043-0.27 2.295-0.08 5.001-0.6 6.599-2.35 2.47-2.31 2.056-4.51 1.798-7.72-2.975 0.22-5.944 0.35-8.927 0.35z" fill-rule="evenodd" fill="#fffffffff"/>
 </g>
 <g fill-rule="evenodd" stroke-width="1px">
  <path d="m61.906 53.551c-3.065 2.389-5.291 5.282-6.953 8.734-1.796 2.347-3.588 4.409-4.328 7.33 3.823 1.299 7.91 1.084 11.729 2.172 2.454-4.48 2.886-9.717 3.691-14.69" stroke="#000000" fill="#333333"/>
  <path d="m70.666 87.471c-0.145 0.779-1.64 2.177-1.375 3.5 0.203 1.016-0.367 2.281-0.125 3.25-0.482 2.545-0.821 4.857-1 7.379 0.515 2.2 1.863 6.19 3.375 7.75 2.63 1.98 6.665 1.89 8.125-0.63-0.251-1-0.06-1.6-0.5-2.62-3.299-2.64-5.709-6.02-1.125-9.129 2.492-4.704 1.671-7.092 1.5-10.875-2.168-0.801-7.507-0.221-8.875 1.375z" stroke="#000033" fill="#003366"/>
  <path d="m59.541 87.346c-0.145 0.779-0.89 2.802-0.625 4.125 0.943 2.795-1.551 5.531-2.25 8.375 0.016 2.794 1.753 7.324 3.75 9.374 2.845 1.13 5.706 1.85 8.125-0.62-1.246-3.86-4.594-7.12-4-11.129 0.029-3.8 7.143-6.93 7-10.75-2.168-0.801-10.632-0.971-12 0.625z" stroke="#000033" fill="#003366"/>
  <path d="m81.835 92.695c-2.291-3.821 0.35-8.682 1.261-12.556-0.52-5.081 3.382-9.87 3.036-14.925-0.025-3.14-0.653-6.053-1.818-8.954-1.427-2.64-3.594-4.334-6.571-4.913-3.927 0.018-7.737-1.052-11.676-0.763-2.993 0.826-5.224 2.582-5.969 5.58-0.526 2.727-0.693 5.228-2.318 7.528-1.009 4.352-3.106 8.62-3.112 13.128 0.156 5.267-2.35 7.065-2.508 12.274 4.798-1.911 10.006 2.734 15.124 2.885 4.44-0.911 11.474 3.549 14.551 0.716z" stroke="#000000" fill="#333333"/>
  <path d="m59.986 11.97c-10.427 0.7-14.048 7.877-13.535 16.832 0.137 1.872 1.27 5.491 1.869 7.312 0.051 3.668-0.652 6.494 0.686 9.98 1.621 4.952 5.205 7.389 10.164 8.12 4.325-0.401 10.039-2.297 13.064-5.561 4.371-4.143 5.301-10.683 6.6-16.434 0.216-5.419-2.766-10.356-4.658-15.258-2.526-5.331-9.048-6.138-14.19-4.991z" stroke="#333300" fill="#ffcc99"/>
 </g>
 <g stroke-width="1px" fill-rule="evenodd">
  <path d="m47.102 20c-1.361-9.789 25.23-14.995 27.198-7.32 7.579 0.029 9.026 19.332 7.638 26.112-7.781 0.488-4.395-8.815-9.08-10.746-1.961-0.34-2.497 1.183-4.129 1.72-3.685-2.006-0.633-9.227-6.491-11.225-2.692 1.324-6.082 3.311-9.168 0.669-2.459 0.18-3.813 1.475-5.968 0.79z" stroke="#000000" fill="#330000"/>
  <path d="m80.716 37.479c-1.575 0.115 1.547 5.526 1.899 6.597 0.547 1.66 3.788 3.919 4.996 5.307 1.027 1.179 4.961-0.299 5.969-0.79 1.696-0.826 3.799-0.022 4.661 0.723 2.689 2.325 0.924-1.231 0.173-2.494-0.59-0.992-3.043-2.205-4.111-2.89-1.814-1.165-2.273-2.625-3.835-3.974-1.49-1.288-3.157-1.188-5.039-1.05-1.176 0.085-3.254-1.246-4.713-1.429z" stroke="#000000" fill="#330000"/>
  <path d="m63.235 54.489c1.739 4.584 10.352 3.073 13.406-1.289-1.218-2.478-2.081-5.453-4.75-6.75-2.267-0.259-4.467 0.371-6.625 1-1.739 1.355-2.42 5.298-2.031 7.039z" stroke="#333300" fill="#ffcc99"/>
  <path d="m48.291 52.514c0.75 1.261 2.138 1.975 3.801 1.854 2.675 0.564 5.295 1.554 7.968 2.269 3.487 0.63 5.853-1.299 8.239-3.452 4.102-2.515 8.245-6.589 8.775-11.576 0.099-2.08-0.713-2.016-1.868-1.555-1.819 2.148-4.126 4.447-6.729 5.692-3.325 1.212-5.982 1.856-7.226-1.979-1.362-3.152-5.066-3.816-8.12-4.358-6.393 0.189-7.177 8.605-4.84 13.105zm5.065-9.174c2.98-1.523 9.966 5.919 4.386 6.009-2.391-0.607-2.987-2.083-4.233-0.035-4.838 1.86-3.34-4.492-0.153-5.974z" stroke="#000000" fill="#330000"/>
  <path d="m55.635 28.635c-1.144 3.09 0.038 4.767 2.924 4.122 0.925 0.329 2.633-1.994 2.098-3.412 0.037-3.917-3.345-3.756-5.022-0.71z" stroke="#333333" fill="#ffffff"/>
  <path d="m49.506 27.077c-2.31 0.699-3.28 2.572-2.629 5.205 3.076 4.807 7.704-2.77 2.629-5.205z" stroke="#333333" fill="#ffffff"/>
 </g>
 <g fill-rule="evenodd" stroke="#333300" stroke-width="1px" fill="#ffcc99">
  <path d="m53.269 30.563c-0.239 2.434-2.484 3.723-3.644 5.028-0.442 2.714 0.08 4.6 3.034 3.789 2.024-1.126 2.747-2.801 2.896-4.974"/>
  <path d="m70.759 29.788c5.678-2.75 5.28 5.985 0.899 5.449"/>
  <path d="m71.981 31.077c0.74-1.551 3.17 0.952 0.191 2.618"/>
 </g>
 <g stroke-width="1px">
  <path d="m51.94 46.702c0.659-0.217 3.058-1.153 5.361-0.391" stroke="#333300" fill="none"/>
  <path d="m58.107 30.085c0.359-0.384-1.947-0.883-1.673 1.125 0.212 1.556 2.129 1.79 2.727 1.305 1.202-0.975-0.466-2.786-1.054-2.43z" fill-rule="evenodd" stroke="#000000"/>
  <path d="m49.252 30.788c0.387-0.98-2.185-0.029-1.35 2.104 0.576 1.472 2.161 0.424 2.28 0.335 1.597-1.205 0.041-3.866-0.93-2.439z" fill-rule="evenodd" stroke="#000000"/>
 </g>
 <g stroke="#333333" stroke-width="1px">
  <path d="m62.165 117.75c3.128 0.67 6.523 1.02 8.949 0.06 2.915-0.38 5.516-0.99 8.198-3.86" fill="none"/>
  <path d="m42.942 58.332c9.911 0.902 25.898 3.088 34.086 8.132 1.05 1.876 1.832 3.836 1.057 5.833-2.485 7.801-1.711 16.12-5.493 23.512-1.093 1.811-2.258 2.323-4.647 2.298-9.512-2.358-22.976-3.953-32.529-6.894-1.726-1.031-2.354-2.535-2.535-4.243 0.221-8.993 2.887-17.883 5.591-26.517 1.155-1.5 2.366-2.02 4.47-2.121z" fill-rule="evenodd" fill="#666666"/>
  <path d="m38.714 61.161c0.507-0.848 3.641-0.354 4.95-0.354 6.619 1.269 23.422 4.001 29.522 7.071 1.655 1.116 1.675 2.426 1.237 4.243-0.633 8.708-2.462 17.353-4.949 25.632" fill="none"/>
 </g>
 <g stroke-width="1px" fill-rule="evenodd">
  <path d="m91.125 67c3.177 3.487 4.001 7.063 3 11.75-0.216 0.862-0.546 1.468-0.875 2.125-0.144 0.288-1.154 0.632-1.625 0.75-0.728 0.182-1.319 0.25-2.125 0.25-2.633-1.733-4.827-4.708-5.25-7.875-1.237-4.736 2.923-12.772 6.875-7z" stroke="#333300" fill="#ffcc99"/>
  <path d="m76.841 61.652c0.714 2.442 1.877 4.56 3.228 6.682 1.211 2.214 1.974 4.585 2.581 7.017 3.986-1.409 7.955-4.17 11.733-6.431-0.908-1.912-1.934-3.757-2.81-5.691-1.286-2.514-3.785-3.566-5.512-5.591-1.916-1.668-4.096-2.152-6.38-0.842" stroke="#000000" fill="#333333"/>
  <path d="m39.605 65.58c-2.106 5.801-1.015 9.784-2.475 15.733-0.108 1.98 0.691 3.399 2.298 4.42 8.089 2.946 16.897 3.788 25.456 5.126 1.969-0.037 3.452-0.976 4.066-2.828 2.312-5.154 1.05-8.639 1.945-14.143 0.745-2.625 0.171-3.42-2.299-4.419-7.758-3.335-16.143-4.198-24.218-6.717-3.269-0.565-3.549 0.058-4.773 2.828z" stroke="#333333" fill="#ffcc66"/>
 </g>
 <g fill-rule="evenodd">
  <path d="m88.055 78.131c-3.617 1.026-3.203 4.164-4.964 6.45-2.175 2.493-4.594 3.595-7.837 4.315-1.57-0.134-0.806-3.291-2.584-2.888-0.888 1.145-0.806 3.321-0.249 4.558-2.031 0.448-4.891 1.468-5.321 4.23 1.247 0.544 3.365-1.121 4.529-1.645-1.026 1.016-3.85 3.027-1.239 4.38 1.591 0.393 2.146-2.155 3.323-3.016-0.591 1.838-4.569 3.985-1.52 3.282 1.063-0.689 3.648-2.073 4-3.21 0.873-0.935 2.19-1.425 3.316-2.065 3.095-0.472 5.229-2.756 7.883-4.338 2.173-1.783 4.933-2.869 5.816-5.568 0.559-1.009 0.753-3.603 1.018-4.679" stroke="#333300" stroke-width="1px" fill="#ffcc99"/>
  <path d="m32.75 71.625c0.154 0.49-1.301-1.199-1.75 0.75-0.439 0.782-0.876 1.781 0.375 2.125-2.78 2.549 0.792 4.102 3.125 4.75 1.597 0.104 2.275 0.011 2.875-1.375-0.618-1.126-1.927-1.528-3-2.5 1.014 0.626 3.772 2.792 4.125 0.937 1.065-1.527-1.535-2.824-2.875-3.312 0.953 0.083 1.961 1.416 3.125 0 0.321-1.469-0.532-2.093-1.625-2.875-1.896-0.828-4.961-1.44-4.375 1.5z" stroke="#333300" stroke-width="1px" fill="#ffcc99"/>
  <path d="m66.995 20.871c-0.97 2.828-2.702 5.782-2.298 8.603 1.243 2.524 3.845 1.962 5.362 0 0.951-3.135-0.936-5.568-3.064-8.603z" stroke="#333366" stroke-width="1px" fill="#cccccc"/>
 </g>
 <path d="m63.221 92.319c-0.343-0.226-1.783-0.315-2.599-0.519-0.983-0.246-1.041 1.219-1.212 1.905-0.314 1.256 0.392 1.212 1.386 1.212 0.99 0 1.598 0.357 2.251 0.52 0.383 0.096 0.801-1.753 0.866-2.078 0.082-0.409-0.461-0.693-0.692-1.04z" stroke="#333333" stroke-width="1px" fill="none"/>
 <path d="m55.253 91.28c-0.343-0.227-16.505-3.953-17.321-4.157-0.983-0.246-1.041 1.22-1.212 1.905-0.314 1.256 0.392 1.213 1.386 1.213 0.99 0 16.32 3.993 16.974 4.157 0.382 0.095 0.801-1.753 0.866-2.079 0.082-0.408-0.462-0.692-0.693-1.039z" stroke="#333333" stroke-width="1px" fill="none"/>
</svg>
