<?xml version="1.0" encoding="UTF-8" standalone="no"?>
<!DOCTYPE svg  PUBLIC '-//W3C//DTD SVG 1.0//EN'  'http://www.w3.org/TR/2001/REC-SVG-20010904/DTD/svg10.dtd'>
<svg xmlns="http://www.w3.org/2000/svg" height="80pt" width="80pt" xmlns:xlink="http://www.w3.org/1999/xlink">
 <g stroke="#000000" fill-rule="evenodd">
  <path stroke-linejoin="round" d="m21.565 93.589c4.047 6.062 8.744 6.148 17.349 2.917 9.168-4.51 8.393-7.601 9.385-12.968-1.953-8.04-13.058-11.258-11.357-1.954-13.894-15.598-16.841 1.126-10.699 5.209-4.385-0.101-6.897-0.292-4.678 6.796z" transform="matrix(.42173 0 0 .40736 -1.5131 3.0094)" stroke-width="3.0158" fill="#ffffff"/>
  <path stroke-linejoin="round" d="m48.57 89.157c-3.302-3.595-20.359 5.989-15.733 11.083 2.93 2.36 17.404-2.404 15.733-11.083z" transform="matrix(.42173 0 0 .40736 -1.5131 3.0094)" stroke-width="3.0158" fill="#ffffff"/>
  <path d="m179.29 182.29l-12.7 8.08s9.23 7.31-2.31 25c24.24-15 15.01-33.08 15.01-33.08z" transform="matrix(.42173 0 0 .40736 -1.5131 3.0094)" stroke-width="1pt"/>
 </g>
 <g stroke-linejoin="round" fill-rule="evenodd" fill-opacity="0.25" stroke="#000000" stroke-width="3.0158" fill="#ffffff">
  <path d="m101.88 130.63s-28.495-14.37-47.063 6.25c-18.568 20.61-45.96 40.08-23.463 46.1s67.371-25.69 69.786-35.52c2.42-9.83 0.74-16.83 0.74-16.83z" transform="matrix(.42173 0 0 .40736 -1.5131 3.0094)"/>
  <path d="m154.17 107.43s2.75-31.787 30.05-36.744 58.26-18.024 51.55 4.277-57.27 43.807-66.9 40.697c-9.64-3.11-14.7-8.23-14.7-8.23z" transform="matrix(.42173 0 0 .40736 -1.5131 3.0094)"/>
  <path d="m108.14 110.9s-33.022-25.228-56.242-10.04c-23.22 15.18-57.116 36.73-36.904 48.3 20.211 11.57 83.195-10.03 88.046-18.92 4.85-8.88 5.1-19.34 5.1-19.34z" transform="matrix(.42173 0 0 .40736 -1.5131 3.0094)"/>
  <path d="m137.73 90.721s0-41.551 26.17-50.785c26.16-9.234 63.86-23.084 60.78 0-3.07 23.084-58.48 60.018-68.48 58.479s-18.47-7.694-18.47-7.694z" transform="matrix(.42173 0 0 .40736 -1.5131 3.0094)"/>
 </g>
 <g stroke-linejoin="round" fill-rule="evenodd" stroke="#000000" stroke-width="3.0158" fill="#ffff00">
  <path d="m94.644 143.04c51.556 67.72 114.65 72.33 81.566-36.93-22.32-27.701-93.108 16.93-81.566 36.93z" transform="matrix(.42173 0 0 .40736 -1.5131 3.0094)"/>
  <path d="m92.323 115.29c7.369 33.49 71.677 18.08 60.287-21.439-11.39-24.785-66.985-2.01-60.287 21.439z" transform="matrix(.42173 0 0 .40736 -1.5131 3.0094)"/>
  <path d="m105.39 48.734c12.17-2.87 24.82 6.544 28.23 21.013s-3.69 28.542-15.87 31.413c-12.17 2.87-24.816-6.544-28.228-21.014-3.412-14.469 3.698-28.541 15.868-31.412z" transform="matrix(.42173 0 0 .40736 -1.5131 3.0094)"/>
 </g>
 <g fill-rule="evenodd">
  <path stroke-linejoin="round" d="m109.3 77.867c0 3.398-3.9 8.054-7.08 8.054-3.189 0-7.609-5.199-7.609-8.597s3.634-6.698 6.819-6.698c3.19 0 7.87 3.843 7.87 7.241z" transform="matrix(.42173 0 0 .40736 -1.5131 3.0094)" stroke="#000000" stroke-width="3.0158" fill="#ffffff"/>
  <path d="m107.41 74.073c-3.53-1.326-11.195 5.977-8.985 9.07 5.045 6.379 13.455-5.353 8.985-9.07z" transform="matrix(.42173 0 0 .40736 -1.5131 3.0094)" stroke-width="1pt"/>
  <path d="m107.45 79.959c-1.65-1.994-6.54 0.62-4.62 3.605 3.42 1.216 5.73-2.831 4.62-3.605z" fill-opacity=".75" transform="matrix(.42173 0 0 .40736 -1.5131 3.0094)" stroke-width="1pt" fill="#ffffff"/>
 </g>
 <path stroke-linejoin="round" d="m108.41 93.77c9.69 5.39 16.27-0.679 19.03-8.413" transform="matrix(.42173 0 0 .40736 -1.5131 3.0094)" stroke="#000000" stroke-width="3.0158" fill="none"/>
 <path d="m112.42 51.65s-17.417-35.503 13.4-36.173c30.81-0.67 30.14-0.67 30.14-0.67" transform="matrix(.42173 0 0 .40736 -1.5131 3.0094)" stroke="#000000" stroke-width="3.0158" fill="none"/>
 <path d="m107.19 49.375c-1.88 0.313-26.565 7.5-14.065 37.5-7.187-29.063 22.495-35.625 14.065-37.5z" fill-rule="evenodd" fill-opacity="0.5" transform="matrix(.42173 0 0 .40736 -1.5131 3.0094)" stroke-width="1pt" fill="#ffffff"/>
 <path d="m96.343 65.717c-32.154-16.077-50.91-24.785-54.259-7.369-3.349 17.417-3.349 16.747-3.349 16.747" transform="matrix(.42173 0 0 .40736 -1.5131 3.0094)" stroke="#000000" stroke-width="3.0158" fill="none"/>
 <g stroke-width="1pt" fill-rule="evenodd">
  <path d="m165.7 18.571c-8.41 10.075-20.67 0.699-16.97-5.418 8.55-14.944 22.98-4.213 16.97 5.418z" transform="matrix(.42173 0 0 .40736 -1.5131 3.0094)"/>
  <path d="m160.12 7.0684c-6-3.4692-15.91 9.7636-8.36 12.21 3.01 2.845-2.15-11.119 8.36-12.21z" fill-opacity="0.5" transform="matrix(.42173 0 0 .40736 -1.5131 3.0094)" fill="#ffffff"/>
  <g stroke="#000000">
   <path stroke-linejoin="round" d="m94.259 141.12c8.851 6.16 60.401 1.92 80.791-36.93l3.47 14.23c-1.16 3.08-32.71 36.94-74.64 35.78-2.31-1.15-9.621-13.08-9.621-13.08z" transform="matrix(.42173 0 0 .40736 -1.5131 3.0094)"/>
   <path d="m113.88 164.2c28.09 1.54 60.79-25.39 68.1-34.24l2.31 11.93s-37.71 36.16-60.41 30.78c-1.92 0-10-8.47-10-8.47z" transform="matrix(.42173 0 0 .40736 -1.5131 3.0094)"/>
   <path stroke-linejoin="round" d="m134.66 181.9c16.16-1.92 43.09-15.39 50.4-28.08 0 4.61 0.77 10-0.77 16.93-6.16 3.84-26.16 21.54-38.48 16.92-3.84-1.15-8.46-3.84-11.15-5.77z" transform="matrix(.42173 0 0 .40736 -1.5131 3.0094)"/>
  </g>
  <path d="m169.28 191.91c2.33 1.74 2.44 13.49-4.15 22.91 12.66-21.79 10.69-20.61 10.69-24.45 0-3.85-6.54 1.54-6.54 1.54z" fill-opacity="0.5" transform="matrix(.42173 0 0 .40736 -1.5131 3.0094)" fill="#ffffff"/>
  <path d="m94.427 104.85c-2.474 8.66 2.887 23.92 14.843 25.57 15.67 4.95 35.05-7.01 38.35-13.61 4.95-6.6 8.66-19.378-2.06-28.45 2.06 11.96 0.82 17.73-1.65 21.44-14.02 13.2-23.5 13.61-34.23 13.61-11.129-0.41-13.603-12.78-15.253-18.56z" fill-opacity="0.12" transform="matrix(.42173 0 0 .40736 -1.5131 3.0094)"/>
  <path d="m98.551 130.83s-5.361 3.3-2.887 9.9 37.936 53.6 69.686 48.24c-38.76-6.18-51.54-54.84-66.799-58.14z" fill-opacity="0.5" transform="matrix(.42173 0 0 .40736 -1.5131 3.0094)" fill="#ffffff"/>
 </g>
 <g stroke-linejoin="round" stroke="#000000" stroke-width="3.0158" fill="none">
  <path d="m96.901 108.15s-37.935 13.2-46.595 0.83l-8.659-12.373" transform="matrix(.42173 0 0 .40736 -1.5131 3.0094)"/>
  <path d="m141.85 90.422c24.33-22.267 25.15-10.309 24.74-25.153-0.41-14.845-0.41-16.082-0.41-16.082" transform="matrix(.42173 0 0 .40736 -1.5131 3.0094)"/>
  <path d="m101.44 127.12s-22.682 15.26-23.919 23.5c-1.237 8.25 3.299 26.81 3.299 26.81" transform="matrix(.42173 0 0 .40736 -1.5131 3.0094)"/>
  <path d="m149.68 103.62c40.82-4.539 39.59-10.724 45.36-1.65 5.77 9.07 11.13 31.75 11.13 31.75" transform="matrix(.42173 0 0 .40736 -1.5131 3.0094)"/>
  <path d="m147.62 95.37s16.08-10.308 22.68-11.133 33.81 4.536 33.81 4.536" transform="matrix(.42173 0 0 .40736 -1.5131 3.0094)"/>
  <path d="m98.963 116.81c-33.4 10.31-31.338 4.95-34.225 10.31-2.886 5.36-10.308 20.62-10.308 20.62" transform="matrix(.42173 0 0 .40736 -1.5131 3.0094)"/>
 </g>
 <g stroke-linejoin="round" fill-rule="evenodd" stroke="#000000" stroke-width="3.0158" fill="#ffffff">
  <path d="m181.29 36.236c-0.64 7.261-4.71 9.595-13.81 10.9-10.21 0.455-11.01-2.628-14.47-6.856-2.15-7.989 6.04-16.151 9.02-7.176 4.68-20.357 15.31-7.111 11.89-0.577 3.79-2.198 5.9-3.574 7.37 3.709z" transform="matrix(.42173 0 0 .40736 -1.5131 3.0094)"/>
  <path d="m155.48 45.336c1.16-4.74 20.73-4.54 19.12 2.152-1.43 3.48-16.41 6.262-19.12-2.152z" transform="matrix(.42173 0 0 .40736 -1.5131 3.0094)"/>
  <path d="m223.12 138.88c-2.43-6.87-6.96-8.11-16.09-7.11-10 2.11-10.01 5.3-12.3 10.25-0.09 8.28 9.88 14.14 10.52 4.7 9.62 18.55 16.6 3.07 11.66-2.41 4.22 1.18 6.61 1.99 6.21-5.43z" transform="matrix(.42173 0 0 .40736 -1.5131 3.0094)"/>
  <path d="m195.85 136.51c2.32 4.3 21.21-0.78 17.99-6.86-2.26-3.01-17.46-1.96-17.99 6.86z" transform="matrix(.42173 0 0 .40736 -1.5131 3.0094)"/>
  <path d="m97.035 180.85c-2.752-6.75-7.337-7.77-16.414-6.33-9.885 2.58-9.744 5.77-11.791 10.83 0.304 8.26 10.541 13.64 10.737 4.18 10.49 18.07 16.725 2.27 11.525-2.96 4.276 0.98 6.699 1.67 5.943-5.72z" transform="matrix(.42173 0 0 .40736 -1.5131 3.0094)"/>
  <path d="m69.689 179.79c2.516 4.18 21.147-1.8 17.634-7.71-2.398-2.9-17.534-1.13-17.634 7.71z" transform="matrix(.42173 0 0 .40736 -1.5131 3.0094)"/>
  <path d="m63.023 165.11c3.486-6.4 1.379-10.6-5.481-16.72-8.254-6.02-10.631-3.9-15.844-2.28-6.211 5.46-3.899 16.79 3.548 10.96-7.354 19.55 8.824 14.39 9.585 7.05 1.948 3.93 2.946 6.25 8.192 0.99z" transform="matrix(.42173 0 0 .40736 -1.5131 3.0094)"/>
  <path d="m46.547 143.25c-1.648 4.6 14.765 15.25 17.127 8.78 0.729-3.69-10.218-14.29-17.127-8.78z" transform="matrix(.42173 0 0 .40736 -1.5131 3.0094)"/>
  <path d="m211.66 107.37c-6.82-2.57-7.97-7.12-6.78-16.233 2.31-9.953 5.5-9.9 10.5-12.086 8.27 0.076 13.93 10.16 4.48 10.617 18.35 9.988 2.73 16.652-2.64 11.602 1.09 4.25 1.85 6.65-5.56 6.1z" transform="matrix(.42173 0 0 .40736 -1.5131 3.0094)"/>
  <path d="m209.84 80.063c4.25 2.4-1.21 21.187-7.22 17.84-2.96-2.317-1.61-17.495 7.22-17.84z" transform="matrix(.42173 0 0 .40736 -1.5131 3.0094)"/>
 </g>
 <g fill-rule="evenodd">
  <path d="m18.115 34.847c-0.33 5.414-6.759 5.516-7.028 2.586-0.828-7.025 6.661-7.241 7.028-2.586z" stroke-width="1pt"/>
  <path d="m13.401 32.55c-2.87 0.412-2.921 7.232 0.215 6.092 1.71 0.153-3.469-3.051-0.215-6.092z" fill-opacity="0.5" stroke-width="1pt" fill="#ffffff"/>
  <path stroke-linejoin="round" d="m52.286 30.923c-0.406 1.323-2.533 2.655-3.817 2.261-1.285-0.394-2.446-2.965-2.04-4.288 0.406-1.324 2.265-2.16 3.55-1.766 1.284 0.394 2.713 2.469 2.307 3.793z" stroke="#000000" stroke-width="1.25" fill="#ffffff"/>
  <path d="m51.979 29.212c-1.268-0.953-5.229 0.943-4.707 2.421 1.271 3.108 6.066-0.42 4.707-2.421z" stroke-width="1pt"/>
  <path d="m51.245 31.032c-0.51-0.94-2.752-0.333-2.214 1.027 1.308 0.787 2.603-0.621 2.214-1.027z" fill-opacity=".75" stroke-width="1pt" fill="#ffffff"/>
 </g>
 <rdf:RDF xmlns:rdf="http://www.w3.org/1999/02/22-rdf-syntax-ns#" xmlns="http://web.resource.org/cc/" xmlns:dc="http://purl.org/dc/elements/1.1/">
  <Work rdf:about="">
   <dc:title>Clipart by Nicu Buculei - bee</dc:title>
   <dc:rights>
    <Agent>
     <dc:title>Nicu Buculei</dc:title>
    </Agent>
   </dc:rights>
   <dc:type rdf:resource="http://purl.org/dc/dcmitype/StillImage"/>
   <license rdf:resource="http://web.resource.org/cc/PublicDomain"/>
  </Work>
  <License rdf:about="http://web.resource.org/cc/PublicDomain">
   <permits rdf:resource="http://web.resource.org/cc/Reproduction"/>
   <permits rdf:resource="http://web.resource.org/cc/Distribution"/>
   <permits rdf:resource="http://web.resource.org/cc/DerivativeWorks"/>
  </License>
 </rdf:RDF>
</svg>
