<?xml version="1.0" encoding="UTF-8" standalone="no"?>
<!DOCTYPE svg  PUBLIC '-//W3C//DTD SVG 20010904//EN'  'http://www.w3.org/TR/2001/REC-SVG-20010904/DTD/svg10.dtd'>
<svg xmlns:rdf="http://www.w3.org/1999/02/22-rdf-syntax-ns#" xmlns="http://www.w3.org/2000/svg" height="110pt" width="110pt" xmlns:xlink="http://www.w3.org/1999/xlink" xmlns:cc="http://web.resource.org/cc/" xmlns:dc="http://purl.org/dc/elements/1.1/">
 <g fill-rule="evenodd" transform="matrix(.98906 0 0 .98906 4.6111 -32.734)">
  <path d="m25.628 136.42c9.675-8.33 1.368-16.11 7.927-29.66 2.767-4.29 4.813-8.179 9.48-14.219-3.187-10.999 2.035-20.842 10.325-25.461-2.098-3.121-7.488-14.699 1.469-27.499 0.689 4.975 5.39 12.449 6.112 10.644 1.444-3.609 1.852-2.996 6.739-4.75 10.652-1.986 25.217 0.745 32.202 9.973 1.518 1.732 6.088-4.726 9.798-5.818-0.42 6.349-3.35 11.449-1.93 13.147 2.84 3.397 6.53 9.722 6.36 14.973 2.39 2.484 2.49 7.704-0.76 10.177 1.71 5.781 1.72 12.123 2.28 16.853-0.2 12.35-17.829 15.19-26.705 12.91-2.484 2.83-4.711 9.97-7.394 16.65-1.111 5.17-4.571 27.43-13.752 33.74-1.905-0.57-4.619-2.22-5.931-4.46-1.725-0.58-2.874 1.58-4.127 3.68-3.433-10.06-21.48-24.37-32.093-30.88z" fill="#ffcc99"/>
  <g>
   <path d="m62.45 84.898s12.49-14.355 18.642-16.778c6.152-2.424-14.54-8.016-21.624-9.321s-3.169 25.353 2.982 26.099z" fill-opacity=".094118"/>
   <path d="m57.435 68.664s-0.539-1.975 1.077-2.603c1.795-1.346 6.73 1.256 7.718 3.59 0.359 1.884 0 2.064-1.436 2.692-0.09 1.167 1.256 2.961-0.449 2.872-3.949 1.974-8.795-2.513-8.256-4.757 0.09-1.705 1.346-0.807 1.346-1.794z" fill-opacity=".37647"/>
   <path d="m57.252 68.885c-1.018 3.817 6.376 7.701 8.142 2.544-0.171-3.562-6.87-6.394-8.142-2.544z"/>
   <path d="m54.596 40.569c-0.369 2.952-3.303 16.437 0.005 15.419 3.308-1.017 4.97-2.256 5.908-4.915-1.892-1.552-4.233-6.835-5.913-10.504z" fill-opacity=".50196"/>
   <path d="m102.28 57.336c1.72-1.722 5.82-6.072 6.84-6.835 0.4 3.418-2.47 10.582-2.21 12.109-1.46-1.721-4.13-4.257-4.63-5.274z" fill-opacity=".50196"/>
   <g fill-opacity=".25098">
    <path d="m79.643 103.24s19.468 10.58 24.557 8.55c1.88-3.19 0.63-21.786 1.14-24.076s-24.679-2.544-25.697 15.526z"/>
    <path d="m80.531 104.4s26.089 10.54 29.649 8.25c4.07 1.27-28.302 15.09-29.649-8.25z"/>
    <path d="m105.52 87.764s1.35 19.596-0.18 22.396c-1.52 2.79 2.55 3.51 5.35 2.24 7.16-0.36 3.3-21.378 2.03-23.159s-2.11-2.495-7.2-1.477z"/>
   </g>
   <path d="m107.93 86.941s6.51 2.692 7.8-2.447c0.18-1.881-0.31-3.896-1.7-7.12 0.68-3.452-3.66-7.654-6.12-7.94-9.42 0-27.822 5.515-20.541 11.511s15.421 5.139 20.561 5.996z" fill-opacity=".50196"/>
   <path d="m58.469 99.781s-0.129 5.719 2.843 10.309c1.487 2.3 3.782 4.33 7.219 5.13s8.57 0.79 14.537-1.6l-1.068-1.96c-5.811 2.33-8.881 2.66-11.989 1.94s-5.717-1.9-7.068-3.99l-4.474-9.829z"/>
   <path d="m73.91 100.23c-1.93-0.21-3.612 0.11-5 0.62-2.776 1.02-4.375 2.85-4.375 2.85l1.597 0.15s0.745-0.93 3.216-1.84c2.47-0.91 7.115 0.43 11.467 3.33l-0.599-3.27c-2.321-1.55-4.376-1.63-6.306-1.84z"/>
  </g>
  <path d="m55.248 108.35c-1.285 8.57-2.502 56.25 12.916 60.53 9.715-10.89 13.736-37.45 20.49-50.68-2.343-1.85-2.056-1.69-5.922-4.34-14.865 6.49-23.63-1.01-27.484-5.51z" fill="#996633"/>
  <g>
   <path d="m75.686 52.088s4.474-7.14 8.016-6.021c12.49 1.491 28.338 21.692 28.518 25.035 0.19 2.238-3.41-5.092-9.75-2.11-1.49 2.051-1.06-18.768-26.784-16.904z" fill-opacity=".25098"/>
   <g>
    <path d="m91.5 74.062c-0.815-0.067-1.86 0.058-2.275 0.868-0.442 1.181 1.228 2.375 1.77 2.754 3.06 2.175 7.978 3.588 8.918 2.817 0.537-1.303-2.436-3.264-3.553-4.215-1.591-1.426-2.697-1.897-4.86-2.224zm2.631 1.959c1.011 0.667 2.918 2.077 3.761 2.946-1.848 0.082-5.337-1.929-7.26-3.387-0.022-0.029 2.416-0.301 3.499 0.441z"/>
    <path d="m102.94 81.188l-1.76 0.736s0.42 1.185 1.21 2.375c0.78 1.19 2.56 2.064 4.58 2.17 1.73 0.091 4.02 0.527 3.7 0.411-0.63-0.231-1.26-0.718-3.07-0.814-1.53-0.645-3.07-1.878-3.72-2.878-0.66-1.001-0.94-2-0.94-2z"/>
    <path d="m50.812 78.906s-0.312 5.889-0.124 12.375c0.093 3.244 0.12 7.029 0.581 9.929s2.303 6.52 3.511 7.89l0.538-1.24c-0.842-0.96-2.183-4.42-2.63-7.24-0.448-2.808-0.858-5.359-0.95-8.571-0.186-6.423 0.125-17.076 0.125-17.076l-1.051 3.933z"/>
    <path d="m50.68 69.457c-1.579 7.337-3.445 19.236-7.49 31.513-4.046 12.27-8.231 22.62-13.044 28.52l-0.999 3.28c5.067-6.22 11.289-19.1 15.353-31.43 4.064-12.327 7.285-25.688 8.506-33.57l-2.326 1.687z"/>
   </g>
  </g>
  <path d="m30.759 128.71s-1.987-24.23 12.927-35.979c0.559-0.373-8.08-13.799 8.139-23.866-1.865 13.795-14.243 53.505-21.066 59.845z" fill="#996633"/>
  <g>
   <path d="m102.16 85.875c-10.061-0.842-19.326 4.786-21.048 10.714-1.717 2.268-1.558 5.111-1.674 7.481 7.111 3.62 14.314 6.89 22.222 8.4 3.56 1.26 4.74-2.22 4.5-5.12 0.48-6.73-0.01-13.512 0.18-20.224-0.9-1.284-2.79-1.111-4.18-1.251zm-0.04 1.25c4.59-0.849 2.47 4.08 2.94 6.879-0.02 5.49 0.43 11.066-0.67 16.486-2.21 1.96-6.282-0.36-9.003-1.02-5.03-0.94-10.994-3.65-14.006-6.71 0.247-6.235 4.272-11.526 9.985-13.628 3.402-1.368 7.092-2.065 10.754-2.007z"/>
   <path d="m108.78 86.656c-1.16 0.291-2.67-0.145-3.49 0.932-0.36 0.993 0.01 2.082-0.02 3.115 0.35 5.94 0.61 11.907 0.1 17.847-0.56 1.29-1.16 3.05-0.09 4.24 1.38 1.09 3.6 1.29 5.21 0.9 1.5-0.41 3.69-1.06 4.49-2.52 1.38-2.44 0.96-5.62 0.98-8.35-0.01-4.556-0.87-9.135-2.26-13.474-0.83-1.83-2.92-3.05-4.92-2.69zm1.81 1.375c1.98 0.703 2.47 2.464 2.77 4.299 1.04 5.496 1.96 12.1 0.29 17.55-0.68 1.75-2.79 2.02-4.44 2.37-1.06 0.3-2.54 0.26-3.16-0.8-0.33-1.29 0.78-2.47 0.68-3.8 0.37-6.44 0.06-12.883-0.35-19.306 1.39-0.204 2.8-0.558 4.21-0.313z"/>
   <path d="m78.633 103.49c0.114 4.08 2.553 8.63 5.62 11.53 3.421 3.28 8.455 4.01 13 3.64 4.327-0.39 8.667-1.48 12.477-3.62 1.15-0.39 2.46-2.37 0.64-2.78-0.98 0.37-2.2 0.39-3.3 0.2-5.29-0.81-10.343-2.66-15.394-4.37-3.91-1.39-9.204-3.03-13.043-4.6zm2.867 2.1c7.3 2.89 11.786 6.69 21.92 8.19 1.89 0.34 4.27 0.38 6.17-0.22-2.58 1.82-5.06 2.67-8.12 3.36-4.433 0.85-9.974 1.01-14.086-1.15-3.78-1.93-5.533-6.15-5.884-10.18z"/>
   <path d="m107.34 68.035c-6.71 0.199-13.488 2.672-19.411 5.882-2.316 1.132-5.402 4.253-3.302 6.648 4.376 4.657 11.854 5.899 18.033 6.3 2.45 0.092 4.85 0.47 7.19 1.138 1.42 0.324 2.71 0.011 3.51 0.814 0.54-1.99 2.25-3.627 2.22-5.189 0.17-2.994-1.5-5.385-1.52-8.344-0.8-3.026-3.59-6.646-6.72-7.249zm1.2 1.957c2.81 0.854 4.3 3.313 4.58 6.285 0.01 2.51 1.77 4.633 1.57 7.226 0.18 2.715-2.33 4.041-4.54 3.321-3.97-1.337-8.97-1.535-13.016-2.559-3.871-0.794-7.697-1.899-10.52-4.71-1.707-1.69 0.12-3.891 1.756-4.737 5.396-3.178 10.862-4.752 17.05-5.221 0.38-0.018 2.74 0.396 3.12 0.395z"/>
   <path d="m78.046 96.473c0.183 2.39-0.244 5.177 0.515 7.457 0.56 0.76 2.355 0.19 1.598-0.44-1.049-3.497-1.508-7.39-1.372-11.025 0.099-1.872 0.197-3.753 0.686-5.904-1.388 2.166-1.674 6.121-1.427 9.912z"/>
   <path d="m53.427 66.395c-5.618 3.133-11.314 9.613-11.856 16.325-0.377 3.482-0.029 6.426 1.158 9.663-8.409 6.838-12.489 18.697-12.256 28.797-0.261 3.01-0.275 6.03-0.035 9.04 3.805-4.15 6.361-9.51 8.609-14.56 5.424-13.68 9.447-27.8 12.753-42.153 0.432-1.944 1.36-5.14 1.627-7.112zm-1.412 2.535c-2.417 12.744-6.378 26.179-10.756 38.36-2.47 6.46-5.918 13.78-9.605 19.67-0.157-10.72 2.213-23.04 9.706-31.093 1.364-1.695 4.618-2.386 2.629-4.966-1.969-5.066-1.681-11.169 1.803-15.527 1.444-1.943 4.251-5.053 6.223-6.444z"/>
   <path d="m53.735 107.16c-1.848 15.13-0.539 30.74 2.592 45.68 1.466 5.5 6.165 13.84 11.321 17.28 1.975-3.24 5.55-5.62 7.027-9.64 5.331-13.24 8.079-30.04 14.605-42.87-1.997-1.5-5.348-3.04-7.185-5.4-8.235 3.83-20.881 2.69-26.745-4.44-0.516-0.55-1.136-0.02-1.615-0.61zm1.552 2.56c5.992 7.15 17.643 9.64 27.033 4.56 1.901 1.03 2.892 3.49 5.311 3.46-4.25 7.32-7.073 20.05-8.967 28.19-1.57 6.45-6.162 17.9-11.033 22.5-2.165-1.91-3.918-2.95-5.812-6.82-5.757-10.12-6.355-21.21-6.894-32.56-0.167-6.33-0.547-13.03 0.362-19.33z"/>
   <path d="m60.508 65.394c-1.725-0.289-3.38 1.39-3.221 3.286 0.262 0.977-1.263 0.393-1.119 1.497-0.427 1.703 0.748 3.081 1.94 4.157 1.824 1.623 3.697 2.288 6.016 1.208 0.858-0.131 1.835-0.661 1.499-1.645-0.3-0.816-0.736-1.708 0.369-1.891 0.779-0.711 0.718-2.037 0.397-2.939-1.056-2.057-0.964-2.405-3.093-3.106-0.326-0.093-2.452-0.524-2.788-0.567zm0.023 0.981c2.076 0.366 4.046 1.564 5.237 3.309 0.598 0.977 0.001 2.034-1.111 2.184-0.592 0.687 0.098 1.908 0.237 2.754-0.91 0.065-1.788 0.681-2.77 0.469-1.999-0.215-3.873-1.474-4.86-3.22-0.551-0.846-0.397-2.115 0.721-2.301 0.824-0.761-0.282-2.075 0.733-2.746 0.548-0.349 1.148-0.578 1.813-0.449z"/>
  </g>
  <path d="m58.602 67.946c1.076-1.167 4.307-0.449 4.935 1.525-2.871 1.077-5.743 0.539-4.935-1.525z" fill-opacity=".78431" fill="#ffffff"/>
  <path d="m55.5 38.438c-6.486 7.996-8.086 19.977-2.542 28.937-8.693 5.278-12.408 13.132-10.041 25.313-6.153 5.558-12.481 15.792-12.514 25.752-0.004 6.24 0.964 13.84-4.903 18 0.942 3.31 9.557 6.28 12.691 9.97 7.65 6.46 16.183 13.15 19.653 22.87 1.503-3.68 4.391-6.27 6.96-1.83 3.358 2.51 2.488 1.73 3.637 1.02 2.1-2.75 6.726-10.9 7.751-12.98 3.589-8.6 4.671-18.26 8.609-26.71 1.856-5.26 3.893-12.9 10.732-10.08 8.207 0.07 17.017-2.15 19.157-11.23 0.46-5.97 0.34-12.256-0.75-18.13 4.1-6.598 0.77-14.67-2.12-21.61-5.88-4.886-1.32-12.563-1.57-18.621-6.49 2.807-8.14 4.747-9.59 6.009-7.867-9.739-22.233-11.939-33.987-9.287-6.266 0.429-5.714 6.927-8.478 0.929-1.422-2.58-2.421-5.379-2.695-8.322zm-0.879 2.266c0.499 2.409 4.061 8.769 5.718 10.379 1.022-0.737 1.852-1.846 3.928-3.205 10.375-3.8 22.827-1.803 31.703 4.722 1.766 1.668 3.425 2.361 5.48 4.033 2.18-1.564 3.93-4.943 7.47-6.217 1.19 1.316-3.84 12.111-1.39 13.208 4.3 4.35 5.34 10.742 7.1 15.996 3.12 5.476-4.43 8.804-0.48 14.404 0.24 6.066 3.13 13.356-1.71 18.386-6.09 5.82-15.531 6.83-23.471 5.09-3.924 5.01-5.247 11.5-7.781 17.22-2.473 11.27-5.142 25.25-13.48 33.9-1.516-0.28-4.488-3.9-5.904-5.34-1.29-0.74-2.293-0.58-3.742 3.28-6.067-11.96-17.467-20.07-28.097-27.72-6.399-2.36 3.734-7.68 1.677-13.14-0.438-7.68-0.463-17.19 4.48-23.45 2.907-5.59 9.501-7.85 6.428-14.675-0.579-8.95 4.195-16.592 11.981-19.763-5.331-7.747-5.078-19.412 0.09-27.108z"/>
 </g>
 <g fill-rule="evenodd">
  <path d="m67.299 87.04c0 4.764-0.182 8.5 0.951 11.929 1.129 3.411 2.296 6.501 5.411 8.821 1.436 1.3 2.976 3.34 3.027 5.96 0.05 2.64-0.52 5.65-1.313 8.5-1.587 5.71-4.161 12.11-4.161 12.11l0.09 0.05s3.664-5.97 5.29-11.82c0.813-2.92 1.398-6.04 1.344-8.87-0.055-2.84-0.758-5.44-2.688-7.13h-0.031v-0.03c-2.949-2.18-4.717-4.75-5.781-7.966-1.065-3.221-1.407-7.109-1.407-11.813l-0.732 0.259z"/>
  <path d="m61.375 99.281l-0.513 0.558c0.574 0.891 1.23 2.351 2.669 4.251 1.44 1.91 3.107 4.37 4.563 7.35 2.911 5.96 5.362 12.08 2.919 22.18l0.313 0.67c2.516-10.41 0.898-17.26-2.107-23.41-1.503-3.08-3.218-5.59-4.688-7.54-1.469-1.94-2.716-3.375-3.156-4.059z"/>
  <path d="m85.585 83.286l-0.344-0.197s-0.613 1.245-1.053 3.505c-0.441 2.259-1.239 5.736-3.246 9.973-4.203 8.873-0.022 21.323-0.022 21.323l0.183-0.05s-3.077-12.61 0.835-20.871c2.05-4.329 2.521-7.893 2.982-10.255 0.46-2.361 0.665-3.428 0.665-3.428z"/>
  <path d="m36.299 81.205c1.467 1.85 3.194 1.887 4.79 2.831l0.817-1.192c-1.869-0.546-2.573-1.481-5.607-1.639z"/>
  <path d="m38.406 74.344c2.197 1.64 3.875 1.985 5.813 2.977l0.884-1.741c-2.232-0.412-3.429-1.083-6.697-1.236z"/>
  <path d="m41.625 67.438c1.301 1.636 3.915 3.634 5.024 4.317-0.435-0.29 0.73-1.642 0.25-1.908-1.142-0.694-2.955-1.995-5.274-2.409z"/>
  <path d="m43.879 62.893c1.166 1.812 4.146 3.548 4.599 3.759l-0.197-1.714s-0.647-1.398-4.402-2.045z"/>
  <path d="m52.554 51.295c-1.992 0.516-2.17-0.133-5.974 1.549 2.045 0.72 3.831 0.146 5.746 0.218l0.228-1.767z"/>
  <path d="m47.214 45.777c0.518 1.165 5.761 3.702 5.853 3.732 0 0 0.215-1.446 0.214-1.447-0.074-0.024-2.637-2.156-6.067-2.285z"/>
  <path d="m49.652 41.031s2.471 3.559 4.656 4.384l0.121-1.786s-0.764-0.915-4.777-2.598z"/>
  <path d="m54.807 40.88c0.538 0.218 1.2-1.317 0.709-1.135-0.437 0.265-2.584-1.439-2.885-1.725-0.202-0.148 1.338 2.758 2.176 2.86z"/>
 </g>
</svg>
