<?xml version="1.0" encoding="UTF-8" standalone="no"?>
<svg xmlns:rdf="http://www.w3.org/1999/02/22-rdf-syntax-ns#" xmlns="http://www.w3.org/2000/svg" xmlns:cc="http://web.resource.org/cc/" xmlns:dc="http://purl.org/dc/elements/1.1/" xmlns:sodipodi="http://inkscape.sourceforge.net/DTD/sodipodi-0.dtd" sodipodi:docname="dragonhead.svg" height="128px" sodipodi:version="0.32" width="128px" sodipodi:docbase="/home/nicu/Desktop">
 <sodipodi:namedview bordercolor="#666666" pagecolor="#ffffff" borderopacity="1.0"/>
 <path d="m74.206 25.71c-1.532 0.418-2.282 1.082-3.21 2.094-3.977 4.058-7.394 10.559-11.181 14.799-5.019-2.575-10.357-4.201-15.778-4.244-5.813-0.046-15.818 1.9-20.32 6.937l-0.163 0.081c-0.45 2.973-0.551 4.259-1.089 6.529-0.501-0.409-0.971-0.844-1.414-1.333-5.725-6.834-9.297-14.703-10.392-23.476l-0.9245-0.653c-1.162 5.048-1.4964 9.383-1.3058 14.907 0.007 5.412 1.2587 11.234 4.6793 14.282 1.811 1.769 3.746 2.749 5.93 3.591 0.505 0.031 1.22 0.414 1.714 0.299-0.687 2.33-1.416 2.98-2.612 5.549-5.486 10.124-15.121 31.407 2.122 35.088 3.527-0.14 6.142-0.999 8.188-2.281 0.088 0.211 0.903-0.101 1.279-0.109 2.054-0.04 4.123-0.058 6.175-0.163 7.27-0.372 12.344-4.167 16.838-9.602 5.224-5.612 8.05-10.489 13.901-8.624 6.278 3.412 11.081 9.32 16.213 14.255l1.85-1.143c-5.455-4.698-9.901-10.801-16.131-14.418-7.006-2.769-13.623 6.353-17.737 10.746-7.222 8.732-12.105 6.369-21.517 8.46 2.592-1.949 4.199-4.698 5.631-7.59 1.294 2.194 3.223 1.53 4.842-1.278l0.381-0.436-2.938-2.91c2.427-4.635 5.641-8.854 13.166-10.011 3.78-0.36 8.768-0.904 12.541-0.626l0.217-0.245c-3.821-0.18-7.628-0.326-11.452-0.081-9.68 1.251-12.998 6.292-15.669 11.561 0 0-1.598 2.95-1.551 3.074-2.397 4.732-5.193 9.089-12.676 10.337-17.251-3.537-7.492-24.918-1.905-34.82 1.255-2.597 1.599-3.31 2.367-5.876 1.115-0.629 2.07-1.544 2.748-2.557 0.362-0.587 0.188-0.959 0.244-1.523 0 0-0.942-1.06-1.577-1.496 0.223-0.782 1.304-4.748 2.067-8.243 0.03-0.138 0.025 0.11 0.054-0.027l2.422-1.333c3.566-2.409 8.9-3.082 13.193-3.427 18.012-1.452 31.33 10.671 39.88 25.081 4.387 10.082 11.131 16.879 20.434 22.415l1.33-0.87c-9.416-5.276-16.02-12.371-20.622-22.225-4.931-8.172-12.509-16.009-21.218-20.865l-0.055-0.027c3.076-4.038 7.555-11.408 10.882-15.152 0.172 0.494 0.534 1.053 0.598 1.523 0.802 5.912 1.261 8.38 1.387 14.336 0.229 3.637 0.446 6.699 1.007 7.59 2.436-1.163 8.608-5.13 11.289-7.672 2.651-1.766 5.021-4.738 6.012-4.923 0.927 6.6-0.372 17.605-1.251 24.238-0.019 0.139-0.487 4.242-0.381 4.189 2.661-1.346 3.897-2.498 5.658-4.734 4.544-5.051 7.534-10.28 10.584-13.737 2.43-2.848 6.11-5.974 7.51-5.223 0.31 1.186-0.91 8.795-2.37 15.995-2.23 6.856-4.52 20.387-9 26.469-0.16 0.14 1.66-0.584 1.82-0.735 4.09-6.185 6.13-18.107 8.21-24.7 0.97-3.686 3.79-14.683 1.88-18.58-1.76 0.212-5.45 2.852-7.51 5.087-5.48 5.231-12.009 14.814-13.246 15.833-0.398 0.466-1.048 0.897-1.659 1.332 0.187-0.798 0.332-1.604 0.381-2.121 0.54-5.736 1.033-11.573 1.251-17.329 0.035-0.926 0.024-1.847 0.027-2.774-0.321-2.458-1.025-3.811-1.958-4.57-1.347 0.371-6.019 5.201-8.705 7.725-4.238 3.481-8.238 6.15-8.134 1.224-0.259-5.302-0.383-10.614-0.707-15.913-0.175-2.847-0.232-5.037-0.544-4.951zm-64.39 5.467c1.8699 7.853 4.0879 13.894 9.4939 20.457 1.291 1.424 2.84 2.493 4.434 3.536 0.015 1.552-1.54 3.12-2.693 3.102-2.18-0.76-3.86-0.611-6.746-3.129-3.71-3.564-4.6829-9.136-4.761-14.309-0.3155-3.393-0.0701-6.7 0.2721-9.657zm36.887 20.702c-1.542-0.013-3.063 0.035-4.597 0.245-5.565 0.941-10.077 2.864-12.214 7.671-0.142 0.075-1.695 6.721-1.632 6.746h0.925c6.003 1.746 12.851-1.603 16.92-6.093 1.839-2.069 3.592-5.489 4.679-8.079h-0.027c-1.37-0.25-2.648-0.478-4.054-0.49zm-1.904 1.142c1.401 0.014 2.802 0.123 4.298 0.245-1.013 2.537-3.159 5.411-5.005 7.481-0.968 1.059-2.002 1.957-3.101 2.72-0.099 0.218 0.737-2.904 0.136-4.189-1.976-3.02-5.684-2.716-8.732-1.414 1.724-2.451 4.414-3.863 8.106-4.543 1.498-0.23 2.898-0.313 4.298-0.3zm-12.404 6.801c2.028 0.106 4.429 3.699 1.169 5.631-1.664 0.762-2.384-0.849-3.346-1.115 0.116-1.122-0.105-2.665 0.49-3.264 0.366-0.929 1.011-1.287 1.687-1.252zm4.679 26.197c0.661 0.589 1.846 1.644 2.638 2.176-0.5 0.333-3.022 1.994-3.074 2.095-0.091-0.583-0.402-1.308-1.061-2.177 0 0 1.378-1.852 1.497-2.094z" sodipodi:nodetypes="cccscccccccccccccssccccccccsccccccscccccccsccscccccccsccccsscccccccccccssccccsccccccccccccccccccccccccccccccccccc" fill="#000000"/>
</svg>
