<?xml version="1.0" encoding="UTF-8" standalone="no"?>
<svg xmlns:rdf="http://www.w3.org/1999/02/22-rdf-syntax-ns#" xmlns="http://www.w3.org/2000/svg" height="128" width="128" version="1.0" xmlns:cc="http://creativecommons.org/ns#" xmlns:dc="http://purl.org/dc/elements/1.1/">
 <g transform="translate(12.586 9.9688)">
  <g>
   <path style="color:#000000" d="m35.281 81.281-10.781 0.188-10.594 0.969-9.3748 1.406-8.0312 0.718l0.25 0.875 8.5 0.96875 9.3438 0.09375 9.0312 0.4375 8.2188 1.5 2.4688 1 0.96875-8.1562zm62.219 1.594l-4.5938 0.8125-6 1.5938 2.469 5.719-4.6875 1.5312 6.625 0.25 7.875-1.25 1.7812-0.4375-6.8125-0.96875-0.0937-0.15625 3.625-1.25 5.125-1.8438 0.625-0.90625-3.909-0.344-5.031 0.781-1.156-0.062 3.906-2.656 0.25-0.813zm-22.438 11.5-12.188 0.25 4.8438 5.9375 11.688 8.2188 0.0625-0.71875-6.0938-8.3125 2.6562 1.5938 6.625 4.6875 2.6562 1.25-0.625-1.5-3.6875-3.8125-3.9062-2.8125 0.8125-0.4375 6.1875 1.3125c-0.849-3.379-5.962-3.809-9.03-5.655z" fill="#333333"/>
   <path style="block-progression:tb;text-indent:0;color:#000000;text-transform:none" d="m61.469 1.0312c-6.274 0.2923-10.331 3.2983-13.037 8.6376-9.167 2.0342-14.562 9.2282-13.62 19.331 1.5992 6.1162 8.3925 8.5821 14 8.7812-7.0763 13.647-10.358 28.194-13.069 43.182l-1.6812 8.5679-0.21875 1.375c9.437 3.618 18.25 4.276 28.282 4.282l13.5-1.1562c3.2195-0.36253 5.7114-0.31811 8.5938-1l4.6825-2.1727-1.745-5.9523c-4.083-10.363-8.345-20.199-11.594-31.032 1.9139-0.33072 3.8051-0.8317 5.875-0.78125 2.3125 1.3125 3.5938 3.6562 6.9375 3.9375l0.0313 0.03125 0.15625-0.21875c-0.60047-2.8092-3.4167-3.6042-5.125-5.4062 2.4167-0.20833 5.0922 0.61899 7.25-0.625l0.0937-0.25c-1.306-2.293-4.562-1.521-6.843-2.282 1.187-1.271 3.681-1.829 3.562-3.812l-0.156-0.188-0.032 0.031c-3.053-0.192-4.708 2.813-7.062 4.219l-5.625 0.0625c-0.63-4.801-0.748-9.903-0.125-15.406 2.132 0.15345 4.667 0.45239 6.7812 0.75l0.219 9.093c1.5269 0.43545 3.6185-0.09452 4.9688-0.71875l0.1875-0.5 0.34375 0.25c1.3194 0.42968 1.8957 0.46926 3.1562-0.21875l-0.625-7.4062c2.1035 0.33731 4.7689 0.49966 6.2812 0.46875 2.7494-0.0562 4.9859-0.77322 7.75-2.3125 0.88095-0.48235 0.13482-1.1286-0.0625-1.7188-2.8064-1.4535-4.3801-3.0104-6.75-5.0312-0.379-0.509-0.976 0.1-1.249 0.219-7.879-6.602-7.929-6.206-12.094-8.656 0.377-0.472 0.587-1.288 0.532-2.218-0.076-1.276-0.639-2.283-1.313-2.438-0.567-0.845-1.486-1.469-2.937-1.656-1.623 0.099-2.742 1.102-3.438 2.406-0.608-0.575-1.136-0.408-1.906-0.5-1.693-6.2951-6.286-11.807-12.875-11.969z" fill="#666666"/>
   <path style="color:#000000" d="m81.656 31.781 0.094 10.907 1.75 0.312l2.7188-0.46875 0.5625-1.0625 1.125 0.75 1.4062-0.09375 0.75-0.4375-0.25305-6.7802 0.12666-0.84887-0.96736-0.46472-7.3125-1.8125z" fill="#ffffff"/>
   <path style="color:#000000" d="m74.312 13.062-2.1875 1.125-1.4375 3 0.375 4.25 1.5625 1.625 1.625 0.375 1.5-0.4375 1.625-1.4375 0.125-0.875 1.875 0.5625 1.75-0.0625 1.5625-2.0625s0.375-1.625 0.375-1.875-0.9375-4.5-0.9375-4.5l-2.374-1.439-1.812 0.938-1 1.75-1.188-0.5-1.438-0.438z" fill="#ffffff"/>
  </g>
  <g>
   <path style="color:#000000" d="m70.622 47.991c-0.4375-0.0625-4.4576 2.1648-4.4576 2.1648l-2.25 2.9375-1.5625 4.9375h1.625l2.6875-0.1875h2.1875l1.5625 0.9375 0.0625 0.3125-1.125 0.5625-3.625 0.125-0.25 0.25 0.75 1.1875 1.875 1.875c0.25 0.25 1.1875 2.0625 1.1875 2.0625l-0.0625 0.9375s-1.375-0.125-1.5-0.375-4.625-3.9375-4.625-3.9375v0.9375l0.8125 3-0.52589 3.6326-2.1067-5.9861-0.55492 8.4161 0.75 0.75 2.4415 0.47943c0.8819-0.74685 1.7638-0.89038 2.6457 0.51952l12.1 2.376 4.875 0.3125-0.125-5.625-1.6875-1.25s-0.5625-1.25 0.1875-1.75 2.4375-0.875 2.4375-0.875l2.5-7.0625-4.9956-2.8857c-1.7896 0.9609-4.4884-0.48731-4.3417-3.2968l-6.8926-5.4822z" fill="#ffcc00"/>
   <path style="block-progression:tb;text-indent:0;color:#000000;text-transform:none" d="m74.062 11c-6.274 0.29222-10.419 2.8482-13.125 8.1875-9.167 2.0342-14.473 9.6781-13.531 19.781 1.5992 6.1162 8.3925 8.5821 14 8.7812-7.076 13.648-10.977 28.107-13.687 43.095-13.182-0.177-26.133 2.256-39.188 3.656-0.0076 0.001-0.0232-0.001-0.031 0-0.23731 0.51557-0.42113 1.4476 0.09375 1.625 12.859 1.5974 25.247-0.76824 38.062 3.375l-0.21875 1.375c9.4359 3.6178 18.249 4.2753 28.281 4.2812 5.0858 7.0317 11.12 10.083 16.969 14.062 1.0819-0.3229 1.1027-0.64585 1.2188-0.96875-1.8021-2.7292-2.6685-4.8199-6.2188-7.9375 3.8333 2.375 7.1076 6.1477 11.5 7.125l0.15625-0.1875c-1.8294-3.542-5.0108-5.936-8.125-8.2812l6.75 1.1562 0.094-0.13c-0.69137-3.2308-5.8958-4-8.8438-6 3.2195-0.36253 5.7114-0.31811 8.5938-1 5.8648 1.0848 11.238-0.77748 16.781-1.625 0.83373-0.28936 0.41188-0.41321 0.375-0.59375l-7.0625-0.65625c3.0836-1.1793 6.4013-1.7647 9.25-3.5312 0.46436-0.44099 0.35246-0.83298-0.125-1.1562-3.2087-0.48637-6.5553 0.33058-9.875 0.84375l4.2188-2.7188-0.15625-0.875c-4.15-0.029-6.98 1.46-10.47 2.193-1.205-3.058-2.451-6.057-3.656-9.063l-0.8125-0.03125c1.944 4.6543 4.0376 9.5738 6.0625 15.031-17.859 6.0546-36.278 3.6911-54.25-0.25 2.242-18.624 7.449-35.6 15.156-52.685 1.4028-0.01336 2.3752-0.23737 4.0312-0.46875l-0.0625-0.25c-1.5986 0.22341-3.0809-0.08192-4.4375-0.0625-5.928 0.189-10.065-1.798-12.842-7.406-7.412-16.768 24.6-31.378 27.031-7.469l0.25 0.0625c-0.36096-4.3665-1.6311-8.072-3.9375-10.5 1.2483-1.214 2.1383-2.0086 3.7746-2.208 1.1359-2.5543 1.3372-2.3116 2.7606-3.33-0.56824 0.90801-1.455 1.7357-0.78282 2.8917 0.32554-0.01289-0.0131 0.03467 0.31569 0.05023 0.35418-0.55219 0.63467-1.1781 1.2413-1.4778-0.79818 0.76723-0.57466 1.2135-0.61681 1.8547 0.27856 0.02301-0.06916-0.04748 0.20881-0.0067-0.08491-0.69783 1.1004-1.1649 2.2486-1.9508-0.87037 0.75684-1.5294 1.5137-1.3374 2.2705 1.6303 0.27661 3.222 0.82407 4.5938 1.5l0.1875-0.25c-1.302-0.728-2.342-1.082-3.907-1.47-0.996-0.28 1.044-2.115 1.531-2.844-1.4977 0.57102-1.9655 0.96563-2.625 1.375l0.53125-1.375c-0.69885 0.38873-1.5275 0.73547-2.0938 1.5312-0.5142-1.2665 1.6566-2.41 2.4375-3.4375-2.0724 1.0077-4.9467 2.2465-5.0938 4.0625-1.8442 0.34628-2.3004 1.1797-3.7812 2.4375-2.3918-2.2592-5.7962-3.2566-10.281-2.3125 2.2043-5.8138 7.4386-6.8436 12.531-6.9062 6.7817-0.05206 10.108 4.9154 12.25 10.781-0.84695 0.154-1.5318 0.74531-2.0938 1.5625-1.783 2.26-1.996 5.049-0.781 7.47 1.95 2.5302 5.5065 1.5738 6.8125-0.875 1.7369 1.2433 3.1458 0.59196 4.5-0.84375 0.27863-0.40521 0.51155-0.8909 0.6875-1.4062 4.6202 2.1926 8.6644 5.274 12.812 8.2188l-0.71875 7.125c-0.6512 0.28784-1.4672-0.12731-2.9375-0.125-3.4289-1.4511-8.427-2.1708-12.75-2.875l4.875-2.9375c0.18287-0.93692-0.15684-0.68937-0.625-0.8125l-4.902 3.624c-0.944-0.157-1.915-0.302-2.75-0.469l0.125 0.125c0.79465 0.15901 1.6006 0.34749 2.4062 0.53125l-1.6875 1.25 0.3125 0.0625 1.9375-1.1875c0.75868 0.17808 1.5231 0.36453 2.2812 0.5625l0.03125 1.1875c-3.7481-0.4007-7.2382-0.43812-9.9688-0.3125v0.25c0.97426-0.03184 1.7078 0.10719 2.6562 0.15625-0.93355 6.7472-0.62412 12.229 0.5 18l0.75 0.59375c-0.202-1.099-0.441-1.904-0.593-3.032 1.5949 0.53938 3.9219 0.30202 5.8125 0.25 1.916-1.1775 3.8072-4.0019 6.5312-4.4375 0.89997 0.61095-2.3438 2.5-3.375 3.5938l-0.0625 0.46875c2.1458 0.71875 4.774-0.06313 6.5625 1.9062-2.32 0.996-4.772 0.209-7.095 0.407v0.46875c1.5625 1.6562 4.4626 2.9229 4.625 4.8125-2.9612-0.44728-3.9271-2.5-6-3.6875-2.1952-0.20087-3.6514 0.0819-5.1562 0.34375l0.84375 0.5 0.03125 0.0625c1.314-0.25075 2.6457-0.47203 4.0625-0.4375 2.3125 1.3125 3.5938 3.6562 6.9375 3.9375l0.03 0.031 0.16-0.219c-0.60047-2.8092-3.4167-3.6042-5.125-5.4062 2.4167-0.20833 5.0922 0.61899 7.25-0.625l0.0937-0.25c-1.3066-2.2921-4.5625-1.5208-6.8438-2.2812 1.1875-1.2708 3.6819-1.8288 3.5625-3.8125l-0.152-0.187-0.032 0.031c-3.0537-0.19279-4.7083 2.8125-7.0625 4.2188l-5.625 0.0625c-0.62972-4.8004-0.74823-9.9032-0.125-15.406 2.132 0.15345 4.667 0.45239 6.7812 0.75l0.219 9.094c1.5269 0.43545 3.681 0.15548 5.0312-0.46875l0.25-0.9375 0.28125 0.6875c1.3194 0.42968 1.8332 0.21926 3.0938-0.46875 0.28344-2.4185 0.006-4.7567-0.28125-7.0938 2.1035 0.33731 4.4252 0.18716 5.9375 0.15625 2.7494-0.0562 4.9859-0.77322 7.75-2.3125 0.88095-0.48235 0.13482-1.1286-0.0625-1.7188-2.8064-1.4535-4.3801-3.0104-6.75-5.0312-0.38045-0.51-0.97668 0.09948-1.25 0.21875-1.1056-0.92646-1.7634-1.4469-2.5938-2.125l3.8125-4.25-0.3125-0.125-4.2812 3.75c-0.30237-0.24418-0.76196-0.63023-1.0312-0.84375l5.125-7.8125-0.1875-0.0625-5.6875 7.2812c-0.41338-0.3206-0.81177-0.65241-1.1562-0.90625l2.125-4.125-0.1875-0.0625-2.625 3.7188c-1.749-1.233-2.824-1.76-5.09-3.093 0.37641-0.47195 0.58665-1.2886 0.53125-2.2188-0.07595-1.2753-0.63801-2.2828-1.3125-2.4375-0.56684-0.84455-1.486-1.4695-2.9375-1.6562-1.6229 0.09893-2.7419 1.1021-3.4375 2.4062-0.60829-0.5747-1.1361-0.40786-1.9062-0.5-1.693-6.295-6.286-11.807-12.876-11.969zm18.156 10.625c1.0683 0.16265 1.7382 0.66284 2.1875 1.3438-0.43904 0.44223-0.71658 1.3308-0.65625 2.3438 0.08301 1.3938 0.77648 2.4828 1.5312 2.4688-0.13524 0.64449-0.41038 1.1675-0.8125 1.9375-1.2288 1.6524-2.3808 1.5987-4 0.65625 0.03578-0.1089 0.0615-0.20761 0.09375-0.3125 0.50875-0.39211 0.81561-1.336 0.75-2.4375-0.063-1.06-0.446-1.954-0.968-2.313-0.214-0.414-0.45-0.845-0.782-1.312 0.56637-1.3855 1.231-2.0414 2.6562-2.375zm-28.78 1.187c-8.4962-0.02895-15.091 7.7584-13.125 15.469l0.28125-0.3125c-1.37-11.445 14.225-20.35 21.094-8.093l0.1875 0.09375c-1.157-4.163-4.775-7.188-8.438-7.157zm23.594 0.59375c0.57153-0.03386 1.1882 0.15087 1.9062 0.5625 0.40969 0.54115 0.66464 0.90906 0.84375 1.1875-0.76748 0.04571-1.3342 1.2119-1.25 2.625 0.07835 1.3155 0.70408 2.3666 1.4062 2.4688-0.09129 0.26566-0.1939 0.52486-0.25 0.78125-1.3198 2.0595-3.0552 2.8191-4.9375 0.875-1.629-2.4978-1.057-3.9812-0.34375-6.6875 0.86805-1.1209 1.6725-1.7561 2.625-1.8125zm8.2812 11.438-15.25 1.375v0.25l15.312-0.625c0.93317-0.6059 0.03954-0.68987-0.0625-1zm-0.875 1.906-16.626 5.25 0.188 0.25 16.75-4.562c0.419-0.705-0.132-0.683-0.312-0.938zm0.09375 5.4062c2.6743 0.7199 5.0873 0.86298 7.5 1.8125 0.24464 2.7348 0.6657 5.7562 0.28125 7.4688-0.79711 0.56799-0.70259 0.83855-2.4375 0.46875 0.34571-2.0557-0.68649-5.8193-1.0938-7.875l-0.09375 0.1875c0.26146 2.0746 0.29575 5.8385 0 7.9688-1.1941 0.59315-2.8996 0.56451-4.0938 0.28125 0.06934-2.8749-0.24075-7.6155-0.25-9.2188l0.1875-1.0938zm-24.813 21.282-0.157 0.187c1.7021 1.5062 2.8043 3.6124 5.125 4.5 2.6979 0.26042 6.1815-1.2075 8.0938 0.78125-0.98458 0.81679-3.2917 0.5-4.9375 0.75l-0.094 0.219c0.36588 2.147 4.4009 4.1118 3.75 5.875-2.1223-0.38704-3.8646-3.0938-5.7812-4.4062l-0.313 0.406c0.16667 2.2812 1.19 5.4423 0.46875 7.0312l-2.281-7.219c-1.532-2.4818-5.6479-3.657-8.5625-4.75l-0.0625 0.25c2.9885 0.78544 5.608 2.7398 8.1562 4.9375 0.71502 3.1211 1.8941 5.0046 2.8438 7.5l0.53-0.062c0.547-2.48-0.542-4.959-0.812-7.438 2.0104 1.3854 3.0055 4.0143 6.0312 4.1562l0.187-0.156c0.21897-2.8972-2.5416-4.0729-3.8125-6.0938 1.7083-0.23958 3.5714 0.29469 5.125-0.71875l0.03125-0.25c-1.4932-2.4939-5.4792-0.83333-8.2188-1.25-1.8561-1.7578-3.5417-2.8334-5.3125-4.25zm-26.063 28.562c1.3538-0.01679 2.7096-0.02552 4.0625 0-0.37601 2.1247-0.55864 4.4091-1.1875 7-3.275-1.058-6.562-1.722-9.843-2.156 1.027-2.812 4.224-3.617 6.968-4.844zm-1.9375 0.03125c-2.442 1.332-5.079 2.564-5.874 4.719-3.782-0.456-7.567-0.633-11.344-0.75 1.3337-1.8808 3.3771-2.7093 5.5625-3.3125 3.8817-0.31616 7.7746-0.55895 11.656-0.65625zm-14.562 0.907c-1.532 0.626-2.843 1.511-3.656 2.937l0.0625 0.09375c-2.985-0.088-5.962-0.172-8.937-0.344 0.37969-0.90608 1.7249-1.3229 3.0625-1.75l-0.063-0.031c3.184-0.32041 6.3472-0.62058 9.5312-0.90625zm82.5 0.53125-3.9688 2.8438c-0.11045 0.28156 0.0398 0.42567 0.15625 0.59375 3.2394-0.11487 5.9032-1.6579 9.625-0.6875-2.8476 1.9327-5.9896 2.0625-9 3.3438-0.58961 0.16175-0.19269 0.4765 0 0.75l6.1875 0.90625c-4.825 0.62492-10.051 2.1084-14.125 1.125 1.5636-0.39029 2.1907-0.85119 3.5938-1.3438-0.65075-1.7339-1.51-3.8025-2.1875-5.5312 3.236-0.6634 7.3812-2.1067 9.7188-2zm-94.035 0.593c-1.0979 0.43558-1.7779 0.90804-1.9375 1.5-1.198-0.078-2.399-0.157-3.594-0.281-0.3224-0.033-0.021-0.619-0.344-0.656 1.9561-0.17769 3.9189-0.36738 5.875-0.5625zm71.562 10.562c3.0312 1.7083 7.5789 1.9002 9.0938 5.125-2.1354-0.6328-4.2708-1.3977-6.4062-1.125l-0.5625 0.40625c2.7393 2.4673 6.9028 4.6833 8.125 7.6562l-11.625-7.1562-0.1875 0.1875c3.0386 3.5083 4.5633 6.1756 6 8.5625-5.0321-3.9457-10.958-6.8759-15.094-13.062 3.5803-0.0335 7.1836-0.21846 10.656-0.59375z" transform="translate(-12.586 -9.9688)"/>
   <path d="m82.906 13.375c-0.41387 0.5789 0.05588 2.2172 0.56472 2.6071 0.534-0.944-0.351-2.197-0.565-2.607zm-5.125 2.3835c-0.9442 0.84406 0.10008 2.5266 0.52053 2.6071 0.44605-0.59054-0.30657-2.197-0.52053-2.6071z" fill="#ffffff"/>
  </g>
  <g>
   <path style="color:#000000" d="m96.541 26.49c0.18097 0.88949 0.16917 1.7469-0.35355 2.5191 2.0123 1.2366 4.4157 1.789 6.8943 2.2097-2.4075-0.89451-4.4793-2.7961-6.5407-4.7288z" fill="#ffffff"/>
   <path style="color:#000000" d="m82.955 57.822-4.2992 2.3339 1.4375 1.2812 11.375 6.0625 7.25 2.2812l0.281-0.219c-1.6096-1.0081-3.0173-1.7952-4.5206-2.8033-2.5117 1.5948-4.7877-0.98376-4.3437-3.3109l-2.355-2.448-2.465-2.352-2.361-0.826zm-4.517 5.178l-0.15625 1.5312 0.6875 1.7812 0.9375 0.6875 1.1875 0.15625s1.1013-0.52903 0.96875-0.75c-0.13258-0.22097-0.39867-1.1982-0.53125-1.375-0.13258-0.17678-1.6433-1.6357-1.6875-1.8125l-1.406-0.218zm13.344 7.3125c-0.14726 0.004-0.30302 0.02746-0.46875 0.09375l-0.84375 1.1562-0.125 1.8125 0.78125 1.9062 1.25 0.4375 0.968-0.656 0.656-0.75s0.40533-0.65809-0.125-1.7188c-0.46404-0.92808-1.063-2.309-2.0938-2.2812zm-6.7188 0.34375c-0.35105 0.0085-0.90625 1-0.90625 1l-0.282 1.219 1.1562 1.4688 1 0.3125 1-0.53125 0.031-1.094-0.437-0.906-1.406-1.406c-0.03867-0.04419-0.1061-0.06371-0.15625-0.0625zm-7 4.4062-0.625 0.46875-0.5 1.875 0.28125 1.1875 0.96875 0.53125h0.78125l1.0625-0.3125s0.32767-0.98484 0.0625-1.25c-0.26516-0.26516-0.94286-1.667-1.0312-1.8438-0.08839-0.17678-1-0.65625-1-0.65625zm6.9688 3.9062c-0.086-0.017-0.148 0.01-0.22 0.032l-1.1875 1.0625-0.15625 1.125 0.9375 1.6562 1.0312 0.3125s1.0808 0.22097 1.125 0c0.04419-0.22097 0.375-1.3438 0.375-1.3438s0.07767-1.0527-0.1875-1.4062c-0.23202-0.30936-1.1188-1.3142-1.7188-1.4375zm7.375 2.75l-0.657 0.094-0.344 1.563 0.532 1.625 1.4062 0.03125s0.47947-0.26386 0.65625-0.75-0.0085-1.3156-0.40625-1.625c-0.39775-0.30936-0.56878-0.62814-1.1875-0.9375z" transform="translate(-12.586 -9.9688)" fill="#ffcc00"/>
   <path style="block-progression:tb;text-indent:0;color:#000000;text-transform:none" d="m83.075 57.522c-1.6909 0.53526-3.2816 1.2549-4.7622 2.2906-2.0216 2.9995-2.8395 4.315-3.625 7.9062l0.625 0.21875c0.18785-2.2407 1.3001-3.7707 3.1875-7.3125 6.1338 4.0575 12.788 8.0231 20.188 9.4375-0.46039 3.2643-1.8381 4.1181-2.5312 6.5-2.7125 0.56722-2.7837 2.4709-0.75 4.2188 0.20948 1.6431 0.96858 3.7344 0.09375 4.8438-5.4905-0.07068-10.955-1.1434-16.031-2.375-1.4446-2.1961-2.1957-0.8176-3.1875-0.75-0.86936-0.20999-1.7245-0.41851-2.5938-0.625 0.1553-1.7903 0.05217-6.6492 0.21875-8.4375l-0.4375-0.3125-0.65625 9.2812c1.1269 0.28738 2.2481 0.55387 3.375 0.8125 0.99784-0.13719 2.09-1.8919 2.9375 0.65625 5.812 1.2151 11.626 2.0832 17.438 2.7812l-0.15625-6.375c-3.2335-1.4137-2.7023-2.4433 0.625-3.1875l3-7.75c-2.0198-0.67572-3.8731-1.5965-5.5919-2.7041-2.2585 1.3084-4.5183-0.69806-3.9198-3.2202-2.2787-1.8409-3.355-3.0445-4.9265-5.0419-1.0338-0.15799-1.3956-0.13838-2.5183-0.85565zm1.144 0.728c1.8944 2.7613 3.1335 3.637 5.8479 5.5441-0.58189 2.4488 2.0953 4.0518 4.1597 3.211 1.4107 0.88063 2.7915 1.6836 4.055 2.4324-6.4228-1.5754-13.598-5.4027-19.125-9.0625 1.4723-1.1375 3.3049-1.609 5.0625-2.125zm-5.469 4.406c-0.86766 0.02124-0.93773 1.0971-0.625 2.5312 0.78687 1.9564 1.0255 2.1503 3.0625 2.0938 2.5578-1.1809 0.72761-2.399-0.71875-3.9375-0.7559-0.49984-1.3244-0.69716-1.7188-0.6875zm0.25 0.875c0.29402 0.01105 0.65892 0.09701 1.0312 0 1.2324 1.2568 1.9494 2.0512 1 3.3125-1.252 0.101-1.771-0.55-2.281-1.594-0.495-1.54-0.24-1.737 0.25-1.719zm12.219 6.4062c-1.1722 0.26188-1.416 2.3429-1.0625 3.9062 0.69124 3.5133 4.645 2.2703 4.125-1.25-0.34423-0.86624-0.92179-1.6846-1.5625-2.2188-0.60634-0.4003-1.1092-0.52479-1.5-0.4375zm-6.219 0.594c-2.04 0.99398-1.4029 2.4431-0.34375 4.0625 2.188 0.68776 2.9879 0.09792 2.5312-1.9375-0.39-1.184-1.24-1.597-2.187-2.125zm7.25 0.09375c0.45885 0.38256 1.1534 1.7226 1.4375 2.4375 0.55386 2.4559-2.0978 2.7502-2.9375 1.0312-0.81065-2.4618 0.505-3.2087 1.5-3.4688zm-7.4688 0.34375c0.69793 0.27037 1.8187 1.3969 2.1875 2 0.33575 1.1882-0.68702 1.3371-1.8125 1.3125-0.82252-0.96994-0.68304-2.3014-0.375-3.3125zm-6.9375 4.0938c-1.205 0.03442-1.1686 1.642-1.125 3.125 0.98223 1.361 2.2622 1.334 3.625 0.65625 0.6385-1.5067-0.25082-2.6018-1.4375-3.5312-0.42311-0.18022-0.78442-0.25794-1.0625-0.25zm0.4375 0.3125c1.469 0.67323 1.7343 2.7986 1.5312 3.4375-0.75904 0.40195-2.0266-0.25921-2.625-0.53125-0.45006-1.4141 0.88863-2.71 1.0938-2.9062zm6.5625 3.3125c-0.5993 0.02496-1.1579 0.53572-1.5312 1.7188-0.0323 1.0713 0.51683 1.8705 1.0938 2.7188 0.46909 0.37306 1.2233 0.24637 1.8125 0.25 1.3873-0.52442 1.2576-1.3943 0.9375-2.6875-0.69575-1.2545-1.542-2.0321-2.3125-2zm0.21875 0.53125c0.44988-0.03137 0.95918 0.37918 1.5312 1.5625 0.34988 3.703-2.4037 1.9749-2.875 0.15625 0.30901-0.89083 0.76533-1.6784 1.3438-1.7188zm7.1562 2.3125c-1.581 0.07633-1.1707 2.2115-0.4375 3.5312 1.8037 0.55936 2.7152-0.13711 2.2812-2.0312-0.2294-0.54518-0.59545-1.0631-1.0312-1.4062-0.31159-0.08191-0.58664-0.10465-0.8125-0.09375zm-0.09375 0.3125c0.25196 0.19839 1.5864 0.98617 1.75 1.375 0.67458 1.342-1.4341 1.2757-1.7188 1.625-0.52299-0.72231-0.36155-2.2238-0.03125-3z" transform="translate(-12.586 -9.9688)"/>
  </g>
 </g>
</svg>
