<?xml version="1.0" encoding="UTF-8" standalone="no"?>
<svg xmlns:rdf="http://www.w3.org/1999/02/22-rdf-syntax-ns#" xmlns="http://www.w3.org/2000/svg" height="128" width="128" version="1.1" xmlns:cc="http://creativecommons.org/ns#" xmlns:dc="http://purl.org/dc/elements/1.1/">
 <g transform="translate(0 -924.36)" stroke="#000000">
  <g stroke-width="1px">
   <path style="color:#000000000" d="m75.563 1035.8c-2.2722 0.9917-4.4225 2.45-4.4225 5.0293 0 2.1768 2.4224 4.1336 4.4225 4.778 13.935 4.49 25.752-10.31 6.7638-10.31-2.2481 0-4.6707-0.3063-6.7638 0.503z"/>
   <path style="color:#000000000" d="m41.016 1034.6c-3.8156 0.9567-7.3661 4.9548-4.5686 9.1633 5.3941 8.1142 30.172-0.6679 22.386-8.4762-2.692-0.9822-15.335-1.2453-17.817-0.6871z"/>
   <path style="color:#000000000" d="m53.466 985.59c-15.605 11.308-19.295-5.9896-22.386-7.3307-6.5982-1.3234-9.3902 1.4139-7.8603 9.0858 3.6679 3.9645 8.292 12.738 12.429 14.281 7.854 2.6254 14.688-1.8109 17.132-9.1632 0.65228-1.9625 1.1246-4.6696 0.68529-6.8725z"/>
   <path style="color:#000000000" d="m57.113 974.96c-1.1438 3.496-2.3378 3.8472-3.1779 7.3897-2.5064 10.569-14.227 18.711-11.905 30.682 3.1676 16.325 30.226 21.324 41.181 7.2086 4.5547-5.0408 3.4045-13.847 2.489-19.082-1.3314-6.8619-12.59-24.961-20.217-28.534-4.2251-1.9795-4.3474 1.7078-8.3702 2.3361z"/>
   <path style="color:#000000000" d="m40.136 931.83c-8.284-1.3833-11.564 8.6156-9.0506 13.276 1.001 1.8558 3.4259 0.39688 5.7357 1.554 7.3042 3.6591 8.5713-5.8711 6.1632-8.2838-1.4036-1.2805-0.63862-6.1767-2.8483-6.5457z"/>
   <path style="color:#000000000" d="m86.226 932.51c7.1882-3.4092 11.631 1.8769 11.648 7.1191 0.0091 2.765-2.5739 1.1114-5.3411 2.934-12.269 8.0812-9.9953-0.3147-8.0648-3.7796 1.0306-1.6664-0.33692-5.2802 1.7577-6.2736z"/>
  </g>
  <path style="color:#000000000" d="m37.495 948c-8.005 32.107 33.104 44.007 47.351 23.363 13.387-19.397 4.4354-36.915-16.943-36.915-15.223-0.51747-26.386-1.7494-30.408 13.551z" stroke-width="1px" fill="#ffffff"/>
  <g stroke-width="1px">
   <path style="color:#000000000" d="m55.508 21.58c-4.6923-1.374-12.148-2.3972-14.496 2.2981-3.1776 6.3552-0.63572 19.195 5.3033 18.562 15.12-1.6127 16.756-12.468 9.1924-20.86z" transform="translate(0 924.36)"/>
   <path style="color:#000000000" d="m51.181 1015.4c-2.5481 0.2543-5.2537 5.2238-5.9686 8.0916-1.2104 4.8555 5.0962 21.334 12.335 16.494 2.6951-1.802-1.2697-8.6528 0-10.767 3.6217-6.0302 4.6458-13.819-6.3666-13.819z"/>
   <path style="color:#000000000" d="m75.965 1014.5c6.8958 0.4027 11.152 7.3122 10.684 12.194-0.95384 9.9582-14.345 20.047-14.537 9.2619-0.04827-2.7029 2.6836-7.7441 2.6836-10.728 0-2.5819-7.1677-5.3592-6.8667-7.6072 0.15884-1.1863 7.0304-1.6077 8.0364-3.121z"/>
  </g>
  <path style="color:#000000000" d="m62.126 989.38c-10.98 1.6777-21.029 16.476-17.928 29.116 7.3842 11.794 29.409 14.136 39.025 1.7473 0.50376-0.5575 0.91197-1.1789 1.2842-1.8187 2.9681-7.8807-1.3681-14.014-3.8526-17.095-5.5308-7.926-10.735-12.082-18.529-11.95z" stroke-width="1px" fill="#ffffff"/>
  <path style="color:#000000000" d="m75.646 983.22c3.2053 0.56041 9.4716 1.1445 12.69 2.2204 10.465 3.4985 6.9414 20.141 2.5127 26.803-1.471 2.2125-7.5545 1.8079-8.9087-0.2293-2.9015-4.3646 3.1965-10.084 1.599-14.89-1.0686-3.2149-9.1496-10.753-7.8931-13.904z" stroke-width="1px"/>
  <g fill-rule="evenodd">
   <path d="m58.513 954.6c-0.70711 6.6915-2.7357 7.955-6.9827 7.955-5.1308 0-6.4523-3.7383-6.4523-8.1317s2.2054-7.7782 6.4523-7.7782c4.247 0 7.4444 3.5859 6.9827 7.955z" stroke-width="1px" fill="#ffffff"/>
   <path d="m59.043 32.806a3.3588 5.3917 0 1 1 -6.7175 0 3.3588 5.3917 0 1 1 6.7175 0z" transform="matrix(1.2632 0 0 1 -17.306 922.59)" stroke-width=".88976px"/>
   <path d="m58.513 31.303a3.0052 3.0052 0 1 1 -6.0104 0 3.0052 3.0052 0 1 1 6.0104 0z" transform="translate(-2.4749 922.42)" stroke-width="1px" fill="#ffffff"/>
  </g>
  <path style="color:#000000000" d="m70.199 944.35c4.6923-1.374 12.148-2.3972 14.496 2.2981 3.1776 6.3552 0.63572 19.195-5.3033 18.562-15.12-1.6127-16.756-12.468-9.1924-20.86z" stroke-width="1px"/>
  <g fill-rule="evenodd">
   <path d="m67.194 953.01c0.70711 6.6915 2.7357 7.955 6.9827 7.955 5.1308 0 6.4523-3.7383 6.4523-8.1317s-2.2054-7.7782-6.4523-7.7782c-4.247 0-7.4444 3.5859-6.9827 7.955z" stroke-width="1px" fill="#ffffff"/>
   <path d="m59.043 32.806a3.3588 5.3917 0 1 1 -6.7175 0 3.3588 5.3917 0 1 1 6.7175 0z" transform="matrix(-1.2632 0 0 1 145.49 921)" stroke-width=".88976px"/>
   <path d="m58.513 31.303a3.0052 3.0052 0 1 1 -6.0104 0 3.0052 3.0052 0 1 1 6.0104 0z" transform="matrix(-1 0 0 1 131.19 920.83)" stroke-width="1px" fill="#ffffff"/>
  </g>
  <g stroke-width="1px">
   <path style="color:#000000000" d="m59.22 963.62c-14.528 8.0386 15.753 9.9295 10.43 1.9445-3.1468-3.3944-6.4787-3.4804-10.43-1.9445z"/>
   <path d="m67.705 41.468a3.7123 1.8562 0 1 1 -7.4246 0 3.7123 1.8562 0 1 1 7.4246 0z" fill-rule="evenodd" transform="translate(.35355 922.95)" fill="#ffffff"/>
   <path style="color:#000000000" d="m53.867 972.88c0.14693 2.4542 9.7197 4.4284 10.01 0.66605 1.9343 3.9037 9.0176 1.8598 10.076-1.4142" fill="none"/>
   <path style="color:#000000000" d="m63.938 49.312-0.3125-3.25" transform="translate(0 924.36)" fill="none"/>
  </g>
 </g>
</svg>
