<?xml version="1.0" encoding="UTF-8" standalone="no"?>
<svg xmlns:rdf="http://www.w3.org/1999/02/22-rdf-syntax-ns#" xmlns="http://www.w3.org/2000/svg" sodipodi:docname="seagull_contour.svg" height="128px" sodipodi:version="0.32" width="128px" xmlns:cc="http://web.resource.org/cc/" xmlns:dc="http://purl.org/dc/elements/1.1/" sodipodi:docbase="/home/nicu/Desktop/hats/seagull" xmlns:sodipodi="http://inkscape.sourceforge.net/DTD/sodipodi-0.dtd">
 <sodipodi:namedview bordercolor="#666666" pagecolor="#ffffff" borderopacity="1.0"/>
 <g transform="matrix(.41918 0 0 .41918 -6.6597 24.632)" fill-rule="evenodd">
  <path d="m295.75 44.625c-32.15-0.228-64.3 0.157-96.43 1.08-6.99 2.021-11.76 7.936-17.61 11.903-5.98 4.811-11.78 9.996-18.65 13.541-5.27 0.63-10.79 0.057-15.69 2.537-5.94 1.689-10.29 7.978-16.9 6.513-23.14-1.772-47.68 3.592-65.713 18.835-12.748 10.046-24.706 21.066-37.26 31.326-3.574 1.07-1.706 5.76 1.43 2.72 4.708-2.44 9.145-9.17 13.862-9.07 5.213-0.14 8.765-5.5 13.393-7.57 19.577-13.36 39.74-27.522 63.358-32.449 5.16-0.715 10.57-0.685 15.61 0.72 3.77 3.565 4.11 9.565 8.62 12.699 1.01 3.48 3.31 6.99 7.26 5.55 3.28 2.16-4.85 9.61 2.05 8.26 5.32-1.26 10.17-9.56 15.82-5.6 2.49 3.41 6.02 9.41 10.75 5.1 5.64-3.43-7.59-8.44 0.98-9.72 7.01-3.556 10.5-11.086 14.59-17.39 2.94-5.305 5.5-11.089 5.6-17.254-4.41-2.348-7.02 4.575-10.96 5.756-4.82 3.29-9.95 6.233-15.52 8.025-6.07-1.325 1.24-6.918 4.06-7.865 12.05-8.769 24.08-18.527 38.67-22.613 9.1-1.145 18.25 0.452 27.38 0.441 19.88 0.961 39.82 1.944 59.72 1.229 4.05 0.778 13.02-6.526 4.95-6.48-4.46-0.081-8.91-0.097-13.37-0.224zm13.47 3.594c0.52 0.561-0.69 0.048 0 0zm-139.25 53.661c3.54-2.346 4.74 6.08 0.72 2.21-0.75-0.33-1.66-1.58-0.72-2.21z"/>
  <path d="m184.35 106.77c-5.71 1.7-11.64 6.12-11.64 6.12-1.4 2.02-2.08 3.48 0.85 7.89 1.47-6.56 6.83-12.58 18.79-13.14-0.81-2.34-6.44-1.77-8-0.87z" sodipodi:nodetypes="csccc"/>
 </g>
</svg>
