<?xml version="1.0" encoding="UTF-8" standalone="no"?>
<svg xmlns:rdf="http://www.w3.org/1999/02/22-rdf-syntax-ns#" xmlns="http://www.w3.org/2000/svg" xmlns:cc="http://web.resource.org/cc/" xmlns:dc="http://purl.org/dc/elements/1.1/" height="590" width="299">
 <path d="m64.62 35.942c0.217 8.532 6.498 13.352 10.896 20 5.313 8.032 8.859 18.293 9.05 28 0.408 20.738-9.481 40.948-15.841 59.998-1.485 4.45-0.066 8.56-0.789 13-1.734 10.64-5.477 20.05-6.226 31-1.799 26.27 7.82 52.08 6.866 78-0.516 14.02-13.479 23.35-10.728 39 2.08 11.84 16.344 20.93 16.772 32 13.236 16.15 3.08 36.53 3.079 55-0.001 11.65 1.263 23.36 0.542 35-0.44 7.12-3.703 14.03-5.107 21-2.094 10.4-2.416 21.55-4.251 32-1.003 5.72 1.174 11.33 0.433 17-1.15 8.81-5.459 14.86-7.91 23-2.251 7.48-2.2 15.59-4.358 23-1.534 5.27-7.016 11.66-11.471 14.76-3.838 2.67-10.585 5.5-10.179 11.23 0.554 7.82 10.508 4.49 15.222 3.85 11.387-1.54 18.016-17.53 23.204-26.84 5.94-10.66 4.193-19.45 5.914-31 1.069-7.17 5.29-13.67 6.443-21 0.972-6.17-0.743-12.92 0.753-18.96 0.848-3.42 3.835-5.78 5.124-9.05 3.343-8.48 6.166-19.9 6.562-28.99h1c1 19.8 6.01 37.74 9.22 57 1.79 10.75 0.68 22.11 0.78 33 0.05 4.86 1.91 9.35-0.28 14-1.96 4.19-4.27 11.33-7.22 14.75-2.944 3.42-9.111 2.89-10.167 8.22-0.716 3.62 3.707 5.84 6.667 6.31 6.03 0.96 19.29 1.17 21.08-6.28 0.77-3.18-2.06-4.6-2.02-7.39 0.07-5.67 7.17-11.25 7.86-17.61 2.27-20.9-4.73-42.34-6.84-63-1.3-12.85 2.59-25.5 1.89-38-0.56-10.13-2.36-20.32-3.14-30.39-0.21-2.81 1.38-9.69-1.83-9.61l1-24c13.8 2.68 25.93 4.07 40 4 3.79-0.02 12.29-2.91 15.27-0.3 4.68 4.07 2.9 13.19 6.53 18.21 8.83 12.22 12.4 23.53 18.51 37.09 2.87 6.36 8.25 13.11 9.46 20 4.53 25.81-7.35 52.35-19.69 74-6.16 10.81-6.84 23.48-19.08 30-2.14 7.65-20.31 10.94-17.38 18.89 2.14 5.81 9.15 3.42 13.38 2.14 10.57-3.22 24.13-9.12 29.03-20.03 2-4.44 1.86-9.46 3.57-14 5.06-13.45 11.54-26.21 17.96-39 6.7-13.36 17.24-24.45 19.15-40 1.56-12.65-6.71-21.61-6.71-34h1c4.55 9.75 12.61 16.14 16.15 27 2.85 8.73 0.51 17.16 0.89 26 0.91 20.88 5.29 50.78-7.74 68.96-4.36 6.09-12.41 7.03-18.3 11.04v1c12.6 16.94 42.38-1.22 40.89-20-2.61-33.04 7.59-66.98 3.94-101-1.09-10.11-8.84-11.42-12.23-19.21-8.03-18.47-5.64-35.3-2.81-54.79 1.28-8.76-0.33-17.52 5.21-25 2.8 20.77 5.3 42.18 8.3 63 2.08 14.42 6.3 29.37 6.69 44 0.23 8.82 1.78 16.37 3.3 25 0.54 3.12 1.68 8.15 5.71 8.25 6.98 0.18 5.56-10.16 5.17-14.25-1.01-10.64 4.31-40-9.17-44 0-8.12-3.35-15.03-3.91-23-1.96-28-1.53-65.85-23.6-86.87-11.76-11.19-28.1-20.34-42.49-27.87-6.55-3.42-15.55-5.32-21-10.26-2.45 0.49-6.72-0.12-6-3-5.17-1.39-9.16-7.33-13-10.91-16.43-15.31-21.5-36.9-31.58-56.01-3.1-5.87-10.92-6.65-13.56-13.08-2.58-6.29-0.16-14.35-1.32-21-1.52-8.64-1.66-17.27-2.71-26-0.34-2.86-2.26-6.49-0.83-9-5.72-14.66 2.84-38.59 3.91-53.998 0.43-6.191-0.22-14.007 5.42-18.258 7.61-5.733 31.99 4.686 34.29-8.753 1.44-8.365-19.33-7.666-22.62-16.989 5.79-0.533 14.82-10.596 6.85-14.954-7.28-3.981-14.66 9.281-22.84 7.265-5.62-1.384-7.78-7.077-13.01-9.164-8.838-3.524-19.023-1.251-28-4.252-8.918-2.98-16.578-10.692-26-11.707-6.87-0.7395-16.742 6.113-11.396 13.628 4.892 6.876 16.436 11.483 24.396 13.184z" fill="#000000"/>
</svg>
