<?xml version="1.0" encoding="UTF-8" standalone="no"?>
<svg xmlns:rdf="http://www.w3.org/1999/02/22-rdf-syntax-ns#" xmlns="http://www.w3.org/2000/svg" xmlns:cc="http://web.resource.org/cc/" xmlns:dc="http://purl.org/dc/elements/1.1/" height="202" width="429">
 <path d="m245.88 187.88l3 12h2l5-6c0.6 3.71 1.31 5.81 5 7 3.33-5.29 7.92-1.87 13-1l-2-9c9.12-1.52 0.09-8.82 0-14l-42-3v-2c11.52-4.27 22.43-16.49 23-29 17.68 9.28 33.99 3.03 52 1 1.8 11.65 30.68 21.28 40 15l14 5.44 10 9.56 18-2v-2l-7-3 12-3c-2.95-4.57-10.02-3.99-15-4v-1l6-5c-8.11-5.41-22.47 2.77-32-2-6.88-3.44-8.1-24.77-1-23l-1-4h1l2 2-1 4c2.4-0.09 3.47 1.71 6 2 4.68 0.53 9.4-1.55 14-2 10.64-1.03 18.4 1.54 29-0.67 5.75-1.19 16.29-5.15 19.5-10.5 3.28-5.47-5.49-20.116-8.5-24.831-11.37-17.803-25.45-23.612-42-35.333-6.46-4.573-11-11.56-19-13.667-6.7 8.71-17.67 2.013-18 16-11.41-4.745-22.45-6.963-34-10.749-6.7-2.196-12.25-6.722-19-8.815-24.47-7.584-48.31-6.805-72 2.511-7.28 2.863-13.89 4.143-19.96 9.493-7.68 6.775-13.37 15.77-18.38 24.56-5.32 9.335-10.46 17.56-13.45 28.001-3.19 11.11 3.41 20.16 3.79 31l2 3 2-1 7 15c-13.31-5.54-29.17-14.77-38.08-26.39-9.32-12.15-10.95-27.84-18.53-40.611-9.47-15.966-22.698-29.56-34.936-43.285-6.122-6.867-13.126-12.941-19.13-19.755-4.739-5.379-8.539-12.531-16.325-13.746-3.336-0.521-6.7 0.044-10 0.515-23.246 3.322-14.641 21.671-8.536 37.271 11.582 29.596 29.627 55.971 48.402 81.001 4.176 5.57 6.164 12.55 10.663 17.83 15.178 17.82 45.942 31.44 69.472 31.17 12.88-0.15 25.1-5.12 38-3.83 18.82 1.88 36.4 11.35 55 12.83z" fill="#000000"/>
</svg>
