<?xml version="1.0" encoding="UTF-8" standalone="no"?>
<svg xmlns:rdf="http://www.w3.org/1999/02/22-rdf-syntax-ns#" xmlns="http://www.w3.org/2000/svg" xmlns:cc="http://web.resource.org/cc/" xmlns:dc="http://purl.org/dc/elements/1.1/" height="345" width="425">
 <path d="m42 9l7 21c-9.796 0.081-14.32 5.669-23 8.348-3.902 1.204-8.094-0.026-11.981 1.086-3.138 0.897-4.9426 3.284-4.7713 6.57 0.7533 14.453 24.498 14.482 34.752 15.996 0.865 10.575 6.131 18.997 5.996 30-0.112 9.14-5.993 17.98-2.528 27 4.043 10.53 19.858 13.54 21.188 25 1.648 14.21-7.645 28.51-10.188 42-1.986 10.53-1.031 30.48 12.532 32l-3-7 6 2-3-30h1c0.766 9.62 3.274 23.19 14 26l-1-4 6-1-3-7 3 1c0.935-6.14-6.736-5.41-8.486-11.02-3.208-10.27 3.436-18.3 7.486-26.98h1c2.797 5.34 7.41 7.19 11.58 11.21 10.9 10.51 21.61 21.65 37.42 23.79 1.96 23.94 12.94 46.34 9 71-14.12 0-39.4-5.65-47 10l49 1c-10.46 13.33-36.44 5.08-51 4.09-7.497-0.51-18.53 0.57-21 8.91 21.72-1.27 43.22 3.74 65 4 6.4 0.08 18.29 2.72 23.72-1.6 4.53-3.61 3.28-11.32 3.28-16.4 25.74-0.07 15.88-21.69 20-39 13.44 4.01 27.38 2.54 41 0 2.77 9.6 9.49 18.44 14.55 27 8.38 14.16 17.79 30.59 31.45 40.36 8.81 6.31 20.88 9.04 31 12.57 34.4 12.03 73.09 13.53 109 18.07-0.7-9.05-24.11-10.46-32-11.58-22.21-3.13-44.14-10.1-65-18.05-9.76-3.71-21.27-6.87-28.83-14.47-23.86-24-31.7-62.26-33.13-94.9-0.78-17.9 5.15-38.43-5.03-55-20.36-33.11-65.01-54.74-103.01-58.826-19.08-2.052-38.55 2.949-57-4.293-14.887-5.844-11.438-27.564-24-33.881 3.059-10.999-4.53-14.953-9.31-24-1.875-3.548-4.03-13.468-8.69-7l-10-4m31 173l-1 1 1-1m101 61l-3 19h-1c-2.35-7.4-2.28-13.61 4-19z" fill="#000000"/>
</svg>
