<?xml version="1.0" encoding="UTF-8" standalone="no"?>
<svg xmlns:rdf="http://www.w3.org/1999/02/22-rdf-syntax-ns#" xmlns="http://www.w3.org/2000/svg" xmlns:cc="http://web.resource.org/cc/" xmlns:dc="http://purl.org/dc/elements/1.1/" height="225" width="515">
 <path d="m229.12 16.517l-1.79 16 4.7 13-8.79 13.709-7.71 7.799-14.41-3.596-40-16.941-16-6.971 1-6h4c-0.79-4.556-3.73-5.355-8-6v7l-1 5-63.999 2.296-63 10.704v4c14.343 0.12 21.079 15.331 32.089 22.736 6.404 4.307 15.656 3.259 22.911 4.743 9.414 1.925 19.935 7.611 27.896 12.872 7.913 5.232 7.683 18.562 14.333 22.622 5.78 3.53 19.27-0.19 25.77-0.8 17.78-1.7 52.74 1.09 60.97 19.83 2.48 5.64-3.92 9.8-2.97 16l10-7c1.91 5.45 6.66 6.33 10.41 10.29 9.68 10.21 21.01 18.14 29.62 29.32 2.77 3.6 3.13 16.36 9.76 13.76 6.05-2.37 7.49-13.47 11.6-18.09 5.39-6.06 12.51-9.4 18.61-14.48 7.14-5.95 12.97-13.01 21-17.8 3.51 11.85 11.36 2.37 2-4 10.76-13.9 35.93-18.12 52-22.26 6.55-1.69 10.91-4.17 18-3.65 8.43 0.61 15.86 5.03 24 5.91 3.26-17.25 33.84-29.425 50-31.833 5.17-0.77 13.36 1.536 17.7 0.097 3.54-1.173 3.62-8.172 6.45-10.738 7.08-6.422 19.85-11.559 28.85-14.529-1.23-7.061-22.3-10.167-29-11.923-31.95-8.379-65.02-12.077-98-12.077 0-2.695 0.77-7.14-1.03-9.396-3.15-3.946-7.38-0.003-7.97 3.396h5v4c-10.86 0.497-19.51 6.891-29 11.25-7.64 3.508-16.13 5.431-24 8.343-7.03 2.602-17.78 7.138-24.91 2.549-4.8-3.09-7.23-9.32-9.86-14.142-1.93-3.535-5.28-7.053-6.22-11-1.68-7.105 1.93-15.731 1.99-23l-20 5.916-33-6.916z" fill="#000000"/>
</svg>
