<?xml version="1.0" encoding="UTF-8" standalone="no"?>
<svg xmlns:rdf="http://www.w3.org/1999/02/22-rdf-syntax-ns#" xmlns="http://www.w3.org/2000/svg" xmlns:cc="http://web.resource.org/cc/" xmlns:dc="http://purl.org/dc/elements/1.1/" height="321" width="455">
 <path d="m38.879 103.45h5l-1-4.996 8 3.996v-4.996l8 2c-17.517 11.556-43.561 16.106-48 40.996l5-2v8l4-4h5v4c4.081-1.33 5.5-5.45 9.019-7.89 14.551-10.1 32.977-22.76 50.981-18.11v1c-8.752 4.17-13.329 12.51-21 18.08-5.065 3.67-10.776 4.54-13 10.92l10-2-8 16 5-3h1l5 17h4l-1-6 10 9 1-6 3 6h4c-0.425-5.43-0.53-10.54-0.065-16 1.548-18.15 13.692-24.58 28.976-15.09 7.93 4.93 13.76 13.46 20.18 20.06 10.4 10.69 21.19 21.46 32.91 30.75 8.36 6.63 18.24 11.61 27 17.8 4.84 3.41 9.35 4.32 11 10.48-9.65 2.21-19.21 2.86-29 0.72-4.77-1.05-9.07-4.15-14-4.44-2.91-0.17-23.02-1.58-15 3.72v2l-20 6v2l7 1c-5.7 9.94-12.96 13.33 3 13l1 11c8.24-3.91 12.59-5 22-5l-1 6c7.89-1.21 15.89-6.46 24-8.48 9.66-2.41 19.25-1.26 29-0.43 4.19 0.36 18.63 2.57 14.93 9.59-2.95 5.59-9.63 5.78-14.93 6.65-13.01 2.13-24.7-2.27-38 1.67v2l5 3-15 5v2l7 2-10 16 23 1c-2.6 3.31-3.68 5.05-2 9h1c6.98-4.33 17.63-7.22 18 4 12.83-2.15 24.43-19.73 36-25.86 13.89-7.37 32.25-8.22 46.96-13.77 5.52-2.08 7.36-8.88 13.04-10.72 3.15-1.03 6.74 0.42 10 0.17 9.93-0.75 18.89-3.88 26-10.82 5.06 8 17.97 4.94 26 4.17 22.58-2.15 44.62-8.89 67-10.54 6.89-0.51 22.7-4.52 22.7-13.63 0-9.22-17.55-7.69-23.7-8.03-27.18-1.51-53.62-4.46-80-10.97 12.72-41.77 2.91-100.1-29.29-131.79-11.13-10.949-23.88-14.344-36.71-21.572-16.92-9.537-34.2-14.89-52-22.506-17.19-7.356-34.64-16.16-53-20.113-10.57-2.274-21.33-1.87-32-3.198-16.69-2.078-34.05-11.431-51.001-9.6429-31.332 3.3059-56.593 20.504-67.879 49.826-1.93 5.012-7.297 9.276-6.648 15 0.811 7.158 5.625 7.361 9.84 11.561 4.315 4.3 9.853 12.013 12.687 17.435m166 208l-1 1 1-1z" fill="#000000"/>
</svg>
