<?xml version="1.0" encoding="UTF-8" standalone="no"?>
<svg xmlns:rdf="http://www.w3.org/1999/02/22-rdf-syntax-ns#" xmlns="http://www.w3.org/2000/svg" xmlns:cc="http://web.resource.org/cc/" xmlns:dc="http://purl.org/dc/elements/1.1/" height="174" width="404">
 <path d="m106 128.88v1c-5.99 3.14-6.664 11.82-1.72 16.58 9.34 9.01 22.69 10.74 33.72 16.13 4.87 2.38 12.27 5.27 15.97-0.94 3.03-5.08-1.8-13.13-3.97-17.77 10.08 0.27 20.91 7.44 30.98 4.2 7.26-2.34 6.89-10.59 0-13.31-7.22-2.85-16.47 0.09-23.98 0.11 6.74-8.53 30.06-5 41-5 10.66 0 21.35 0.25 32-0.02 4.42-0.1 9.73-2.15 14-0.49 6.73 2.62 12.42 9.78 19 13.33 8.47 4.58 17.11 4.84 26 7.64 11.05 3.48 17.99 6.96 30 6.2 13.05-0.84 7.88-10.29 0-14.93-5.23-3.09-12.75-0.43-17.68-3.76-7.88-5.31 4.32-18.28 8.68-21.33 1.52-1.07 3.18-1.94 5-2.39 15.9-3.85 6.29 18.72 19 13.75 5.6 9.85 7.29-12.92 6.05-16.96-1.67-5.46-8.47-7.51-13.05-10.04 7.07-2.946 12.18-8.689 19-11.722 10.96-4.871 23.08-6.891 34-12.537 5.24-2.709 14.33-6.974 14.79-13.741 0.42-6.094-6.38-8.085-10.79-10.245-11.41-5.588-24.48-11.753-34.72-19.176-6.81-4.942-16.6-14.382-25.28-15.081-11.09-0.894-14.18 5.39-23.09 8.898-4.75 1.868-11.97-0.049-16.91-0.567-34.77-3.646-71.46-21.269-107-15.505-35.88 5.819-66.66 23.314-86.934 53.675-8.05 12.056-8.899 29.108-20.07 38.811-8.48 7.37-17.042 1.14-25.996-1.32-6.713-1.85-12.18-1.67-19-1.51-3.952 0.1-12.213-1.09-14.914 2.7-1.5949 2.24 1.13 3.73 2.973 4.09 6.835 1.36 13.116 0.03 19.941 2.37 22.219 7.63 49.504 19.87 73 18.86z" fill="#000000"/>
</svg>
