<?xml version="1.0" encoding="UTF-8" standalone="no"?>
<svg xmlns:rdf="http://www.w3.org/1999/02/22-rdf-syntax-ns#" xmlns="http://www.w3.org/2000/svg" xmlns:cc="http://web.resource.org/cc/" xmlns:dc="http://purl.org/dc/elements/1.1/" height="402" width="329">
 <path d="m74 195c1.372 17.39 3.917 35.62 0.779 53-1.267 7.02-6.702 13.08-8.736 20-2.636 8.97-1.929 18.8-3.251 28-1.382 9.61-11.025 29.29-4.05 37.68 4.606 5.55 19.431 7.07 22.516-0.7 2.849-7.17-2.123-12.35-2.669-18.98-0.712-8.64 1.353-26.87 4.405-35 3.219-8.57 9.877-15.65 15.072-23 13.774-19.49 31.644-39.85 40.934-62h1c2.1 5.46 7.65 8.19 9.68 13.17 1.52 3.71-0.86 8.86-0.58 12.83 0.36 5.31 3.96 9.82 4.2 15 0.52 11.31-9.56 20.38-10.89 31-0.65 5.17 3.44 10.68 5.7 15 4.25 8.15 7.27 16.91 11.75 25 10.18 18.35 26.22 38.59 48.14 23 0 11.66 5.06 20.64 5.62 32 0.32 6.4-1.73 15.37 2.89 20.77 6.15 7.19 33.56 6.89 35.24-4.77 1.66-11.47-13.18-9.54-15.43-18.02-5.71-21.49-6.88-45.84-8.41-67.98-1.78-25.79-6.12-46.69 9.09-70 7.31 8.6 4.59 15.84 6.67 26 6.48 31.66-3.65 65.22 4.85 97 3.27 12.23 13.72 14 24.48 14 5.34 0 12.08 0.56 13.68-6 3.32-13.7-14.47-12.65-17.4-22.04-5.16-16.53 0.43-33.56 1.63-49.96 1.27-17.27-2.49-40.14 5.42-55.98 3.19-6.39 11.7-8.83 16.55-14.11 5.13-5.58 9.86-19.6 12.23-26.91 5.21-16.08 10.08-34.04 10.85-51 0.25-5.51-2.05-10.77-1.86-16 0.2-5.17 4.15-9.58 3.47-15-1.04-8.135-11.23-12.35-12.22-20-0.65-5.04 2.52-11.042 3.33-16 1.48-9.158 2.23-18.73 3.27-28 0.64-5.67 2.31-12.792-1.68-17.722-5.19-6.425-17.87-4.818-24.27-1.608-6.98 3.505-12.1 9.524-19 13.056-12.6 6.454-33.81 8.641-48 6.336-13.04-2.117-20.76-18.028-32-23.684-4.19-2.108-11.22-5.1245-15.77-2.35-3.95 2.404-3.23 8.034-3.23 11.972 0.01 11.713 4.37 19.393 7.49 30 0.89 3.025 2.18 11.935-0.85 13.957-3.79 2.53-9.47-1.872-13.64-1.539-13.8 1.101-33.4 2.658-46 8.632-13.71 6.502-23.977 22.205-34.053 32.95-12.726 13.56-27.911 25.54-38.399 41.04-4.013 5.93-4.176 12.9-7.516 18.96-7.765 14.08-16.646 27.44-18.851 44-2.288 17.18 5.277 41.61 25.804 25.47 13.575-10.67 20.541-28.73 32.015-41.47m117 36l3.46 31 13.54 55c-5.25-0.66-12.14-0.54-16.79-3.3-5.81-3.46-8.59-11.97-11.46-17.7-11.62-23.24-10.67-47.79 11.25-65z" fill="#000000"/>
</svg>
