<?xml version="1.0" encoding="UTF-8" standalone="no"?>
<svg xmlns:rdf="http://www.w3.org/1999/02/22-rdf-syntax-ns#" xmlns="http://www.w3.org/2000/svg" xmlns:cc="http://web.resource.org/cc/" xmlns:dc="http://purl.org/dc/elements/1.1/" height="343" width="477">
 <path d="m85 256c4.897 1.44 16.92 0.23 12.802-7.9-2.288-4.5-13.049-10.18-17.802-11.52-7.162-2.03-19.196 6.77-10 12.42l-2 6c-7.701-3.68-9.896-14.94-9.269-23 0.441-5.67 5.557-11.64 7.585-17 5.537-14.64 10.086-29.02 14.393-44 1.722-5.99 2.232-17.32 7.438-21.27 4.879-3.7 12.373-4.24 17.853-6.97 4.03-2.01 6.67-6.14 11.02-7.49 9.32-2.88 18.51-2.14 22.98-12.27 9.44 14.26 17.33 27.54 18.9 45 1.11 12.41-7.36 25.14-10.22 37-2 8.29-1.39 16.74-3.56 25-2.72 10.3-8.02 19.82-10.6 30-1.56 6.14-0.17 13.13-2.08 19-3.44 10.51-23.02 16.79-20.69 30 1.07 6.1 8.19 7.3 13.25 8.33 11.75 2.41 24.4 0.93 36-0.89 3.86-0.61 8.55 0.14 11.57-2.87 7.27-7.28-1.33-21.03 1.03-29.57 1.69-6.12 7.48-11.45 10.5-17 6.57-12.08 12.13-24.8 15.9-38h1c0.24 11.64 3.05 26.22 7.51 37 2.82 6.8 10.08 16.57 9.88 24-0.34 12.74-19.64 21.07-10.38 35.98 9.31 15 31.33-0.09 42.99-2.73 6.39-1.45 14.97 0.45 18.11-7.29 4.33-10.69-4.47-20.82-5.94-30.96-1.69-11.61 0.49-23.29-1.63-35-1.56-8.57-8.54-18.54-8.3-27 0.16-5.95 4.39-13 5.76-19l38 17.84 16 9.16c0.07 8.5-0.16 18.66 1.33 27 0.71 3.98 4.45 8.01 3.31 12.13-2.22 8.03-21.87 16.26-17.45 24.77 2.43 4.67 9.14 6.27 13.81 7.47 11.82 3.04 42.8 7.61 51.49-3.48 3.83-4.88 3.51-13.01 3.51-18.89 0.01-14.82 1.57-30.52-2-45 12.87 7.94 15.79 23.88 22.24 37 2.24 4.54 6.89 11.75 5.37 16.98-2.35 8.08-26.44 20.69-15.29 31.59 3.09 3.02 8.7 3.25 12.68 4.45 11.5 3.5 46.42 9.22 51.85-6.04 5.08-14.25 3.79-39.42 0.25-53.98-2.08-8.57-6.92-16-7.76-25-0.78-8.28 4.96-16.66 5.57-25 0.85-11.61-2.74-21.81-3.1-33-0.23-7.2 2.19-14.61 2.19-22 10.98 29.12-0.51 60.44 7.48 90 1.16 4.3 1.62 28.71 10.24 26.25 3.23-0.92 4.19-6.53 3.54-9.25-2.83-11.88-7.96-22.39-7.99-35-0.01-6.27 2.86-12.74 3.56-19 4.14-36.99 9.92-88.44-21.83-115.56-14.16-12.096-29.5-20.93-45-30.945-12.13-7.836-24.55-16.985-39-20.105-10.6-2.287-22.22 1.094-33 0.57-23.5-1.142-46.58-5.59-70-7.79-10.66-1.002-21.22 1.054-32-0.974-23.16-4.357-40.3-21.862-63-27.587-7.19-1.8136-19.65-0.571-27 0.72-6.94 1.219-10.61 6.079-16.02 9.926-15.685 11.173-36.262 29.089-44.95 46.744-5.333 10.838-5.905 25.322-9.326 37.001-4.987 17.02-14.461 31.19-17.265 49-2.937 18.66 1.562 38.26 1.561 57-0.001 14.09-7.884 31.33-2.866 45 7.013 19.11 44.245 25.42 46.866 0z" fill="#000000"/>
</svg>
