<?xml version="1.0" encoding="UTF-8" standalone="no"?>
<svg xmlns:rdf="http://www.w3.org/1999/02/22-rdf-syntax-ns#" xmlns="http://www.w3.org/2000/svg" xmlns:cc="http://web.resource.org/cc/" xmlns:dc="http://purl.org/dc/elements/1.1/" height="228" width="540">
 <path d="m144 84c0 17.54-2.87 42.56-16.21 55.79-9.45 9.37-37.992 14.07-32.79 32.21-3.445 2.43-2.757 6.21-3.901 10-2.163 7.17-8.751 13.88-6.651 21.96 1.883 7.24 12.957 15.34 20.442 12.03 12.05-5.33-3.96-12.94-6.027-17.05-2.072-4.1 1.227-11.56 3.927-14.72 7.59-8.87 21.99-13.69 32.21-18.55 6.25-2.97 10.5-8.06 16-12.04 14.49-10.48 34.32-19.8 37-39.63 6.08 6.96 16.2 16.39 16.91 26 0.59 8.03-1.02 16.78-4.5 24-1.97 4.07-7.19 8.41-7.19 13.01 0 5.2 6.89 12.14 10.11 15.99 6.8 8.12 17.58 19.73 28.67 20.8 9.26 0.9 21.78 0.04 19-11.8l-3 1c-3.2-8.36-11.61-2.07-18-5.27-6.71-3.37-12.73-18.42-12.74-25.69 0-8.46 11.04-13.24 14.69-20.04 2.81-5.23 3.45-11.43 5.39-17 2.15-6.14 6.88-11.71 8.27-18 1.85-8.43-2.02-22.84-4.61-31 6.06 4.677 9.8 10.119 17 13.626 20.85 10.154 50.34 9.374 73 9.374-3.46 14.54-1.5 31.08-3.28 46-1.58 13.14-7.78 26.63-5.25 40 1.99 10.51 19.06 22.01 29.3 14.26 11.43-8.65-8.89-14.14-14.77-14.26 3.92-8.14 1.71-18.25 3.02-27 0.82-5.5 5.11-9.64 6.45-15 3.12-12.49 1.79-34.72 13.14-43.49 3.97-3.06 11.58-2.61 16.39-3.51 3.8 15.98 18.39 24.13 29.91 34.46 4.6 4.14 7.19 9.94 11.39 14.45 5 5.36 11.9 8.81 17.42 13.59 6.44 5.57 11.27 12.76 18.28 17.87 8.6 6.27 13.93 7.45 24 9 3.86 0.6 9.18 1.33 10.56-3.48 2.89-10.08-21.17-16.16-27.56-21.27-19.42-15.53-33.24-38.64-45.93-59.62-4-6.61-9.44-21.213-5.04-28.699 3.18-5.412 12.51-7.064 17.97-9.301 6.13 9.672 17.94 4.945 26.96 6.603 5.54 1.018 7.41 7.97 14 7.125 3.79-0.487 5.4-3.952 7.72-6.523 9.11-10.131 6.61-28.297-0.36-40.205-2.15-3.658-5.05-9.018-9.36-10.333-5.3-1.613-9.55 1.554-14.96-1.146-13.72-6.846-25.27-7.531-40-10.136-5.9-1.043-11.18-4.037-17-5.056-16-2.805-38.04-1.805-54 1-6.72 1.181-11.47 6.583-18 8.139-12.34 2.938-26.5-0.468-39-0.468-18.74 0-36.55 3.146-55 3.961-17.83 0.787-35.73-0.712-53 5.143-12.1 4.102-23.82 14.025-34 21.546-24.52 18.109-46.741 40.092-72 57.01-15.822 10.6-39.517 0.99-53.468 18.38-5.809 7.24-6.4799 20.02-5.347 28.96 0.635 5.01 3.891 10.14 9.706 8.55 4.502-1.23 3.644-6.05 4.927-9.55 1.684-4.59 5.587-9.28 10.182-11.14 3.776-1.53 8.086-0.52 12-1.58 9.911-2.67 21.576-6.1 31-10.32 8.307-3.72 15.565-10.81 23-16.05 14.93-10.53 29.73-20.209 43-32.91z" fill="#000000"/>
</svg>
