<?xml version="1.0" encoding="UTF-8" standalone="no"?>
<svg xmlns:rdf="http://www.w3.org/1999/02/22-rdf-syntax-ns#" xmlns="http://www.w3.org/2000/svg" xmlns:cc="http://web.resource.org/cc/" xmlns:dc="http://purl.org/dc/elements/1.1/" height="623" width="417">
 <path d="m111 545v-1c8.67-6.7 9.71-18.63 16.26-27 7.01-8.97 16.62-16.1 22.39-26 5.89-10.11 6.91-22.08 12.58-32 6.6-11.55 17.34-21.37 19.77-35h1c0 13.3-8.26 46.31 10 50v1c-11.72 3.23-27.23 20.04-14.78 31.61 7.27 6.74 27.45 8.1 36.78 6.39 0.76 9.62-2.29 30.17 4.51 37.7 4.91 5.42 15.05 2.67 21.49 4.2 19.41 4.62 48.58 18.89 65.78 2.58 11.44-10.85 0.54-38.9-12.78-43.26-11.84-3.86-24.1 2.78-36 2.78 0.71-16.18 16.98-34.3 24.98-48 11.38-19.49 14.87-43.4 8.02-65h1c7.43 17.22 20.3 39.9 34.17 52.67 9.28 8.55 23.3 14.51 30.27 25.33 3.3 5.11-0.13 13.25-0.1 19 0.04 7.18 3.36 15.27 5.66 22-9.97 2.38-16.25 2.82-14 15-2.14-1.75-4.98-5.38-7.98-5.36-7.13 0.04-2.45 11.52-0.37 14.32 4.83 6.48 12.3 4.59 19.35 5.13 14.55 1.12 33.6 8.16 42.91-8.09 7.2-12.56 1.58-32.96 2.92-47 2.47-25.92-12.95-44.93-23.57-67-17.81-37-36.33-75.08-36.26-117 0.03-18.3 5.16-35.82 5.96-54 1.31-29.99-2.49-60.63 1.22-90 0.96-7.53 6.91-13.72 12.82-17.96 4.14-2.97 10.66-5.87 9.64-12.04-2.41-14.57-9.47-27.24-16.81-39.892-1.96-3.374-6.68-3.818-8.23-7.332-3.32-7.537 6.93-13.055 3.66-20.588-2.11-4.852-11.11-9.505-14.98-13.474-12.62-12.966-22.77-30.153-40.28-37.362-26.09-10.745-61.15 20.373-67.96 43.648-3.44 11.773-2.01 30.329-13.04 38.2-12.8 9.12-26.96 15.24-39 25.97-9.12 8.13-14.94 19.29-24.09 27.17-8.17 7.02-20.26 9.32-26.78 17.68-6.41 8.2-7.91 17.57-11.74 26.98-5.18 12.75-10 24.66-13.81 38-3.15 11.03-9.078 21.02-12.092 32-4.579 16.68-5.007 35.74-6.658 53-1.65 17.26-5.934 34.58-4.74 52 1.09 15.93 13.694 23.35 16.771 38 1.22 5.81-3.063 12.19-3.687 18-1.431 13.31 0.544 26.83-0.283 40-0.725 11.55-16.999 21.58-23.127 31-8.558 13.16-8.802 28.18-13.153 43-3.239 11.04-8.886 19.78-6.082 32 3.412 14.86 15.383 14.82 27.471 18.44 18.568 5.56 36.88 15.56 57 8.77 9.36-3.16 22.47-16.4 17.99-27.19-2.29-5.53-9.36-9.65-13.99-13.12-8.45-6.35-17.33-12.8-26-18.9m153-222l9.54 42 10.46 24h-1c-8.23-19.63-31.18-28.53-44-44l25-22m21 67l-1 1 1-1m5 10l1 4h-1v-4m59 138l-1 1 1-1z" fill="#000000"/>
</svg>
