<?xml version="1.0" encoding="UTF-8" standalone="no"?>
<svg xmlns:rdf="http://www.w3.org/1999/02/22-rdf-syntax-ns#" xmlns="http://www.w3.org/2000/svg" xmlns:cc="http://web.resource.org/cc/" xmlns:dc="http://purl.org/dc/elements/1.1/" height="331" width="376">
 <path d="m96 128c2.132 7.26 7.96 14.3 8.39 22 1 18.09-12.337 36.37-19.609 52-2.854 6.13-3.774 14.46-7.519 19.96-4.694 6.91-15.457-0.17-22.262-0.79-4.859-0.44-9.324 0.15-8 5.83-1.959 1.73-1.647 3.66 1.149 4.57 7.831 2.53 16.068 3.08 23.851 6.43-3.179 1.71-7.007 5.66-0.941 6.77 5.944 1.09 7.456-3.13 12.07-5.21 5.681-2.56 10.718-2.76 15.686-7.23 5.005-4.51 6.835-11.57 10.045-17.33 4.21-7.55 10.43-14.33 14.14-22h1c0 22.72 3.65 50.57-5.88 71.94-2.99 6.72-18.954 2.45-20.199 9.19-0.779 4.22 7.249 2.3 9.079 1.87v1c-9.691 4.06-14.867 17.75 0 14 0.68 4.06 3.4 5.97 6 2 6.4 1.44 7.53-4.92 12.44-7.81 5.45-3.21 10.92-4.17 15.34-9.23 11.19-12.82 12.17-36.44 19.08-51.96 3.37-7.56 10.58-13.57 13.26-21 1.95-5.4-5.32-14.72-3.29-17.41 3.06-4.05 15.08 0.98 19.17 1.57 12.08 1.72 29.95-4.68 42-7.16v1c-31.22 15.47-32.72 48.25-21.08 77 4.06 10.02 13.5 17.83 14.08 29-10.08 0-20.49-6.24-30-4.85-10.86 1.59-8.33 22.2-1.54 27.29 5.4 4.04 9.46-1.64 14.54-2.53 11.85-2.08 30.68 2.92 40.77-6.33 4.33-3.96 2.66-9.45 3.44-14.58 1.45-9.46 3.99-19.41 5.79-29h2c4.34 9.1 20.25 19.72 30 22.1 7.5 1.83 18.94 1.16 23 8.9-9.2-3.96-26.72-8.58-35.85-2.14-11.5 8.11 12.61 13.85 17.85 14.14-1.18 6.47 0.56 13.58 8.96 10.26 10.62-4.2 23.21-13.54 30.9-22.04 2.18-2.41 5.89-3.86 6.66-7.28 1.39-6.11-5.81-10.91-9.69-14.4-10.24-9.2-29.22-14.2-30.73-29.54-2.23-22.87 16.41-35.2 25.36-54 7.58-15.93 4.79-39.26 1.54-56 11.72 6.28 15.4 21.35 15.96 34 1.18 26.64-15.03 48.48-7.25 76 2.11 7.45 4.89 20.96 12.39 24.97 5.26 2.81 8.43-2.23 7.51-6.97-3.72-19.14-7.06-33.19-2.37-53 3.85-16.28 8.7-31.28 9.85-48 0.36-5.31 1.98-10.85-0.18-16-3.79-9.07-12.92-21.8-21.91-26.08-7.14-3.39-15.64-3.18-23-6.02-6.03-2.34-10.17-7.47-16-10.126-11.41-5.197-23.46-7.722-35-12.238-20.18-7.896-41.84-17.482-58.96-31.134-9.62-7.667-15.36-19.592-26.04-26.432-29.25-18.736-76.81-21.23-108-7.441-14.272 6.31-23.877 19.416-31.428 32.471-2.045 3.535-6.292 7.714-6.276 12 0.015 4.264 4.2 7.434 6.02 11 3.017 5.914 5.19 13.456 6.104 20 1.052 7.54-4.643 12.69-3.952 20 0.587 6.21 2.772 19.34 7.76 23.44 11.454 9.4 33.906-2.46 43.772-9.44z" fill="#000000"/>
</svg>
