<?xml version="1.0" encoding="UTF-8" standalone="no"?>
<svg xmlns:rdf="http://www.w3.org/1999/02/22-rdf-syntax-ns#" xmlns="http://www.w3.org/2000/svg" xmlns:cc="http://web.resource.org/cc/" xmlns:dc="http://purl.org/dc/elements/1.1/" height="485" width="431">
 <path d="m17.758 200.03c-0.663 2.49-1.236 7.04 2.926 6.54 5.37-0.65 13.617-13.51 18.374-16.94 3.617-2.6 8.572-1.17 12.7-2.13 7.426-1.71 13.751-6.27 19-11.47 0.615 17.08-2.199 33.97-1.996 51 0.262 21.99 4.412 43.2 5.907 65 0.642 9.37-1.34 18.76-0.817 28 0.399 7.07-0.468 16.22 1.339 23 2.986 11.2 6.567 18.79 6.567 31 0 10.55-2.434 21.94-1.892 32 0.328 6.09 3.068 11.93 3.719 18 0.646 6.05-1.892 16.22 5.278 19.26 6.693 2.84 32.147 5.51 28.187-6.25-2.39-7.12-11.04-8.43-14.45-15.02-4.172-8.05-1.04-20.81-11.842-23.99l-2.617-46 3.528-20 0.507-26 11.174-43 10.41-32h2c1.68 19.27 5.28 38.46 3.91 58-0.71 10.06-8.17 20.23-7.27 30 0.65 7.15 6.56 13.24 8.76 20 6.61 20.29 14.49 41.78 23.52 61 3.83 8.17 10.99 17.05 12.73 26 0.75 3.91-2.81 11 0.95 13.98 2.3 1.82 6.67 0.97 9.4 1.04 6.44 0.16 27.46 4.69 30.15-4.13 1.98-6.49-9.85-13-14.15-15.89-17.41-11.66-27.53-26.68-35.11-46-5.98-15.26-11.71-37.51-9.82-54 2.69-23.53 13.41-45.68 17.93-69 13.85 11.36 41.38 18.41 59 21 0 13.61 0.32 30.38 8.65 41.99 3.99 5.57 12.45 7.66 15.23 14.02 1.36 3.09-0.14 6.73 0.51 9.99 1.97 9.87 5.59 19.94 6.38 30 0.8 10.07-5.05 19.96-8.16 29-4.06 11.81-4.56 24.95-5.5 37-0.29 3.84-3.19 8.21-2.66 11.89 0.98 6.91 17.02 4.19 21.55 3.11-0.09 4.31-2.41 10.86 0.03 14.72 3.78 6.03 20.68 5.27 26.97 5.28 4.34 0.01 16.31 3.33 18.34-2.27 1.14-3.18-2.07-5.66-3.71-7.9-6.26-8.54-14.55-9.79-21.35-17.04-8.99-9.58-9.35-28.54-10.19-40.79-0.74-10.79-2.15-25.82 2.05-35.98 2.22-5.37 7.57-8.24 9.34-14.02 2.7-8.83-0.51-18.84 4.59-26.95 8.15-12.96 24.14-12.91 24.93-31.05h1c10.48 28.58 47.75 19.28 63.47 0.9 19.48-22.77 27.22-51.67 26.51-80.9-0.37-15.44 0.38-30.6 1.85-46 0.82-8.63-0.91-13.42 4.17-21h1c9.64 9.04 28.85 1.25 25.6-13-3.62-15.93-23.14-21.44-36.6-26 1.09-3.86 2.77-7.95 2.86-11.997 0.21-9.216-7.79-13.23-15.86-12.278-14.08 1.662-28.36 7.871-40 15.922-11.01 7.613-24.68 22.153-25.78 36.353-0.6 7.72 3.02 15.19 1.78 23-18.05-19.59-27.9-52.18-31.79-77.997-1.38-9.172 6.12-19.268 1.33-27.895-2.15-3.88-6.74-5.169-10.54-6.871-10.36-4.635-26.62-8.756-38-7.021-25.86 3.943-17.96 50.903-47.96 42.353-13.8-3.934-7.2-20.445-10.64-29.551-5.72-15.124-22.52-12.456-34.4-12.144-4.12 0.109-8-1.496-12 0.219-7.46 3.198-11.73 12.411-13.33 19.91-3.47 16.229-1.08 32.359-8.17 47.907-1.87 4.12-5.76 7.11-7.972 11.09-11.139 19.99-20.212 37.86-40.53 50.82-9.078 5.79-18.641 6.31-28 10.85-6.645 3.23-27.007 10.6-13 19.33z" fill="#000000"/>
</svg>
