<?xml version="1.0" encoding="UTF-8" standalone="no"?>
<svg xmlns:rdf="http://www.w3.org/1999/02/22-rdf-syntax-ns#" xmlns="http://www.w3.org/2000/svg" height="524.41" width="372.05" version="1.0" xmlns:cc="http://creativecommons.org/ns#" xmlns:dc="http://purl.org/dc/elements/1.1/">
 <rect height="6.6619" width="273.52" y="396.89" x="49.764" fill="#990000"/>
 <path d="m67.828 353.49v9.69h11.551v4.36h-11.551v18.53c0 2.79 0.376 4.57 1.128 5.37 0.772 0.79 2.326 1.19 4.663 1.18h5.76v4.7h-5.76c-4.328 0-7.315-0.8-8.961-2.41-1.645-1.62-2.468-4.57-2.468-8.84v-18.53h-4.115v-4.36h4.115v-9.69h5.638m44.412 23.23v20.6h-5.6v-20.42c0-3.23-0.63-5.65-1.89-7.26-1.26-1.6-3.15-2.4-5.672-2.4-3.028 0-5.415 0.96-7.163 2.89-1.747 1.93-2.621 4.56-2.621 7.9v19.29h-5.638v-47.43h5.638v18.6c1.341-2.06 2.916-3.59 4.724-4.61 1.829-1.01 3.932-1.52 6.312-1.52 3.92 0 6.89 1.22 8.9 3.66 2.01 2.42 3.01 5.98 3.01 10.7m8.33-13.54h5.61v34.14h-5.61v-34.14m0-13.29h5.61v7.11h-5.61v-7.11m36.16 14.3v5.3c-1.58-0.81-3.23-1.42-4.94-1.83-1.7-0.4-3.47-0.61-5.3-0.61-2.78 0-4.88 0.43-6.28 1.28-1.38 0.86-2.07 2.14-2.07 3.84 0 1.3 0.5 2.33 1.49 3.08 1 0.73 3 1.43 6.01 2.11l1.92 0.42c3.98 0.86 6.8 2.06 8.47 3.63 1.69 1.54 2.53 3.71 2.53 6.49 0 3.17-1.26 5.68-3.78 7.53-2.5 1.85-5.94 2.77-10.33 2.77-1.83 0-3.74-0.18-5.73-0.55-1.97-0.34-4.06-0.87-6.25-1.58v-5.79c2.07 1.08 4.11 1.89 6.13 2.44 2.01 0.52 4 0.79 5.97 0.79 2.64 0 4.67-0.45 6.1-1.34 1.42-0.92 2.13-2.2 2.13-3.84 0-1.53-0.52-2.69-1.56-3.51-1.01-0.81-3.26-1.59-6.73-2.34l-1.95-0.46c-3.48-0.73-5.99-1.85-7.53-3.35-1.54-1.53-2.32-3.61-2.32-6.25 0-3.21 1.14-5.69 3.42-7.44 2.27-1.75 5.5-2.62 9.69-2.62 2.07 0 4.02 0.15 5.85 0.46 1.83 0.3 3.52 0.76 5.06 1.37m46.59 0v5.3c-1.58-0.81-3.23-1.42-4.94-1.83-1.7-0.4-3.47-0.61-5.3-0.61-2.78 0-4.88 0.43-6.28 1.28-1.38 0.86-2.07 2.14-2.07 3.84 0 1.3 0.5 2.33 1.49 3.08 1 0.73 3 1.43 6.01 2.11l1.92 0.42c3.98 0.86 6.8 2.06 8.47 3.63 1.69 1.54 2.53 3.71 2.53 6.49 0 3.17-1.26 5.68-3.78 7.53-2.5 1.85-5.94 2.77-10.33 2.77-1.83 0-3.74-0.18-5.73-0.55-1.97-0.34-4.06-0.87-6.25-1.58v-5.79c2.07 1.08 4.11 1.89 6.13 2.44 2.01 0.52 4 0.79 5.97 0.79 2.64 0 4.67-0.45 6.09-1.34 1.43-0.92 2.14-2.2 2.14-3.84 0-1.53-0.52-2.69-1.56-3.51-1.01-0.81-3.26-1.59-6.73-2.34l-1.95-0.46c-3.48-0.73-5.99-1.85-7.53-3.35-1.54-1.53-2.32-3.61-2.32-6.25 0-3.21 1.14-5.69 3.42-7.44 2.27-1.75 5.5-2.62 9.69-2.62 2.07 0 4.02 0.15 5.85 0.46 1.83 0.3 3.52 0.76 5.06 1.37m7.87-1.01h5.61v34.14h-5.61v-34.14m0-13.29h5.61v7.11h-5.61v-7.11m36.86 18.47v-18.47h5.61v47.43h-5.61v-5.12c-1.18 2.03-2.67 3.54-4.48 4.54-1.79 0.97-3.94 1.46-6.46 1.46-4.13 0-7.49-1.64-10.09-4.93-2.58-3.3-3.87-7.62-3.87-12.99 0-5.36 1.29-9.69 3.87-12.98 2.6-3.29 5.96-4.94 10.09-4.94 2.52 0 4.67 0.5 6.46 1.49 1.81 0.98 3.3 2.48 4.48 4.51m-19.11 11.92c0 4.13 0.84 7.37 2.53 9.72 1.71 2.34 4.04 3.51 7.01 3.51s5.3-1.17 7.01-3.51c1.71-2.35 2.56-5.59 2.56-9.72 0-4.12-0.85-7.35-2.56-9.69-1.71-2.36-4.04-3.54-7.01-3.54s-5.3 1.18-7.01 3.54c-1.69 2.34-2.53 5.57-2.53 9.69m62.55-1.43v2.74h-25.78c0.24 3.86 1.4 6.81 3.47 8.84 2.09 2.01 5 3.02 8.72 3.02 2.15 0 4.23-0.27 6.25-0.79 2.03-0.53 4.04-1.33 6.03-2.38v5.3c-2.01 0.85-4.07 1.5-6.19 1.95-2.11 0.45-4.25 0.67-6.43 0.67-5.44 0-9.76-1.58-12.95-4.75-3.17-3.17-4.76-7.46-4.76-12.86 0-5.59 1.51-10.02 4.52-13.29 3.02-3.29 7.1-4.94 12.22-4.94 4.59 0 8.22 1.48 10.88 4.45 2.68 2.95 4.02 6.96 4.02 12.04m-5.61-1.65c-0.04-3.07-0.9-5.51-2.59-7.34-1.66-1.83-3.88-2.75-6.64-2.75-3.13 0-5.64 0.89-7.53 2.66-1.87 1.76-2.95 4.25-3.23 7.46l19.99-0.03m28.15 6.65v-20.67h5.61v20.45c0 3.23 0.63 5.66 1.89 7.29 1.26 1.6 3.15 2.41 5.67 2.41 3.03 0 5.41-0.97 7.16-2.9 1.77-1.93 2.65-4.56 2.65-7.89v-19.36h5.61v34.14h-5.61v-5.24c-1.36 2.07-2.94 3.61-4.75 4.63-1.79 0.99-3.87 1.49-6.25 1.49-3.92 0-6.9-1.22-8.93-3.65-2.03-2.44-3.05-6.01-3.05-10.7m14.11-21.49m28.6 29.84v18.1h-5.64v-47.12h5.64v5.18c1.18-2.03 2.66-3.53 4.45-4.51 1.81-0.99 3.96-1.49 6.46-1.49 4.15 0 7.51 1.65 10.09 4.94 2.6 3.29 3.9 7.62 3.9 12.98 0 5.37-1.3 9.69-3.9 12.99-2.58 3.29-5.94 4.93-10.09 4.93-2.5 0-4.65-0.49-6.46-1.46-1.79-1-3.27-2.51-4.45-4.54m19.08-11.92c0-4.12-0.85-7.35-2.56-9.69-1.68-2.36-4.01-3.54-6.98-3.54-2.96 0-5.3 1.18-7.01 3.54-1.68 2.34-2.53 5.57-2.53 9.69 0 4.13 0.85 7.37 2.53 9.72 1.71 2.34 4.05 3.51 7.01 3.51 2.97 0 5.3-1.17 6.98-3.51 1.71-2.35 2.56-5.59 2.56-9.72" transform="scale(.84610 1.1819)" fill="#990000"/>
 <rect height="496.37" width="339.71" stroke="#990000" y="14.017" x="16.168" stroke-width="2" fill="none"/>
 <path d="m110.52 65.406l-49.996 42.814h30v271.19l19.996-14.29 20 14.29v-271.19h30l-50-42.814zm151 0l-50 42.814h30v271.19l20-14.29 20 14.29v-271.19h30l-50-42.814z" fill-rule="evenodd" fill="#990000"/>
</svg>
