<?xml version="1.0" encoding="UTF-8" standalone="no"?>
<svg xmlns:rdf="http://www.w3.org/1999/02/22-rdf-syntax-ns#" xmlns="http://www.w3.org/2000/svg" height="524.41" width="372.05" version="1.0" xmlns:cc="http://creativecommons.org/ns#" xmlns:dc="http://purl.org/dc/elements/1.1/">
 <g fill="#990000">
  <path d="m111.83 73.562c0 1.842 0.04 85.918 0.12 87.728 2.29 48.41 34.6 86.84 74.07 86.84 39.33 0 71.54-38.15 74.04-86.3 0.1-1.99 0.16-86.242 0.16-88.268h-95.69l-7.26 29.048 17.25 18.98s-20.13 54.06-22.43 56.94 14.38-54.07 14.38-54.07l-15.53-21.85 5.46-29.048h-44.57zm64.99 177.05c6.86 40.28 5.37 77.43 0 113.12h18.41c-5.23-39.42-3.94-76.67 0-113.03-5.02 1.98-11.96 1.19-18.41-0.09zm-6.54 116l-32.57 12.65 0.36 5.76h94.27l2-5.76-35.93-12.65h-28.13z"/>
  <rect height="6.6619" width="206.52" y="396.89" x="82.764"/>
  <path d="m144.55 349.89v4.67h-5.37c-2.01 0-3.41 0.4-4.2 1.22-0.78 0.81-1.16 2.27-1.16 4.39v3.01h9.23v4.36h-9.23v29.78h-5.64v-29.78h-5.36v-4.36h5.36v-2.37c0-3.8 0.88-6.57 2.65-8.29 1.77-1.75 4.57-2.63 8.41-2.63h5.31m24.56 18.54c-0.63-0.37-1.32-0.63-2.07-0.8-0.73-0.18-1.54-0.27-2.44-0.27-3.17 0-5.61 1.03-7.31 3.11-1.69 2.05-2.53 5.01-2.53 8.87v17.98h-5.64v-34.14h5.64v5.31c1.18-2.08 2.71-3.61 4.6-4.61 1.89-1.01 4.19-1.52 6.89-1.52 0.38 0 0.81 0.03 1.28 0.09 0.47 0.04 0.98 0.11 1.55 0.21l0.03 5.77m21.46 11.73c-4.53 0-7.67 0.52-9.42 1.55-1.75 1.04-2.62 2.81-2.62 5.31 0 1.99 0.65 3.57 1.95 4.75 1.32 1.16 3.11 1.74 5.37 1.74 3.1 0 5.59-1.1 7.46-3.29 1.89-2.22 2.84-5.15 2.84-8.81v-1.25h-5.58m11.19-2.32v19.48h-5.61v-5.18c-1.28 2.07-2.88 3.6-4.79 4.6-1.91 0.97-4.24 1.46-7.01 1.46-3.49 0-6.28-0.97-8.35-2.92-2.05-1.97-3.08-4.61-3.08-7.9 0-3.84 1.28-6.73 3.84-8.68 2.58-1.95 6.42-2.93 11.52-2.93h7.87v-0.55c0-2.58-0.86-4.57-2.56-5.97-1.69-1.42-4.07-2.14-7.14-2.14-1.95 0-3.85 0.24-5.69 0.71-1.85 0.46-3.63 1.16-5.34 2.1v-5.18c2.05-0.8 4.05-1.38 5.98-1.77 1.93-0.41 3.81-0.61 5.63-0.61 4.94 0 8.63 1.28 11.07 3.84s3.66 6.44 3.66 11.64m34.16 2.01c0-4.06-0.84-7.21-2.53-9.44-1.66-2.24-4.01-3.36-7.04-3.36-3.01 0-5.35 1.12-7.04 3.36-1.67 2.23-2.5 5.38-2.5 9.44 0 4.05 0.83 7.19 2.5 9.42 1.69 2.24 4.03 3.36 7.04 3.35 3.03 0.01 5.38-1.11 7.04-3.35 1.69-2.23 2.53-5.37 2.53-9.42m5.61 13.23c0 5.81-1.29 10.13-3.87 12.96-2.58 2.84-6.53 4.26-11.86 4.26-1.97 0-3.83-0.15-5.58-0.45-1.74-0.29-3.44-0.74-5.08-1.35v-5.45c1.64 0.89 3.27 1.55 4.87 1.98 1.61 0.43 3.24 0.64 4.91 0.64 3.68 0 6.43-0.97 8.26-2.9 1.83-1.91 2.74-4.8 2.74-8.68v-2.78c-1.16 2.02-2.64 3.52-4.45 4.52-1.81 0.99-3.97 1.49-6.49 1.49-4.19 0-7.56-1.6-10.12-4.79s-3.84-7.41-3.84-12.68c0-5.28 1.28-9.51 3.84-12.7s5.93-4.79 10.12-4.79c2.52 0 4.68 0.5 6.49 1.49 1.81 1 3.29 2.5 4.45 4.51v-5.18h5.61v29.9m11.55-29.9h5.61v34.14h-5.61v-34.14m0-13.29h5.61v7.11h-5.61v-7.11m17.31 0h5.61v47.43h-5.61v-47.43m46.51 28.96v2.74h-25.78c0.24 3.86 1.4 6.81 3.47 8.84 2.09 2.01 5 3.02 8.72 3.02 2.15 0 4.24-0.27 6.25-0.79 2.03-0.53 4.04-1.33 6.03-2.38v5.3c-2.01 0.85-4.07 1.5-6.19 1.95-2.11 0.45-4.25 0.67-6.43 0.67-5.44 0-9.76-1.58-12.95-4.75-3.17-3.17-4.75-7.46-4.75-12.86 0-5.59 1.5-10.02 4.51-13.29 3.02-3.29 7.1-4.94 12.22-4.94 4.59 0 8.22 1.48 10.88 4.45 2.68 2.95 4.02 6.96 4.02 12.04m-5.61-1.65c-0.04-3.07-0.9-5.51-2.59-7.34-1.66-1.83-3.88-2.75-6.64-2.75-3.13 0-5.64 0.89-7.53 2.66-1.87 1.76-2.95 4.25-3.23 7.46l19.99-0.03" transform="scale(.84610 1.1819)"/>
 </g>
 <rect height="496.37" width="339.71" stroke="#990000" y="14.017" x="16.168" stroke-width="2" fill="none"/>
</svg>
