<?xml version="1.0" encoding="UTF-8" standalone="no"?>
<!DOCTYPE svg  PUBLIC '-//W3C//DTD SVG 20010904//EN'  'http://www.w3.org/TR/2001/REC-SVG-20010904/DTD/svg10.dtd'>
<svg xmlns="http://www.w3.org/2000/svg" height="400pt" width="400pt" xmlns:xlink="http://www.w3.org/1999/xlink">
 <path d="m652.53 241.64a213.33 219.97 0 1 0 -426.65 0 213.33 219.97 0 1 0 426.65 0h-213.33z" transform="matrix(1.0692 0 0 1.0302 -219.36 2.2982)" stroke="#cc0000" stroke-width="37.117" fill="none"/>
 <path d="m472.42 280.77a181.59 183.8 0 1 0 -363.17 0 181.59 183.8 0 1 0 363.17 0h-181.59z" fill-rule="evenodd" transform="matrix(1.1545 0 0 1.1365 -84.786 -67.864)" fill="#ffffff"/>
 <path d="m114.51 300.98c0-1.82-11.82-66.34 0-91.79 21.81-39.08 31.8-74.52 33.62-104.51 0.91 0.91 1.82 48.16-1.82 53.62-10.9 20.9-21.81 44.53-29.08 67.25 0 44.53-1.81 79.06-2.72 75.43z" fill-rule="evenodd" fill-opacity=".57778" transform="translate(3.064 38.162)" fill="#ffffff"/>
 <path d="m109.25 76.296l292.31 307.07" transform="translate(2.9528 14.763)" stroke="#cc0000" stroke-width="37.5" fill="none"/>
 <rdf:RDF xmlns:rdf="http://www.w3.org/1999/02/22-rdf-syntax-ns#" xmlns="http://web.resource.org/cc/" xmlns:dc="http://purl.org/dc/elements/1.1/">
  <Work rdf:about="">
   <dc:title>Clipart by Nicu Buculei - nosmoke</dc:title>
   <dc:rights>
    <Agent>
     <dc:title>Nicu Buculei</dc:title>
    </Agent>
   </dc:rights>
   <dc:type rdf:resource="http://purl.org/dc/dcmitype/StillImage"/>
   <license rdf:resource="http://web.resource.org/cc/PublicDomain"/>
  </Work>
  <License rdf:about="http://web.resource.org/cc/PublicDomain">
   <permits rdf:resource="http://web.resource.org/cc/Reproduction"/>
   <permits rdf:resource="http://web.resource.org/cc/Distribution"/>
   <permits rdf:resource="http://web.resource.org/cc/DerivativeWorks"/>
  </License>
 </rdf:RDF>
</svg>
