<?xml version="1.0" encoding="UTF-8" standalone="no"?>
<svg xmlns:rdf="http://www.w3.org/1999/02/22-rdf-syntax-ns#" xmlns="http://www.w3.org/2000/svg" height="256" width="256" version="1.1" xmlns:cc="http://creativecommons.org/ns#" xmlns:dc="http://purl.org/dc/elements/1.1/">
 <g transform="translate(-310.44 -296.79)">
  <path d="m233 144.5c0 52.19-44.32 94.5-99 94.5-54.676 0-99-42.31-99-94.5 0-52.191 44.324-94.5 99-94.5s99 42.309 99 94.5z" fill-rule="evenodd" transform="matrix(1.1061 0 0 1.1587 286.73 258.86)" fill="#ffffff"/>
  <g transform="matrix(.77359 -.30829 .30829 .77359 -159.6 124.51)">
   <path d="m441 606.2v28.177h3.8077v-28.177h-3.8077zm8.3769 0v28.177h4.5692v-28.177h-4.5692zm9.1385 0v28.177h167.54v-28.177h-38.077v22.085h-4.5692v-22.085h-124.89z"/>
   <path d="m502.79 489.04s-0.55365 31.59-24.156 50.55-31.7 46.194-31.7 46.194 3.2053-36.183 24.156-50.55 31.7-46.194 31.7-46.194z"/>
   <path d="m490.78 494.35s-0.20374 11.626-8.8897 18.603c-8.6859 6.9775-11.666 17-11.666 17s1.1796-13.316 8.8897-18.603c7.7101-5.2873 11.666-17 11.666-17z"/>
   <path d="m487.35 536.78s-0.32038 18.28-13.978 29.252-18.344 26.732-18.344 26.732 1.8548-20.938 13.978-29.252c12.124-8.3139 18.344-26.732 18.344-26.732z"/>
  </g>
  <path style="block-progression:tb;text-indent:0;color:#000000;text-transform:none" d="m316.44 426.29c0 65.899 53.601 119.5 119.5 119.5s119.5-53.601 119.5-119.5-53.601-119.5-119.5-119.5-119.5 53.601-119.5 119.5zm16.655 0c0-23.665 7.9602-45.436 21.339-62.795 9.7345 9.7711 37.795 37.949 70.888 70.94 19.696 19.635 39.384 39.183 54.181 53.713 7.3982 7.2647 13.56 13.275 17.93 17.436 0.69831 0.66483 1.268 1.2007 1.8737 1.7696-17.45 13.645-39.443 21.782-63.367 21.782-56.898 0-102.84-45.947-102.84-102.84zm32.529-75.13c18.376-17.202 43.094-27.715 70.316-27.715 56.898 0 102.84 45.947 102.84 102.84 0 26.943-10.305 51.427-27.195 69.743-0.77635-0.72748-1.6491-1.5672-2.6544-2.5243-4.2438-4.0402-10.406-10.019-17.774-17.254-14.736-14.47-34.396-34.014-54.077-53.634-33.533-33.429-62.259-62.229-71.461-71.461z" fill="#ff0000"/>
 </g>
</svg>
