<?xml version="1.0" encoding="UTF-8" standalone="no"?>
<!DOCTYPE svg  PUBLIC '-//W3C//DTD SVG 20010904//EN'  'http://www.w3.org/TR/2001/REC-SVG-20010904/DTD/svg10.dtd'>
<svg xmlns="http://www.w3.org/2000/svg" height="400pt" width="400pt" xmlns:xlink="http://www.w3.org/1999/xlink">
 <path d="m652.53 241.64a213.33 219.97 0 1 0 -426.65 0 213.33 219.97 0 1 0 426.65 0h-213.33z" transform="matrix(1.0692 0 0 1.0302 -219.36 2.2982)" stroke="#cc0000" stroke-width="37.117" fill="none"/>
 <g fill-rule="evenodd">
  <path d="m472.42 280.77a181.59 183.8 0 1 0 -363.17 0 181.59 183.8 0 1 0 363.17 0h-181.59z" transform="matrix(1.1545 0 0 1.1365 -84.786 -67.864)" fill="#ffffff"/>
  <g stroke="#000000">
   <g stroke-linejoin="round">
    <path d="m111.78 340.06c0.91-0.91 249.91-253.56 262.64-264.46 20.9-8.18 48.16 13.631 46.34 37.26-7.26 6.36-269.9 273.54-269.9 272.63 0-29.08-22.72-42.71-39.08-45.43z" transform="translate(3.064 38.162)" stroke-width="10" fill="#ffffff"/>
    <path d="m321.32 127.4l53.1-51.8c7.27-4.544 43.62-2.727 46.34 38.17-6.36 5.45-51.8 50.89-51.8 50.89 4.55-23.63-25.83-41.8-47.64-37.26z" transform="translate(3.064 38.162)" stroke-width="10" fill="#cccc00"/>
    <path d="m322.91 127.25c11.54 0.01 43.33 10.36 46.09 36.72l6.33-5.67c-4.18-14.54-14.06-33.36-46.35-37.51-0.06-0.45-3.99 4.89-6.07 6.46z" transform="translate(3.064 38.162)" stroke-width="5" fill="#ffffff"/>
   </g>
   <path d="m110.66 340.8c16.7-2.08 43.32 21.4 39.66 44.89-3.65-4.7-6.26 1.05-9.91-3.13-3.66-4.18-5.75-9.92-9.92-4.18-4.18 5.75-7.31 1.05-5.74-5.22 1.56-6.26 0.52 0-6.27-4.69 2.61-7.83-3.65-1.57-6.78-10.44 1.04-5.74 0.52-4.7-5.22-8.35 5.74-2.61 1.04-7.31 4.18-8.88z" transform="translate(3.064 38.162)" stroke-width="1pt"/>
  </g>
 </g>
 <g fill-rule="evenodd" stroke="#000000" stroke-width="1pt" fill="#ff0000">
  <path d="m114.83 343.94s0.52 0.52 3.13 2.08c2.61 1.57 4.18 3.13 0.52 3.13-3.65 0-8.35 5.22-3.65-5.21z" transform="translate(3.064 38.162)"/>
  <path d="m115.88 358.03c0.52 0-0.53-2.09 2.6-4.18 3.14-2.09 9.92-3.65 5.22-0.52-4.69 3.13-2.61 7.31-7.82 4.7z" transform="translate(3.064 38.162)"/>
  <path d="m127.36 374.21s-1.57-1.57 3.13-6.27c4.7-4.69 3.13 4.7-3.13 6.27z" transform="translate(3.064 38.162)"/>
  <path d="m123.7 360.12c5.22 0 8.88 0.52 6.27 3.13s-6.79 0.52-6.27-3.13z" transform="translate(3.064 38.162)"/>
  <path d="m141.45 379.95c-0.52-1.04-9.39-3.13-4.17-6.79 5.21-3.65 5.74 0 4.17 6.79z" transform="translate(3.064 38.162)"/>
  <path d="m145.1 379.43s-5.22-6.27-1.04-5.74c4.18 0.52 0.52 6.26 1.04 5.74z" transform="translate(3.064 38.162)"/>
  <path d="m139.88 360.64s-6.78-3.13-4.17 2.08c2.61 5.22 3.13 6.79 4.17-2.08z" transform="translate(3.064 38.162)"/>
  <path d="m130.49 350.2s-5.74 0.52-2.09 4.7c3.66 4.17 0-2.61 2.09-4.7z" transform="translate(3.064 38.162)"/>
 </g>
 <path d="m136.32 71.056s29.99 57.254 24.53 69.064c2.73 22.72-13.63 48.17-26.35 73.61-13.63 20.91 0.91 77.25-19.08 110.87-2.73-9.08-26.36-66.34-7.28-120.86 11.82-23.63 42.72-59.98 28.18-132.68z" fill-rule="evenodd" transform="translate(3.064 38.162)" fill="#666666"/>
 <path d="m114.51 300.98c0-1.82-11.82-66.34 0-91.79 21.81-39.08 31.8-74.52 33.62-104.51 0.91 0.91 1.82 48.16-1.82 53.62-10.9 20.9-21.81 44.53-29.08 67.25 0 44.53-1.81 79.06-2.72 75.43z" fill-rule="evenodd" fill-opacity=".57778" transform="translate(3.064 38.162)" fill="#ffffff"/>
 <path d="m109.25 76.296l292.31 307.07" transform="translate(2.9528 14.763)" stroke="#cc0000" stroke-width="37.5" fill="none"/>
 <rdf:RDF xmlns:rdf="http://www.w3.org/1999/02/22-rdf-syntax-ns#" xmlns="http://web.resource.org/cc/" xmlns:dc="http://purl.org/dc/elements/1.1/">
  <Work rdf:about="">
   <dc:title>Clipart by Nicu Buculei - nosmoke</dc:title>
   <dc:rights>
    <Agent>
     <dc:title>Nicu Buculei</dc:title>
    </Agent>
   </dc:rights>
   <dc:type rdf:resource="http://purl.org/dc/dcmitype/StillImage"/>
   <license rdf:resource="http://web.resource.org/cc/PublicDomain"/>
  </Work>
  <License rdf:about="http://web.resource.org/cc/PublicDomain">
   <permits rdf:resource="http://web.resource.org/cc/Reproduction"/>
   <permits rdf:resource="http://web.resource.org/cc/Distribution"/>
   <permits rdf:resource="http://web.resource.org/cc/DerivativeWorks"/>
  </License>
 </rdf:RDF>
</svg>
