<?xml version="1.0" encoding="UTF-8" standalone="no"?>
<svg xmlns:rdf="http://www.w3.org/1999/02/22-rdf-syntax-ns#" xmlns="http://www.w3.org/2000/svg" sodipodi:docname="domo-kun.svg" height="128px" sodipodi:version="0.32" width="128px" xmlns:cc="http://web.resource.org/cc/" xmlns:dc="http://purl.org/dc/elements/1.1/" sodipodi:docbase="/home/nicu/Desktop" xmlns:sodipodi="http://inkscape.sourceforge.net/DTD/sodipodi-0.dtd">
 <sodipodi:namedview bordercolor="#666666" pagecolor="#fffffffff" showgrid="false" borderopacity="1.0"/>
 <g>
  <g>
   <path d="m36.25 10.469c-8.297 1.963-10.266 10.95-9.451 18.343-0.276 5.458 2.359 12.057 0.67 16.813-5.322 3.145-6.801 10.781-9.179 16.338-2.645 7.564-4.767 16.407-2.913 24.04 3.652 4.099 8.994-2.333 10.742-2.359 3.109 6.879-0.266 15.189 1.537 22.416-4.566 1.75-12.177 6.53-7.906 12.03 6.029 3.86 13.536-0.45 20.219 1.38 9.933-0.65 22.92 3.71 29.75-6.03 3.137 5.04 8.547 6.51 14.149 5.28 8.692-1.07 17.882 0.78 26.252-1.55 6.4-2.49 4.85-12.77-2.27-12.93-6.95 0.06-9.654-2.89-7.64-9.576 0.61-5.037-0.485-15.972 4.32-6.57 3.37 6.592 11.54 2.165 12.46-3.689 5.25-11.167-0.36-23.983-8.15-32.438-3.95-6.199-8.62-6.253-6.6-14.184-0.5-8.55 2.17-20.367-6.552-25.487-12.651-3.6786-26.26-1.056-39.313-1.841-6.708 0.005-13.417 0.009-20.125 0.014z" sodipodi:nodetypes="ccccccccccccccccccccc" fill="#333300"/>
   <path d="m40.406 34.25c-0.826 4.656 0.847 10.966-0.501 16.254-0.003 4.521-2.707 11.74 0.126 14.656 13.027-0.994 26.082-2.172 39.125-0.535 4.601-0.549 13.243 0.227 11.996-6.432 0.617-7.921-0.623-15.833-0.746-23.724-14.626-0.639-29.689-1.844-44.448-2.161-2.372-0.999-3.72 0.752-5.552 1.942z" fill="#ff0000"/>
   <path d="m46.011 14.404c-2.243-0.07-4.752 0.804-6.852 2.035 1.46-0.913-2.723 2.04-2.766 2.065-0.158 0.219-2.149 2.533-2.393 4.346 0.219 3.663 2.279 4.996 5.642 5.613 4.088 0.369 8.829-1.605 10.656-5.382 0.811-2.962 0.764-5.454-1.311-7.754-0.987-0.617-1.981-0.892-2.976-0.923zm43.96 2.151s-4.174-0.412-5.553 0.332c-2.316 0.588-4.45 3.908-5.126 6.101-0.73 3.947 4.106 6.157 7.335 7.012 4.395-0.131 7.403-3.048 7.941-7.101 0.326-3.702-0.924-5.553-4.597-6.344z" sodipodi:nodetypes="ccsccccccccccc" fill="#000000"/>
   <path d="m36.06 9.4663c-3.458-0.1236-6.317 1.9527-8.576 6.2287-1.822 4.41-1.796 9.454-1.699 14.172 0.211 3.911 0.963 7.757 1.212 11.663l-2.312 4.145c-3.806 5.8-6.434 12.473-8.461 19.112-1.416 5.258-2.944 10.647-2.367 16.131 0.034 0.222-0.859 3.355-0.108 4.744 1.861 3.159 4.518 2.479 7.744 1.277 0.792-0.456 1.978-1.443 3.147-2.588 0.066-0.037 0.113-0.053 0.182-0.094-0.049 0.02 0.921 1.321 1.085 2.367 0.354 3.191 0.268 6.419 0.251 9.625-0.023 2.411-0.02 4.821-0.025 7.231 0.16 0.81 0.29 1.42 0.393 2.07-1.886 0.86-3.715 1.99-5.78 3.2-2.513 1.69-3.283 4.33-3.393 7.2 0.581 2.47 2.502 3.79 4.709 4.69 3.393 0.63 6.754-0.18 10.116-0.55 2.589-0.15 5.144 0.32 7.734 0.37 2.308 0.02 4.617 0 6.924 0.01 2.401 0.26 4.804 0.43 7.224 0.46 2.591 0.09 5.059 0.06 7.543-0.69 3.084-1.21 6.446-2.49 8.191-5.3 1.96 2 3.468 5.72 6.935 6.08 3.801 0.8 10.908-0.91 14.508-0.87 3.691 0.12 5.665 1.25 9.363 1.08 5.31 0.02 7.74 0.32 12.2-3.02 2.5-2.01 3.24-9.02 1.45-11.84-3.72-3.36-8.77-3.62-13.54-4.65 0.16-1.25 0.31-2.441 0.3-4.007 0.37-3.869 0.83-7.736 0.8-11.629 0.02-0.501 3.26 5.507 5.86 6.207 1.26 0.404 2.41 0.231 3.64 0.015l3.67-1.866c1.63-2.306 2.75-4.966 3.74-7.602 1.29-3.909 2.19-7.706 0.97-11.785-1.3-5.42-2.38-10.776-6.38-14.943-3.33-4.137-6.59-8.338-9.73-12.616 0 0-0.1-7.47-0.2-11.353-0.45-4.236-0.19-8.514-0.96-12.723-2.762-9.8907-11.416-10.074-20.011-9.9684-12.944-0.326-44.499-0.0172-46.349 0.0167zm9.21 2.4867c11.225 0.056 23.588-0.121 34.811 0.168 8.166-0.029 16.261-0.272 18.651 9.276 0.716 4.203 0.526 8.467 0.898 12.698 0.012 4.829-0.155 9.676-0.196 14.516-0.056 7.157 0.053 14.307-0.024 21.465 0.002 0.072-0.002 0.144 0 0.216 0 0-1.201 14.38-1.356 17.688 0.031 3.893-0.602 13.91-0.566 14.2l-5.907 0.71c5.696 1.74 14.409 1.53 19.029 5.7 1.47 2.43 1.66 5.47-0.2 7.12-1.59 0.28-5.72 1.26-7.89 1.29-3.702 0.2-7.621-0.04-11.308-0.18-3.607-0.07-6.867 0.82-10.875 1.02-3.515 0.47-5.396-3.31-7.327-5.55-1.406-1.87-2.741-3.12-2.858-5.4 0 0 2.259-2.19 2.971-2.83 0 0-4.303 1.96-4.42 2.11l-0.083 0.04c-0.053-0.08-0.491-5.25-0.113-7.068 0.045-2.319-0.093-4.618-0.339-6.915l-0.02 0.01c0.051-0.248 1.072-2.249 1.174-2.701 0.513-0.025 1.222-0.158 2.254-0.496l3.457-2.514c-3.146 0.03-6.256 1.192-8.289 3.403-1.287-0.824-2.662-1.513-3.516-2.642l-3.914 1.994c1.162 1.868 3.535 2.42 5.206 3.899-0.134 0.209-0.052 9.54-0.074 10.38-2.366-0.59-5.081-0.48-7.484-0.76-0.752-0.15-1.52-0.16-2.278-0.23l-3.374 2.42c0.245 0.02 2.186 0.03 2.323 0.16 3.991 0.48 9.136-0.26 11.54 3.55 0.992 2.34 1.709 4.79 1.159 7.34-0.325 0.54-0.483 0.88-0.6 1.17-0.255 0.14-5.618 1.34-8.2 1.19-2.422-0.01-4.833-0.09-7.224-0.45h-6.934c-2.602-0.04-5.162-0.44-7.758-0.4-3.34 0.32-6.659 1.26-10.033 0.66-2.076-0.87-3.872-1.84-4.419-4.23 0.162-2.45 0.822-4.54 2.627-6.09 1.387-0.56 4.326-1.64 6.575-1.33l3.482-2.53c-1.297-0.06-2.475 0.05-3.585 0.27-0.065-0.93-0.147-1.85-0.304-2.77-0.006-2.401 0.003-4.807-0.015-7.211-0.012-3.23 0.081-6.472-0.26-9.688-0.359-2.502-0.724-5.034-0.526-7.563 0.305-4.164 0.696-8.331 0.771-12.507 0.098-4.216 0.513-8.415 0.629-12.63 0.356-4.098 0.317-8.217 0.167-12.326-0.28-3.902-0.951-7.756-1.223-11.658-0.11-4.706-0.192-9.651 1.846-13.995 0.437-0.971 0.517-1.046 2.814-1.694 3.703-0.238 7.407-0.323 11.108-0.305zm0.741 2.451c-2.243-0.07-5.552 0.004-7.652 1.235 1.46-0.913-2.523 1.84-2.566 1.865-0.158 0.219-1.549 3.533-1.793 5.346 0.019 4.263 3.079 6.196 6.242 6.013 4.088 0.369 8.629-1.805 10.456-5.582 0.811-2.962 0.364-5.654-1.711-7.954-0.987-0.617-1.981-0.892-2.976-0.923zm41.76 0.351s-3.574 0.788-4.953 1.532c-0.116-0.012-4.05 3.508-4.726 5.701-0.73 3.947 3.706 7.957 6.935 8.812 4.395-0.131 9.803-3.448 10.341-7.501 0.526-4.502-3.924-7.753-7.597-8.544zm-41.023 2.46c1.947 2.187 0.582 4.856-0.339 7.673-0.182 0.271-2.954 0.836-4.31 1.154-3.15-0.589-4.771-2.379-4.903-5.917 0.181-0.941 2.501-1.987 4.14-3.079 0.407-0.055 4.642-0.361 5.412 0.169zm39.179-0.405c3.22 0.696 6.508 4.27 6.21 7.595-0.109 0.669-4.392 3.307-4.97 4.168-2.872-0.675-6.968-3.976-6.239-7.407 0.329-0.749 1.532-2.306 1.682-2.773l3.317-1.583zm-42.567 14.187l-3.507 2.44-1.178 0.722c0.234 2.764 0.637 5.514 0.874 8.28 0.013 2.915-0.359 5.835-0.717 8.731-0.279 2.778-0.877 5.501-1.016 8.294-0.068 2.262-0.007 4.544 0.24 6.762 3.642 0.213 7.503-0.449 11.255-0.59 4.577-0.873 9.215-0.912 13.858-0.893 4.113-0.112 8.2 0.214 12.277 0.722 2.468 0.466 4.907 0.017 7.366-0.177 4.162 0.242 5.583-0.378 9.335-2.824 0.117-0.432-0.072-1.144-0.216-1.787l0.024-0.01c0.073-1.109 0.114-2.222 0.27-3.325 0.314-3.754 0.049-7.556-0.162-11.309-0.351-3.334-0.678-6.722-0.422-10.067 0.403-3.909-2.655-2.793-5.736-2.823-4.451 0.019-8.885-0.132-13.317-0.531-5.93-0.297-11.847-0.954-17.777-1.217-3.839 0.223-7.649 0.574-11.451-0.398zm7.999 2.907c-0.716 2.318-2.888 8.81-3.285 9.409-0.003-0.005-0.007-0.006-0.01-0.01-1.647-2.488-3.887-6.653-5.151-9.365 0 0 5.519 0.2 8.446-0.034zm3.624 0.064c3.021 0.129 6.034 0.42 9.05 0.687 0 0-1.851 3.024-2.204 4.346-0.481 1.709-1.726 4.5-2.554 6.787-1.889-3.709-3.075-7.864-4.292-11.82zm13.676 1.036c0.185 0.011 5.623 0.432 8.162 0.491-0.948 2.226-2.562 5.208-3.507 7.022-0.604 1.209-1.214 2.421-1.87 3.605-0.517-0.799-1.296-1.938-1.793-3.929-0.448-2.365-0.857-4.776-0.992-7.189zm17.782 0.501c-0.811 2.086-2.16 5.728-2.559 6.757-0.404 0.977-0.697 1.608-0.982 2.239-0.615-2.687-1.481-6.344-2.725-8.962 0.795 0.007 5.997-0.071 6.266-0.034zm-32.951 2.082c0.714 3.866 3.279 8.159 5.2 11.562 0.837-0.302 5.312-6.728 6.424-10.167 0.206 1.754 0.448 3.507 0.8 5.229 1.094 3.486 1.552 5.434 3.256 5.466-0.006 0.008-0.013 0.016-0.02 0.024 0.017-0.009 0.023-0.015 0.04-0.024 0.894 0.009 2.122-0.494 3.977-1.596 1.454-2.38 2.773-4.837 4.046-7.322 0.046-0.097 0.084-0.197 0.128-0.294 0.953 2.103 1.433 4.37 1.945 6.644 3.611 3.402 7.273-3.765 8.426-6.63 0.02-0.047 0.027-0.121 0.045-0.172 0.036 2.562 0.324 5.124 0.584 7.671 0.181 3.176 0.364 6.393 0.191 9.58-0.799-1.948-3.699-4.118-4.611-5.817l-2.15 1.673c-0.582 1.971-1.058 4.023-1.449 6.079-0.084-0.29-2.577-5.785-4.076-8.122l-3.909 1.994c0.009 0.011 0.016 0.023 0.025 0.034 0 0-2.51 4.617-3.305 6.703-0.163-0.364-6.103-6.373-8.073-9.664l-3.447 1.959-0.108 0.03c-0.006 0.013-0.015 0.03-0.02 0.044l-0.231 0.133c0.037 0.052 0.08 0.1 0.118 0.152-0.996 2.563-2.281 5.695-3.55 8.25-1.226-2.216-4.229-4.583-5.039-6.997-0.22 0.066-2.967 2.502-4.994 6.363-0.596 0.852-1.265 1.622-1.964 2.357-0.119-1.723-0.199-3.464-0.103-5.2 0.138-2.779 0.714-5.491 1.007-8.255 0.253-2.193 0.256-7.416 0.356-9.625 0.28 1.016 2.042 4.568 2.545 5.359 3.275 4.812 6.247-1.838 7.214-5.118 0.226-0.773 0.478-1.536 0.722-2.303zm-26.399 8.751c0.001 2.494-0.078 4.985-0.3 7.474-0.043 4.225-0.53 8.42-0.594 12.644-0.1 4.113-0.832 13.032-0.845 13.298-1.867 2.177-1.273 3.026-2.322 5.166-2.098 0.699-3.987 0.821-5.333-1.262 0 0 0.106-3.252-0.04-4.753-0.563-5.364 0.896-10.714 2.264-15.861 1.891-5.709 3.865-11.643 7.17-16.706zm75.939 3.329c2.27 2.83 4.42 5.766 6.74 8.564 3.75 4.188 5 9.475 6.23 14.801 1.08 4.054 0.1 7.814-1.19 11.658-0.71 1.799-3.15 5.242-3.56 5.121-2.51-0.644-4.55-1.373-5.08-4.179-0.52-3.06-2.91-6.133-2.85-9.246-0.33-2.793-0.34-4.594-0.17-8 0 0-0.11-12.534-0.12-18.719zm-43.681 5.559c1.833 1.989 5.881 6.712 6.04 7.096-3.411 0.006-6.821-0.024-10.2 0.402 0 0 1.546-1.777 1.979-2.578 0.809-1.606 1.491-3.265 2.181-4.92zm14.628 0.457c1.011 1.537 1.868 3.145 2.387 4.959 0.125 0.783 0.385 1.5 0.717 2.186-1.831-0.195-3.664-0.359-5.5-0.457 0.72-1.996 1.551-4.322 2.396-6.688zm9.841 0.967c0.487 1.291 0.862 2.63 1.385 3.914 0.309 0.74 0.657 1.462 0.997 2.185-1.378 0.09-2.745 0.281-4.115 0.368 0.344-1.244 1.459-5.629 1.733-6.467zm-35.769 1.203c0.6 1.856 1.137 3.724 2.068 5.426-2.632 0.157-5.257 0.352-7.867 0.786 0 0 5.647-5.939 5.799-6.212z" sodipodi:nodetypes="ccccccccccscccccccccccccccccccccccccccccccccccccccccccccccccccccccccccccccccccccccccccccccccccccccccccccscccccccccccccccccccccccccccccccccccccccccccccsscccccccccccccccccccccccsscsccsccccccccccccccccccccccccsccccccccccccccccccccccccccccccsccccccc"/>
  </g>
  <path d="m51.368 33.891c-2.927 0.234-8.469 0.062-8.469 0.062 1.264 2.712 3.509 6.856 5.156 9.344 0.003 0.004 0.028-0.004 0.031 0 0.397-0.598 2.565-7.088 3.282-9.406zm3.625 0.062c1.217 3.956 2.392 8.135 4.281 11.844 0.828-2.286 2.082-5.072 2.562-6.781 0.354-1.322 2.188-4.375 2.188-4.375-3.017-0.268-6.011-0.559-9.031-0.688zm13.656 1.063c0.134 2.413 0.551 4.823 1 7.187 0.497 1.991 1.265 3.108 1.781 3.907 0.657-1.184 1.27-2.386 1.875-3.594 0.944-1.814 2.553-4.805 3.5-7.031-2.539-0.06-7.971-0.458-8.156-0.469zm17.781 0.5c-0.268-0.037-5.454 0.038-6.25 0.031 1.245 2.618 2.104 6.282 2.719 8.969 0.285-0.631 0.564-1.273 0.969-2.25 0.398-1.029 1.751-4.664 2.562-6.75zm-27.094 19.719c-0.689 1.655-1.347 3.299-2.156 4.906-0.433 0.801-2 2.594-2 2.594 3.379-0.427 6.808-0.4 10.219-0.407-0.159-0.383-4.229-5.104-6.063-7.093zm14.657 0.437c-0.846 2.367-1.687 4.692-2.407 6.688 1.836 0.098 3.67 0.274 5.5 0.468-0.331-0.685-0.594-1.404-0.718-2.187-0.519-1.814-1.365-3.432-2.375-4.969zm9.812 0.969c-0.274 0.837-1.374 5.224-1.719 6.469 1.371-0.088 2.748-0.285 4.125-0.375-0.34-0.724-0.69-1.417-1-2.157-0.523-1.283-0.919-2.646-1.406-3.937zm-35.75 1.219c-0.152 0.273-5.812 6.218-5.812 6.218 2.61-0.434 5.243-0.656 7.875-0.812-0.931-1.703-1.463-3.55-2.063-5.406z" fill="#ffffff"/>
 </g>
</svg>
