<?xml version="1.0" encoding="UTF-8" standalone="no"?>
<!DOCTYPE svg PUBLIC "-//W3C//DTD SVG 20010904//EN" "http://www.w3.org/TR/2001/REC-SVG-20010904/DTD/svg10.dtd">
<svg xmlns:rdf="http://www.w3.org/1999/02/22-rdf-syntax-ns#" xmlns="http://www.w3.org/2000/svg" xmlns:xlink="http://www.w3.org/1999/xlink" xmlns:cc="http://web.resource.org/cc/" xmlns:dc="http://purl.org/dc/elements/1.1/" height="80pt" width="120pt">
 <path d="m79.09 27.271c-3.562 4.05-0.876 12.418-2.176 17.871-6.366 0.09-4.078 9.406-2.971 9.297-6.892-2.541-10.481 5.39-16.63 2.568-3.636-2.274-7.083 1.941-1.719 2.567 2.983-0.021 8.185 2.854 5.097 4.995-18.003-0.298-36.013-0.615-53.991-1.658-0.7109-1.998-1.424-3.996-2.1332-5.995-1.0839 1.289 0.6245 4.286 0.6294 6.24 0.4646 1.862 2.5822 1.958 4.4006 2.393 5.6882 0.451 11.375 0.903 17.063 1.355 3.043 2.739 9.774 1.587 14.09 2.985 4.601-0.299 6.486 2.093 9.647 4.392 2.306-0.774 6.705-2.702 8.325-0.05-0.209 1.442-2.948 1.265-1.596 4.649 3.245 0.377 1.803-1.683 4.54 0.331 2.357 0.192 1.802-6.313-1.167-4.093-0.842 1.998-0.127-3.005 2.6-0.601 2.462 0.781 4.613 1.192 3.865-2.134-0.085-3.864 2.976 1.896 1.534 1.141-2.314 0.212-0.013 4.316 0.965 2.689 3.803 0.301-0.033-2.75 0.294-4.184 0.957-2.696 3.154-0.203 3.735 1.553 1.482 3.051-3.682-0.926-1.435 4.159 3.094 1.196 1.506-2.257 3.632 0.332 3.198-2.128-0.797-3.652-0.713-3.511-1.557-3.536 7.279-5.215 7-2.077-0.421 3.3 2.701 1.464 4.628 1.323 2.278 0.272-4.135 1.156-1.014 4.495 2.195-0.703 2.863-1.607 5.145 0.058 2.967-3.486-1.097-4.041-1.824-4.433 0.896-3.9 8.633 1.925 8.9-4.373-1.954-2.615 0.213-3.915 2.061-2.907-0.992 3.366 1.658 2.48 3.928 2 6.6-1.078 13.19-2.18 19.79-3.243-1.41-2.791 3.07-1.487 4.68-2.175 4.72-0.547 9.44-1.102 14.16-1.644-0.67-2.523 3.99-0.327 3.14-3.564 0.13-1.035 1.89-6.381 0.19-4.066-0.39 7.659-8.88 4.962-14.03 6.28-15.53 1.373-31.08 2.977-46.659 3.483 3.694-2.109 9.716-2.971 14.222-4.776 2.687 0.073 10.167-4.422 3.837-3.541-6.546 1.315-13.017 2.97-19.515 4.497 0.173-3.203-5.625-3.165-1.242-5.138 2.652-4.083-1.64-6.247-2.851-9.662-0.453-5.723 1.389-12.663-0.432-17.828zm-0.187 0.533c0.949 5.691-0.476 12.12 0.301 17.848 0.589 3.585 6.455 6.161 1.504 9.879-3.69 1.152 3.631 2.539 2.763 4.988 7.192-1.636 14.32-3.625 21.599-4.813-2.37 2.391-9.327 3.397-13.389 5.015-3.317 0.198-11.645 3.924-3.829 3.545 18.808-1.235 37.668-2.448 56.338-4.957 1.2-4.102 1.35-1.462 0.1 0.22-2.99-0.483-2.04 2.351-5 1.846-5.6 0.654-11.21 1.29-16.81 1.954 1.44 2.771-3.02 1.657-4.63 2.425-5.8 0.95-11.6 1.9-17.4 2.85 0.86-3.139-1.036-3.229-3.581-2.589-2.347 0.043 2.946 5.551-1.827 6.213-2.327-0.066-7.831-1.666-6.714 2.818 2.011-0.305 3.87 0.645 1.695 2.849-0.883-2.953-3.908-0.252-4.289-0.442-1.458-4.994 3.76 0.62 2.176-4.482-1.621-0.247-5.061 2.163-5.278-0.137 0.577-5.279-5.784-1.182-8.255-0.843-0.385 1.263 0.221 5.586 1.262 3.354 1.265-0.458-0.325 3.986-0.671 0.768-2.059-0.401-1.983 3.851-2.565-1.038 1.441 1.763 2.232-0.084 1.585-2.493-1.156-2.252-5.347-3.636-4.799 0.029 0.731-2.341-3.802-3.188-2.795-0.433 0.882 3.518-2.318 1.813-4.406 1.53-2.721-2.117-3.141 2.663-1.676 2.943 1.221-2.664 3.273 0.676 1.369 1.984-1.544-2.264-2.43-0.663-3.993-0.144-0.506-4.046 0.311-1.461 1.788-1.802 0.095-2.366-0.009-4.554-2.98-4.206-3.487-0.036-1.575-6.857-6.864-5.637 1.152-0.246 4.319 0.833 6.247 1.098 3.188 0.667 6.375 1.334 9.563 2-0.628-1.509-4.176-1.088-5.949-1.841-3.796-0.795-7.594-1.578-11.388-2.381 1.576 2.758 9.356 3.289 4.655 7.487-4.908 2.32-4.527-5.508-9.898-3.584-5.027-1.228-11.619-0.81-15.682-3.047-2.624-0.72-6.051-0.546-8.978-0.928l-10.191-0.807c-1.206-0.722-3.2402-2.518-2.5731-3.75 0.4611 4.651 6.5981 1.736 9.6881 2.831 17.276 0.719 34.694 1.203 51.872 1.178-0.362-1.853-5.238 0.977-4.94-1.666-1.21-3.54 2.523-1.058 4.401-0.835 3.921 1.269 1.193-0.72-1.168-0.917-4.078-1.255-8.294-1.884-12.185-3.745 2.305-2.136 7.804 0.973 11.137 0.858 2.802 0.468 5.603 0.937 8.405 1.405-0.73-1.452-4.218-0.912-6.023-1.588-6.835-0.15 1.858-5.195 5.116-3.82 3.245 0.676 5.041 1.148 3.775-2.883 0.756-2.298 3.698-5.206 0.101-2.071-0.351 3.521-1.379 5.281-2.778 1.031 0.222-5.352 7.317-4.513 4.852-10.841 0.578-3.917-0.232-8.713 1.212-12.226zm12.206 38.653c-2.901 0.888-5.803 1.777-8.704 2.666 1.264 0.988 4.175-1.066 6.082-1.264 0.589-0.537 3.283-0.254 2.622-1.402zm-22.886 7.566c1.269 0.275 3.682 0.937 1.569 1.54-1.22-1.29-1.536 2.137-1.569-1.54z" fill-rule="evenodd" fill="#000000"/>
 <path d="m35.536 4.3987c-25.418-3.7593-38.39 37.791-13.463 47.423 20.149 11.633 51.15-10.702 38.098-33.168-4.727-8.7709-14.548-14.916-24.635-14.255zm0 0.7329c24.875-4.1735 37.103 37.612 12.785 46.144-21.937 13.55-53.444-17.302-33.208-37.336 5.079-5.7056 12.705-9.3466 20.423-8.8084z" fill-rule="evenodd" fill="#000000"/>
</svg>
