<?xml version="1.0" encoding="UTF-8" standalone="no"?>
<!DOCTYPE svg PUBLIC "-//W3C//DTD SVG 20010904//EN" "http://www.w3.org/TR/2001/REC-SVG-20010904/DTD/svg10.dtd">
<svg xmlns:rdf="http://www.w3.org/1999/02/22-rdf-syntax-ns#" xmlns="http://www.w3.org/2000/svg" xmlns:xlink="http://www.w3.org/1999/xlink" xmlns:cc="http://web.resource.org/cc/" xmlns:dc="http://purl.org/dc/elements/1.1/" height="160pt" width="160pt">
 <path d="m54.085 41.354c-4.559-0.832-9.42 2.896-4.428 5.576 4.99 10.702-5.683 12.304-12.726 16.105-1.916 4.984-13.075 12.056-3.497 10.977 9.72 2.448 14.381 6.072 17.516 15.19 6.083 1.33 0.706 8.699-1.654 7.815-4.592-5.394-1.274-1.041 1.757-1.137-7.828-1.613-13.543-17.551-12.879-17.399-0.545 3.874 4.663 12.015-0.693 5.111-8.246-9.637-17.396-18.625-24.761-28.941 1.056-7.82-13.256 5.263-3.6446 3.562 5.4286 6.1 11.6 12.841 16.57 18.543-6.951 9.331-12.291 21.628-7.517 33.144 3.428 10.27 5.561 21.71 12.446 30.28 8.866 1.51 15.326 12.37 25.273 9.96-12.726 1.9-5.564-15.41-2.108-22.29 5.43-10.62 12.816-20.21 21.249-28.616-7.094 4.436-13.339 14.686-18.55 22.336-5.704 7.54-7.946 20.31-9.493 26.54-7.651-4.36 0.011-17.4 2.883-24.46 5.677-10.65 13.031-20.42 21.535-28.973-6.271 3.786-11.843 12.903-16.76 19.563-6.096 9.5-12.034 20.21-11.24 31.88-8.957-5.42-2.491-19.26 0.657-27.2 3.105-5 8.321-15.54 12.047-16.18 6.415 3.72 1.054-8.179 7.69-9.164 8.541-9.131-5.807 6.434-4.496 1.316-0.296-5.112-2.853-14.916 4.342-7.265 9.396 7.338 19.371 17.493 18.071 30.423-0.507 6.58 2.191 22.36-0.364 22.82-2.936-4.67-9.797-9.52-0.576-6.79 3.63-1.4-9.33 0.11-8.648-5.11-4.635-5.2-10.313-10.5-2.008-15.43 2.987-7.28 7.09 5.47 11.194 1.79-7.283-0.06-8.766-6.71-3.845-9.76-10.697 9.42-20.59 20.93-24.132 35.23-1.558 3.44 0.49 13.73 0.134 4-0.023-4.97 5.119-19.13 3.561-6.72-0.062 10.54-0.912 21.37 2.783 31.45 1.556 8.27 3.526-7.36 3.215-10.07 0.747-5.62-2.791-18.99 0.515-19.47-2.146 3.35 2.979 12.39 0.304 3.76 0.44-7.02 9.837 6.77 15.839 3.9-1.096 0.54-19.279-0.53-15.645 1.42 9.637-2.7 19.619-0.38 24.013 9.21 1.891 4.37 15.636 15.01 8.425 3.78-2.405-8.24-13.182-14.2-13.374-21.76-0.905-10.78 0.296-21.84-1.829-32.44-4.305-10.437-13.155-18.746-22.815-24.244-1.127-4.263-1.725-11.721 4.793-5.891 11.624 7.97 21.505 19.924 24.856 33.795 1.132 11.48 2.122 23.49-1.16 34.7 1.75 0.87 3.262-13.43 2.851-18.23 0.096-10.89-0.564-22.41-7.422-31.448-6.232-9.111-13.948-18.439-24.731-22.107-0.85-9.997-1.75-19.99-2.659-29.982 2.384-1.06 1.544-3.39-0.864-3.099zm-1.643 0.857c7.071 0.642-8.313 5.299-1.683 0.098l1.683-0.098zm1.589 3.598c1.622 19.116 3.686 37.046 4.641 56.201-5.761 1.38-2.795-11.21-4.551-15.322-0.595-5.281-2.152-20.614-1.976-20.309 1.386 11.787 2.773 23.575 4.159 35.361 1.411-1.928 0.023-6.507 0.161-9.433-1.924-15.183-3.368-30.953-5.591-45.77-0.374-1.245 2.328 0.613 3.157-0.728zm-42.781 7.561c1.469 3.772-8.7801 5.353-1.9968 0.262 0.3947-0.205 1.5798-0.184 1.9968-0.262zm50.424-0.413c-4.338-0.783-8.273 2.505-1.609 0.711 6.983 5.439 16.166 9.033 23.322 14.889 12.226 11.422 23.623 25.35 27.343 42.023 0.13 8.64 4.45 19.29-1.44 26.33-1.61 3.23-8.58 9.77-4.81 2.69 2.02-10.03 1.52-20.65-0.82-30.57-6.6-15.841-16.539-30.832-30.016-41.633-4.882-1.799-14.868-7.819-16.527-7.987 6.448 6.021 15.98 6.062 21.647 13.191 10.709 11.219 20.224 24.366 24.946 39.249 1.27 10.36 3 21.76-1.59 31.5-11.45 7.85-3.805-11.59-5.13-18.04 0.838-14.74-5.784-28.721-15.701-39.329-6.472-6.745-15.059-16.284-23.748-17.39 14.754 6.111 25.801 19.156 33.659 32.699 7.442 13.38 4.692 29.1 3.941 43.6 0.541 2.84-14.333 3.11-4.55 2.89 8.398 0.55 13.449-6.43 20.309-5.86 15.39-0.91 30.88-2.44 46.31-1.54 7.77-0.94 17.78 2.45 23.87-3.57 4.07-2.97 16.68-3.28 13.34-11.11-9.72-8.88-24.52 0.84-34.19-8.55 1.41-7.66 15.02-3.34 21.64-3.31 4.29 0.64 18.01 2.54 6.51-0.34-4.45-0.79-10.56-1.32-2.82-0.9 6.82-0.81-10.34-1.55-12.69-1.52-8.19 0.83-22.63-1.99-25.45 7.87 6.9 6.25 17.88 3 26.46 3.63 5.74 0.04 21.35-1.73 17.8 7.23-14.53 6.1-29.58 6.35-45.03 8.29-12.32 1.35-25.3 0.68-37.66 0.64 5.56 2.32 20.26-0.08 21.96 0.79-7.07-0.06-19.92 2.64-22.97 0.41 7.56-8.65 10.42-19.82 13.61-30.59-1.9-12.975-8.16-25.01-13.01-37.117-2.36-9.142-10.539-15.083-19.936-14.944-8.412 0.423-16.336-3.729-24.769-4.141l-2.201-0.191zm-0.034 0.677c6.924 2.044 19.89-0.729 20.181 9.346 1.141 8.678-1.05-7.538 0.146-5.471 5.761 0.601 18.863 1.008 18.303 5.156-4.434-0.177-19.361 11.932-8.806 4.812 6.766-4.876 13.956-6.746 15.776 3.486 3.1 8.669 11.14 21.908 9.84 28.408-4.99-0.449-9.51-4.913-12.86-6.879 4.89 7.848 18.43 5.04 16.72 16.638-2.17 6.4-5.56 20.49-8.16 21.61 0.02-9.46-0.3-19.27-3.64-28.22 1.3 4.32 18 8.69 7 4.25-8.46-2.39-9.15-11.094-14.13-17.493-8.036-6.472 7.16-6.28 8.01-11.047-5.97 4.927-12.957 8.451-16.524-0.373-6.346-7.689-14.078-14.414-23.34-18.136-2.675-1.922-6.898-5.391-8.516-6.087zm-49.377 2.193c12.019 15.963 26.56 29.796 38.898 45.513-0.058 3.09-4.829-3.308-6.805-4.784-7.903-8.813-15.806-17.627-23.708-26.44 9.751 10.604 19.502 21.207 29.253 31.814 0.034-2.371-3.683-5.089-5.281-7.534-11.348-12.337-22.988-24.529-34.335-36.866-2.2444 1.243 1.752-1.237 1.978-1.703zm38.299 1.093c-0.579 6.331 5.568 20.387-4.753 13.979-3.802 0.247-14.302-8.841-6.643-1.756 6.752 2.892 15.966 3.05 13.772 12.828 0.233 3.943 2.73 13.314-2.157 5.929-4.001-5.94-4.404-9.08 2.034-6.875-6.637-2.603-18.325-6.481-21.274-9.323 3.825-8.747 10.731-10.444 19.021-14.782zm45.074 2.423c-3.385-0.4-13.935 6.456-11.704 6.477 3.025-3.307 8.885-4.443 11.704-6.477zm-51.833 1.321c-0.483 3.854 13.198 7.374 3.116 2.723-1.156-0.752-2.306-1.584-3.116-2.723zm61.027 6.691c-3.74-0.183-14.827 5.824-12.954 6.233 3.585-3.177 9.684-4.214 12.954-6.233zm2.48 5.657c-5.04 0.889-17.953 11.08-6.3 3.735 1.2-1.509 6.47-2.044 6.3-3.735zm-81.174 4.235c4.846 4.721 1.886 13.775 8.185 18.903 1.643 3.398 15.914 14.66 6.87 6.18-6.178-4.116-13.379-16.796-11.352-20.971 3.624 3.202 5.178 6.901 7.556 10.907 3.885 5.658 15.759 8.604 6.158 15.394-5.176 6.79-6.315 16.29-15.663 18.67-8.337 3.56 8.343-1.28 8.612-5.13-4.151 5.08 0.219 18.29-5.03 18.53-6.413-6.23-7.908-16.31-11.084-24.55-3.269-6.94-4.624-21.7-1.326-23.832-0.557 11.712 8.636 20.282 17.169 26.842-4.79-6.13-15.265-12.27-16.13-22.162-2.926-4.664 3.081-16.122 3.994-14.147-2.09 11.265 4.277 22.119 13.442 28.289 7.857 5.47-5.656-5.29-6.999-7.4-6.09-6.306-7.133-17.115-5.2-24.263l0.798-1.26zm74.654 6.979c-0.51 4.656 16.21 10.039 13.59 8.024-5.11-1.289-10.18-3.937-13.59-8.024zm-39.811 1.812c-4.76 3.74 0.158 2.937 0 0zm-25.611 1.508c3.37 3.755 6.741 7.51 10.112 11.264-3.898-3.225-8.118-6.433-10.112-11.264zm18.853 5.573c4.202 8.521-4.158 13.141-7.782 20.161-5.643 8.78-8.983 19.32-7.819 29.83-9.018-5.88-1.974-20.38 1.541-28.66 3.693-4.93 5.678-13.19 11.553-11.46 0.019-4.137-1.765-6.261 2.507-9.871zm109.8 19.261c-10.28 0.58-3.39 9.79 3.29 9.54-5.26 0.52-24.99 0.48-15.46-7.7 3.95-1.97 7.86-1.69 12.17-1.84zm-93.792 1.78c-1.719 5.85 18.564 9.51 5.658 5.49-2.275-1.37-4.149-3.33-5.658-5.49zm-38.011 0.98c-2.915 2.12-17.279 1.62-6.522 2.2 1.159-0.18 7.664-0.3 6.522-2.2zm33.725 3.83c1.629 4.32 10.788 9.78 15.398 9.25-5.85-1.5-11.376-4.74-15.398-9.25zm-1.558 2.5c10.374 13.42 20.667 25.44 29.829 39.72 2.44 4.44 5.256 8.3 0.059 2.68-0.535-2.54-4.027-6.07-5.704-8.76-8.296-10.74-17.175-21.05-25.471-31.79-0.173 2.38 3.978 5.72 5.372 8.3 7.975 10.33 15.804 20.23 23.78 30.56-10.626-12.52-20.221-25.53-30.033-38.79 0.71-1.04 1.329-0.98 2.168-1.92zm-2.575 2.53c2.905 4.66 12.305 14.99 10.949 15.81-6.312-4.25-13.249-7.3-10.949-15.81zm-1.054 2.16c-0.131 13.55 1.786 26.6 0.641 40.1-1.428 9.11-4.305-11.94-3.524-16.79 0.003-4.17-0.318-19.03 0.226-17.34 0.091 9.62 0.328 20.85 0.418 30.47 1.599-1.79 0.431-7.99 0.88-10.89-0.072-7.51 0.002-15.75-0.07-23.26 0.669-1.22 0.595-1.19 1.429-2.29zm133.74 1.11c0.34 1.63 0.08 1.22 0 0zm-1.52 3.4c-6.48 2.73-12.38 5.76-18.61 8.45-9.77 0.42-19.56 0.06-29.35-0.08 16.01-1.86 32.89-2.23 47.96-8.37zm-131.09 1.21c3.479 6.1 18.282 10.49 15.277 14.92-6.582-2.24-17.474-6.28-15.277-14.92z" fill-rule="evenodd" fill="#000000"/>
</svg>
