<?xml version="1.0" encoding="UTF-8" standalone="no"?>
<svg xmlns:rdf="http://www.w3.org/1999/02/22-rdf-syntax-ns#" xmlns="http://www.w3.org/2000/svg" sodipodi:docname="shadow.svg" height="320" sodipodi:version="0.32" width="480" version="1.0" xmlns:cc="http://web.resource.org/cc/" xmlns:dc="http://purl.org/dc/elements/1.1/" sodipodi:docbase="/home/nicu/Desktop/svg" xmlns:sodipodi="http://inkscape.sourceforge.net/DTD/sodipodi-0.dtd">
 <sodipodi:namedview bordercolor="#666666" pagecolor="#ffffff" borderopacity="1.0"/>
 <g transform="translate(-88,-91)">
  <path d="m95.096 207.78c20.064-10.1 43.014 0.03 64.354-3.24 134.07 1.24 268.14 1.99 402.2 0.13-20.86 8.44-43.75 0.4-65.48 3.42-133.63-0.61-267.78-2.27-401.07-0.31z"/>
  <path d="m234.41 125.25c-17.52 2.27-37.01 2.1-51.12 14.4-15.03 9.83-30.21 22.63-33.65 41.24-0.62 6.04-6.23 18.64-3.61 20.55 8.37-8.5 3.84-22.8 11.16-32.38 7.82-14.29 22.37-23.14 35.61-31.77 19.45-9.57 42.17-8.73 63.13-6.21 30.19 5.98 56.68 27.99 69.18 55.93 1.5 3.77 5.3 24.89 8.12 15.36-4.45-20.19-15.65-38.42-31.63-51.53-16.76-15.5-39.03-24.1-61.77-24.85l-2.72-0.32-2.7-0.42z"/>
  <path d="m186.69 225.7c90.13 5.78 180.43 7.91 270.64 11.96-1.06 15.5-31.69 7.99-43.96 13.16-70.57 7.91-140.81 19.26-211.54 25.34-8.6-1.08-47.06 4.38-23.59 5.87 108.51 10.49 217.86 2 326.38 12.35 12.01 14.5-24.01 12.13-33.04 13.92-79.67 2.97-159.55 2.85-238.98 10.43-8.73 1.43-30.13 6.46-10.37 11.27 56.66 14.43 115.45 16.5 173.43 21.66 10.46 3.19 39.56-2.64 38.58 10.4-7.69 7.72-36.52 1.17-12.73 0.45 27.15-6.68-17.5-8.85-27.01-9.99-55.41-5.52-111.18-8.46-166.06-18.3-15.16 5.34-25.93-20.79-4-14.56 40.57-7.63 82.13-5.73 123.18-8.04 53.23-1.68 106.57-3.36 159.47-9.87-8.88-14.19-39.23-3.1-54.73-7.98-88.38-6.33-172.09-3.84-260.53-7.87-10.49 2.7-34.87-8.48-11.38-9.99 91.03-6.82 181.85-18.12 271.72-34.04 5.12-5.48-22.47-1.92-28.79-3.96-78.84-4.18-157.78-8.26-236.69-10.83v-1.38z" sodipodi:nodetypes="cccccccccccccccccccccccc"/>
  <path d="m312.78 181.75c-1.38 2.04-4.31-0.33-5.79 1.53-3.04 2.57-3.53 6.87-3.27 10.6-0.18 4.13-1.91 8.12-1.34 12.29 0.07 3.12-0.69 6.19-1.84 9.05-0.55 3.05-0.4 6.26-1.72 9.12-0.62 2.24-1.14 4.59-0.77 6.92 3.57 3.25 3.61 8.76 7.18 12.01 2.12 1.02 2.11 3.69 2.07 5.71 0.06 7.14 0.2 14.28-0.24 21.41-0.68 1.48-1.62 3.63-0.23 4.98 1.46 1.04 2.95-0.84 3.13-2.22 1.36-6.31 0.74-12.78 0.53-19.16-0.03-2.14-0.07-4.31 0.18-6.44 0.58-0.67 0.19 1.87 0.33 2.42 0.1 6.6 0.51 13.19 0.77 19.78 0.02 1.78 0 3.57-0.08 5.34-1.75 1.67 1.16 4.87 2.96 3.25 1.26-1.92 0.03-4.2 0.42-6.27-1.42-1.87 2.1-2.4 2.77-1.23 1.87-0.79 1.56-3.3 0.61-4.7-1.65-1.98-1.27-4.82-0.74-7.15 0.49-5.36-1.51-10.92 0.53-16.12 1.51-5.15 2.82-10.37 3.59-15.69 0.71-2.93 1.76-5.88 1.34-8.94-0.26-3.92-1.46-7.95-0.13-11.81 1-3.63 2.68-7.6 1.2-11.33-1.63-3.4-5.77-4.29-7.93-7.23-1.52-1.81-2.65-3.93-3.53-6.12zm-2 3.03c2.05 1.19 1.05 4.24-0.69 5.23-1.86 1.67-4.23-1.83-1.89-2.87 0.9-0.74 1.85-1.44 2.58-2.36zm-0.06 7.94c-1.35 1.23-0.99 3.72-2.88 4.45-0.78-2.07 1.5-3.43 2.88-4.45zm7 0.62c2.26 0.25 3.71 2.66 3.55 4.8 2.06 0.92-1.88 3.27-1.35 0.93-0.68-1.93-2.24-3.58-2.2-5.73zm-3.63 0.19c1.57 0.7-1.87 1.8-0.27 0.37 0.09-0.12 0.18-0.24 0.27-0.37zm0.47 6.06c-0.02 4.89-2.3 9.34-3.22 14.07 0.47-4.79 0.7-9.82 3.22-14.07zm-6.06 8.57c0.44 0.51-0.64 0.17 0 0zm10.91 7.06c1.42 3.95-0.26 8.04-1.12 11.91-1.3-2.14 0.06-4.59-0.1-6.87 0.26-1.71 0.65-3.41 1.22-5.04zm-8.35 1.25c0.54 0.2-0.38 0.43 0 0zm-8.97 10.19c2.05 0.73-1.2 4.47-1.2 1.78 0.25-0.68 0.73-1.25 1.2-1.78zm5.47 0.78c0.33 0.3-0.3 0.72 0 0zm10.28 2.47c-0.03 0.27-0.04 0.37 0 0zm-0.03 0.4c-0.02 0.3-0.04 0.52 0 0zm-0.03 0.38c0.3 0.98-0.5 1.25 0 0zm-8.25 5.5c1.14-0.75-0.35 1.12 0 0zm-3.34 2.53c1.3 0.78-0.97 1.07 0 0zm8.31 0.28c-0.13 0.49 0.43 0.06 0 0zm-3.41 0.94c0.47 1.66-1.46-0.7 0 0z"/>
  <path d="m312.83 280.23c2.67-1.72 11.13-4.17 9.89 1.2-2.59 2.16-2.24 1.24 0.52 1.27 2.96 1.85-2.87 6.46 2.03 5.16 5.22-1.08 5.25 7.17 2.24 5.42 4.57-2.82 7.84 3.78 3.19 5.83 1.73 3.64 8.08 1.69 11.67 3.02 3.7 0.54 10.84-0.14 10.54 5.3-1.25 4.59-6.8 5.41-10.21 7.95-5.07 4.05 4.69 3.86 7.4 3.4 3.51 1.23 10.35-2.99 11.28 2.18-4.25 4-9.8 7.14-15.41 8.45-2.54-5.25 5.97-5.25 9.29-6.09 2.92-0.32 12.14-3.83 9.71 2.05-4.18 4.75-9.59 8.28-14.91 11.64-1.02-4.32 6.86-2.61 7.68-2.17-0.09 3.29-9.64 5.52-3.98 6.3 3.69 0.6 11.44-1.55 11 4.29-2.08 1.12 2.66-1.91 2.42 1.21 0.95 4.75-8.02 1.23-5.48-2.05-4.21-1.07-10.75 0.31-12.81-4.41-1.3-3.67 5.66-7 5.2-2.57-3.09 1.96-8.9-2.25-3.76-4.4 3.18-2.74 10.14-5.66 11.27-7.79-4.5 0.09-8.59 2.42-13.06 2.84-6.19 0.48 1.67-3.42 3.73-4.1 1.63-0.6 8.29-3.95 3.03-2.73-5.43 0.98-11.29 0.71-16.69-0.42-6.11-2.92 1.77-7.36 4.78-9.11 3.51-0.68 8.13-7.34 1.5-6.51-5.76-0.98-11.79-1.65-17.06-4.31-5.04-1.27 4.04-5.65-1.46-4.82-4.17-0.69-0.24-5.86 0-4.94-3.34 0.28-9.68-2.29-7.08-6.32 1.97-1.8 6.16 0.99 1.77 1.16-4.67 0.78-5.32-7.53-0.36-5.74 0.02 2.2-10.49 4.79-7.87-0.19z"/>
 </g>
</svg>
