<?xml version="1.0" encoding="UTF-8" standalone="no"?>
<!DOCTYPE svg PUBLIC "-//W3C//DTD SVG 20010904//EN" "http://www.w3.org/TR/2001/REC-SVG-20010904/DTD/svg10.dtd">
<svg xmlns:rdf="http://www.w3.org/1999/02/22-rdf-syntax-ns#" xmlns="http://www.w3.org/2000/svg" xmlns:xlink="http://www.w3.org/1999/xlink" xmlns:cc="http://web.resource.org/cc/" xmlns:dc="http://purl.org/dc/elements/1.1/" height="120pt" width="120pt">
 <path d="m77.283 7.4252c-2.486 0-4.941 0.1403-7.359 0.3953-6.342 0.5125-12.078 1.6863-15.952 3.4385l-0.016 0.008h-0.007c-0.17 0.111-0.286 0.213-0.451 0.324-2.108 0.602-4.05 1.427-5.826 2.458-22.86 10.827-38.693 33.797-38.898 60.423-0.0066 0.025-0.0179 0.047-0.0241 0.071v0.024 0.016c-0.0006 0.083 0.0151 0.162 0.0159 0.245-0.0002 0.056-0.008 0.11-0.008 0.166 0 13.113 3.8082 25.346 10.371 35.716 0.591 1.42 1.538 2.78 2.798 4.08 9.104 12.29 22.311 21.43 37.626 25.47 5.658 1.49 11.597 2.3 17.73 2.3 2.084 0 4.144-0.1 6.181-0.28 0.069-0.01 0.138-0.01 0.206-0.02 2.269-0.21 4.503-0.52 6.703-0.94 4.981-0.78 9.567-2.05 13.127-3.9 8.44-3.45 16.02-8.51 22.36-14.79l0.06-0.06c3.37-3.13 6.28-6.69 8.69-10.57 7.07-10.64 11.2-23.346 11.2-37.006 0-14.651-4.75-28.206-12.79-39.278-0.1-0.13-0.19-0.259-0.29-0.387-7.5-10.174-17.8-18.204-29.79-22.987-0.01-0.003-0.01-0.005-0.02-0.008-4.525-2.33-10.68-3.7323-17.203-4.3791-2.766-0.3356-5.577-0.5297-8.434-0.5297zm-1.383 0.419c1.229-0.0164 2.47-0.0104 3.707 0.0237 1.798 0.0496 3.586 0.1714 5.359 0.332 0.305 0.0337 0.606 0.0809 0.909 0.1186-2.22 0.2404-4.748 1.5645-7.564 3.9605-0.019 0.003-0.037 0.004-0.056 0.008-0.24-0.068-0.469-0.147-0.711-0.214l-0.04-0.016-0.039 0.008c-0.231 0.049-0.45 0.101-0.68 0.15-0.981-1.27-1.923-2.3275-2.79-2.9717-0.909-0.6753-1.77-1.0244-2.569-1.0513-0.267-0.009-0.53 0.0176-0.783 0.079-1.012 0.2457-1.882 1.0387-2.632 2.269-0.049 0.08-0.087 0.2-0.135 0.284-1.99-0.264-3.913-0.429-5.722-0.427-1.912 0.003-3.693 0.193-5.407 0.475 4.333-1.348 8.843-2.2807 13.501-2.7511 0.018-0.0019 0.037-0.0061 0.055-0.008 1.832-0.1408 3.696-0.2433 5.597-0.2687zm-4.482 0.664c0.72 0.0237 1.513 0.3385 2.387 0.9881 0.808 0.6007 1.71 1.5997 2.648 2.7977-0.245 0.054-0.483 0.112-0.727 0.166-2.636-0.733-5.143-1.265-7.518-1.596 0.027-0.045 0.045-0.114 0.072-0.158 0.724-1.1888 1.542-1.9081 2.442-2.1267 0.225-0.0546 0.456-0.079 0.696-0.0711zm15.358 0.0711c0.378 0.0061 0.742 0.0495 1.099 0.1186 1.527 0.2958 2.88 1.1738 4.071 2.5371-0.318-0.011-0.61-0.049-0.933-0.055-3.713-0.069-7.752 0.268-12.094 0.996 2.997-2.4551 5.625-3.6323 7.857-3.5967zm2.498 0.2451c4.718 0.8257 9.267 2.1206 13.596 3.8496 0.33 0.172 0.61 0.371 0.93 0.553-3.4-1.12-7.228-1.77-11.427-1.96-0.925-1.117-1.955-1.9479-3.099-2.4426zm-30.464 1.1066c-0.266 0.073-0.534 0.145-0.799 0.221 0.263-0.075 0.528-0.149 0.799-0.221zm3.351 0.775c1.762-0.001 3.636 0.164 5.573 0.419-0.358 0.671-0.692 1.444-0.996 2.324-7.804 0.957-14.632 2.609-20.576 4.829 1.548-1.933 4.006-4.05 7.383-6.323 0.24-0.088 0.479-0.176 0.72-0.261 2.418-0.624 5.027-0.987 7.896-0.988zm5.897 0.458c2.216 0.307 4.552 0.788 7.004 1.447-0.222 0.05-0.444 0.098-0.664 0.15-2.518 0.153-4.969 0.36-7.312 0.64 0.301-0.853 0.623-1.598 0.972-2.237zm22.947 0.324c0.419 0.008 0.799 0.062 1.21 0.079 0.61 0.754 1.154 1.698 1.676 2.712-4.35-0.76-9.037-1.277-14.071-1.534-0.294-0.087-0.588-0.175-0.885-0.261 4.338-0.729 8.371-1.063 12.07-0.996zm1.637 0.103c4.714 0.238 8.898 1.108 12.588 2.522 1.84 1.537 3.2 2.985 4.17 4.347-4.51-1.732-9.537-3.121-15.122-4.118-0.508-1.015-1.038-1.975-1.636-2.751zm-15.138 0.798c0.017 0.005 0.031 0.012 0.048 0.016-0.126 0.023-0.245 0.039-0.372 0.063 0.11-0.023 0.214-0.055 0.324-0.079zm-25.168 0.04c-3.056 2.161-5.321 4.189-6.719 6.063-1.73 0.662-3.402 1.361-4.98 2.118 1.909-2.439 4.177-4.483 6.806-6.079 1.595-0.766 3.232-1.458 4.893-2.102zm24.33 0.15c0.013 0.016 0.027 0.031 0.04 0.047-0.1 0.005-0.193 0.02-0.293 0.024-0.005-0.001-0.01-0.006-0.015-0.008 0.09-0.02 0.178-0.043 0.268-0.063zm1.7 0.063c0.043 0.012 0.084 0.028 0.126 0.04-0.056-0.002-0.11-0.006-0.166-0.008 0.013-0.011 0.027-0.021 0.04-0.032zm-0.941 0.309c0.03 0.001 0.058 0.006 0.087 0.007-0.01 0.01-0.021 0.015-0.031 0.024-0.019-0.011-0.038-0.02-0.056-0.031zm0.546 0.023c0.606 0.023 1.198 0.057 1.794 0.087 5.768 1.708 11.103 3.687 16.015 5.913 0.195 0.644 0.362 1.361 0.537 2.055-2.836-0.362-5.723-0.626-8.64-0.79-3.094-2.506-6.4-4.871-9.928-7.075 0.076-0.069 0.146-0.122 0.222-0.19zm-1.945 0.008c-3.666 1.801-7.114 3.789-10.355 5.937 0.217-1.202 0.463-2.319 0.727-3.336 0.037-0.14 0.081-0.243 0.119-0.38 2.567-0.776 5.231-1.482 7.991-2.126 0.506-0.03 1.005-0.07 1.518-0.095zm0.593 0.048c0.167 0.049 0.322 0.083 0.49 0.134 0.02 0.028 0.035 0.051 0.055 0.079-0.047 0.044-0.087 0.074-0.134 0.119h-0.008l-0.008 0.008c-1.775 1.999-3.427 4.323-4.98 6.869-2.229 0.12-4.441 0.296-6.632 0.513 0.072-0.47 0.128-0.967 0.206-1.414 3.433-2.291 7.096-4.411 11.011-6.308zm4.482 0.094c4.622 0.281 8.936 0.79 12.963 1.502 0.206 0.419 0.433 0.783 0.625 1.241 0.345 0.825 0.649 1.751 0.948 2.696-4.494-2.023-9.334-3.845-14.536-5.439zm-8.529 0.064c-2.038 0.506-4.007 1.064-5.937 1.644 0.111-0.385 0.23-0.746 0.348-1.099 1.813-0.219 3.67-0.403 5.589-0.545zm4.79 0.308c0.109 0.156 0.205 0.255 0.316 0.419 0.004 0.005 0.004 0.01 0.008 0.016 0.683 1.959 1.332 4.008 1.96 6.094-0.535 0.001-1.069-0.007-1.604 0-1.625 0.021-3.252 0.068-4.869 0.142-0.247 0.012-0.49 0.035-0.736 0.048 1.507-2.448 3.096-4.696 4.806-6.624 0.041-0.038 0.079-0.058 0.119-0.095zm0.443 0.063c3.303 2.076 6.407 4.305 9.327 6.648-2.376-0.124-4.768-0.181-7.161-0.182-0.64-2.128-1.296-4.216-1.992-6.213l-0.008-0.016-0.008-0.023c-0.056-0.083-0.103-0.133-0.158-0.214zm27.195 0.016c0.71 0.309 1.41 0.617 2.1 0.949-0.55-0.245-1.12-0.453-1.69-0.672-0.05-0.038-0.08-0.073-0.13-0.111l-0.01-0.008c-0.08-0.057-0.18-0.102-0.27-0.158zm-38.372 0.206c-0.125 0.378-0.248 0.749-0.364 1.162-8.431 2.564-15.839 5.819-22.267 9.604-0.159-0.882-0.112-1.814 0.205-2.814 0.299-0.941 0.852-1.94 1.628-2.988 5.981-2.28 12.883-3.984 20.798-4.964zm39.462 0.671c4.31 1.79 7.92 4.329 10.87 7.478-2.18-1.188-4.53-2.286-7.03-3.272-0.88-1.33-2.16-2.73-3.84-4.206zm-11.638 0.238c5.658 1.023 10.728 2.451 15.268 4.229 1.11 1.699 1.59 3.258 1.52 4.671-0.01 0.164-0.05 0.322-0.07 0.482-0.15-0.043-0.29-0.099-0.43-0.142-2.61-0.755-5.33-1.385-8.11-1.913-2.11-1.138-4.305-2.233-6.589-3.272-0.328-1.062-0.675-2.077-1.06-2.996-0.162-0.389-0.356-0.697-0.529-1.059zm-28.307 0.632c-0.017 0.066-0.038 0.115-0.055 0.182-0.287 1.104-0.536 2.338-0.767 3.652-0.925 0.619-1.836 1.251-2.727 1.897-6.262 0.744-12.257 1.874-17.706 3.328 6.177-3.553 13.258-6.612 21.255-9.059zm42.615 0.039c0.69 0.353 1.37 0.716 2.04 1.091 6.11 3.407 11.64 7.708 16.39 12.735-2.7-2.49-5.83-4.754-9.37-6.767-2.02-2.29-4.34-4.318-7.02-5.968-0.65-0.397-1.35-0.735-2.04-1.091zm-63.443 0.246c-1.932 1.442-3.666 3.124-5.154 5.074-0.064 0.084-0.119 0.177-0.182 0.261-6.694 3.314-12.012 7.461-16.07 12.213 5.82-7.199 13.098-13.195 21.406-17.548zm-0.032 3.343c-0.639 0.929-1.111 1.829-1.383 2.688-0.344 1.082-0.397 2.109-0.206 3.075-2.017 0.564-3.979 1.158-5.818 1.81-0.365 0.129-0.701 0.27-1.059 0.403 0.962-2.079 2.085-4 3.375-5.739 1.615-0.797 3.312-1.542 5.091-2.237zm64.935 0.158c2.66 1.069 5.12 2.267 7.41 3.565 0.33 0.379 0.69 0.736 1 1.131 1.08 1.349 2.04 2.801 2.92 4.323-3.1-1.555-6.47-2.877-10.07-3.96 0.03-0.186 0.07-0.37 0.08-0.561 0.07-1.392-0.36-2.89-1.34-4.498zm-14.037 0.056c1.887 0.864 3.731 1.755 5.497 2.687-1.65-0.296-3.327-0.553-5.023-0.774-0.16-0.638-0.297-1.316-0.474-1.913zm-30.923 0.411c-0.065 0.387-0.121 0.805-0.182 1.209-0.609 0.062-1.221 0.113-1.826 0.182 0.66-0.472 1.329-0.934 2.008-1.391zm12.782 0.766c0.567-0.007 1.132 0.001 1.699 0 1.402 4.692 2.667 9.658 3.794 14.829-2.714 0.162-5.48 0.227-8.228 0.174-3.325-0.063-6.602-0.303-9.739-0.679 1.934-5.23 4.158-9.996 6.656-14.118 0.322-0.017 0.642-0.048 0.964-0.063 1.614-0.075 3.233-0.121 4.854-0.143zm2.023 0c2.506 0.003 5.01 0.068 7.494 0.206 3.793 3.078 7.237 6.372 10.394 9.817 0.099 0.866 0.198 1.731 0.277 2.633-4.254 1.103-9.188 1.841-14.37 2.166-1.126-5.167-2.395-10.13-3.795-14.822zm-8.244 0.23c-2.475 4.117-4.671 8.865-6.585 14.054-0.334-0.041-0.665-0.089-0.996-0.134 0.185-5.051 0.543-9.585 1.107-13.414 2.139-0.214 4.297-0.385 6.474-0.506zm16.283 0.015c2.803 0.168 5.575 0.424 8.3 0.775 0.624 2.542 1.118 5.385 1.486 8.49-2.993-3.238-6.229-6.352-9.786-9.265zm-23.081 0.522c-0.56 3.823-0.923 8.331-1.107 13.343-4.862-0.683-9.236-1.759-12.663-3.209 3.436-3.533 7.262-6.839 11.454-9.881 0.769-0.091 1.54-0.174 2.316-0.253zm31.721 0.301c1.957 0.257 3.896 0.551 5.786 0.909 2.64 1.426 5.13 2.923 7.49 4.489-0.96 1.307-2.44 2.478-4.37 3.494-1.55 0.819-3.4 1.53-5.43 2.15-0.641-0.747-1.295-1.487-1.966-2.221-0.369-3.224-0.867-6.181-1.51-8.821zm-34.701 0.039c-4.052 2.981-7.751 6.217-11.09 9.659-1.46-0.638-2.79-1.322-3.834-2.102-1.33-0.994-2.288-2.096-2.798-3.304-0.106-0.25-0.178-0.508-0.245-0.767 5.497-1.521 11.586-2.7 17.967-3.486zm-22.449 0.04c-1.218 1.711-2.28 3.586-3.194 5.604-5.359 2.027-9.827 4.408-12.924 7.098 0.198-0.244 0.381-0.494 0.585-0.735 3.932-4.634 9.078-8.692 15.533-11.967zm63.926 1.027c2.44 0.488 4.83 1.05 7.12 1.715 0.17 0.048 0.32 0.11 0.48 0.159-0.15 0.765-0.46 1.486-0.92 2.173-2.12-1.406-4.34-2.753-6.68-4.047zm14.97 0.664c4.97 2.938 9.07 6.389 12.33 10.245 0.62 0.726 1.2 1.468 1.76 2.221 0.5 0.679 0.97 1.37 1.43 2.071-3.05-3.77-7.14-6.864-11.96-9.351-0.95-1.682-1.99-3.28-3.17-4.759-0.12-0.15-0.27-0.279-0.39-0.427zm-7.06 1.304c3.73 1.124 7.22 2.49 10.39 4.119 1.96 3.533 3.41 7.489 4.37 11.746-4.33-4.888-9.56-9.476-15.73-13.612 0.48-0.709 0.81-1.456 0.97-2.253zm-67.655 0.562c0.07 0.264 0.146 0.528 0.253 0.782 0.539 1.275 1.539 2.414 2.901 3.431 1.043 0.779 2.354 1.466 3.787 2.102-6.309 6.555-11.305 13.837-15.146 21.422-0.304 0.096-0.624 0.178-0.925 0.277-0.793 0.26-1.531 0.559-2.3 0.837-0.273-8.442 0.62-16.359 2.893-23.034 2.622-2.05 5.47-3.992 8.537-5.817zm-1.075 0.276c-2.574 1.577-4.995 3.234-7.248 4.972 0.362-1.017 0.757-2 1.185-2.956 0.452-0.17 0.88-0.349 1.344-0.514 1.503-0.533 3.093-1.027 4.719-1.502zm67.58 1.66c6.33 4.238 11.66 8.953 16.04 13.976 1.02 4.737 1.41 9.841 1.3 15.129-0.51-0.213-0.97-0.442-1.49-0.648-3.95-1.557-8.39-2.875-13.12-4-3.35-6.509-7.53-12.817-12.57-18.726 1.99-0.618 3.82-1.32 5.36-2.134 1.96-1.032 3.48-2.235 4.48-3.597zm-74.062 0.514c-0.451 1.029-0.872 2.08-1.248 3.178-6.485 5.086-11.631 10.809-15.525 16.884-0.754-2.265-0.8-4.72 0.008-7.391 0.053-0.152 0.152-0.299 0.213-0.45 0.717-1.241 1.502-2.456 2.356-3.637 2.951-3.259 7.918-6.176 14.196-8.584zm86.102 1.344c5.87 3.098 10.6 7.117 13.62 12.165 0.82 3.731 0.05 7.029-1.97 9.944-2.07-3.467-4.51-6.849-7.34-10.102-0.93-4.341-2.35-8.386-4.31-12.007zm-24.003 1.905c0.542 0.598 1.066 1.203 1.589 1.81-0.439 0.131-0.91 0.242-1.368 0.364-0.065-0.742-0.143-1.457-0.221-2.174zm-63.521 0.474c-2.19 6.654-3.048 14.471-2.767 22.797-1.812 0.667-3.554 1.378-5.209 2.15-2.078-1.38-3.809-2.887-5.114-4.521-0.936-1.172-1.644-2.415-2.127-3.716 3.816-6.006 8.859-11.662 15.217-16.71zm16.22 0.277c3.491 1.5 7.946 2.592 12.892 3.28-0.046 1.322-0.088 2.67-0.11 4.055-0.965 2.949-1.847 6.008-2.648 9.154-8.989 0.79-17.587 2.324-25.161 4.671 3.825-7.49 8.78-14.685 15.027-21.16zm49.104 1.32c5 5.843 9.14 12.084 12.48 18.52-4.3-1.008-8.84-1.85-13.556-2.482 0.09-5.56-0.072-10.812-0.482-15.611 0.525-0.139 1.056-0.276 1.558-0.427zm-1.866 0.506c0.405 4.761 0.56 9.975 0.474 15.493-4.064-0.537-8.239-0.917-12.465-1.162-0.701-4.134-1.473-8.214-2.332-12.181 5.156-0.324 10.068-1.05 14.323-2.15zm-34.029 1.494c0.296 0.04 0.593 0.081 0.893 0.118-0.345 0.945-0.654 1.938-0.98 2.909 0.021-1.035 0.052-2.029 0.087-3.027zm1.225 0.158c3.172 0.381 6.484 0.623 9.849 0.688 2.775 0.053 5.567-0.011 8.308-0.174 0.858 3.958 1.631 8.023 2.331 12.149-1.491-0.084-2.981-0.175-4.481-0.221-2.066-0.064-4.136-0.095-6.206-0.087-3.716 0.013-7.422 0.151-11.082 0.403-0.048-3.03-0.093-6.043-0.047-8.861 0.431-1.317 0.863-2.63 1.328-3.897zm-45.855 4.15c-0.06 0.129-0.128 0.257-0.182 0.387-3.594 6.195-5.501 13.079-5.984 20.244-1.137 3.166-1.992 6.367-2.561 9.588-0.734 1.288-1.3226 2.644-1.7702 4.055 0.2993-12.582 4.1012-24.311 10.497-34.274zm44.195 0.727c-0.03 2.526 0.02 5.215 0.063 7.905-0.792 0.056-1.577 0.13-2.363 0.197 0.708-2.77 1.465-5.484 2.3-8.102zm-44.898 1.281c-0.544 2.42-0.414 4.682 0.332 6.774-2.207 3.493-3.999 7.1-5.399 10.774 0.544-6.17 2.189-12.104 5.067-17.548zm107.88 0.324c2.7 3.153 5.03 6.427 7.02 9.778-0.31 0.417-0.64 0.823-0.99 1.225-1.24 1.393-2.83 2.67-4.63 3.865-0.08-0.034-0.15-0.069-0.23-0.103 0.11-5.143-0.23-10.125-1.17-14.765zm9.63 0.434c3.56 7.062 5.1 14.921 4.97 23.019-0.3-0.327-0.6-0.655-0.93-0.973-0.23-0.223-0.52-0.429-0.77-0.648-1.37-4.077-3.21-8.11-5.52-12.039 1.95-2.756 2.78-5.886 2.25-9.359zm0.89 1.099c4.99 9.05 7.91 19.36 8.19 30.306-0.31-2.908-1.64-5.602-3.81-8.062 0.18-7.781-1.18-15.366-4.38-22.244zm-62.039 4.664c2.067-0.008 4.135 0.015 6.198 0.079 1.52 0.047 3.034 0.136 4.545 0.221 1.036 6.144 1.852 12.41 2.545 18.655-3.915 0.253-7.895 0.362-11.873 0.332-3.95-0.03-7.894-0.206-11.762-0.514-0.272-4.149-0.484-8.258-0.624-12.26-0.074-2.105-0.076-4.074-0.111-6.11 3.659-0.251 7.367-0.389 11.082-0.403zm11.059 0.316c4.211 0.246 8.362 0.635 12.41 1.17-0.028 1.63-0.066 3.275-0.134 4.948-0.155 3.79-0.417 7.685-0.767 11.612-2.927 0.375-5.918 0.675-8.964 0.877-0.691-6.232-1.512-12.474-2.545-18.607zm-22.457 0.111c0.035 2.033 0.037 3.999 0.111 6.102 0.14 3.99 0.346 8.086 0.616 12.221-2.261-0.185-4.479-0.433-6.671-0.712 0.72-4.704 1.577-9.364 2.616-13.88 0.274-1.192 0.581-2.355 0.878-3.526 0.816-0.07 1.628-0.147 2.45-0.205zm-44.479 0.181c0.492 1.254 1.178 2.453 2.079 3.581 1.297 1.624 2.998 3.117 5.027 4.482-5.249 2.491-9.659 5.511-12.821 9.13-0.067-1.906-0.039-3.793 0.087-5.668 1.417-3.932 3.29-7.792 5.628-11.525zm41.697 0.056c-0.288 1.139-0.588 2.264-0.854 3.423-1.041 4.524-1.903 9.193-2.624 13.904-8.768-1.138-16.882-3.008-23.374-5.652-0.471-0.192-0.883-0.409-1.336-0.609 0.875-2.134 1.851-4.244 2.909-6.339 7.585-2.379 16.232-3.928 25.279-4.727zm37.965 0.861c4.794 0.644 9.404 1.498 13.764 2.53 1.65 3.222 3.09 6.486 4.35 9.77-5.6 1.88-12.07 3.277-19.015 4.182 0.348-3.911 0.613-7.789 0.767-11.565 0.068-1.663 0.106-3.296 0.134-4.917zm34.914 2.34c2.18 3.725 3.95 7.54 5.28 11.399-2.81-2.411-6.44-4.563-10.72-6.443 1.75-1.175 3.3-2.427 4.52-3.802 0.33-0.375 0.63-0.763 0.92-1.154zm-20.74 0.293c4.61 1.108 8.94 2.4 12.8 3.92 0.56 0.222 1.06 0.466 1.6 0.696v0.292c-2.3 1.458-4.97 2.768-7.98 3.913-0.69 0.264-1.45 0.496-2.18 0.743-1.22-3.214-2.63-6.409-4.24-9.564zm-77.845 1.359c-0.975 1.95-1.877 3.915-2.696 5.897-0.14-1.627-0.259-3.244-0.316-4.838 0.796-0.289 1.564-0.599 2.387-0.869 0.203-0.067 0.42-0.124 0.625-0.19zm-3.328 1.178c0.059 1.577 0.177 3.182 0.316 4.79-1.89-0.858-3.658-1.768-5.201-2.766 1.558-0.721 3.185-1.396 4.885-2.024zm-5.249 2.182c1.646 1.078 3.555 2.049 5.589 2.964 0.006 0.069 0.009 0.136 0.016 0.205-4.561 11.295-6.595 22.979-6.324 33.808-2.466-1.063-4.684-2.248-6.687-3.517-2.129-5.016-3.754-10.165-4.712-15.327-0.542-2.922-0.87-5.847-0.995-8.743 3.176-3.732 7.695-6.84 13.113-9.39zm101.41 0.158c4.54 1.976 8.36 4.247 11.22 6.798 0.68 2.036 1.24 4.078 1.7 6.126-0.18 1.916-0.45 3.84-0.81 5.762-0.78 4.27-2.03 8.524-3.61 12.703-2.61 1.903-5.68 3.636-9.23 5.146-1.18-0.745-2.44-1.456-3.81-2.119-0.09-2.414-0.29-4.862-0.59-7.343 2.09-6.488 3.6-13.1 4.35-19.572 0.29-2.466 0.43-4.895 0.51-7.304 0.1-0.063 0.18-0.134 0.27-0.197zm-0.6 0.427c-0.07 2.321-0.22 4.666-0.49 7.043-0.73 6.228-2.15 12.596-4.12 18.852-0.92-7.007-2.72-14.209-5.43-21.342 0.73-0.248 1.49-0.479 2.19-0.743 2.94-1.12 5.57-2.39 7.85-3.81zm-94.844 2.553c0.457 0.201 0.87 0.423 1.344 0.616 6.527 2.659 14.66 4.536 23.445 5.676-0.936 6.174-1.595 12.415-1.992 18.544-5.951 0.849-11.557 2.044-16.528 3.605-3.183-9.127-5.368-18.64-6.269-27.761-0.019-0.198-0.021-0.388-0.039-0.585 0.013-0.032 0.026-0.064 0.039-0.095zm-0.316 0.719c0.903 9.142 3.089 18.672 6.276 27.816-1.704 0.543-3.353 1.112-4.893 1.74-2.734 1.113-5.185 2.366-7.296 3.746-0.046-0.019-0.096-0.035-0.142-0.055-0.285-10.641 1.653-22.123 6.055-33.247zm-19.09 0.506c-0.075 1.626-0.075 3.269-0.007 4.917-0.756 0.897-1.422 1.83-2.024 2.798 0.493-2.587 1.169-5.163 2.031-7.715zm103.91 0.877c2.78 7.34 4.6 14.75 5.49 21.944-0.66 2.039-1.38 4.058-2.17 6.063-0.38-0.156-0.73-0.325-1.12-0.475-6.66-2.537-14.83-4.284-23.601-5.296 0.951-5.961 1.712-12.031 2.253-18.022 6.988-0.908 13.508-2.316 19.148-4.214zm22.6 2.079c0.11 0.105 0.25 0.203 0.36 0.309 0.4 0.39 0.78 0.791 1.14 1.193-0.03 1.056-0.08 2.115-0.16 3.178-0.38-1.563-0.84-3.124-1.34-4.68zm1.81 1.866c2.42 2.852 3.7 5.996 3.56 9.414-0.2 2.409-1.03 4.65-2.36 6.735-0.05-4.056-0.53-8.165-1.44-12.268 0.12-1.297 0.2-2.592 0.24-3.881zm-83.809 0.292c2.215 0.282 4.459 0.526 6.743 0.712 0.367 5.557 0.881 11.141 1.454 16.671-3.472 0.244-6.874 0.602-10.189 1.067 0.398-6.1 1.061-12.307 1.992-18.45zm39.926 0.016c-0.539 5.966-1.297 12.008-2.244 17.944-1.704-0.193-3.428-0.355-5.17-0.49-0.346-5.429-0.871-10.995-1.486-16.584 3.024-0.202 5.992-0.499 8.9-0.87zm-84.429 0.269c0.138 2.794 0.474 5.611 0.996 8.426 0.936 5.043 2.513 10.073 4.561 14.979-1.56-1.02-3.017-2.076-4.237-3.225-1.942-1.828-3.41-3.824-4.363-5.976-0.072-3.664 0.207-7.364 0.854-11.05 0.63-1.098 1.362-2.144 2.189-3.154zm51.57 0.458c3.86 0.306 7.797 0.476 11.738 0.506 3.988 0.031 7.979-0.078 11.905-0.332 0.613 5.571 1.132 11.118 1.478 16.529-4.49-0.341-9.072-0.517-13.659-0.482-3.36 0.025-6.707 0.177-10.015 0.403-0.572-5.514-1.08-11.082-1.447-16.624zm-54.218 3.565c-0.499 3.138-0.7378 6.284-0.719 9.407-0.6071-1.612-0.9334-3.308-0.9249-5.099 0.0001-0.01 0-0.021 0-0.031v-0.008c0.0007-0.003-0.0006-0.006 0-0.008 0.3809-1.488 0.9459-2.904 1.6439-4.261zm130.6 0.19c0.82 3.951 1.24 7.91 1.26 11.81-1.06 1.549-2.4 3.015-4.02 4.387-0.41 0.351-0.91 0.673-1.36 1.011 1.5-4.039 2.67-8.152 3.43-12.275 0.31-1.646 0.51-3.29 0.69-4.933zm4.2 4.94c-0.08 10.961-2.83 21.294-7.63 30.416 2.57-5.66 4.2-11.795 4.77-18.163 0.15-1.749 0.23-3.512 0.23-5.289 1.45-2.145 2.36-4.467 2.63-6.964zm-136.37 2.569c0.2039 0.873 0.5014 1.721 0.8616 2.546 0.0361 1.737 0.1411 3.469 0.3321 5.185 0.367 3.293 1.032 6.532 1.952 9.691-1.791-5.531-2.8736-11.373-3.1457-17.422zm1.2097 3.305c0.97 1.931 2.351 3.727 4.11 5.383 1.331 1.252 2.934 2.405 4.656 3.501 0.984 2.313 2.06 4.593 3.264 6.83-0.428 0.437-0.835 0.885-1.201 1.344-2.462 3.084-3.452 6.654-2.577 10.644-4.315-7.06-7.03-15.032-7.952-23.307-0.162-1.456-0.25-2.924-0.3-4.395zm132.2 1.58c-0.01 1.6-0.07 3.191-0.21 4.767-0.68 7.543-2.84 14.765-6.3 21.235 0.83-4.3-0.43-8.08-3.25-11.299 1.6-3.038 2.98-6.169 4.18-9.343 0.6-0.439 1.24-0.86 1.78-1.32 1.49-1.266 2.77-2.613 3.8-4.04zm-66.16 0.388c4.599-0.035 9.19 0.139 13.691 0.482 0.382 6.061 0.547 11.842 0.6 17.402-4.865 0.38-9.813 0.6-14.766 0.6-2.426 0-4.846-0.05-7.256-0.15-0.858-5.699-1.599-11.75-2.245-17.931 3.296-0.225 6.628-0.378 9.976-0.403zm-10.3 0.419c0.644 6.169 1.389 12.207 2.245 17.905-4.381-0.18-8.701-0.52-12.908-1.01-0.002-0.15-0.014-0.3-0.016-0.45-0.055-4.942 0.108-10.114 0.443-15.37 3.328-0.468 6.746-0.83 10.236-1.075zm24.307 0.095c1.721 0.134 3.423 0.291 5.106 0.482-0.928 5.769-2.053 11.404-3.32 16.758-0.394 0.03-0.79 0.07-1.186 0.1-0.053-5.536-0.221-11.302-0.6-17.34zm5.414 0.521c8.749 1.01 16.909 2.748 23.539 5.273 0.39 0.149 0.74 0.32 1.12 0.474-0.88 2.222-1.82 4.406-2.83 6.561-7.56 2.128-16.16 3.581-25.125 4.391 1.26-5.34 2.372-10.953 3.296-16.699zm27.019 0.151c0.25 2.187 0.42 4.347 0.51 6.481-0.78-0.369-1.63-0.708-2.46-1.051 0.7-1.797 1.35-3.605 1.95-5.43zm-67.301 0.355c-0.331 5.24-0.489 10.394-0.434 15.323 0.001 0.14 0.006 0.27 0.008 0.42-4.094-0.49-8.055-1.117-11.842-1.894-1.521-3.337-2.902-6.765-4.134-10.268 4.93-1.546 10.494-2.735 16.402-3.581zm-16.71 3.668c1.209 3.44 2.567 6.812 4.055 10.094-4.706-0.981-9.15-2.162-13.129-3.604-0.992-0.36-1.91-0.758-2.846-1.147 2.048-1.32 4.401-2.528 7.043-3.604 1.535-0.625 3.176-1.198 4.877-1.739zm97.661 0.134c-1.14 2.96-2.43 5.88-3.93 8.719-1.29-1.42-2.93-2.716-4.79-3.921 3.31-1.419 6.22-3.028 8.72-4.798zm-15.72 1.565c0.88 0.363 1.77 0.716 2.59 1.107 0.04 1.169 0.06 2.33 0.06 3.478-0.25 0.086-0.46 0.184-0.71 0.269-1.49 0.516-3.05 0.997-4.65 1.454 0.97-2.072 1.87-4.175 2.71-6.308zm-101.18 0.293c1.963 1.211 4.119 2.333 6.498 3.351 0.001 0.05-0.002 0.101 0 0.151-1.302 0.884-2.458 1.821-3.462 2.814-1.112-2.068-2.114-4.183-3.036-6.316zm104.1 0.988c1.22 0.599 2.37 1.225 3.44 1.889-1.09 0.456-2.24 0.878-3.4 1.297 0.01-1.054-0.01-2.115-0.04-3.186zm3.75 2.103c1.95 1.249 3.65 2.606 4.97 4.078-3.11 5.844-6.96 11.334-11.34 16.264 1.39-4.67 2.27-9.78 2.58-15.189 0.07-1.223 0.06-2.479 0.07-3.731 1.28-0.457 2.53-0.921 3.72-1.422zm-100.86 0.458c1.008 0.422 2.004 0.853 3.075 1.241 4.059 1.471 8.59 2.675 13.39 3.668 1.296 2.835 2.663 5.605 4.15 8.265 2.196 3.91 4.612 7.57 7.185 10.94-3.508 1.07-6.443 2.39-8.442 3.96-0.414 0.33-0.773 0.67-1.106 1.02-6.619-5.09-12.459-11.37-17.264-18.34-0.623-3.26-1.022-6.658-1.162-10.161-0.006-0.151 0.005-0.307 0-0.459 0.063-0.042 0.11-0.092 0.174-0.134zm-0.49 0.372c0.003 0.078-0.003 0.159 0 0.237 0.131 3.279 0.505 6.455 1.059 9.535-1.562-2.31-3.036-4.661-4.355-7.093 0.946-0.943 2.071-1.83 3.296-2.679zm97.323 0.711c-0.01 1.206-0.01 2.417-0.08 3.597-0.32 5.654-1.28 10.964-2.79 15.794-0.75 0.82-1.47 1.67-2.25 2.46-2.43 2.47-5.04 4.73-7.74 6.81-1.01-1.92-3.04-3.5-5.75-4.77-0.27-0.12-0.6-0.23-0.88-0.35 2.34-2.7 4.56-5.58 6.61-8.65 2.75-4.11 5.18-8.53 7.35-13.112 1.7-0.482 3.35-1.001 4.94-1.55 0.2-0.071 0.38-0.157 0.59-0.229zm-5.94 1.881c-2.13 4.48-4.52 8.81-7.21 12.84-2.06 3.09-4.3 5.99-6.65 8.69-3.49-1.43-7.923-2.42-12.824-2.99 0.138-2.77 0.236-5.64 0.269-8.69 0.371-1.38 0.741-2.76 1.091-4.18 0.106-0.44 0.204-0.89 0.308-1.33 8.916-0.8 17.476-2.235 25.016-4.34zm-94.917 0.316c1.423 2.617 3.011 5.164 4.712 7.624 1.194 6.21 3.279 11.87 6.142 16.76-3.989-1.72-7.335-3.66-9.818-5.78-1.635-1.93-3.119-3.97-4.466-6.1-1.218-4.27-0.277-8 2.316-11.247 0.342-0.428 0.716-0.846 1.114-1.257zm110.08 0.593c2.81 3.231 4 6.981 3.05 11.301-3.85 6.43-10.5 11.16-18.72 14.48 1.53-2.74 2.82-5.75 3.85-9 4.58-5.07 8.6-10.73 11.82-16.781zm-89.193 1.123c3.74 0.761 7.65 1.378 11.683 1.848 0.092 6.01 0.485 11.65 1.147 16.74-0.529 0.14-1.052 0.29-1.558 0.44-2.593-3.39-5.028-7.07-7.24-11.01-1.443-2.58-2.769-5.27-4.032-8.018zm12.008 1.888c4.217 0.49 8.549 0.83 12.939 1 0.065 0.43 0.117 0.9 0.182 1.32 0.663 4.27 1.377 8.29 2.134 12.04-5.066 0.41-9.915 1.17-14.117 2.26-0.656-5.06-1.046-10.66-1.138-16.62zm36.677 0.45c-0.096 0.41-0.186 0.83-0.285 1.23-0.251 1.02-0.519 2-0.782 3 0.008-1.33-0.036-2.76-0.048-4.13 0.373-0.03 0.744-0.07 1.115-0.1zm-1.431 0.12c0.015 1.69 0.071 3.46 0.056 5.09-0.001 0.08-0.008 0.14-0.008 0.21-0.803 2.97-1.654 5.8-2.554 8.49-3.242-0.28-6.618-0.41-10.023-0.37-1.46 0.02-2.924 0.07-4.379 0.14-0.926 0.05-1.841 0.13-2.758 0.2-0.761-3.75-1.479-7.78-2.143-12.06-0.062-0.4-0.112-0.84-0.173-1.25 2.397 0.09 4.802 0.15 7.216 0.15 4.952 0 9.901-0.21 14.766-0.6zm-62.952 4.14c4.731 6.73 10.435 12.79 16.868 17.74-0.51 0.58-0.905 1.18-1.17 1.81-1.983-0.56-3.915-1.14-5.722-1.78-1.334-0.47-2.604-0.97-3.826-1.48-2.838-4.74-4.912-10.25-6.15-16.29zm62.96 2.59c-0.042 2.51-0.113 4.96-0.229 7.28-0.648-0.08-1.299-0.14-1.96-0.2 0.758-2.27 1.5-4.61 2.189-7.08zm44.361 2.45c-0.21 0.36-0.43 0.71-0.65 1.06-2.57 3.88-5.52 7.48-8.83 10.75-0.01 0.01-0.03 0.03-0.05 0.04-4.24 3.91-9.22 7.13-14.83 9.47 2.3-2.2 4.29-4.88 6.01-7.86 7.86-3.11 14.31-7.53 18.35-13.46zm-56.89 4.56c3.365-0.05 6.701 0.09 9.905 0.36-1.889 5.58-3.972 10.47-6.213 14.28-2.372 0.04-4.746 0.01-7.114-0.07-1.288-3.81-2.521-8.66-3.66-14.23 0.902-0.07 1.8-0.15 2.711-0.2 1.451-0.08 2.914-0.12 4.371-0.14zm42.11 0.05c-1.03 3.11-2.3 5.98-3.8 8.6-1.7 0.67-3.46 1.29-5.29 1.85-0.09-0.57-0.28-1.11-0.52-1.63 2.75-2.11 5.39-4.4 7.85-6.9 0.61-0.62 1.17-1.29 1.76-1.92zm-49.508 0.31c1.13 5.54 2.355 10.37 3.644 14.2-0.498-0.02-0.998-0.03-1.494-0.05-2.575-0.12-5.126-0.33-7.652-0.58-2.875-2.33-5.611-5.07-8.197-8.13-0.168-1.02-0.308-2.1-0.451-3.17 4.201-1.09 9.066-1.85 14.15-2.27zm17.635 0.03c0.694 0.06 1.377 0.13 2.055 0.21-0.269 5.2-0.724 9.85-1.36 13.72-2.279 0.16-4.57 0.28-6.877 0.32 2.238-3.83 4.309-8.7 6.182-14.25zm2.371 0.25c4.827 0.57 9.184 1.53 12.612 2.92-3.572 4.07-7.457 7.65-11.608 10.56-0.778 0.08-1.564 0.12-2.348 0.18 0.633-3.87 1.077-8.5 1.344-13.66zm-67.363 0.33c0.015 0.01 0.032 0.03 0.048 0.04 4.151 4.89 9.192 9.13 15.05 12.46 0.466 0.5 0.94 0.98 1.431 1.45 1.918 1.83 4.032 3.41 6.323 4.71-8.944-4.51-16.735-10.9-22.852-18.66zm1.36 1.07c2.413 1.78 5.417 3.42 8.9 4.89 1.249 2.08 2.615 4.03 4.158 5.78-4.981-2.94-9.351-6.56-13.058-10.67zm31.531 0.68c0.116 0.87 0.232 1.74 0.364 2.57-0.59-0.71-1.166-1.44-1.739-2.19 0.448-0.13 0.909-0.26 1.375-0.38zm-1.707 0.47c0.715 0.93 1.424 1.87 2.166 2.74 0.428 2.59 0.956 4.97 1.549 7.16-2.826-0.42-5.586-0.92-8.245-1.49-1.711-1.09-3.377-2.26-5.003-3.5 0.317-0.33 0.66-0.66 1.059-0.97 1.974-1.55 4.929-2.87 8.474-3.94zm49.101 0.49c0.32 0.13 0.67 0.26 0.97 0.4 2.7 1.26 4.66 2.82 5.62 4.68-1.46 1.12-2.95 2.18-4.48 3.17-4.27 0.98-8.773 1.69-13.388 2.14 4.032-2.89 7.798-6.42 11.278-10.39zm-46.501 2.78c2.373 2.77 4.877 5.25 7.494 7.42-2.035-0.21-4.053-0.44-6.031-0.73-0.559-2.04-1.046-4.27-1.463-6.69zm-23.049 0.68c1.111 0.46 2.265 0.91 3.462 1.33 1.802 0.64 3.725 1.23 5.699 1.78-0.417 1.2-0.367 2.51 0.237 3.87 0.304 0.69 0.75 1.39 1.336 2.11-2.141-0.89-4.204-1.89-6.166-3-1.696-1.82-3.21-3.88-4.568-6.09zm10.702 1.2c1.425 1.08 2.888 2.11 4.38 3.08-1.891-0.42-3.711-0.89-5.486-1.38 0.249-0.59 0.623-1.16 1.106-1.7zm65.568 0.73c0.22 0.49 0.38 0.99 0.46 1.52-0.17 0.05-0.33 0.12-0.51 0.17-1.16 0.33-2.37 0.64-3.58 0.93 1.24-0.82 2.44-1.71 3.63-2.62zm5.81 0.01c-1.76 3-3.79 5.67-6.16 7.85-0.07 0.07-0.16 0.14-0.23 0.21-0.34 0.13-0.7 0.25-1.04 0.37 1.87-2.49 2.62-4.72 2.42-6.7 1.73-0.52 3.39-1.1 5.01-1.73zm-72.619 1.26c2.035 0.56 4.133 1.08 6.316 1.55 3.077 1.96 6.282 3.66 9.596 5.06 0.473 1.29 0.97 2.5 1.518 3.55-5.564-0.7-10.735-2.07-15.485-3.99-0.779-0.87-1.361-1.71-1.715-2.51-0.58-1.32-0.625-2.53-0.23-3.66zm67.289 0.57c0.18 1.96-0.6 4.22-2.64 6.8-6.11 2.2-12.921 3.38-20.359 3.31 0.113-0.36 0.233-0.7 0.34-1.09 6.227-1.5 12.179-4.16 17.719-7.71 1.53-0.35 3.03-0.74 4.5-1.16 0.15-0.05 0.29-0.1 0.44-0.15zm10.13 0.43c-4.59 3.79-9.7 6.99-15.2 9.49l0.01-0.02c0.28-0.27 0.52-0.53 0.78-0.79 1.2-0.78 2.34-1.67 3.42-2.65 3.99-1.59 7.66-3.63 10.99-6.03zm-70.225 0.74c2.46 0.51 4.99 0.97 7.588 1.35 0.305 1.1 0.64 2.12 0.988 3.1-2.948-1.26-5.815-2.75-8.576-4.45zm54.265 0.33c-5.254 3.28-10.877 5.74-16.742 7.18 0.269-1.02 0.521-2.13 0.751-3.32 0.953-0.58 1.894-1.2 2.822-1.85 4.53-0.41 8.949-1.08 13.169-2.01zm-46.321 1.07c2.099 0.31 4.241 0.55 6.402 0.76 3.495 2.83 7.189 5.06 11.043 6.57l-0.363 0.03c-5.538-0.55-10.918-1.98-16.047-4.14-0.365-1.01-0.715-2.07-1.035-3.22zm-19.303 0.49c1.887 1.02 3.857 1.96 5.904 2.79 1.44 1.6 3.692 3.31 6.672 5.09-4.52-1.5-8.491-3.94-11.865-7.16-0.245-0.23-0.473-0.48-0.711-0.72zm26.29 0.34c2.37 0.22 4.759 0.41 7.17 0.52 0.536 0.02 1.075 0.03 1.612 0.04 0.817 2.39 1.654 4.37 2.514 5.85-0.045 0.01-0.09 0.02-0.134 0.02-3.889-1.44-7.625-3.63-11.162-6.43zm25.54 0.16c-0.701 0.48-1.41 0.94-2.126 1.38 0.076-0.4 0.158-0.8 0.229-1.23 0.633-0.04 1.268-0.09 1.897-0.15zm-2.229 0.18c-0.083 0.49-0.179 0.97-0.269 1.43-3.072 1.87-6.273 3.36-9.58 4.43-0.478 0.06-0.949 0.1-1.423 0.14 0.01-0.01 0.022-0.02 0.032-0.03 0.004 0 0.004-0.01 0.008-0.01 1.47-1.46 2.887-3.37 4.244-5.66 2.344-0.04 4.671-0.14 6.988-0.3zm-14.197 0.23c2.276 0.08 4.559 0.11 6.838 0.07-1.32 2.21-2.687 4.04-4.103 5.44l-0.007 0.01h-0.008c-0.079 0.09-0.152 0.15-0.23 0.24-0.843-1.44-1.679-3.4-2.49-5.76zm13.857 1.62c-0.225 1.14-0.466 2.2-0.727 3.17-1.961 0.46-3.951 0.81-5.96 1.03-0.611-0.06-1.223-0.11-1.842-0.19 2.935-1.02 5.783-2.36 8.529-4.01zm-42.669 0.54c4.677 1.83 9.755 3.13 15.201 3.8 0.546 1.01 1.125 1.91 1.747 2.67-3.42 0.03-6.619-0.4-9.589-1.23-3.27-1.84-5.753-3.6-7.359-5.24zm13.881 0.07c4.509 1.87 9.205 3.18 14.038 3.84-4.364 0.22-8.547 0.08-12.529-0.4-0.02-0.04-0.043-0.06-0.063-0.1-0.519-0.99-0.994-2.13-1.446-3.34zm49.271 0.59c-0.5 0.42-1 0.82-1.52 1.2 0.28-0.32 0.56-0.63 0.81-0.94 0.23-0.09 0.47-0.17 0.71-0.26zm-1.33 0.49c-0.43 0.51-0.91 1.03-1.43 1.57-5.38 3.52-11.925 5.03-19.525 3.86 0.155-0.33 0.32-0.62 0.466-1 0.152-0.39 0.285-0.86 0.427-1.3 7.305 0.09 14.022-1.02 20.062-3.13zm-19.959 1.82c-0.102 0.37-0.225 0.66-0.332 1-1.321-0.02-2.656-0.07-4.016-0.18 1.464-0.2 2.91-0.48 4.348-0.82zm-8.221 0.77h0.04c0.272 0.03 0.535 0.06 0.806 0.09-0.546 0.04-1.095 0.05-1.644 0.08 0.122-0.04 0.241-0.09 0.363-0.13 0.146-0.02 0.289-0.02 0.435-0.04zm-18.038 0.12c4.484 0.53 9.213 0.63 14.173 0.26 0.286 0.03 0.574 0.05 0.861 0.08-0.254 0.06-0.503 0.14-0.758 0.2h-0.008c-4.457 1.34-8.63 1.99-12.529 2.06-0.616-0.73-1.19-1.61-1.739-2.6zm15.983 0.09c-0.016 0-0.031 0.01-0.047 0.01-0.008 0-0.016 0-0.024-0.01h0.071zm4.411 0.03c1.844 0.17 3.654 0.28 5.43 0.3-0.13 0.4-0.25 0.83-0.387 1.18-0.157 0.4-0.332 0.71-0.498 1.06-2.626-0.43-5.376-1.18-8.245-2.27 1.24-0.05 2.474-0.14 3.7-0.27zm-4.64 0.34c0.991 1.77 1.934 3.15 2.83 4.08 0.498 0.51 0.987 0.9 1.462 1.17-0.514 0.03-1.027 0.07-1.541 0.08-3.474 0.1-6.936-0.02-10.229-0.31 2.171-0.48 4.546-2.07 7.13-4.92 0.116-0.03 0.232-0.06 0.348-0.1zm0.403 0.06c3.011 1.18 5.892 1.98 8.647 2.43-0.396 0.79-0.808 1.47-1.248 1.93-0.29 0.31-0.582 0.53-0.886 0.69-0.646 0.05-1.294 0.08-1.944 0.11-0.596-0.22-1.233-0.65-1.913-1.36-0.83-0.86-1.722-2.16-2.656-3.8zm26.321 0.05c-0.23 0.13-0.44 0.27-0.68 0.4-0.4 0.17-0.81 0.32-1.22 0.47 0.65-0.26 1.28-0.56 1.9-0.87zm-27.744 0.17c-2.992 3.16-5.67 4.64-7.992 4.59-0.397-0.05-0.787-0.09-1.177-0.14-1.29-0.31-2.484-1.09-3.573-2.29 3.856-0.1 7.973-0.74 12.355-2.05 0.005 0 0.01 0 0.015-0.01 0.125-0.03 0.247-0.07 0.372-0.1zm-24.884 0.36c0.584 0.21 1.168 0.4 1.771 0.57 0.208 0.12 0.378 0.23 0.593 0.35-0.799-0.29-1.579-0.6-2.364-0.92zm50.038 0.61c-3.752 1.41-7.66 2.49-11.692 3.23-1.59 0.24-3.213 0.43-4.862 0.57 0.154-0.12 0.305-0.25 0.451-0.41 0.486-0.51 0.926-1.25 1.344-2.09 5.46 0.85 10.4 0.35 14.759-1.3zm-47.184 0.23c2.775 0.68 5.739 1.02 8.885 0.97 0.825 0.95 1.719 1.66 2.671 2.12-2.181-0.3-4.236-0.7-6.102-1.17-0.247-0.07-0.489-0.14-0.735-0.21-1.639-0.45-3.141-0.95-4.411-1.53h-0.008c-0.112-0.06-0.189-0.12-0.3-0.18z" fill-rule="evenodd" fill="#000000"/>
</svg>
