<?xml version="1.0" encoding="UTF-8" standalone="no"?>
<!DOCTYPE svg  PUBLIC '-//W3C//DTD SVG 20010904//EN'  'http://www.w3.org/TR/2001/REC-SVG-20010904/DTD/svg10.dtd'>
<svg xmlns="http://www.w3.org/2000/svg" height="400pt" width="400pt" xmlns:xlink="http://www.w3.org/1999/xlink">
 <g fill-rule="evenodd" stroke="#000000" stroke-width="3.75" fill="#000000bff">
  <path d="m230.22 154.27s3.96-55.378 12.66-79.903 18.2-38.766 56.17-54.589c43.51-2.373 75.16-10.284 98.1 22.943 16.62 39.557 15.83 58.549 5.54 92.559-11.08 26.11-15.03 29.28-40.35 49.85-28.48 10.28-52.21 16.61-52.21 16.61l-79.91-47.47z" transform=""/>
  <path d="m310.92 201.74s-19.78 91.77-19.78 92.56c0 0.8 13.45 15.83 43.51 38.77 32.44 22.15 36.39 32.44 87.03 28.48 30.85-18.2 34.02-18.99 53-45.89 3.96-31.64 11.08-53.79 1.59-81.48-21.37-19.78-17.41-26.11-72-35.6-54.59-9.5-93.35 4.74-93.35 3.16z"/>
  <path d="m289.56 295.1l-89.4 10.28s-7.12 46.68-11.87 75.95c-0.79 28.48-2.37 59.33 7.12 75.95 11.08 13.45 39.56 25.32 59.34 27.69 17.4-1.58 40.35-3.96 65.66-18.99 14.24-18.2 21.36-24.52 25.32-60.92-4.75-36.39-56.96-109.17-56.17-109.96z"/>
  <path d="m229.43 153.48c-0.79 0-70.41 68.83-70.41 68.83s-37.18-11.87-60.918-30.06c-23.735-18.2-41.14-38.77-47.469-73.58-0.791-26.898 0.791-41.138 10.285-61.708 20.569-17.405 34.018-25.317 56.962-27.69 23.73-3.164 37.18 0 54.59 15.032 17.4 15.031 29.27 34.81 32.43 45.095 3.17 10.285 24.53 66.451 24.53 64.081z"/>
  <path d="m199.37 306.17l-41.14-82.28s-69.622-13.45-91.774-3.16c-22.152 10.28-35.602 33.23-47.469 55.38-7.12 18.99-15.822 27.69-6.329 62.5 11.867 35.6 13.45 39.55 49.051 49.84 36.392 0.79 60.921-1.58 85.441-17.41 24.53-15.82 52.22-64.08 52.22-64.87z"/>
 </g>
 <path d="m349.68 238.53a82.674 78.718 0 1 0 -165.34 0 82.674 78.718 0 1 0 165.34 0h-82.67z" transform="matrix(1 0 0 1.0402 -28.481 -13.545)" stroke="#000000" stroke-width="3.6768" fill="none"/>
 <path d="m349.68 238.53a82.674 78.718 0 1 0 -165.34 0 82.674 78.718 0 1 0 165.34 0h-82.67z" fill-rule="evenodd" transform="matrix(.97129 0 0 1.0101 -20.816 -6.353)" fill="#fffffff00"/>
 <g fill="#ffffff" fill-rule="evenodd">
  <path d="m238.34 131.36c0-39.582 13.19-83.292 37.11-95.662 16.49-12.37 77.52-18.968 94.84-2.474 14.02 39.585-54.43 114.64-131.95 98.136z" fill-opacity=".5"/>
  <path d="m327.4 203.94c20.62-9.9 111.34 1.64 130.3 16.49 24.74 20.62 18.15 45.36 14.02 74.22-12.37-54.43-172.36-0.82-144.32-90.71z" fill-opacity=".5"/>
  <g fill-opacity=".49804">
   <path d="m202.05 318.57c-4.12 14.02-19.79 120.4-4.95 132.77 11.55 18.15 60.2 31.34 82.47 27.22 2.47-10.72 15.67-152.57-77.52-159.99z"/>
   <path d="m143.5 212.18c-20.62-9.07-76.7-42.06-86.596-84.94-7.422-23.09 2.474-66.801 14.02-70.1 18.967-8.247 103.09 21.442 72.576 155.04z"/>
   <path d="m18.143 340.01c-7.422-24.74-13.195-46.18 23.092-92.37 20.617-44.53 97.315-20.61 105.56-18.96 25.56 51.95-94.844 20.61-128.66 111.33z"/>
  </g>
 </g>
 <rdf:RDF xmlns:rdf="http://www.w3.org/1999/02/22-rdf-syntax-ns#" xmlns="http://web.resource.org/cc/" xmlns:dc="http://purl.org/dc/elements/1.1/">
  <Work rdf:about="">
   <dc:title>Clipart by Nicu Buculei - baloon1_04</dc:title>
   <dc:rights>
    <Agent>
     <dc:title>Nicu Buculei</dc:title>
    </Agent>
   </dc:rights>
   <dc:type rdf:resource="http://purl.org/dc/dcmitype/StillImage"/>
   <license rdf:resource="http://web.resource.org/cc/PublicDomain"/>
  </Work>
  <License rdf:about="http://web.resource.org/cc/PublicDomain">
   <permits rdf:resource="http://web.resource.org/cc/Reproduction"/>
   <permits rdf:resource="http://web.resource.org/cc/Distribution"/>
   <permits rdf:resource="http://web.resource.org/cc/DerivativeWorks"/>
  </License>
 </rdf:RDF>
</svg>
