<?xml version="1.0" encoding="UTF-8" standalone="no"?>
<!DOCTYPE svg  PUBLIC '-//W3C//DTD SVG 20010904//EN'  'http://www.w3.org/TR/2001/REC-SVG-20010904/DTD/svg10.dtd'>
<svg xmlns="http://www.w3.org/2000/svg" height="400pt" width="400pt" xmlns:xlink="http://www.w3.org/1999/xlink">
 <path d="m19.48 134.75l20.454-12.67s172.4-8.76 181.17-7.79c8.77 0.98 8.77 4.87 14.61 4.87s112.01 2.92 120.78 0.98c8.76-1.95 70.13 4.87 76.94 7.79 6.82 2.92 55.52 52.6 55.52 53.57s-2.92 16.56-2.92 16.56-403.24 28.24-404.21 28.24c-0.977 0-62.34-90.58-62.34-91.55z" fill-rule="evenodd" transform="matrix(-1 0 0 1 502.34 53.57)" fill="#996600"/>
 <path d="m36.038 134.75s185.06-11.69 187.98-4.87 18.51 1.94 21.43 1.94 107.14-2.92 118.83-0.97 57.46 8.77 60.39 8.77c2.92 0 61.36 56.49 61.36 57.46 0 0.98-54.55 74.03-54.55 74.03s-216.22 11.69-224.02 6.82c-7.79-4.87-28.24-2.93-50.64 0.97-22.41 3.9-130.52 4.87-134.42 7.79-3.894 2.93-9.738 2.93-9.738 2.93s12.662-32.15 15.584-38.97c2.922-6.81 12.662-16.55 14.61-21.42s-0.974-24.35-6.818-37.99-13.636-23.38-13.636-39.93c0-16.56-2.922-16.56-2.922-16.56h16.558z" fill-rule="evenodd" transform="matrix(-1 0 0 1 502.34 53.57)" fill="#996600"/>
 <rdf:RDF xmlns:rdf="http://www.w3.org/1999/02/22-rdf-syntax-ns#" xmlns="http://web.resource.org/cc/" xmlns:dc="http://purl.org/dc/elements/1.1/">
  <Work rdf:about="">
   <dc:title>Clipart by Nicu Buculei - arrow08_4</dc:title>
   <dc:rights>
    <Agent>
     <dc:title>Nicu Buculei</dc:title>
    </Agent>
   </dc:rights>
   <dc:type rdf:resource="http://purl.org/dc/dcmitype/StillImage"/>
   <license rdf:resource="http://web.resource.org/cc/PublicDomain"/>
  </Work>
  <License rdf:about="http://web.resource.org/cc/PublicDomain">
   <permits rdf:resource="http://web.resource.org/cc/Reproduction"/>
   <permits rdf:resource="http://web.resource.org/cc/Distribution"/>
   <permits rdf:resource="http://web.resource.org/cc/DerivativeWorks"/>
  </License>
 </rdf:RDF>
</svg>
