<?xml version="1.0" encoding="UTF-8" standalone="no"?>
<!DOCTYPE svg  PUBLIC '-//W3C//DTD SVG 20010904//EN'  'http://www.w3.org/TR/2001/REC-SVG-20010904/DTD/svg10.dtd'>
<svg xmlns="http://www.w3.org/2000/svg" height="400pt" width="400pt" xmlns:xlink="http://www.w3.org/1999/xlink">
 <g fill-rule="evenodd" stroke="#000000">
  <path stroke-linejoin="bevel" d="m10.285 152.69s295.1-6.33 296.68-6.33 143.2 107.6 143.2 107.6l-359.18 15.03c0.001 0-80.695-117.88-80.695-116.3z" transform="translate(26.108 -.79113)" stroke-width="3.75" fill="#cccccc"/>
  <path stroke-linejoin="bevel" d="m90.19 340.98l-79.905-146.36-0.7913-41.93 81.487 115.51c3.165 2.37 3.956 68.82-0.791 72.78z" transform="translate(26.108 -.79113)" stroke-width="3.75" fill="#cccccc"/>
  <path stroke-linejoin="bevel" d="m93.354 268.2l356.02-15.04s7.12 20.58 7.12 35.61c0 17.4-3.96 33.22-4.75 34.01l-362.34 17.41c4.746-11.87 4.746-24.53 3.954-71.99z" transform="matrix(1.0043 0 0 1 25.722 -.79113)" stroke-width="3.75" fill="#cccccc"/>
  <g>
   <path d="m449.37 298.26l14.24-0.79v11.87l-14.24 0.79v-11.87z" stroke-width="1pt" fill="#cccccc"/>
   <path d="m134.49 281.65l130.54-5.54-0.79 34.02-130.54 7.12 0.79-35.6z" stroke-width="2.5" fill="#cccccc"/>
   <path d="m443.83 268.2c0.79 0 22.15-0.8 22.15-0.8v15.83l-22.15 0.79v-15.82z" stroke-width="1pt" fill="#cccccc"/>
  </g>
 </g>
 <g fill-rule="evenodd">
  <path d="m228.1 151.94s93.61-1.82 100.88-0.91 74.52 57.25 74.52 57.25-58.16-58.16-175.4-56.34z" fill-opacity=".25185"/>
  <path d="m125.41 328.24c0-0.91-4.54-53.62 0-53.62 4.55 0 132.68-9.08 132.68-9.08s-134.5 13.63-132.68 62.7z" fill-opacity=".5" fill="#ffffff"/>
  <path d="m94.513 243.72s17.267 22.72 18.177 28.18c0.91 5.45 2.73 51.8 2.73 51.8s-3.64-48.17-20.907-79.98z" fill-opacity=".49804" fill="#ffffff"/>
 </g>
 <rdf:RDF xmlns:rdf="http://www.w3.org/1999/02/22-rdf-syntax-ns#" xmlns="http://web.resource.org/cc/" xmlns:dc="http://purl.org/dc/elements/1.1/">
  <Work rdf:about="">
   <dc:title>Clipart by Nicu Buculei - antenna</dc:title>
   <dc:rights>
    <Agent>
     <dc:title>Nicu Buculei</dc:title>
    </Agent>
   </dc:rights>
   <dc:type rdf:resource="http://purl.org/dc/dcmitype/StillImage"/>
   <license rdf:resource="http://web.resource.org/cc/PublicDomain"/>
  </Work>
  <License rdf:about="http://web.resource.org/cc/PublicDomain">
   <permits rdf:resource="http://web.resource.org/cc/Reproduction"/>
   <permits rdf:resource="http://web.resource.org/cc/Distribution"/>
   <permits rdf:resource="http://web.resource.org/cc/DerivativeWorks"/>
  </License>
 </rdf:RDF>
</svg>
