<?xml version="1.0" encoding="UTF-8" standalone="no"?>
<!DOCTYPE svg  PUBLIC '-//W3C//DTD SVG 20010904//EN'  'http://www.w3.org/TR/2001/REC-SVG-20010904/DTD/svg10.dtd'>
<svg xmlns="http://www.w3.org/2000/svg" height="400pt" width="400pt" xmlns:xlink="http://www.w3.org/1999/xlink">
 <g fill-rule="evenodd" stroke="#000000" stroke-width="3.75">
  <path stroke-linejoin="bevel" d="m53.75 166.25l208.75 52.5c55.83-55.83 107.92-81.67 167.5-111.25l-216.25-52.5c-57.08 24.583-110.42 64.17-160 111.25z" transform="translate(8.75 21.25)" fill="#fffffffff"/>
  <path d="m51.25 166.25l-2.5 191.25 208.75 61.25s5-201.25 3.75-201.25-212.5-50-210-51.25z" transform="translate(8.75 21.25)" fill="#fffffffff"/>
  <path stroke-linejoin="bevel" d="m260 220c17.5-26.25 156.25-113.75 168.75-111.25l-6.25 192.5-165 120 2.5-201.25z" transform="translate(8.75 21.25)" fill="#cccccc"/>
 </g>
 <path d="m101.25 153.75c39.17-13.33 97.08-37.92 113.75-55l123.75 35c-33.75 18.75-67.5 35-87.5 63.75-13.75-5-141.25-38.75-150-43.75z" transform="translate(8.75 21.25)" stroke="#000000" stroke-width="3.75" fill="none"/>
 <path d="m213.75 98.75l60-77.5 100 25-35 87.5-125-35z" fill-rule="evenodd" transform="translate(8.75 21.25)" stroke="#000000" stroke-width="3.75" fill="#ffffff"/>
 <g stroke="#000000" fill="none">
  <path d="m56.25 316.25l196.25 61.25-1.25 35-195-58.75c-2.5-1.25 0-32.5 0-37.5z" transform="translate(8.75 21.25)" stroke-width="3.75"/>
  <path d="m56.25 308.75c3.75 1.25 195 62.5 195 60s1.25-36.25 1.25-37.5l-195-58.75-1.25 36.25z" transform="translate(8.75 21.25)" stroke-width="3.75"/>
  <g stroke-width="1pt">
   <path d="m66.944 371.5l5.386-10 1.539 11.54v0.77"/>
   <path d="m69.666 366.35c1.54 0.77 2.901 0.95 2.901 0.95"/>
   <path d="m79.729 361.97l-3.67 6.45 3.67 0.48-0.059 5.68"/>
   <path d="m70.139 318.11l-0.887 8.76 3.078 1.07"/>
   <path d="m74.638 319.94s-0.769 7.7-0.769 8.47 4.617 1.6 4.617 1.6"/>
   <path d="m74.638 320.72l5.287 1.73"/>
   <path d="m73.869 324.86l4.951 1.54"/>
   <path d="m81.228 323.02l4.655 1.09"/>
   <path d="m83.261 323.81l-0.199 7.56"/>
  </g>
 </g>
 <g fill-rule="evenodd">
  <path d="m275.32 425.63c6.33-1.58 143.98-93.35 147.15-107.59 3.16-14.24 7.91-177.22 6.33-177.22s20.57 196.2-153.48 284.81z" fill-opacity=".25"/>
  <path d="m68.038 278.48c3.164-7.91-1.582-68.04 1.582-71.2 3.165-3.17 158.23 33.23 158.23 33.23s-147.15-41.14-159.81 37.97z" fill-opacity=".8" fill="#ffffff"/>
  <path d="m223.1 126.58c1.58 0 117.09 26.9 104.43 31.65s-63.29 39.55-63.29 39.55 98.1-47.46-41.14-71.2z" fill-opacity=".24706"/>
 </g>
 <rdf:RDF xmlns:rdf="http://www.w3.org/1999/02/22-rdf-syntax-ns#" xmlns="http://web.resource.org/cc/" xmlns:dc="http://purl.org/dc/elements/1.1/">
  <Work rdf:about="">
   <dc:title>Clipart by Nicu Buculei - antenna</dc:title>
   <dc:rights>
    <Agent>
     <dc:title>Nicu Buculei</dc:title>
    </Agent>
   </dc:rights>
   <dc:type rdf:resource="http://purl.org/dc/dcmitype/StillImage"/>
   <license rdf:resource="http://web.resource.org/cc/PublicDomain"/>
  </Work>
  <License rdf:about="http://web.resource.org/cc/PublicDomain">
   <permits rdf:resource="http://web.resource.org/cc/Reproduction"/>
   <permits rdf:resource="http://web.resource.org/cc/Distribution"/>
   <permits rdf:resource="http://web.resource.org/cc/DerivativeWorks"/>
  </License>
 </rdf:RDF>
</svg>
