<?xml version="1.0" encoding="UTF-8" standalone="no"?>
<!DOCTYPE svg PUBLIC "-//W3C//DTD SVG 20010904//EN" "http://www.w3.org/TR/2001/REC-SVG-20010904/DTD/svg10.dtd">
<svg xmlns="http://www.w3.org/2000/svg" xmlns:xlink="http://www.w3.org/1999/xlink" height="400pt" width="400pt">
 <g fill-rule="evenodd" stroke="#000000" stroke-width="3.0038">
  <path d="m53.75 166.25c-12.5 36.25-8.75 63.75-2.5 113.75 16.25 7.5 332.5 6.25 358.75-3.75 12.5-17.5 6.25-81.25 2.5-111.25-11.25-3.75-358.75 1.25-358.75 1.25z" transform="matrix(1.2319 0 0 1.2652 -38.041 28.246)" fill="#cccccc"/>
  <path stroke-linejoin="bevel" d="m62.5 260c1.25 0 81.25-112.5 81.25-112.5h228.75l50 111.25-360 1.25z" transform="matrix(1.2319 0 0 1.2652 -50.36 -90.366)" fill="#999999"/>
  <g>
   <path d="m95 303.75c1.25-23.75 35-23.75 36.25 0-1.25 22.5-35 25-36.25 0z" transform="matrix(1.2319 0 0 1.2652 -76.538 -88.785)" fill="#ff3366"/>
   <path d="m95 303.75c1.25-23.75 35-23.75 36.25 0-1.25 22.5-35 25-36.25 0z" transform="matrix(1.2319 0 0 1.2652 -8.7843 -88.785)" fill="#996666"/>
   <path d="m95 303.75c1.25-23.75 35-23.75 36.25 0-1.25 22.5-35 25-36.25 0z" transform="matrix(1.2319 0 0 1.2652 63.589 -88.785)" fill="#ff3366"/>
   <path d="m95 303.75c1.25-23.75 35-23.75 36.25 0-1.25 22.5-35 25-36.25 0z" transform="matrix(1.2319 0 0 1.2652 134.42 -90.366)" fill="#996666"/>
  </g>
 </g>
 <g stroke="#000000" stroke-width="1pt" fill="none">
  <path d="m453.75 370.62l-1.25-11.87-6.25 5.63-7.5-5.63v12.5"/>
  <path d="m430 360h-13.75v11.25h12.5"/>
  <path d="m416.25 365h7.5"/>
  <path d="m397.5 360v12.5l10.62-3.12 0.63-7.5-11.25-1.88z"/>
  <path d="m378.75 360h11.25l0.62 11.88-11.87 0.62v-12.5z"/>
  <path d="m453.75 370.62l-1.25-11.87-6.25 5.63-7.5-5.63v12.5" transform="translate(-80 1.875)"/>
 </g>
 <path d="m196.2 101.27s189.88 0 199.37 1.58 52.21 121.83 52.21 121.83-44.3-112.34-251.58-123.41z" fill-opacity=".25" fill-rule="evenodd" fill="#000000"/>
 <path d="m310.13 248.42s143.98-14.24 151.89 6.33c6.33 20.57 4.75 98.1 4.75 96.52-12.66-17.41 18.99-110.76-156.64-102.85z" fill-opacity=".49630" fill-rule="evenodd" fill="#ffffff"/>
 <rdf:RDF xmlns:rdf="http://www.w3.org/1999/02/22-rdf-syntax-ns#" xmlns="http://web.resource.org/cc/" xmlns:dc="http://purl.org/dc/elements/1.1/">
  <Work rdf:about="">
   <dc:title>Clipart by Nicu Buculei - antenna</dc:title>
   <dc:rights>
    <Agent>
     <dc:title>Nicu Buculei</dc:title>
    </Agent>
   </dc:rights>
   <dc:type rdf:resource="http://purl.org/dc/dcmitype/StillImage"/>
   <license rdf:resource="http://web.resource.org/cc/PublicDomain"/>
  </Work>
  <License rdf:about="http://web.resource.org/cc/PublicDomain">
   <permits rdf:resource="http://web.resource.org/cc/Reproduction"/>
   <permits rdf:resource="http://web.resource.org/cc/Distribution"/>
   <permits rdf:resource="http://web.resource.org/cc/DerivativeWorks"/>
  </License>
 </rdf:RDF>
</svg>
