<?xml version="1.0" encoding="UTF-8" standalone="no"?>
<!DOCTYPE svg  PUBLIC '-//W3C//DTD SVG 20010904//EN'  'http://www.w3.org/TR/2001/REC-SVG-20010904/DTD/svg10.dtd'>
<svg xmlns="http://www.w3.org/2000/svg" height="400pt" width="400pt" xmlns:xlink="http://www.w3.org/1999/xlink">
 <path d="m60 357.5c8.75 28.75 63.75 72.5 123.75 71.25s233.75-160 258.75-196.25 19.38-69.31 22.25-87.53c0-17.5-127.25-59.97-161-56.22s-151.25 70-177.5 102.5-72.5 67.5-66.25 166.25z" fill-rule="evenodd" stroke="#000000" stroke-width="3.75" fill="#fffffffff"/>
 <g fill-rule="evenodd" stroke="#000000" stroke-width="3.75" fill="#cccccc">
  <path d="m230 118.75c2.5 3.75 77.5 36.25 77.5 36.25l81.65-48.74c-46.16-13.643-72.89-20.848-93.34-16.273-15.37 2.539-67.06 30.013-65.81 28.763z"/>
  <path d="m313.75 161.25l87.5-50s55 15 60 25 13.75 15-16.25 36.25-46.25 30-46.25 30l-85-41.25z"/>
  <path d="m467.28 149.11s-3.53 10.89-8.53 14.64-43.75 31.25-50 37.5-41.25 27.5-57.5 60c-48.75 82.5-81.25 93.75-131.25 130-6.25 7.5-8.75 11.25-12.5 31.25 5 0 46.25-23.75 52.5-28.75 33.75-21.25 116.25-91.25 137.5-112.5 72.5-68.75 76.03-122.14 69.78-132.14z"/>
 </g>
 <path d="m451.71 129.43c5.68 2.37 4.93 2.43 7.43 4.11 4.4 11.38 13.28 1.76-12.42 29.91-17.64 14.41-45.47 30.3-45.47 30.3" stroke="#000000" stroke-width="3.75" fill="none"/>
 <path d="m223.12 132.5l53.13 28.75-9.37 4.37s-21.26-11.24-20-11.24c1.24 0 5-2.5 5-2.5l-16.26-9.38-5 3.12-13.12-8.74 5.62-4.38z" stroke="#000000" stroke-width="3.75" fill="none"/>
 <g fill-rule="evenodd">
  <path d="m63.774 352.31c0-2.23 1.119-67.13 12.307-61.53 11.189 5.59 102.93 62.65 101.82 62.65-1.12 0-110.77-71.6-114.13-1.12z" fill-opacity=".9" fill="#ffffff"/>
  <path d="m166.71 171.06c-30.21 1.12-89.51 88.39-88.391 98.46 2.237 16.78 90.621 69.37 90.621 69.37-33.56-30.21-74.957-98.46-2.23-167.83z" fill-opacity=".90196" fill="#ffffff"/>
  <path d="m462.08 169.94c0 7.83-8.95 72.73-137.62 165.59 85.04-83.91 98.46-101.81 137.62-165.59z" fill-opacity=".25"/>
  <path d="m403.9 116.24s45.87 15.66 46.99 22.38c1.12 6.71-45.87 44.75-45.87 44.75s60.42-44.75-1.12-67.13z" fill-opacity=".24706"/>
 </g>
 <rdf:RDF xmlns:rdf="http://www.w3.org/1999/02/22-rdf-syntax-ns#" xmlns="http://web.resource.org/cc/" xmlns:dc="http://purl.org/dc/elements/1.1/">
  <Work rdf:about="">
   <dc:title>Clipart by Nicu Buculei - antenna</dc:title>
   <dc:rights>
    <Agent>
     <dc:title>Nicu Buculei</dc:title>
    </Agent>
   </dc:rights>
   <dc:type rdf:resource="http://purl.org/dc/dcmitype/StillImage"/>
   <license rdf:resource="http://web.resource.org/cc/PublicDomain"/>
  </Work>
  <License rdf:about="http://web.resource.org/cc/PublicDomain">
   <permits rdf:resource="http://web.resource.org/cc/Reproduction"/>
   <permits rdf:resource="http://web.resource.org/cc/Distribution"/>
   <permits rdf:resource="http://web.resource.org/cc/DerivativeWorks"/>
  </License>
 </rdf:RDF>
</svg>
