<?xml version="1.0" encoding="UTF-8" standalone="no"?>
<!DOCTYPE svg  PUBLIC '-//W3C//DTD SVG 20010904//EN'  'http://www.w3.org/TR/2001/REC-SVG-20010904/DTD/svg10.dtd'>
<svg xmlns="http://www.w3.org/2000/svg" height="400pt" width="400pt" xmlns:xlink="http://www.w3.org/1999/xlink">
 <path stroke-linejoin="bevel" d="m127.5 106.25s-1.25-87.5 103.75-61.25 86.25 70 87.5 70-18.75-53.75 61.25-63.75c72.5 6.25 106.25 20 102.5 66.25s-38.75 57.5-38.75 57.5 63.75 6.25 46.25 100c-27.5 65-27.5 58.75-91.25 66.25-28.75-11.25-30-21.25-30-21.25s52.5 48.75-26.25 80c-88.75 23.75-100 2.5-137.5-8.75-36.25-22.5-28.75-50-28.75-50s22.5 46.25-53.75 55-105-8.75-118.75-80c-3.75-53.75 63.75-58.75 63.75-58.75s-41.25 1.25-52.5-26.25-18.75-63.75 15-112.5c62.5-58.75 105-20 97.5-12.5z" fill-rule="evenodd" stroke="#000000" stroke-width="3.75" fill="#ffffff"/>
 <rdf:RDF xmlns:rdf="http://www.w3.org/1999/02/22-rdf-syntax-ns#" xmlns="http://web.resource.org/cc/" xmlns:dc="http://purl.org/dc/elements/1.1/">
  <Work rdf:about="">
   <dc:title>Clipart by Nicu Buculei - antenna</dc:title>
   <dc:rights>
    <Agent>
     <dc:title>Nicu Buculei</dc:title>
    </Agent>
   </dc:rights>
   <dc:type rdf:resource="http://purl.org/dc/dcmitype/StillImage"/>
   <license rdf:resource="http://web.resource.org/cc/PublicDomain"/>
  </Work>
  <License rdf:about="http://web.resource.org/cc/PublicDomain">
   <permits rdf:resource="http://web.resource.org/cc/Reproduction"/>
   <permits rdf:resource="http://web.resource.org/cc/Distribution"/>
   <permits rdf:resource="http://web.resource.org/cc/DerivativeWorks"/>
  </License>
 </rdf:RDF>
</svg>
