<?xml version="1.0" encoding="UTF-8" standalone="no"?>
<!DOCTYPE svg  PUBLIC '-//W3C//DTD SVG 1.0//EN'  'http://www.w3.org/TR/2001/REC-SVG-20010904/DTD/svg10.dtd'>
<svg xmlns="http://www.w3.org/2000/svg" height="200pt" width="200pt" xmlns:xlink="http://www.w3.org/1999/xlink">
 <path stroke-linejoin="round" d="m117.96 17.471c-48.677 0-88.179 39.375-88.179 87.899 0 37.15 23.187 68.88 55.887 81.74l19.482-49.64c-13.104-5.55-22.298-18.49-22.298-33.57 0-20.123 16.382-36.45 36.568-36.45 20.19 0 36.57 16.327 36.57 36.45 0 13.52-7.4 25.3-18.37 31.6l24.46 45.91c26.32-15.22 44.06-43.55 44.06-76.04 0-48.524-39.5-87.899-88.18-87.899z" fill-rule="evenodd" stroke="#003300" stroke-width="4.462" fill="#339933"/>
 <g stroke-width="1pt">
  <path d="m214.74 157.23h3.89l4.91 11.74 4.94-11.74h3.89l3.47 17.02-3.08 0.15-2.93-15.07-4.97 11.83h-2.62l-4.97-11.83-2.2 14.92-2.9 0.08 2.57-17.1zm-18.81 0h16.29v1.96h-6.83v15.29h-2.62v-15.29h-6.84v-1.96z" fill="#003300"/>
  <path d="m98.141 207.57v14.92h-5.772v-14c0-1.67-0.231-2.86-0.694-3.57-0.45-0.73-1.19-1.09-2.222-1.09-1.044 0-1.871 0.49-2.479 1.46-0.595 0.97-0.892 2.32-0.892 4.04v13.16h-5.772v-22.99h5.772v3.45c0.409-1.28 1.11-2.26 2.102-2.96s2.188-1.05 3.59-1.05c2.103 0 3.689 0.73 4.761 2.18 1.071 1.44 1.606 3.59 1.606 6.45zm-23.841 13.79c-1.349 0.58-2.724 1.01-4.126 1.3-1.402 0.28-2.883 0.43-4.443 0.43-3.716 0-6.559-1.03-8.529-3.08-1.957-2.07-2.936-5.04-2.936-8.91 0-3.75 0.946-6.72 2.837-8.89 1.891-2.18 4.469-3.27 7.735-3.27 3.293 0 5.845 1.02 7.657 3.04 1.824 2.01 2.737 4.85 2.737 8.52v2.45h-15.055c0.013 1.8 0.529 3.15 1.547 4.04 1.019 0.89 2.539 1.33 4.562 1.33 1.336 0 2.652-0.19 3.947-0.59 1.296-0.4 2.652-1.03 4.067-1.89v5.52zm-4.919-12.93c-0.027-1.59-0.424-2.79-1.191-3.59-0.753-0.83-1.871-1.24-3.352-1.24-1.335 0-2.4 0.43-3.193 1.28-0.793 0.83-1.263 2.02-1.408 3.57l9.144-0.02zm-32.629 10.82v11.99h-5.792v-31.74h5.792v3.45c0.609-1.33 1.409-2.33 2.4-3 0.992-0.67 2.156-1.01 3.491-1.01 2.539 0 4.509 1.06 5.911 3.17 1.402 2.1 2.102 5.07 2.102 8.91 0 3.88-0.714 6.87-2.142 8.95-1.415 2.08-3.438 3.12-6.069 3.12-1.19 0-2.261-0.32-3.213-0.95-0.939-0.64-1.766-1.61-2.48-2.89zm8.093-8.28c0-2.21-0.357-3.95-1.071-5.21s-1.699-1.89-2.956-1.89c-1.256 0-2.248 0.63-2.975 1.89s-1.091 3-1.091 5.21c0 2.22 0.364 3.96 1.091 5.22s1.719 1.89 2.975 1.89c1.257 0 2.242-0.63 2.956-1.89s1.071-3 1.071-5.22zm-29.098-7.14c-1.388 0-2.479 0.64-3.273 1.91-0.793 1.26-1.19 3.02-1.19 5.28 0 2.25 0.397 4.02 1.19 5.29 0.794 1.26 1.885 1.89 3.273 1.89 1.402 0 2.499-0.63 3.293-1.89 0.793-1.27 1.19-3.04 1.19-5.29 0-2.26-0.397-4.02-1.19-5.28-0.794-1.27-1.891-1.91-3.293-1.91zm-10.274 7.19c0-3.71 0.9256-6.65 2.7768-8.81 1.8645-2.18 4.3635-3.27 7.4975-3.27 3.147 0 5.646 1.09 7.498 3.27 1.864 2.16 2.796 5.1 2.796 8.81 0 3.7-0.932 6.65-2.796 8.82-1.852 2.17-4.351 3.25-7.498 3.25-3.134 0-5.633-1.08-7.4975-3.25-1.8512-2.17-2.7768-5.12-2.7768-8.82z"/>
  <path d="m247.17 211.51v1.85h-16.78c0.16 2.6 0.92 4.58 2.26 5.95 1.37 1.36 3.26 2.03 5.68 2.03 1.4 0 2.75-0.17 4.06-0.53 1.33-0.35 2.63-0.89 3.93-1.6v3.57c-1.31 0.58-2.65 1.01-4.03 1.32-1.37 0.3-2.77 0.45-4.18 0.45-3.54 0-6.35-1.07-8.43-3.21-2.06-2.13-3.09-5.02-3.09-8.66 0-3.76 0.97-6.75 2.93-8.95 1.97-2.22 4.62-3.33 7.95-3.33 2.99 0 5.35 1 7.09 3 1.74 1.99 2.61 4.69 2.61 8.11zm-3.65-1.11c-0.02-2.06-0.58-3.71-1.68-4.95-1.09-1.23-2.53-1.84-4.33-1.84-2.03 0-3.67 0.59-4.9 1.78-1.21 1.19-1.91 2.87-2.1 5.03l13.01-0.02zm-21.7-8.56v3.53c-1.03-0.59-2.06-1.02-3.11-1.31-1.03-0.3-2.08-0.45-3.13-0.45-2.37 0-4.21 0.78-5.52 2.34-1.31 1.54-1.96 3.72-1.96 6.53 0 2.8 0.65 4.98 1.96 6.54 1.31 1.55 3.15 2.32 5.52 2.32 1.05 0 2.1-0.14 3.13-0.43 1.05-0.3 2.08-0.74 3.11-1.33v3.49c-1.01 0.49-2.07 0.86-3.17 1.11-1.08 0.24-2.24 0.37-3.47 0.37-3.35 0-6-1.09-7.97-3.27-1.97-2.17-2.96-5.11-2.96-8.8 0-3.75 0.99-6.7 2.98-8.85s4.72-3.23 8.19-3.23c1.12 0 2.22 0.13 3.29 0.37s2.11 0.59 3.11 1.07zm-19.81 2.65c-0.41-0.25-0.86-0.43-1.35-0.53-0.48-0.13-1-0.19-1.59-0.19-2.06 0-3.65 0.7-4.76 2.09-1.09 1.39-1.64 3.38-1.64 5.98v12.11h-3.67v-22.99h3.67v3.57c0.76-1.4 1.76-2.43 2.99-3.1 1.23-0.68 2.73-1.03 4.49-1.03 0.25 0 0.52 0.02 0.83 0.06 0.3 0.03 0.64 0.08 1.01 0.15l0.02 3.88zm-39 10.39v-13.92h3.65v13.77c0 2.18 0.41 3.82 1.23 4.91 0.82 1.08 2.05 1.62 3.69 1.62 1.97 0 3.53-0.65 4.66-1.95 1.15-1.3 1.73-3.07 1.73-5.32v-13.03h3.65v22.99h-3.65v-3.53c-0.89 1.4-1.92 2.44-3.09 3.12-1.17 0.67-2.52 1.01-4.07 1.01-2.55 0-4.49-0.82-5.81-2.47-1.32-1.64-1.99-4.04-1.99-7.2zm-15.86-11.27c-1.96 0-3.51 0.79-4.64 2.38-1.14 1.57-1.71 3.73-1.71 6.49 0 2.75 0.56 4.92 1.69 6.5s2.69 2.36 4.66 2.36c1.94 0 3.48-0.79 4.62-2.38 1.14-1.58 1.7-3.75 1.7-6.48s-0.56-4.88-1.7-6.47c-1.14-1.6-2.68-2.4-4.62-2.4zm0-3.21c3.17 0 5.66 1.07 7.47 3.21 1.82 2.13 2.72 5.09 2.72 8.87 0 3.76-0.9 6.72-2.72 8.86-1.81 2.14-4.3 3.21-7.47 3.21-3.19 0-5.69-1.07-7.5-3.21-1.8-2.14-2.7-5.1-2.7-8.86 0-3.78 0.9-6.74 2.7-8.87 1.81-2.14 4.31-3.21 7.5-3.21zm-15.61 1.24v3.57c-1.03-0.55-2.11-0.96-3.22-1.23-1.11-0.28-2.26-0.41-3.45-0.41-1.81 0-3.17 0.28-4.08 0.86-0.9 0.57-1.35 1.43-1.35 2.58 0 0.88 0.32 1.57 0.97 2.08 0.65 0.49 1.95 0.96 3.91 1.41l1.25 0.29c2.59 0.58 4.43 1.39 5.51 2.45 1.1 1.04 1.65 2.49 1.65 4.37 0 2.13-0.82 3.82-2.46 5.07-1.63 1.24-3.87 1.87-6.73 1.87-1.19 0-2.43-0.13-3.73-0.37-1.28-0.23-2.63-0.59-4.06-1.07v-3.9c1.35 0.73 2.68 1.27 3.98 1.64 1.31 0.36 2.61 0.54 3.89 0.54 1.72 0 3.04-0.31 3.97-0.91 0.92-0.61 1.39-1.48 1.39-2.58 0-1.03-0.34-1.82-1.01-2.37-0.66-0.54-2.13-1.07-4.39-1.58l-1.27-0.3c-2.26-0.5-3.89-1.25-4.9-2.26-1-1.03-1.5-2.43-1.5-4.21 0-2.16 0.74-3.83 2.22-5.01s3.58-1.77 6.31-1.77c1.34 0 2.61 0.11 3.8 0.31 1.19 0.21 2.29 0.51 3.3 0.93z"/>
 </g>
 <rdf:RDF xmlns:rdf="http://www.w3.org/1999/02/22-rdf-syntax-ns#" xmlns="http://web.resource.org/cc/" xmlns:dc="http://purl.org/dc/elements/1.1/">
  <Work rdf:about="">
   <dc:title>Clipart by Nicu Buculei - antenna</dc:title>
   <dc:rights>
    <Agent>
     <dc:title>Nicu Buculei</dc:title>
    </Agent>
   </dc:rights>
   <dc:type rdf:resource="http://purl.org/dc/dcmitype/StillImage"/>
   <license rdf:resource="http://web.resource.org/cc/PublicDomain"/>
  </Work>
  <License rdf:about="http://web.resource.org/cc/PublicDomain">
   <permits rdf:resource="http://web.resource.org/cc/Reproduction"/>
   <permits rdf:resource="http://web.resource.org/cc/Distribution"/>
   <permits rdf:resource="http://web.resource.org/cc/DerivativeWorks"/>
  </License>
 </rdf:RDF>
</svg>
