<?xml version="1.0" encoding="UTF-8" standalone="no"?>
<!DOCTYPE svg PUBLIC "-//W3C//DTD SVG 20010904//EN" "http://www.w3.org/TR/2001/REC-SVG-20010904/DTD/svg10.dtd" [
<!ATTLIST svg xmlns:xlink CDATA #FIXED "http://www.w3.org/1999/xlink">
]>
<svg xmlns="http://www.w3.org/2000/svg" xmlns:xlink="http://www.w3.org/1999/xlink" height="400pt" width="400pt">
 <path d="m219.06 24.591c33.4 2.331 47.39 7.867 57.47 30.522 9.34 36.566 3.12 67.357 28.76 102.32 15.53 34.18 50.49 43.5 55.93 128.17-5.44 38.84 15.53 50.49 34.18 61.37 10.1 22.53-51.31 27.31-73.8 58.03-14.5 4.34-32.23 5.44-46.99-16.31-35.73-0.78-54.77-0.55-84.29 1.78-13.21 3.11-22.35 15.54-34.96 15.41-38.06-12.53-68.357-13.08-105.64-27.06 1.55-13.98 12.425-24.86 1.55-48.16 3.884-25.64 17.089 3.88 46.608-39.62-6.214-28.74 16.312-43.5 18.642-56.71 8.55-26.41 33.4-62.14 48.94-79.23 10.1-52.05-28.74-130.51 53.6-130.51z" fill-rule="evenodd" transform="matrix(1.281 0 0 1.2466 -26.472 -19.813)" fill="#000000"/>
 <path d="m177.11 151.99c-4.66 7.77-10.87 19.42-15.53 28.74s1.55 19.42-3.11 24.86c-17.09 24.08-25.63 46.61-19.42 88.55 12.43 13.21 34.18 27.97 45.05 41.95 0.78 6.99-8.54 13.21-8.54 13.21s7.77 1.55 10.88 1.55c3.1 0 7.76 13.21 15.53 15.54 8.55 0.77 63.18 5.94 77.16-23.57 5.98-37.82-9.58-47.9 17.61-51.78 3.89-27.19 0-52.82-4.66-63.7-10.87-24.86-15.54-32.63-20.97-52.05-8.55-13.98-11.65-22.53-18.65-30.29-31.85 9.32-36.51 27.96-49.71 27.96-18.65-2.33-17.87-19.42-25.64-20.97z" fill-rule="evenodd" transform="matrix(1.281 0 0 1.2466 -26.472 -19.813)" fill="#ffffff"/>
 <g fill-rule="evenodd" fill="#ff9900">
  <path d="m356.56 294.14s-39.62 54.38-60.6 1.56c-21.73 2.33-2.92 53.27-13.02 85.12 0.78 14.76 23.12 20.52 35.55 15.09 42.73-36.51 69.14-25.64 72.25-43.5-4.66-20.98-31.08 10.09-34.18-58.27z" transform="matrix(1.281 0 0 1.2466 -26.472 -19.813)"/>
  <path d="m56.707 325.99c3.884-5.43 35.733-4.66 44.273-34.95 19.43-14.76 55.16 44.28 73.03 79.23 2.33 6.22 0 32.63-31.85 27.97-62.925-22.53-73.801-10.88-86.23-24.86 14.76-23.3 5.438-32.63 0.777-47.39z" transform="matrix(1.281 0 0 1.2466 -26.472 -19.813)"/>
  <path d="m186.44 149.66c1.55 4.66 8.54 10.1 13.98 10.1 15.53-1.56 44.28-12.43 53.6-20.2 2.33-4.66 6.21-13.21 0.77-17.87-10.87 0-26.41-7.77-31.07-12.43-6.99-3.1-21.75-2.33-29.52-1.55-6.99 9.32-21.75 14.76-20.97 20.97 2.33 5.44 8.54 7.77 13.21 14.76 10.09 3.11 36.5 0 39.61-3.1 3.11-3.11 17.12-6.51 19.42-10.1 3.33-1.55 4.91 1.82 1.56 4.66-2.33 2.33-27.19 11.65-34.18 13.2-8.55 1.56-18.65 2.34-26.41 1.56z" transform="matrix(1.281 0 0 1.2466 -26.472 -19.813)"/>
 </g>
 <g fill-rule="evenodd" fill="#ffffff">
  <path d="m226.22 107.57c0.5-7.36-1.54-14.879 10.01-17.187 14.33 2.006 12.77 10.087 10.76 23.337 2.82 2.85 6.66 1.06 8.97 0.29 1.03 0.24 8.23-21.685-10.5-35.677-19.24-2.824-28.48 2.396-27.7 26.927 5.09 2.46 4.15 1.57 8.46 2.31z" transform="matrix(1.281 0 0 1.2466 -26.472 -19.813)"/>
  <path d="m194.93 105.28c-1.02-3.55 0.24-14.644-10.26-13.866-9.48-0.492-7.41 18.186-2.31 19.236 3.07 3.08-2.31 8.72-3.85 6.41-4.08-0.53-13.81-36.173 7.64-37.704 12.83-1.277 15.97 20.276 13.91 26.174-3.07 0.56-3.88 0.52-5.13-0.25z" transform="matrix(1.281 0 0 1.2466 -26.472 -19.813)"/>
  <path d="m236.32 92.604c2.03-0.507 11.92 3.046 9.64 9.896-0.76 2.8-1.52 1.78-3.55 0.76 0.25-4.987-2.29-6.679-6.35-7.863-0.17-1.185-0.59-1.862 0.26-2.793z" fill-opacity=".7" transform="matrix(1.281 0 0 1.2466 -26.472 -19.813)"/>
  <path d="m191.64 105.55s-3.04 1.27-3.04 0.25c0-1.01-0.26-6.342-3.05-8.88-0.76-1.524-0.51-2.031 1.52-2.539 2.79 1.269 5.33 3.554 4.57 11.169z" fill-opacity=".7" transform="matrix(1.281 0 0 1.2466 -26.472 -19.813)"/>
  <path d="m247.48 42.854c6.1 1.523 9.65 5.33 10.16 8.63-6.1 0.762-12.19 5.584-15.23 4.823-0.77-1.523 3.04-6.346 5.07-13.453z" fill-opacity=".25" transform="matrix(1.281 0 0 1.2466 -26.472 -19.813)"/>
  <g fill-opacity=".7">
   <path d="m271.34 136.77c1.53 0.25 7.87 6.35 14.72 9.14 2.04-1.52 0.26 7.36-4.56 8.12-5.08-2.54-13.96-12.18-10.16-17.26z" transform="matrix(1.281 0 0 1.2466 -26.472 -19.813)"/>
   <path d="m305.86 280.44c6.6-1.02 18.03-3.56 24.88 2.79 4.31 2.79 2.54-0.51 1.52-2.79-6.34-5.33-8.63-6.6-11.17-6.09-2.53 0.5 23.1-39.85-27.92-86.05 24.37 32.49 40.87 77.16 12.69 92.14z" transform="matrix(1.281 0 0 1.2466 -26.472 -19.813)"/>
   <path d="m130.72 216.47c0.51-2.03 4.57-4.31 6.35-10.4-0.76-1.02 4.06-4.57 4.31-1.02-1.77 7.62-6.6 17.51-10.66 11.42z" transform="matrix(1.281 0 0 1.2466 -26.472 -19.813)"/>
   <path d="m123.87 243.63c0.51 0.26-6.09 28.43 6.09 43.91 2.03 7.37-7.36-4.82-10.92-13.19-1.01-10.41-4.56-24.88 4.83-30.72z" transform="matrix(1.281 0 0 1.2466 -26.472 -19.813)"/>
   <path d="m278.7 358.11c-0.76 5.84-2.03 18.02-3.55 25.38-1.01 1.02-6.35-0.25-5.84-5.83 0.51-5.59 5.08-19.04 9.39-19.55z" transform="matrix(1.281 0 0 1.2466 -26.472 -19.813)"/>
   <path d="m170.83 351.51c2.79 1.01 14.97 12.18 17.26 19.8 2.28 12.44-1.53 15.48-3.56 16.5-0.76-2.54 1.53-7.62 0.26-13.71-2.79-9.39-16.5-20.31-13.96-22.59z" transform="matrix(1.281 0 0 1.2466 -26.472 -19.813)"/>
  </g>
 </g>
 <g fill-rule="evenodd">
  <path d="m192.4 202.51c1.52-1.27 28.18-1.01 31.73 1.02s-1.52 4.31-3.55 4.31-9.65-1.27-9.9 0.76c-0.26 2.04 1.27 9.9-0.26 11.17-1.52 1.27-5.58 2.03-6.6 0.51-1.26-3.55 0.51-10.66-1.01-11.17s-12.44-0.25-10.41-6.6z" fill-opacity=".25" transform="matrix(1.281 0 0 1.2466 -26.472 -19.813)"/>
  <path d="m201.79 234.5c-0.5-2.29 5.33-3.05 6.1-1.27 2.03 5.83-3.56 67.26-7.62 66.75-4.31-0.25 0.76-45.18 1.52-65.48z" fill-opacity=".25" transform="matrix(1.281 0 0 1.2466 -26.472 -19.813)"/>
  <path d="m192.56 113.73c-0.39 0.19 0.38-2.12 2.5-2.5 0.77-0.39 0.96-2.12 3.08-1.54 1.92 0.19 2.69 0.96-0.19 2.69-2.12 2.12-3.85 4.23-5.39 1.35z" fill-opacity=".75" transform="matrix(1.281 0 0 1.2466 -26.472 -19.813)"/>
  <path d="m213.14 111.04c0-0.2 1.93-1.54 5.96-0.58 2.12 0.96 1.74 2.11 0.97 2.5-2.12 1.34-5.01 0.38-6.93-1.92z" fill-opacity=".74902" transform="matrix(1.281 0 0 1.2466 -26.472 -19.813)"/>
 </g>
 <rdf:RDF xmlns:rdf="http://www.w3.org/1999/02/22-rdf-syntax-ns#" xmlns="http://web.resource.org/cc/" xmlns:dc="http://purl.org/dc/elements/1.1/">
  <Work rdf:about="">
   <dc:title>Clipart by Nicu Buculei - antenna</dc:title>
   <dc:rights>
    <Agent>
     <dc:title>Nicu Buculei</dc:title>
    </Agent>
   </dc:rights>
   <dc:type rdf:resource="http://purl.org/dc/dcmitype/StillImage"/>
   <license rdf:resource="http://web.resource.org/cc/PublicDomain"/>
  </Work>
  <License rdf:about="http://web.resource.org/cc/PublicDomain">
   <permits rdf:resource="http://web.resource.org/cc/Reproduction"/>
   <permits rdf:resource="http://web.resource.org/cc/Distribution"/>
   <permits rdf:resource="http://web.resource.org/cc/DerivativeWorks"/>
  </License>
 </rdf:RDF>
</svg>
