<?xml version="1.0" encoding="UTF-8" standalone="no"?>
<!DOCTYPE svg  PUBLIC '-//W3C//DTD SVG 20010904//EN'  'http://www.w3.org/TR/2001/REC-SVG-20010904/DTD/svg10.dtd'>
<svg xmlns="http://www.w3.org/2000/svg" height="160pt" width="160pt" xmlns:xlink="http://www.w3.org/1999/xlink">
 <g stroke-width="1pt" fill-rule="evenodd">
  <path d="m320.82 8.4334c23.25 0.3254 75.57 7.4326 97.56 41.245 19.92 26.019 37.53 60.452 32.7 129.33 7.9 85.38 66.4 135.58 94.16 186.34 21.35 33.09 40.36 74.49 44.21 121.17 5.42 48.39-69.59 163.01-93.64 191.61-37.2 10.66-40.41 28.27-65.25 50.42-28.79-7.39-56-10.97-93.57-7.31-42.95-0.92-68.27 2.16-90.74 15.6-6.08-40.37-45.36-58.76-76.25-51.92-7.94-29.5-73.317-146.01-69.35-186.27-2.277-6.54 13.07-32.31 26.79-61.51 13.71-30.46 25.79-66.86 37.01-87.18 21.45-33.02 41.97-47.84 60.36-85.8 6.86-41.6-5.21-98.05-3.36-145.55 2.38-39.815-1.16-96.495 99.37-110.18z" transform="matrix(.24562 0 0 .24926 20.506 4.822)"/>
  <path d="m391.54 236.3c16.21 36.09 29.64 60.82 34.77 80.63 2.35 9.67 31.64 68.4 42.64 98.88 16.61 68.9 9.15 111.22 0.52 118.94-15.95 32.05-11.4 55.4-31.09 85.15-26.92 27.97-37.63 41.71-77.13 54.96-29.87 10.17-83.43 16.07-107.37 0.25-6.11-11.38-52.13-56.72-65.33-85.9-15.83-20.36-22.84-32.15-28-64.63-7.43-51.63 15.25-98.93 30.54-128.06 9.14-11.94 19.26-66.29 51.23-110.67 2.46-2.34 2.62-23.48 0-52.26 16.25-27.64 132.9-34.84 149.22 2.71z" transform="matrix(.24562 0 0 .24926 20.506 4.822)" fill="#ffffff"/>
  <path d="m442.39 541.05c15.55-19.9 54.91 2.68 68.71 6.8 24.26 3.66 59.33-15.03 74.83-4.38 8.45 7.27 2.52 30.16 14.84 50.33 12.32 20.18 42.88 37.64 49.12 49.1 10.82 25.44-64.38 47.55-84.9 66.94-29.67 21.04-30.25 37.7-65.68 47.67-33.95 9.66-73.47-2.45-73.02-41.16-1.71-34.34 10.54-72.85 15.83-106.16 1.16-13.33-8.1-58.6 0.27-69.14z" transform="matrix(.24562 0 0 .24926 20.506 4.822)" fill="#ffcc00"/>
  <path d="m159.17 517.55c1.98 10.87 7.64 15.31 18.14 23.31 10.28 7.04 28.43 22.53 35.79 29.75 9.25 8.53 33.59 26.55 37.19 31.41 4.58 6.33 6.26 25.83 0.68 31.19-7.32 4.5-19.89 8.18-27.41 5.28-11.26-1.86-39.4-31.56-46.99-38.99-7.99-9.57-13.13-19.31-18.2-30.05-4.61-10.36-8.46-17.78-7.96-31.14 0.08-6.64 6.68-14.76 8.76-20.76z" transform="matrix(.24562 0 0 .24926 20.506 4.822)"/>
  <path d="m73.068 570.53c15.307-10.38 26.051-46.17 53.962-52.39 18.97-2.57 30 22.81 40.14 33.28 12.57 13.16 35.05 55.63 46.7 69.42 17.72 27.18 25.38 35.85 39.48 59.89 7.43 15.87 11.95 32.32 0.47 47.27-10.52 11.83-32.14 30.75-48.69 32.36-15.32 1.91-56.17-16.9-84.49-27.29-13.29-5.95-90.419-14.06-102.94-29.47-15.082-11.16 6.493-40.57 2.272-56.1 0.648-20.96-13.561-44.05 0.079-60.08 17.545-11.28 34.784-9.19 53.017-16.89z" transform="matrix(.24562 0 0 .24926 20.506 4.822)" fill="#ffcc00"/>
  <path d="m398.37 161.88c-0.9 29.5-25.16 59.8-59.09 31.53-21.4-16.88-23.52-51 0.82-75.18 30.78-20.005 57.81 15.87 58.27 43.65z" transform="matrix(.24562 0 0 .24926 20.506 4.822)" fill="#ffffff"/>
  <path d="m355.49 141.32c19.78 0.11 28.1 20.81 22.44 35.76-3.23 14.7-26.15 17.78-35.79 1.87-2.73-13.28-7.41-28.63 13.35-37.63z" transform="matrix(.24562 0 0 .24926 20.506 4.822)"/>
  <path d="m256.23 118.23c31.06-6.73 39.82 34.23 34.37 60.31-8.11 39.84-45.35 23.56-48.95-5.76-1.99-18.45 1.21-50.54 14.58-54.55z" transform="matrix(.24562 0 0 .24926 20.506 4.822)" fill="#ffffff"/>
  <path d="m262.39 142.85c16.48 0.29 22.68 27.09 12.06 44.42-10.71 9.58-22.97-6.59-25.05-21.03-1.47-6.72-2.45-21.5 12.99-23.39z" transform="matrix(.24562 0 0 .24926 20.506 4.822)"/>
  <path d="m242.05 233.03c4.02 18.23 14.81 40.5 23.35 54.82 8.59 10.95 22.42 22.94 37.36 23.31 18.84 0.63 35.45-16.51 49.58-30.73 8.26-8.35 19.37-25.85 25.87-27.19 7.97-0.53 32.07 24.72 37.49 33.34-10.3-22.8-17.17-41.96-23.15-51.44-11.99-19.46-143.19-16.48-150.5-2.11z" fill-opacity="0.1" transform="matrix(.24562 0 0 .24926 20.506 4.822)"/>
  <path d="m325.84 274.12c14.84-7.04 33.43-19.55 38.99-21.68 3.5-3.36 28.28-6.27 31-28.96 7.86-27.52-26.99-32.16-45.38-39.2-17.82-9.84-44.16-19.36-65.04-8.7-16.22 9.16-46.67 26.74-48.18 46.73 7.14 21.83 34.11 40 47.38 51.01 12.44 5.14 26.43 5.28 41.23 0.8z" transform="matrix(.24562 0 0 .24926 20.506 4.822)" fill="#ffcc00"/>
 </g>
 <g fill-rule="evenodd" stroke-width="1pt" fill="#ffffff">
  <g fill-opacity="0.1">
   <path d="m366.61 39.2c10.17-3.678 34.03 13.564 32.71 20.803 1.2 7.238-26.16 19.893-35.34 15.521-8.41-5.31-4.98-32.318 2.63-36.324z" transform="matrix(.24562 0 0 .24926 20.506 4.822)"/>
   <path d="m368.48 41.878c6.86-3.205 25.98 11.195 27.5 17.96-0.69 6.764-23.32 15.157-29.18 12.206-7.94-4.836-3.08-25.687 1.68-30.166z" transform="matrix(.24562 0 0 .24926 20.506 4.822)"/>
   <path d="m371.11 46.857c3.54-1.31 16.98 6.459 18.97 11.803-2.59 3.922-13.85 9.947-20.65 8.89-5.1-4.836-1.67-18.582 1.68-20.693z" transform="matrix(.24562 0 0 .24926 20.506 4.822)"/>
  </g>
  <path d="m363.93 103.32c0.44-1.36 13.08-0.41 18.72 2.26 3.05 2.1 8.14 6.62 10.87 10.54 2.05 3.44 6.48 8.72 4.63 11.5-1.62 0.5-7.93-6.76-10.01-9.37-2.37-3.15-9.77-8.29-12.29-9.33-3.76-1.58-12.18-3.53-11.92-5.6z" fill-opacity="0.5" transform="matrix(.24562 0 0 .24926 20.506 4.822)"/>
  <path d="m264.06 105.64c1.47-1.44 11.81 0.35 14.61 1.75 2.47 1.42 7.81 5.84 10.17 8.97 2.27 2.09 6.08 9.76 3.96 11.5-2.09 1.03-7.37-5.9-9.55-9.1-2.29-3.18-10.2-6.07-12.49-7.16-1.67-0.78-7.21-4.69-6.7-5.96z" fill-opacity="0.5" transform="matrix(.24562 0 0 .24926 20.506 4.822)"/>
 </g>
 <g stroke-width="1pt" fill-rule="evenodd">
  <path d="m251.86 121.28c6.93-9.17 24.39-0.34 28.89 3.49 3.65 5.65 11.67 16.14 10.64 28.13-5.72-13.09-13.69-23.72-16.18-25.63-3.76-4-16.37-4.76-22.93-0.16-4.78 4.18-7.38 12.78-11.43 28 1.19-6.16 1.5-26 11.01-33.83z" fill-opacity=".19167" transform="matrix(.24562 0 0 .24926 20.506 4.822)"/>
  <path d="m343.49 115.89c11.17-5.92 28.55-2.44 37.15 5.02 10.91 8.71 17.47 28.41 16.69 39.31-5.15-12.32-13.09-24.41-23.78-31.72-4.71-2.81-22.66-3.74-31.66 0.02-4.7 2.27-11.62 7.44-18.77 18.32 3.13-11.09 11.65-26.01 20.37-30.95z" fill-opacity=".19167" transform="matrix(.24562 0 0 .24926 20.506 4.822)"/>
  <path d="m363.03 146.22c-2.26 0.73-3.57 1.83-3.33 4.44 2.93 2.11 7.1 6.79 9.25 9.54 3.11-0.12 3.82-2.29 3.52-4.73-1.82-2.37-6.38-8.48-9.44-9.25z" fill-opacity="0.35" transform="matrix(.24562 0 0 .24926 20.506 4.822)" fill="#ffffff"/>
  <path d="m261.58 151.24c1.51-0.62 5.07-0.79 7.18-0.1 4.16 1.91 4.68 12.45 4.38 15.44-0.13 1.85-0.65 3.9-2.99 3.09-2.33-0.96-1.96-5.21-3.45-7.22-1.25-1.93-2.17-3.5-3.74-5.19-1.2-1.63-2.69-4.98-1.38-6.02z" fill-opacity="0.35" transform="matrix(.24562 0 0 .24926 20.506 4.822)" fill="#ffffff"/>
 </g>
 <g fill-rule="evenodd" fill-opacity=".75">
  <path d="m312.81 181.18c3.16 0.25 6.63 3.43 8.44 4.7 1 1.01 4.84 1.82 5.86 0.91 1.77-1.66-0.5-4.54-1.78-5.18-1.36-0.63-8.49-3.65-12.52-0.43z" transform="matrix(.24562 0 0 .24926 20.506 4.822)" stroke-width="1pt"/>
  <path d="m280.53 184.46c0.73-1.74 3.71-2.39 6.09-2.86 1.32 0 5.71-1 6.6 0.07-3.21 1.19-6.33 6.81-9.89 6.61-3.1-0.25-2.86-2.39-2.8-3.82z" transform="matrix(.24562 0 0 .24926 20.506 4.822)" stroke-width="1pt"/>
  <path d="m368.53 217.88c-6.13 3.68-14.28 8.23-23 12.62s-18.01 8.62-26.41 11.75c-8.39 3.13-15.97 5.1-20.68 5.13-11.88-0.39-20.61-1.22-28.35-4.38-7.73-3.16-11.1-5.82-14.66-9.36-1.17-0.86-6.01-4.17-8.54-5.58 0.06 3.09 2.97 6.99 4.39 8.44 6.56 6.8 9.7 9.18 16.44 12.28 8.91 3.64 18.56 4.46 30.62 4.84h0.07 0.06c6.27-0.03 14.13-2.25 22.84-5.5 8.71-3.24 18.17-7.6 27.03-12.06 8.87-4.46 17.12-9.03 23.41-12.81 3.15-1.89 12.77-10.83 11.07-12.13-3.13-0.68-11.22 4.91-14.29 6.76z" transform="matrix(.24562 0 0 .24926 20.506 4.822)" stroke-width="6.25"/>
 </g>
 <g stroke-width="1pt" fill-rule="evenodd">
  <path d="m304.35 187.97c8.4-1.71 9.66 2.68 8.96 6.12-2.31 8.63-15.38 30.03-19.96 28.78-1.22-2.61 3.71-11.28 7.6-22.72 1.08-4.78 1.63-10.79 3.4-12.18z" fill-opacity=".25" transform="matrix(.24562 0 0 .24926 20.506 4.822)" fill="#ffffff"/>
  <path d="m316.76 236.11c2.43 0.82 33.43-17.4 39.14-22.17 5.29-4.17 9.94-13.45 2.41-17.96-6.54-4.92-11.25 3.13-14.3 7.9-4.02 5.79-9.6 11.96-13.88 16.08-5.42 4.68-15.38 13.69-13.37 16.15z" fill-opacity=".25" transform="matrix(.24562 0 0 .24926 20.506 4.822)" fill="#ffffff"/>
  <path d="m418.94 230.56c3.99-1.82 21.83 8.23 26.28 12.35 3.45 3.75 6.68 14.82 1.98 18.86-7.58 3.97-16.27-3.48-19.52-7.94-3.84-6.06-12.71-20.11-8.74-23.27z" fill-opacity="0.35" transform="matrix(.24562 0 0 .24926 20.506 4.822)" fill="#ffffff"/>
  <path d="m205.41 378.2c3.77-4.12 16.64-10.05 27.06-10.61 9.77 2.12 13.88-6.7 3.98-10.55-9.47-3.21-13.7-13.82-14.44-22.76 1.31-4.46 5.79-17.62-0.36-16.3-5.48 10.89-12.9 28.45-15.29 38.42-5.44 14.52-11.04 29.88-20.03 48.74 5.1-0.05 10.5-17.7 19.08-26.94z" fill-opacity="0.1" transform="matrix(.24562 0 0 .24926 20.506 4.822)"/>
  <path d="m274.98 348.57c0.48-1.24 12.59 3.16 16.31 3.26 3.83 0.14 17.09-3.06 20.8-1.94-0.22 2.49-10.8 4.38-13.34 6.35-2.84 1.79-5.46 7.1-8.62 6.81-2.77 0-6.16-6.14-7.87-7.91-2.23-2.23-8.43-4.46-7.28-6.57z" fill-opacity="0.15" transform="matrix(.24562 0 0 .24926 20.506 4.822)"/>
  <path d="m354.84 353.81c2.14-3.47 51.67-12.71 58.45-11.17 8.24 2.31 20.32 25.59 26.26 31.46 5.44 5.82 22.44 26.99 18.53 31.29-3.39 2.06-20.54-16.63-30.13-23.82-9.23-7.12-20.32-11.4-37.61-15.86-4.35-1.4-38.64-7.12-35.5-11.9z" fill-opacity="0.15" transform="matrix(.24562 0 0 .24926 20.506 4.822)"/>
  <path d="m276.62 467.63c0 2.24-1.71 20.45-2.13 26.52 0 6.32 0.94 24.77 0.94 31.03 0 4.83 4.83 31.42 0 30.07-4.54-0.99-9.8-28.71-10.18-31.97 0-4.02 2.84-42.14 2.84-50.21 0-4.74 5.4-26.47 8.05-26.76 4.03 0 0.48 17.38 0.48 21.32z" fill-opacity="0.17" transform="matrix(.24562 0 0 .24926 20.506 4.822)"/>
 </g>
 <g fill-rule="evenodd" stroke-width="1pt" fill="#ffffff">
  <path d="m485.83 631.51c4.79-4.64 44.87-8.15 50.85-14.4 5.95-7.74 17.24-30.3 35.03-31.2 16.98-1.2 24.75 16.22 37.26 24.64 10.29 14.9 39.75 22.16 32.13 44.43-10.61 12.32-27.82 23.32-42.76 29.69-36.11 14.25-85.94 28.4-100.59 28.45-14.24-0.47-31.47-8.37-31.41-23.17 0.45-17.8 9.84-50.31 19.49-58.44z" fill-opacity=".25" transform="matrix(.24562 0 0 .24926 20.506 4.822)"/>
  <path d="m447.36 540.29c5.15-2.5 30.63-4.18 29.49 1.57-1.76 7.27-18.3 25.86-23.67 23.5-5.45-5.2-9.64-22.64-5.82-25.07z" fill-opacity=".2" transform="matrix(.24562 0 0 .24926 20.506 4.822)"/>
  <path d="m552.5 574.55c3.37 1.64 12.54-7.7 16.72-9.92 5.25-3.02 9.29 2.65 13.31 6.87 4.45 5.15 6.68-1.93 5.55-5.9 0.48-6.94-2.5-13.71-6.73-19.05-3.88-4.98-10.26-2.76-14.8 0.19-5.44 3.82-15.97 24.97-14.05 27.81z" fill-opacity=".2" transform="matrix(.24562 0 0 .24926 20.506 4.822)"/>
  <path d="m99.687 590.18c6.193-5.47 12.163-57.77 27.593-55.86 14.62 1.92 26.06 14.8 29.92 29.53 5.1 14.62 39.9 76.96 44.36 85.7 34.54 67.87 6.72 70.73-10.58 74.3-21.61 4.15-75.78-22.14-95.455-26.83-12.252-2.77-53.941-7.58-59.993-18.44-4.731-9.68 4.68-23.02 8.458-32.92 3.583-10.65-11.01-36.31-8.637-40.48 7.583-9.71 50.274-3.05 64.334-15z" fill-opacity=".25" transform="matrix(.24562 0 0 .24926 20.506 4.822)"/>
  <path d="m158.42 424.24c-5.17 11.38-12.36 45.22-12.61 53.35-0.35 18.42 6.45 33.07 12.52 41.84 1.26 2.08 0.01 6.51-3 4.09-3.17-3.79-14.78-23.32-16.08-34.74-1.43-14.83 5.54-48.65 9.31-58.68 3.21-6.81 18.5-39.89 23.18-46.78 2.43-3.01 9.67-4.22 7.22 0.63" fill-opacity="0.15" transform="matrix(.24562 0 0 .24926 20.506 4.822)"/>
 </g>
 <g stroke-width="1pt">
  <path d="m523.96 519.08c0.5 0.5 8.28 2.33 10.49 2.33 2.52 1.26 5.49 1.57 8.17 2.91 3.35 0 5.78 4.09 8.45 4.09 0 3.34 3.5 2.76 3.5 5.83 1.16 2.32 0.88 5.54 0.88 8.16v5.54c1.46 2.92 0 7.64 0 10.79-0.89 2.65-2.07 5.56-4.09 7.58-5.1 2.55-9.39 8.58-11.95 13.7-3.34 5.02-15.36 4.96-21.29 4.96-5.11 0-11.61-2.12-16.61-3.79-6.82-1.36-14.52-1.98-19.54-7-4.2-2.8-3.74-9.19-5.25-13.7 0-2.64-0.29-5.18-0.29-7.87 1.36-5.45 3.17-10.39 4.96-15.75 2.46-4.93 6.48-8.01 11.08-11.08 4.12-2.75 6.64-4.96 11.66-4.96 5.91 0 11.66-1.16 17.79-1.16 1.1 0 0.4 0.07 2.04-0.58z" fill-opacity="0" transform="matrix(.24562 0 0 .24926 20.506 4.822)"/>
  <path d="m499.17 520.24c-8.61 4.83-16.96 9.59-17.46 18.5-1.49 10.53-2.51 20.97-0.78 25.34 3.83 8.92 19.52 17.5 30.97 18.77 20.16-0.17 32.97-8.63 42.63-19.83 8.8-11.92 4.9-21.2 2.44-31.05-3.08-8.66-18.04-11.85-27.7-13.28-3.71-0.66-26.74-0.1-30.1 1.55z" fill-rule="evenodd" transform="matrix(.24562 0 0 .24926 20.506 4.822)"/>
  <path d="m481.1 544.73c-0.49 9.1 1.81 21.82 5.88 26.38 7.79 7.44 27.31 12.04 39.49 10.16 9.98-2.71 18.08-8.2 25.89-15.84-2.65 11.26-12.4 22.7-19.44 26.18-8.73 4.77-32.47 5.88-41.46 2.58-8.73-3.98-14.69-12.3-16.39-22.38-0.38-5.88 1.98-18.85 6.03-27.08z" fill-rule="evenodd" fill-opacity="0.1" transform="matrix(.24562 0 0 .24926 20.506 4.822)"/>
 </g>
 <g fill-rule="evenodd" stroke-width="1pt" fill="#ffffff">
  <path d="m520.6 514.7c1.17-2.2 17.8 0.78 23.2 2.39 7.47 2.42 15.63 6 19.61 12.78 1.7 3-0.2 8.54-4.55 8.61-0.03-1.43-1.84-7.95-4.32-10.69-3.39-2.78-7.47-4.89-11.69-6.54-4.27-0.98-9.42-2.23-14.7-2.99-3.66-0.49-8.99-0.94-7.55-3.56z" fill-opacity="0.15" transform="matrix(.24562 0 0 .24926 20.506 4.822)"/>
  <path d="m482.99 532.78c2.06-2.56 6.17-6.24 9.14-8.51 2.54-1.55 6.2-3.52 10.09-4.86 2.48-0.68 10.41-0.68 11.84-1.78 0.67-1.87-0.23-4.23-2.27-4.25-3.55-0.09-7.2 0.32-10.6 0.8-2.87 0.55-8.04 2.18-10.25 4.35-2.51 2.97-7.75 10.23-9.52 11.99-1.09 1.25 0.67 3.24 1.57 2.26z" fill-opacity="0.15" transform="matrix(.24562 0 0 .24926 20.506 4.822)"/>
  <path d="m465.45 362.47c2.17-3.63 16.68 5.91 26.48 13.58 9.04 7.54 21.39 24.17 26.62 35.98 5.04 13.95 7.01 28.5 7.38 43.04-0.87 11.82-3.9 25.85-5.2 32.44-0.95 5.27-9.03 24.53-11.6 23.91-2.78-0.51 8.36-21.34 9.06-44.91 0.05-29.19-2.8-53.58-13.77-67.09-7.5-8.48-19.71-21.49-25.39-26.56-7.84-6.51-15.42-7.61-13.58-10.39z" fill-opacity="0.15" transform="matrix(.24562 0 0 .24926 20.506 4.822)"/>
  <path d="m483.3 396.91c6.32-2.2 18.41 8.83 18.2 12.12-0.45 6.9-11.46 11.63-18 9.96-3.08-0.85-4.67-20.17-0.2-22.08z" fill-opacity="0.1" transform="matrix(.24562 0 0 .24926 20.506 4.822)"/>
 </g>
 <g fill-rule="evenodd" fill-opacity=".1">
  <path d="m159.37 181.72c-7.28 5.25-7.43 9.4-16.13 11.88-8.34 2.41-18.05-0.61-17.94-10.25-0.42-8.56 2.59-18.16 3.89-26.47-0.16 2.9-1.3 23.96 0.1 27.45 2.11 5.16 6.64 6.02 11.19 5.72 3.75-0.61 14.19-6.48 18.89-8.33z" stroke-width="1pt"/>
  <path d="m82.691 174.58c1.825 3.96 2.934 8.06 0.116 11.79-2.586 2.94-7.896 7.66-11.959 8.06-3.765 0.48-13.797-4.21-20.753-6.8-3.267-1.49-22.21-3.51-25.286-7.35 3.003 0.27 10.45 1.02 13.464 1.68 1.286 0.34 11.283 2.24 14.478 2.87 3.337 0.9 15.316 5.81 16.116 5.62 10.008-2.51 14.261-11.33 13.824-15.87z" stroke-width="1pt"/>
  <path d="m88.714 49.591c-2.129 1.534-5.301 3.637-7.076 5.379-1.681 1.944-2.876 4.099-2.857 5.285-0.053 1.366 0.853 2.565 2.263 3.761 0.806 0.7 0.694-3.555 0.825-4.922 0.173-1.266 5.611-7.432 6.845-9.503z"/>
  <path d="m81.66 65.247c2.506 2.91 7.523 6.979 8.871 7.763 1.389 0.975 7.403 1.127 9.669 0.157 1.61-0.847 6.47-3.338 8.52-4.546 1.65-0.896 3.93-1.763 5.54-3.024-4.66 1.59-13.5 6.54-21.979 5.867-7.224-1.539-10.009-7.655-10.621-6.217z"/>
  <path d="m29.619 149.48c2.496-0.5 6.458-1.53 8.831-2.4 2.201-1.58 5.348-6.53 6.385-7.66-0.117 2.06-3.13 8.56-5.117 9.7-2.273 1.21-6.888 0.91-10.099 0.36z"/>
 </g>
 <rdf:RDF xmlns:rdf="http://www.w3.org/1999/02/22-rdf-syntax-ns#" xmlns="http://web.resource.org/cc/" xmlns:dc="http://purl.org/dc/elements/1.1/">
  <Work rdf:about="">
   <dc:title>Clipart by Nicu Buculei - antenna</dc:title>
   <dc:rights>
    <Agent>
     <dc:title>Nicu Buculei</dc:title>
    </Agent>
   </dc:rights>
   <dc:type rdf:resource="http://purl.org/dc/dcmitype/StillImage"/>
   <license rdf:resource="http://web.resource.org/cc/PublicDomain"/>
  </Work>
  <License rdf:about="http://web.resource.org/cc/PublicDomain">
   <permits rdf:resource="http://web.resource.org/cc/Reproduction"/>
   <permits rdf:resource="http://web.resource.org/cc/Distribution"/>
   <permits rdf:resource="http://web.resource.org/cc/DerivativeWorks"/>
  </License>
 </rdf:RDF>
</svg>
