<?xml version="1.0" encoding="UTF-8" standalone="no"?>
<!DOCTYPE svg  PUBLIC '-//W3C//DTD SVG 20010904//EN'  'http://www.w3.org/TR/2001/REC-SVG-20010904/DTD/svg10.dtd'>
<svg xmlns="http://www.w3.org/2000/svg" height="400pt" width="400pt" xmlns:xlink="http://www.w3.org/1999/xlink">
 <g stroke="#000000" fill-rule="evenodd" transform="translate(-9.5931 7.1949)">
  <g transform="translate(-.000015259 121.11)">
   <path stroke-linejoin="bevel" d="m93.354 268.2l356.02-15.04s7.12 20.58 7.12 35.61c0 17.4-3.96 33.22-4.75 34.01l-362.34 17.41c4.746-11.87 4.746-24.53 3.954-71.99z" transform="matrix(1.0043 0 0 1 25.722 -.79113)" stroke-width="3.75" fill="#cccccc"/>
   <g>
    <path d="m449.37 298.26l14.24-0.79v11.87l-14.24 0.79v-11.87z" stroke-width="1pt" fill="#cccccc"/>
    <path d="m134.49 281.65l130.54-5.54-0.79 34.02-130.54 7.12 0.79-35.6z" stroke-width="2.5" fill="#cccccc"/>
    <path d="m443.83 268.2c0.79 0 22.15-0.8 22.15-0.8v15.83l-22.15 0.79v-15.82z" stroke-width="1pt" fill="#cccccc"/>
   </g>
  </g>
  <path stroke-linejoin="bevel" d="m7.8865 127.51s295.09-6.33 295.47-5.13c1.59 1.2 144.4 130.38 144.4 131.58l-356.78 15.03c0.001 0-83.094-143.06-83.094-141.48z" transform="translate(28.506 117.92)" stroke-width="3.75" fill="#cccccc"/>
  <path stroke-linejoin="bevel" d="m90.19 340.98l-79.905-146.36-0.7913-69.51 81.487 143.09c3.165 2.37 3.956 68.82-0.791 72.78z" transform="translate(24.908 119.12)" stroke-width="3.75" fill="#cccccc"/>
 </g>
 <g stroke="#000000" fill-rule="evenodd" transform="translate(-7.1948 -63.555)">
  <g transform="translate(-.000015259 121.11)">
   <path stroke-linejoin="bevel" d="m93.354 268.2l356.02-15.04s7.12 20.58 7.12 35.61c0 17.4-3.96 33.22-4.75 34.01l-362.34 17.41c4.746-11.87 4.746-24.53 3.954-71.99z" transform="matrix(1.0043 0 0 1 25.722 -.79113)" stroke-width="3.75" fill="#cccccc"/>
   <g>
    <path d="m449.37 298.26l14.24-0.79v11.87l-14.24 0.79v-11.87z" stroke-width="1pt" fill="#cccccc"/>
    <path d="m134.49 281.65l130.54-5.54-0.79 34.02-130.54 7.12 0.79-35.6z" stroke-width="2.5" fill="#cccccc"/>
    <path d="m443.83 268.2c0.79 0 22.15-0.8 22.15-0.8v15.83l-22.15 0.79v-15.82z" stroke-width="1pt" fill="#cccccc"/>
   </g>
  </g>
  <path stroke-linejoin="bevel" d="m7.8865 127.51s295.09-6.33 295.47-5.13c1.59 1.2 144.4 130.38 144.4 131.58l-356.78 15.03c0.001 0-83.094-143.06-83.094-141.48z" transform="translate(28.506 117.92)" stroke-width="3.75" fill="#cccccc"/>
  <path stroke-linejoin="bevel" d="m90.19 340.98l-79.905-146.36-0.7913-69.51 81.487 143.09c3.165 2.37 3.956 68.82-0.791 72.78z" transform="translate(24.908 119.12)" stroke-width="3.75" fill="#cccccc"/>
 </g>
 <g stroke="#000000" fill-rule="evenodd" transform="translate(-5.9957 -134.3)">
  <g transform="translate(-.000015259 121.11)">
   <path stroke-linejoin="bevel" d="m93.354 268.2l356.02-15.04s7.12 20.58 7.12 35.61c0 17.4-3.96 33.22-4.75 34.01l-362.34 17.41c4.746-11.87 4.746-24.53 3.954-71.99z" transform="matrix(1.0043 0 0 1 25.722 -.79113)" stroke-width="3.75" fill="#cccccc"/>
   <g>
    <path d="m449.37 298.26l14.24-0.79v11.87l-14.24 0.79v-11.87z" stroke-width="1pt" fill="#cccccc"/>
    <path d="m134.49 281.65l130.54-5.54-0.79 34.02-130.54 7.12 0.79-35.6z" stroke-width="2.5" fill="#cccccc"/>
    <path d="m443.83 268.2c0.79 0 22.15-0.8 22.15-0.8v15.83l-22.15 0.79v-15.82z" stroke-width="1pt" fill="#cccccc"/>
   </g>
  </g>
  <path stroke-linejoin="bevel" d="m7.8865 127.51s295.09-6.33 295.47-5.13c1.59 1.2 144.4 130.38 144.4 131.58l-356.78 15.03c0.001 0-83.094-143.06-83.094-141.48z" transform="translate(28.506 117.92)" stroke-width="3.75" fill="#cccccc"/>
  <path stroke-linejoin="bevel" d="m90.19 340.98l-79.905-146.36-0.7913-69.51 81.487 143.09c3.165 2.37 3.956 68.82-0.791 72.78z" transform="translate(24.908 119.12)" stroke-width="3.75" fill="#cccccc"/>
 </g>
 <g stroke="#000000" fill-rule="evenodd" transform="translate(-4.7966 -203.85)">
  <g transform="translate(-.000015259 121.11)">
   <path stroke-linejoin="bevel" d="m93.354 268.2l356.02-15.04s7.12 20.58 7.12 35.61c0 17.4-3.96 33.22-4.75 34.01l-362.34 17.41c4.746-11.87 4.746-24.53 3.954-71.99z" transform="matrix(1.0043 0 0 1 25.722 -.79113)" stroke-width="3.75" fill="#cccccc"/>
   <g>
    <path d="m449.37 298.26l14.24-0.79v11.87l-14.24 0.79v-11.87z" stroke-width="1pt" fill="#cccccc"/>
    <path d="m134.49 281.65l130.54-5.54-0.79 34.02-130.54 7.12 0.79-35.6z" stroke-width="2.5" fill="#cccccc"/>
    <path d="m443.83 268.2c0.79 0 22.15-0.8 22.15-0.8v15.83l-22.15 0.79v-15.82z" stroke-width="1pt" fill="#cccccc"/>
   </g>
  </g>
  <path stroke-linejoin="bevel" d="m7.8865 127.51s295.09-6.33 295.47-5.13c1.59 1.2 144.4 130.38 144.4 131.58l-356.78 15.03c0.001 0-83.094-143.06-83.094-141.48z" transform="translate(28.506 117.92)" stroke-width="3.75" fill="#cccccc"/>
  <path stroke-linejoin="bevel" d="m90.19 340.98l-79.905-146.36-0.7913-69.51 81.487 143.09c3.165 2.37 3.956 68.82-0.791 72.78z" transform="translate(24.908 119.12)" stroke-width="3.75" fill="#cccccc"/>
 </g>
 <rdf:RDF xmlns:rdf="http://www.w3.org/1999/02/22-rdf-syntax-ns#" xmlns="http://web.resource.org/cc/" xmlns:dc="http://purl.org/dc/elements/1.1/">
  <Work rdf:about="">
   <dc:title>Clipart by Nicu Buculei - antenna</dc:title>
   <dc:rights>
    <Agent>
     <dc:title>Nicu Buculei</dc:title>
    </Agent>
   </dc:rights>
   <dc:type rdf:resource="http://purl.org/dc/dcmitype/StillImage"/>
   <license rdf:resource="http://web.resource.org/cc/PublicDomain"/>
  </Work>
  <License rdf:about="http://web.resource.org/cc/PublicDomain">
   <permits rdf:resource="http://web.resource.org/cc/Reproduction"/>
   <permits rdf:resource="http://web.resource.org/cc/Distribution"/>
   <permits rdf:resource="http://web.resource.org/cc/DerivativeWorks"/>
  </License>
 </rdf:RDF>
</svg>
