<?xml version="1.0" encoding="UTF-8" standalone="no"?>
<!DOCTYPE svg  PUBLIC '-//W3C//DTD SVG 20010904//EN'  'http://www.w3.org/TR/2001/REC-SVG-20010904/DTD/svg10.dtd'>
<svg xmlns="http://www.w3.org/2000/svg" height="400pt" width="400pt" xmlns:xlink="http://www.w3.org/1999/xlink">
 <g stroke="#000000" transform="translate(-44.304 9.4937)">
  <path stroke-linejoin="bevel" d="m299.84 180.38l-122.62-106.01 73.57-2.376 134.49 90.186s-31.64 29.28-85.44 18.2z" fill-rule="evenodd" stroke-width="3.75" fill="#cc99cc"/>
  <path stroke-linejoin="bevel" d="m176.42 74.367l1.59 164.55 122.62 125.8 0.79-182.76-125-107.59z" fill-rule="evenodd" stroke-width="3.75" fill="#cc99cc"/>
  <path stroke-linejoin="bevel" d="m302.22 181.17s26.1 3.17 45.88-0.79c26.9-10.28 37.98-16.61 37.98-16.61l0.79 178.79s-15.03 11.08-33.23 18.2c-30.06 6.33-53.01 3.96-53.01 3.96l1.59-183.55z" fill-rule="evenodd" stroke-width="3.75" fill="#cccccc"/>
  <g stroke-width="1pt">
   <path d="m315.66 205.7s63.3-13.45 63.3-12.66-0.8 25.31-0.8 25.31-61.7 13.45-62.5 13.45c-0.79 0-0.79-24.52 0-26.1z" transform="translate(-1.5823)" fill="none"/>
   <g fill-rule="evenodd">
    <path d="m323.58 246.84l46.67-9.5v3.96l-46.67 10.28v-4.74z" fill="#000000100"/>
    <path d="m360.76 268.99l11.87-1.59v11.87l-11.87 2.38v-12.66z" fill="#00cc00"/>
    <path d="m365.51 298.26l7.91-0.79v9.49l-7.91 1.58v-10.28z" fill="#cccccc"/>
   </g>
  </g>
 </g>
 <g fill-rule="evenodd">
  <path d="m179.76 288.87c61.05 34.76 65.29-16.11 70.38-66.14 5.93 23.74 1.69 124.64-0.85 136.51-5.94-5.08-55.96-56.81-69.53-70.37z" fill-opacity=".5" fill="#ffffff"/>
  <path d="m266.25 368.57c37.31 0.85 53.42-5.93 71.22-21.2 0-12.71 0-31.37-0.85-31.37-4.24 19.5-16.95 39-70.37 52.57z" fill-opacity=".49804" fill="#ffffff"/>
  <path d="m148.39 88.758c2.54 0 44.94-6.784 61.05-2.544 14.41 11.871 52.57 37.306 61.05 46.636-42.4-26.29-78.86-50.876-122.1-44.092z" fill-opacity=".25"/>
 </g>
 <rdf:RDF xmlns:rdf="http://www.w3.org/1999/02/22-rdf-syntax-ns#" xmlns="http://web.resource.org/cc/" xmlns:dc="http://purl.org/dc/elements/1.1/">
  <Work rdf:about="">
   <dc:title>Clipart by Nicu Buculei - antenna</dc:title>
   <dc:rights>
    <Agent>
     <dc:title>Nicu Buculei</dc:title>
    </Agent>
   </dc:rights>
   <dc:type rdf:resource="http://purl.org/dc/dcmitype/StillImage"/>
   <license rdf:resource="http://web.resource.org/cc/PublicDomain"/>
  </Work>
  <License rdf:about="http://web.resource.org/cc/PublicDomain">
   <permits rdf:resource="http://web.resource.org/cc/Reproduction"/>
   <permits rdf:resource="http://web.resource.org/cc/Distribution"/>
   <permits rdf:resource="http://web.resource.org/cc/DerivativeWorks"/>
  </License>
 </rdf:RDF>
</svg>
