<?xml version="1.0" encoding="UTF-8" standalone="no"?>
<!DOCTYPE svg  PUBLIC '-//W3C//DTD SVG 20010904//EN'  'http://www.w3.org/TR/2001/REC-SVG-20010904/DTD/svg10.dtd'>
<svg xmlns="http://www.w3.org/2000/svg" height="400pt" width="400pt" xmlns:xlink="http://www.w3.org/1999/xlink">
 <g stroke-linejoin="bevel" fill-rule="evenodd" stroke="#000000" stroke-width="3.75" fill="#0000ff">
  <g transform="translate(63.31 37.012)">
   <path d="m351.62 200.01l74.02 8.76v41.88l-74.02-9.74v-40.9z" transform="translate(-100.32 65.258)"/>
   <path d="m326.29 273.06c0.98 0.97 66.23-39.94 66.23-39.94v42.86s-67.2 40.91-67.2 38.96 0-40.91 0.97-41.88z"/>
   <path d="m251.29 266.24l73.05 7.79 69.16-40.91-68.18-6.82-74.03 39.94z"/>
  </g>
  <g transform="translate(-6.818 77.92)">
   <path d="m351.62 200.01l74.02 8.76v41.88l-74.02-9.74v-40.9z" transform="translate(-100.32 65.258)"/>
   <path d="m326.29 273.06c0.98 0.97 66.23-39.94 66.23-39.94v42.86s-67.2 40.91-67.2 38.96 0-40.91 0.97-41.88z"/>
   <path d="m251.29 266.24l73.05 7.79 69.16-40.91-68.18-6.82-74.03 39.94z"/>
  </g>
  <g transform="translate(-76.947 118.83)">
   <path d="m351.62 200.01l74.02 8.76v41.88l-74.02-9.74v-40.9z" transform="translate(-100.32 65.258)"/>
   <path d="m326.29 273.06c0.98 0.97 66.23-39.94 66.23-39.94v42.86s-67.2 40.91-67.2 38.96 0-40.91 0.97-41.88z"/>
   <path d="m251.29 266.24l73.05 7.79 69.16-40.91-68.18-6.82-74.03 39.94z"/>
  </g>
  <g transform="translate(-145.13 158.76)">
   <path d="m351.62 200.01l74.02 8.76v41.88l-74.02-9.74v-40.9z" transform="translate(-100.32 65.258)"/>
   <path d="m326.29 273.06c0.98 0.97 66.23-39.94 66.23-39.94v42.86s-67.2 40.91-67.2 38.96 0-40.91 0.97-41.88z"/>
   <path d="m251.29 266.24l73.05 7.79 69.16-40.91-68.18-6.82-74.03 39.94z"/>
  </g>
  <g transform="translate(12.662 20.454)">
   <path d="m351.62 200.01l74.02 8.76v41.88l-74.02-9.74v-40.9z" transform="translate(-100.32 65.258)"/>
   <path d="m326.29 273.06c0.98 0.97 66.23-39.94 66.23-39.94v42.86s-67.2 40.91-67.2 38.96 0-40.91 0.97-41.88z"/>
   <path d="m251.29 266.24l73.05 7.79 69.16-40.91-68.18-6.82-74.03 39.94z"/>
  </g>
  <g transform="translate(-57.466 61.362)">
   <path d="m351.62 200.01l74.02 8.76v41.88l-74.02-9.74v-40.9z" transform="translate(-100.32 65.258)"/>
   <path d="m326.29 273.06c0.98 0.97 66.23-39.94 66.23-39.94v42.86s-67.2 40.91-67.2 38.96 0-40.91 0.97-41.88z"/>
   <path d="m251.29 266.24l73.05 7.79 69.16-40.91-68.18-6.82-74.03 39.94z"/>
  </g>
  <g transform="translate(-127.6 102.27)">
   <path d="m351.62 200.01l74.02 8.76v41.88l-74.02-9.74v-40.9z" transform="translate(-100.32 65.258)"/>
   <path d="m326.29 273.06c0.98 0.97 66.23-39.94 66.23-39.94v42.86s-67.2 40.91-67.2 38.96 0-40.91 0.97-41.88z"/>
   <path d="m251.29 266.24l73.05 7.79 69.16-40.91-68.18-6.82-74.03 39.94z"/>
  </g>
  <g transform="translate(-195.78 142.2)">
   <path d="m351.62 200.01l74.02 8.76v41.88l-74.02-9.74v-40.9z" transform="translate(-100.32 65.258)"/>
   <path d="m326.29 273.06c0.98 0.97 66.23-39.94 66.23-39.94v42.86s-67.2 40.91-67.2 38.96 0-40.91 0.97-41.88z"/>
   <path d="m251.29 266.24l73.05 7.79 69.16-40.91-68.18-6.82-74.03 39.94z"/>
  </g>
  <g transform="translate(46.752 -45.778)">
   <path d="m351.62 200.01l74.02 8.76v41.88l-74.02-9.74v-40.9z" transform="translate(-100.32 65.258)"/>
   <path d="m326.29 273.06c0.98 0.97 66.23-39.94 66.23-39.94v42.86s-67.2 40.91-67.2 38.96 0-40.91 0.97-41.88z"/>
   <path d="m251.29 266.24l73.05 7.79 69.16-40.91-68.18-6.82-74.03 39.94z"/>
  </g>
  <g transform="translate(-23.376 -4.8702)">
   <path d="m351.62 200.01l74.02 8.76v41.88l-74.02-9.74v-40.9z" transform="translate(-100.32 65.258)"/>
   <path d="m326.29 273.06c0.98 0.97 66.23-39.94 66.23-39.94v42.86s-67.2 40.91-67.2 38.96 0-40.91 0.97-41.88z"/>
   <path d="m251.29 266.24l73.05 7.79 69.16-40.91-68.18-6.82-74.03 39.94z"/>
  </g>
  <g transform="translate(-93.505 36.038)">
   <path d="m351.62 200.01l74.02 8.76v41.88l-74.02-9.74v-40.9z" transform="translate(-100.32 65.258)"/>
   <path d="m326.29 273.06c0.98 0.97 66.23-39.94 66.23-39.94v42.86s-67.2 40.91-67.2 38.96 0-40.91 0.97-41.88z"/>
   <path d="m251.29 266.24l73.05 7.79 69.16-40.91-68.18-6.82-74.03 39.94z"/>
  </g>
  <g transform="translate(-161.69 75.972)">
   <path d="m351.62 200.01l74.02 8.76v41.88l-74.02-9.74v-40.9z" transform="translate(-100.32 65.258)"/>
   <path d="m326.29 273.06c0.98 0.97 66.23-39.94 66.23-39.94v42.86s-67.2 40.91-67.2 38.96 0-40.91 0.97-41.88z"/>
   <path d="m251.29 266.24l73.05 7.79 69.16-40.91-68.18-6.82-74.03 39.94z"/>
  </g>
  <g transform="translate(5.844 -67.206)">
   <path d="m351.62 200.01l74.02 8.76v41.88l-74.02-9.74v-40.9z" transform="translate(-100.32 65.258)"/>
   <path d="m326.29 273.06c0.98 0.97 66.23-39.94 66.23-39.94v42.86s-67.2 40.91-67.2 38.96 0-40.91 0.97-41.88z"/>
   <path d="m251.29 266.24l73.05 7.79 69.16-40.91-68.18-6.82-74.03 39.94z"/>
  </g>
  <g transform="translate(-64.284 -26.298)">
   <path d="m351.62 200.01l74.02 8.76v41.88l-74.02-9.74v-40.9z" transform="translate(-100.32 65.258)"/>
   <path d="m326.29 273.06c0.98 0.97 66.23-39.94 66.23-39.94v42.86s-67.2 40.91-67.2 38.96 0-40.91 0.97-41.88z"/>
   <path d="m251.29 266.24l73.05 7.79 69.16-40.91-68.18-6.82-74.03 39.94z"/>
  </g>
  <g transform="translate(-134.41 14.61)">
   <path d="m351.62 200.01l74.02 8.76v41.88l-74.02-9.74v-40.9z" transform="translate(-100.32 65.258)"/>
   <path d="m326.29 273.06c0.98 0.97 66.23-39.94 66.23-39.94v42.86s-67.2 40.91-67.2 38.96 0-40.91 0.97-41.88z"/>
   <path d="m251.29 266.24l73.05 7.79 69.16-40.91-68.18-6.82-74.03 39.94z"/>
  </g>
  <g transform="translate(-202.59 54.544)">
   <path d="m351.62 200.01l74.02 8.76v41.88l-74.02-9.74v-40.9z" transform="translate(-100.32 65.258)"/>
   <path d="m326.29 273.06c0.98 0.97 66.23-39.94 66.23-39.94v42.86s-67.2 40.91-67.2 38.96 0-40.91 0.97-41.88z"/>
   <path d="m251.29 266.24l73.05 7.79 69.16-40.91-68.18-6.82-74.03 39.94z"/>
  </g>
  <g transform="translate(29.22 -126.62)">
   <path d="m351.62 200.01l74.02 8.76v41.88l-74.02-9.74v-40.9z" transform="translate(-100.32 65.258)"/>
   <path d="m326.29 273.06c0.98 0.97 66.23-39.94 66.23-39.94v42.86s-67.2 40.91-67.2 38.96 0-40.91 0.97-41.88z"/>
   <path d="m251.29 266.24l73.05 7.79 69.16-40.91-68.18-6.82-74.03 39.94z"/>
  </g>
  <g transform="translate(-40.908 -85.713)">
   <path d="m351.62 200.01l74.02 8.76v41.88l-74.02-9.74v-40.9z" transform="translate(-100.32 65.258)"/>
   <path d="m326.29 273.06c0.98 0.97 66.23-39.94 66.23-39.94v42.86s-67.2 40.91-67.2 38.96 0-40.91 0.97-41.88z"/>
   <path d="m251.29 266.24l73.05 7.79 69.16-40.91-68.18-6.82-74.03 39.94z"/>
  </g>
  <g transform="translate(-111.04 -44.804)">
   <path d="m351.62 200.01l74.02 8.76v41.88l-74.02-9.74v-40.9z" transform="translate(-100.32 65.258)"/>
   <path d="m326.29 273.06c0.98 0.97 66.23-39.94 66.23-39.94v42.86s-67.2 40.91-67.2 38.96 0-40.91 0.97-41.88z"/>
   <path d="m251.29 266.24l73.05 7.79 69.16-40.91-68.18-6.82-74.03 39.94z"/>
  </g>
  <g transform="translate(-179.22 -4.8702)">
   <path d="m351.62 200.01l74.02 8.76v41.88l-74.02-9.74v-40.9z" transform="translate(-100.32 65.258)"/>
   <path d="m326.29 273.06c0.98 0.97 66.23-39.94 66.23-39.94v42.86s-67.2 40.91-67.2 38.96 0-40.91 0.97-41.88z"/>
   <path d="m251.29 266.24l73.05 7.79 69.16-40.91-68.18-6.82-74.03 39.94z"/>
  </g>
  <g transform="translate(-18.506 -145.13)">
   <path d="m351.62 200.01l74.02 8.76v41.88l-74.02-9.74v-40.9z" transform="translate(-100.32 65.258)"/>
   <path d="m326.29 273.06c0.98 0.97 66.23-39.94 66.23-39.94v42.86s-67.2 40.91-67.2 38.96 0-40.91 0.97-41.88z"/>
   <path d="m251.29 266.24l73.05 7.79 69.16-40.91-68.18-6.82-74.03 39.94z"/>
  </g>
  <g transform="translate(-88.635 -104.22)">
   <path d="m351.62 200.01l74.02 8.76v41.88l-74.02-9.74v-40.9z" transform="translate(-100.32 65.258)"/>
   <path d="m326.29 273.06c0.98 0.97 66.23-39.94 66.23-39.94v42.86s-67.2 40.91-67.2 38.96 0-40.91 0.97-41.88z"/>
   <path d="m251.29 266.24l73.05 7.79 69.16-40.91-68.18-6.82-74.03 39.94z"/>
  </g>
  <g transform="translate(-158.76 -63.311)">
   <path d="m351.62 200.01l74.02 8.76v41.88l-74.02-9.74v-40.9z" transform="translate(-100.32 65.258)"/>
   <path d="m326.29 273.06c0.98 0.97 66.23-39.94 66.23-39.94v42.86s-67.2 40.91-67.2 38.96 0-40.91 0.97-41.88z"/>
   <path d="m251.29 266.24l73.05 7.79 69.16-40.91-68.18-6.82-74.03 39.94z"/>
  </g>
  <g transform="translate(-226.94 -23.376)">
   <path d="m351.62 200.01l74.02 8.76v41.88l-74.02-9.74v-40.9z" transform="translate(-100.32 65.258)"/>
   <path d="m326.29 273.06c0.98 0.97 66.23-39.94 66.23-39.94v42.86s-67.2 40.91-67.2 38.96 0-40.91 0.97-41.88z"/>
   <path d="m251.29 266.24l73.05 7.79 69.16-40.91-68.18-6.82-74.03 39.94z"/>
  </g>
  <g transform="translate(8.766 -207.46)">
   <path d="m351.62 200.01l74.02 8.76v41.88l-74.02-9.74v-40.9z" transform="translate(-100.32 65.258)"/>
   <path d="m326.29 273.06c0.98 0.97 66.23-39.94 66.23-39.94v42.86s-67.2 40.91-67.2 38.96 0-40.91 0.97-41.88z"/>
   <path d="m251.29 266.24l73.05 7.79 69.16-40.91-68.18-6.82-74.03 39.94z"/>
  </g>
  <g transform="translate(-61.362 -166.56)">
   <path d="m351.62 200.01l74.02 8.76v41.88l-74.02-9.74v-40.9z" transform="translate(-100.32 65.258)"/>
   <path d="m326.29 273.06c0.98 0.97 66.23-39.94 66.23-39.94v42.86s-67.2 40.91-67.2 38.96 0-40.91 0.97-41.88z"/>
   <path d="m251.29 266.24l73.05 7.79 69.16-40.91-68.18-6.82-74.03 39.94z"/>
  </g>
  <g transform="translate(-131.49 -125.65)">
   <path d="m351.62 200.01l74.02 8.76v41.88l-74.02-9.74v-40.9z" transform="translate(-100.32 65.258)"/>
   <path d="m326.29 273.06c0.98 0.97 66.23-39.94 66.23-39.94v42.86s-67.2 40.91-67.2 38.96 0-40.91 0.97-41.88z"/>
   <path d="m251.29 266.24l73.05 7.79 69.16-40.91-68.18-6.82-74.03 39.94z"/>
  </g>
  <g transform="translate(-199.67 -85.713)">
   <path d="m351.62 200.01l74.02 8.76v41.88l-74.02-9.74v-40.9z" transform="translate(-100.32 65.258)"/>
   <path d="m326.29 273.06c0.98 0.97 66.23-39.94 66.23-39.94v42.86s-67.2 40.91-67.2 38.96 0-40.91 0.97-41.88z"/>
   <path d="m251.29 266.24l73.05 7.79 69.16-40.91-68.18-6.82-74.03 39.94z"/>
  </g>
 </g>
 <rdf:RDF xmlns:rdf="http://www.w3.org/1999/02/22-rdf-syntax-ns#" xmlns="http://web.resource.org/cc/" xmlns:dc="http://purl.org/dc/elements/1.1/">
  <Work rdf:about="">
   <dc:title>Clipart by Nicu Buculei - antenna</dc:title>
   <dc:rights>
    <Agent>
     <dc:title>Nicu Buculei</dc:title>
    </Agent>
   </dc:rights>
   <dc:type rdf:resource="http://purl.org/dc/dcmitype/StillImage"/>
   <license rdf:resource="http://web.resource.org/cc/PublicDomain"/>
  </Work>
  <License rdf:about="http://web.resource.org/cc/PublicDomain">
   <permits rdf:resource="http://web.resource.org/cc/Reproduction"/>
   <permits rdf:resource="http://web.resource.org/cc/Distribution"/>
   <permits rdf:resource="http://web.resource.org/cc/DerivativeWorks"/>
  </License>
 </rdf:RDF>
</svg>
