<?xml version="1.0" encoding="UTF-8" standalone="no"?>
<svg xmlns:rdf="http://www.w3.org/1999/02/22-rdf-syntax-ns#" xmlns="http://www.w3.org/2000/svg" xmlns:cc="http://web.resource.org/cc/" xmlns:dc="http://purl.org/dc/elements/1.1/" xmlns:sodipodi="http://inkscape.sourceforge.net/DTD/sodipodi-0.dtd" sodipodi:docname="silh61.svg" height="128px" sodipodi:version="0.32" width="128px" sodipodi:docbase="/home/nicu/Desktop/svg/silhouettes">
 <sodipodi:namedview bordercolor="#666666" pagecolor="#ffffff" borderopacity="1.0"/>
 <path d="m60.889 125.18c-2.743-0.04-4.084-2.71-3.848-5.16-0.516-2.3-0.364-4.68-0.463-7.03 0.211-2.37 2.223-4.21 1.591-6.78-0.317-3.8-0.497-7.647-0.059-11.446 0.43-2.548 1.375-4.95 2.613-7.206 0.03-2.047-0.398-4.044-1.251-5.911-1.49-3.853-2.844-7.758-4.688-11.461-0.823-2.088-0.457-4.94-3.483-4.998-1.737-0.191-3.595-0.3-3.115-2.662-0.121-3.225 0.403-6.435 0.272-9.667 0.465-2.876-2.304-4.651-3.82-6.694-1.604-2.235-3.361-4.391-4.634-6.845-0.445-3.044 1.431-5.743 2.493-8.464 1.241-3.138 3.033-6.02 4.389-9.097 1.099-1.819 2.533-4.146 4.949-4.086 2.313-0.046 4.787 0.055 6.671-1.517 1.763-1.582 2.345-3.915 3.303-5.968 1.251-2.9009 3.633-5.5824 6.92-6.0259 2.486-0.3973 5.19 0.5317 7.039 2.2074 0.398 2.3447 2.014 3.9305 2.611 6.1955 0.255 2.199-0.233 4.648 2.553 5.331 2.528 1.719 5.136 3.35 7.501 5.291 1.483 1.905-0.575 4.704-2.792 4.832-2.912 1.358-6.042 2.226-9.25 2.514-2.848-0.438-1.904 3.235-0.177 4.074 2.408 2.161-2.337-1.291-2.368-1.263-0.026 1.328-0.386 2.511-0.826 0.542-1.139-2.263 0.404 3.216-0.556 1.979-0.181-1.133-1.407-3.563-1.357-1.003 0.133 0.82 1.452 3.47-0.068 1.598-0.714-1.6-0.366-3.459-0.52-5.183-2.696-0.283-1.213 2.315-0.807 3.729 0.61 2.553-2.567 4.04-2.317 6.329 1.322 1.679 3.225 3.014 4.377 5.019 2.494 3.404 3.063 7.654 4.151 11.613-0.152 1.521 3.364 3.059 0.39 3.094-1.709 1.131-1.11 4.077-2.198 5.898-0.788 3.977-1.971 7.866-3.198 11.725-0.823 2.779-1.867 5.581-1.76 8.537-0.037 4.155-0.623 8.285-1.698 12.294-0.593 2.605-1.564 5.145-1.522 7.875-0.224 2.5 0.247 5 1.197 7.31 0.753 2.06-0.426 4.98-3.03 4.15-2.504-0.58-1.121 2.81 0.297 3.4 1.484 1.71 0.117 3.5-1.974 2.96-0.512 0-1.027 0.01-1.538-0.03zm-12.443-82.797c0.016-2.257 1.064-4.316 0.536-6.562-0.213-1.02 0.5-4.276-0.556-3.949-0.687 2.334-2.988 4.143-2.898 6.675 0.87 1.687 2.208 3.106 2.78 4.972 0.184-0.352 0.094-0.761 0.138-1.136zm25.813-10.757c0.095-1.425-2.104-0.752-0.635 0.247 0.406 0.616 0.864 0.515 0.635-0.247zm6.109-7.66c-1.146-1.607-2.723-2.828-4.134-4.179-1.225-0.178-1.299 2.531-2.201 3.462 0.126 1.749 3.642 0.44 5.077 0.799 0.418-0.025 0.844-0.003 1.258-0.082zm-2.112-8.303c0.461-2.097-1.82 1.29-0.117 0.415l0.117-0.415zm-0.525-0.868c0.903-1.141-1.237-4.486-0.761-1.616 0.128 0.368-0.064 3.007 0.761 1.616z" fill="#000000"/>
</svg>
