<?xml version="1.0" encoding="UTF-8" standalone="no"?>
<svg xmlns:rdf="http://www.w3.org/1999/02/22-rdf-syntax-ns#" xmlns="http://www.w3.org/2000/svg" xmlns:cc="http://web.resource.org/cc/" xmlns:dc="http://purl.org/dc/elements/1.1/" xmlns:sodipodi="http://inkscape.sourceforge.net/DTD/sodipodi-0.dtd" sodipodi:docname="silh53.svg" height="128px" sodipodi:version="0.32" width="128px" sodipodi:docbase="/home/nicu/Desktop/svg/silhouettes">
 <sodipodi:namedview bordercolor="#666666" pagecolor="#ffffff" borderopacity="1.0"/>
 <path sodipodi:nodetypes="ccccccccccccccccccccccccccccccccccccccccccccccccccccc" d="m45.587 122.53c-1 0.1-3.494-0.69-1.779-1.68 1.64-0.39 2.701-1.85 2.978-3.45 1.051-3.72 0.972-7.68 0.177-11.45-0.175-2.53-0.397-5.07-0.797-7.576-0.692-2.893-0.382-5.916-0.303-8.869 0.218-1.633-0.135-3.554 0.823-4.942 1.707-1.779 4.325-1.416 6.549-1.703 2.478-0.185 4.932 0.19 7.389 0.404 1.032-0.582 2.481-2.396 1.606-3.66-0.681-1.944-1.599-3.845-1.639-5.949-0.392-3.04 0.195-6.094 0.336-9.127-0.602-1.871-0.145-3.929 0.567-5.699 0.731-1.44 2.061-2.457 2.789-3.879 0.523-1.06 0.445-2.311 0.335-3.446-0.284-1.011-0.75-1.995-0.922-3.022 0.076-2.118 0.134-4.337 1.17-6.223 0.971-1.522 1.976-3.508 4.103-3.169 1.625 0.282 3.635-0.045 4.499 1.725 1.134 1.156 1.989 2.543 2.738 3.966 0.757 1.652 1.285 3.404 2.125 5.005 0.637 2.073 2.082 3.692 3.572 5.197 0.859 1.006 1.793 2.28 2.25 3.385 0.621 1.229 1.173 2.851 0.654 4.269-1.96 0.301-0.834 2.767-1.65 4.196-0.675 2.709-1.663 5.324-2.298 8.04-0.212 1.486-1.811 3.047-1.049 4.507 0.534 0.758 0.742 2.749 1.961 2.501 1.805-0.526 3.986-0.594 5.491 0.688 1.629 1.612 1.597 4.075 2.126 6.164 0.625 2.582 1.387 5.163 1.343 7.85 0.076 5.307-0.266 10.617-0.064 15.917 0.344 2.29 0.942 4.52 1.545 6.74-0.131 0.86 0.993 2.89-0.19 3.03-1.843 0.18-4.096 0.54-5.525-0.92 0.176-1.68-0.6-2.8-0.78-4.42-0.327-2.11-0.624-4.29-0.307-6.43 0.21-1.75 0.314-3.61-0.118-5.33-1.013-1.91-0.913-4.15-1.268-6.23-0.259-2.02-0.351-4.083-0.863-6.057-1.334 0.648-3.066 0.977-4.646 0.902-0.866 0.082-2.335 0.039-3.525-0.276-1.272-0.17-1.558-1.466-3.054-1.093-1.668 0.252-3.427 1.085-5.193 1.341-3.778 0.969-7.812 0.611-11.512-0.502-0.992-0.356-3.111-1.778-2.32 0.377 0.524 2.892 0.687 5.841 0.295 8.758-0.259 1.89-0.725 3.78-0.33 5.69-0.05 1.71 0.528 3.25 1.423 4.67 0.523 2.17 0.337 4.43 0.5 6.64-1.146 0.85-3.297-1.26-3.423 0.6-0.274 0.69 0.084 1.72-0.811 2-1.441 0.97-3.347 0.54-4.978 0.54z" fill="#000000"/>
</svg>
