<?xml version="1.0" encoding="UTF-8" standalone="no"?>
<svg xmlns:rdf="http://www.w3.org/1999/02/22-rdf-syntax-ns#" xmlns="http://www.w3.org/2000/svg" xmlns:cc="http://web.resource.org/cc/" xmlns:dc="http://purl.org/dc/elements/1.1/" xmlns:sodipodi="http://inkscape.sourceforge.net/DTD/sodipodi-0.dtd" sodipodi:docname="silh_bw.svg" height="128px" sodipodi:version="0.32" width="128px" sodipodi:docbase="/home/nicu/Desktop">
 <sodipodi:namedview bordercolor="#666666" pagecolor="#ffffff" borderopacity="1.0"/>
 <path d="m53.686 125.93c-2.74-1.39 3.737-4.3 0.35-4.09-1.475 0.22-6.305 0.05-3.864-2.22 1.553-1.39 4.72-1.33 4.036-4.3-0.292-3.5-0.129-7.06-1.238-10.44-0.617-2.29-1.276-4.58-2.299-6.72-1.003-3.482-1.815-7.015-2.762-10.51-0.097-1.767-1.674-1.655-2.799-2.101 0.388-2.178 0.378-4.435 0.494-6.662 0.599-2.788 1.986-5.373 2.463-8.208 0.933-2.338 0.566-4.727-0.484-6.952-0.806-1.735 1.227-3.905 1.571-5.796 0.451-1.125 1.327-2.131 1.156-3.413 0.181-3.731 0.419-7.472 0.149-11.199 1.024-2.256 0.413-4.849 0.299-7.235-0.815-2.133-1.799-4.413-0.621-6.688 0.333-1.105 1.42-1.952 1.54-3.089 0.042-2.095-0.147-4.243 0.604-6.243 0.216-2.237 0.978-4.65-0.069-6.779-0.395-2.329 0.029-5.1171 1.753-6.8647 1.056-1.91 2.416-3.9962 4.826-4.2078 2.315-0.6506 4.845 0.3906 6.13 2.4051 1.842 2.4683 2.517 5.5124 3.053 8.4784 0.936 1.996 0.25 4.856 2.203 6.236 0.919 0.449-0.556 0.751 1.073 0.833 2.43 1.102 0.508 3.971 1.642 5.84 0.862 2.509 2.832 4.439 3.682 6.967 1.088 1.923 1.242 4.188-0.169 5.995-2.198 3.392-4.189 6.932-6.78 10.057-1.194 1.764-2.496 3.491-2.413 5.716-1.079 2.508-1.834 5.167-3.128 7.577-1.403 1.981-2.794 4.185-2.644 6.715-0.154 5.389-0.292 10.8 0.076 16.182 0.469 3.566 1.144 7.153 0.619 10.759-0.204 4.377-0.521 8.817 0.141 13.167 0.474 1.96 3.154 4.1 1.428 6.13-1.5 1.47-0.832 3.72-0.883 5.4-1.189 0.71-1.367-3.04-1.1-0.25 1.02 2.14-0.171 4.4-2.374 5.04-1.791 0.63-3.788 0.59-5.661 0.47zm12.66-78.741c0.931-2.069 2.028-4.065 2.663-6.262 0.522-2.11 2.677-4.316 1.28-6.486-0.385-0.642-0.116 0.943-1.107 0.701-2.218 0.708-3.447 2.412-4.162 4.678-0.874 1.996-0.496 3.981-0.051 6.055 0.018 1.055 0.921 3.831 1.377 1.314z" fill="#000000"/>
</svg>
