<?xml version="1.0" encoding="UTF-8" standalone="no"?>
<svg xmlns:rdf="http://www.w3.org/1999/02/22-rdf-syntax-ns#" xmlns="http://www.w3.org/2000/svg" xmlns:cc="http://web.resource.org/cc/" xmlns:dc="http://purl.org/dc/elements/1.1/" xmlns:sodipodi="http://inkscape.sourceforge.net/DTD/sodipodi-0.dtd" sodipodi:docname="silh44.svg" height="128px" sodipodi:version="0.32" width="128px" sodipodi:docbase="/home/nicu/Desktop/svg/silhouettes">
 <sodipodi:namedview bordercolor="#666666" pagecolor="#ffffff" borderopacity="1.0"/>
 <path sodipodi:nodetypes="cccccccccccccccccccccccccccccccccccccccccccccccc" d="m70.419 122.03c-2.251 0.02 0.036-2.38 0.602-3.15 1.076-0.98 2.025-2.35 0.926-3.7-0.353-0.81 0.497-2.3-0.961-1.36-2.281 0.82-4.764 1.01-6.962 2.1-1.805 0.64-3.575 1.44-5.442 1.88-0.614-0.02-1.559 0.17-2.037-0.02 0.035-1.18 1.066-2.04 1.523-3.05-1.557-0.5-2.963-1.48-3.932-2.8-0.782-1.22-1.207-2.63-1.365-4.06-1.431-0.42-2.893-0.69-4.37-0.85-2.122-0.32-4.066-2.2-3.863-4.44-0.176-1.39 0.355-2.705 1.165-3.803 0.776-1.589 2.576-2.112 4.034-2.881 2.5-1.139 5.171-1.954 7.914-2.193 1.416-0.487 2.975-0.405 4.363-0.93 0.296-0.906 2.355-1.696 0.664-2.275-1.425-0.64-2.366-2.093-4.058-2.138-1.643-0.41-3.263-1.15-4.38-2.461 0.261-2.69 0.636-5.411 1.529-7.965 0.66-1.197 1.103-2.631 0.537-3.956-0.487-1.304-0.996-2.776-0.161-4.068 1.262-1.749 0.498-3.919 0.463-5.876-0.295-1.517 0.04-2.982 0.389-4.434-0.6-1.136-0.895-2.56 0.458-3.33 1.022-0.756 1.741-1.646 2.105-2.921 0.981-1.276 2.319-2.276 3.733-3.016 0.966-0.015 1.665-0.934 2.483-1.148 1.249 0.138 2.485 0.557 3.321 1.549 1.095 0.874 2.168 1.8 2.743 3.124 0.825 1.54 0.626 3.361 0.762 5.048 0.041 1.452-0.776 2.914-0.083 4.324 0.599 1.905 1.438 3.745 2.502 5.426 1.544 1.522 3.745 2.595 4.395 4.819 0.598 1.692 1.162 3.418 1.12 5.235 0.209 1.977-0.207 4.204 1.083 5.897 0.828 1.315 1.366 2.765 1.784 4.264 0.498 1.541 0.936 3.106 1.457 4.623 0.189 1.661-1.626 1.973-2.302 2.925 0.073 2.484 0.448 5.181-0.928 7.411-0.589 1.33-1.443 2.51-2.601 3.4-1.514 1.01 0.34 2.57-0.245 3.92-0.294 1.69 0.211 3.36 0.789 4.93-0.481 1.59-1.015-0.86-1.304-1.51-0.667-1.25-0.456 1.33-0.557 1.86-0.061 1.44 0.61 3.32-1.04 4.14-1.496 0.99-3.311 1.44-5.095 1.43-0.385 0.02-0.771 0.07-1.158 0.03z" fill="#000000"/>
</svg>
