<?xml version="1.0" encoding="UTF-8" standalone="no"?>
<svg xmlns:rdf="http://www.w3.org/1999/02/22-rdf-syntax-ns#" xmlns="http://www.w3.org/2000/svg" xmlns:cc="http://web.resource.org/cc/" xmlns:dc="http://purl.org/dc/elements/1.1/" xmlns:sodipodi="http://inkscape.sourceforge.net/DTD/sodipodi-0.dtd" sodipodi:docname="ag_silh15.svg" height="128px" sodipodi:version="0.32" width="128px" sodipodi:docbase="/home/nicu/Desktop/svg">
 <sodipodi:namedview bordercolor="#666666" pagecolor="#ffffff" borderopacity="1.0"/>
 <path sodipodi:nodetypes="ccccccccccccccccccccccccccccccccccccccccccccccc" d="m51.235 126.12c-0.866-0.35-1.991-3.11-1.577-4.55-0.043-1.55 1.445-3.63 1.354-5.59 0.718-3.29 2.175-6.42 2.276-9.84 0.523-4.41-0.151-8.981 1.309-13.256 0.592-3.055 0.495-6.262-0.018-9.323-1.054-3.093-2.468-6.074-3.304-9.251-1.184-3.776-2.536-7.553-2.636-11.556-0.266-3.468-0.471-7.083 0.985-10.343 1.01-3.053 2.827-5.867 2.991-9.152 0.05-1.986 0.91-4.395-0.507-6.068-2.033-1.502-1.73-4.311-0.555-6.261 0.786-3.035-1.315-5.847-1.274-8.876-0.474-5.48-0.867-11.074 0.343-16.49 0.749-2.7527 3.568-2.0137 5.442-1.0081 1.915 1.0105 3.6 1.9176 5.426 0.4041 1.86-0.2045 4.165-1.5436 5.542 0.4894 0.958 1.522 2.018-1.1733 3.099-1.5075 1.397-1.8152 4.38-2.0584 4.934 0.6099 0.872 5.6702 0.047 11.411-0.132 17.104 0.211 2.493-1.647 4.344-2.082 6.657 0.133 2.172-1.931 4.376-0.997 6.34 0.386 0.898 1.825 1.7-0.064 1.168-2.184-0.535-1.353 3.558-2.054 4.96-0.458 2.717-1.914 5.625-0.469 8.302 1.401 3.122 2.844 6.356 2.709 9.864 0.113 3.037-0.66 6.003-0.763 9.031-0.477 4.289-3.259 7.782-4.92 11.649-1.842 3.689-4.13 7.611-3.465 11.901 0.418 2.262 0.915 4.499 0.804 6.82 0.197 3.862-0.082 7.772 0.572 11.592 0.222 1.24 1.23 2.25 1.436 3.46-0.221 2.17 0.015 4.4 1.084 6.33 0.206 1.34-0.711 3.21-1.16 4.28-0.587 1.82-1.327 0.98-2.773 0.77-0.524-0.34-1.127-1.43-1.612-2.64-1.552-1.62-0.452-3.7-0.466-5.66 0.609-2.48-0.428-4.85-0.799-7.29-0.316-1-1.175-5.09-1.821-2.07-1.062 2.22-1.785 4.59-1.825 7.07-0.242 2.54-0.044 5.09-0.239 7.63-1.084 1.14-0.908 2.79-1.29 3.41-0.355 0.01-2.222 1.4-3.504 0.89zm5.065-110.89c-0.289-1.514 1.615-4.442 0.234-5.053-1.927-0.5949-1.292 1.453-1.023 2.683 0.243 0.728 0.37 5.365 0.789 2.37z" fill="#000000"/>
</svg>
