<?xml version="1.0" encoding="UTF-8" standalone="no"?>
<svg xmlns:rdf="http://www.w3.org/1999/02/22-rdf-syntax-ns#" xmlns="http://www.w3.org/2000/svg" xmlns:cc="http://web.resource.org/cc/" xmlns:dc="http://purl.org/dc/elements/1.1/" xmlns:sodipodi="http://inkscape.sourceforge.net/DTD/sodipodi-0.dtd" sodipodi:docname="ag_silh14.svg" height="128px" sodipodi:version="0.32" width="128px" sodipodi:docbase="/home/nicu/Desktop/svg">
 <sodipodi:namedview bordercolor="#666666" pagecolor="#ffffff" borderopacity="1.0"/>
 <path sodipodi:nodetypes="ccccccccccccccccccccccccccccccccccccccccccccccscccccccccsccccccccccccccccccccccccccc" d="m64.822 1.6807c-1.345 0.1287-2.316 1.0281-3.098 1.7827 0.048-0.0034 0.098-0.0102 0.154 0.0478-0.235 0.2164-0.307 0.1791-0.313 0.1061-0.098 0.0938-0.206 0.2022-0.297 0.2865-1.035 0.7431-2.074 1.8184-2.706 3.8412-0.544 1.9578-0.997 4.241-1.364 6.011-0.075 2.507-1.031 4.872-1.369 7.343-0.193 2.438-2.541 3.824-2.775 6.25-0.846 2.221 0.166 4.566-0.382 6.802-1.022-2.563-1.279-5.343-2.021-7.985-0.296-2.335-1.7-4.2-3.465-5.661-1.931-1.367-2.226 4.11-4.08 2.281-2.157-1.212-0.451 0.983 0.266 1.613 0.142 3.271-0.199 6.554-0.303 9.826 0.035 2.75-0.683 5.384-1.109 8.075 0.039 2.373-1.83 4.146-2.037 6.33-0.01 2.171-2.545 5.125 0.212 6.239 2.285 0.418 0.245 3.714 0.653 5.439-0.305 5.58-1.156 11.112-1.565 16.681 0.174 1.638 2.422-1.15 3.448-1.184 1.746-0.406 2.773-2.088 4.537-1.995 0.188 0.92 1.039 1.578 2.143 1.762 0.575 0.962 0.832 2.357 0.992 3.518 0.434 2.22 0.583-0.462 0.632-1.337-0.667-9.728-1.683-19.434-2.69-29.134-0.566-3.904-0.535-7.926-1.693-11.72-1.034-2.662-1.587-5.465-1.671-8.319-0.826-2.324 1.563-1.024 2.441-0.212 1.873 4.726 0.99 10.232 3.591 14.744 0.507 2.513 3.734 3.077 5.099 0.95 1.598-2.607 2.156-5.719 2.547-8.717 1.383 2.783 2.533 5.699 3.295 8.706-0.931 2.747-3.155 4.843-4.436 7.428-1.446 2.762-2.166 5.855-1.905 8.972 0.57 3.304 0.506 6.785 1.889 9.9 1.797 3.187 3.414 6.47 4.802 9.858-0.584 1.599-0.908 3.304-0.706 5.009 0.664 2.587-0.654 5.025-1.029 7.539-0.609 4.79 0.017 9.653-0.515 14.453 0.091 2.1-1.437 3.72-2.366 5.27 1.101 2.47 1.738 5.12 1.926 7.82-0.004 0.26-0.005 0.23-0.005 0.37 0.299 1.25 0.526 2.16 0.891 3.6 0.113 0.32 0.193 0.72 0.233 0.88 0.35 0.96 3.326 1.39 3.725-0.08 0.298-1.1 0.504-2.2 0.504-3.06 0-1.12 0.32-2.25 0.727-3.27-0.041-0.05-0.059-0.12-0.117-0.17-1.535-2.96-2.331-6.48-1.263-9.75 0.94-2.8 1.514-5.73 2.494-8.5 1.03 2.06 1.81 4.27 2.605 6.44 1.831 4 2.372 8.48 1.878 12.82-0.312 1.48 0.085 4.15 0.754 6.2 0.074 0.01 0.228 0.78 0.673 1.24 0.663 0.5 3.465 1.01 3.799-1.03 0.078-0.51 0.133-1.01 0.133-1.42 0-0.72 0.375-1.51 0.865-2.26 0.174-1.33-0.142-2.69-0.727-3.99-0.259-2.04-0.371-4.11-1.141-6.06-1.237-3.65-1.639-7.53-1.862-11.37 0.106-3.353-0.494-6.652-1.396-9.863-0.045-1.909 0.526-3.846 0.377-5.783-0.361-2.236-0.847-4.465-1.008-6.738 1.493-2.679 2.332-5.65 3.422-8.5 0.756-2.142 2.93-3.39 3.852-5.448 0.621-2.487 2.224-4.614 2.722-7.126-0.038-2.742-0.31-5.488-0.34-8.24-0.05-4.39-1.395-8.591-2.069-12.892-0.403-1.039 0.097-1.964 0.366-2.961 0.511-2.223-0.386-4.347-0.812-6.483-0.527-2.252-1.221-4.496-2.939-6.133-2.405-4.386-2.241-9.652-4.282-14.188-1.511-2.128-3.3-4.448-6.069-4.8437-0.252-0.0289-0.491-0.0326-0.722-0.0106zm-3.257 1.9366c0.052-0.0504 0.105-0.1017 0.159-0.1539-0.106 0.0075-0.165 0.0835-0.159 0.1539zm-17.445 21.127c0.469 2.677 0.551 5.433 0.822 8.15-0.045 1.395-1.569 2.543-1.04 4.085 0.024 0.443 0.093 0.887 0.037 1.332-1.333-1.521-0.146-4.143-0.382-6.107 0.241-2.46-0.063-5.15 0.563-7.46z" fill="#000000"/>
</svg>
