<?xml version="1.0" encoding="UTF-8" standalone="no"?>
<svg xmlns:rdf="http://www.w3.org/1999/02/22-rdf-syntax-ns#" xmlns="http://www.w3.org/2000/svg" xmlns:cc="http://web.resource.org/cc/" xmlns:dc="http://purl.org/dc/elements/1.1/" xmlns:sodipodi="http://inkscape.sourceforge.net/DTD/sodipodi-0.dtd" sodipodi:docname="silh34.svg" height="128px" sodipodi:version="0.32" width="128px" sodipodi:docbase="/home/nicu/Desktop/svg/silhouettes">
 <sodipodi:namedview bordercolor="#666666" pagecolor="#ffffff" borderopacity="1.0"/>
 <path sodipodi:nodetypes="ccccccccccccccccccccccccccccccccccccccccccccccc" d="m30.932 112.82c-0.844-1.38 1.543-2.88 0.994-4.81-0.279-2.43 0.204-4.96-0.674-7.33-1.166-3.497-1.125-7.26-2.306-10.755-0.208-3.729-0.398-7.497-0.102-11.217 0.705-1.731 1.893-3.501 4.027-3.342 3.669 0.253 6.632 2.813 10.061 3.858 0.526-2.142 0.908-4.366 1.843-6.411 1.182-2.561 1.228-5.209 0.51-7.88-0.128-2.009-0.125-2.96 0.252-4.469 0.073-1.791 0.246-3.707 0.713-5.261 0.289-0.382 0.883-1.113 0.824-1.311 1.893-1.968 5.278-0.725 6.708 1.268 1.504 1.879 3.029 3.764 3.857 6.067 1.928 4.139 4.012 8.212 5.764 12.426 1.429 2.162 2.755 4.445 4.472 6.384 1.303 2.258 3.731 2.594 6.128 2.385 1.243-0.067 2.595 0.355 3.677-0.438 2.506-1.542 5.126-3.801 8.286-3.356 2.605 0.293 4.451 2.273 6.415 3.754 2.782 0.465 3.671-3.114 5.931-4.152 1.958-1.554 4.128-2.856 6.678-3.05 2.45 0.821 4.61-0.635 7.03-0.226 3.23-0.008 0.75 4.264 3.8 4.593 2.32 1.013 2.91 3.934 3 6.17-0.09 2.823-2.51 3.09-4.39 4.107-1.17 1.535-2.6 2.941-4.54 3.515-2.38 2.225-5.11-1.505-7.16 0.399-2.07 0.515-4.41 1.263-6.115 2.304-1.6 2.508-3.642 4.808-6.437 5.988-2.53 1.13-5.067 2.23-7.54 3.47-2.393 0.77-4.326 2.45-6.729 3.22-2.407 1.91-4.441-1.03-6.435-2.17-2.387-1.94-4.77-3.88-6.972-6.05-2.331-0.662-5.021 0.36-7.495-0.16-2.827-0.49-4.87-2.748-7.452-3.842-2.426-1.001-4.621-2.385-6.389-4.353-1.125-1.006-4.149-4.412-3.524-0.849 0.029 3.512-1.909 6.719-1.722 10.254-1.178 2.81 3.364 3.51 2.004 6.21-0.747 1.74 2.127 4.56-0.811 5-0.57-1.31-0.738-2.5-2.072-0.85-1.125 0.95-2.69 1.55-4.109 0.91zm78.278-19.704c1.09 0.03 3.67-2.793 1.41-1.14-0.77 0.43-4.03 2.021-1.41 1.14z" fill="#000000"/>
</svg>
