<?xml version="1.0" encoding="UTF-8" standalone="no"?>
<svg xmlns:rdf="http://www.w3.org/1999/02/22-rdf-syntax-ns#" xmlns="http://www.w3.org/2000/svg" xmlns:cc="http://web.resource.org/cc/" xmlns:dc="http://purl.org/dc/elements/1.1/" xmlns:sodipodi="http://inkscape.sourceforge.net/DTD/sodipodi-0.dtd" sodipodi:docname="silh15.svg" height="128px" sodipodi:version="0.32" width="128px" sodipodi:docbase="/home/nicu/Desktop/svg/silhouettes">
 <sodipodi:namedview bordercolor="#666666" pagecolor="#ffffff" borderopacity="1.0"/>
 <path sodipodi:nodetypes="cccccccccccccccccccccsscccccccccccccccccccccccccccccccccccccccccccccc" d="m59.214 43.982c-1.158-0.038-2.284 0.3-3.454 0.412-1.599 0.281-2.991 1.265-3.751 2.708-1.004 1.854-1.654 3.889-2.165 5.9-0.364 2.15-0.302 4.351-0.436 6.524-0.215 3.392-0.084 6.784-0.013 10.177 0.131 1.914-0.247 3.939 0.465 5.766-0.578 1.213-1.181 2.414-1.721 3.645-0.749 1.396-1.041 3.322 0.506 4.302 1.057 1.159 2.634 1.705 4.159 1.19 0.989 0.859 1.388 2.613 2.283 3.731 1.323 2.481 3.366 4.491 4.567 7.038 0.449 0.527 0.191 1.177 0.143 1.79-0.051 2.363-1.902 4.035-2.981 5.965-1.077 1.04-1.754 2.4-1.945 3.88-1.567 2.18-3.148 4.37-4.623 6.62-1.227 2.07-3.118 3.97-3.222 6.5 0.109 1.73 0.681 3.83 2.402 4.62 4.077 2.08 12.417 0.31 14.018-0.47 2.693-1.15 5.29-2.53 8.029-3.58 2.081-0.7 4.434-1.93 6.605-0.86 1.535 0.24 0.895 2.45 1.97 3.28 0.013 0.01 0.027 0.02 0.041 0.03 0.148 0.11 0.474 0.72 0.693 0.77-0.106-0.04 2.619 0.76 4.722-0.44 1.398-0.86 2.054-2.55 2.458-4.1 0.743-2.02-1.487-2.62-2.874-3.25-1.021-0.52-3.808-1.68-2.479-2.97 1.567-0.53 3.253-0.68 4.897-0.79 0.808-1.23-2.272-0.18-2.761-1.16-1.876-0.17-3.66-0.91-5.309-1.79-2.067-0.94 1.047-2.53 1.224-3.89 2-3.16 1.153-7.287-0.771-10.269-1.741-2.796-5.04-3.96-7.099-6.442-1.431-1.065-1.556-2.726-1.244-4.347 0.369-1.364-0.536-3.451 1.154-3.943-0.712-0.264-0.121-2.059-0.562-3.103-0.787-1.753-2.496-2.939-3.189-4.754-1.181-2.367-1.37-5.028-1.415-7.625-0.266-1.251 0.104-2.66-0.379-3.76-0.24-1.392-0.929-3.17-0.738-4.391-0.654-2.557-0.851-5.205-1.497-7.764-0.495-2.256-2.032-4.71-4.534-4.962-0.396-0.119-0.788-0.175-1.174-0.188zm-9.297 27.748c0.047-0.061 0.184 0.402 0.282 0.97 0.05 0.225 0.096 0.448 0.126 0.677-0.028 1.653-0.392-0.285-0.367-0.889-0.065-0.501-0.069-0.722-0.041-0.758zm-0.224 1.716c0.063 0.045 0.173 0.313 0.241 0.714 0.268 1.041-0.198 0.784-0.208-0.094-0.116-0.487-0.097-0.664-0.033-0.62zm21.794 3.58c0.04-0.009 0.173 0.14 0.428 0.612-0.301-0.138-0.494-0.595-0.428-0.612zm-0.624 0.388c0.236-0.104 1.157 0.585 1.003 1.194-0.861 0.881-0.33-1.137-0.946-0.791-0.138-0.243-0.135-0.369-0.057-0.403zm0.033 1.031c0.093 0.018 0.234 0.166 0.367 0.535l-0.057 0.057-0.139 0.02c-0.351-0.307-0.326-0.642-0.171-0.612zm1.015 0.559c0.27-0.068 0.328 0.496 0.184 1.023-0.519 0.715-2.066-1.033-0.526-0.721 0.136-0.188 0.252-0.279 0.342-0.302z" fill="#000000"/>
</svg>
