<?xml version="1.0" encoding="UTF-8" standalone="no"?>
<svg xmlns:rdf="http://www.w3.org/1999/02/22-rdf-syntax-ns#" xmlns="http://www.w3.org/2000/svg" xmlns:cc="http://web.resource.org/cc/" xmlns:dc="http://purl.org/dc/elements/1.1/" xmlns:sodipodi="http://inkscape.sourceforge.net/DTD/sodipodi-0.dtd" sodipodi:docname="silh62.svg" height="128px" sodipodi:version="0.32" width="128px" sodipodi:docbase="/home/nicu/Desktop/svg/silhouettes">
 <sodipodi:namedview bordercolor="#666666" pagecolor="#ffffff" borderopacity="1.0"/>
 <path sodipodi:nodetypes="ccccccccccccccccccccccccccccccccccccccccccccccccccccccccccc" d="m23.892 114.95c-1.201-1.88-1.402-4.8-0.021-6.69 2.489-2.58 5.546-4.57 8.687-6.25 2.711-1.3 5.659-2.151 8.596-2.725 2.276-0.266 4.923-0.544 5.995-2.919 1.717-1.953 2.618-4.474 4.338-6.405 0.989-2.582 2.534-4.894 3.451-7.516 1.709-1.768-2.555-2.1-2.211-4.227-1.296-3.151 1.219-4.825 3.788-5.822 2.07-1.021 6.823-1.447 5.525-4.798 0.144-1.348-0.464-2.9-0.902-0.672-0.036 1.719-2.959 3.871-3.242 2.908 1.96-0.275 4.193-3.965 2.871-5.297-1.038 0.848-1.112 4.653-1.771 4.313-0.168-1.572 1.706-4.939 1.274-5.248-0.9 1.414-2.798 5.76-2.523 5.429-0.535-3.024-1.186 1.178-1.23 0.825 0.03-1.993 1.078-3.818 2.037-5.5 0.983-0.91 1.127-5.082 0.124-1.96 0.002 1.692-1.759 3.764-2.012 4.684 0.596-2.343 2.016-4.311 2.166-6.777-0.707-2.551 0.757-4.458 2.223-6.391 1.201-2.193 1.684-5.142 4.546-5.919 1.853-1.389 4.676-2.002 6.482-0.182 2.487 2.614 5.362 4.881 7.596 7.72 0.852 2.65 2.934 4.849 3.173 7.721 0.202 1.654-0.115 2.31-0.291 0.268-0.2-1.185-2.02-6.4-1.809-2.5-0.252 2.513 0.078 5.168 2.191 6.832 2.123 1.988 2.309 4.963 2.368 7.681 0.178 3.141 0.406 6.293 0.879 9.398 0.501 3.668 3.027 6.568 4.337 9.914 1.514 3.951 2.639 8.055 4.259 11.805 0.821 2.2 5.664 0.81 4.849 2.64-1.233 0.11-3.353-0.09-2.755 3.08-2.938-2.8-6.89 0.24-8.752-0.29 2.428-1.16 3.471-5.15 1.989-7.03-1.529-2.93-3.419-5.635-5.321-8.327-1.815-3.062-3.944-6.092-4.491-9.689-0.569-2.335-1.185-4.764-2.192-6.904-1.914 2.072-3.53 4.499-5.334 6.712-1.369 2.207-3.9 4.517-2.796 7.331 0.806 2.594 1.864 5.236 1.358 8.007 0.084 2.55-0.831 4.66-1.442 7.02-0.624 1.2-1.71 2.5 0.612 1.8-1.221-2.88 2.862-3.99 4.545-1.89 1.625 1.89 6.607 1.39 5.637 4.85-2.144 0.92-4.763 0.11-7.052 0.8-2.475 1.08-5.162 4.35-7.827 4.58-5.13 1.7-15.143 5.15-15.616-3.99 0.177-2.62-3.409-1.04-5.07-1.27-2.718 0.21-5.089 0.66-7.943 1.24-4.167 0.61-12.239 2.35-13.293-0.37zm39.164-46.894c1.929-0.028-1.93-2.506-0.631-0.177 0.069 0.33 0.405 0.457 0.631 0.177zm1.456-0.828c-0.603-1.046-1.426-4.651-1.848-1.57-0.204 0.795 1.127 1.975 1.848 1.57z" fill="#000000"/>
</svg>
