<?xml version="1.0" encoding="UTF-8" standalone="no"?>
<svg xmlns:rdf="http://www.w3.org/1999/02/22-rdf-syntax-ns#" xmlns="http://www.w3.org/2000/svg" xmlns:cc="http://web.resource.org/cc/" xmlns:dc="http://purl.org/dc/elements/1.1/" xmlns:sodipodi="http://inkscape.sourceforge.net/DTD/sodipodi-0.dtd" sodipodi:docname="silh42.svg" height="128px" sodipodi:version="0.32" width="128px" sodipodi:docbase="/home/nicu/Desktop/svg/silhouettes">
 <sodipodi:namedview bordercolor="#666666" pagecolor="#ffffff" borderopacity="1.0"/>
 <path sodipodi:nodetypes="ccccccccccccccccccccccccccccccccccccccccccccccccccccc" d="m85.93 124.32c-1.737-0.41-3.551-1.09-4.798-2.39-0.998-1.6-1.14-3.66-2.515-5.02-1.204 0.55-0.055 3.74-1.643 4.63-1.297-0.23-3.85-0.55-2.431-2.37 0.498-2.1 1.124-4.17 1.618-6.26 0.927-1.75 2.881-2.73 4.041-4.11-0.009-1.84 1.279-3.46 1.019-5.36 0.311-1.84 1.246-3.445 1.126-5.398 0.281-1.786 0.838-3.572 1.9-5.084 0.354-0.838 1.454-2.656-0.369-1.709-1.701 0.848-4.673-0.595-5.616 0.952-0.52 2.183-3.343 1.421-5.002 1.528-0.863 0.024-2.062-0.774-2.279 0.238-1.193-0.327-2.822-0.184-3.837-0.565-0.146-1.285 1.389-3.646-0.614-4.013-1.706-0.317-3.467-0.411-5.146-0.816-1.543-0.51-3.901 0.454-5.267-1.274-1.284-0.561-2.053-3.149-2.87-3.071-0.948 1.838-3.34 0.755-4.961 1.293-0.931 0.768-3.117 0.144-1.967-0.777-1.569-0.952-3.803 0.857-4.928-0.772 1.43-0.717 3.376-1.52 5.108-1.693 1.558-0.829 4.231 1.252 5.119-1.069 0.422-3.635 0.313-7.331 0.93-10.941 0.663-3.019 1.498-6.027 1.581-9.136 0.497-3.488-0.825-7.221 0.779-10.533 1.055-1.216 1.284-2.74 2.695-3.457 0.239-0.219 2.032-0.905 3.01-1.097 0.694-2.143 0.861-4.458 1.36-6.665 0.137-2.574 1.704-4.742 2.997-6.872 1.438-0.921 2.867-2.158 4.749-1.824 1.911 0.172 3.564 1.207 4.671 2.751 1.526 2.141 2.639 4.672 2.695 7.339-0.054 2.772 1.285 5.282 1.686 7.985 0.518 2.507 2.824 4.331 2.744 7.001 0.03 1.848 0.111 3.781-0.245 5.578-1.086 0.838-0.551 1.705 0.065 2.653-0.788-0.071-1.471-2.745-2.146-1.554-1.127 1.421 0.676 3.225 0.42 4.9 0.503 3.292 0.238 6.642 0.757 9.933-0.395 2.536 2.865 2.005 4.494 2.524 3.18 0.66 6.814 0.514 9.354 2.867 0.95 0.451 1.027 1.58 1.328 2.472-0.222 2.708-1.621 5.167-1.955 7.858-0.704 2.276-1.387 4.566-2.229 6.792-1.228 2.016-1.534 4.476-2.925 6.426-1.042 1.44-1.361 3.16-1.959 4.8-0.319 1.97-0.009 4-0.069 5.99-0.189 1.96 0.279 4.26 2.538 4.73 0.746 0.73 2.808 0.46 2.872 1.65 0.338 1.36-1.698 0.79-2.475 1.15-1.139 0.14-2.295 0.06-3.41-0.21z" fill="#000000"/>
</svg>
