<?xml version="1.0" encoding="UTF-8" standalone="no"?>
<svg xmlns:rdf="http://www.w3.org/1999/02/22-rdf-syntax-ns#" xmlns="http://www.w3.org/2000/svg" xmlns:cc="http://web.resource.org/cc/" xmlns:dc="http://purl.org/dc/elements/1.1/" xmlns:sodipodi="http://inkscape.sourceforge.net/DTD/sodipodi-0.dtd" sodipodi:docname="silh12.svg" height="128px" sodipodi:version="0.32" width="128px" sodipodi:docbase="/home/nicu/Desktop/svg/silhouettes">
 <sodipodi:namedview bordercolor="#666666" pagecolor="#ffffff" borderopacity="1.0"/>
 <path sodipodi:nodetypes="cccccccccccccccccccccsccccccccccccccccccccccccccccccccccccccccccccccccccc" d="m66.003 44.714c-1.174-0.007-2.323 0.395-2.905 1.489-0.759 0.808-1.548 1.722-2.197 2.583-1.009 1.028-1.22 2.573-1.612 3.918-0.693 1.624-0.584 3.453-1.283 5.068-0.981 1.928-1.548 4.04-2.583 5.94-1.817 2.572-2.109 5.795-3.107 8.705-0.962 3.229-1.317 6.581-1.622 9.923 0.407 1.133 0.903 2.289 1.273 3.456 0.086 0.552 0.64 1.129 0.311 1.656-0.282 1.053-1.133 1.595-1.307 2.738-1.521 3.097-2.411 6.471-2.963 9.86 0.161 2.69-0.558 5.32-1.078 7.93 1.602 0.21 0.697 2.22 0.773 3.45-1.43 1.1-1.718 3.2-1.273 4.86 0.144 0.92 1.321 0.92 0.962 1.95-0.181 1.65 1.249 5.27 2.051 5.34 1.364 0.13 2.511 0.08 3.879-0.07 1.345-0.85 2.063-1.64 2.605-2.22-0.034 0 0.603-2.01 1.203-1.63 0.795-0.65 1.703 1.02 1.55 1.1 0.445 0.32 0.972 0.6 1.379 0.45 0.259-0.09 0.602-0.32 0.958-0.56-0.011 0-0.019-0.01-0.031-0.01 0.709-1.27 1.392-2.66 1.342-4.15 0.762-0.21 2.299 0.68 3.158 1.23 1.57 1.7 3.39 3.19 5.482 4.21 1.328 0.84 3.29 1.77 4.102 1.78 1.071 0.07 2.147 0.1 3.22 0.11 1.53 0.24 3.349-0.17 3.829-1.87 1.196-2.28-0.002-4.86-0.886-7.02-1.764-4.56-4.235-8.78-6.679-13-0.359-1.22-2.057-2.274-1.694-3.569 1.886 0.423 3.753 0.998 5.618 1.526 1.314 0.903 3.309 2.343 4.24 2.893 1.38 0.7 1.803-0.41 1.612-1.62 0.618-1.699-0.689-2.432-2.012-3.035-1.741-0.841-1.68-2.912-1.879-4.548-0.645-3.462-0.185-7.054-1.02-10.484-0.974-2.94-1.158-6.059-1.457-9.119 0.208-1.196-0.795-3.24 0.558-3.761 0.055 1.341 1.728 0.121 0.619-0.636-0.856-0.368-0.679-0.588-0.192-0.873-1.077 0.4-1.346-0.959-1.283-2.166-0.052-1.694-1.02-3.201-2.207-4.342-1.291-1.029-0.48-2.996-1.225-4.356-1.108-2.514-0.795-5.349-1.701-7.918-0.44-1.677-1.962-2.609-3.178-3.675 0.376-0.317-0.554-1.007-1.328-1.136-0.604-0.24-1.318-0.392-2.022-0.397zm12.944 23.99c0.16-0.059 0.333-0.154 0.531-0.297-0.196 0.11-0.376 0.207-0.531 0.297zm-5.05 13.831c0.164-0.017 0.316 0.472 0.352 0.996 0.375 2.476 0.88 4.933 1.779 7.278 0.78 2.644 2.107 5.117 2.68 7.819l0.007 0.328c-0.641-0.186-1.379-1.542-2.023-2.193-1.178-1.593-2.645-2.993-3.651-4.698 0.657-1.436-0.686-2.781-0.133-4.295 0.255-1.488 0.044-3.081 0.705-4.554 0.083-0.478 0.185-0.671 0.284-0.681zm-1.068 7.733c0.041 0.048 0.083 0.254 0.093 0.668-0.011 0.33-0.038 0.692-0.24 0.968-0.254-0.583 0.096-0.502 0.106-0.787-0.091-0.57-0.026-0.928 0.041-0.849zm0.657 2.991c1.676 2.06 3.3 4.164 5.016 6.19 0.264 0.517-1.096-0.247-1.365-0.216-1.334-0.485-2.964-0.667-4.123-1.327 0.264-1.536 0.289-3.107 0.472-4.647z" fill="#000000"/>
</svg>
