<?xml version="1.0" encoding="UTF-8" standalone="no"?>
<svg xmlns:rdf="http://www.w3.org/1999/02/22-rdf-syntax-ns#" xmlns="http://www.w3.org/2000/svg" xmlns:cc="http://web.resource.org/cc/" xmlns:dc="http://purl.org/dc/elements/1.1/" xmlns:sodipodi="http://inkscape.sourceforge.net/DTD/sodipodi-0.dtd" sodipodi:docname="silh58.svg" height="128px" sodipodi:version="0.32" width="128px" sodipodi:docbase="/home/nicu/Desktop/svg/silhouettes">
 <sodipodi:namedview bordercolor="#666666" pagecolor="#ffffff" borderopacity="1.0"/>
 <path sodipodi:nodetypes="ccccccccccccccccccccccccccccccccccccccccccccccccccccccccc" d="m57.153 120.39c-1.515-0.25-3.489-0.02-4.71-0.85 0.133-1.73 1.467-3.24 1.616-5.04 0.306-1.69 1.003-3.33 0.681-5.08-0.131-2.19-1.798-3.84-3.151-5.42-1.478-1.36-2.711-2.94-3.993-4.483-1.967-2.322-4.125-4.509-5.746-7.101-1.109-1.603-1.975-3.372-2.832-5.118-0.982-1.575-0.314-3.402-0.703-5.133-0.03-2.071 1.357-4.026 3.281-4.725 0.1-2.333 0.144-4.678 0.162-7.015-0.117-2.527 0.743-5.101 2.154-7.192 0.542-1.081 2.401-0.977 1.129-2.391-0.699-1.766-0.181-3.754-0.52-5.602 0.094-1.607 0.395-3.228 0.618-4.835 0.151-1.652 0.605-3.31 1.701-4.6 0.939-1.669 3.02-1.039 4.569-1.04 1.485 0.244 3.024 0.616 4.371 1.253 1.6 1.192 2.507 3.102 2.501 5.093 0.125 2.819 0.192 5.797-0.972 8.423 1.589 0.044 2.933 1.235 3.168 2.83 0.494 1.712 2.583 2.099 3.764 3.275 1.595 1.282 3.243 2.701 4.119 4.584 0.188 1.492 0.394 3.688-1.462 4.189-1.465 0.253 0.914 2.33 0.928 3.419 0.251 1.732 1.971 2.473 3.2 3.46 1.515 1.232 3.255 2.165 4.959 3.093 1.642-0.275 11.478-5.504 13.271-6.338 2.182-0.794 4.43-1.77 6.793-1.683 1.706 0.154 3.142 1.391 4.161 2.676 0.44 1.852 0.04 3.818-0.436 5.627-0.968 1.634-1.506 3.468-2.066 5.268-1.325 2.562-2.666 5.132-4.333 7.484-0.871 1.769-2.262 3.222-3.015 5.062-0.915 1.8-1.783 3.62-2.737 5.4 0.591 1.4 0.033 2.98 0.354 4.45-0.095 1.92 0.868 3.72 2.528 4.7 0.711 0.81 3.178 1.57 2.644 2.69-1.657 0.94-3.782 0.85-5.606 0.5-1.335-0.82-3.674-0.6-4.158-2.35-0.245-1.73-1.057-3.28-1.577-4.93-0.936 0.31-0.206 3.23-2.185 3-0.842-0.07-2.749 0.53-2.27-1.01 0.347-1.62 0.664-3.25 1.067-4.86 0.337-1.8 0.901-3.48 2.429-4.62 1.482-1.33 2.781-2.94 3.276-4.91 0.741-2.063 1.576-4.161 1.808-6.351-2.16 1.587-4.535 2.896-6.947 4.082-2.095 1.492-4.758 1.633-7.24 1.59-1.281 0.339-3.138-1.21-3.895-0.131-1.901 1.64-4.563 1.24-6.874 1.52-1.017 0.28-4.227-0.49-2.561 1.22 1.21 1.31 2.575 2.62 3.186 4.33 0.777 2.51 0.146 5.2 0.872 7.72-0.837 0.27-2.501-0.21-2.211 1.01 0.384 1.63-0.18 3.36-1.48 4.42-0.38 0.63-1.022 0.42-1.63 0.44z" fill="#000000"/>
</svg>
