<?xml version="1.0" encoding="UTF-8" standalone="no"?>
<svg xmlns:rdf="http://www.w3.org/1999/02/22-rdf-syntax-ns#" xmlns="http://www.w3.org/2000/svg" xmlns:cc="http://web.resource.org/cc/" xmlns:dc="http://purl.org/dc/elements/1.1/" xmlns:sodipodi="http://inkscape.sourceforge.net/DTD/sodipodi-0.dtd" sodipodi:docname="silh60.svg" height="128px" sodipodi:version="0.32" width="128px" sodipodi:docbase="/home/nicu/Desktop/svg/silhouettes">
 <sodipodi:namedview bordercolor="#666666" pagecolor="#ffffff" borderopacity="1.0"/>
 <path d="m63.493 3.7972c-1.54 0.0837-3.027 0.4454-4.305 1.4313-2.091 1.3123-3.156 3.7649-2.939 6.1925-0.176 2.801 1.194 5.531 0.426 8.325-1.226 2.379-3.409 3.971-6.005 4.609-1.716 0.126-4.706 2.816-5.702 1.128-0.139-3.187-0.221-6.427 0.193-9.593 0.347-0.985 0.17-4.234 1.297-3.692 1.325-0.474 1.531-3.7602-0.14-4.6561-1.215-1.4341-1.466-4.0182-3.967-3.4176-0.463 1.2661-0.928 2.5313-1.391 3.7974 0.353 1.9772 1.815 3.9733 1.081 6.0933-1.074 3.708-2.137 7.433-2.804 11.246 0.139 2.066-1.089 4.801 0.239 6.438 3.249 1.444 6.951 0.889 10.388 0.613 2.636-0.158 4.871-1.779 7.372-2.337 1.105 2.32 1.218 4.924 1.157 7.449 0.016 2.277 0.151 5.251-2.395 6.251-1.907 1.252-3.925 2.415-5.422 4.165-1.331 1.525-1.756 3.203-2.5 4.686-1.434 2.686-1.479 6.297-1.396 8.453 0.038 2.274-0.829 4.683-0.409 6.929 1.341-1.106 1.884 0.627 2.453 2.021 1.355 3.395 2.282 6.978 2.898 10.58 0.66 2.108 0.651 4.35 0.099 6.491-0.498 4.942 0.26 10.08 2.29 14.62 1.361 3.85 2.58 7.86 2.752 11.96 0.298 3.16-0.288 6.67 1.548 9.45 1.599 0.95 5.766 1.26 6.018-1.37 0.596-2.21-1.161-3.79-1.741-5.75-0.334-2.18-0.91-4.31-1.321-6.48-1.538-2.9-1.178-6.33-1.262-9.514 0.272-3.126-0.037-6.238-0.303-9.353-0.404-2.591 0.531-5.069 0.572-7.635 0.029-5.288-0.561-10.564-0.456-15.856 0.769 0.61 1.002 3.503 1.414 5.001 1.861 3.946 3.525 7.988 4.861 12.146 0.279 2.42 2.239 4.246 2.436 6.642-0.111 4.636 2.284 8.755 4.639 12.569 1.762 2.21 3.131 4.77 4.042 7.45-0.28 1.91-1.513 4.07-0.035 5.9 1.607 2.01 1.24 4.64 1.426 7.04 0.256 0.16 1.976 0.62 1.595-0.26-0.158-1.04-0.649-5.58 0.245-2.52 0.384 1.94 0.243 4.85 2.839 5.12 0.546 0.11 1.111 0.12 1.665 0.08 2.039 0.35 5.491-1.93 2.904-3.66-1.99-1.41-2.834-3.64-3.254-5.98-0.606-3.99-2.298-7.69-3.284-11.6-1.155-3.44-1.732-7.063-3.055-10.452-0.456-1.964-1.499-3.708-2.091-5.626-0.366-1.959-0.843-3.878-1.712-5.667-0.23-4.097-0.509-8.195-1.034-12.268-0.42-2.579-0.485-4.451-0.771-5.802-0.196-2.762-1.095-12.32-0.912-13.6-0.116-1.861 2.658-1.924 3.599-3.312 0.077-2.094-0.316-4.391 0.87-6.24 0.723-0.978 1.576-2.436 1.549-0.187 0.259 3.84 2.687 7.072 5.292 9.716 1.884 1.136 2.561 3.892 5.118 3.441 1.836 0.6 4.159 2.277 5.79 0.327 1.207 0.078 1.949-1.206 2.179-2.057-1.654-1.827-4.023-2.547-6.462-2.424-2.894 0.719-3.414-2.154-4.165-4.189-1.449-3.263-3.01-6.595-2.997-10.247-0.325-2.353-0.019-4.688 0.315-6.993 0.133-2.46 0.239-5.183-1.589-7.109-0.597-1.896-3.814-0.704-4.767-3.032-1.292-3.213-2.119-6.611-3.476-9.8033-0.802-2.3651-2.258-4.8354-4.872-5.4448-1.495-0.1237-3.087-0.3174-4.627-0.2337zm27.896 49.313c0.392-0.074 0.71-0.03 0.625 0.31-0.17 0.678-0.683 1.016-0.853 1.016 0 0-1.271-0.68-0.847-0.935 0.212-0.127 0.683-0.317 1.075-0.391z" fill="#000000"/>
</svg>
