<?xml version="1.0" encoding="UTF-8" standalone="no"?>
<svg xmlns:rdf="http://www.w3.org/1999/02/22-rdf-syntax-ns#" xmlns="http://www.w3.org/2000/svg" xmlns:cc="http://web.resource.org/cc/" xmlns:dc="http://purl.org/dc/elements/1.1/" xmlns:sodipodi="http://inkscape.sourceforge.net/DTD/sodipodi-0.dtd" sodipodi:docname="ag_silh11.svg" height="128px" sodipodi:version="0.32" width="128px" sodipodi:docbase="/home/nicu/Desktop/svg">
 <sodipodi:namedview bordercolor="#666666" pagecolor="#ffffff" borderopacity="1.0"/>
 <path sodipodi:nodetypes="cccccccccccccccccccscsssccccccccccccccccccccccc" d="m65.062 13.031c-1.269 0.093-2.574 0.711-3.781 1.438-1.487 0.394-2.53 2.037-3.125 3.281-0.572 2.062-1.008 4.166-1.218 6.312-0.826 1.813 0.26 4.776-1.938 5.626-2.554 0.318-4.432 2.403-5.531 4.593-0.733 2.437-2.07 4.599-3.344 6.781-0.786 1.925-3.167 4.671-1 6.438 2.535 1.592 5.61 0.902 8.375 0.5 1.859 0.582 1.265 3.89 1.281 5.562 0.072 2.372-0.751 4.606-1.156 6.907-0.553 2.911 0.764 5.664 0.937 8.531 0.486 1.347-0.586 5.479 1.688 4.5 1.339 3.251 3.54 6.067 4.969 9.281 0.805 1.986 2.587 4.162 1.562 6.375-1.317 2.117-1.415 4.649-1.281 7.063-0.06 2.579 0.817 5.051 0.969 7.591 0.078 3.68-2.098 6.87-2.5 10.47-0.129 2.1-2.548 3.86-1.188 5.94 0.038 0.25 0.605 1.58 0.938 2.84 0.285 1.08 0.708 1.8 1.093 2.5 0.709 1.4 2.015 0.3 2.313-0.37 0.846-1.91 1.383-2.84 1.281-0.5s4.573-0.46 5.032-2.35c0.056-0.23-0.091-0.34 0.156-1.09 0.236-1.92-1.29-3.68-1.156-5.87-0.123-3.13-0.883-6.2-1.032-9.32-0.248-2.31 0.743-4.36 1.532-6.466 1.849-4.763 0.57-9.954 1.5-14.875 1.055-4.089 2.025-8.237 3.718-12.125-0.086-1.775 1.967-1.971 2.469-2.969-1.653-4.391-1.176-9.301-3.063-13.625-1.138-1.885-2.271-4.007-3.374-5.75 1.005 0.776 2.634 1.328 3.593-0.25 0.237-1.069 1.39-2.027 0.938-3.156-0.831-2.04-0.452-4.177-0.813-6.344-0.997-1.963 2.577-0.148 1.875-1.094 2.031-1.352-2.057 0.773-1.156-1.187-0.441-2.299-0.972-4.542-1.906-6.688-0.681-4.69-1.212-9.485-2.844-13.969-0.68-0.977-0.474-1.639-1.313-2.75-1.004-1.422-2.23-1.873-3.5-1.781zm-12.531 28.094c0.54 0.077 0.166 2.018-0.093 2.844-0.022 0.668-0.472 0.536-0.907 0.406-2.311 0.045-0.666-1.638 0.125-2.594 0.428-0.502 0.695-0.682 0.875-0.656z" fill="#000000"/>
</svg>
