<?xml version="1.0" encoding="UTF-8" standalone="no"?>
<svg xmlns:rdf="http://www.w3.org/1999/02/22-rdf-syntax-ns#" xmlns="http://www.w3.org/2000/svg" xmlns:cc="http://web.resource.org/cc/" xmlns:dc="http://purl.org/dc/elements/1.1/" xmlns:sodipodi="http://inkscape.sourceforge.net/DTD/sodipodi-0.dtd" sodipodi:docname="ag_silh24.svg" height="128px" sodipodi:version="0.32" width="128px" sodipodi:docbase="/home/nicu/Desktop/svg/silhouettes">
 <sodipodi:namedview bordercolor="#666666" pagecolor="#ffffff" borderopacity="1.0"/>
 <path d="m60.156 124.18c0.001-0.35 0.312-1.29 0.691-2.11 0.913-1.96 0.987-4.84 0.136-5.29-0.489-0.27-0.553-0.58-0.553-2.74 0-3.14-0.594-6.51-1.693-9.61l-0.872-2.45-0.075-7.531c-0.074-7.358-0.092-7.581-0.831-9.82-0.415-1.259-1.052-2.882-1.413-3.605-0.549-1.095-1.417-4.012-2.573-8.643-0.259-1.035-1.201-4.111-1.304-4.257-0.043-0.06-0.267 0.048-0.499 0.241-0.442 0.367-0.513 0.249-0.436-0.729 0.07-0.883-0.499-1.066-0.806-0.258-0.513 1.35-2.623 1.263-3.676-0.151-0.492-0.661-0.507-0.825-0.166-1.783 0.206-0.581 0.802-1.436 1.323-1.9 2.591-2.307 3.002-2.894 3.458-4.945 0.617-2.771 1.265-7.232 1.265-8.704 0-1.238 1.193-7.178 1.65-8.217 0.134-0.304 0.302-1.072 0.374-1.707 0.11-0.973-0.017-1.371-0.809-2.547-1.124-1.669-1.251-3.158-0.365-4.284 0.495-0.629 0.533-0.858 0.271-1.652-0.168-0.506-0.667-1.268-1.109-1.692-1.272-1.218-1.349-2.519-0.279-4.693 0.574-1.165 0.829-2.021 0.725-2.434-0.087-0.35 0.019-2.248 0.238-4.218 0.337-3.048 0.538-3.871 1.346-5.529 0.523-1.071 1.308-2.397 1.746-2.9482 0.438-0.5508 1.096-1.8986 1.462-2.995 0.898-2.6894 2.687-4.3875 5.555-5.2754 2.197-0.6798 2.874-0.6245 5.034 0.4108 2.133 1.0219 3.621 2.5427 4.322 4.4166 0.328 0.8759 0.892 1.9853 1.254 2.4653s0.84 1.3079 1.063 1.8409c0.222 0.532 0.919 1.649 1.548 2.482 1.096 1.45 1.144 1.598 1.144 3.512 0 1.6 0.138 2.257 0.692 3.299 0.38 0.715 0.691 1.445 0.691 1.622s0.281 0.874 0.623 1.549c0.612 1.207 0.621 1.373 0.535 9.803-0.059 5.888 0.014 8.964 0.235 9.819 0.177 0.685 0.409 4.296 0.515 8.026 0.174 6.082 0.254 6.909 0.777 8.022 0.321 0.682 0.671 1.551 0.779 1.931 0.107 0.38 0.567 1.399 1.022 2.263 0.726 1.381 0.804 1.743 0.634 2.974-0.139 1.011-0.32 1.415-0.651 1.449-1.061 0.11-1.312 0.16-1.772 0.357-0.266 0.115-0.655 0.142-0.865 0.062-0.21-0.081-0.492-0.036-0.627 0.099-0.447 0.448-1.369-0.035-1.689-0.885-0.347-0.918-0.898-0.839-0.9 0.128-0.003 1.14-0.545 2.543-2.001 5.175-0.8 1.447-1.689 3.19-1.974 3.872-0.775 1.853-1.815 3.816-2.971 5.608-1.182 1.833-1.58 3.383-1.782 6.946-0.157 2.769-0.39 4.194-1.365 8.325-0.885 3.755-1.18 6.085-1.537 12.155-0.254 4.34-0.236 5.63 0.115 7.99 0.23 1.55 0.497 3.64 0.592 4.64 0.243 2.58 0.038 2.74-3.479 2.74-2.664 0-2.746-0.02-2.743-0.62z" fill="#000000"/>
</svg>
