<?xml version="1.0" encoding="UTF-8" standalone="no"?>
<svg xmlns:rdf="http://www.w3.org/1999/02/22-rdf-syntax-ns#" xmlns="http://www.w3.org/2000/svg" xmlns:cc="http://web.resource.org/cc/" xmlns:dc="http://purl.org/dc/elements/1.1/" xmlns:sodipodi="http://inkscape.sourceforge.net/DTD/sodipodi-0.dtd" sodipodi:docname="ag_silh10.svg" height="128px" sodipodi:version="0.32" width="128px" sodipodi:docbase="/home/nicu/Desktop/svg">
 <sodipodi:namedview bordercolor="#666666" pagecolor="#ffffff" borderopacity="1.0"/>
 <path sodipodi:nodetypes="cccccccccccccccscscccscccsccccccccccccccccsccccccccccccccccccccccccc" d="m61.25 2.5312c-1.974-0.0313-3.039 1.5-3.625 2.25-1.651 1.0213-2.085 2.9882-2.375 4.25-1.171 2.4218-0.875 5.1468-1.656 7.6568-0.458 2.371-1.97 3.876-4 4.906-2.169 3.665-2.731 8.016-3.563 12.125-0.256 2.331-1.22 4.52-1.406 6.843-0.673 2.765-0.724 5.642-0.469 8.469 0.586 4.041 0.516 8.139 0.938 12.188 0.27 2.333 2.87 3.963 4.281 4.969-0.111-1.728 1.846 0.829 0.969-1.25-0.416-0.459-1.423-3.702-0.875-2.594 1.69 0.964 1.707 1.932 1.75 4.25 1.819 0.516 1.999 3.392 3.281 5.062 1.864 3.661 3.662 7.457 4.375 11.532 0.511 1.414-0.524 2.703-0.781 4.062-0.682 3.618-0.064 7.354 0.875 10.875 0.85 2.125 1.061 4.375 0.437 6.595-0.7 2.47-1.803 4.86-2.25 7.4-0.286 1.94-1.225 3.6-2.062 5.38 0.166 0.4 0.544 2.15 0.437 2.16 0.143 0.26 0.402 0.44 0.438 0.75 0.132 1.15 0.913 2.59 1.531 3.37 0.708 0.09 1.26 0.24 1.906 0.25 1.934-0.14 1.189 0.17 1.448 1.07 0.785 0.89 4.468-0.22 4.99-0.38 0.559-0.17 1.251-0.88 2.281-2.78-0.179-0.07 1-2.95-0.156-3.75-0.438-2.55-1.376-5.02-1.531-7.66-0.714-3.25-1.822-6.63-1.032-9.97 1.995-4.121 2.999-8.667 2.875-13.248-0.528-4.183 0.775-8.27 1.781-12.281 0.621-2.062 0.832-4.734 2.25-6.25-0.269 1.264 0.689 0.796 1.719 0.281 2.583-0.675 2.309-3.741 2.844-5.812 0.916-3.86-0.415-7.675-0.781-11.5-0.302-4.812-2.707-9.227-2.75-14.062-0.023-2.235-0.368-4.605 0.218-6.75-0.078-0.421-0.418-3.591-0.937-5.063-2.063-1.58-2.898-3.996-2.5-6.625 0.175-1.966-0.006-0.066-0.281 0.906 0.034-2.686 0.206-5.371 0.156-8.062 0.11-3.0779-1.38-6.999-3.5-8.094s-3.055-1.4676-5.25-1.4688zm-10.219 32.469c0.319-0.402 0.669 0.608 0.094 1.469-0.673 0.694-0.469-0.136-0.344-0.531 0.066-0.501 0.144-0.804 0.25-0.938zm-0.593 2.406c0.381-0.362 0.85 0.716 0.437 1.625-1.103 0.455-0.957 0.236-0.75-0.719 0.07-0.506 0.185-0.785 0.313-0.906zm1.093 1.719c0.405 3.761 0.412 7.627-0.531 11.313-1.222 3.474-0.536 7.116-0.125 10.656 0.026 0.361 0.056 0.731 0.063 1.094-0.514 0.457-0.374-3.417-1.188-4.438-2.123-2.262-1.978-5.355-1.625-8.219 0.556-2.988 0.743-6.043 1.469-9-0.016-1.029 1.253-0.979 1.937-1.406zm21.657 27.125c-0.473 0.744 1.329 1.197 0.781 1.562-1.934 0.989-1.985-0.756-0.781-1.562zm-11.813 51.59c0.348-0.38 0.842 1.08 0.875 2.04 0.17 1.69-0.284 1.48-0.361 0.17-0.189-1.35-0.937 0.52-0.795-1.14 0.06-0.63 0.165-0.94 0.281-1.07z" fill="#000000"/>
</svg>
