<?xml version="1.0" encoding="UTF-8" standalone="no"?>
<svg xmlns:rdf="http://www.w3.org/1999/02/22-rdf-syntax-ns#" xmlns="http://www.w3.org/2000/svg" xmlns:cc="http://web.resource.org/cc/" xmlns:dc="http://purl.org/dc/elements/1.1/" xmlns:sodipodi="http://inkscape.sourceforge.net/DTD/sodipodi-0.dtd" sodipodi:docname="silh55.svg" height="128px" sodipodi:version="0.32" width="128px" sodipodi:docbase="/home/nicu/Desktop/svg/silhouettes">
 <sodipodi:namedview bordercolor="#666666" pagecolor="#ffffff" borderopacity="1.0"/>
 <path sodipodi:nodetypes="cccccccccccccccccccccccccccccccccccccccccccccccccccccccc" d="m50.758 85.497c-2.523-1.445-2.127-4.85-2.371-7.327 0.825-3.308-2.999-2.837-5.133-2.96-3.499-0.106-7.023-0.16-10.504-0.356-1.147 1.612-4.055 0.696-3.817 3.134-0.733 0.676-1.43 1.748-2.564 1.51-1.602 0.118-3.267 0.064-4.56-1.044-3.575-2.34-6.162-5.85-9.45-8.525-2.8329-1.941-5.7163-3.885-8.9143-5.189-1.4151-0.265-1.6161-2.618 0.187-1.51-0.9152-0.676-4.0535-2.718-1.2367-2.824 0.8808 0.483 2.8298 2.113 3.2647 1.609-1.0186-1.158-4.819-2.406-3.4933-4.066 0.6562-0.036 3.6437 2.152 2.0771 0.842-2.374-1.606 0.8166-2.393 1.9666-0.8 0.9102 1.223 5.0979 1.096 2.4904-0.678-1.6626-1.725-2.2844-3.972-2.747-6.235-0.2619-1.498-1.1381-3.006-0.6155-4.536 0.4304-1.566 0.168-3.544 1.7305-4.516 1.7446-1.49 4.1315-1.948 6.3175-1.996 2.165 0.139 3.896 1.557 4.973 3.353 1.562 2.145 2.7 4.572 3.585 7.051 0.915 2.507 4.036 2.612 6.014 3.974 3.526 1.765 7.259 3.03 11.021 4.17 2.296 1.436 5.332 1.318 7.308-0.641 2.465-1.657 5.06-3.541 8.089-3.866 3.413-0.308 6.824 0.681 9.665 2.558 0.801 0.526 1.779 1.797 2.514 2.883 0.9 1.288 1.78 3.431 1.298 5.072-1.036 3.253 3.209 0.796 4.744 0.568 2.473-0.483 4.351-1.888 5.257-4.164 1.825-1.765 4.474-1.079 6.364 0.169 1.731 1.486 4.311 1.109 6.047 2.22 1.186 2.144 4.35 1.292 5.763 3.123 1.923 1.259 0.4 3.955 1.194 5.174 3.098-0.051 6.348-0.129 9.268-1.167 2.09-1.724 4.49-0.524 6.18 1.025 1.59 1.033 3.76 2.113 5.09 2.708 0.96 0.449 3.28 0.845 4.96 1.349 0.81 0.577-0.29 2.201 1.31 2.105 2.43 0.33 2.36 3.817 0.79 5.086-0.66 2.942-3.43 0.204-5.25 1.098-2.82 1.067-3.99-3.154-6.31-4.174-2.41-1.294-4.75-3.912-7.76-3.009-3.08 0.903-6.302 1.154-9.445 1.76-5.267 0.692-10.531 1.429-15.835 1.754-3.3 0.374-6.623 1.344-9.941 0.488-2.127 0.042-4.914-1.855-6.521 0.219-2.586 2.033-5.379 3.943-8.485 5.074-1.474 0.254-3.236 0.465-4.515-0.493zm30.992-13.372c1.965-0.731 4.296-0.474 6.14-1.176-1.731-1.416-4.271-2.787-6.645-2.153-2.638 0.63-5.472 1.408-7.494 3.293 2.279-0.065 4.509 1.088 6.768 0.35 0.412-0.095 0.822-0.203 1.231-0.314z" fill="#000000"/>
</svg>
