<?xml version="1.0" encoding="UTF-8" standalone="no"?>
<svg xmlns:rdf="http://www.w3.org/1999/02/22-rdf-syntax-ns#" xmlns="http://www.w3.org/2000/svg" xmlns:cc="http://web.resource.org/cc/" xmlns:dc="http://purl.org/dc/elements/1.1/" xmlns:sodipodi="http://inkscape.sourceforge.net/DTD/sodipodi-0.dtd" sodipodi:docname="silh26.svg" height="128px" sodipodi:version="0.32" width="128px" sodipodi:docbase="/home/nicu/Desktop/svg/silhouettes">
 <sodipodi:namedview bordercolor="#666666" pagecolor="#ffffff" borderopacity="1.0"/>
 <path sodipodi:nodetypes="ccccccccccccccccccccccccccccccccccccccccccccccccccccccccc" d="m66.648 113.74c-1.785-1.12-1.043-3.58-1.015-5.36 0.258-3.04-0.255-6.22-1.685-8.931-0.882-1.691-1.785-3.401-3.143-4.778-1.634-1.99-2.923-4.238-4.47-6.298-1.473-1.913-2.737-4.029-3.582-6.297-0.352-2.315-2.518-3.858-2.697-6.23-0.3-1.847 0.062-4.148 1.931-5.049 1.662-0.754 3.612-0.687 5.4-0.521 2.23 0.146 4.32 1.181 6.521 1.444 1.767-0.646 1.726-2.826 0.472-3.978-1.232-1.85-2.245-3.832-3.344-5.757-0.894-1.447-0.437-3.062-0.282-4.632 0.022-1.775 0.531-3.463 0.946-5.169 0.549-1.551 0.959-3.146 1.64-4.651 0.673-1.962 1.101-4.006 2.105-5.842 0.276-1.63 3.507-1.547 2.123-3.595-0.245-1.64-0.841-3.219-0.917-4.886-0.53-1.636-0.089-3.588 1.144-4.777 0.653-1.597 1.367-3.426 2.975-4.277 1.108-1.047 2.623-1.892 4.201-1.493 1.792 0.137 3.604 0.586 4.91 1.891 1.114 1.147 1.7 2.771 2.532 4.134 0.53 2.297 1.175 4.566 1.794 6.843 0.634 2.683 0.903 5.428 1.447 8.128 0.409 2.702 0.438 5.474 1.126 8.124 0.222 0.63 1.347 2.532 0.446 1.716 0.009 1.2-0.637 1.092-0.367-0.029-0.681-2.491-1.213 2.32-2.653 1.464 0.566-0.664 0.378-2.264-0.373-0.822-0.066 1.325-1.903 0.189-0.496-0.221 0.966-1.266-0.261-1.009-0.744-0.016-1.089 0.69-1.909 2.21-2.3 3.642-0.351 1.47-0.917 3.021-0.756 4.528 1.001 1.615 1.885 3.302 3.079 4.799 1.229 1.8 1.651 4.017 2.029 6.123 0.231 2.343-0.091 4.708-0.566 6.996-1.003 2.99-3.933 4.767-6.825 5.59-1.359 0.562-3.27 0.683-4.376 1.247 0.86 1.651 1.78 3.269 2.824 4.812 0.834 1.24 1.158 3.02 2.538 3.765 0.906-0.004 1.195-1.569 2.159-0.881 1.255 1.12 2.539 2.276 4.067 3.059 0.683 0.754 3.154 0.518 2.346 1.805-1.115-0.317-4.102-1.79-3.377 0.572 0.949 1.668 2.575 2.728 3.912 4.058 0.075 1.41-0.158 2.82-0.679 4.13-0.122 2.14-3.045 2.02-4.557 1.65-1.267-0.75-0.781-3.04-2.069-4.03-1.388-0.69-2.538-1.71-3.467-2.95-1.811-1.68-2.964-3.886-4.809-5.527-1.646-0.972 1.156 1.259 0.718 2.185 0.107 1.032 0.061 2.082 0.071 3.122-1.504 0.5-0.218-4.158-1.391-1.93-1.159 1.96-0.141 4.28-0.041 6.37-0.028 1.79 0.759 3.9-0.372 5.47-0.988 1.15-2.687 1.36-4.103 1.26z" fill="#000000"/>
</svg>
