<?xml version="1.0" encoding="UTF-8" standalone="no"?>
<svg xmlns:rdf="http://www.w3.org/1999/02/22-rdf-syntax-ns#" xmlns="http://www.w3.org/2000/svg" xmlns:cc="http://web.resource.org/cc/" xmlns:dc="http://purl.org/dc/elements/1.1/" xmlns:sodipodi="http://inkscape.sourceforge.net/DTD/sodipodi-0.dtd" sodipodi:docname="silh11.svg" height="128px" sodipodi:version="0.32" width="128px" sodipodi:docbase="/home/nicu/Desktop/svg/silhouettes">
 <sodipodi:namedview bordercolor="#666666" pagecolor="#ffffff" borderopacity="1.0"/>
 <path sodipodi:nodetypes="ccccccccccccccccccccccccsscccccccccccccccccccccccccccccccccccccccccccccccccc" d="m65.435 23.712c-0.56-0.01-1.118 0.005-1.64 0.004-0.939 0.011-1.311 1.544-2.141 0.944-0.593 0.608-1.809 1.76-2.091 2.121-0.369-0.02-0.873 2.38-0.945 3.645 0.057 2.203-0.331 4.617 0.704 6.643 0.056 1.159 1.176 3.102 0.762 3.715-0.796 0.736-0.215 0.207-0.058-0.294 0.103-0.217-1.739 1.469-2.211 1.984-1.034 1.703-0.204 4.164-2.108 5.363-1.155 1.43-3.785 2.239-3.604 4.362 0.303 1.815 0.748 3.531 1.862 4.094 0.518 1.615 0.513 2.646 0.52 4.599-0.464 3.12-0.045 6.261-0.129 9.393 0.481 1.88 1.149 3.8-0.331 5.492-1.493 1.465-1.501 3.38-1.706 5.314-1.406 3.496-3.205 6.849-4.175 10.512-0.797 2.51 1.185 4.623 2.166 6.747 1.717 3.84 4.621 6.92 6.904 10.4 0.916 1.5 2.251 3 2.253 4.85-0.255 1.83-0.433 3.89-1.917 5.22-1.704 0.69-1.608 2.1-1.139 3.63-0.21-0.88 1.085 2.5 1.52 2.98 1.676 0.44 2.234 0.68 3.858 0.28 0.054-0.03 1.506-0.28 1.563-0.29 1.499-0.5 2.499-1.01 3.873-2.75 0.16-0.21 0.296-0.4 0.418-0.58 0.01-0.69 0.789-2.18 1.048-3 0.714-2.23 1.064 0.18 1.027 1.18 0.042 0.75 0.065 2.44 0.058 2.5 0.006 0.01 0.673-0.14 0.696 0.07-0.014-2.94 0.781-5.63 2.021-8.3-0.287-0.79-1.022-1.79-1.516-2.76-2.078-1.33-2.829-3.82-3.723-5.99-1.368-3.04-2.245-6.427-4.436-9.01-0.964-1.124-3.711-2.098-1.86-3.769 4.133-3.88 8.316-7.781 11.696-12.359 0.821-0.487 1.692-3.742 2.229-2.025 1.092-1 2.305-2.306 3.578-3.289-0.711-1.391-1.392-2.797-2.137-4.17-1.088-2.163-2.689-4.002-4.071-5.956 1.125-1.416 2.377-2.726 3.528-4.121 0.334-2.29 0.115-4.641 0.129-6.954-0.494-1.884 1.078-3.315 0.878-5.223 0.849-1.352-1.956-3.563-0.518-3.984-0.647-0.197-1.203-0.335-0.103-0.48-1.893-0.432-1.925-3.248-2.249-4.879-0.321-1.95-1.033-3.794-1.603-5.675-0.283-1.216-1.228-2.764-1.239-3.951-0.616-1.488-1.02-2.96-1.362-4.344-0.884-1.597-2.597-1.858-4.279-1.889zm9.916 21.566c0.369 0.195 1.052 1.897 1.346 2.762l0.037 0.328c-0.581-0.778-1.101-2.07-1.383-3.09zm0.567 5.823c0.076-0.016 0.173-0.006 0.29 0.037-0.393 1.365-0.819 0.075-0.29-0.037zm-5.62 3.094c0.231 0.077 0.159 1.982 0.422 2.311 0.079 0.335-0.489 0.174-0.691 0.211-1.041-0.001-0.123-1.78 0.149-2.431 0.047-0.073 0.087-0.102 0.12-0.091zm-0.476 2.845c0.759-0.1 1.907 0.648 0.869 1.471-0.419 0.069-1.047 0.367-1.263-0.203-0.379-0.841-0.062-1.207 0.394-1.268zm0.824 1.814c0.502-0.04 0.241 0.751-0.414 1.301-0.278 0.361-0.546 0.732-0.854 1.068-1.031-0.563-0.976-2.478 0.497-2.008 0.351-0.238 0.603-0.347 0.771-0.361zm-7.269 58.106c0.366-0.13 0.262 1.6-0.373 2.12-1.249 1.1-0.372-0.89-0.145-1.24 0.225-0.58 0.396-0.83 0.518-0.88z" fill="#000000"/>
</svg>
