<?xml version="1.0" encoding="UTF-8" standalone="no"?>
<svg xmlns:rdf="http://www.w3.org/1999/02/22-rdf-syntax-ns#" xmlns="http://www.w3.org/2000/svg" xmlns:cc="http://web.resource.org/cc/" xmlns:dc="http://purl.org/dc/elements/1.1/" xmlns:sodipodi="http://inkscape.sourceforge.net/DTD/sodipodi-0.dtd" sodipodi:docname="ag_silh8.svg" height="128px" sodipodi:version="0.32" width="128px" sodipodi:docbase="/home/nicu/Desktop/svg">
 <sodipodi:namedview bordercolor="#666666" pagecolor="#ffffff" borderopacity="1.0"/>
 <path d="m64.148 2.0237c-2.236-0.0511-4.511 0.8924-5.59 2.9496-1.45 2.3423-1.496 5.2077-2.345 7.7747-0.575 3.045-0.807 6.217-1.937 9.116-1.175 1.131-4.62 6.389-5.341 7.871-0.019 0.178 0.206 0.881 0.221 0.803 0.158 1.61-1.524 3.452-2.104 5.137-1.032 2.468-3.027 5.374-1.499 8.055 1.545 1.42 4.594 0.547 6.377-0.366 1.491-1.114 1.248-0.191 0.261 0.84-0.92 2.121-2.279 3.79-3.6 5.696-1.521 3.191-2.065 6.751-3.018 10.127 0.12 2.37-0.544 4.845 0.304 7.215 0.932 3.201 2.415 6.282 2.537 9.67 0.509 3.464 0.969 6.982 0.947 10.478-0.92 3.679-1.09 7.557-0.085 11.239 0.878 3.811 1.452 7.681 2.352 11.481 0.079 1.76 0.157 3.66 0.286 5.28-0.616 1.73-0.32 3.76-1.052 5.52 0.105 1.57 1.574 3.16 1.363 4.91 1.555 1.44 4.854 1 4.426-1.7 1.28-1.9 0.602-3.72 0.101-5.69-0.277-1.52 0.23-3.09-0.257-4.68-1.462-4.2-0.592-8.75-0.102-13.06 0.633-3.209 0.1-6.449 0.139-9.677 0.074-2.538 1.594-4.804 1.324-7.393 0.027-4.18-0.049-8.369 0.53-12.519 0.074-2.137 0.373-4.391-0.377-6.412 1.074 1.141 2.754 3.489 3.356 5.506 1.94 4.509 5.186 8.272 8.001 12.244 1.791 2.155 3.194 4.649 4.466 7.101-0.966 3.291-0.592 6.859 0.436 10.091 1.299 3.559 2.83 7.069 3.719 10.749-0.888 1.76-3.363 2.59-1.807 4.88 0.689 2.66 0.475 5.49 0.528 8.16 1.246-0.25 0.719-3.31 1.47-4.52 0.8-3.19 2.029 2.14 1.904 3.24 0.045 1.79-0.022 4.52 2.584 4.1 1.638 0.23 3.904 0.54 3.969-1.69 1.346-2.14-1.51-3.06-2.158-4.68-0.464-1.61-0.184-3.27-0.404-4.9-0.793-5.69-1.338-11.42-1.499-17.172 0.029-2.797-0.951-5.48-1.071-8.247 0.406-2.604 0.284-5.339-1.043-7.681-1.767-3.942-2.732-8.208-4.687-12.08-1.22-2.693-2.389-5.488-3.936-7.945-0.466-1.792 0.175-3.675-0.172-5.63 0.286-1.149-1.06-2.488-0.01-3.353 2.402-2.964 4.666-6.12 6.288-9.571 0.378-3.284 1.041-6.536 1.248-9.842 1.155-0.618 0.379 0.605 1.51-0.275 1.313-1.686 0.824-3.939 0.162-5.783-0.834-2.261-2.32-4.229-3.767-6.123-1.294-1.475-2.928-2.754-3.745-4.483-1.171-2.202-1.72-4.659-2.421-7.0142-0.823-2.0398-1.537-4.339-3.167-5.9665-0.933-1.0974-2.079-2.0078-3.615-1.7806z" sodipodi:nodetypes="ccccccccccccccccccccccccccccccccccccccccccccccccccccccccc" fill="#000000"/>
</svg>
