<?xml version="1.0" encoding="UTF-8" standalone="no"?>
<svg xmlns:rdf="http://www.w3.org/1999/02/22-rdf-syntax-ns#" xmlns="http://www.w3.org/2000/svg" xmlns:cc="http://web.resource.org/cc/" xmlns:dc="http://purl.org/dc/elements/1.1/" xmlns:sodipodi="http://inkscape.sourceforge.net/DTD/sodipodi-0.dtd" sodipodi:docname="silh57.svg" height="128px" sodipodi:version="0.32" width="128px" sodipodi:docbase="/home/nicu/Desktop/svg/silhouettes">
 <sodipodi:namedview bordercolor="#666666" pagecolor="#ffffff" borderopacity="1.0"/>
 <path sodipodi:nodetypes="cccccccccccccccccccccccccccccccccccccccccccccccccccccccccc" d="m22.205 111.67c0.286-2.68-3.077 1.15-4.313-0.63-1.307-0.38-0.067-1.48 0.495-2.02 1.472-1.43 3.505-1.88 5.264-2.81 2.393-0.82 4.825-1.52 7.349-1.79 3.091-0.82 6.32-0.22 9.445-0.67 0.915-1.39-2.191-2.01-2.845-2.02-1.135-1.72 0.953-3.978 1.509-5.78 0.568-2.161-0.029-4.46-0.537-6.583-0.671-1.934-3.567-1.661-4.35-3.43-0.322-1.949-2.295-3.137-3.208-4.856-1.116-1.411-1.785-3.179-3.069-4.435-0.721 0.391-0.503 2.209-0.717 2.555-0.155-1.801-0.04-3.622 0.663-5.312 0.221-2.179 1.785-3.608 3.622-4.564 1.581-1.362 3.727-1.679 5.699-1.127 2.08 0.308 4.239 1.052 5.428 2.912 1.494 1.362 2.506 3.513 4.477 4.204 3.233 0.282 5.822-2.168 8.894-2.732 2.94-0.719 5.895-1.422 8.861-2.001 2.106-0.414 1.652-2.855 2.474-4.354 0.719-1.837 1.263-3.882 2.658-5.331 1.841-0.482 1.765-2.719 3.229-3.639 1.6-0.971 3.404-1.639 5.204-2.133 1.915-0.228 3.862 0.029 5.775-0.234-1.127-1.06-1.909-3.844-3.704-3.396-2.205 0.932-3.292-1.243-5.373-1.601-2.534-0.567-5.18-0.548-7.712-1.035-0.856-1.275 0.231-1.466 0.741-1.214 0.74 0.136 2.075-0.227 3.878 0.045 0.497 0.136 0.386-0.354 0.123-0.75-1.722-0.618-3.784-0.084-5.374-0.938-0.427-1.707-0.024-3.51 0.531-5.15 1.774-0.091 3.569-0.253 5.315-0.417 1.152 1.469 3.046 2.205 4.613 3.181 2.045 1.246 4.653 1.656 6.287 3.499-0.607 0.826-0.311-0.294 1.032 0.615 2.756 1.572 5.277 3.519 8.008 5.122 1.572-0.823 1.459 2.049 3.221 1.121 1.471-1.075 3.34-1.747 5.112-0.949 1.68 0.603 2.68 2.413 2.32 4.163-0.11 1.99-4.385-0.002-3.868 1.673 1.518 1.706 2.818 4.066 2.038 6.4 0.59 2 1.86 3.88 1.65 6.065 0.25 2.522-2.78 2.491-4.532 2.348-4.579-0.134-9.178-0.253-13.697-1.075-2.213-0.556-3.247 1.782-4.596 3.015-3.143 3.105-6.305 6.215-9.73 9.009-1.655 1.431-4.541 1.475-5.369 3.774-0.146 1.886-0.826 3.719-2.016 5.212-0.459 0.614-0.899 1.313-1.754 0.908-1.64-0.217-3.393-0.33-4.694-1.485-0.969-0.538-2.346-2.463-2.163-0.125-0.177 3.818-0.415 7.635-1.055 11.405 0.106 2.01-0.634 4.39-3.054 4.39-6.286 1.08-12.667-0.57-18.962 0.28-1.844 0.53-3.72 0.95-5.584 1.39-1.233 0.27-2.386 1.5-3.639 1.3z" fill="#000000"/>
</svg>
