<?xml version="1.0" encoding="UTF-8" standalone="no"?>
<svg xmlns:rdf="http://www.w3.org/1999/02/22-rdf-syntax-ns#" xmlns="http://www.w3.org/2000/svg" xmlns:cc="http://web.resource.org/cc/" xmlns:dc="http://purl.org/dc/elements/1.1/" xmlns:sodipodi="http://inkscape.sourceforge.net/DTD/sodipodi-0.dtd" sodipodi:docname="silh22.svg" height="128px" sodipodi:version="0.32" width="128px" sodipodi:docbase="/home/nicu/Desktop/svg/silhouettes">
 <sodipodi:namedview bordercolor="#666666" pagecolor="#ffffff" borderopacity="1.0"/>
 <path sodipodi:nodetypes="cccccccccccccccccccccccccccccccccccccccccccccccccccccccc" d="m65.744 125.49c-1.28-0.16-2.846 0.12-2.897-1.67-1.107-2.19-3.417-3.45-5.529-4.51-1.078-0.51-5.832-1.91-7.56-1.93-3.185-0.64-6.623-1.06-9.219-3.19-1.397-0.84-2.382-2.15-3.514-3.27-1.367-0.93-2.515-2.47-2.216-4.21 0.14-1.35 0.429-3.43 2.051-3.65 1.961-0.89 4.174-0.5 6.238-0.26 1.295 0.25 2.59 0.28 3.807 0.8 1.51-0.01 3.138 0.58 4.699 0.81 1.674 1.08 0.418-1.95 1.071-2.74 0.336-2.984 0.288-6.025 1.083-8.944 0.421-2.555 0.782-5.121 1.096-7.692 0.201-1.965 0.468-4.04 1.545-5.738 1.151-1.081 2.959-1.622 3.4-3.306 0.845-1.311 1.801-2.651 1.764-4.301-0.069-3.068 0.926-6.254 3.106-8.473 1.097-1.08 1.547-3.002 3.38-3.051 1.679-0.493 3.314 0.175 4.652 1.171 1.5 0.711 2.113 2.334 2.153 3.902 0.269 3.113 0.599 6.239 0.542 9.366-0.748 1.704 0.341 2.847 1.896 3.295 1.821 1.119 1.837 3.47 2.108 5.358 0.427 5 0.591 10.024 1.09 15.017 0.581 1.558-0.188 3.226-0.421 4.806-0.139 0.79-0.887 2.66 0.626 1.76 2.8-0.64 5.542-1.68 8.438-1.78 0.832 0.02 1.971-0.35 2.655-0.04 1.019 0.31 2.039-0.02 2.645 0.35 1.452 0.86 1.482 2.83 1.679 4.33-0.549 1.66-2.305 2.51-3.292 3.9-1.738 1.88-3.752 3.64-6.275 4.34-2.131 0.8-4.379 1.18-6.577 1.73-2.44 1.14-5.45 0.38-7.77 1.9-1.15 0.85-2.239 1.77-3.361 2.66-1.332 0.74-1.187 2.89-2.478 3.38-0.21 0.01-0.435 0.01-0.615-0.12zm0.201-8.15c1.504-0.09 2.702 0.46 3.932-0.66-0.759-0.74-3.032-0.72-4.348-0.85-1.683 0.03-3.336 0.52-5.007 0.51 0.829 1.03 2.882 1.07 4.255 0.93 0.31 0.66 0.779 0.84 1.168 0.07zm9.867-16.9c-0.132-2.466-0.151-4.931-0.177-7.394-0.876-0.753-1.628 1.807-1.681 2.682-0.375 1.706-0.435 3.549 0.444 5.122 0.58 1.21 0.616 2.84 1.368 3.86 0.326-1.35 0.035-2.86 0.046-4.27zm-17.865 0.1c0.566-1.361 0.936-2.827 0.946-4.324-0.032-0.959 0.297-3.124-0.555-3.302-0.321 2.456-0.949 4.878-1.08 7.356-0.092 0.52 0.417 0.41 0.689 0.27z" fill="#000000"/>
</svg>
