<?xml version="1.0" encoding="UTF-8" standalone="no"?>
<!DOCTYPE svg  PUBLIC '-//W3C//DTD SVG 20010904//EN'  'http://www.w3.org/TR/2001/REC-SVG-20010904/DTD/svg10.dtd'>
<svg xmlns="http://www.w3.org/2000/svg" height="400pt" width="400pt" xmlns:xlink="http://www.w3.org/1999/xlink">
 <g transform="translate(-4.8544 3.2362)">
  <path d="m495.65 253.86a234.96 236.08 0 1 0 -469.92 0 234.96 236.08 0 1 0 469.92 0h-234.96z" fill-opacity=".25" fill-rule="evenodd" transform="matrix(.99048 0 0 .99052 7.5959 5.7809)"/>
  <path stroke-linejoin="round" d="m495.65 253.86a234.96 236.08 0 1 0 -469.92 0 234.96 236.08 0 1 0 469.92 0h-234.96z" transform="translate(-7.8319 -11.188)" stroke="#000000" stroke-width="10" fill="none"/>
  <path d="m495.65 253.86a234.96 236.08 0 1 0 -469.92 0 234.96 236.08 0 1 0 469.92 0h-234.96z" fill-rule="evenodd" transform="matrix(.99048 0 0 .99052 -5.3491 -8.7822)" fill="#ffffff"/>
 </g>
 <rdf:RDF xmlns:rdf="http://www.w3.org/1999/02/22-rdf-syntax-ns#" xmlns="http://web.resource.org/cc/" xmlns:dc="http://purl.org/dc/elements/1.1/">
  <Work rdf:about="">
   <dc:title>Clipart by Nicu Buculei - fc23</dc:title>
   <dc:rights>
    <Agent>
     <dc:title>Nicu Buculei</dc:title>
    </Agent>
   </dc:rights>
   <dc:type rdf:resource="http://purl.org/dc/dcmitype/StillImage"/>
   <license rdf:resource="http://web.resource.org/cc/PublicDomain"/>
  </Work>
  <License rdf:about="http://web.resource.org/cc/PublicDomain">
   <permits rdf:resource="http://web.resource.org/cc/Reproduction"/>
   <permits rdf:resource="http://web.resource.org/cc/Distribution"/>
   <permits rdf:resource="http://web.resource.org/cc/DerivativeWorks"/>
  </License>
 </rdf:RDF>
</svg>
