<?xml version="1.0" encoding="UTF-8" standalone="no"?>
<!DOCTYPE svg PUBLIC "-//W3C//DTD SVG 20010904//EN" "http://www.w3.org/TR/2001/REC-SVG-20010904/DTD/svg10.dtd">
<svg xmlns="http://www.w3.org/2000/svg" xmlns:xlink="http://www.w3.org/1999/xlink" height="400pt" width="400pt">
 <path d="m264.62 111.06c-107.28 0-194.31 18.34-194.31 40.91-0.004 1.8 0.74 3.55 1.809 5.28 0.018 18.35 0.353 212.61 7.218 215.19 7.199 2.7 44.443 45.09 181.93 37.47 163.75 2.02 199.5-48.75 199.5-48.75l-1.81-209.19v-0.34h-0.09c-0.9-22.42-87.53-40.57-194.25-40.57z" fill-opacity=".25" fill-rule="evenodd" fill="#000000"/>
 <path stroke-linejoin="round" d="m426.28 378.05l-346.84 1.11c-0.002 0-84.072-22.22-80.716-124.04-12.616-85.48 57.566-108.64 62.041-113.12s366.64-4.5 366.64-4.5l-1.12 240.55z" fill-rule="evenodd" transform="matrix(-2.9543e-16 -.60412 1.6083 -1.1097e-16 -165.22 394.59)" stroke="#000000" stroke-width="10.145" fill="#ffffff"/>
 <path stroke-linejoin="round" d="m495.65 253.86a234.96 236.08 0 1 0 -469.92 0 234.96 236.08 0 1 0 469.92 0h-234.96z" transform="matrix(-8.5112e-17 -.17404 .82320 -5.6801e-17 39.477 182.77)" stroke="#000000" stroke-width="26.419" fill="none"/>
 <path d="m495.65 253.86a234.96 236.08 0 1 0 -469.92 0 234.96 236.08 0 1 0 469.92 0h-234.96z" fill-rule="evenodd" transform="matrix(-8.3001e-17 -.16973 .80796 -5.5749e-17 43.347 181.99)" stroke-width="3.75" fill="#ffffff"/>
 <rdf:RDF xmlns:rdf="http://www.w3.org/1999/02/22-rdf-syntax-ns#" xmlns="http://web.resource.org/cc/" xmlns:dc="http://purl.org/dc/elements/1.1/">
  <Work rdf:about="">
   <dc:title>Clipart by Nicu Buculei - fc23</dc:title>
   <dc:rights>
    <Agent>
     <dc:title>Nicu Buculei</dc:title>
    </Agent>
   </dc:rights>
   <dc:type rdf:resource="http://purl.org/dc/dcmitype/StillImage"/>
   <license rdf:resource="http://web.resource.org/cc/PublicDomain"/>
  </Work>
  <License rdf:about="http://web.resource.org/cc/PublicDomain">
   <permits rdf:resource="http://web.resource.org/cc/Reproduction"/>
   <permits rdf:resource="http://web.resource.org/cc/Distribution"/>
   <permits rdf:resource="http://web.resource.org/cc/DerivativeWorks"/>
  </License>
 </rdf:RDF>
</svg>
