<?xml version="1.0" encoding="UTF-8" standalone="no"?>
<!DOCTYPE svg  PUBLIC '-//W3C//DTD SVG 20010904//EN'  'http://www.w3.org/TR/2001/REC-SVG-20010904/DTD/svg10.dtd'>
<svg xmlns="http://www.w3.org/2000/svg" height="400pt" width="400pt" xmlns:xlink="http://www.w3.org/1999/xlink">
 <g fill-rule="evenodd">
  <path d="m495.65 253.86a234.96 236.08 0 1 0 -469.92 0 234.96 236.08 0 1 0 469.92 0h-234.96z" fill-opacity="0.25" transform="matrix(.99048 0 0 .99052 2.7415 12.253)" stroke-width="3.75"/>
  <path stroke-linejoin="round" d="m495.65 253.86a234.96 236.08 0 1 0 -469.92 0 234.96 236.08 0 1 0 469.92 0h-234.96z" transform="translate(-14.304 -7.9521)" stroke="#000000" stroke-width="10" fill="#ffffff"/>
  <path d="m495.65 253.86a234.96 236.08 0 1 0 -469.92 0 234.96 236.08 0 1 0 469.92 0h-234.96z" transform="matrix(.97326 0 0 .96996 -6.5242 -.32594)" stroke-width="3.75" fill="#ffffff"/>
 </g>
 <path stroke-linejoin="round" d="m74.347 87.495l335.76 328.56" transform="matrix(0.975 0 0 1.0292 4.9793 -10.111)" stroke="#000000" stroke-width="9.9827" fill="none"/>
 <path stroke-linejoin="round" d="m69.55 390.88c1.199-1.2 344.15-320.17 344.15-320.17" transform="matrix(1.0592 0 0 .91760 -10.592 35.443)" stroke="#000000" stroke-width="10.143" fill="none"/>
 <rdf:RDF xmlns:rdf="http://www.w3.org/1999/02/22-rdf-syntax-ns#" xmlns="http://web.resource.org/cc/" xmlns:dc="http://purl.org/dc/elements/1.1/">
  <Work rdf:about="">
   <dc:title>Clipart by Nicu Buculei - fc23</dc:title>
   <dc:rights>
    <Agent>
     <dc:title>Nicu Buculei</dc:title>
    </Agent>
   </dc:rights>
   <dc:type rdf:resource="http://purl.org/dc/dcmitype/StillImage"/>
   <license rdf:resource="http://web.resource.org/cc/PublicDomain"/>
  </Work>
  <License rdf:about="http://web.resource.org/cc/PublicDomain">
   <permits rdf:resource="http://web.resource.org/cc/Reproduction"/>
   <permits rdf:resource="http://web.resource.org/cc/Distribution"/>
   <permits rdf:resource="http://web.resource.org/cc/DerivativeWorks"/>
  </License>
 </rdf:RDF>
</svg>
