<?xml version="1.0" encoding="UTF-8" standalone="no"?>
<!DOCTYPE svg  PUBLIC '-//W3C//DTD SVG 20010904//EN'  'http://www.w3.org/TR/2001/REC-SVG-20010904/DTD/svg10.dtd'>
<svg xmlns="http://www.w3.org/2000/svg" height="400pt" width="400pt" xmlns:xlink="http://www.w3.org/1999/xlink">
 <g fill-rule="evenodd">
  <path d="m55.391 96.699l394.08 1.948s38.81 57.463 36.85 159.73c0.07 112.99-34.89 176.3-34.89 176.3l-395.06 1.95c0.003 0-2.117-180.19-2.209-178.25 0.023-0.97 0.247-160.71 1.23-161.68z" fill-opacity=".25"/>
  <path stroke-linejoin="round" d="m51.622 56.827l390.58 1.948s38.47 57.465 36.52 159.74c0.07 112.98-34.57 176.29-34.57 176.29l-391.55 1.95c-0.004 0-2.105-180.2-2.196-178.25 0.023-0.97 0.244-160.71 1.218-161.68z" transform="matrix(1.009 0 0 1 -12.876 20.454)" stroke="#000000" stroke-width="9.9555" fill="#ffffff"/>
 </g>
 <rdf:RDF xmlns:rdf="http://www.w3.org/1999/02/22-rdf-syntax-ns#" xmlns="http://web.resource.org/cc/" xmlns:dc="http://purl.org/dc/elements/1.1/">
  <Work rdf:about="">
   <dc:title>Clipart by Nicu Buculei - fc23</dc:title>
   <dc:rights>
    <Agent>
     <dc:title>Nicu Buculei</dc:title>
    </Agent>
   </dc:rights>
   <dc:type rdf:resource="http://purl.org/dc/dcmitype/StillImage"/>
   <license rdf:resource="http://web.resource.org/cc/PublicDomain"/>
  </Work>
  <License rdf:about="http://web.resource.org/cc/PublicDomain">
   <permits rdf:resource="http://web.resource.org/cc/Reproduction"/>
   <permits rdf:resource="http://web.resource.org/cc/Distribution"/>
   <permits rdf:resource="http://web.resource.org/cc/DerivativeWorks"/>
  </License>
 </rdf:RDF>
</svg>
