<?xml version="1.0" encoding="UTF-8" standalone="no"?>
<!DOCTYPE svg  PUBLIC '-//W3C//DTD SVG 20010904//EN'  'http://www.w3.org/TR/2001/REC-SVG-20010904/DTD/svg10.dtd'>
<svg xmlns="http://www.w3.org/2000/svg" height="400pt" width="400pt" xmlns:xlink="http://www.w3.org/1999/xlink">
 <g fill-rule="evenodd">
  <path d="m59.367 90.525l1.948 266.88s78.895 53.57 220.12 39.94c128.57 10.71 150.97 13.63 187.98 46.75 0.98 0.97 0.98-249.35 0.98-249.35s-71.1-37.98-183.11-37.01c-112.02 0.98-112.02 10.72-227.92-67.205z" fill-opacity=".25"/>
  <path stroke-linejoin="round" d="m33.116 74.359l1.948 266.88s78.896 53.57 220.13 39.93c128.57 10.71 150.97 13.64 187.98 46.75 0.98 0.98 0.98-249.34 0.98-249.34s-71.11-37.99-183.12-37.02c-112.01 0.98-112.01 10.72-227.91-67.201z" transform="translate(11.688 -4.87)" stroke="#000000" stroke-width="10" fill="#ffffff"/>
 </g>
 <rdf:RDF xmlns:rdf="http://www.w3.org/1999/02/22-rdf-syntax-ns#" xmlns="http://web.resource.org/cc/" xmlns:dc="http://purl.org/dc/elements/1.1/">
  <Work rdf:about="">
   <dc:title>Clipart by Nicu Buculei - fc23</dc:title>
   <dc:rights>
    <Agent>
     <dc:title>Nicu Buculei</dc:title>
    </Agent>
   </dc:rights>
   <dc:type rdf:resource="http://purl.org/dc/dcmitype/StillImage"/>
   <license rdf:resource="http://web.resource.org/cc/PublicDomain"/>
  </Work>
  <License rdf:about="http://web.resource.org/cc/PublicDomain">
   <permits rdf:resource="http://web.resource.org/cc/Reproduction"/>
   <permits rdf:resource="http://web.resource.org/cc/Distribution"/>
   <permits rdf:resource="http://web.resource.org/cc/DerivativeWorks"/>
  </License>
 </rdf:RDF>
</svg>
