<?xml version="1.0" encoding="UTF-8" standalone="no"?>
<svg xmlns:rdf="http://www.w3.org/1999/02/22-rdf-syntax-ns#" xmlns="http://www.w3.org/2000/svg" sodipodi:docname="smoke2.svg" xmlns:sodipodi="http://inkscape.sourceforge.net/DTD/sodipodi-0.dtd" height="128px" sodipodi:version="0.32" width="128px" xmlns:cc="http://web.resource.org/cc/" xmlns:xlink="http://www.w3.org/1999/xlink" sodipodi:docbase="/home/nicu/Desktop/hats" xmlns:dc="http://purl.org/dc/elements/1.1/">
 <sodipodi:namedview bordercolor="#666666" pagecolor="#ffffff" borderopacity="1.0" showguides="true"/>
 <g fill-rule="evenodd" transform="matrix(2.0528 0 0 2.0528 -730.58 -1072.3)">
  <g transform="translate(92.125 25.225)">
   <path d="m273.9 540.83s11.31-13.28 12.29-14.15 3.49-3.7 5.88-3.7 14.8-1.3 15.34-0.43c0.55 0.87 1.09 2.83 1.42 4.02 0.32 1.2 1.19 3.92 0.32 4.36-0.87 0.43-11.42 0.11-11.75 0.54-0.32 0.44-7.62 9.47-7.83 10.45-0.22 0.98-3.92 6.96-4.46 6.42-0.55-0.55-11.54-5.88-11.21-7.51z" fill="#ffffff"/>
   <path d="m307.2 522.66s1.52 2.83 1.74 4.24c0.21 1.42 0 4.03-0.33 4.46-0.33 0.44 12.08 2.18 12.84 1.96s1.52-1.3 1.63-2.28-0.43-2.07-0.32-4.03-0.77-4.68-2.51-4.68-13.27 0-13.05 0.33z" fill="#cc9900"/>
   <path d="m302.01 522.13c-3.92 0.16-7.85 0.3-11.75 0.79-2.01 0.7-3.14 2.71-4.69 4.07-4.26 4.59-8.28 9.4-12.33 14.17-0.18 3.54 2.61 6.61 5.9 7.54 2.12 0.69 4.59 1.17 6.71 0.27 1.09-1.52 1.83-3.31 2.94-4.87 2.42-3.87 4.96-7.67 7.69-11.34 1.37-1.61 4.56-1.12 6.82-1 6.1 0.26 12.11 1.61 18.22 1.79 2.18-0.39 2.15-3.08 1.83-4.77-0.49-2.11 0.68-5.3-1.76-6.43-2.48-0.79-5.14-0.33-7.7-0.47-2.32 0.01-10.34 0.05-11.88 0.25zm9.88 0.62c2.89 0.03 5.81-0.11 8.69 0.19 2.7 0.61 1.38 4.04 1.9 6 0.64 1.97-0.3 4.61-2.78 3.67-3.52-0.28-7.01-0.79-10.52-1.2 1.28-1.98-0.22-4.29-0.42-6.38-0.24-1.2-1.9-2.64 0.23-2.23 0.97-0.02 1.93-0.04 2.9-0.05zm-5.35 0.11c1.73 1.76 1.77 4.45 2.27 6.74 0.12 2.24-2.55 1.51-4.02 1.38-2.25-0.16-4.51-0.32-6.76-0.1 0.18-1.6 0.43-4.45-1.6-4.88 2.07 2.15 1.04 6.69-0.35 4.65-0.72-1.51-2.85-1.64-4.63-0.93 2.13-0.1 4.17-0.03 4.31 2.45-3.44 4.84-6.8 9.76-9.78 14.91-0.43 0.51-3.24-5.28-8.08-5.9-1-0.43-4.64 0.49-2.43-1.28 4.6-5.35 9.02-10.89 14.17-15.73 1.83-1.02 4.06-0.53 6.07-0.86 3.61-0.2 7.22-0.35 10.83-0.45z" sodipodi:nodetypes="cccccccccccccccccccccccccccccccccccc"/>
   <path d="m274.36 542.05l0.88 2.83 0.71-1.77 0.35 3 3.18 2.13-1.94-2.3 4.07 0.7-0.71 1.6 4.06 0.53-3.53-4.95-0.71 1.23-2.83-0.35 1.77-1.24-5.3-1.41z" fill="#ff0000"/>
  </g>
  <path d="m363.9 536.16c-2.42 1.92-9.03 12.12-2.37 18.96 12.71 10.46 4.49 9.2 10 20.76 7.42-2.34 9.43-8.2 7.34-16.92-1.7-12.97-10.11-6.95-14.97-22.8z" fill-opacity=".082353" sodipodi:nodetypes="ccccc"/>
  <path d="m363.47 539.85c-2.12 1.69-5.4 9.02 0.46 15.04 11.17 9.19 3.58 8.99 8.42 19.16 5.45-2.96 5.22-7.94 3.93-15.97-1.5-11.4-8.53-4.3-12.81-18.23z" fill-opacity=".082353" sodipodi:nodetypes="ccccc"/>
 </g>
</svg>
