<?xml version="1.0" encoding="UTF-8" standalone="no"?>
<svg xmlns:rdf="http://www.w3.org/1999/02/22-rdf-syntax-ns#" xmlns="http://www.w3.org/2000/svg" sodipodi:docname="smoke3.svg" xmlns:sodipodi="http://inkscape.sourceforge.net/DTD/sodipodi-0.dtd" height="128px" sodipodi:version="0.32" width="128px" xmlns:cc="http://web.resource.org/cc/" xmlns:xlink="http://www.w3.org/1999/xlink" sodipodi:docbase="/home/nicu/Desktop/hats" xmlns:dc="http://purl.org/dc/elements/1.1/">
 <sodipodi:namedview bordercolor="#666666" pagecolor="#ffffff" borderopacity="1.0" showguides="true"/>
 <g fill-rule="evenodd" transform="matrix(2.228 0 0 2.228 -466.14 -1152.1)">
  <path d="m234.27 547.83c-3.84 1.59-7.31 5.45-6.96 9.78 0.33 4.29 2.41 7.72 5.88 10.24 3.41 1.14 7.22-0.35 10.71-0.26 5.4-0.34 9.73-0.63 14.73-2.96 2.92-1.62 4.39-3.19 4.86-6.62-0.17-3.02-1.28-3.42-3.31-5.3-1.93-1.7-4.27-3.24-6.83-3.17-6.7-0.7-12.35-1.48-19.08-1.71z" sodipodi:nodetypes="ccccccccc" fill="#999933"/>
  <g>
   <path d="m232 567.71s4.14-8.49 4.14-10.01c13.93 1.08 5.66 8.48 23.5 5.87-4.79 3.27-20.24 4.57-27.64 4.14z" sodipodi:nodetypes="cccc" fill-opacity=".082353"/>
   <path d="m232.51 547.37c-3.84 1.59-7.32 5.45-6.96 9.78 0.33 4.28 2.62 9.24 6.09 11.76 3.41 1.14 7.22-0.79 10.71-0.7 5.41-0.34 11.04-0.41 16.04-2.74 2.92-1.61 5.69-4.27 6.16-7.71-0.16-3.01-2.8-4.94-4.83-6.82-1.92-1.7-4.49-2.59-7.04-2.51-6.7-0.71-13.45-0.83-20.17-1.06zm0.75 1.51c7.89 0.32 14.95-0.79 22.98 1.79 3.04 1.23 4.07 2.64 6.03 5.19 0.99 1.75 0.52 3.78-0.8 5.23-2.78 3.96-7.03 5.01-11.74 5.16-5.75 0.71-9.8 1.27-15.59 1.16 2.22-3.8 3.75-6.79 2.68-10.45-0.85-3.78-0.92-2.42-1.63-5.43-0.89-2.16-2.61-2.32-1.93-2.65z" sodipodi:nodetypes="cccccccccccccccccc"/>
   <path d="m231.89 567.67s3.7-6.75 3.7-8.27c11.54 0.65 4.57 8.27 22.42 5.66-4.79 3.26-18.72 3.04-26.12 2.61z" sodipodi:nodetypes="cccc" fill-opacity=".082353"/>
  </g>
  <path d="m231.13 550.08l-3.48 3.48 3.48 1.31-3.7 2.83 4.35 0.43 0.22 1.96-3.48-1.09 0.22 3.05 2.17 4.13-0.21-3.26 3.26-1.96-1.74 4.57 2.83-3.26s1.3-4.14 0.43-4.36c-0.87-0.21-2.61 1.09-2.61 1.09l0.87-5.22-0.43-2.61-1.31 2.61-0.87-3.7z" fill="#ff0000"/>
  <g fill-opacity=".082353">
   <path d="m217.09 519.6c-2.42 1.92-9.02 12.11-2.37 18.96 12.71 10.45 4.5 9.19 10 20.76 7.42-2.34 9.44-8.21 7.35-16.92-1.71-12.97-10.11-6.95-14.98-22.8z" sodipodi:nodetypes="ccccc"/>
   <path d="m216.67 523.28c-2.13 1.69-5.4 9.02 0.45 15.04 11.17 9.2 3.59 8.99 8.43 19.17 5.44-2.97 5.22-7.94 3.92-15.97-1.49-11.41-8.52-4.3-12.8-18.24z" sodipodi:nodetypes="ccccc"/>
   <path d="m242.09 531.14c1.63 1.29 6.07 8.15 1.6 12.75-8.55 7.04-3.03 6.19-6.73 13.97-4.99-1.57-6.35-5.52-4.94-11.38 1.14-8.73 6.8-4.68 10.07-15.34z" sodipodi:nodetypes="ccccc"/>
   <path d="m242.38 533.62c1.43 1.13 3.63 6.07-0.31 10.12-7.51 6.18-2.41 6.04-5.67 12.89-3.66-2-3.51-5.35-2.64-10.74 1.01-7.68 5.74-2.9 8.62-12.27z" sodipodi:nodetypes="ccccc"/>
  </g>
 </g>
</svg>
