<?xml version="1.0" encoding="UTF-8" standalone="no"?>
<!DOCTYPE svg  PUBLIC '-//W3C//DTD SVG 20010904//EN'  'http://www.w3.org/TR/2001/REC-SVG-20010904/DTD/svg10.dtd'>
<svg xmlns="http://www.w3.org/2000/svg" height="80pt" width="80pt" xmlns:xlink="http://www.w3.org/1999/xlink">
 <g stroke-linejoin="round" fill-rule="evenodd" transform="matrix(.21311 0 0 .21448 -49.773 1.7799)" stroke="#000000" stroke-width="5.8467">
  <path d="m241.25 100.2c22.75-9.143 131.96-68.225 134-84.512 39.7 30.538 109.61 141.85 108.59 160.17-22.39-27.48-123.49-85.842-242.59-75.66z" fill="#006600"/>
  <path d="m262.63 229.47c36.64-24.43 143.49-65.57 221.22-55.62-73.29-67.19-188.65-79.76-243.62-73.65 11.2 14.25 30.54 87.54 22.4 129.27z" fill="#cc6600"/>
  <path d="m375.56 15.321c34.81 16.999 163.67 51.471 216.21 56.018-23.41 16.287-78.73 75.681-110.29 102.15 3.05-21.38-73.31-130-105.92-158.17z" fill="#cccc00"/>
  <path d="m479.44 174.51c9.17-2.04 85.51-85.51 112.99-102.81 11.2 17.3 85.14 127.87 105.5 161.46-57.66-62.68-153.34-64.76-218.49-58.65z" fill="#0000000a8"/>
  <path d="m367.47 331.27c31.56-54.97 105.5-134.75 114.7-157.12-69.22-7.13-146.93 14.3-219.54 55.33 33.59 30.54 97.72 82.45 104.84 101.79z" fill="#0000000a8"/>
  <path d="m367.49 331.29c31.56-4.07 84.7-2.94 142.49 23.39 3.06 13.23-5.42-163.91-26.8-180.19-31.56 45.8-101.14 125.55-115.69 156.8z" fill="#cccc00"/>
  <path d="m485.55 173.49c74.31 22.39 138.44 122.15 158.8 177.12-20.36-5.09-117.07-6.12-133.36 5.08-2.04-10.18-1.01-134.36-25.44-182.2z" fill="#006600"/>
  <path d="m481.48 172.47c23.41 6.11 142.51-18.32 216.82 61.08-13.54 10.93-50.64 87.21-53.95 117.37-14.25-44.79-82.45-158.09-162.87-178.45z" fill="#cc6600"/>
  <path d="m493.75 168.75c-5.19-4.62-16.59-8.91-22.57-1.22-1.88 9.52 4.53 12.65 11.5 16.85 9.8-0.46 13.86-7.97 11.07-15.63z" fill="#333333"/>
  <path d="m478.75 171.25c-137.5 243.75-129.37 245.63-141.25 253.13-16.88 0.62-9.38-20-5-28.13-1.25-10-17.5-6.25-17.5 5.63-4.38 28.74 8.12 45.62 29.38 38.74 11.24-1.24 133.12-245.62 142.5-265.62-0.63-5-3.76-7.5-8.13-3.75z" fill="#333333"/>
 </g>
 <rdf:RDF xmlns:rdf="http://www.w3.org/1999/02/22-rdf-syntax-ns#" xmlns="http://web.resource.org/cc/" xmlns:dc="http://purl.org/dc/elements/1.1/">
  <Work rdf:about="">
   <dc:title>Clipart by Nicu Buculei - bee</dc:title>
   <dc:rights>
    <Agent>
     <dc:title>Nicu Buculei</dc:title>
    </Agent>
   </dc:rights>
   <dc:type rdf:resource="http://purl.org/dc/dcmitype/StillImage"/>
   <license rdf:resource="http://web.resource.org/cc/PublicDomain"/>
  </Work>
  <License rdf:about="http://web.resource.org/cc/PublicDomain">
   <permits rdf:resource="http://web.resource.org/cc/Reproduction"/>
   <permits rdf:resource="http://web.resource.org/cc/Distribution"/>
   <permits rdf:resource="http://web.resource.org/cc/DerivativeWorks"/>
  </License>
 </rdf:RDF>
</svg>
