<?xml version="1.0" standalone="no"?>
<!DOCTYPE svg PUBLIC "-//W3C//DTD SVG 1.1//EN" "http://www.w3.org/Graphics/SVG/1.1/DTD/svg11.dtd" >
<svg xmlns="http://www.w3.org/2000/svg">
<metadata></metadata>
<defs>
<font id="archivo_blackregular" horiz-adv-x="667" >
<font-face units-per-em="1000" ascent="800" descent="-200" />
<missing-glyph horiz-adv-x="333" />
<glyph horiz-adv-x="1000" />
<glyph horiz-adv-x="1000" />
<glyph horiz-adv-x="333" />
<glyph unicode="&#xd;" horiz-adv-x="333" />
<glyph unicode=" "  horiz-adv-x="333" />
<glyph unicode="&#x09;" horiz-adv-x="333" />
<glyph unicode="&#xa0;" horiz-adv-x="333" />
<glyph unicode="!" horiz-adv-x="333" d="M47 688h239l-57 -442h-127zM67 0v185h198v-185h-198z" />
<glyph unicode="&#x22;" horiz-adv-x="500" d="M59 541v147h163v-147l-47 -143h-69zM278 541v147h163v-147l-48 -143h-68z" />
<glyph unicode="#" horiz-adv-x="660" d="M20 159v109h126l28 123h-108v111h130l44 198h122l-45 -198h111l44 198h120l-46 -198h93v-111h-113l-26 -123h106v-109h-134l-37 -170h-117l37 170h-115l-36 -170h-120l36 170h-100zM265 267h114l29 123h-116z" />
<glyph unicode="$" d="M69 253h185v-4q1 -34 28.5 -47.5t58.5 -13.5q83 0 83 39q0 21 -35 32t-85.5 18.5t-100.5 21t-85 49.5t-35 94q0 158 208 176l-7 138h113l-8 -137q92 -7 152 -48.5t60 -119.5h-185q-1 28 -22.5 39.5t-48.5 11.5q-72 0 -72 -34q0 -20 35 -30t85 -16.5t100.5 -19.5 t85.5 -49.5t35 -96.5q0 -170 -225 -186l8 -137h-113l7 138q-96 10 -159 55.5t-63 126.5z" />
<glyph unicode="%" horiz-adv-x="1000" d="M46 520q0 85 45 132.5t139 47.5t138.5 -47.5t44.5 -132.5q0 -83 -44.5 -130.5t-138.5 -47.5t-139 47.5t-45 130.5zM170 505q0 -87 60 -87q59 0 59 87v32q0 87 -59 87q-60 0 -60 -87v-32zM231 0l419 687h109l-417 -687h-111zM578 166q0 85 45 132.5t139 47.5t138.5 -47.5 t44.5 -132.5q0 -83 -44.5 -130.5t-138.5 -47.5t-139 47.5t-45 130.5zM702 151q0 -87 60 -87q59 0 59 87v32q0 87 -59 87q-60 0 -60 -87v-32z" />
<glyph unicode="&#x26;" horiz-adv-x="889" d="M75 192q0 60 31.5 103.5t88.5 61.5v4q-43 16 -71.5 55t-28.5 87q0 84 84 140.5t238 56.5q153 0 242.5 -54t89.5 -134v-25h-177q0 31 -36.5 51.5t-105.5 20.5q-64 0 -97.5 -24.5t-33.5 -59.5q0 -31 20.5 -47t50.5 -16h104v-123h-126q-31 0 -50.5 -18.5t-19.5 -53.5 q0 -88 144 -88q150 0 150 89v194h316v-123h-137v-67q0 -234 -328 -234q-174 0 -261 56t-87 148z" />
<glyph unicode="'" horiz-adv-x="278" d="M57 541v147h163v-147l-48 -143h-68z" />
<glyph unicode="(" horiz-adv-x="389" d="M55 288q0 123 47 240t133 209h120q-59 -92 -96 -217.5t-37 -231.5q0 -107 37 -231.5t96 -216.5h-120q-86 92 -133 209t-47 239z" />
<glyph unicode=")" horiz-adv-x="389" d="M34 -160q59 92 96 216.5t37 231.5q0 106 -37 231.5t-96 217.5h120q86 -92 133 -209t47 -240q0 -122 -47 -239t-133 -209h-120z" />
<glyph unicode="*" horiz-adv-x="556" d="M95 454l112 51l-112 52l47 80l101 -71l-12 122h93l-12 -121l101 70l47 -80l-112 -52l112 -51l-47 -81l-101 71l12 -122h-93l12 122l-101 -71z" />
<glyph unicode="+" horiz-adv-x="660" d="M66 198v132h198v198h132v-198h198v-132h-198v-198h-132v198h-198z" />
<glyph unicode="," horiz-adv-x="333" d="M60 -183l82 183h-81v199h212v-188l-105 -194h-108z" />
<glyph unicode="-" horiz-adv-x="333" d="M39 196v158h255v-158h-255z" />
<glyph unicode="." horiz-adv-x="333" d="M61 0v199h212v-199h-212z" />
<glyph unicode="/" horiz-adv-x="278" d="M-2 -48l160 784h121l-159 -784h-122z" />
<glyph unicode="0" d="M41 344q0 84 14 146t46.5 111t91 74t141.5 25q161 0 226.5 -91.5t65.5 -264.5t-65.5 -264.5t-226.5 -91.5q-83 0 -141.5 25t-91 74t-46.5 111t-14 146zM238 295q0 -92 22 -132t74 -40t73 40t21 132v99q0 92 -21 131.5t-73 39.5t-74 -40t-22 -131v-99z" />
<glyph unicode="1" d="M105 0v154h163v311h-163v116q67 4 150 35.5t145 72.5h67v-535h157v-154h-519z" />
<glyph unicode="2" d="M49 0v48q0 92 96 178q47 41 106 88.5t88.5 71t51.5 50.5t22 50q0 31 -21.5 52t-64.5 21q-45 0 -71 -26t-26 -68v-20h-178q-1 8 -1 22q0 108 75.5 170.5t219.5 62.5q122 0 193.5 -56.5t71.5 -150.5q0 -36 -13 -69.5t-30 -57.5t-51.5 -53.5t-58.5 -46.5t-70.5 -48.5 t-69.5 -48.5h301v-169h-570z" />
<glyph unicode="3" d="M42 186v21h176q0 -82 104 -82t104 92q0 35 -19.5 53.5t-50.5 18.5h-73v123h57q31 0 50.5 18.5t19.5 53.5q0 33 -23.5 56t-64.5 23q-43 0 -67 -22t-24 -54h-167v25q0 80 73.5 134t201.5 54q123 0 194.5 -53.5t71.5 -133.5q0 -52 -28 -93.5t-72 -58.5v-4q57 -18 88.5 -62.5 t31.5 -107.5q-4 -88 -76.5 -143.5t-213.5 -55.5q-144 0 -218.5 55.5t-74.5 142.5z" />
<glyph unicode="4" d="M23 141v149q54 78 107 189t85 221h196q-11 -77 -91.5 -204.5t-159.5 -207.5h198v143q85 123 105 203h85v-346h96v-147h-96v-141h-190v141h-335z" />
<glyph unicode="5" d="M39 222h176q0 -41 28 -68.5t79 -27.5t78.5 28.5t27.5 73.5q0 46 -27.5 74.5t-77.5 28.5q-16 0 -29.5 -3t-22.5 -7t-17 -10.5t-12 -10.5t-9 -11t-6 -8l-158 22l29 385h476v-170h-327l-8 -104q6 5 17.5 12.5t50 20t79.5 12.5q110 0 174.5 -62.5t64.5 -171.5 q0 -101 -77.5 -169t-204.5 -68q-147 0 -225.5 63t-78.5 171z" />
<glyph unicode="6" d="M41 327q0 197 72.5 285t225.5 88q125 0 200 -60.5t75 -171.5h-178v7q0 39 -24 64.5t-70 25.5q-47 0 -73.5 -32.5t-26.5 -87.5v-58q58 52 145 52q106 0 175 -56t69 -155q0 -114 -78.5 -177t-213.5 -63q-151 0 -224.5 82.5t-73.5 256.5zM242 221q0 -47 25 -72.5t72 -25.5 q48 0 73.5 24.5t25.5 71.5t-25.5 73.5t-72.5 26.5t-72.5 -25.5t-25.5 -72.5z" />
<glyph unicode="7" d="M45 516v172h580v-91q-114 -141 -179.5 -270t-65.5 -268v-59h-222q0 263 217 516h-330z" />
<glyph unicode="8" d="M41 189q0 57 27 92.5t82 66.5v4q-42 30 -63 61t-21 84q0 95 75.5 149t190.5 54q116 0 192 -54t76 -149q0 -53 -21 -84t-63 -61v-4q55 -31 82.5 -66.5t27.5 -92.5q0 -97 -79 -149t-215 -52t-213.5 52t-77.5 149zM240 205q0 -39 25 -60.5t67 -21.5t68.5 21.5t26.5 60.5 t-27.5 60.5t-67.5 21.5q-39 0 -65.5 -21.5t-26.5 -60.5zM240 489q0 -38 25.5 -56.5t66.5 -18.5t68 18.5t27 56.5q0 39 -26 57.5t-69 18.5q-92 0 -92 -76z" />
<glyph unicode="9" d="M36 460q0 114 78.5 177t213.5 63q151 0 224.5 -82.5t73.5 -256.5q0 -197 -72.5 -285t-225.5 -88q-125 0 -200 60.5t-75 171.5h178v-7q0 -39 24 -64.5t70 -25.5q47 0 73.5 32.5t26.5 87.5v58q-58 -52 -145 -52q-106 0 -175 56t-69 155zM229 467q0 -47 25 -72.5t72 -25.5 q48 0 73.5 24.5t25.5 71.5t-25.5 73.5t-72.5 26.5t-72.5 -25.5t-25.5 -72.5z" />
<glyph unicode=":" horiz-adv-x="333" d="M61 0v199h212v-199h-212zM61 328v200h212v-200h-212z" />
<glyph unicode=";" horiz-adv-x="333" d="M60 -183l82 183h-81v199h212v-188l-105 -194h-108zM61 328v200h212v-200h-212z" />
<glyph unicode="&#x3c;" horiz-adv-x="660" d="M67 189v143l525 203v-143l-359 -132l359 -131v-142z" />
<glyph unicode="=" horiz-adv-x="660" d="M66 85v132h528v-132h-528zM66 311v132h528v-132h-528z" />
<glyph unicode="&#x3e;" horiz-adv-x="660" d="M68 -13v142l359 131l-359 132v143l525 -203v-143z" />
<glyph unicode="?" horiz-adv-x="611" d="M37 489q0 96 76.5 153.5t196.5 57.5q115 0 185.5 -55.5t70.5 -148.5q0 -38 -17.5 -70.5t-43 -54t-50.5 -39.5t-42.5 -34.5t-17.5 -30.5v-21h-171v50q0 24 20.5 50t44.5 45t44.5 46.5t20.5 54.5q0 29 -18 49.5t-48 20.5q-65 0 -65 -84q0 -18 1 -27h-184q0 4 -1 12t-1.5 14 t-0.5 12zM212 0v185h198v-185h-198z" />
<glyph unicode="@" horiz-adv-x="740" d="M20 266q0 225 98 329.5t263 104.5q155 0 247 -92.5t92 -284.5q0 -143 -51.5 -207.5t-122.5 -64.5q-77 0 -109 53q-57 -53 -134 -53q-142 0 -142 114q0 85 61.5 114.5t197.5 29.5v20q0 23 -13.5 36t-34.5 13q-50 0 -50 -39h-149q-1 4 -1 10q0 57 52.5 91t149.5 34 q88 0 143.5 -31t55.5 -100v-159q0 -30 29 -30q5 0 10.5 3t13 13.5t13 28t9.5 50t4 75.5q0 161 -73 238t-199 77q-292 0 -292 -374q0 -353 262 -353q32 0 77 9.5t68 22.5v-66q-26 -11 -70.5 -19t-74.5 -8q-158 0 -244 102t-86 313zM312 184q0 -39 42 -39q27 0 46.5 16.5 t19.5 40.5v34q-108 0 -108 -52z" />
<glyph unicode="A" horiz-adv-x="778" d="M10 0l251 688h257l251 -688h-234l-29 97h-241l-29 -97h-226zM311 251h149l-72 245h-4z" />
<glyph unicode="B" horiz-adv-x="778" d="M74 0v688h458q79 0 134.5 -48t55.5 -121q0 -127 -115 -160v-4q131 -30 131 -172q0 -81 -57.5 -132t-142.5 -51h-464zM295 160h168q22 0 36.5 15.5t14.5 38.5v10q0 23 -14.5 38.5t-36.5 15.5h-168v-118zM295 420h152q22 0 36.5 15.5t14.5 38.5v10q0 22 -15 37.5t-36 15.5 h-152v-117z" />
<glyph unicode="C" horiz-adv-x="778" d="M45 344q0 176 90.5 266t266.5 90q153 0 242 -76.5t89 -218.5h-211q0 60 -31.5 95t-89.5 35q-130 0 -130 -159v-64q0 -74 31.5 -116.5t96.5 -42.5q64 0 97 33t33 93h204q0 -141 -86.5 -216t-244.5 -75q-176 0 -266.5 90t-90.5 266z" />
<glyph unicode="D" horiz-adv-x="778" d="M74 0v688h298q361 0 361 -344t-361 -344h-298zM295 165h73q139 0 139 149v60q0 149 -139 149h-73v-358z" />
<glyph unicode="E" horiz-adv-x="722" d="M74 0v688h595v-165h-374v-95h320v-158h-320v-105h381v-165h-602z" />
<glyph unicode="F" d="M74 0v688h556v-165h-335v-118h288v-158h-288v-247h-221z" />
<glyph unicode="G" horiz-adv-x="833" d="M45 344q0 175 97.5 265.5t277.5 90.5q152 0 251 -68t99 -193h-211q0 43 -38 69.5t-92 26.5q-78 0 -118 -41.5t-40 -117.5v-64q0 -76 40 -117.5t118 -41.5q54 0 92 25.5t38 65.5h-156v140h367v-384h-114l-22 68q-94 -80 -246 -80q-343 0 -343 356z" />
<glyph unicode="H" horiz-adv-x="833" d="M74 0v688h221v-251h243v251h221v-688h-221v261h-243v-261h-221z" />
<glyph unicode="I" horiz-adv-x="389" d="M84 0v688h221v-688h-221z" />
<glyph unicode="J" d="M23 239v9h207v-8q0 -47 17.5 -67t53.5 -20t53.5 20t17.5 67v448h221v-449q0 -251 -285 -251t-285 251z" />
<glyph unicode="K" horiz-adv-x="833" d="M74 0v688h221v-294l245 294h274l-247 -283l252 -405h-261l-143 252l-120 -98v-154h-221z" />
<glyph unicode="L" d="M74 0v688h221v-512h353v-176h-574z" />
<glyph unicode="M" horiz-adv-x="944" d="M60 0v688h312l104 -397h4l103 397h301v-688h-219v248q0 46 4 100.5t8 85.5l4 32h-4l-127 -466h-173l-128 465h-4q18 -113 18 -217v-248h-203z" />
<glyph unicode="N" horiz-adv-x="833" d="M74 0v688h193l289 -339v339h203v-688h-193l-289 334v-334h-203z" />
<glyph unicode="O" horiz-adv-x="833" d="M45 344q0 175 96.5 265.5t274.5 90.5t275 -91t97 -265t-97 -265t-275 -91t-274.5 90.5t-96.5 265.5zM271 312q0 -73 37 -116t108 -43t108.5 43t37.5 116v64q0 73 -37.5 116t-108.5 43t-108 -43t-37 -116v-64z" />
<glyph unicode="P" horiz-adv-x="722" d="M74 0v688h386q97 0 158.5 -64t61.5 -162v-13q0 -98 -61.5 -162.5t-158.5 -64.5h-165v-222h-221zM295 383h91q70 0 70 67v8q0 67 -70 67h-91v-142z" />
<glyph unicode="Q" horiz-adv-x="833" d="M45 344q0 175 96.5 265.5t274.5 90.5t275 -91t97 -265q0 -232 -170 -316l157 -159h-263l-106 119q-174 3 -267.5 93.5t-93.5 262.5zM271 312q0 -73 37 -116t108 -43t108.5 43t37.5 116v64q0 73 -37.5 116t-108.5 43t-108 -43t-37 -116v-64z" />
<glyph unicode="R" horiz-adv-x="778" d="M74 0v688h421q110 0 171 -61t61 -150q0 -63 -34 -114t-99 -75l153 -288h-248l-122 251h-82v-251h-221zM295 404h145q26 0 44 18.5t18 45.5t-18 45t-44 18h-145v-127z" />
<glyph unicode="S" horiz-adv-x="722" d="M43 233h209q0 -52 27 -69.5t84 -17.5q97 0 97 46q0 20 -22.5 33t-58 21t-79 16.5t-87 23.5t-79 37t-58 62t-22.5 95q0 58 25 101.5t69 69t97.5 37.5t117.5 12q132 0 217 -53.5t87 -158.5v-12h-207v4q0 30 -22 50t-67 20q-44 0 -67.5 -13t-23.5 -32q0 -21 22 -34.5 t57.5 -21.5t78.5 -16t86 -22t79 -34.5t59 -58.5t24 -90q0 -122 -82.5 -181t-220.5 -59q-77 0 -135 11t-106.5 37.5t-73.5 76t-25 120.5z" />
<glyph unicode="T" horiz-adv-x="722" d="M23 512v176h672v-176h-225v-512h-221v512h-226z" />
<glyph unicode="U" horiz-adv-x="833" d="M74 277v411h221v-408q0 -58 31 -92.5t90 -34.5t90.5 35t31.5 92v408h221v-411q0 -141 -89 -215t-253 -74t-253.5 74t-89.5 215z" />
<glyph unicode="V" horiz-adv-x="778" d="M17 688h236l138 -460h4l139 460h226l-243 -688h-256z" />
<glyph unicode="W" horiz-adv-x="1000" d="M5 688h230l79 -390h4l78 390h218l83 -390h4l74 390h220l-161 -688h-243l-89 419h-4l-89 -419h-243z" />
<glyph unicode="X" horiz-adv-x="778" d="M4 0l246 364l-222 324h267l104 -176h4l105 176h247l-223 -325l246 -363h-268l-127 214h-4l-127 -214h-248z" />
<glyph unicode="Y" horiz-adv-x="778" d="M7 688h254l132 -229h4l132 229h241l-269 -421v-267h-221v267z" />
<glyph unicode="Z" horiz-adv-x="722" d="M24 0v71l319 452h-295v165h635v-71l-319 -452h327v-165h-667z" />
<glyph unicode="[" horiz-adv-x="389" d="M66 -160v897h273v-103h-114v-691h114v-103h-273z" />
<glyph unicode="\" horiz-adv-x="278" d="M-2 736h121l160 -784h-122z" />
<glyph unicode="]" horiz-adv-x="389" d="M66 -57h114v691h-114v103h273v-897h-273v103z" />
<glyph unicode="^" horiz-adv-x="660" d="M55 337l203 351h143l203 -351h-142l-131 212l-132 -212h-144z" />
<glyph unicode="_" horiz-adv-x="500" d="M0 -64h500v-62h-500v62z" />
<glyph unicode="`" horiz-adv-x="333" d="M23 721l2 4h193l92 -133h-127z" />
<glyph unicode="a" d="M30 136q0 47 16.5 80.5t45 54t76 32.5t100.5 16.5t127 4.5v26q0 31 -21.5 47t-55.5 16q-31 0 -53.5 -11t-22.5 -35v-4h-196q-1 5 -1 14q0 75 71.5 119t204.5 44q78 0 136 -15t97.5 -55t39.5 -102v-206q0 -39 32 -39h36v-115q-37 -20 -104 -20q-117 0 -147 66 q-83 -66 -195 -66q-186 0 -186 148zM229 162q0 -50 68 -50q39 0 68.5 21t29.5 52v45q-166 0 -166 -68z" />
<glyph unicode="b" d="M61 0v725h199v-246q57 61 148 61q107 0 165 -69.5t58 -205.5q0 -137 -58 -207t-165 -70q-110 0 -168 87l-17 -75h-162zM258 247q0 -50 22 -81t66 -31q86 0 86 102v53q0 103 -86 103q-44 0 -66 -31.5t-22 -81.5v-33z" />
<glyph unicode="c" d="M36 264q0 136 79 206t218 70q130 0 210.5 -55.5t80.5 -169.5h-193q0 90 -98 90t-98 -113v-57q0 -112 102 -112t102 92h185q0 -78 -40 -130t-103.5 -74.5t-147.5 -22.5q-139 0 -218 70t-79 206z" />
<glyph unicode="d" d="M36 265q0 136 58 205.5t165 69.5q91 0 148 -61v246h199v-725h-162l-17 75q-58 -87 -168 -87q-107 0 -165 70t-58 207zM235 237q0 -102 86 -102q44 0 66 31t22 81v33q0 50 -22 81.5t-66 31.5q-86 0 -86 -103v-53z" />
<glyph unicode="e" d="M36 264q0 136 79 206t218 70q298 0 298 -276v-34h-396q0 -115 106 -115q97 0 97 77h193q0 -96 -73 -150t-213 -54q-147 0 -228 68.5t-81 207.5zM236 324h194q0 41 -23.5 65t-65.5 24q-94 0 -105 -89z" />
<glyph unicode="f" horiz-adv-x="389" d="M8 393v135h74v22q0 102 50 144.5t143 42.5q59 0 108 -18v-117h-46q-32 0 -44 -12t-12 -41v-21h102v-135h-102v-393h-199v393h-74z" />
<glyph unicode="g" d="M5 -81q0 39 24 70.5t60 47.5q-52 36 -52 93q0 39 29 70.5t72 42.5q-85 55 -85 126q0 171 272 171q54 0 87 -6q35 22 54.5 45t21.5 35l2 13h164q0 -61 -30.5 -94t-91.5 -49q62 -46 62 -114q0 -84 -63.5 -127t-158.5 -43h-76q-63 0 -63 -29q0 -31 63 -31h180q88 0 133 -46 t45 -123q0 -85 -64.5 -133t-157.5 -48h-294q-55 0 -94 37.5t-39 91.5zM194 -48q0 -23 15 -37t37 -14h156q22 0 37.5 13.5t15.5 36.5t-15 36t-38 13h-156q-23 0 -37.5 -12.5t-14.5 -35.5zM248 370q0 -66 75 -66q77 0 77 66t-77 66q-33 0 -54 -17t-21 -49z" />
<glyph unicode="h" d="M60 0v725h199v-252q67 67 165 67q92 0 138 -51t46 -147v-342h-199v318q0 34 -17.5 54.5t-49.5 20.5q-37 0 -60 -24t-23 -59v-310h-199z" />
<glyph unicode="i" horiz-adv-x="333" d="M67 0v528h199v-528h-199zM67 590v135h199v-135h-199z" />
<glyph unicode="j" horiz-adv-x="333" d="M-41 -73h52q56 0 56 64v537h199v-557q0 -96 -43.5 -138.5t-139.5 -42.5q-73 0 -124 18v119zM67 590v135h199v-135h-199z" />
<glyph unicode="k" d="M60 0v726h199v-400l169 202h232l-195 -213l200 -315h-226l-111 181l-69 -67v-114h-199z" />
<glyph unicode="l" horiz-adv-x="333" d="M67 0v725h199v-725h-199z" />
<glyph unicode="m" horiz-adv-x="1000" d="M60 0v528h163l13 -79q30 42 79.5 66.5t104.5 24.5q119 0 160 -91q31 42 79.5 66.5t101.5 24.5q90 0 135 -51.5t45 -146.5v-342h-199v318q0 34 -16.5 54.5t-46.5 20.5q-35 0 -57 -24t-22 -59v-310h-199v318q0 34 -16.5 54.5t-46.5 20.5q-35 0 -57 -24t-22 -59v-310h-199z " />
<glyph unicode="n" d="M60 0v528h163l13 -80q31 42 81.5 67t106.5 25q92 0 138 -51t46 -147v-342h-199v318q0 34 -17.5 54.5t-49.5 20.5q-37 0 -60 -24t-23 -59v-310h-199z" />
<glyph unicode="o" d="M36 264q0 136 79 206t218 70t218.5 -70.5t79.5 -205.5t-79.5 -205.5t-218.5 -70.5t-218 70t-79 206zM235 235q0 -112 98 -112q99 0 99 112v57q0 113 -99 113q-98 0 -98 -113v-57z" />
<glyph unicode="p" d="M61 -197v725h162l17 -75q58 87 168 87q107 0 165 -70t58 -207q0 -136 -58 -205.5t-165 -69.5q-92 0 -148 60v-245h-199zM258 248q0 -50 22 -81.5t66 -31.5q86 0 86 103v53q0 102 -86 102q-44 0 -66 -31t-22 -81v-33z" />
<glyph unicode="q" d="M36 263q0 137 58 207t165 70q110 0 168 -87l17 75h162v-725h-199v245q-56 -60 -148 -60q-107 0 -165 69.5t-58 205.5zM235 238q0 -103 86 -103q44 0 66 31.5t22 81.5v33q0 50 -22 81t-66 31q-86 0 -86 -102v-53z" />
<glyph unicode="r" horiz-adv-x="444" d="M60 0v528h163l13 -80q18 46 57 69.5t88 23.5q16 0 31 -3t22 -6l6 -3v-167h-64q-62 0 -89.5 -32t-27.5 -95v-235h-199z" />
<glyph unicode="s" horiz-adv-x="611" d="M32 172h185v-4q1 -34 28.5 -47.5t58.5 -13.5q83 0 83 39q0 21 -35 32t-85.5 18.5t-100.5 21t-85 49.5t-35 94q0 50 21.5 86t59.5 56t83.5 28.5t100.5 8.5q67 0 121.5 -15.5t93 -55.5t38.5 -99h-185q0 26 -21 38.5t-50 12.5q-72 0 -72 -34q0 -20 35 -30t85 -16.5 t100.5 -19.5t85.5 -49.5t35 -96.5q0 -187 -273 -187q-70 0 -129.5 17.5t-101 60.5t-41.5 106z" />
<glyph unicode="t" horiz-adv-x="444" d="M27 393v135h82l43 160h148v-160h112v-135h-112v-201q0 -36 12 -52.5t44 -16.5h56v-117q-54 -18 -128 -18q-88 0 -135.5 32t-47.5 109v264h-74z" />
<glyph unicode="u" d="M58 186v342h199v-318q0 -34 17.5 -54.5t49.5 -20.5q37 0 60 24t23 59v310h199v-528h-163l-13 80q-31 -43 -81.5 -67.5t-106.5 -24.5q-92 0 -138 51t-46 147z" />
<glyph unicode="v" horiz-adv-x="611" d="M0 528h214l97 -329h7l97 329h196l-202 -528h-209z" />
<glyph unicode="w" horiz-adv-x="944" d="M0 528h214l80 -312h7l83 312h198l80 -312h7l81 312h194l-194 -528h-194l-82 294h-4l-83 -294h-194z" />
<glyph unicode="x" d="M4 0l203 280l-183 248h234l84 -140h4l84 140h220l-186 -253l198 -275h-232l-100 166h-4l-101 -166h-221z" />
<glyph unicode="y" horiz-adv-x="611" d="M0 528h214l101 -351h7l93 351h196l-188 -512q-41 -111 -100.5 -168.5t-166.5 -57.5q-65 0 -115 18v119h80q75 0 89 73z" />
<glyph unicode="z" horiz-adv-x="556" d="M20 0v65l222 328h-210v135h494v-62l-224 -331h233v-135h-515z" />
<glyph unicode="{" horiz-adv-x="389" d="M30 250v79q34 0 60.5 14.5t26.5 42.5v239q0 54 42 83t99 29h91v-98q-74 0 -76 -41l-10 -201q-5 -103 -101 -103v-9q96 0 101 -103l10 -202q2 -42 76 -42v-98h-91q-57 0 -99 29t-42 83v243q0 28 -25 41.5t-62 13.5z" />
<glyph unicode="|" horiz-adv-x="278" d="M77 -211v937h124v-937h-124z" />
<glyph unicode="}" horiz-adv-x="389" d="M40 -62q74 0 76 42l10 202q5 103 101 103v9q-96 0 -101 103l-10 201q-2 41 -76 41v98h91q57 0 99 -29t42 -83v-239q0 -28 26.5 -42.5t60.5 -14.5v-79q-37 0 -62 -13.5t-25 -41.5v-243q0 -54 -42 -83t-99 -29h-91v98z" />
<glyph unicode="~" horiz-adv-x="660" d="M39 187v130q8 9 22.5 22.5t58 35.5t87.5 22t122.5 -34t123.5 -34q44 0 86 20t62 40l20 20v-130q-8 -9 -22.5 -22.5t-58 -35.5t-87.5 -22t-122.5 34t-123.5 34q-44 0 -86 -20t-62 -40z" />
<glyph unicode="&#xa1;" horiz-adv-x="333" d="M47 -160l55 442h127l57 -442h-239zM67 343v185h198v-185h-198z" />
<glyph unicode="&#xa2;" d="M36 345q0 123 66 192.5t184 81.5l-7 137h113l-8 -138q110 -10 175 -65t65 -157h-193q0 90 -98 90t-98 -113v-57q0 -112 102 -112t102 92h185q0 -103 -65.5 -159t-174.5 -66l8 -138h-113l7 138q-118 12 -184 81t-66 193z" />
<glyph unicode="&#xa3;" d="M31 276v127h94v90q0 92 64.5 149.5t191.5 57.5q122 0 189.5 -58.5t67.5 -147.5v-28h-199v28q0 24 -17 41t-41 17t-41 -17t-17 -41v-91h96v-127h-97l-20 -129h282v-147h-523v147h64v129h-94z" />
<glyph unicode="&#xa4;" horiz-adv-x="660" d="M69 141l58 58q-46 52 -46 140q0 95 46 140l-58 58l63 63l57 -57q23 20 61.5 32t78.5 12q41 0 78.5 -12t57.5 -30l58 58l68 -68l-56 -56q42 -45 42 -140q0 -89 -44 -142l56 -56l-60 -60l-58 58q-48 -48 -142 -48q-91 0 -142 46l-57 -57zM201 339q0 -58 37 -98t91 -40 q56 0 92 40.5t36 97.5t-36 97.5t-92 40.5q-55 0 -91.5 -40t-36.5 -98z" />
<glyph unicode="&#xa5;" d="M2 688h230l106 -229h4l106 229h217l-125 -229h98v-93h-149l-26 -48h175v-93h-202v-225h-201v225h-203v93h175l-27 48h-148v93h97z" />
<glyph unicode="&#xa6;" horiz-adv-x="278" d="M78 180h124v-390h-124v390zM78 336v390h124v-390h-124z" />
<glyph unicode="&#xa7;" d="M54 255q0 91 90 152q-75 51 -75 122q0 47 24.5 81.5t65 53.5t83.5 27.5t88 8.5t87.5 -7.5t83 -24t65 -48t24.5 -73.5v-10h-181q0 23 -21.5 34t-48.5 11q-30 0 -53 -9t-23 -27q0 -25 36 -45.5t87.5 -39t103 -41.5t87.5 -64t36 -95q0 -90 -91 -152q76 -52 76 -122 q0 -47 -24.5 -81.5t-65 -53.5t-83.5 -27.5t-88 -8.5t-87.5 7.5t-83 24t-65 48t-24.5 73.5v10h181q0 -23 21.5 -34t48.5 -11q30 0 53 9t23 27q0 25 -36 45.5t-87.5 39t-103 41.5t-87.5 64t-36 95zM221 301q0 -10 3 -19.5t10.5 -18t15 -16t21 -15.5t23.5 -13.5t28 -14 t29.5 -13t32 -13t31.5 -13.5q31 25 31 50q0 10 -3 19.5t-10.5 18t-15 16t-21 15.5t-23.5 13.5t-28 14t-29.5 13t-32 13t-31.5 13.5q-31 -25 -31 -50z" />
<glyph unicode="&#xa8;" horiz-adv-x="333" d="M-20 586v139h152v-139h-152zM200 586v139h152v-139h-152z" />
<glyph unicode="&#xa9;" horiz-adv-x="800" d="M44 345q0 151 100 253t256 102t257 -102t101 -253t-101 -254t-257 -103q-155 0 -255.5 103t-100.5 254zM121 345q0 -133 75.5 -212.5t203.5 -79.5t204.5 80t76.5 212t-76.5 211.5t-204.5 79.5t-203.5 -79.5t-75.5 -211.5zM190 344q0 214 215 214q92 0 145.5 -46 t53.5 -131h-127q0 36 -19 57t-54 21q-78 0 -78 -96v-38q0 -96 77 -96q78 0 78 76h123q0 -85 -52 -130t-147 -45q-215 0 -215 214z" />
<glyph unicode="&#xaa;" horiz-adv-x="400" d="M12 494q0 67 57.5 90t181.5 23v16q0 37 -50 37t-50 -30h-128q-1 3 -1 9q0 45 47 71.5t134 26.5q78 0 128 -24.5t50 -79.5v-123q0 -24 21 -24l24 3v-69q-25 -15 -68 -15q-76 0 -96 40q-55 -40 -128 -40q-122 0 -122 89zM143 510q0 -30 44 -30q26 0 45 12.5t19 31.5v27 q-108 0 -108 -41z" />
<glyph unicode="&#xab;" d="M60 324l167 204h143l-138 -204l138 -205h-143zM296 324l167 204h143l-138 -204l138 -205h-143z" />
<glyph unicode="&#xac;" horiz-adv-x="660" d="M50 335v155h554v-336h-154v181h-400z" />
<glyph unicode="&#xad;" horiz-adv-x="333" d="M39 196v158h255v-158h-255z" />
<glyph unicode="&#xae;" horiz-adv-x="800" d="M44 345q0 151 100 253t256 102t257 -102t101 -253t-101 -254t-257 -103q-155 0 -255.5 103t-100.5 254zM121 345q0 -133 75.5 -212.5t203.5 -79.5t204.5 80t76.5 212t-76.5 211.5t-204.5 79.5t-203.5 -79.5t-75.5 -211.5zM232 138v413h226q48 0 81.5 -29t33.5 -75 q0 -42 -20.5 -67t-46.5 -36v-5q67 -19 67 -97q0 -66 31 -74v-25q-29 -12 -73 -12q-47 0 -70 17t-23 57q0 23 -2 37t-15 28t-37 14h-19v-146h-133zM365 376h35q16 0 27 11.5t11 29.5q0 17 -11 28.5t-27 11.5h-35v-81z" />
<glyph unicode="&#xaf;" horiz-adv-x="333" d="M9 605v100h316v-100h-316z" />
<glyph unicode="&#xb0;" horiz-adv-x="400" d="M50 550q0 62 44 106t106 44t106 -44t44 -106t-44 -106t-106 -44t-105.5 44t-44.5 106zM137 549q0 -25 18.5 -43.5t43.5 -18.5t43.5 18.5t18.5 43.5q0 26 -18.5 44t-44.5 18q-24 0 -42.5 -18.5t-18.5 -43.5z" />
<glyph unicode="&#xb1;" horiz-adv-x="660" d="M66 0v132h528v-132h-528zM66 358v132h198v182h132v-182h198v-132h-198v-182h-132v182h-198z" />
<glyph unicode="&#xb2;" horiz-adv-x="400" d="M16 317v29q0 56 63 107q26 21 57 43.5t50 36t36 27.5t25 25.5t8 22.5q0 19 -14.5 31.5t-42.5 12.5q-29 0 -46 -15.5t-17 -40.5v-12h-117q-1 5 -1 13q0 65 49.5 102.5t144.5 37.5q80 0 127 -34t47 -90q0 -22 -8.5 -42t-20 -34.5t-33.5 -32t-38 -27.5t-46 -29t-46 -29h197 v-102h-374z" />
<glyph unicode="&#xb3;" horiz-adv-x="400" d="M15 429v13h116q0 -49 68 -49t68 55q0 21 -13 32t-33 11h-48v74h38q20 0 33 11t13 32q0 19 -15.5 33t-42.5 14q-28 0 -44 -13t-16 -32h-109v15q0 48 48.5 80t131.5 32q81 0 128 -32t47 -80q0 -31 -18.5 -55.5t-47.5 -34.5v-4q79 -24 79 -101q-3 -53 -50.5 -86t-140.5 -33 q-94 0 -143 33t-49 85z" />
<glyph unicode="&#xb4;" horiz-adv-x="333" d="M30 592l92 133h193l2 -4l-160 -129h-127z" />
<glyph unicode="&#xb5;" d="M58 -196v724h199v-318q0 -34 17.5 -54.5t49.5 -20.5q37 0 60 24t23 59v310h199v-528h-163l-13 80q-29 -40 -75 -64t-98 -27v-185h-199z" />
<glyph unicode="&#xb6;" horiz-adv-x="850" d="M109 471q0 90 63 153.5t153 63.5h419v-121h-66v-728h-128v728h-106v-728h-128v416q-87 3 -147 65.5t-60 150.5z" />
<glyph unicode="&#xb7;" horiz-adv-x="333" d="M71 235v183h191v-183h-191z" />
<glyph unicode="&#xb8;" horiz-adv-x="333" d="M47 -141q65 -8 117 -8q40 0 40 31q0 32 -38 32h-38l19 125h62l-11 -68q93 -9 93 -89q0 -51 -36.5 -72t-81.5 -21q-80 0 -126 16v54z" />
<glyph unicode="&#xb9;" horiz-adv-x="400" d="M30 316v92h107v187h-107v69q44 3 99 22t95 43h44v-321h103v-92h-341z" />
<glyph unicode="&#xba;" horiz-adv-x="400" d="M12 571q0 81 52 123.5t142 42.5q91 0 143 -42.5t52 -123.5t-52 -123.5t-143 -42.5q-90 0 -142 42.5t-52 123.5zM142 554q0 -68 64 -68q65 0 65 68v34q0 68 -65 68q-64 0 -64 -68v-34z" />
<glyph unicode="&#xbb;" d="M61 119l138 205l-138 204h143l167 -204l-167 -205h-143zM297 119l138 205l-138 204h143l167 -204l-167 -205h-143z" />
<glyph unicode="&#xbc;" horiz-adv-x="1000" d="M38 280v92h107v187h-107v69q44 3 99 22t95 43h44v-321h103v-92h-341zM260 -12l410 712h96l-411 -712h-95zM571 85v89q84 114 126 246h128q-6 -46 -59 -122t-105 -125h130v85q56 76 68 122h56v-207h63v-88h-63v-85h-124v85h-220z" />
<glyph unicode="&#xbd;" horiz-adv-x="1000" d="M38 281v92h107v187h-107v69q44 3 99 22t95 43h44v-321h103v-92h-341zM260 -12l410 712h96l-411 -712h-95zM601 0v29q0 56 63 107q26 21 57 43.5t50 36t36 27.5t25 25.5t8 22.5q0 19 -14.5 31.5t-42.5 12.5q-29 0 -46 -15.5t-17 -40.5v-12h-117q-1 5 -1 13q0 65 50 102.5 t144 37.5q80 0 127 -34t47 -90q0 -22 -8.5 -42t-20 -34.5t-33.5 -32t-38 -27.5t-46 -29t-46 -29h197v-102h-374z" />
<glyph unicode="&#xbe;" horiz-adv-x="1000" d="M28 393v13h116q0 -49 68 -49t68 55q0 21 -13 32t-33 11h-48v74h38q20 0 33 11t13 32q0 19 -15.5 33t-42.5 14q-28 0 -44 -13t-16 -32h-109v15q0 48 48.5 80t131.5 32q81 0 128 -32t47 -80q0 -31 -18.5 -55.5t-47.5 -34.5v-4q79 -24 79 -101q-3 -53 -50.5 -86t-140.5 -33 q-94 0 -143 33t-49 85zM260 -12l410 712h96l-411 -712h-95zM563 85v89q84 114 126 246h128q-6 -46 -59 -122t-105 -125h130v85q56 76 68 122h56v-207h63v-88h-63v-85h-124v85h-220z" />
<glyph unicode="&#xbf;" horiz-adv-x="611" d="M46 31q0 38 17.5 70.5t43 54t50.5 39.5t42.5 34.5t17.5 30.5v21h171v-50q0 -24 -20.5 -50t-44.5 -45t-44.5 -46.5t-20.5 -54.5q0 -29 18 -49.5t48 -20.5q65 0 65 84q0 18 -1 27h184q0 -4 1 -12t1.5 -14t0.5 -12q0 -96 -76.5 -153.5t-196.5 -57.5q-115 0 -185.5 55.5 t-70.5 148.5zM202 342v185h198v-185h-198z" />
<glyph unicode="&#xc0;" horiz-adv-x="778" d="M10 0l251 688h257l251 -688h-234l-29 97h-241l-29 -97h-226zM198 881l2 4h193l92 -133h-127zM311 251h149l-72 245h-4z" />
<glyph unicode="&#xc1;" horiz-adv-x="778" d="M10 0l251 688h257l251 -688h-234l-29 97h-241l-29 -97h-226zM293 752l92 133h193l2 -4l-160 -129h-127zM311 251h149l-72 245h-4z" />
<glyph unicode="&#xc2;" horiz-adv-x="778" d="M10 0l251 688h257l251 -688h-234l-29 97h-241l-29 -97h-226zM186 740l139 145h128l139 -145h-130l-74 77l-74 -77h-128zM311 251h149l-72 245h-4z" />
<glyph unicode="&#xc3;" horiz-adv-x="778" d="M10 0l251 688h257l251 -688h-234l-29 97h-241l-29 -97h-226zM167 742q0 56 39.5 99.5t100.5 43.5q33 0 90 -20t83 -20q38 0 50 40h81q0 -56 -39.5 -99.5t-100.5 -43.5q-33 0 -90 20t-83 20q-38 0 -50 -40h-81zM311 251h149l-72 245h-4z" />
<glyph unicode="&#xc4;" horiz-adv-x="778" d="M10 0l251 688h257l251 -688h-234l-29 97h-241l-29 -97h-226zM203 746v139h152v-139h-152zM311 251h149l-72 245h-4zM423 746v139h152v-139h-152z" />
<glyph unicode="&#xc5;" horiz-adv-x="778" d="M10 0l251 688h257l251 -688h-234l-29 97h-241l-29 -97h-226zM280 845q0 45 32 77t77 32t77 -32t32 -77q0 -44 -32 -76t-77 -32t-77 31.5t-32 76.5zM311 251h149l-72 245h-4zM349 844q0 -17 11.5 -28t28.5 -11q18 0 29 11.5t11 29.5q0 17 -11.5 28t-28.5 11 q-18 0 -29 -11.5t-11 -29.5z" />
<glyph unicode="&#xc6;" horiz-adv-x="1000" d="M-15 0l291 688h679v-165h-365l22 -95h287v-158h-250l24 -105h289v-165h-461l-22 97h-234l-34 -97h-226zM300 251h145l-54 245h-4z" />
<glyph unicode="&#xc7;" horiz-adv-x="778" d="M45 344q0 176 90.5 266t266.5 90q153 0 242 -76.5t89 -218.5h-211q0 60 -31.5 95t-89.5 35q-130 0 -130 -159v-64q0 -74 31.5 -116.5t96.5 -42.5q64 0 97 33t33 93h204q0 -136 -81.5 -211t-230.5 -80l-3 -17q93 -9 93 -89q0 -51 -36.5 -72t-81.5 -21q-80 0 -126 16v54 q65 -8 117 -8q40 0 40 31q0 32 -38 32h-38l11 75q-155 10 -234.5 100t-79.5 255z" />
<glyph unicode="&#xc8;" horiz-adv-x="722" d="M74 0v688h595v-165h-374v-95h320v-158h-320v-105h381v-165h-602zM195 881l2 4h193l92 -133h-127z" />
<glyph unicode="&#xc9;" horiz-adv-x="722" d="M74 0v688h595v-165h-374v-95h320v-158h-320v-105h381v-165h-602zM290 752l92 133h193l2 -4l-160 -129h-127z" />
<glyph unicode="&#xca;" horiz-adv-x="722" d="M74 0v688h595v-165h-374v-95h320v-158h-320v-105h381v-165h-602zM183 740l139 145h128l139 -145h-130l-74 77l-74 -77h-128z" />
<glyph unicode="&#xcb;" horiz-adv-x="722" d="M74 0v688h595v-165h-374v-95h320v-158h-320v-105h381v-165h-602zM200 746v139h152v-139h-152zM420 746v139h152v-139h-152z" />
<glyph unicode="&#xcc;" horiz-adv-x="389" d="M4 881l2 4h193l92 -133h-127zM84 0v688h221v-688h-221z" />
<glyph unicode="&#xcd;" horiz-adv-x="389" d="M84 0v688h221v-688h-221zM99 752l92 133h193l2 -4l-160 -129h-127z" />
<glyph unicode="&#xce;" horiz-adv-x="389" d="M-8 740l139 145h128l139 -145h-130l-74 77l-74 -77h-128zM84 0v688h221v-688h-221z" />
<glyph unicode="&#xcf;" horiz-adv-x="389" d="M9 746v139h152v-139h-152zM84 0v688h221v-688h-221zM229 746v139h152v-139h-152z" />
<glyph unicode="&#xd0;" horiz-adv-x="778" d="M1 304v98h73v286h298q361 0 361 -344t-361 -344h-298v304h-73zM295 165h73q139 0 139 149v60q0 149 -139 149h-73v-121h97v-98h-97v-139z" />
<glyph unicode="&#xd1;" horiz-adv-x="833" d="M74 0v688h193l289 -339v339h203v-688h-193l-289 334v-334h-203zM194 742q0 56 39.5 99.5t100.5 43.5q33 0 90.5 -20t82.5 -20q37 0 51 40h81q0 -56 -39.5 -99.5t-100.5 -43.5q-33 0 -90.5 20t-82.5 20q-37 0 -51 -40h-81z" />
<glyph unicode="&#xd2;" horiz-adv-x="833" d="M45 344q0 175 96.5 265.5t274.5 90.5t275 -91t97 -265t-97 -265t-275 -91t-274.5 90.5t-96.5 265.5zM226 881l2 4h192l93 -133h-127zM271 312q0 -73 37 -116t108 -43t108.5 43t37.5 116v64q0 73 -37.5 116t-108.5 43t-108 -43t-37 -116v-64z" />
<glyph unicode="&#xd3;" horiz-adv-x="833" d="M45 344q0 175 96.5 265.5t274.5 90.5t275 -91t97 -265t-97 -265t-275 -91t-274.5 90.5t-96.5 265.5zM271 312q0 -73 37 -116t108 -43t108.5 43t37.5 116v64q0 73 -37.5 116t-108.5 43t-108 -43t-37 -116v-64zM320 752l93 133h192l2 -4l-159 -129h-128z" />
<glyph unicode="&#xd4;" horiz-adv-x="833" d="M45 344q0 175 96.5 265.5t274.5 90.5t275 -91t97 -265t-97 -265t-275 -91t-274.5 90.5t-96.5 265.5zM213 740l140 145h127l140 -145h-130l-74 77l-75 -77h-128zM271 312q0 -73 37 -116t108 -43t108.5 43t37.5 116v64q0 73 -37.5 116t-108.5 43t-108 -43t-37 -116v-64z " />
<glyph unicode="&#xd5;" horiz-adv-x="833" d="M45 344q0 175 96.5 265.5t274.5 90.5t275 -91t97 -265t-97 -265t-275 -91t-274.5 90.5t-96.5 265.5zM194 742q0 56 39.5 99.5t100.5 43.5q33 0 90.5 -20t82.5 -20q37 0 51 40h81q0 -56 -39.5 -99.5t-100.5 -43.5q-33 0 -90.5 20t-82.5 20q-37 0 -51 -40h-81zM271 312 q0 -73 37 -116t108 -43t108.5 43t37.5 116v64q0 73 -37.5 116t-108.5 43t-108 -43t-37 -116v-64z" />
<glyph unicode="&#xd6;" horiz-adv-x="833" d="M45 344q0 175 96.5 265.5t274.5 90.5t275 -91t97 -265t-97 -265t-275 -91t-274.5 90.5t-96.5 265.5zM230 746v139h152v-139h-152zM271 312q0 -73 37 -116t108 -43t108.5 43t37.5 116v64q0 73 -37.5 116t-108.5 43t-108 -43t-37 -116v-64zM451 746v139h152v-139h-152z" />
<glyph unicode="&#xd7;" horiz-adv-x="660" d="M68 96l169 168l-169 168l94 94l168 -169l168 169l94 -94l-169 -168l169 -168l-94 -94l-168 169l-168 -169z" />
<glyph unicode="&#xd8;" horiz-adv-x="833" d="M45 344q0 175 96.5 265.5t274.5 90.5q117 0 202 -41l53 66h108l-92 -113q101 -90 101 -268q0 -174 -97 -265t-275 -91q-121 0 -202 40l-52 -64h-108l90 112q-99 91 -99 268zM271 312q0 -39 10 -68l218 269q-35 22 -83 22q-71 0 -108 -43t-37 -116v-64zM333 175 q35 -22 83 -22q71 0 108.5 43t37.5 116v64q0 37 -11 68z" />
<glyph unicode="&#xd9;" horiz-adv-x="833" d="M74 277v411h221v-408q0 -58 31 -92.5t90 -34.5t90.5 35t31.5 92v408h221v-411q0 -141 -89 -215t-253 -74t-253.5 74t-89.5 215zM226 881l2 4h192l93 -133h-127z" />
<glyph unicode="&#xda;" horiz-adv-x="833" d="M74 277v411h221v-408q0 -58 31 -92.5t90 -34.5t90.5 35t31.5 92v408h221v-411q0 -141 -89 -215t-253 -74t-253.5 74t-89.5 215zM320 752l93 133h192l2 -4l-159 -129h-128z" />
<glyph unicode="&#xdb;" horiz-adv-x="833" d="M74 277v411h221v-408q0 -58 31 -92.5t90 -34.5t90.5 35t31.5 92v408h221v-411q0 -141 -89 -215t-253 -74t-253.5 74t-89.5 215zM213 740l140 145h127l140 -145h-130l-74 77l-75 -77h-128z" />
<glyph unicode="&#xdc;" horiz-adv-x="833" d="M74 277v411h221v-408q0 -58 31 -92.5t90 -34.5t90.5 35t31.5 92v408h221v-411q0 -141 -89 -215t-253 -74t-253.5 74t-89.5 215zM230 746v139h152v-139h-152zM451 746v139h152v-139h-152z" />
<glyph unicode="&#xdd;" horiz-adv-x="778" d="M7 688h254l132 -229h4l132 229h241l-269 -421v-267h-221v267zM293 752l92 133h193l2 -4l-160 -129h-127z" />
<glyph unicode="&#xde;" horiz-adv-x="722" d="M74 0v688h221v-100h165q97 0 158.5 -64t61.5 -162v-13q0 -98 -61.5 -162.5t-158.5 -64.5h-165v-122h-221zM295 283h91q70 0 70 67v8q0 67 -70 67h-91v-142z" />
<glyph unicode="&#xdf;" d="M67 0v517q0 57 23.5 100.5t62.5 69t85.5 38t97.5 12.5q49 0 92.5 -9.5t83 -30t62.5 -59t23 -90.5q0 -49 -25.5 -89.5t-68.5 -58.5v-5q53 -19 87 -70t34 -111q0 -104 -67.5 -159t-178.5 -55h-64v136h28q34 0 58.5 27.5t24.5 65.5q0 40 -24.5 68t-58.5 28h-28v141h27 q28 0 46.5 19.5t18.5 48.5q0 30 -19 49.5t-51 19.5t-51 -19.5t-19 -49.5v-534h-199z" />
<glyph unicode="&#xe0;" d="M30 136q0 47 16.5 80.5t45 54t76 32.5t100.5 16.5t127 4.5v26q0 31 -21.5 47t-55.5 16q-31 0 -53.5 -11t-22.5 -35v-4h-196q-1 5 -1 14q0 75 71.5 119t204.5 44q78 0 136 -15t97.5 -55t39.5 -102v-206q0 -39 32 -39h36v-115q-37 -20 -104 -20q-117 0 -147 66 q-83 -66 -195 -66q-186 0 -186 148zM130 721l2 4h193l92 -133h-126zM229 162q0 -50 68 -50q39 0 68.5 21t29.5 52v45q-166 0 -166 -68z" />
<glyph unicode="&#xe1;" d="M30 136q0 47 16.5 80.5t45 54t76 32.5t100.5 16.5t127 4.5v26q0 31 -21.5 47t-55.5 16q-31 0 -53.5 -11t-22.5 -35v-4h-196q-1 5 -1 14q0 75 71.5 119t204.5 44q78 0 136 -15t97.5 -55t39.5 -102v-206q0 -39 32 -39h36v-115q-37 -20 -104 -20q-117 0 -147 66 q-83 -66 -195 -66q-186 0 -186 148zM225 592l92 133h193l2 -4l-159 -129h-128zM229 162q0 -50 68 -50q39 0 68.5 21t29.5 52v45q-166 0 -166 -68z" />
<glyph unicode="&#xe2;" d="M30 136q0 47 16.5 80.5t45 54t76 32.5t100.5 16.5t127 4.5v26q0 31 -21.5 47t-55.5 16q-31 0 -53.5 -11t-22.5 -35v-4h-196q-1 5 -1 14q0 75 71.5 119t204.5 44q78 0 136 -15t97.5 -55t39.5 -102v-206q0 -39 32 -39h36v-115q-37 -20 -104 -20q-117 0 -147 66 q-83 -66 -195 -66q-186 0 -186 148zM130 580l140 145h127l140 -145h-130l-74 77l-75 -77h-128zM229 162q0 -50 68 -50q39 0 68.5 21t29.5 52v45q-166 0 -166 -68z" />
<glyph unicode="&#xe3;" d="M30 136q0 47 16.5 80.5t45 54t76 32.5t100.5 16.5t127 4.5v26q0 31 -21.5 47t-55.5 16q-31 0 -53.5 -11t-22.5 -35v-4h-196q-1 5 -1 14q0 75 71.5 119t204.5 44q78 0 136 -15t97.5 -55t39.5 -102v-206q0 -39 32 -39h36v-115q-37 -20 -104 -20q-117 0 -147 66 q-83 -66 -195 -66q-186 0 -186 148zM111 582q0 56 39.5 99.5t100.5 43.5q33 0 90.5 -20t82.5 -20q37 0 51 40h81q0 -56 -39.5 -99.5t-100.5 -43.5q-33 0 -90.5 20t-82.5 20q-37 0 -51 -40h-81zM229 162q0 -50 68 -50q39 0 68.5 21t29.5 52v45q-166 0 -166 -68z" />
<glyph unicode="&#xe4;" d="M30 136q0 47 16.5 80.5t45 54t76 32.5t100.5 16.5t127 4.5v26q0 31 -21.5 47t-55.5 16q-31 0 -53.5 -11t-22.5 -35v-4h-196q-1 5 -1 14q0 75 71.5 119t204.5 44q78 0 136 -15t97.5 -55t39.5 -102v-206q0 -39 32 -39h36v-115q-37 -20 -104 -20q-117 0 -147 66 q-83 -66 -195 -66q-186 0 -186 148zM147 586v139h152v-139h-152zM229 162q0 -50 68 -50q39 0 68.5 21t29.5 52v45q-166 0 -166 -68zM368 586v139h152v-139h-152z" />
<glyph unicode="&#xe5;" d="M30 136q0 47 16.5 80.5t45 54t76 32.5t100.5 16.5t127 4.5v26q0 31 -21.5 47t-55.5 16q-31 0 -53.5 -11t-22.5 -35v-4h-196q-1 5 -1 14q0 75 71.5 119t204.5 44q78 0 136 -15t97.5 -55t39.5 -102v-206q0 -39 32 -39h36v-115q-37 -20 -104 -20q-117 0 -147 66 q-83 -66 -195 -66q-186 0 -186 148zM225 685q0 45 31.5 77t76.5 32t77 -31.5t32 -77.5q0 -45 -32 -76.5t-77 -31.5q-44 0 -76 31.5t-32 76.5zM229 162q0 -50 68 -50q39 0 68.5 21t29.5 52v45q-166 0 -166 -68zM293 684q0 -17 11.5 -28t28.5 -11q18 0 29.5 11.5t11.5 29.5 q0 17 -12 28t-29 11t-28.5 -11.5t-11.5 -29.5z" />
<glyph unicode="&#xe6;" horiz-adv-x="1000" d="M30 146q0 55 23.5 90.5t73.5 54.5t112 26t156 7v26q0 31 -20.5 47t-52.5 16q-33 0 -56.5 -11t-23.5 -35v-4h-196q-1 5 -1 14q0 75 71.5 119t204.5 44q128 0 197 -48q72 48 176 48q278 0 278 -276v-34h-376q0 -115 96 -115q87 0 87 77h193q0 -96 -68 -150t-198 -54 q-157 0 -234 73q-98 -73 -216 -73q-111 0 -168.5 35.5t-57.5 122.5zM229 162q0 -50 68 -50q39 0 68.5 21t29.5 52v45q-166 0 -166 -68zM597 324h174q0 42 -22 65.5t-61 23.5q-81 0 -91 -89z" />
<glyph unicode="&#xe7;" d="M36 264q0 136 79 206t218 70q130 0 210.5 -55.5t80.5 -169.5h-193q0 90 -98 90t-98 -113v-57q0 -112 102 -112t102 92h185q0 -107 -71 -163t-188 -63l-2 -18q93 -9 93 -89q0 -51 -36.5 -72t-82.5 -21q-78 0 -126 16v54q65 -8 118 -8q40 0 40 31q0 32 -38 32h-39l12 75 q-126 8 -197 77.5t-71 197.5z" />
<glyph unicode="&#xe8;" d="M36 264q0 136 79 206t218 70q298 0 298 -276v-34h-396q0 -115 106 -115q97 0 97 77h193q0 -96 -73 -150t-213 -54q-147 0 -228 68.5t-81 207.5zM143 721l2 4h192l93 -133h-127zM236 324h194q0 41 -23.5 65t-65.5 24q-94 0 -105 -89z" />
<glyph unicode="&#xe9;" d="M36 264q0 136 79 206t218 70q298 0 298 -276v-34h-396q0 -115 106 -115q97 0 97 77h193q0 -96 -73 -150t-213 -54q-147 0 -228 68.5t-81 207.5zM236 324h194q0 41 -23.5 65t-65.5 24q-94 0 -105 -89zM237 592l93 133h192l2 -4l-159 -129h-128z" />
<glyph unicode="&#xea;" d="M36 264q0 136 79 206t218 70q298 0 298 -276v-34h-396q0 -115 106 -115q97 0 97 77h193q0 -96 -73 -150t-213 -54q-147 0 -228 68.5t-81 207.5zM130 580l140 145h127l140 -145h-130l-74 77l-75 -77h-128zM236 324h194q0 41 -23.5 65t-65.5 24q-94 0 -105 -89z" />
<glyph unicode="&#xeb;" d="M36 264q0 136 79 206t218 70q298 0 298 -276v-34h-396q0 -115 106 -115q97 0 97 77h193q0 -96 -73 -150t-213 -54q-147 0 -228 68.5t-81 207.5zM147 586v139h152v-139h-152zM236 324h194q0 41 -23.5 65t-65.5 24q-94 0 -105 -89zM368 586v139h152v-139h-152z" />
<glyph unicode="&#xec;" horiz-adv-x="333" d="M-24 721l2 4h192l93 -133h-127zM67 0v528h199v-528h-199z" />
<glyph unicode="&#xed;" horiz-adv-x="333" d="M67 0v528h199v-528h-199zM70 592l93 133h192l2 -4l-159 -129h-128z" />
<glyph unicode="&#xee;" horiz-adv-x="333" d="M-37 580l140 145h127l140 -145h-130l-74 77l-75 -77h-128zM67 0v528h199v-528h-199z" />
<glyph unicode="&#xef;" horiz-adv-x="333" d="M-20 586v139h152v-139h-152zM67 0v528h199v-528h-199zM201 586v139h152v-139h-152z" />
<glyph unicode="&#xf0;" d="M36 264q0 117 71 188.5t191 71.5q38 0 66 -8q-20 31 -50 70l-165 -19v78l98 11q-45 41 -83 65l1 4h198q29 -15 68 -47l139 16v-78l-68 -8q129 -151 129 -344q0 -135 -79.5 -205.5t-218.5 -70.5t-218 70t-79 206zM235 235q0 -112 98 -112q99 0 99 112v57q0 113 -99 113 q-98 0 -98 -113v-57z" />
<glyph unicode="&#xf1;" d="M60 0v528h163l13 -80q31 42 81.5 67t106.5 25q92 0 138 -51t46 -147v-342h-199v318q0 34 -17.5 54.5t-49.5 20.5q-37 0 -60 -24t-23 -59v-310h-199zM111 582q0 56 39.5 99.5t100.5 43.5q33 0 90.5 -20t82.5 -20q37 0 51 40h81q0 -56 -39.5 -99.5t-100.5 -43.5 q-33 0 -90.5 20t-82.5 20q-37 0 -51 -40h-81z" />
<glyph unicode="&#xf2;" d="M36 264q0 136 79 206t218 70t218.5 -70.5t79.5 -205.5t-79.5 -205.5t-218.5 -70.5t-218 70t-79 206zM143 721l2 4h192l93 -133h-127zM235 235q0 -112 98 -112q99 0 99 112v57q0 113 -99 113q-98 0 -98 -113v-57z" />
<glyph unicode="&#xf3;" d="M36 264q0 136 79 206t218 70t218.5 -70.5t79.5 -205.5t-79.5 -205.5t-218.5 -70.5t-218 70t-79 206zM235 235q0 -112 98 -112q99 0 99 112v57q0 113 -99 113q-98 0 -98 -113v-57zM237 592l93 133h192l2 -4l-159 -129h-128z" />
<glyph unicode="&#xf4;" d="M36 264q0 136 79 206t218 70t218.5 -70.5t79.5 -205.5t-79.5 -205.5t-218.5 -70.5t-218 70t-79 206zM130 580l140 145h127l140 -145h-130l-74 77l-75 -77h-128zM235 235q0 -112 98 -112q99 0 99 112v57q0 113 -99 113q-98 0 -98 -113v-57z" />
<glyph unicode="&#xf5;" d="M36 264q0 136 79 206t218 70t218.5 -70.5t79.5 -205.5t-79.5 -205.5t-218.5 -70.5t-218 70t-79 206zM111 582q0 56 39.5 99.5t100.5 43.5q33 0 90.5 -20t82.5 -20q37 0 51 40h81q0 -56 -39.5 -99.5t-100.5 -43.5q-33 0 -90.5 20t-82.5 20q-37 0 -51 -40h-81zM235 235 q0 -112 98 -112q99 0 99 112v57q0 113 -99 113q-98 0 -98 -113v-57z" />
<glyph unicode="&#xf6;" d="M36 264q0 136 79 206t218 70t218.5 -70.5t79.5 -205.5t-79.5 -205.5t-218.5 -70.5t-218 70t-79 206zM147 586v139h152v-139h-152zM235 235q0 -112 98 -112q99 0 99 112v57q0 113 -99 113q-98 0 -98 -113v-57zM368 586v139h152v-139h-152z" />
<glyph unicode="&#xf7;" horiz-adv-x="660" d="M66 196v132h528v-132h-528zM266 15v131h131v-131h-131zM266 377v131h131v-131h-131z" />
<glyph unicode="&#xf8;" d="M36 264q0 136 79 206t218 70q92 0 157 -31l40 50h92l-71 -89q80 -72 80 -206q0 -135 -79.5 -205.5t-218.5 -70.5q-84 0 -148 26l-47 -59h-92l77 96q-87 73 -87 213zM235 235q0 -22 3 -40l155 194q-24 16 -60 16q-98 0 -98 -113v-57zM281 134q22 -11 52 -11q99 0 99 112 v57q0 10 -2 28z" />
<glyph unicode="&#xf9;" d="M58 186v342h199v-318q0 -34 17.5 -54.5t49.5 -20.5q37 0 60 24t23 59v310h199v-528h-163l-13 80q-31 -43 -81.5 -67.5t-106.5 -24.5q-92 0 -138 51t-46 147zM143 721l2 4h192l93 -133h-127z" />
<glyph unicode="&#xfa;" d="M58 186v342h199v-318q0 -34 17.5 -54.5t49.5 -20.5q37 0 60 24t23 59v310h199v-528h-163l-13 80q-31 -43 -81.5 -67.5t-106.5 -24.5q-92 0 -138 51t-46 147zM237 592l93 133h192l2 -4l-159 -129h-128z" />
<glyph unicode="&#xfb;" d="M58 186v342h199v-318q0 -34 17.5 -54.5t49.5 -20.5q37 0 60 24t23 59v310h199v-528h-163l-13 80q-31 -43 -81.5 -67.5t-106.5 -24.5q-92 0 -138 51t-46 147zM130 580l140 145h127l140 -145h-130l-74 77l-75 -77h-128z" />
<glyph unicode="&#xfc;" d="M58 186v342h199v-318q0 -34 17.5 -54.5t49.5 -20.5q37 0 60 24t23 59v310h199v-528h-163l-13 80q-31 -43 -81.5 -67.5t-106.5 -24.5q-92 0 -138 51t-46 147zM147 586v139h152v-139h-152zM368 586v139h152v-139h-152z" />
<glyph unicode="&#xfd;" horiz-adv-x="611" d="M0 528h214l101 -351h7l93 351h196l-188 -512q-41 -111 -100.5 -168.5t-166.5 -57.5q-65 0 -115 18v119h80q75 0 89 73zM209 592l93 133h193l2 -4l-160 -129h-128z" />
<glyph unicode="&#xfe;" d="M61 -197v922h199v-247q56 62 148 62q107 0 165 -70t58 -207q0 -136 -58 -205.5t-165 -69.5q-92 0 -148 60v-245h-199zM258 248q0 -50 22 -81.5t66 -31.5q86 0 86 103v53q0 102 -86 102q-44 0 -66 -31t-22 -81v-33z" />
<glyph unicode="&#xff;" horiz-adv-x="611" d="M0 528h214l101 -351h7l93 351h196l-188 -512q-41 -111 -100.5 -168.5t-166.5 -57.5q-65 0 -115 18v119h80q75 0 89 73zM120 586v139h151v-139h-151zM340 586v139h152v-139h-152z" />
<glyph unicode="&#x152;" horiz-adv-x="1000" d="M35 344q0 169 71.5 262.5t202.5 93.5q116 0 186 -75v63h471v-165h-277v-95h223v-158h-223v-105h284v-165h-478v62q-71 -74 -186 -74q-131 0 -202.5 93.5t-71.5 262.5zM244 312q0 -73 32 -116t94 -43t94 43t32 116v64q0 73 -32 116t-94 43t-94 -43t-32 -116v-64z" />
<glyph unicode="&#x153;" horiz-adv-x="1000" d="M29 264q0 136 76.5 206t210.5 70q113 0 186 -50q73 50 184 50q288 0 288 -276v-34h-376q0 -115 96 -115q87 0 87 77h193q0 -96 -70.5 -150t-205.5 -54q-122 0 -196 50q-72 -50 -186 -50q-134 0 -210.5 70t-76.5 206zM228 235q0 -112 88 -112q89 0 89 112v57 q0 113 -89 113q-88 0 -88 -113v-57zM599 324h174q0 41 -21 65t-58 24q-85 0 -95 -89z" />
<glyph unicode="&#x178;" horiz-adv-x="778" d="M7 688h254l132 -229h4l132 229h241l-269 -421v-267h-221v267zM203 746v139h152v-139h-152zM423 746v139h152v-139h-152z" />
<glyph unicode="&#x2c6;" horiz-adv-x="333" d="M-35 580l139 145h128l139 -145h-130l-74 77l-74 -77h-128z" />
<glyph unicode="&#x2dc;" horiz-adv-x="333" d="M-56 582q0 56 39.5 99.5t100.5 43.5q33 0 90 -20t83 -20q38 0 50 40h81q0 -56 -39.5 -99.5t-100.5 -43.5q-33 0 -90 20t-83 20q-38 0 -50 -40h-81z" />
<glyph unicode="&#x2000;" horiz-adv-x="477" />
<glyph unicode="&#x2001;" horiz-adv-x="954" />
<glyph unicode="&#x2002;" horiz-adv-x="477" />
<glyph unicode="&#x2003;" horiz-adv-x="954" />
<glyph unicode="&#x2004;" horiz-adv-x="318" />
<glyph unicode="&#x2005;" horiz-adv-x="238" />
<glyph unicode="&#x2006;" horiz-adv-x="159" />
<glyph unicode="&#x2007;" horiz-adv-x="159" />
<glyph unicode="&#x2008;" horiz-adv-x="119" />
<glyph unicode="&#x2009;" horiz-adv-x="190" />
<glyph unicode="&#x200a;" horiz-adv-x="53" />
<glyph unicode="&#x2010;" horiz-adv-x="333" d="M39 196v158h255v-158h-255z" />
<glyph unicode="&#x2011;" horiz-adv-x="333" d="M39 196v158h255v-158h-255z" />
<glyph unicode="&#x2012;" horiz-adv-x="333" d="M39 196v158h255v-158h-255z" />
<glyph unicode="&#x2013;" horiz-adv-x="500" d="M0 196v138h500v-138h-500z" />
<glyph unicode="&#x2014;" horiz-adv-x="1000" d="M0 196v138h1002v-138h-1002z" />
<glyph unicode="&#x2018;" horiz-adv-x="278" d="M44 331v165l91 192h95l-71 -182h71v-175h-186z" />
<glyph unicode="&#x2019;" horiz-adv-x="278" d="M48 331l71 182h-71v175h186v-165l-91 -192h-95z" />
<glyph unicode="&#x201a;" horiz-adv-x="278" d="M44 0v175h186v-165l-91 -192h-95l71 182h-71z" />
<glyph unicode="&#x201c;" horiz-adv-x="500" d="M41 331v165l91 192h95l-71 -182h71v-175h-186zM270 331v165l91 192h95l-71 -182h71v-175h-186z" />
<glyph unicode="&#x201d;" horiz-adv-x="500" d="M44 331l71 182h-71v175h186v-165l-91 -192h-95zM273 331l71 182h-71v175h186v-165l-91 -192h-95z" />
<glyph unicode="&#x201e;" horiz-adv-x="500" d="M44 0v175h186v-165l-91 -192h-95l71 182h-71zM273 0v175h186v-165l-91 -192h-95l71 182h-71z" />
<glyph unicode="&#x2022;" horiz-adv-x="500" d="M88 345q0 67 47.5 114.5t114.5 47.5t114.5 -47.5t47.5 -114.5t-47.5 -114.5t-114.5 -47.5t-114.5 47.5t-47.5 114.5z" />
<glyph unicode="&#x2026;" horiz-adv-x="1000" d="M61 0v199h212v-199h-212zM394 0v199h212v-199h-212zM728 0v199h212v-199h-212z" />
<glyph unicode="&#x202f;" horiz-adv-x="190" />
<glyph unicode="&#x2039;" horiz-adv-x="333" d="M11 324l167 204h143l-138 -204l138 -205h-143z" />
<glyph unicode="&#x203a;" horiz-adv-x="333" d="M12 119l138 205l-138 204h143l167 -204l-167 -205h-143z" />
<glyph unicode="&#x205f;" horiz-adv-x="238" />
<glyph unicode="&#x20ac;" d="M23 227v93h90v48h-90v93h103q24 87 83.5 143t125 76t139.5 20q88 0 154 -19v-145q-51 25 -123 25q-127 0 -174 -100h209v-93h-231v-22q0 -18 1 -26h230v-93h-208q48 -100 173 -100q32 0 62.5 6.5t45.5 13.5l15 7v-141q-81 -25 -157 -25q-51 0 -100.5 12t-99 37.5 t-88.5 74.5t-57 115h-103z" />
<glyph unicode="&#x2122;" horiz-adv-x="950" d="M18 586v102h389v-102h-130v-296h-128v296h-131zM438 290v398h180l59 -230h5l58 230h174v-398h-126v124q0 30 3 66.5t5 57.5l3 22h-4l-74 -270h-100l-74 269h-4q12 -78 12 -145v-124h-117z" />
<glyph unicode="&#xe000;" horiz-adv-x="530" d="M0 0v530h530v-530h-530z" />
<glyph unicode="&#xfb01;" d="M8 393v135h68v22q0 102 50 144.5t143 42.5q51 0 96 -18v-117h-36q-32 0 -43 -12t-11 -41v-21h90v-135h-90v-393h-199v393h-68zM407 0v528h199v-528h-199zM407 590v135h199v-135h-199z" />
<glyph unicode="&#xfb02;" d="M8 393v135h68v22q0 102 50 144.5t143 42.5q51 0 96 -18v-117h-36q-32 0 -43 -12t-11 -41v-21h90v-135h-90v-393h-199v393h-68zM408 0v725h199v-725h-199z" />
</font>
</defs>
</svg>
