<?xml version="1.0" encoding="UTF-8" standalone="no"?>
<svg xmlns:rdf="http://www.w3.org/1999/02/22-rdf-syntax-ns#" xmlns="http://www.w3.org/2000/svg" sodipodi:docname="hat3.svg" xmlns:sodipodi="http://inkscape.sourceforge.net/DTD/sodipodi-0.dtd" height="128px" sodipodi:version="0.32" width="128px" xmlns:cc="http://web.resource.org/cc/" xmlns:xlink="http://www.w3.org/1999/xlink" sodipodi:docbase="/home/nicu/Desktop/hats" xmlns:dc="http://purl.org/dc/elements/1.1/">
 <sodipodi:namedview bordercolor="#666666" pagecolor="#fffffffff" borderopacity="1.0" showguides="true"/>
 <g fill-rule="evenodd" transform="matrix(1.3275 0 0 1.3275 -704.45 -559.7)">
  <path d="m583.33 432.28c-6.32 0.15-13.79 1-18.9 5.06-2.71 1.53-1.63 3.56-1 6.11 1.09 11.9-0.5 24.2-2.65 35.91-7.69-0.03-15.88 0.54-22.61 4.47-3.58 2.07-6.19 6.21-3.69 10.2 3.6 5.45 9.45 7.42 15.42 8.64 15.88 2.76 31.56 3.32 47.61 1.94 7.39-0.91 14.82-3.05 21.25-7.11 2.73-1.97 5.79-4.29 3.66-7.71-3.27-4.3-7.94-5.09-12.89-6.4-4.72-1.03-10.52-1.67-15.33-2.13 0.56-5.84 2.4-12.28 3.27-18.07 1.4-8.4 2.31-16.58 4.14-24.9-2.27-3.69-6.31-4.49-10.27-5.32-2.84-0.51-5.13-0.71-8.01-0.69z" sodipodi:nodetypes="cccccccccccccccc" fill="#330099"/>
  <path d="m601.55 438.39s-7.51 4.47-12.19 4.47c0.82 7.92-5.69 42.62-7.2 51.1 0.41 1.83 12.51-0.35 13.93-0.76-1.52-7.37 2.88-40.95 5.46-54.81z" fill-opacity=".14118" sodipodi:nodetypes="ccccc" fill="#ffffff"/>
  <path d="m586.76 443.63s14.35-4.78 14.18-6.26c-0.16-1.49-7.92-5.78-16.99-6.11-2.8 0.5 11.05 7.76 2.81 12.37z" fill-opacity=".12549" sodipodi:nodetypes="cccc" fill="#ffffff"/>
  <path d="m582.84 431.47c-6.32 0.15-13.17 1-18.28 5.06-2.71 1.53-2.45 4.17-1.81 6.72 1.08 11.89-0.5 23.79-2.66 35.5-7.68-0.03-15.67 0.54-22.4 4.47-3.59 2.07-6.6 6.83-4.1 10.81 3.6 5.45 10.27 8.03 16.24 9.25 15.88 2.76 32.37 3.33 48.42 1.94 7.38-0.91 15.22-2.85 21.66-6.91 2.72-1.96 5.79-5.7 3.65-9.12-3.27-4.3-8.95-5.5-13.9-6.81-4.73-1.03-9.51-1.67-14.32-2.13 0.56-5.84 1.39-11.67 2.25-17.47 1.41-8.4 2.93-16.78 4.75-25.09-2.27-3.7-6.91-4.7-10.87-5.53-2.84-0.51-5.74-0.71-8.63-0.69zm-0.25 1.62c5.73 0.09 11.85-0.17 16.79 3 2.9 1.45 0.87 4.69 0.74 7.07-2.34 12.27-5.04 24.59-6.28 37.03-0.06-0.25 0.1 10.28-1.72 12.06-4.22 2.79-8.28 2.21-13.18 2.47-6.43 0.03-12.51 0.2-18.35-2.72-2.33-1.52 0.14-5.39 0.1-7.88 0.31-1.57 4.85-29.46 3.69-41.46-1.4-3.33 0.46-5.26 3.4-6.6 4.63-2.37 9.68-2.88 14.81-2.97zm17.16 5.66c-5.3 3.03-12.15 4.53-18.53 4.72s-12.79-0.58-16.72-3.66l-0.25 0.19c4.21 3.3 10.58 5.41 17.13 5.22 6.54-0.2 13.27-2.72 18.74-5.84l-0.37-0.63zm-40.09 41.75c-0.33 1.75-0.38 2.76-0.72 4.5-0.36 2.3-1.23 4.74-1.32 6.94 4.67 3.42 10.68 4.02 16.29 4.44 6.21 0.2 12.71 0.1 18.5-2.44 2.46-0.92 3.4-2.96 2.34-5.28-0.01-2.52 0.19-4.38 0.41-6.88 5.03 0.64 10.9 1.46 15.18 2.44 4.35 1.24 8.83 2.23 11.75 5.97 1.84 3.12-1.38 5.21-3.84 6.87-6.96 4.04-14.97 5.88-22.81 6.67-15.44 1.06-30.2 0.22-45.44-2.57-5.55-1.23-11.91-2.81-15.09-8.07-2.13-3.96 1.91-7.77 5.28-9.5 5.39-2.7 15.63-3.47 19.47-3.09z" sodipodi:nodetypes="ccccccccccccccccccccccccccccccccccccccccccccccccc"/>
  <path d="m562.39 476.38c-2.19-0.66-3.64 0.57-3.37 2.45-0.2 2.97-1.08 5.64-1.92 8.4-0.26 3.15 1.87 4.51 4.67 5.42 3.67 1.26 7.14 1.93 10.97 2.43 5.65 0.56 10.63 0.38 16.2-0.83 1.76-0.79 2.76-2.3 4.79-1.81 1.59-0.02 2.87-0.39 2.56-1.74-0.29-1.55-1.59-3.13-1.51-4.77-0.18-2.46-0.01-4.1 0.28-6.54-1.28-1.66-2.46-0.31-4.07 0.09-4.85 1.24-9.68 1.9-14.47 0.26-4.75-1.22-9.2-2.96-14.13-3.36z" sodipodi:nodetypes="ccccccccccccc" fill="#006699"/>
  <path d="m591.3 478.96s3.45-0.4 3.04 1.02c-0.4 1.42-0.86 3.86-0.04 6.7 0.81 2.84 1.35 5.96 0.54 6.16-0.81 0.21-12.82 3.61-15.46 3.21 0.2-4.07 5.22-10.18 1.56-13.63 1.02-2.24 8.13-3.25 10.36-3.46z" fill-opacity=".12549" sodipodi:nodetypes="ccccccc" fill="#ffffff"/>
  <g>
   <path d="m562.03 475.06c-2.19-0.65-3.64 1.99-3.38 3.88-0.19 2.97-2.09 5.43-2.93 8.19-0.26 3.16 2.48 5.73 5.28 6.64 3.67 1.26 7.55 1.73 11.38 2.23 5.65 0.56 11.44 0.58 17.01-0.63 1.76-0.79 3.57-2.1 5.6-1.61 1.59-0.02 2.26-1.81 1.95-3.16-0.29-1.55-1.18-2.93-1.11-4.56-0.17-2.46 0.2-4.92 0.49-7.35-1.28-1.67-3.47-0.52-5.08-0.12-4.86 1.24-10.09 1.49-14.88-0.15-4.75-1.22-9.41-2.95-14.33-3.36zm22.35 6.08c3.26-0.26 6.58-0.96 9.82-1.37-0.38 4.03-0.73 6.89 0.92 10.73 0.11 2.41-2.75 0.7-4.15 1.5-1.91 1.02-3.98 1.91-6.14 2.06-7.83 0.65-14.19 0.27-21.78-1.81-2.45-0.73-5.2-1.67-5.29-4.5 0.08-2.14 1.11-3.36 1.68-5.36 0.94-1.84 0.37-4.04 2.12-5.4 0.32-0.18 14.65 4.72 22.82 4.15z" sodipodi:nodetypes="ccccccccccccccccccccccc"/>
   <path d="m564.88 481.75c-1.79 0.18-3.22 1.37-4.72 2.41 0.95 1.1 2.27 0.68 3.35 0.5 1.97-0.51 4.57 0.2 5.92 0.93 3.4 2.46 9.03 7.11 13.24 6.97 1.34-0.2 3.89-1.81 5.16-2.22 1.28-0.72-3.69 0.62-5.19 0.42-3.11-0.12-5.47-1.33-8.16-2.82-1.47-0.93-3.17-2.34-4.05-3.81-1.25-1.45-3.74-2.6-5.55-2.38z" sodipodi:nodetypes="cccccccccc"/>
   <path d="m559.47 479.5s-17.69 1.61-24.12 7.24c0.27 4.28 13.93 14.47 31.89 8.57-5.63-2.14-7.77-1.88-8.85-4.55-1.07-2.68-1.6-4.83 1.08-11.26z" sodipodi:nodetypes="ccccc" fill-opacity=".082353"/>
   <path d="m560.4 478.74s-15.54 0.27-21.97 5.9c0.27 4.28 9.11 10.71 27.87 9.37-5.63-2.14-5.9-1.34-6.97-4.02s-1.61-4.82 1.07-11.25z" sodipodi:nodetypes="ccccc" fill-opacity=".082353"/>
  </g>
 </g>
</svg>
