<?xml version="1.0" encoding="UTF-8" standalone="no"?>
<svg xmlns:rdf="http://www.w3.org/1999/02/22-rdf-syntax-ns#" xmlns="http://www.w3.org/2000/svg" sodipodi:docname="hat4.svg" xmlns:sodipodi="http://inkscape.sourceforge.net/DTD/sodipodi-0.dtd" height="128px" sodipodi:version="0.32" width="128px" xmlns:cc="http://web.resource.org/cc/" xmlns:xlink="http://www.w3.org/1999/xlink" sodipodi:docbase="/home/nicu/Desktop/hats" xmlns:dc="http://purl.org/dc/elements/1.1/">
 <sodipodi:namedview bordercolor="#666666" pagecolor="#ffffff" borderopacity="1.0" showguides="true"/>
 <g fill-rule="evenodd" transform="matrix(1.4175 0 0 1.4175 -56.111 -537.3)">
  <path d="m84.873 410.38c-3.389-1.39-5.808-2.58-9.459-2.97-4.708-0.5-9.075 0.03-13.308 2.14-5.27 3.72-9.188 7.62-12.456 13.08-2.956 5.3-4.649 10.18-5.147 16.32 9.083 6.06 18.267 9.8 29.192 10.67 5.364 0.49 7.28 0.11 12.642-0.33 1.979-11.45 4.588-17.53 1.647-28.98-0.475-1.83-3.051-9.4-3.111-9.93z" sodipodi:nodetypes="ccccccccc" fill="#ff0000"/>
  <g>
   <path d="m72.613 406.85c-1.072 0-15.541 2.95-17.685 7.5-2.143 4.56-12.325 22.78-10.985 24.39 1.339 1.6 12.325 8.84 14.737 8.57 2.411-0.27-3.216-30.81 13.933-40.46z" fill-opacity=".082353" sodipodi:nodetypes="ccccc"/>
   <path d="m69.056 408.32c-1.072 0-11.79 0-13.933 4.56-2.144 4.55-12.326 22.77-10.986 24.38s8.306 7.77 10.718 7.5c2.411-0.27-2.947-26.79 14.201-36.44z" fill-opacity=".082353" sodipodi:nodetypes="ccccc"/>
   <path d="m103.72 402.09c-6.054 0.25-13.457 3.71-18.876 6.66-3.39-1.39-6.88-2.58-10.532-2.97-4.707-0.5-9.28 1.62-13.513 3.73-5.27 3.72-8.591 7.58-11.858 13.04-2.957 5.3-5.062 10.65-5.559 16.79 9.083 6.07 17.957 10.07 28.882 10.94 5.363 0.49 11.093 1.04 16.455 0.6 1.979-11.46 2.795-23.76-0.146-35.21-0.476-1.83-1.812-3.26-2.535-5.01 4.327-1.57 10.362-2.02 14.552-0.54 4.43 1.77 8.84 4.57 11 8.97 2.07 4.91-3.82 19.44-1.31 18.35 0.97-0.3 1.13-0.87 2.1-1.16 1.47-11.65 3.61-18.26-4.72-24.66 9.34 3.52 7 21.59 6.68 24.57 1.1-0.33 0.37-1.35 3-1.81 0.71-5.62-0.78-18.95-5.34-22.97-2.14-3.49-8.56-5.36-12.312-6.16 4.822 0 12.582 3.2 15.532 8.56s3.45 19.64 3.59 20.5c0.99-0.29 2.11-0.5 3.41-0.78-0.2-0.95-2.95-10.7-3.25-12.5 2.67 6.92 3.19 7.25 4.81 12.13 1.26-0.27 2.76-0.58 3.44-0.78-1-2.37-3.48-3.75-4.31-6.22-3.19-5.51-4.61-11.8-7.13-17.6-2.3-4.33-7.21-6.84-12.06-6.47zm-30.237 5.12c4.304 0.46 7.321 2.52 11.253 4.27 4.403 10.02 4.79 18.58 3.313 29.18-0.348 2.5-1.178 6.1-1.618 8.59-11.782 1-22.577-1.15-33.431-6.13-3.429-1.52-4.097-2.49-7.25-4.53 0.949-7.14 3.07-11.93 6.906-17.93 2.793-4.08 4.609-7.35 8.795-10.1 4.037-1.78 7.641-3.85 12.032-3.35zm1.611 15.26c1.867 3.29 3.638 1.95 4.187 3.91 0.335 1.48-0.302 2.93-0.781 4.31-0.397 1.16-0.782 2.33-1.188 3.5-0.002 0.81 4.29-5.07 4.407-7.44 0.03-1.87-3.534-4.49-6.625-4.28z" sodipodi:nodetypes="ccccccccccccccccccccccccccccccccccccccccccc"/>
  </g>
 </g>
</svg>
