<?xml version="1.0" encoding="UTF-8" standalone="no"?>
<svg xmlns:rdf="http://www.w3.org/1999/02/22-rdf-syntax-ns#" xmlns="http://www.w3.org/2000/svg" height="200" width="360" version="1.0" xmlns:cc="http://creativecommons.org/ns#" xmlns:dc="http://purl.org/dc/elements/1.1/">
 <g transform="translate(-21.75 -11.093)">
  <g stroke="#000000" transform="translate(-21.875 -690.13)">
   <path d="m126 724.61c11.26 1.51 20.64 1.15 29.25 0l5.25 7.25c22.64 8.58 35.77 7.65 60 21-3.12 10.49-3.71 21.99-13 30-7.75-6.09-15.5-4.8-23.25-6.75v88.25c-29.13 5.3-58.04 6.67-86.5 0v-88.25c-6.741 0.75-12.342 0.2-23.5 6-8.376-6.98-10.991-18.45-13.5-30 25.954-11.67 39.005-13.26 60.25-19.75l5-7.75z" fill-rule="evenodd" stroke-width="2" fill="#ffffff"/>
   <g fill="none">
    <g stroke-width="1px">
     <path d="m125.5 725.61c2.74 8.06 6.68 14.68 12.75 18.75l-7 7.75c-7.73-5.93-8.17-12.68-10.25-19.25"/>
     <path d="m98.5 739.36c2.06 11.05 6.24 24.83-0.25 36.5"/>
     <path d="m100 745.86l22-7.5"/>
     <path d="m64.75 751c1.429 11.5 6.974 20.65 13 28.86"/>
     <path d="m97.75 860.86c28.75 4.1 57.5 5.84 86.25 0"/>
     <path d="m155.5 725.11c-2.74 8.06-6.68 14.68-12.75 18.75l7 7.75c7.73-5.93 8.17-12.68 10.25-19.25"/>
     <path d="m183.5 739.11c-2.06 11.05-6.24 24.83 0.25 36.5"/>
     <path d="m182 745.86l-23.5-8"/>
     <path d="m216.5 751.36c-1.43 11.49-6.97 20.04-13 28.25"/>
     <path d="m128.75 733.36c7.4-2.31 14.94-1.99 23 0"/>
    </g>
    <path d="m138.5 744.11h3.75v23.25h-3.75v-23.25z" stroke-linecap="round"/>
   </g>
  </g>
  <g transform="translate(144.12 -690.13)" stroke="#000000">
   <path d="m126 724.61c11.26 1.51 20.64 1.15 29.25 0l5.25 7.25c22.64 8.58 35.77 7.65 60 21-3.12 10.49-3.71 21.99-13 30-7.75-6.09-15.5-4.8-23.25-6.75v88.25c-29.13 5.3-58.04 6.67-86.5 0v-88.25c-6.741 0.75-12.342 0.2-23.5 6-8.376-6.98-10.991-18.45-13.5-30 25.954-11.67 39.005-13.26 60.25-19.75l5-7.75z" fill-rule="evenodd" stroke-width="2" fill="#ffffff"/>
   <g stroke-width="1px" fill="none">
    <path d="m98.5 739.36c2.06 11.05 6.24 24.83-0.25 36.5"/>
    <path d="m64.547 750.8c1.429 11.49 7.177 20.85 13.203 29.06"/>
    <path d="m97.75 860.86c28.75 4.1 57.5 5.84 86.25 0"/>
    <path d="m183.5 739.11c-2.06 11.05-6.24 24.83 0.25 36.5"/>
    <path d="m216.5 751.36c-1.43 11.49-6.97 20.04-13 28.25"/>
    <path d="m121.66 732.96c4.27 5.62 31.66 6.77 38.6-0.81"/>
   </g>
  </g>
  <g>
   <path d="m170.88 29.782v3.835h1.74c0.64 0 1.14-0.167 1.49-0.499 0.35-0.333 0.53-0.807 0.53-1.422 0-0.611-0.18-1.083-0.53-1.415-0.35-0.333-0.85-0.499-1.49-0.499h-1.74m-1.38-1.135h3.12c1.14 0 2.01 0.26 2.59 0.779 0.59 0.515 0.88 1.272 0.88 2.27 0 1.007-0.29 1.768-0.88 2.283-0.58 0.515-1.45 0.772-2.59 0.772h-1.74v4.102h-1.38v-10.206m10.87 3.432c-0.67 0-1.21 0.264-1.6 0.793-0.39 0.524-0.59 1.244-0.59 2.16s0.2 1.638 0.59 2.167c0.39 0.524 0.92 0.786 1.6 0.786 0.67 0 1.2-0.264 1.59-0.793 0.4-0.529 0.59-1.249 0.59-2.16 0-0.907-0.19-1.625-0.59-2.154-0.39-0.533-0.92-0.799-1.59-0.799m0-1.067c1.1 0 1.95 0.356 2.58 1.067 0.62 0.711 0.94 1.695 0.94 2.953 0 1.253-0.32 2.237-0.94 2.953-0.63 0.711-1.48 1.066-2.58 1.066s-1.96-0.355-2.58-1.066c-0.62-0.716-0.93-1.7-0.93-2.953 0-1.258 0.31-2.242 0.93-2.953s1.48-1.067 2.58-1.067m5.59-2.796h1.26v10.637h-1.26v-10.637m6.85 3.863c-0.67 0-1.2 0.264-1.6 0.793-0.39 0.524-0.58 1.244-0.58 2.16s0.19 1.638 0.58 2.167c0.39 0.524 0.92 0.786 1.6 0.786 0.67 0 1.2-0.264 1.6-0.793 0.39-0.529 0.58-1.249 0.58-2.16 0-0.907-0.19-1.625-0.58-2.154-0.4-0.533-0.93-0.799-1.6-0.799m0-1.067c1.1 0 1.96 0.356 2.58 1.067s0.94 1.695 0.94 2.953c0 1.253-0.32 2.237-0.94 2.953-0.62 0.711-1.48 1.066-2.58 1.066s-1.96-0.355-2.58-1.066c-0.62-0.716-0.93-1.7-0.93-2.953 0-1.258 0.31-2.242 0.93-2.953s1.48-1.067 2.58-1.067m16.22-2.03v1.347c-0.52-0.251-1.01-0.438-1.48-0.561-0.46-0.123-0.91-0.185-1.35-0.185-0.75 0-1.33 0.146-1.74 0.438-0.4 0.292-0.61 0.706-0.61 1.244 0 0.451 0.14 0.793 0.41 1.025 0.27 0.228 0.79 0.413 1.54 0.554l0.84 0.171c1.03 0.196 1.78 0.542 2.27 1.039 0.49 0.492 0.74 1.153 0.74 1.983 0 0.989-0.33 1.738-1 2.249-0.66 0.51-1.63 0.765-2.91 0.765-0.48 0-1-0.054-1.54-0.164-0.55-0.109-1.11-0.271-1.69-0.485v-1.422c0.56 0.314 1.11 0.551 1.64 0.711 0.54 0.159 1.07 0.239 1.59 0.239 0.79 0 1.4-0.155 1.83-0.465 0.42-0.31 0.64-0.752 0.64-1.326 0-0.501-0.16-0.893-0.47-1.176-0.3-0.282-0.81-0.494-1.51-0.635l-0.84-0.164c-1.03-0.206-1.77-0.527-2.23-0.964-0.46-0.438-0.69-1.046-0.69-1.826 0-0.902 0.31-1.613 0.95-2.132 0.63-0.52 1.51-0.78 2.63-0.78 0.48 0 0.96 0.044 1.46 0.13 0.5 0.087 1.01 0.217 1.52 0.39m9.11 5.25v4.621h-1.26v-4.58c0-0.725-0.14-1.267-0.42-1.627s-0.71-0.54-1.27-0.54c-0.68 0-1.22 0.216-1.61 0.649s-0.59 1.023-0.59 1.771v4.327h-1.26v-10.637h1.26v4.17c0.3-0.46 0.66-0.804 1.06-1.032 0.41-0.228 0.88-0.342 1.42-0.342 0.88 0 1.54 0.274 1.99 0.82 0.45 0.543 0.68 1.343 0.68 2.4m2.52-3.035h1.26v7.656h-1.26v-7.656m0-2.981h1.26v1.593h-1.26v-1.593m8.32 4.157c-0.14-0.082-0.29-0.142-0.46-0.178-0.17-0.041-0.35-0.062-0.55-0.062-0.71 0-1.26 0.233-1.64 0.698-0.38 0.46-0.57 1.123-0.57 1.989v4.033h-1.26v-7.656h1.26v1.189c0.27-0.465 0.61-0.809 1.03-1.032 0.43-0.228 0.94-0.342 1.55-0.342 0.09 0 0.18 0.007 0.29 0.021 0.1 0.009 0.22 0.025 0.35 0.048v1.292m2.58-3.35v2.174h2.59v0.977h-2.59v4.157c0 0.624 0.08 1.025 0.25 1.203 0.18 0.177 0.52 0.266 1.05 0.266h1.29v1.053h-1.29c-0.97 0-1.64-0.18-2.01-0.54-0.37-0.365-0.56-1.025-0.56-1.982v-4.157h-0.92v-0.977h0.92v-2.174h1.27"/>
   <path d="m106.54 186.51v3.07h4.61v0.93h-4.61v3.34h-1.12v-8.25h5.87v0.91h-4.75m6.07 7.34v-4.86c0-0.13-0.01-0.27-0.01-0.4 0-0.15 0-0.28-0.01-0.41 0-0.13 0-0.25-0.01-0.36 0-0.12 0-0.22-0.01-0.31h1c0 0.09 0.01 0.2 0.01 0.31 0.01 0.12 0.01 0.23 0.02 0.36 0 0.12 0.01 0.23 0.01 0.35v0.28h0.03c0.07-0.24 0.15-0.45 0.23-0.63 0.09-0.18 0.19-0.33 0.3-0.44 0.11-0.12 0.25-0.2 0.41-0.26 0.15-0.05 0.34-0.08 0.56-0.08 0.09 0 0.17 0 0.25 0.02 0.08 0.01 0.14 0.02 0.18 0.03v0.97c-0.07-0.02-0.15-0.03-0.24-0.04-0.1-0.01-0.2-0.02-0.32-0.02-0.24 0-0.45 0.06-0.62 0.17s-0.31 0.26-0.42 0.45c-0.1 0.2-0.18 0.43-0.23 0.7-0.05 0.26-0.08 0.55-0.08 0.87v3.3h-1.05m9.34-3.17c0 1.11-0.24 1.93-0.73 2.48-0.49 0.54-1.2 0.81-2.13 0.81-0.44 0-0.83-0.07-1.18-0.2s-0.64-0.33-0.89-0.61c-0.23-0.27-0.42-0.61-0.55-1.02-0.12-0.42-0.18-0.9-0.18-1.46 0-2.19 0.94-3.28 2.84-3.28 0.49 0 0.91 0.06 1.27 0.2s0.65 0.34 0.88 0.62c0.23 0.27 0.4 0.61 0.51 1.02s0.16 0.89 0.16 1.44m-1.11 0c0-0.49-0.03-0.9-0.11-1.22s-0.19-0.58-0.34-0.77c-0.14-0.19-0.32-0.32-0.53-0.4s-0.45-0.11-0.71-0.11c-0.27 0-0.52 0.04-0.74 0.12-0.21 0.08-0.4 0.21-0.55 0.41-0.15 0.19-0.27 0.45-0.35 0.77s-0.12 0.72-0.12 1.2c0 0.49 0.05 0.9 0.13 1.22 0.09 0.32 0.21 0.58 0.35 0.77 0.16 0.19 0.33 0.33 0.54 0.4 0.2 0.08 0.43 0.12 0.67 0.12 0.27 0 0.51-0.04 0.73-0.11 0.22-0.08 0.41-0.21 0.56-0.4 0.15-0.2 0.27-0.45 0.35-0.78 0.08-0.32 0.12-0.73 0.12-1.22m6.46 3.17v-4.02c0-0.31-0.03-0.56-0.07-0.77-0.05-0.21-0.12-0.37-0.22-0.5s-0.24-0.22-0.41-0.27c-0.16-0.05-0.36-0.08-0.61-0.08s-0.48 0.05-0.68 0.14c-0.2 0.08-0.37 0.21-0.52 0.38-0.14 0.16-0.25 0.37-0.32 0.61-0.08 0.24-0.12 0.52-0.12 0.84v3.67h-1.06v-4.98-0.42c0-0.15 0-0.29-0.01-0.42 0-0.13-0.01-0.24-0.01-0.34 0-0.09-0.01-0.15-0.01-0.18h0.99c0.01 0.02 0.01 0.08 0.02 0.16 0 0.09 0 0.19 0.01 0.3s0.01 0.22 0.02 0.34v0.29h0.02c0.1-0.19 0.21-0.35 0.33-0.5s0.27-0.27 0.43-0.38c0.16-0.1 0.34-0.18 0.55-0.24 0.2-0.05 0.44-0.08 0.72-0.08 0.35 0 0.65 0.04 0.9 0.12 0.26 0.09 0.47 0.22 0.63 0.4 0.17 0.18 0.29 0.42 0.36 0.7 0.08 0.28 0.12 0.62 0.12 1.01v4.22h-1.06m5.09-0.04c-0.16 0.04-0.33 0.07-0.49 0.1-0.17 0.02-0.36 0.04-0.58 0.04-0.84 0-1.26-0.48-1.26-1.44v-4.23h-0.74v-0.77h0.78l0.31-1.41h0.7v1.41h1.17v0.77h-1.17v4c0 0.31 0.05 0.52 0.15 0.65 0.1 0.12 0.27 0.18 0.52 0.18 0.1 0 0.2-0.01 0.29-0.02 0.1-0.02 0.2-0.04 0.32-0.06v0.78"/>
   <path d="m278.76 191.53c0 0.41-0.08 0.77-0.24 1.07-0.17 0.29-0.39 0.53-0.67 0.72-0.27 0.18-0.6 0.32-0.96 0.4-0.37 0.09-0.76 0.13-1.16 0.13h-3.35v-8.25h3c0.45 0 0.86 0.04 1.22 0.11 0.36 0.08 0.66 0.2 0.91 0.36 0.25 0.17 0.44 0.37 0.57 0.63 0.14 0.25 0.2 0.55 0.2 0.9 0 0.23-0.03 0.45-0.1 0.65-0.06 0.2-0.16 0.39-0.29 0.56-0.13 0.16-0.29 0.3-0.49 0.43-0.2 0.11-0.43 0.2-0.69 0.26 0.33 0.04 0.63 0.11 0.88 0.23 0.26 0.11 0.47 0.26 0.65 0.43 0.17 0.18 0.3 0.38 0.39 0.62 0.09 0.23 0.13 0.48 0.13 0.75m-1.6-3.79c0-0.45-0.16-0.77-0.46-0.96s-0.75-0.29-1.32-0.29h-1.89v2.62h1.89c0.32 0 0.6-0.03 0.83-0.1 0.22-0.06 0.41-0.16 0.55-0.27 0.14-0.12 0.24-0.27 0.3-0.44 0.07-0.16 0.1-0.35 0.1-0.56m0.47 3.7c0-0.26-0.05-0.49-0.14-0.67-0.1-0.18-0.24-0.33-0.42-0.45-0.17-0.12-0.39-0.2-0.65-0.26-0.25-0.05-0.53-0.08-0.84-0.08h-2.09v2.98h2.18c0.28 0 0.55-0.03 0.78-0.07 0.25-0.05 0.45-0.13 0.62-0.25 0.18-0.12 0.32-0.27 0.42-0.47 0.09-0.19 0.14-0.44 0.14-0.73m4.18 2.53c-0.64 0-1.12-0.17-1.44-0.5-0.32-0.34-0.48-0.8-0.48-1.39 0-0.41 0.08-0.76 0.24-1.02 0.16-0.27 0.36-0.48 0.62-0.63 0.26-0.16 0.55-0.26 0.88-0.32s0.66-0.09 1-0.1l1.42-0.02v-0.35c0-0.26-0.02-0.48-0.08-0.67-0.05-0.18-0.14-0.33-0.25-0.44-0.11-0.12-0.26-0.2-0.43-0.25s-0.37-0.08-0.6-0.08c-0.2 0-0.38 0.01-0.55 0.05-0.16 0.02-0.3 0.08-0.42 0.15-0.13 0.08-0.22 0.18-0.3 0.31-0.07 0.13-0.12 0.3-0.14 0.5l-1.11-0.1c0.04-0.25 0.12-0.48 0.23-0.69s0.26-0.39 0.46-0.54c0.2-0.16 0.46-0.27 0.76-0.36 0.3-0.08 0.67-0.12 1.1-0.12 0.79 0 1.39 0.18 1.8 0.55 0.4 0.36 0.6 0.89 0.6 1.58v2.73c0 0.31 0.04 0.55 0.12 0.71 0.08 0.15 0.24 0.23 0.47 0.23 0.06 0 0.12 0 0.18-0.01s0.11-0.02 0.17-0.03v0.66c-0.14 0.03-0.27 0.05-0.4 0.07-0.13 0.01-0.27 0.02-0.42 0.02-0.2 0-0.37-0.02-0.51-0.07-0.14-0.06-0.26-0.14-0.35-0.24-0.09-0.11-0.16-0.25-0.2-0.4-0.05-0.16-0.08-0.35-0.09-0.56h-0.04c-0.11 0.2-0.23 0.39-0.37 0.55-0.13 0.16-0.29 0.31-0.47 0.42-0.18 0.12-0.39 0.2-0.62 0.27-0.22 0.06-0.48 0.09-0.78 0.09m0.24-0.79c0.34 0 0.63-0.06 0.88-0.18 0.25-0.13 0.46-0.29 0.63-0.48 0.16-0.19 0.29-0.4 0.37-0.62 0.08-0.23 0.12-0.45 0.12-0.65v-0.53l-1.15 0.03c-0.26 0-0.5 0.02-0.74 0.06-0.23 0.03-0.43 0.09-0.61 0.19-0.17 0.1-0.31 0.23-0.42 0.41-0.1 0.18-0.15 0.41-0.15 0.69 0 0.34 0.09 0.61 0.27 0.8 0.19 0.19 0.46 0.28 0.8 0.28m5.62-2.53c0 0.37 0.03 0.7 0.08 1.01 0.06 0.3 0.15 0.56 0.27 0.79 0.13 0.22 0.29 0.39 0.49 0.51 0.21 0.12 0.46 0.18 0.76 0.18 0.38 0 0.69-0.1 0.94-0.31 0.26-0.2 0.41-0.51 0.47-0.93l1.07 0.07c-0.04 0.26-0.11 0.51-0.23 0.75s-0.28 0.46-0.48 0.64-0.45 0.33-0.73 0.45c-0.29 0.11-0.63 0.16-1.01 0.16-0.49 0-0.91-0.08-1.26-0.25s-0.63-0.4-0.85-0.69c-0.22-0.3-0.37-0.65-0.47-1.05s-0.15-0.83-0.15-1.3c0-0.43 0.04-0.8 0.11-1.13s0.17-0.61 0.29-0.85c0.13-0.25 0.28-0.45 0.45-0.62s0.36-0.3 0.56-0.4 0.42-0.17 0.64-0.21c0.22-0.05 0.45-0.07 0.67-0.07 0.36 0 0.67 0.04 0.95 0.14s0.52 0.23 0.72 0.41c0.2 0.16 0.36 0.36 0.49 0.59 0.12 0.23 0.21 0.48 0.26 0.75l-1.08 0.08c-0.06-0.35-0.2-0.63-0.42-0.84-0.22-0.2-0.54-0.31-0.95-0.31-0.3 0-0.55 0.05-0.75 0.15s-0.36 0.25-0.49 0.46c-0.12 0.19-0.21 0.45-0.27 0.75-0.05 0.31-0.08 0.66-0.08 1.07m9.2 3.2l-2.15-2.89-0.77 0.64v2.25h-1.05v-8.69h1.05v5.43l2.78-3.08h1.24l-2.57 2.73 2.7 3.61h-1.23"/>
  </g>
 </g>
</svg>
