<?xml version="1.0" encoding="UTF-8" standalone="no"?>
<svg xmlns:rdf="http://www.w3.org/1999/02/22-rdf-syntax-ns#" xmlns="http://www.w3.org/2000/svg" sodipodi:docname="tie.svg" xmlns:sodipodi="http://inkscape.sourceforge.net/DTD/sodipodi-0.dtd" height="128px" sodipodi:version="0.32" width="128px" xmlns:cc="http://web.resource.org/cc/" xmlns:xlink="http://www.w3.org/1999/xlink" sodipodi:docbase="/home/nicu/Desktop/hats" xmlns:dc="http://purl.org/dc/elements/1.1/">
 <sodipodi:namedview bordercolor="#666666" pagecolor="#ffffff" borderopacity="1.0" showguides="true"/>
 <g fill-rule="evenodd" transform="matrix(2.4911 0 0 2.4911 -297.26 -1393.7)">
  <path d="m124.77 575.28c-2.12 0.1-2.38 2.53-2.15 4.37-0.08 2 0.99 3.75 0.81 5.72-0.29 2.1-1.67 3.73-1.19 5.92 0.72 1.79 2.65 0.64 4.15 0.68 4.01-0.19 7.52-0.92 11.48-1.53 1.74 0.89 2.29 3.71 4.7 3.44 2.65 0.81 4.52-1.05 6.39-2.68 4.72 2.59 10.23 4.21 15.57 5.28 1.89-0.01 1.71-1.48 1.76-3.01-0.02-1.97 0.03-3.97 0.49-5.92 0.41-2.6 1.6-4.59 1.16-7.23-0.66-2.42-3.69-3.25-5.84-2.37-4.18 0.72-8.21 2.09-12.15 3.62 0.08-2.83-2.96-4.52-5.5-4.45-1.54 0.04-3.35 0.38-4.11 1.9-0.52 1.65-2.16 1.89-3.24 0.67-3.91-1.77-7.97-4.13-12.33-4.41z" sodipodi:nodetypes="cccccccccccccccccc" fill="#66cc66"/>
  <g>
   <g fill-opacity=".082353">
    <path d="m137.76 586.97s1.09 3.48-0.1 3.48c-1.2 0-6.75 1.31-7.62 1.42-0.87 0.1-6.97 0.98-7.62-0.22s1.96-6.86 5.22-6.64c3.27 0.22 9.47 1.52 10.12 1.96z"/>
    <path d="m136.77 588.35s1.74 2.17 0.55 2.17c-1.2 0-6.75 1.31-7.62 1.42s-5.88 0.76-6.53-0.44 3.05-5.55 6.31-5.33c3.27 0.22 6.64 1.74 7.29 2.18z" sodipodi:nodetypes="cccccc"/>
    <path d="m141.9 577.39s-0.65 1.09-1.41 2.07c-0.77 0.98-1.53 0.98-1.53 2.18 0 1.19-0.87 2.06-0.43 2.83 4.02-0.22 7.29-4.14 8.16-6.75-0.44-1.2-3.92-0.87-4.79-0.33z" sodipodi:nodetypes="cccccc"/>
    <path d="m141.91 577.15s-0.66 1.09-1.42 2.07c-0.76 0.97-1.52 0.97-1.52 2.17s-0.76 1.2-0.33 1.96c4.03-0.22 5.66-3.48 6.53-6.09-0.43-1.2-2.39-0.66-3.26-0.11z" sodipodi:nodetypes="cccccc"/>
    <path d="m149.19 587.73s-0.87 2.72-0.43 3.16c0.43 0.43 9.14 5.22 11.31 4.89 2.18-0.32-6.2-9.25-7.51-9.79-1.3-0.54-3.37 0.76-3.37 1.74z" sodipodi:nodetypes="ccccc"/>
    <path d="m149.18 587.68s-0.87 2.72-0.43 3.15c0.43 0.44 7.29 3.92 9.9 4.47 2.17-0.33-5.55-7.84-6.86-8.38-1.3-0.55-2.61-0.22-2.61 0.76z" sodipodi:nodetypes="ccccc"/>
   </g>
   <path d="m125.12 574.91c-2.12 0.1-3.03 2.41-2.8 4.26-0.08 1.99 0.99 3.86 0.81 5.83-0.29 2.1-2.11 3.95-1.62 6.14 0.72 1.79 2.86 1.18 4.36 1.22 4.01-0.2 7.95-1.03 11.91-1.64 1.74 0.89 2.19 3.93 4.6 3.66 2.65 0.81 5.06-1.16 6.93-2.79 4.61 3.03 10.02 4.53 15.35 5.61 1.89-0.01 1.82-2.89 1.87-4.42-0.01-1.98 0.36-3.32 0.82-5.28 0.4-2.6 1.27-5.24 0.83-7.88-0.66-2.42-3.69-3.25-5.84-2.37-4.17 0.72-8.21 2.09-12.15 3.63 0.08-2.84-2.96-4.53-5.5-4.46-1.53 0.04-3.35 0.38-4.11 1.9-0.52 1.65-2.16 1.89-3.24 0.67-3.91-1.77-7.86-3.8-12.22-4.08zm-0.07 0.56c4.57 0.38 8.78 3.05 12.89 4.91 1.73 0.64-0.89 2.92 1 4.75-0.39-1.08-0.23-3.91 0.76-4.52 1.22-0.92 1.3-2.7 3.38-2.94 2.25-0.75 5.25 0.13 6.14 2.49 0.45 1.6 1.62 2.67 0.72 5.32 1.65-1.26-0.59-4.1 1.85-4.11 4.17-1.54 8.22-3.05 12.71-3.25 2.11-0.04 3.6 2.12 3.32 3.84-0.28 2.9-1.94 5.91-1.7 8.86-0.22 1.62 0.59 3.92-0.86 5.04-2.14 0.81-3.95-0.62-6.04-0.86-3.26-1.08-7.28-1.91-10.03-4.03-0.05-1.33 1.71-2.18-0.07-3.7 0.38 1.58-0.41 2.72-1.43 4.35-1.98 2.61-7.58 2.65-8.76-0.68-0.44-0.68-1.04-2.61 0.03-3.86-0.74-0.63-1.96-0.81-3.55-1.37-3.09-1.25-6.54-1.56-9.82-0.96 2.68 0.37 9.16 1.28 11.72 2.84 0.49 0.91 1.05 2.62-0.73 2.36-2.85 0.55-4.45 1.28-7.33 1.7-1.72-0.01-5.52 0.29-6.74-0.77-0.27-2.39 1.63-3.89 1.21-6.33 0.05-2.47-1.34-5.53 0.09-7.88 0.26-0.53 0.66-1.21 1.24-1.2zm29.03 10.31c-0.95 0.01-1.73-0.1-2.67 0.1 2.98 1.35 6.64 0.31 9.46-0.86 1.6-0.78 2.53-2.56 3.85-3.75-3.05 2.25-6.82 4.42-10.64 4.51z" sodipodi:nodetypes="cccccccccccccccccccccccccccccccccccccccccccccccccc"/>
  </g>
 </g>
</svg>
