<?xml version="1.0" encoding="UTF-8" standalone="no"?>
<svg xmlns:rdf="http://www.w3.org/1999/02/22-rdf-syntax-ns#" xmlns="http://www.w3.org/2000/svg" height="200" width="360" version="1.0" xmlns:cc="http://creativecommons.org/ns#" xmlns:dc="http://purl.org/dc/elements/1.1/">
 <g transform="translate(-21.75 -11.093)">
  <g transform="translate(-28.569 -500.63)" stroke="#000000">
   <path d="m67.614 570.42c24.468-13.1 45.356-11.78 66.046-23.06 11.09 2.43 19.35 1.45 26.99-0.27 23.43 10.79 44.03 12.52 66.04 23.59-1.83 11.56-5.86 21.55-12.58 29.61-8.15-4.37-15.87-6.1-23.32-6.29l-0.53 78.62c-32.12 5.99-59.35 3.4-85.96-0.26l-0.26-78.09c-9.369-0.28-16.499 3.19-23.847 6.29-7.067-9.64-10.369-19.81-12.579-30.14z" fill-rule="evenodd" stroke-width="2" fill="#ffffff"/>
   <g stroke-width="1px" fill="none">
    <path d="m71.283 569.11c2.214 10.75 6.083 20.78 13.627 29.35"/>
    <path d="m105.35 668.17c28.13 4.6 56.26 5.59 84.39-0.26"/>
    <path d="m133.39 547.62c-0.23 2.32 1.7 12.73 13.89 13.36 11.94 0.62 14.28-11.53 13.89-13.1"/>
    <path d="m128.21 550.42c-0.23 2.32 4.58 15.11 18.35 15.46 14.03 0.36 19.78-14.68 19.39-16.25"/>
    <path d="m134.52 552.33c8.54 2.24 16.08 1.76 25.32-0.2"/>
    <path d="m104.16 558.28c2.58 9.89 6.84 21.49-0.26 35.38"/>
    <path d="m190.38 558.48c-2.58 9.89-6.84 21.49 0.26 35.38"/>
    <path d="m223.28 568.84c-2.21 10.75-6.08 20.79-13.62 29.36"/>
   </g>
  </g>
  <g transform="translate(137.77 -500.63)" stroke="#000000">
   <path d="m67.614 570.42c24.468-13.1 45.356-11.78 66.046-23.06 11.09 2.43 19.35 1.45 26.99-0.27 23.43 10.79 44.03 12.52 66.04 23.59-1.83 11.56-5.86 21.55-12.58 29.61-8.15-4.37-15.87-6.1-23.32-6.29l-0.53 78.62c-32.12 5.99-59.35 3.4-85.96-0.26l-0.26-78.09c-9.369-0.28-16.499 3.19-23.847 6.29-7.067-9.64-10.369-19.81-12.579-30.14z" fill-rule="evenodd" stroke-width="2" fill="#ffffff"/>
   <g stroke-width="1px" fill="none">
    <path d="m71.283 569.11c2.214 10.75 6.083 20.78 13.627 29.35"/>
    <path d="m105.35 668.17c28.13 4.6 56.26 5.59 84.39-0.26"/>
    <path d="m128.67 549.91c8.01 6.19 27.91 6.58 36.62-0.2"/>
    <path d="m104.16 558.28c2.58 9.89 6.84 21.49-0.26 35.38"/>
    <path d="m190.38 558.48c-2.58 9.89-6.84 21.49 0.26 35.38"/>
    <path d="m223.28 568.84c-2.21 10.75-6.08 20.79-13.62 29.36"/>
   </g>
  </g>
  <g>
   <path d="m161.72 32.147h2.05l2.61 6.945 2.62-6.945h2.05v10.206h-1.34v-8.962l-2.64 7h-1.38l-2.63-7v8.962h-1.34v-10.206m15.48 6.357c-1.02 0-1.72 0.117-2.11 0.349-0.4 0.232-0.59 0.629-0.59 1.189 0 0.447 0.14 0.803 0.44 1.067 0.29 0.26 0.69 0.389 1.2 0.389 0.7 0 1.25-0.246 1.67-0.738 0.43-0.497 0.64-1.155 0.64-1.975v-0.281h-1.25m2.51-0.519v4.368h-1.26v-1.162c-0.29 0.465-0.65 0.809-1.07 1.032-0.43 0.219-0.96 0.328-1.58 0.328-0.78 0-1.4-0.219-1.87-0.656-0.46-0.442-0.69-1.032-0.69-1.771 0-0.861 0.29-1.51 0.86-1.948 0.58-0.437 1.44-0.656 2.59-0.656h1.76v-0.123c0-0.579-0.19-1.025-0.57-1.34-0.38-0.319-0.92-0.478-1.6-0.478-0.44 0-0.87 0.052-1.28 0.157-0.42 0.105-0.82 0.262-1.2 0.471v-1.162c0.46-0.177 0.91-0.31 1.34-0.396 0.43-0.091 0.86-0.137 1.27-0.137 1.1 0 1.93 0.287 2.48 0.861 0.54 0.575 0.82 1.445 0.82 2.612m2.62-6.269h1.26v10.637h-1.26v-10.637m10.43 6.494v0.616h-5.78c0.06 0.866 0.32 1.526 0.78 1.982 0.47 0.451 1.12 0.677 1.96 0.677 0.48 0 0.95-0.059 1.4-0.178 0.45-0.118 0.9-0.296 1.35-0.533v1.189c-0.45 0.192-0.91 0.338-1.39 0.438-0.47 0.1-0.95 0.15-1.44 0.15-1.22 0-2.19-0.355-2.91-1.066-0.71-0.711-1.06-1.673-1.06-2.885 0-1.253 0.34-2.247 1.01-2.98 0.68-0.739 1.59-1.108 2.74-1.108 1.03 0 1.84 0.333 2.44 0.998 0.6 0.661 0.9 1.561 0.9 2.7m-1.25-0.369c-0.01-0.688-0.21-1.237-0.58-1.647-0.38-0.41-0.88-0.615-1.5-0.615-0.7 0-1.26 0.198-1.68 0.594-0.42 0.397-0.66 0.955-0.73 1.675l4.49-0.007m6.39-5.694h8.63v1.162h-3.62v9.044h-1.39v-9.044h-3.62v-1.162m8.02 5.81h3.69v1.122h-3.69v-1.122m11.87-5.475v1.347c-0.52-0.251-1.02-0.438-1.48-0.561-0.47-0.123-0.92-0.185-1.35-0.185-0.75 0-1.33 0.146-1.74 0.438s-0.61 0.706-0.61 1.244c0 0.451 0.13 0.793 0.4 1.025 0.28 0.228 0.79 0.413 1.55 0.554l0.83 0.171c1.03 0.196 1.79 0.542 2.28 1.039 0.49 0.492 0.74 1.153 0.74 1.983 0 0.989-0.34 1.738-1 2.249-0.66 0.51-1.63 0.765-2.91 0.765-0.49 0-1-0.054-1.55-0.164-0.54-0.109-1.1-0.271-1.69-0.485v-1.422c0.56 0.314 1.11 0.551 1.65 0.711 0.54 0.159 1.07 0.239 1.59 0.239 0.78 0 1.39-0.155 1.82-0.465s0.64-0.752 0.64-1.326c0-0.501-0.15-0.893-0.46-1.176-0.31-0.282-0.81-0.494-1.51-0.635l-0.84-0.164c-1.03-0.206-1.78-0.527-2.24-0.964-0.46-0.438-0.69-1.046-0.69-1.826 0-0.902 0.32-1.613 0.95-2.132 0.64-0.52 1.52-0.78 2.63-0.78 0.48 0 0.97 0.044 1.47 0.13 0.49 0.087 1 0.217 1.52 0.39m9.11 5.25v4.621h-1.26v-4.58c0-0.725-0.14-1.267-0.43-1.627-0.28-0.36-0.7-0.54-1.27-0.54-0.68 0-1.21 0.216-1.6 0.649-0.4 0.433-0.59 1.023-0.59 1.771v4.327h-1.27v-10.637h1.27v4.17c0.3-0.46 0.65-0.804 1.06-1.032s0.88-0.342 1.41-0.342c0.88 0 1.55 0.274 2 0.82 0.45 0.543 0.68 1.343 0.68 2.4m2.52-3.035h1.26v7.656h-1.26v-7.656m0-2.981h1.26v1.593h-1.26v-1.593m8.32 4.157c-0.14-0.083-0.3-0.142-0.47-0.178-0.16-0.041-0.34-0.062-0.54-0.062-0.71 0-1.26 0.233-1.64 0.698-0.38 0.46-0.57 1.123-0.57 1.989v4.033h-1.27v-7.656h1.27v1.189c0.26-0.465 0.61-0.809 1.03-1.032 0.42-0.228 0.94-0.342 1.55-0.342 0.08 0 0.18 0.007 0.28 0.021 0.11 0.009 0.22 0.025 0.35 0.048l0.01 1.292m2.57-3.35v2.174h2.6v0.977h-2.6v4.157c0 0.624 0.09 1.025 0.26 1.203 0.17 0.177 0.52 0.266 1.04 0.266h1.3v1.053h-1.3c-0.97 0-1.64-0.18-2.01-0.54-0.37-0.365-0.55-1.025-0.55-1.982v-4.157h-0.92v-0.977h0.92v-2.174h1.26"/>
   <path d="m106.22 183.01v3.07h4.6v0.93h-4.6v3.34h-1.12v-8.25h5.87v0.91h-4.75m6.06 7.34v-4.86-0.4c0-0.15 0-0.28-0.01-0.41 0-0.13-0.01-0.25-0.01-0.36 0-0.12-0.01-0.22-0.01-0.31h0.99c0.01 0.09 0.01 0.2 0.02 0.31 0 0.12 0.01 0.23 0.01 0.36 0.01 0.12 0.02 0.23 0.02 0.35v0.28h0.03c0.07-0.24 0.15-0.45 0.23-0.63 0.09-0.18 0.19-0.33 0.3-0.44 0.11-0.12 0.25-0.2 0.4-0.26 0.16-0.05 0.35-0.08 0.57-0.08 0.09 0 0.17 0 0.25 0.02 0.08 0.01 0.14 0.02 0.18 0.03v0.97c-0.07-0.02-0.15-0.03-0.25-0.04-0.09-0.01-0.2-0.02-0.31-0.02-0.25 0-0.45 0.06-0.62 0.17s-0.31 0.26-0.42 0.45c-0.11 0.2-0.18 0.43-0.24 0.7-0.05 0.26-0.07 0.55-0.07 0.87v3.3h-1.06m9.35-3.17c0 1.11-0.24 1.93-0.73 2.48-0.49 0.54-1.2 0.81-2.13 0.81-0.44 0-0.84-0.07-1.18-0.2-0.35-0.13-0.65-0.33-0.89-0.61-0.24-0.27-0.42-0.61-0.55-1.02-0.12-0.42-0.19-0.9-0.19-1.46 0-2.19 0.95-3.28 2.85-3.28 0.49 0 0.91 0.06 1.27 0.2s0.65 0.34 0.88 0.62c0.23 0.27 0.4 0.61 0.51 1.02 0.1 0.41 0.16 0.89 0.16 1.44m-1.11 0c0-0.49-0.04-0.9-0.12-1.22-0.07-0.32-0.18-0.58-0.33-0.77-0.14-0.19-0.32-0.32-0.53-0.4s-0.45-0.11-0.72-0.11-0.51 0.04-0.73 0.12c-0.21 0.08-0.4 0.21-0.55 0.41-0.15 0.19-0.27 0.45-0.35 0.77s-0.12 0.72-0.12 1.2c0 0.49 0.04 0.9 0.13 1.22s0.2 0.58 0.35 0.77 0.33 0.33 0.53 0.4c0.21 0.08 0.44 0.12 0.68 0.12 0.27 0 0.51-0.04 0.73-0.11 0.22-0.08 0.41-0.21 0.56-0.4 0.15-0.2 0.27-0.45 0.35-0.78 0.08-0.32 0.12-0.73 0.12-1.22m6.45 3.17v-4.02c0-0.31-0.02-0.56-0.07-0.77-0.04-0.21-0.11-0.37-0.21-0.5-0.11-0.13-0.24-0.22-0.41-0.27-0.16-0.05-0.37-0.08-0.61-0.08-0.25 0-0.48 0.05-0.68 0.14-0.2 0.08-0.37 0.21-0.52 0.38-0.14 0.16-0.25 0.37-0.33 0.61-0.07 0.24-0.11 0.52-0.11 0.84v3.67h-1.06v-4.98-0.42c0-0.15-0.01-0.29-0.01-0.42s-0.01-0.24-0.01-0.34c-0.01-0.09-0.01-0.15-0.01-0.18h0.99c0.01 0.02 0.01 0.08 0.01 0.16 0.01 0.09 0.01 0.19 0.02 0.3 0 0.11 0.01 0.22 0.01 0.34 0.01 0.11 0.01 0.21 0.01 0.29h0.02c0.1-0.19 0.21-0.35 0.33-0.5s0.26-0.27 0.42-0.38c0.16-0.1 0.35-0.18 0.55-0.24 0.21-0.05 0.45-0.08 0.72-0.08 0.36 0 0.66 0.04 0.91 0.12 0.26 0.09 0.47 0.22 0.63 0.4s0.28 0.42 0.36 0.7c0.07 0.28 0.11 0.62 0.11 1.01v4.22h-1.06m5.1-0.04c-0.17 0.04-0.33 0.07-0.5 0.1-0.16 0.02-0.35 0.04-0.57 0.04-0.85 0-1.27-0.48-1.27-1.44v-4.23h-0.73v-0.77h0.77l0.31-1.41h0.71v1.41h1.17v0.77h-1.17v4c0 0.31 0.05 0.52 0.14 0.65 0.11 0.12 0.28 0.18 0.53 0.18 0.1 0 0.19-0.01 0.29-0.02 0.1-0.02 0.2-0.04 0.32-0.06v0.78"/>
   <path d="m278.44 188.03c0 0.41-0.08 0.77-0.25 1.07-0.16 0.29-0.38 0.53-0.66 0.72-0.28 0.18-0.6 0.32-0.97 0.4-0.36 0.09-0.75 0.13-1.16 0.13h-3.35v-8.25h3c0.46 0 0.87 0.04 1.23 0.11 0.36 0.08 0.66 0.2 0.91 0.36 0.25 0.17 0.44 0.37 0.57 0.63 0.13 0.25 0.2 0.55 0.2 0.9 0 0.23-0.03 0.45-0.1 0.65-0.06 0.2-0.16 0.39-0.29 0.56-0.13 0.16-0.3 0.3-0.5 0.43-0.19 0.11-0.42 0.2-0.68 0.26 0.33 0.04 0.62 0.11 0.88 0.23 0.26 0.11 0.47 0.26 0.64 0.43 0.17 0.18 0.31 0.38 0.39 0.62 0.09 0.23 0.14 0.48 0.14 0.75m-1.61-3.79c0-0.45-0.15-0.77-0.45-0.96-0.31-0.19-0.75-0.29-1.33-0.29h-1.88v2.62h1.88c0.33 0 0.61-0.03 0.84-0.1 0.22-0.06 0.41-0.16 0.55-0.27 0.14-0.12 0.24-0.27 0.3-0.44 0.06-0.16 0.09-0.35 0.09-0.56m0.48 3.7c0-0.26-0.05-0.49-0.15-0.67-0.09-0.18-0.23-0.33-0.41-0.45s-0.39-0.2-0.65-0.26c-0.25-0.05-0.53-0.08-0.84-0.08h-2.09v2.98h2.18c0.28 0 0.54-0.03 0.78-0.07 0.24-0.05 0.45-0.13 0.62-0.25 0.18-0.12 0.31-0.27 0.41-0.47 0.1-0.19 0.15-0.44 0.15-0.73m4.18 2.53c-0.64 0-1.12-0.17-1.44-0.5-0.32-0.34-0.48-0.8-0.48-1.39 0-0.41 0.08-0.76 0.23-1.02 0.17-0.27 0.37-0.48 0.63-0.63 0.25-0.16 0.55-0.26 0.87-0.32 0.33-0.06 0.67-0.09 1.01-0.1l1.42-0.02v-0.35c0-0.26-0.03-0.48-0.08-0.67-0.06-0.18-0.14-0.33-0.25-0.44-0.12-0.12-0.26-0.2-0.43-0.25s-0.37-0.08-0.6-0.08c-0.2 0-0.39 0.01-0.55 0.05-0.16 0.02-0.31 0.08-0.43 0.15-0.12 0.08-0.22 0.18-0.29 0.31s-0.12 0.3-0.15 0.5l-1.1-0.1c0.04-0.25 0.12-0.48 0.22-0.69 0.11-0.21 0.27-0.39 0.47-0.54 0.2-0.16 0.45-0.27 0.75-0.36 0.31-0.08 0.68-0.12 1.1-0.12 0.8 0 1.4 0.18 1.8 0.55 0.41 0.36 0.61 0.89 0.61 1.58v2.73c0 0.31 0.04 0.55 0.12 0.71 0.08 0.15 0.24 0.23 0.47 0.23 0.06 0 0.12 0 0.17-0.01 0.06-0.01 0.12-0.02 0.17-0.03v0.66c-0.13 0.03-0.26 0.05-0.39 0.07-0.13 0.01-0.27 0.02-0.42 0.02-0.2 0-0.37-0.02-0.52-0.07-0.14-0.06-0.25-0.14-0.34-0.24-0.09-0.11-0.16-0.25-0.21-0.4-0.04-0.16-0.07-0.35-0.08-0.56h-0.04c-0.11 0.2-0.24 0.39-0.37 0.55-0.14 0.16-0.29 0.31-0.47 0.42-0.18 0.12-0.39 0.2-0.62 0.27-0.22 0.06-0.49 0.09-0.78 0.09m0.24-0.79c0.33 0 0.63-0.06 0.88-0.18 0.25-0.13 0.46-0.29 0.62-0.48 0.17-0.19 0.3-0.4 0.38-0.62 0.08-0.23 0.12-0.45 0.12-0.65v-0.53l-1.15 0.03c-0.26 0-0.51 0.02-0.74 0.06-0.23 0.03-0.44 0.09-0.61 0.19-0.18 0.1-0.32 0.23-0.42 0.41s-0.16 0.41-0.16 0.69c0 0.34 0.1 0.61 0.28 0.8 0.19 0.19 0.45 0.28 0.8 0.28m5.62-2.53c0 0.37 0.03 0.7 0.08 1.01 0.05 0.3 0.14 0.56 0.27 0.79 0.12 0.22 0.29 0.39 0.49 0.51 0.21 0.12 0.46 0.18 0.76 0.18 0.38 0 0.69-0.1 0.94-0.31 0.25-0.2 0.41-0.51 0.47-0.93l1.06 0.07c-0.03 0.26-0.11 0.51-0.22 0.75-0.12 0.24-0.28 0.46-0.48 0.64s-0.45 0.33-0.74 0.45c-0.29 0.11-0.62 0.16-1 0.16-0.5 0-0.92-0.08-1.26-0.25-0.35-0.17-0.64-0.4-0.85-0.69-0.22-0.3-0.38-0.65-0.47-1.05-0.1-0.4-0.15-0.83-0.15-1.3 0-0.43 0.04-0.8 0.11-1.13s0.16-0.61 0.29-0.85c0.13-0.25 0.28-0.45 0.45-0.62s0.36-0.3 0.56-0.4 0.41-0.17 0.64-0.21c0.22-0.05 0.44-0.07 0.67-0.07 0.35 0 0.67 0.04 0.95 0.14s0.51 0.23 0.71 0.41c0.21 0.16 0.37 0.36 0.5 0.59 0.12 0.23 0.21 0.48 0.26 0.75l-1.09 0.08c-0.05-0.35-0.19-0.63-0.41-0.84-0.22-0.2-0.54-0.31-0.95-0.31-0.3 0-0.55 0.05-0.76 0.15-0.2 0.1-0.36 0.25-0.48 0.46-0.13 0.19-0.22 0.45-0.27 0.75-0.05 0.31-0.08 0.66-0.08 1.07m9.2 3.2l-2.15-2.89-0.77 0.64v2.25h-1.06v-8.69h1.06v5.43l2.78-3.08h1.24l-2.58 2.73 2.71 3.61h-1.23"/>
  </g>
 </g>
</svg>
