<?xml version="1.0" encoding="UTF-8" standalone="no"?>
<svg xmlns:rdf="http://www.w3.org/1999/02/22-rdf-syntax-ns#" xmlns="http://www.w3.org/2000/svg" xmlns:cc="http://creativecommons.org/ns#" xmlns:dc="http://purl.org/dc/elements/1.1/" height="400pt" width="400pt">
 <defs>
  <filter id="filter3171">
   <feGaussianBlur stdDeviation="6.5758775"/>
  </filter>
 </defs>
 <path d="m172.85 70.461c3.6 0 35.97-23.982 88.74-26.381 71.95-8.394 101.92 38.373 101.92 38.373-2.39 5.995 49.17-37.174 79.15-33.576 32.37 4.796 45.57 19.186 41.97 49.164-2.4 19.189-22.79 27.579-27.58 37.169 2.4 4.8 28.78 20.39 28.78 62.36s-26.38 64.75-25.19 64.75c1.2 0 26.39 41.97 7.2 67.16-19.19 25.18-73.15 1.2-81.54-3.6-8.4 2.4-8.4 19.18-32.38 22.78s-53.96-7.19-53.96-7.19l-11.99-9.6-169.08 135.51 109.12-128.31c-15.59 4.8-11.99 8.39-56.36 13.19-37.17 0-28.78-7.2-40.77-11.99-14.39 9.59-73.148 22.78-92.334-13.19-15.589-45.57 8.394-56.36 13.191-64.76-4.797-10.79-20.386-28.78-17.988-62.35 0-43.17 10.793-64.76 20.386-71.95-4.797-9.59-23.983-47.966 17.987-71.948 69.548-17.988 99.528 15.588 100.73 14.389z" fill-rule="evenodd" fill-opacity=".49804" filter="url(#filter3171)" stroke-width="2.5" fill="#000000"/>
 <path stroke-linejoin="round" d="m158.29 57.516c3.59 0 35.97-23.982 88.73-26.381 71.95-8.394 101.93 38.373 101.93 38.373-2.4 5.995 49.17-37.174 79.14-33.576 32.38 4.796 45.57 19.186 41.97 49.164-2.39 19.184-22.78 27.584-27.58 37.174 2.4 4.8 28.78 20.39 28.78 62.36s-26.38 64.75-25.18 64.75 26.38 41.97 7.2 67.15c-19.19 25.18-73.15 1.2-81.55-3.6-8.39 2.4-8.39 19.19-32.37 22.79-23.99 3.6-53.96-7.2-53.96-7.2l-12-9.59-169.07 135.5 109.12-128.31c-15.59 4.8-11.99 8.4-56.36 13.2-37.18 0-28.78-7.2-40.77-12-14.39 9.6-73.151 22.79-92.337-13.19-15.589-45.56 8.394-56.36 13.19-64.75-4.796-10.79-20.385-28.78-17.987-62.36 0-43.17 10.793-64.75 20.386-71.94-4.797-9.6-23.983-47.971 17.987-71.953 69.551-17.988 99.531 15.589 100.73 14.389z" fill-rule="evenodd" stroke="#000000" stroke-width="10" fill="#ffffff"/>
</svg>
