<?xml version="1.0" encoding="UTF-8" standalone="no"?>
<svg xmlns:rdf="http://www.w3.org/1999/02/22-rdf-syntax-ns#" xmlns="http://www.w3.org/2000/svg" xmlns:cc="http://creativecommons.org/ns#" xmlns:dc="http://purl.org/dc/elements/1.1/" height="400pt" width="400pt">
 <defs>
  <filter id="filter3171">
   <feGaussianBlur stdDeviation="6.5758775"/>
  </filter>
 </defs>
 <path d="m166.38 68.843c3.59 0 35.97-23.983 88.73-26.381 71.95-8.394 101.93 38.373 101.93 38.373-2.4 5.995 49.17-37.174 79.14-33.576 32.38 4.796 45.57 19.186 41.97 49.164-2.39 19.187-22.78 27.577-27.58 37.177 2.4 4.79 28.78 20.38 28.78 62.35s-26.38 64.76-25.18 64.76 26.38 41.97 7.2 67.15c-19.19 25.18-73.15 1.2-81.55-3.6-8.39 2.4-8.39 19.19-32.37 22.78-23.99 3.6-53.96-7.19-53.96-7.19l-11.99-9.59 129.5 135.5-189.46-128.31c-15.59 4.8-11.99 8.39-56.36 13.19-37.18 0-28.78-7.19-40.77-11.99-14.39 9.59-73.15 22.78-92.337-13.19-15.588-45.57 8.395-56.36 13.191-64.75-4.796-10.8-20.385-28.78-17.987-62.36 0-43.17 10.792-64.75 20.385-71.95-4.796-9.59-23.982-47.964 17.987-71.947 69.551-17.987 99.531 15.589 100.73 14.39z" fill-rule="evenodd" fill-opacity=".49804" filter="url(#filter3171)" stroke-width="2.5" fill="#000000"/>
 <path stroke-linejoin="round" d="m151.81 54.28c3.6 0 35.98-23.983 88.74-26.381 71.95-8.394 101.93 38.372 101.93 38.372-2.4 5.996 49.16-37.173 79.14-33.576 32.38 4.797 45.57 19.187 41.97 49.165-2.4 19.19-22.78 27.58-27.58 37.17 2.4 4.8 28.78 20.39 28.78 62.36s-26.38 64.75-25.18 64.75 26.38 41.97 7.19 67.15c-19.18 25.19-73.14 1.2-81.54-3.59-8.39 2.4-8.39 19.18-32.38 22.78-23.98 3.6-53.96-7.19-53.96-7.19l-11.99-9.6 129.51 135.51-189.47-128.31c-15.58 4.79-11.99 8.39-56.35 13.19-37.18 0-28.78-7.2-40.78-11.99-14.385 9.59-73.143 22.78-92.33-13.19-15.588-45.57 8.394-56.36 13.191-64.76-4.797-10.79-20.385-28.78-17.987-62.35 0-43.17 10.792-64.76 20.385-71.95-4.796-9.59-23.983-47.967 17.987-71.95 69.554-17.987 99.534 15.589 100.72 14.39z" fill-rule="evenodd" stroke="#000000" stroke-width="10" fill="#ffffff"/>
</svg>
