<?xml version="1.0" encoding="UTF-8" standalone="no"?>
<svg xmlns:rdf="http://www.w3.org/1999/02/22-rdf-syntax-ns#" xmlns="http://www.w3.org/2000/svg" xmlns:cc="http://creativecommons.org/ns#" xmlns:dc="http://purl.org/dc/elements/1.1/" height="400pt" width="400pt">
 <defs>
  <filter id="filter4261">
   <feGaussianBlur stdDeviation="6.5341381"/>
  </filter>
 </defs>
 <path d="m261.21 25.577c-116.15 3.221-232.88 64.446-235.97 184.09 2.712 96.19 91.59 145.85 191.21 152.94-4.98 5.26-8.03 11.61-8.28 19.12 0.7 19.35 23.17 29.46 48.65 31.16-0.81 1.41-1.35 2.96-1.41 4.75 0.49 15.03 36.37 13.49 37.1-1.41-0.01-2.32-0.93-4.24-2.35-5.84 21.59-4.84 39.24-15.92 40.16-32.78-0.09-9.36-5.3-16.66-13.32-22.1 92.83-19.74 172.87-76.11 176.71-166.09-0.77-112.28-116.34-167.06-232.5-163.84z" fill-rule="evenodd" fill-opacity=".49804" filter="url(#filter4261)" stroke-width="1.25" fill="#000000"/>
 <g stroke-linejoin="round" fill-rule="evenodd" stroke="#000000" stroke-width="10" fill="#ffffff">
  <path d="m479.37 178.09c-9.28 217.2-462.29 239.29-468.47 20.24 6.181-239.29 466.92-244.81 468.47-20.24z"/>
  <path d="m315.97 366.28c-2.41 44.38-120.53 48.9-122.14 4.14 1.61-48.9 121.74-50.02 122.14-4.14z"/>
  <path d="m278.17 404.91c-0.73 14.9-36.61 16.42-37.1 1.39 0.49-16.41 36.98-16.79 37.1-1.39z"/>
 </g>
</svg>
