<?xml version="1.0" encoding="UTF-8" standalone="no"?>
<svg xmlns:rdf="http://www.w3.org/1999/02/22-rdf-syntax-ns#" xmlns="http://www.w3.org/2000/svg" xmlns:cc="http://creativecommons.org/ns#" xmlns:dc="http://purl.org/dc/elements/1.1/" height="400pt" width="400pt">
 <defs>
  <filter id="filter3203">
   <feGaussianBlur stdDeviation="6.406167"/>
  </filter>
 </defs>
 <path d="m260.12 23.959c-116.57-3.222-232.56 51.559-233.34 163.84 5.618 130.94 173.01 190.84 306.49 169.88-0.15 1.08-0.3 2.17-0.31 3.31 1.63 29.72 55.24 41.45 91.02 32.59-0.2 0.73-0.36 1.47-0.37 2.28 0.74 14.91 36.75 16.44 37.24 1.41-0.23-7.59-8.21-11.58-16.7-12.34 6.8-4.97 11.1-11.55 11.4-19.82-0.6-18.07-17.47-29.56-38.49-34.62 46.35-25.17 78.28-65.62 79.89-122.44-3.11-119.64-120.26-180.87-236.83-184.09z" fill-rule="evenodd" fill-opacity=".49804" filter="url(#filter3203)" stroke-width="1.25" fill="#000000"/>
 <g stroke-linejoin="round" fill-rule="evenodd" stroke="#000000" stroke-width="10" fill="#ffffff">
  <path d="m10.919 182.94c9.31 217.21 463.95 239.3 470.16 20.25-6.21-239.3-468.61-244.82-470.16-20.25z"/>
  <path d="m317.09 356.14c2.43 44.38 120.97 48.89 122.59 4.13-1.62-48.89-122.18-50.02-122.59-4.13z"/>
  <path d="m407.74 391.02c0.74 14.9 36.75 16.41 37.24 1.39-0.49-16.42-37.11-16.8-37.24-1.39z"/>
 </g>
</svg>
