<?xml version="1.0" encoding="UTF-8" standalone="no"?>
<svg xmlns:rdf="http://www.w3.org/1999/02/22-rdf-syntax-ns#" xmlns="http://www.w3.org/2000/svg" xmlns:cc="http://creativecommons.org/ns#" xmlns:dc="http://purl.org/dc/elements/1.1/" height="400pt" width="400pt">
 <defs>
  <filter id="filter3736">
   <feGaussianBlur stdDeviation="6.4057155"/>
  </filter>
 </defs>
 <path d="m260.41 28.813c-116.56 3.221-233.7 64.446-236.8 184.1 1.609 56.82 33.53 97.26 79.88 122.43-21.021 5.06-37.886 16.56-38.484 34.63 0.299 8.26 4.6 14.85 11.399 19.81-8.494 0.76-16.473 4.76-16.7 12.35 0.492 15.02 36.492 13.49 37.23-1.41-0.007-0.82-0.167-1.55-0.368-2.28 35.783 8.86 89.383-2.88 91.003-32.6-0.01-1.14-0.15-2.22-0.3-3.31 133.46 20.96 300.83-38.93 306.44-169.87-0.77-112.29-116.75-167.07-233.3-163.85z" fill-rule="evenodd" fill-opacity=".49804" filter="url(#filter3736)" stroke-width="1.25" fill="#000000"/>
 <g stroke-linejoin="round" fill-rule="evenodd" stroke="#000000" stroke-width="10" fill="#ffffff">
  <path d="m481.01 178.09c-9.3 217.2-463.89 239.29-470.09 20.24 6.204-239.29 468.54-244.81 470.09-20.24z"/>
  <path d="m174.88 351.28c-2.43 44.38-120.95 48.9-122.57 4.14 1.62-48.9 122.16-50.02 122.57-4.14z"/>
  <path d="m84.242 386.16c-0.738 14.9-36.745 16.42-37.236 1.39 0.491-16.41 37.113-16.79 37.236-1.39z"/>
 </g>
</svg>
