<?xml version="1.0" encoding="UTF-8" standalone="no"?>
<svg xmlns:rdf="http://www.w3.org/1999/02/22-rdf-syntax-ns#" xmlns="http://www.w3.org/2000/svg" xmlns:cc="http://creativecommons.org/ns#" xmlns:dc="http://purl.org/dc/elements/1.1/" height="400pt" width="400pt">
 <defs>
  <filter id="filter4261">
   <feGaussianBlur stdDeviation="6.8683288"/>
  </filter>
 </defs>
 <path d="m253.27 30.841c-109.16 1.754-205.44 62.596-225.88 148.91-23.367 98.64 61.132 193.36 188.62 211.43l1.28-0.06 0.7 0.56-2.89 0.1 181.07 85.12-73.39-89.72c88.17-19.47 149.99-72.14 166.52-141.93 23.36-98.64-61.17-193.36-188.66-211.44-15.93-2.26-31.77-3.22-47.37-2.969zm69.05 356.38h0.27v0.46l-0.27-0.46z" fill-opacity=".49804" fill-rule="evenodd" filter="url(#filter4261)" stroke-width="2.5" fill="#000000"/>
 <path stroke-linejoin="round" d="m240.66 22.75c-109.16 1.754-205.44 62.597-225.88 148.91-23.368 98.64 61.131 193.36 188.62 211.43l1.28-0.06 0.7 0.56-2.89 0.1 181.07 85.12-73.4-89.72c88.18-19.47 150-72.14 166.53-141.93 23.36-98.64-61.17-193.37-188.66-211.44-15.93-2.261-31.77-3.221-47.37-2.97zm69.05 356.37h0.27v0.47l-0.27-0.47z" fill-rule="evenodd" stroke="#000000" stroke-width="10" fill="#ffffff"/>
</svg>
