<?xml version="1.0" encoding="UTF-8" standalone="no"?>
<svg xmlns:rdf="http://www.w3.org/1999/02/22-rdf-syntax-ns#" xmlns="http://www.w3.org/2000/svg" xmlns:cc="http://creativecommons.org/ns#" xmlns:dc="http://purl.org/dc/elements/1.1/" height="400pt" width="400pt">
 <defs>
  <filter id="filter3778">
   <feGaussianBlur stdDeviation="6.8958863"/>
  </filter>
 </defs>
 <path d="m253.3 32.459c-109.88 1.754-206.8 62.596-227.38 148.9-23.52 98.64 61.539 193.37 189.87 211.44l1.26-0.03c-0.04 0.24 0.03 0.33-0.03 0.56l-2.15 0.07 60.04 85.68 47.5-89.25-4.26 0.16c0.13-0.01 2.69-0.13 2.69-0.13l1.69-1 0.4-0.03-0.52 1 0.67-0.03v-0.97h0.03c88.84-19.44 151.13-72.13 167.78-141.97 23.52-98.63-61.57-193.36-189.9-211.43-16.05-2.262-31.99-3.222-47.69-2.971z" fill-opacity=".49804" fill-rule="evenodd" filter="url(#filter3778)" stroke-width="2.5" fill="#000000"/>
 <path stroke-linejoin="round" d="m240.61 22.75c-109.89 1.754-206.81 62.597-227.39 148.91-23.514 98.64 61.545 193.36 189.88 211.43l1.26-0.03c-0.05 0.24 0.03 0.33-0.04 0.56l-2.14 0.07 60.03 85.69 47.5-89.26-4.26 0.16c0.14 0 2.7-0.12 2.7-0.12l1.68-1 0.4-0.04-0.52 1 0.68-0.03v-0.97h0.03c88.84-19.44 151.13-72.13 167.78-141.96 23.51-98.64-61.58-193.37-189.91-211.44-16.04-2.261-31.98-3.221-47.68-2.97z" fill-rule="evenodd" stroke="#000000" stroke-width="10" fill="#ffffff"/>
</svg>
