<?xml version="1.0" encoding="UTF-8" standalone="no"?>
<svg xmlns:rdf="http://www.w3.org/1999/02/22-rdf-syntax-ns#" xmlns="http://www.w3.org/2000/svg" xmlns:cc="http://creativecommons.org/ns#" xmlns:dc="http://purl.org/dc/elements/1.1/" height="400pt" width="400pt">
 <defs>
  <filter id="filter4788">
   <feGaussianBlur stdDeviation="6.5473177"/>
  </filter>
 </defs>
 <path d="m231.61 322.7l37.17 155.89 25.18-158.29 64.76 34.78c15.59-14.39 29.98-29.98 45.56-40.77 20.39 5.99 73.15 19.18 81.55 22.78l-20.39-68.35 31.18-55.16-31.18-52.76 14.39-76.749-79.14 21.589-63.56-41.974-79.14 53.964-74.35-49.168-56.36 50.368-82.738-14.39 34.775 69.55-40.771 64.75 40.771 41.97-25.182 82.74 76.745-32.38 46.77 49.17 53.96-57.56z" fill-rule="evenodd" fill-opacity=".49804" filter="url(#filter4788)" stroke-width="2.5" fill="#000000"/>
 <path stroke-linejoin="round" d="m217.04 308.14l37.18 155.89 25.18-158.29 64.75 34.77c15.59-14.39 29.98-29.97 45.57-40.77 20.39 6 73.15 19.19 81.54 22.79l-20.38-68.35 31.18-55.16-31.18-52.77 14.39-76.742-79.15 21.584-63.55-41.97-79.14 53.958-74.35-49.161-56.36 50.361-82.741-14.387 34.775 69.547-40.771 64.76 40.771 41.97-25.182 82.74 76.748-32.38 46.76 49.17 53.96-57.56z" fill-rule="evenodd" stroke="#000000" stroke-width="10" fill="#ffffff"/>
</svg>
