<?xml version="1.0" encoding="UTF-8" standalone="no"?>
<svg xmlns:rdf="http://www.w3.org/1999/02/22-rdf-syntax-ns#" xmlns="http://www.w3.org/2000/svg" xmlns:cc="http://creativecommons.org/ns#" xmlns:dc="http://purl.org/dc/elements/1.1/" height="400pt" width="400pt">
 <defs>
  <filter id="filter5327">
   <feGaussianBlur stdDeviation="6.5922877"/>
  </filter>
 </defs>
 <path d="m234.84 324.32l224.24 161.88-161.88-164.28 77.94 32.38c13.19-20.39 20.39-23.99 32.38-38.38 20.39 6 73.15 19.19 81.54 22.79l-20.38-68.35 31.17-55.16-31.17-52.77 14.39-76.741-79.15 21.581-63.55-41.966-79.14 53.966-74.35-49.17-56.36 50.36-82.742-14.39 34.775 69.55-40.771 64.76 40.771 41.97-25.182 82.74 76.749-32.38 52.76 47.97 47.96-56.36z" fill-opacity=".49804" fill-rule="evenodd" filter="url(#filter5327)" fill="#000000"/>
 <path stroke-linejoin="round" d="m217.04 308.14l224.24 161.88-161.88-164.28 77.94 32.38c13.2-20.39 20.39-23.99 32.38-38.38 20.39 6 73.15 19.19 81.54 22.79l-20.38-68.35 31.18-55.16-31.18-52.77 14.39-76.742-79.15 21.584-63.55-41.97-79.14 53.958-74.35-49.161-56.36 50.361-82.741-14.387 34.775 69.547-40.771 64.76 40.771 41.97-25.182 82.74 76.748-32.38 52.76 47.97 47.96-56.36z" fill-rule="evenodd" stroke="#000000" stroke-width="10" fill="#ffffff"/>
</svg>
