<?xml version="1.0" encoding="UTF-8" standalone="no"?>
<svg xmlns:rdf="http://www.w3.org/1999/02/22-rdf-syntax-ns#" xmlns="http://www.w3.org/2000/svg" xmlns:cc="http://creativecommons.org/ns#" xmlns:dc="http://purl.org/dc/elements/1.1/" height="400pt" width="400pt">
 <defs>
  <filter id="filter3734">
   <feGaussianBlur stdDeviation="5.8098427"/>
  </filter>
 </defs>
 <path d="m274.76 333.77l84.17 26.68c15.59-14.39 29.98-29.98 45.57-40.77 20.39 6 73.15 19.19 81.54 22.78l-20.38-68.35 31.18-55.16-31.18-52.76 14.39-76.745-79.15 21.585-63.55-41.971-79.14 53.961-74.35-49.164-56.36 50.364-82.741-14.39 34.775 69.55-40.771 64.75 40.771 41.97-25.182 82.75 76.748-32.38 46.76 49.16 96.9-51.86z" fill-rule="evenodd" fill-opacity=".49804" filter="url(#filter3734)" stroke-width="2.5" fill="#000000"/>
 <path stroke-linejoin="round" d="m259.98 313.83l84.17 26.68c15.59-14.39 29.98-29.97 45.57-40.77 20.39 6 73.15 19.19 81.54 22.79l-20.38-68.35 31.18-55.16-31.18-52.77 14.39-76.742-79.15 21.584-63.55-41.97-79.14 53.958-74.35-49.161-56.36 50.361-82.741-14.387 34.775 69.547-40.771 64.76 40.771 41.97-25.182 82.74 76.748-32.38 46.76 49.17 96.9-51.87z" fill-rule="evenodd" stroke="#000000" stroke-width="10" fill="#ffffff"/>
</svg>
