<?xml version="1.0" encoding="UTF-8" standalone="no"?>
<svg xmlns:rdf="http://www.w3.org/1999/02/22-rdf-syntax-ns#" xmlns="http://www.w3.org/2000/svg" xmlns:cc="http://creativecommons.org/ns#" xmlns:dc="http://purl.org/dc/elements/1.1/" height="400pt" width="400pt">
 <defs>
  <filter id="filter3219">
   <feGaussianBlur stdDeviation="7.1251142"/>
  </filter>
 </defs>
 <path d="m329.31 300.78l73.38 49.05-51.44-83.26 100.79 22.92-59.68-51.56h111.4l-103.44-31.5 91.5-39.99-77.05-16.13 39.93-49.35-62.92 9.22 23.12-62.7-59.98 38.897-14.1-57.782-42.63 51.786c0-3.597-25.03-51.051-26.35-51.051-1.33 0-25.8 50.084-25.8 50.084l-44.65-46.255-11.2 54.416-41.83-46.591s-0.91 52.051-3.57 52.051c-2.65 0-63.335-32.271-63.335-32.271s14.562 59.286 14.562 60.716-65.844-10.33-65.844-10.33l54.226 42.76-57.462 19.51s48.166 36.21 46.84 37.64c-1.326 1.44-42.583 37.83-42.583 37.83s73.536-1.79 72.206-1.79c-0.14 1.2-70.309 54.54-70.309 55.97s76.349-19.08 76.349-19.08l-51.444 74.53 85.774-60.44-11.04 66.8 43.45-42.39 16.98 44.05 34.92-39.52 196.01 174.77-154.92-175.47 64.85 26.91-4.71-52.45z" fill-rule="evenodd" fill-opacity=".49804" filter="url(#filter3219)" stroke-width="2.1582" fill="#000000"/>
 <path stroke-linejoin="round" d="m307.02 286.21l73.37 49.05-51.44-83.25 100.79 22.91-59.68-51.55h111.4l-103.44-31.5 91.5-39.99-77.05-16.13 39.93-49.35-62.92 9.22 23.13-62.703-59.98 38.896-14.1-57.781-42.64 51.785c0-3.596-25.02-51.051-26.35-51.051-1.32 0-25.79 50.085-25.79 50.085l-44.65-46.255-11.21 54.416-41.83-46.592s-0.91 52.052-3.56 52.052c-2.66 0-63.341-32.271-63.341-32.271s14.561 59.279 14.561 60.709c0 1.44-65.844-10.322-65.844-10.322l54.227 42.762-57.463 19.51c0.0003 0 48.167 36.21 46.84 37.64-1.326 1.43-42.582 37.83-42.582 37.83-0.0004 0 73.534-1.8 72.208-1.8-0.146 1.2-70.312 54.55-70.312 55.98s76.347-19.08 76.347-19.08l-51.441 74.53 85.77-60.45-11.04 66.81 43.46-42.39 16.97 44.05 34.92-39.52 196.01 174.77-154.91-175.47 64.84 26.9-4.7-52.45z" fill-rule="evenodd" stroke="#000000" stroke-width="10" fill="#ffffff"/>
</svg>
