<?xml version="1.0" encoding="UTF-8" standalone="no"?>
<svg xmlns:rdf="http://www.w3.org/1999/02/22-rdf-syntax-ns#" xmlns="http://www.w3.org/2000/svg" xmlns:cc="http://creativecommons.org/ns#" xmlns:dc="http://purl.org/dc/elements/1.1/" height="400pt" width="400pt">
 <defs>
  <filter id="filter3742">
   <feGaussianBlur stdDeviation="7.1066039"/>
  </filter>
 </defs>
 <path d="m320.59 299.1l57.3 53.85-26.32-92.85 99.51 22.91-58.92-51.55h109.98l-102.13-31.5 90.34-39.99-76.07-16.13 39.43-49.349-62.13 9.219 22.84-62.703-59.22 38.897-13.92-57.781-42.09 51.785c0-3.597-24.71-51.051-26.02-51.051s-25.47 50.085-25.47 50.085l-44.08-46.255-11.06 54.416-41.3-46.592s-0.9 52.052-3.52 52.052-62.531-32.272-62.531-32.272 14.376 59.279 14.376 60.709c0 1.44-65.007-10.32-65.007-10.32l53.537 42.76-56.731 19.51s47.553 36.21 46.244 37.64-42.041 37.83-42.041 37.83 72.603-1.8 71.293-1.8c-0.15 1.2-69.42 54.55-69.42 55.98s75.38-19.08 75.38-19.08l-50.792 74.53 84.682-60.45-17.9 65.61 49.9-41.19-13.54 35.66 64.77-31.13-160.71 178.37 201.29-179.07 24.4 43.69 25.65-64.44z" fill-rule="evenodd" fill-opacity=".49804" filter="url(#filter3742)" stroke-width="2.1582" fill="#000000"/>
 <path stroke-linejoin="round" d="m297.01 287.78l57.29 53.84-26.32-92.85 99.51 22.92-58.92-51.56h109.98l-102.12-31.5 90.34-39.99-76.07-16.13 39.42-49.346-62.12 9.22 22.83-62.703-59.22 38.896-13.92-57.781-42.09 51.785c0-3.597-24.71-51.051-26.02-51.051-1.3 0-25.46 50.085-25.46 50.085l-44.08-46.255-11.07 54.416-41.29-46.592s-0.91 52.052-3.52 52.052c-2.62 0-62.537-32.271-62.537-32.271s14.376 59.285 14.376 60.715-65.006-10.328-65.006-10.328l53.537 42.758-56.732 19.52c0.0003 0 47.554 36.2 46.245 37.63-1.31 1.44-42.042 37.83-42.042 37.83s72.6-1.79 71.291-1.79c-0.144 1.2-69.418 54.54-69.418 55.97s75.376-19.08 75.376-19.08l-50.788 74.53 84.688-60.44-17.9 65.6 49.9-41.19-13.54 35.66 64.77-31.13-160.71 178.37 201.28-179.07 24.41 43.7 25.65-64.44z" fill-rule="evenodd" stroke="#000000" stroke-width="10" fill="#ffffff"/>
</svg>
