<?xml version="1.0" encoding="UTF-8" standalone="no"?>
<svg xmlns:rdf="http://www.w3.org/1999/02/22-rdf-syntax-ns#" xmlns="http://www.w3.org/2000/svg" xmlns:cc="http://creativecommons.org/ns#" xmlns:dc="http://purl.org/dc/elements/1.1/" height="400pt" width="400pt">
 <defs>
  <filter id="filter4804">
   <feGaussianBlur stdDeviation="6.2719001"/>
  </filter>
 </defs>
 <path d="m316.22 307.19l69.38 52.65-38.21-91.65 100.13 22.91-59.29-51.55h110.67l-102.76-31.5 90.9-39.99-76.54-16.13 39.67-49.35-62.52 9.22 22.98-62.702-59.59 38.897-14-57.782-42.36 51.786c0-3.597-24.86-51.051-26.18-51.051s-25.62 50.085-25.62 50.085l-44.36-46.256-11.13 54.417-41.56-46.592s-0.91 52.051-3.54 52.051c-2.64 0-62.924-32.271-62.924-32.271s14.466 59.278 14.466 60.718c0 1.43-65.413-10.33-65.413-10.33l53.872 42.76-57.087 19.51s47.851 36.21 46.534 37.64-42.304 37.83-42.304 37.83 73.056-1.79 71.736-1.79c-0.15 1.19-69.852 54.54-69.852 55.97s75.852-19.08 75.852-19.08l-51.11 74.53 85.21-60.44-18.01 65.6 50.21-41.19 2.8 44.05 48.76-39.52 28.93 64.13 18.93-62.43 35.11 26.9 8.22-50.05z" fill-rule="evenodd" fill-opacity=".49804" filter="url(#filter4804)" stroke-width="2.1582" fill="#000000"/>
 <path stroke-linejoin="round" d="m297.23 289.39l69.38 52.65-38.2-91.65 100.12 22.91-59.28-51.55h110.66l-102.76-31.5 90.91-39.99-76.55-16.13 39.67-49.348-62.51 9.22 22.97-62.703-59.58 38.896-14.01-57.781-42.36 51.785c0-3.597-24.86-51.051-26.17-51.051-1.32 0-25.63 50.085-25.63 50.085l-44.36-46.255-11.13 54.416-41.55-46.592s-0.91 52.052-3.55 52.052c-2.63 0-62.921-32.271-62.921-32.271s14.467 59.277 14.467 60.717c0 1.43-65.413-10.33-65.413-10.33l53.871 42.76-57.086 19.51c0.0001 0 47.851 36.21 46.534 37.64-1.318 1.43-42.304 37.83-42.304 37.83s73.053-1.79 71.736-1.79c-0.145 1.19-69.852 54.54-69.852 55.97s75.847-19.08 75.847-19.08l-51.105 74.53 85.216-60.44-18.01 65.6 50.21-41.19 2.79 44.05 48.76-39.52 30.52 54.42 17.34-52.72 35.11 26.9 8.22-50.05z" fill-rule="evenodd" stroke="#000000" stroke-width="10" fill="#ffffff"/>
</svg>
