<?xml version="1.0" encoding="UTF-8" standalone="no"?>
<svg xmlns:rdf="http://www.w3.org/1999/02/22-rdf-syntax-ns#" xmlns="http://www.w3.org/2000/svg" xmlns:cc="http://creativecommons.org/ns#" xmlns:dc="http://purl.org/dc/elements/1.1/" height="400pt" width="400pt">
 <defs>
  <filter id="filter4281">
   <feGaussianBlur stdDeviation="6.9986507"/>
  </filter>
 </defs>
 <path d="m316.66 307.19l69.83 52.65-38.45-91.65 100.77 22.91-59.67-51.55h111.38l-103.42-31.5 91.49-39.99-77.04-16.13 39.92-49.35-62.91 9.22 23.12-62.702-59.97 38.897-14.1-57.782-42.63 51.786c0-3.597-25.02-51.051-26.34-51.051-1.33 0-25.79 50.085-25.79 50.085l-44.65-46.256-11.2 54.417-41.82-46.592s-0.92 52.051-3.57 52.051-63.326-32.271-63.326-32.271 14.559 59.278 14.559 60.718c0 1.43-65.834-10.33-65.834-10.33l54.218 42.76-57.453 19.51s48.159 36.21 46.833 37.64-42.577 37.83-42.577 37.83 73.52-1.79 72.2-1.79c-0.15 1.19-70.303 54.54-70.303 55.97s76.333-19.08 76.333-19.08l-51.432 74.53 85.762-60.44-18.13 65.6 50.54-41.19 2.81 44.05 49.07-39.52 35.5 157.98 12.67-156.28 35.34 26.9 8.27-50.05z" fill-rule="evenodd" fill-opacity=".49804" filter="url(#filter4281)" stroke-width="2.1582" fill="#000000"/>
 <path stroke-linejoin="round" d="m299.15 289.39l69.82 52.65-38.45-91.65 100.77 22.91-59.67-51.55h111.38l-103.42-31.5 91.49-39.99-77.04-16.13 39.93-49.348-62.92 9.22 23.13-62.703-59.98 38.896-14.09-57.781-42.63 51.785c0-3.597-25.02-51.051-26.35-51.051-1.32 0-25.79 50.085-25.79 50.085l-44.64-46.255-11.21 54.416-41.82-46.592s-0.91 52.052-3.56 52.052c-2.66 0-63.333-32.271-63.333-32.271s14.56 59.277 14.56 60.717c0 1.43-65.834-10.33-65.834-10.33l54.218 42.76-57.454 19.51c0.0005 0 48.159 36.21 46.833 37.64-1.325 1.43-42.576 37.83-42.576 37.83s73.524-1.79 72.198-1.79c-0.146 1.19-70.301 54.54-70.301 55.97s76.335-19.08 76.335-19.08l-51.434 74.53 85.758-60.44-18.12 65.6 50.53-41.19 2.81 44.05 49.08-39.52 35.49 157.98 12.68-156.28 35.33 26.9 8.28-50.05z" fill-rule="evenodd" stroke="#000000" stroke-width="10" fill="#ffffff"/>
</svg>
